<svg xmlns="http://www.w3.org/2000/svg" width="30" height="30" fill="none"><path fill="#000" d="M17 3.792a2 2 0 1 1-4 0 2 2 0 0 1 4 0ZM17 25.791a2 2 0 1 1-4 0 2 2 0 0 1 4 0ZM22.232 6.265a2 2 0 1 1-3.464-2 2 2 0 0 1 3.464 2ZM11.232 25.318a2 2 0 1 1-3.464-2 2 2 0 0 1 3.464 2ZM25.526 11.024a2 2 0 1 1-2-3.465 2 2 0 0 1 2 3.465ZM6.474 22.024a2 2 0 1 1-2-3.465 2 2 0 0 1 2 3.465ZM26 16.791a2 2 0 1 1 0-4 2 2 0 0 1 0 4ZM4 16.791a2 2 0 1 1 0-4 2 2 0 0 1 0 4ZM23.526 22.024a2 2 0 1 1 2-3.465 2 2 0 0 1-2 3.465ZM4.474 11.024a2 2 0 1 1 2-3.465 2 2 0 0 1-2 3.465ZM18.768 25.318a2 2 0 1 1 3.464-2 2 2 0 0 1-3.464 2ZM7.768 6.265a2 2 0 1 1 3.464-2 2 2 0 0 1-3.464 2Z"/></svg>