<svg xmlns="http://www.w3.org/2000/svg" width="30" height="30" fill="none"><g clip-path="url(#a)"><path fill="#000" d="M8.161 14.024a2.527 2.527 0 0 1 1.84-.824c.69.003 1.351.3 1.838.824.488.525.761 1.236.761 1.976s-.273 1.45-.76 1.976A2.527 2.527 0 0 1 10 18.8a2.527 2.527 0 0 1-1.839-.825A2.906 2.906 0 0 1 7.401 16c0-.74.273-1.45.76-1.976ZM18.159 14.024a2.527 2.527 0 0 1 1.839-.824c.69.003 1.352.3 1.839.824.487.525.76 1.236.76 1.976s-.273 1.45-.76 1.976a2.527 2.527 0 0 1-1.84.824 2.527 2.527 0 0 1-1.838-.825A2.907 2.907 0 0 1 17.398 16c0-.74.273-1.45.76-1.976Z"/><path stroke="#000" stroke-linecap="round" stroke-linejoin="round" stroke-width="2" d="M12 6.8c-.209-.715-1.248-2.082-2-2.2-1.53.167-3.97 1.024-5.4 1.8-1.025 1.172-2.08 4.156-2.49 5.8-.685 2.736-1.066 6.048-1.115 9.2.956 1.819 4.434 3.8 6.505 4 .483-.524 1.9-2.8 1.9-2.8m8.595-15.8c.209-.715 1.248-2.082 2-2.2 1.53.167 3.97 1.024 5.4 1.8 1.025 1.172 2.08 4.156 2.49 5.8.685 2.736 1.066 6.048 1.115 9.2-.956 1.819-4.434 3.8-6.505 4-.483-.524-1.9-2.8-1.9-2.8M7 9c.6-.8 3-2 8-2s7.4 1.2 8 2M5.8 20.4C6.6 21.6 8.4 23 15 23s8.4-1.4 9.2-2.6"/></g><defs><clipPath id="a"><path fill="#fff" d="M0 0h30v30H0z"/></clipPath></defs></svg>