<svg xmlns="http://www.w3.org/2000/svg" width="30" height="30" fill="none"><path fill="#000" fill-rule="evenodd" d="M26 4H8v2h14a2 2 0 0 1 2 2v14h2V4ZM6 4v2H4a2 2 0 0 0-2 2v18a2 2 0 0 0 2 2h18a2 2 0 0 0 2-2v-2h2a2 2 0 0 0 2-2V4a2 2 0 0 0-2-2H8a2 2 0 0 0-2 2Zm16 22H4V8h18v18Z" clip-rule="evenodd"/><path fill="#000" fill-rule="evenodd" d="M23.438 15.553a.968.968 0 0 1 0 1.417l-1.49 1.418a1.091 1.091 0 0 1-1.49 0 .968.968 0 0 1 0-1.418l1.49-1.417a1.091 1.091 0 0 1 1.49 0Zm-4.468 5.67a.968.968 0 0 0 0-1.418 1.091 1.091 0 0 0-1.49 0l-1.49 1.417a.968.968 0 0 0 0 1.418 1.091 1.091 0 0 0 1.49 0l1.49-1.418Zm-4.468 2.834a.968.968 0 0 1 0 1.418l-1.49 1.417a1.091 1.091 0 0 1-1.49 0 .968.968 0 0 1 0-1.417l1.49-1.418a1.091 1.091 0 0 1 1.49 0Zm0-17.01a.968.968 0 0 1 0 1.418l-1.49 1.418a1.091 1.091 0 0 1-1.49 0 .968.968 0 0 1 0-1.418l1.49-1.417a1.091 1.091 0 0 1 1.49 0Zm-4.469 5.67a.968.968 0 0 0 0-1.417 1.091 1.091 0 0 0-1.489 0l-1.49 1.417a.968.968 0 0 0 0 1.418 1.091 1.091 0 0 0 1.49 0l1.49-1.418Zm-4.467 2.835a.968.968 0 0 1 0 1.418l-1.49 1.417a1.091 1.091 0 0 1-1.49 0 .969.969 0 0 1 0-1.417l1.49-1.417a1.091 1.091 0 0 1 1.49 0ZM23.437 11.3a.968.968 0 0 0 0-1.418 1.091 1.091 0 0 0-1.489 0l-1.49 1.418a.968.968 0 0 0 0 1.417 1.091 1.091 0 0 0 1.49 0l1.49-1.417Zm-4.467 2.835a.969.969 0 0 1 0 1.417l-1.49 1.418a1.091 1.091 0 0 1-1.49 0 .968.968 0 0 1 0-1.418l1.49-1.417a1.091 1.091 0 0 1 1.49 0Zm-4.468 5.67a.969.969 0 0 0 0-1.418 1.091 1.091 0 0 0-1.49 0l-1.49 1.418a.968.968 0 0 0 0 1.417 1.091 1.091 0 0 0 1.49 0l1.49-1.417Zm-4.468 2.835a.968.968 0 0 1 0 1.417l-1.49 1.418a1.091 1.091 0 0 1-1.49 0 .968.968 0 0 1 0-1.418l1.49-1.417a1.091 1.091 0 0 1 1.49 0Zm0-15.593-1.49 1.418a1.091 1.091 0 0 1-1.49 0 .968.968 0 0 1 0-1.418c1.105-1.05 4.772-1.705 2.98 0ZM5.566 11.3a.968.968 0 0 0 0-1.418 1.091 1.091 0 0 0-1.49 0L2.586 11.3a.968.968 0 0 0 0 1.417 1.091 1.091 0 0 0 1.49 0l1.49-1.417Zm17.871 9.922a.968.968 0 0 1 0 1.418l-1.489 1.417a1.091 1.091 0 0 1-1.49 0 .968.968 0 0 1 0-1.417l1.49-1.418a1.091 1.091 0 0 1 1.49 0Zm-4.468 5.67a.968.968 0 0 0 0-1.417 1.091 1.091 0 0 0-1.489 0l-1.49 1.417c-1.818 1.731 1.86 1.066 2.98 0Zm0-17.01a.968.968 0 0 0 0-1.417 1.091 1.091 0 0 0-1.489 0l-1.49 1.417a.968.968 0 0 0 0 1.418 1.091 1.091 0 0 0 1.49 0l1.49-1.418Zm-4.468 2.835a.968.968 0 0 1 0 1.418l-1.489 1.417a1.091 1.091 0 0 1-1.49 0 .968.968 0 0 1 0-1.417l1.49-1.418a1.091 1.091 0 0 1 1.49 0Zm-4.467 5.67a.968.968 0 0 0 0-1.417 1.091 1.091 0 0 0-1.49 0l-1.49 1.417a.968.968 0 0 0 0 1.418 1.091 1.091 0 0 0 1.49 0l1.49-1.418Zm-4.468 2.835a.968.968 0 0 1 0 1.418l-1.49 1.417a1.091 1.091 0 0 1-1.49 0 .969.969 0 0 1 0-1.417l1.49-1.418a1.091 1.091 0 0 1 1.49 0Z" clip-rule="evenodd"/></svg>