<svg xmlns="http://www.w3.org/2000/svg" width="30" height="30" fill="none"><path fill="#000" fill-rule="evenodd" d="M14.999.5C6.993.5.5 6.992.5 15c0 6.406 4.154 11.841 9.916 13.76.726.132.99-.316.99-.7 0-.345-.012-1.256-.02-2.466-4.033.876-4.884-1.944-4.884-1.944-.66-1.675-1.61-2.121-1.61-2.121-1.317-.9.1-.881.1-.881 1.455.102 2.22 1.494 2.22 1.494 1.294 2.216 3.395 1.576 4.22 1.204.133-.936.507-1.575.921-1.937-3.22-.367-6.605-1.61-6.605-7.167 0-1.584.566-2.877 1.493-3.89-.15-.367-.647-1.842.142-3.838 0 0 1.217-.39 3.987 1.485A13.926 13.926 0 0 1 15 7.512c1.232.006 2.472.166 3.63.487 2.769-1.875 3.984-1.485 3.984-1.485.791 1.996.294 3.47.145 3.837.93 1.014 1.49 2.307 1.49 3.891 0 5.57-3.39 6.796-6.62 7.155.52.448.984 1.333.984 2.686 0 1.938-.018 3.502-.018 3.977 0 .388.262.84.997.698C25.349 26.836 29.5 21.405 29.5 15 29.5 6.99 23.007.5 14.999.5" clip-rule="evenodd"/></svg>