<svg xmlns="http://www.w3.org/2000/svg" width="30" height="31" fill="none"><path fill="#000" d="M15.597 7.186A.25.25 0 0 0 16 6.99V5c3.963 0 6.37.727 7.821 2.179C25.273 8.63 26 11.037 26 15a1 1 0 1 0 2 0c0-4.112-.735-7.206-2.765-9.235C23.205 3.735 20.113 3 16 3V1.011a.25.25 0 0 0-.403-.197l-3.843 2.989a.25.25 0 0 0 0 .395l3.843 2.988Z"/><path fill="#000" fill-rule="evenodd" d="M3.5 9A1.5 1.5 0 0 0 2 10.5v17A1.5 1.5 0 0 0 3.5 29h17a1.5 1.5 0 0 0 1.5-1.5v-17A1.5 1.5 0 0 0 20.5 9h-17Zm.5 2v16h16V11H4Z" clip-rule="evenodd"/></svg>