<svg xmlns="http://www.w3.org/2000/svg" width="30" height="30" fill="none"><path stroke="#000" stroke-linecap="round" stroke-linejoin="round" stroke-width="2" d="M7.5 24.5c.5-.5 1.8-1.5 3-1.5.823 0 1.693.157 2.32.309.42.102.874-.003 1.18-.309v0m-6.5 1.5-1-1-1-1m2 2-1 1-3-1 2-2m2 2-2-2m0 0C6 22 7 20.7 7 19.5c0-.823-.157-1.693-.309-2.32A1.249 1.249 0 0 1 7 16v0m0 0L18.586 4.414a2 2 0 0 1 2.828 0l4.172 4.172a2 2 0 0 1 0 2.828L14 23m-7-7 7 7"/><path fill="#000" d="m3.5 24.5 2-2 2 2-1 1-3-1Z"/></svg>