<svg xmlns="http://www.w3.org/2000/svg" width="30" height="30" fill="none"><path stroke="#000" stroke-linecap="round" stroke-linejoin="round" stroke-width="2" d="M8.636 16.022c-.19-.723-.38-1.618-.78-2.95-.757-2.49-2.075-4.8-2.723-7.326-.425-1.81 1.12-3.643 3.046-2.969 2.949 1.036 3.868 6.109 4.283 8.678l.152.856c-.203-3.707-.469-6.126 0-9.172.463-2.89 4.888-2.825 5.254.038.189 2.079.19 4.154.19 6.242 0 .437 0 3.082.038 2.797.114-1.256.171-6.07.647-7.498 1.04-3.19 4.893-2.028 5.083.876.157 2.1-.062 4.29-.114 6.394 0 .076-.02.57.038.342.574-1.786.076-6.736 3.187-6.119 1.027.204 2.931 1.59 1.542 6.289-1.96 6.631-4.5 9.498-4.5 16.5h-14c0-5-6.61-8.82-8.5-12.598-.418-.799-.626-1.807-.36-2.53.438-1.123 1.254-1.713 2.568-1.58 2.142.206 3.008 2.032 4.949 3.73Z"/></svg>