<svg xmlns="http://www.w3.org/2000/svg" width="30" height="30" fill="none"><path stroke="#000" stroke-linecap="round" stroke-linejoin="round" stroke-width="2" d="M20.72 4.137a5.254 5.254 0 0 0-5.253 5.256c0 .41.047.81.135 1.195a14.919 14.919 0 0 1-10.829-5.49 5.251 5.251 0 0 0-.71 2.641c0 1.823.928 3.432 2.337 4.374a5.241 5.241 0 0 1-2.38-.658v.068a5.256 5.256 0 0 0 4.214 5.152 5.294 5.294 0 0 1-2.372.09 5.257 5.257 0 0 0 4.908 3.647 10.542 10.542 0 0 1-6.526 2.25c-.424 0-.842-.025-1.254-.073a14.858 14.858 0 0 0 8.053 2.36c9.665 0 14.948-8.005 14.948-14.947 0-2.96-2.094-5.865-5.271-5.865Z"/><path fill="#000" d="M26.393 7.138a10.52 10.52 0 0 0 3.017-.827l-.003.003a10.68 10.68 0 0 1-2.62 2.718l-1.42-3.527a10.488 10.488 0 0 0 3.336-1.275 5.268 5.268 0 0 1-2.31 2.908Z"/></svg>