<svg width="15" height="15" viewBox="0 0 15 15" fill="none" xmlns="http://www.w3.org/2000/svg">
<path fill-rule="evenodd" clip-rule="evenodd" d="M2 4.65555C2 4.37941 2.22386 4.15555 2.5 4.15555H12.2C12.4761 4.15555 12.7 4.37941 12.7 4.65555C12.7 4.93169 12.4761 5.15555 12.2 5.15555H2.5C2.22386 5.15555 2 4.93169 2 4.65555Z" fill="black"/>
<path fill-rule="evenodd" clip-rule="evenodd" d="M6.27208 3C6.11885 3 5.97189 3.06087 5.86353 3.16923C5.75518 3.27758 5.6943 3.42454 5.6943 3.57778V4.15556H9.00542V3.57778C9.00542 3.42454 8.94454 3.27758 8.83619 3.16923C8.72783 3.06087 8.58087 3 8.42764 3H6.27208ZM10.0054 4.15556V3.57778C10.0054 3.15933 9.83919 2.75801 9.54329 2.46212C9.2474 2.16623 8.84609 2 8.42764 2H6.27208C5.85363 2 5.45232 2.16623 5.15642 2.46212C4.86053 2.75801 4.6943 3.15933 4.6943 3.57778V4.15556H3.57764C3.30149 4.15556 3.07764 4.37941 3.07764 4.65556V12.2C3.07764 12.6185 3.24387 13.0198 3.53976 13.3157C3.83565 13.6115 4.23696 13.7778 4.65541 13.7778H10.0443C10.4628 13.7778 10.8641 13.6115 11.16 13.3157C11.4559 13.0198 11.6221 12.6185 11.6221 12.2V4.65556C11.6221 4.37941 11.3982 4.15556 11.1221 4.15556H10.0054ZM4.07764 5.15556V12.2C4.07764 12.3532 4.13851 12.5002 4.24686 12.6086C4.35522 12.7169 4.50218 12.7778 4.65541 12.7778H10.0443C10.1975 12.7778 10.3445 12.7169 10.4529 12.6086C10.5612 12.5002 10.6221 12.3532 10.6221 12.2V5.15556H4.07764Z" fill="black"/>
<path fill-rule="evenodd" clip-rule="evenodd" d="M6.27246 6.85001C6.5486 6.85001 6.77246 7.07386 6.77246 7.35001V10.5833C6.77246 10.8595 6.5486 11.0833 6.27246 11.0833C5.99632 11.0833 5.77246 10.8595 5.77246 10.5833V7.35001C5.77246 7.07386 5.99632 6.85001 6.27246 6.85001Z" fill="black"/>
<path fill-rule="evenodd" clip-rule="evenodd" d="M8.42773 6.85001C8.70388 6.85001 8.92773 7.07386 8.92773 7.35001V10.5833C8.92773 10.8595 8.70388 11.0833 8.42773 11.0833C8.15159 11.0833 7.92773 10.8595 7.92773 10.5833V7.35001C7.92773 7.07386 8.15159 6.85001 8.42773 6.85001Z" fill="black"/>
</svg>
