<svg width="15" height="15" viewBox="0 0 15 15" fill="none" xmlns="http://www.w3.org/2000/svg">
<path fill-rule="evenodd" clip-rule="evenodd" d="M3.5 2.25C3.36193 2.25 3.25 2.36193 3.25 2.5V12.5C3.25 12.6381 3.36193 12.75 3.5 12.75H11.5C11.6381 12.75 11.75 12.6381 11.75 12.5V6.25H8.5C8.08579 6.25 7.75 5.91421 7.75 5.5V2.25H3.5ZM9.25 3.31066L10.6893 4.75H9.25V3.31066ZM1.75 2.5C1.75 1.5335 2.5335 0.75 3.5 0.75H8.5C8.69891 0.75 8.88968 0.829018 9.03033 0.96967L13.0303 4.96967C13.171 5.11032 13.25 5.30109 13.25 5.5V12.5C13.25 13.4665 12.4665 14.25 11.5 14.25H3.5C2.5335 14.25 1.75 13.4665 1.75 12.5V2.5Z" fill="black"/>
</svg>
