<svg width="15" height="15" viewBox="0 0 15 15" fill="none" xmlns="http://www.w3.org/2000/svg">
<g clip-path="url(#clip0_62_25322)">
<path fill-rule="evenodd" clip-rule="evenodd" d="M11.6464 0.646449C11.8417 0.451183 12.1583 0.451183 12.3535 0.646449L14.3535 2.64645C14.5488 2.84171 14.5488 3.15829 14.3535 3.35355L10.4109 7.29618C10.3349 7.37218 10.2471 7.43543 10.151 7.4835L6.22362 9.44721C6.03112 9.5435 5.79864 9.5057 5.64646 9.35355C5.49428 9.20137 5.45655 8.96889 5.5528 8.77639L7.51651 4.84897C7.56458 4.75283 7.62783 4.66507 7.70383 4.58907L11.6464 0.646449ZM12 1.70711L8.41094 5.29618L7.37269 7.37267L7.62734 7.62732L9.70383 6.58907L13.2929 3L12 1.70711Z" fill="black"/>
<path fill-rule="evenodd" clip-rule="evenodd" d="M7.5 1.5H2.5C1.39543 1.5 0.5 2.39543 0.5 3.5V12.5C0.5 13.6046 1.39543 14.5 2.5 14.5H11.5C12.6046 14.5 13.5 13.6046 13.5 12.5V7.5H12.5V12.5C12.5 13.0523 12.0523 13.5 11.5 13.5H2.5C1.94772 13.5 1.5 13.0523 1.5 12.5V3.5C1.5 2.94772 1.94772 2.5 2.5 2.5H7.5V1.5Z" fill="black"/>
</g>
<defs>
<clipPath id="clip0_62_25322">
<rect width="15" height="15" fill="white"/>
</clipPath>
</defs>
</svg>
