<svg width="15" height="15" viewBox="0 0 15 15" fill="none" xmlns="http://www.w3.org/2000/svg">
<path d="M9.52882 4.55238L7.89241 0.617975C7.74723 0.268925 7.25277 0.268926 7.10759 0.617975L5.47118 4.55238C5.44598 4.61297 5.389 4.65437 5.32358 4.65961L1.07607 5.00013C0.699238 5.03034 0.54644 5.50061 0.833543 5.74654L4.0697 8.51866C4.11954 8.56135 4.14131 8.62833 4.12608 8.69217L3.13738 12.837C3.04966 13.2047 3.4497 13.4954 3.77231 13.2983L7.40878 11.0772C7.46478 11.043 7.53522 11.043 7.59122 11.0772L11.2277 13.2983C11.5503 13.4954 11.9503 13.2047 11.8626 12.837L10.8739 8.69217C10.8587 8.62833 10.8805 8.56135 10.9303 8.51866L14.1665 5.74654C14.4536 5.50061 14.3008 5.03034 13.9239 5.00013L9.67642 4.65961C9.611 4.65437 9.55402 4.61297 9.52882 4.55238Z" fill="black" stroke="black" stroke-width="0.25"/>
</svg>
