<svg width="15" height="15" viewBox="0 0 15 15" fill="none" xmlns="http://www.w3.org/2000/svg">
<path fill-rule="evenodd" clip-rule="evenodd" d="M8.51206 3.00517C9.18841 2.5457 10.0436 2.5367 10.6789 2.95395C10.8232 3.04869 10.9772 3.19906 11.3891 3.61095C11.801 4.02283 11.9514 4.1769 12.0461 4.32117C12.4634 4.95651 12.4544 5.81168 11.9949 6.48803C11.89 6.6424 11.7277 6.80787 11.3007 7.23487L10.682 7.85359C10.4868 8.04885 10.4868 8.36543 10.682 8.56069C10.8773 8.75596 11.1939 8.75596 11.3891 8.56069L12.0078 7.94197L12.0508 7.89905C12.4204 7.52952 12.6569 7.29306 12.8221 7.04996C13.4973 6.05599 13.5322 4.76228 12.882 3.77224C12.7234 3.53078 12.4923 3.29977 12.1409 2.94847L12.0962 2.90384L12.0516 2.85918C11.7003 2.50776 11.4693 2.27665 11.2278 2.11808C10.2378 1.46789 8.9441 1.50275 7.95013 2.17798C7.70703 2.34312 7.47056 2.57967 7.10102 2.94931L7.05812 2.99223L6.4394 3.61095C6.24413 3.80621 6.24413 4.12279 6.4394 4.31805C6.63466 4.51331 6.95124 4.51331 7.1465 4.31805L7.76522 3.69933C8.19222 3.27233 8.35769 3.11003 8.51206 3.00517ZM4.31808 7.14648C4.51334 6.95122 4.51334 6.63463 4.31808 6.43937C4.12281 6.24411 3.80623 6.24411 3.61097 6.43937L2.99225 7.05809L2.94934 7.101C2.57969 7.47053 2.34315 7.707 2.178 7.95011C1.50277 8.94408 1.46792 10.2378 2.11811 11.2279C2.27668 11.4693 2.50778 11.7003 2.85922 12.0516L2.90386 12.0963L2.94849 12.1409C3.29979 12.4923 3.5308 12.7235 3.77226 12.882C4.76231 13.5322 6.05601 13.4974 7.04998 12.8221C7.29308 12.657 7.52955 12.4204 7.89908 12.0508L7.942 12.0079L8.56072 11.3892C8.75598 11.1939 8.75598 10.8773 8.56072 10.6821C8.36545 10.4868 8.04887 10.4868 7.85361 10.6821L7.23489 11.3008C6.80789 11.7278 6.64242 11.8901 6.48806 11.9949C5.8117 12.4544 4.95654 12.4634 4.32119 12.0462C4.17693 11.9514 4.02286 11.801 3.61097 11.3892C3.19908 10.9773 3.04872 10.8232 2.95397 10.6789C2.53673 10.0436 2.54573 9.18839 3.00519 8.51203C3.11005 8.35767 3.27236 8.1922 3.69936 7.7652L4.31808 7.14648ZM9.62184 6.08534C9.8171 5.89008 9.8171 5.57349 9.62184 5.37823C9.42658 5.18297 9.11 5.18297 8.91473 5.37823L5.3792 8.91377C5.18394 9.10903 5.18394 9.42561 5.3792 9.62087C5.57446 9.81613 5.89104 9.81613 6.08631 9.62087L9.62184 6.08534Z" fill="black"/>
</svg>
