<svg width="15" height="15" viewBox="0 0 15 15" fill="none" xmlns="http://www.w3.org/2000/svg">
<path fill-rule="evenodd" clip-rule="evenodd" d="M6.97936 1.89279L6.95844 1.94307L5.58656 5.24147C5.54336 5.34534 5.44567 5.41631 5.33354 5.4253L1.77264 5.71078L1.71835 5.71513L1.38681 5.74171L1.08602 5.76583C0.820024 5.78715 0.712167 6.1191 0.914828 6.2927L1.144 6.48901L1.3966 6.70539L1.43796 6.74082L4.15099 9.06482C4.23642 9.138 4.27374 9.25284 4.24763 9.36226L3.41876 12.8371L3.40612 12.8901L3.32895 13.2136L3.25893 13.5071C3.19702 13.7667 3.47939 13.9719 3.70712 13.8328L3.96464 13.6755L4.24848 13.5021L4.29496 13.4737L7.34359 11.6116C7.43959 11.553 7.56034 11.553 7.65634 11.6116L10.7049 13.4737L10.7514 13.5021L11.0353 13.6755L11.2928 13.8328C11.5205 13.9719 11.8029 13.7667 11.741 13.5071L11.6709 13.2136L11.5938 12.8901L11.5811 12.8371L10.7523 9.36226C10.7262 9.25284 10.7635 9.138 10.8489 9.06482L13.5619 6.74082L13.6033 6.70539L13.8559 6.48901L14.0851 6.2927C14.2877 6.1191 14.1799 5.78715 13.9139 5.76583L13.6131 5.74171L13.2815 5.71513L13.2273 5.71078L9.66639 5.4253C9.55426 5.41631 9.45657 5.34534 9.41337 5.24147L8.04149 1.94307L8.02058 1.89279L7.89285 1.58569L7.77696 1.30707C7.67448 1.06069 7.32545 1.06069 7.22297 1.30707L7.10709 1.58569L6.97936 1.89279ZM7.49997 3.24505L6.50988 5.6255C6.32267 6.07561 5.89938 6.38315 5.41345 6.42211L2.84355 6.62813L4.80154 8.30536C5.17177 8.6225 5.33345 9.12011 5.22034 9.59429L4.62215 12.1021L6.82234 10.7582C7.23836 10.5041 7.76158 10.5041 8.1776 10.7582L10.3777 12.1021L9.77959 9.59429C9.66648 9.12011 9.82816 8.6225 10.1983 8.30536L12.1563 6.62813L9.58648 6.42211C9.10055 6.38315 8.67726 6.07561 8.49005 5.6255L7.49997 3.24505Z" fill="black"/>
</svg>
