<svg width="70" height="19" viewBox="0 0 70 19" fill="none" xmlns="http://www.w3.org/2000/svg">
<path d="M22.3593 5.23269C22.3593 4.6873 22.7787 4.24517 23.2962 4.24517H24.5007C25.0181 4.24517 25.4376 4.6873 25.4376 5.23269V6.0462C25.4376 6.24618 25.5914 6.40829 25.7811 6.40829H26.4312C26.7761 6.40829 27.0557 6.70304 27.0557 7.06664V8.10116C27.0557 8.46476 26.7761 8.75951 26.4312 8.75951H25.7811C25.5914 8.75951 25.4376 8.92162 25.4376 9.1216V12.5332C25.4376 12.6586 25.458 12.7644 25.4989 12.8506C25.5398 12.9329 25.603 12.9956 25.6885 13.0387C25.774 13.0779 26.1148 13.0975 26.2487 13.0975C26.577 13.0975 26.7695 13.2227 26.8372 13.5614L27.0557 14.6549C27.1268 15.0104 26.9262 15.3608 26.5904 15.4428C26.3376 15.5055 25.9209 15.5467 25.5714 15.5663C24.865 15.6055 24.2721 15.529 23.7925 15.337C23.3129 15.1411 22.9523 14.8335 22.7106 14.4142C22.469 13.9949 22.3518 13.4698 22.3593 12.8389V9.1216C22.3593 8.92162 22.2055 8.75951 22.0158 8.75951H21.7291C21.3841 8.75951 21.1045 8.46476 21.1045 8.10116V7.06664C21.1045 6.70304 21.3841 6.40829 21.7291 6.40829H22.0158C22.2055 6.40829 22.3593 6.24618 22.3593 6.0462V5.23269Z" fill="#1C1C1C" style="fill:#1C1C1C;fill:color(display-p3 0.1098 0.1098 0.1098);fill-opacity:1;"/>
<path d="M33.8698 15.071C33.3605 14.734 32.9515 14.2226 32.643 13.5368C32.3381 12.851 32.1857 11.987 32.1857 10.9446C32.1857 9.40604 32.5598 7.63299 33.9144 6.78881C34.9718 6.13464 36.3575 6.13163 37.3122 7.00257C37.4955 7.16973 37.9854 7.02002 37.9854 6.76459V4.40821C37.9854 3.86282 38.4048 3.42069 38.9223 3.42069H40.1268C40.6442 3.42069 41.0637 3.86282 41.0637 4.40821V14.4714C41.0637 15.0168 40.6442 15.4589 40.1268 15.4589H38.5945C38.2704 15.4589 38.0077 15.182 38.0077 14.8404C38.0077 14.654 37.6588 14.5423 37.538 14.6786C37.5013 14.7201 37.4643 14.7608 37.4277 14.8006C36.5088 15.802 34.9458 15.7778 33.8698 15.071ZM38.0523 10.9446C38.0523 10.0491 37.7465 8.80498 36.6916 8.80498C35.6329 8.80498 35.3532 10.0539 35.3532 10.9446C35.3532 11.6013 35.4558 12.3844 35.9666 12.8314C37.1532 13.8273 38.0523 12.0494 38.0523 10.9446Z" fill="#1C1C1C" style="fill:#1C1C1C;fill:color(display-p3 0.1098 0.1098 0.1098);fill-opacity:1;"/>
<path d="M43.1202 15.4589C42.6028 15.4589 42.1833 15.0168 42.1833 14.4714V7.41778C42.1833 6.87239 42.6028 6.43027 43.1202 6.43027H44.6565C44.9414 6.43027 45.1724 6.67372 45.1724 6.97403C45.1724 7.25872 45.2702 7.34835 45.4555 7.34835C45.7743 7.34835 45.8411 6.27541 47.3179 6.31271C48.2579 6.31271 48.3839 7.30227 48.3839 7.79885C48.3839 8.9327 48.0421 9.04012 46.961 9.04012C45.9945 9.04012 45.2616 9.73633 45.2616 10.7565V14.4714C45.2616 15.0168 44.8422 15.4589 44.3248 15.4589H43.1202Z" fill="#1C1C1C" style="fill:#1C1C1C;fill:color(display-p3 0.1098 0.1098 0.1098);fill-opacity:1;"/>
<path d="M50.9618 15.5765C50.0344 15.5765 49.0592 15.2865 48.5304 14.4244C48.2925 14.0365 48.1735 13.5427 48.1735 12.9431C48.1735 12.1224 48.4392 11.3172 49.0825 10.8153C49.7222 10.3162 50.5395 10.1368 51.3188 10.0747C51.817 10.034 53.304 10.0671 53.304 9.27525C53.304 8.44716 52.1775 8.35417 51.6701 8.72859C50.9641 9.24492 51.0159 9.34579 49.9246 9.34579C48.6266 9.34579 49.0211 7.33983 50.3038 6.71242C50.8726 6.43028 51.5827 6.2892 52.4341 6.2892C53.4369 6.2892 54.5095 6.50003 55.3284 7.1474C55.6704 7.41387 55.9306 7.72737 56.1091 8.08788C56.2913 8.44449 56.3823 8.83244 56.3823 9.25174V14.4479C56.3823 14.9933 55.9629 15.4354 55.4455 15.4354H54.0792C53.762 15.4354 53.5048 15.1644 53.5048 14.83C53.5048 14.6568 53.246 14.574 53.1317 14.6985C52.556 15.3259 51.7723 15.5765 50.9618 15.5765ZM53.1312 12.9373C53.3179 12.6617 53.3419 12.3166 53.3375 11.9755C53.3345 11.7416 53.1 11.5801 52.8862 11.6432C52.6283 11.7193 52.3638 11.7724 52.0995 11.8146C51.7575 11.8709 51.3695 12.001 51.1793 12.3318C51.0028 12.6452 51.0381 13.1032 51.3243 13.3311C51.8669 13.7632 52.762 13.4821 53.1312 12.9373Z" fill="#1C1C1C" style="fill:#1C1C1C;fill:color(display-p3 0.1098 0.1098 0.1098);fill-opacity:1;"/>
<path d="M30.22 3.27996C30.7434 3.27996 31.1678 3.72725 31.1678 4.279V14.4596C31.1678 15.0114 30.7434 15.4587 30.22 15.4587H29.0014C28.4779 15.4587 28.0536 15.0114 28.0536 14.4596V4.27901C28.0536 3.72725 28.4779 3.27996 29.0014 3.27996H30.22Z" fill="#1C1C1C" style="fill:#1C1C1C;fill:color(display-p3 0.1098 0.1098 0.1098);fill-opacity:1;"/>
<path d="M59.7083 15.4589C59.2784 15.4589 58.9038 15.1505 58.7995 14.7109L57.1267 7.65723C56.9789 7.03397 57.4261 6.43021 58.0355 6.43021H59.1366C59.5872 6.43021 59.974 6.7684 60.0572 7.23524L60.6418 10.5123C60.6983 10.829 61.126 10.8364 61.1923 10.5218L61.8918 7.2035C61.987 6.75168 62.3672 6.43021 62.8062 6.43021H64.2997C64.7353 6.43021 65.1134 6.74666 65.2121 7.19386L65.9398 10.4895C66.009 10.8028 66.4357 10.7917 66.49 10.4751L67.0453 7.24181C67.126 6.77191 67.5141 6.43021 67.9671 6.43021H69.0628C69.6722 6.43021 70.1194 7.03397 69.9716 7.65723L68.2988 14.7109C68.1945 15.1505 67.8199 15.4589 67.39 15.4589H65.5113C65.0899 15.4589 64.7205 15.1624 64.6083 14.7343L63.8038 11.6638C63.7275 11.3727 63.3354 11.3744 63.2614 11.6662L62.4858 14.7263C62.3763 15.1583 62.005 15.4589 61.5808 15.4589H59.7083Z" fill="#1C1C1C" style="fill:#1C1C1C;fill:color(display-p3 0.1098 0.1098 0.1098);fill-opacity:1;"/>
<path fill-rule="evenodd" clip-rule="evenodd" d="M0 2.68314C0 1.38099 0.995172 0.332031 2.23056 0.332031H14.9276C16.163 0.332031 17.1581 1.38099 17.1581 2.68314V16.0664C17.1581 17.3685 16.163 18.4175 14.9276 18.4175H2.23056C0.995172 18.4175 0 17.3685 0 16.0664V2.68314ZM10.1233 5.75767C10.1233 6.66195 9.43698 7.38537 8.57907 7.38537C7.72116 7.38537 7.03484 6.66195 7.03484 5.75767C7.03484 4.8534 7.72116 4.12998 8.57907 4.12998C9.43698 4.12998 10.1233 4.8534 10.1233 5.75767ZM8.06433 14.9813C8.80213 14.9813 9.50561 13.9142 9.76298 13.3355C10.089 12.594 10.2777 11.2737 9.95172 10.4961C9.72866 9.9535 9.21392 9.55562 8.5276 9.55562C7.704 9.55562 7.03484 10.261 7.03484 11.1291C7.03484 11.9067 7.56674 12.5216 8.25306 12.6482C8.28738 12.6482 8.3217 12.7025 8.3217 12.7387C8.25306 13.1908 8.06433 13.7695 7.77264 14.0589C7.41232 14.4206 7.51526 14.9813 8.06433 14.9813Z" fill="#1C1C1C" style="fill:#1C1C1C;fill:color(display-p3 0.1098 0.1098 0.1098);fill-opacity:1;"/>
</svg>
