<svg width="15" height="15" viewBox="0 0 15 15" fill="none" xmlns="http://www.w3.org/2000/svg">
<path fill-rule="evenodd" clip-rule="evenodd" d="M12.5 2.49538C12.2239 2.49538 12 2.71923 12 2.99538V5.49559H9.49979C9.22364 5.49559 8.99979 5.71945 8.99979 5.99559C8.99979 6.27173 9.22364 6.49559 9.49979 6.49559H12.5C12.7761 6.49559 13 6.27173 13 5.99559V2.99538C13 2.71923 12.7761 2.49538 12.5 2.49538Z" fill="black"/>
<path fill-rule="evenodd" clip-rule="evenodd" d="M7.69698 2.04877C6.62345 1.89773 5.52991 2.09968 4.58113 2.62417C3.63236 3.14867 2.87973 3.9673 2.43667 4.95673C1.99361 5.94616 1.8841 7.05278 2.12465 8.10985C2.3652 9.16693 2.94278 10.1172 3.77036 10.8175C4.59794 11.5177 5.63069 11.9301 6.713 11.9924C7.79531 12.0547 8.86855 11.7635 9.77101 11.1628C10.6735 10.5621 11.3563 9.68441 11.7165 8.66191C11.8083 8.40146 11.6715 8.11593 11.4111 8.02417C11.1506 7.93241 10.8651 8.06916 10.7733 8.32961C10.4851 9.14762 9.93888 9.84981 9.21691 10.3304C8.49493 10.811 7.63632 11.0439 6.77046 10.994C5.9046 10.9442 5.07839 10.6143 4.41631 10.0541C3.75424 9.49386 3.29217 8.73363 3.09972 7.88796C2.90728 7.04229 2.99488 6.15698 3.34934 5.36542C3.7038 4.57387 4.30591 3.91895 5.06494 3.49935C5.82398 3.07974 6.69882 2.91819 7.55765 3.03902C8.41649 3.15985 9.21279 3.55653 9.82658 4.16928L9.83745 4.17981L12.1576 6.35996C12.3588 6.54906 12.6753 6.53921 12.8644 6.33797C13.0535 6.13673 13.0436 5.8203 12.8424 5.63121L10.5276 3.4561C9.76111 2.69329 8.76794 2.19945 7.69698 2.04877Z" fill="black"/>
</svg>
