<svg width="167" height="167" viewBox="0 0 167 167" fill="none" xmlns="http://www.w3.org/2000/svg">
<g clip-path="url(#clip0_1479_150768)">
<path d="M0 18.3516C0 8.21631 7.87036 0 17.5789 0H149.421C159.13 0 167 8.21631 167 18.3516V148.648C167 158.784 159.13 167 149.421 167H17.579C7.87037 167 0 158.784 0 148.648V18.3516Z" fill="black"/>
<path d="M97.2844 47.7621C97.2844 51.7981 95.905 55.2225 93.1461 58.0354C90.3872 60.8483 87.0286 62.2547 83.0702 62.2547C78.9918 62.2547 75.5732 60.8483 72.8143 58.0354C70.0555 55.2225 68.676 51.7981 68.676 47.7621C68.676 43.7262 70.0555 40.3018 72.8143 37.4889C75.5732 34.676 78.9918 33.2695 83.0702 33.2695C87.0286 33.2695 90.3872 34.676 93.1461 37.4889C95.905 40.3018 97.2844 43.7262 97.2844 47.7621ZM68.4961 98.5524C68.4961 94.5165 69.8755 91.0921 72.6344 88.2792C75.5132 85.344 78.9918 83.8763 83.0702 83.8763C86.9086 83.8763 90.2673 85.344 93.1461 88.2792C96.0249 91.0921 97.7042 94.2719 98.184 97.8186C99.1436 104.423 97.9441 110.966 94.5855 117.448C91.3468 123.93 86.6687 128.883 80.5512 132.307C77.1926 134.264 74.4337 134.203 72.2746 132.124C70.2354 130.167 70.8351 127.843 74.0738 125.153C75.8731 123.807 77.3725 122.095 78.572 120.016C79.7715 117.937 80.5512 115.797 80.9111 113.595C81.031 112.617 80.6112 112.128 79.6516 112.128C77.2525 112.005 74.7935 110.66 72.2746 108.092C69.7556 105.524 68.4961 102.344 68.4961 98.5524Z" fill="white"/>
</g>
<defs>
<clipPath id="clip0_1479_150768">
<rect width="167" height="167" fill="white"/>
</clipPath>
</defs>
</svg>
