<svg width="152" height="152" viewBox="0 0 152 152" fill="none" xmlns="http://www.w3.org/2000/svg">
<g clip-path="url(#clip0_1479_150769)">
<path d="M0 16.7033C0 7.47832 7.16344 0 16 0H136C144.837 0 152 7.47832 152 16.7033V135.297C152 144.522 144.837 152 136 152H16C7.16345 152 0 144.522 0 135.297V16.7033Z" fill="black"/>
<path d="M88.5463 43.4721C88.5463 47.1455 87.2907 50.2624 84.7797 52.8226C82.2686 55.3829 79.2116 56.663 75.6088 56.663C71.8968 56.663 68.7852 55.3829 66.2741 52.8226C63.7631 50.2624 62.5075 47.1455 62.5075 43.4721C62.5075 39.7987 63.7631 36.6819 66.2741 34.1216C68.7852 31.5614 71.8968 30.2812 75.6088 30.2812C79.2116 30.2812 82.2686 31.5614 84.7797 34.1216C87.2907 36.6819 88.5463 39.7987 88.5463 43.4721ZM62.3438 89.7004C62.3438 86.027 63.5993 82.9102 66.1104 80.3499C68.7306 77.6783 71.8968 76.3425 75.6088 76.3425C79.1025 76.3425 82.1594 77.6783 84.7797 80.3499C87.3999 82.9102 88.9284 85.8043 89.3651 89.0325C90.2385 95.0435 89.1468 100.999 86.0898 106.899C83.142 112.798 78.8841 117.307 73.3161 120.423C70.2591 122.204 67.748 122.149 65.7828 120.256C63.9268 118.475 64.4727 116.36 67.4205 113.911C69.0581 112.687 70.4229 111.129 71.5146 109.236C72.6064 107.344 73.3161 105.396 73.6436 103.392C73.7528 102.502 73.3706 102.056 72.4972 102.056C70.3137 101.945 68.0756 100.721 65.7828 98.383C63.4901 96.0454 62.3438 93.1512 62.3438 89.7004Z" fill="white"/>
</g>
<defs>
<clipPath id="clip0_1479_150769">
<rect width="152" height="152" fill="white"/>
</clipPath>
</defs>
</svg>
