<svg width="180" height="180" viewBox="0 0 180 180" fill="none" xmlns="http://www.w3.org/2000/svg">
<g clip-path="url(#clip0_1479_150767)">
<path d="M0 19.7802C0 8.85591 8.48303 0 18.9474 0H161.053C171.517 0 180 8.85591 180 19.7802V160.22C180 171.144 171.517 180 161.053 180H18.9474C8.48303 180 0 171.144 0 160.22V19.7802Z" fill="black"/>
<path d="M104.857 51.4801C104.857 55.8302 103.371 59.5212 100.397 62.5531C97.4233 65.585 93.8032 67.1009 89.5367 67.1009C85.1409 67.1009 81.4562 65.585 78.4825 62.5531C75.5089 59.5212 74.0221 55.8302 74.0221 51.4801C74.0221 47.1301 75.5089 43.4391 78.4825 40.4072C81.4562 37.3753 85.1409 35.8594 89.5367 35.8594C93.8032 35.8594 97.4233 37.3753 100.397 40.4072C103.371 43.4391 104.857 47.1301 104.857 51.4801ZM73.8281 106.224C73.8281 101.874 75.3149 98.1831 78.2886 95.1512C81.3915 91.9875 85.1409 90.4056 89.5367 90.4056C93.674 90.4056 97.294 91.9875 100.397 95.1512C103.5 98.1831 105.31 101.61 105.827 105.433C106.861 112.552 105.569 119.604 101.948 126.59C98.4576 133.577 93.4154 138.916 86.8216 142.607C83.2016 144.716 80.2279 144.65 77.9007 142.409C75.7028 140.3 76.3493 137.795 79.8401 134.895C81.7794 133.445 83.3955 131.6 84.6884 129.359C85.9813 127.118 86.8217 124.811 87.2095 122.438C87.3388 121.384 86.8863 120.856 85.852 120.856C83.2662 120.724 80.6158 119.274 77.9007 116.506C75.1857 113.738 73.8281 110.311 73.8281 106.224Z" fill="white"/>
</g>
<defs>
<clipPath id="clip0_1479_150767">
<rect width="180" height="180" fill="white"/>
</clipPath>
</defs>
</svg>
