<svg width="16" height="16" viewBox="0 0 16 16" fill="none" xmlns="http://www.w3.org/2000/svg">
<g clip-path="url(#clip0_1479_150771)">
<path d="M0 1.75824C0 0.787192 0.754047 0 1.68421 0H14.3158C15.246 0 16 0.787192 16 1.75824V14.2418C16 15.2128 15.246 16 14.3158 16H1.68421C0.754047 16 0 15.2128 0 14.2418V1.75824Z" fill="black"/>
<path d="M9.32066 4.57601C9.32066 4.96269 9.1885 5.29078 8.92418 5.56028C8.65985 5.82978 8.33807 5.96453 7.95882 5.96453C7.56808 5.96453 7.24055 5.82978 6.97622 5.56028C6.7119 5.29078 6.57974 4.96269 6.57974 4.57601C6.57974 4.18934 6.7119 3.86125 6.97622 3.59175C7.24055 3.32225 7.56808 3.1875 7.95882 3.1875C8.33807 3.1875 8.65985 3.32225 8.92418 3.59175C9.1885 3.86125 9.32066 4.18934 9.32066 4.57601ZM6.5625 9.44215C6.5625 9.05547 6.69466 8.72738 6.95899 8.45788C7.2348 8.17667 7.56808 8.03606 7.95882 8.03606C8.32657 8.03606 8.64836 8.17667 8.92418 8.45788C9.19999 8.72738 9.36088 9.03204 9.40685 9.37184C9.49879 10.0046 9.38387 10.6315 9.06208 11.2525C8.75179 11.8735 8.30359 12.3481 7.71748 12.6762C7.39569 12.8636 7.13137 12.8578 6.92451 12.6586C6.72914 12.4711 6.7866 12.2485 7.09689 11.9907C7.26928 11.8618 7.41293 11.6977 7.52786 11.4986C7.64278 11.2994 7.71748 11.0943 7.75196 10.8834C7.76345 10.7896 7.72323 10.7428 7.63129 10.7428C7.40144 10.7311 7.16585 10.6022 6.92451 10.3561C6.68317 10.11 6.5625 9.80539 6.5625 9.44215Z" fill="white"/>
</g>
<defs>
<clipPath id="clip0_1479_150771">
<rect width="16" height="16" fill="white"/>
</clipPath>
</defs>
</svg>
