<svg width="32" height="32" viewBox="0 0 32 32" fill="none" xmlns="http://www.w3.org/2000/svg">
<g clip-path="url(#clip0_1479_150770)">
<path d="M0 3.51648C0 1.57438 1.50809 0 3.36842 0H28.6316C30.4919 0 32 1.57438 32 3.51648V28.4835C32 30.4256 30.4919 32 28.6316 32H3.36842C1.50809 32 0 30.4256 0 28.4835V3.51648Z" fill="black"/>
<path d="M18.6413 9.15203C18.6413 9.92538 18.377 10.5816 17.8484 11.1206C17.3197 11.6596 16.6761 11.9291 15.9176 11.9291C15.1362 11.9291 14.4811 11.6596 13.9524 11.1206C13.4238 10.5816 13.1595 9.92538 13.1595 9.15203C13.1595 8.37868 13.4238 7.7225 13.9524 7.1835C14.4811 6.6445 15.1362 6.375 15.9176 6.375C16.6761 6.375 17.3197 6.6445 17.8484 7.1835C18.377 7.7225 18.6413 8.37868 18.6413 9.15203ZM13.125 18.8843C13.125 18.1109 13.3893 17.4548 13.918 16.9158C14.4696 16.3533 15.1362 16.0721 15.9176 16.0721C16.6531 16.0721 17.2967 16.3533 17.8484 16.9158C18.4 17.4548 18.7218 18.0641 18.8137 18.7437C18.9976 20.0092 18.7677 21.2629 18.1242 22.505C17.5036 23.747 16.6072 24.6961 15.435 25.3523C14.7914 25.7273 14.2627 25.7155 13.849 25.3172C13.4583 24.9422 13.5732 24.4969 14.1938 23.9814C14.5386 23.7236 14.8259 23.3955 15.0557 22.9971C15.2856 22.5987 15.435 22.1886 15.5039 21.7668C15.5269 21.5793 15.4465 21.4856 15.2626 21.4856C14.8029 21.4621 14.3317 21.2043 13.849 20.7122C13.3663 20.2201 13.125 19.6108 13.125 18.8843Z" fill="white"/>
</g>
<defs>
<clipPath id="clip0_1479_150770">
<rect width="32" height="32" fill="white"/>
</clipPath>
</defs>
</svg>
