<svg xmlns="http://www.w3.org/2000/svg" width="15" height="15" fill="none"><style><![CDATA[svg>[id]{display:none}svg>[id]:target{display:inline}]]></style><path id="icon-check" fill="#000" fill-rule="evenodd" d="M11.672 3.727c.289.189.37.576.181.865l-4.25 6.5a.625.625 0 0 1-.943.12l-2.75-2.5a.625.625 0 0 1 .84-.925l2.208 2.007 3.849-5.886a.625.625 0 0 1 .865-.181" clip-rule="evenodd"/><path id="icon-chevron-down-strong" fill="#000" stroke="#000" stroke-width=".25" d="M3.25 5.198a.625.625 0 0 0 .028.883l4 3.75c.24.225.614.225.855 0l-.086-.091.086.091 4-3.75a.625.625 0 0 0-.855-.912l-3.573 3.35-3.572-3.35a.625.625 0 0 0-.884.029Z"/><path id="icon-chevron-down" fill="#000" fill-rule="evenodd" d="M3.34 5.283a.5.5 0 0 1 .707-.023l3.658 3.43 3.658-3.43a.5.5 0 0 1 .684.73l-4 3.75a.5.5 0 0 1-.684 0l-4-3.75a.5.5 0 0 1-.023-.707" clip-rule="evenodd"/><path id="icon-chevron-right-strong" fill="#000" stroke="#000" stroke-width=".25" d="M5.403 11.956a.625.625 0 0 0 .883-.028l3.75-4a.625.625 0 0 0 0-.855l-.091.085.091-.085-3.75-4a.625.625 0 0 0-.912.855L8.724 7.5l-3.35 3.573a.625.625 0 0 0 .029.883Z"/><path id="icon-chevron-right" fill="#000" fill-rule="evenodd" d="M5.488 11.865a.5.5 0 0 1-.023-.707L8.895 7.5l-3.43-3.658a.5.5 0 0 1 .73-.684l3.75 4a.5.5 0 0 1 0 .684l-3.75 4a.5.5 0 0 1-.707.023" clip-rule="evenodd"/><path id="icon-chevron-up-strong" fill="#000" stroke="#000" stroke-width=".25" d="M12.161 9.802a.625.625 0 0 0-.028-.883l-4-3.75a.625.625 0 0 0-.855 0l.085.091-.085-.091-4 3.75a.625.625 0 0 0 .855.912l3.572-3.35 3.573 3.35a.625.625 0 0 0 .883-.029Z"/><path id="icon-chevron-up" fill="#000" fill-rule="evenodd" d="M12.07 9.717a.5.5 0 0 1-.707.023L7.705 6.31 4.047 9.74a.5.5 0 0 1-.684-.73l4-3.75a.5.5 0 0 1 .684 0l4 3.75a.5.5 0 0 1 .023.707" clip-rule="evenodd"/><path id="icon-close-strong" fill="#000" d="M13.236 3.03 8.766 7.5l4.47 4.47a.75.75 0 0 1-1.061 1.06l-4.47-4.47-4.47 4.47a.75.75 0 0 1-1.06-1.06l4.47-4.47-4.47-4.47a.75.75 0 1 1 1.06-1.06l4.47 4.47 4.47-4.47a.75.75 0 0 1 1.06 1.06"/><path id="icon-close" fill="#000" fill-rule="evenodd" d="M13.059 2.854a.5.5 0 0 0-.707-.708L7.704 6.793 3.06 2.146a.5.5 0 1 0-.707.708L6.998 7.5l-4.646 4.646a.5.5 0 0 0 .707.708l4.646-4.647 4.647 4.647a.5.5 0 0 0 .707-.708L8.412 7.5z" clip-rule="evenodd"/><g id="icon-copy-strong"><g fill="#000" fill-rule="evenodd" clip-path="url(#a)" clip-rule="evenodd"><path d="M2.705 11a1.5 1.5 0 0 1-1.5-1.5v-7a1.5 1.5 0 0 1 1.5-1.5h7a1.5 1.5 0 0 1 1.5 1.5V4h1.5a1.5 1.5 0 0 1 1.5 1.5v7a1.5 1.5 0 0 1-1.5 1.5h-7a1.5 1.5 0 0 1-1.5-1.5v-7a1.5 1.5 0 0 1 1.5-1.5h4.5V2.5a.5.5 0 0 0-.5-.5h-7a.5.5 0 0 0-.5.5v7a.5.5 0 0 0 .5.5h1.5v1zm3-6a.5.5 0 0 0-.5.5v7a.5.5 0 0 0 .5.5h7a.5.5 0 0 0 .5-.5v-7a.5.5 0 0 0-.5-.5z"/><path d="M2.705 11a1.5 1.5 0 0 1-1.5-1.5v-7a1.5 1.5 0 0 1 1.5-1.5h7a1.5 1.5 0 0 1 1.5 1.5V4h1.5a1.5 1.5 0 0 1 1.5 1.5v7a1.5 1.5 0 0 1-1.5 1.5h-7a1.5 1.5 0 0 1-1.5-1.5V11zm1.25.25h-1.25A1.75 1.75 0 0 1 .955 9.5v-7c0-.966.784-1.75 1.75-1.75h7c.967 0 1.75.784 1.75 1.75v1.25h1.25c.967 0 1.75.783 1.75 1.75v7a1.75 1.75 0 0 1-1.75 1.75h-7a1.75 1.75 0 0 1-1.75-1.75zm.25-1.25V5.5a1.5 1.5 0 0 1 1.5-1.5h4.5V2.5a.5.5 0 0 0-.5-.5h-7a.5.5 0 0 0-.5.5v7a.5.5 0 0 0 .5.5zm-.25-.25h-1.25a.25.25 0 0 1-.25-.25v-7a.25.25 0 0 1 .25-.25h7a.25.25 0 0 1 .25.25v1.25h-4.25a1.75 1.75 0 0 0-1.75 1.75zm1.75-4.5a.25.25 0 0 0-.25.25v7c0 .138.112.25.25.25h7a.25.25 0 0 0 .25-.25v-7a.25.25 0 0 0-.25-.25zm-.5.25a.5.5 0 0 1 .5-.5h7a.5.5 0 0 1 .5.5v7a.5.5 0 0 1-.5.5h-7a.5.5 0 0 1-.5-.5z"/></g><defs><clipPath id="a"><path fill="#fff" d="M.205 0h15v15h-15z"/></clipPath></defs></g><path id="icon-copy" fill="#000" fill-rule="evenodd" d="M1.205 9.5a1.5 1.5 0 0 0 1.5 1.5h1.5v-1h-1.5a.5.5 0 0 1-.5-.5v-7a.5.5 0 0 1 .5-.5h7a.5.5 0 0 1 .5.5V4h-4.5a1.5 1.5 0 0 0-1.5 1.5v7a1.5 1.5 0 0 0 1.5 1.5h7a1.5 1.5 0 0 0 1.5-1.5v-7a1.5 1.5 0 0 0-1.5-1.5h-1.5V2.5a1.5 1.5 0 0 0-1.5-1.5h-7a1.5 1.5 0 0 0-1.5 1.5zm4-4a.5.5 0 0 1 .5-.5h7a.5.5 0 0 1 .5.5v7a.5.5 0 0 1-.5.5h-7a.5.5 0 0 1-.5-.5z" clip-rule="evenodd"/><path id="icon-doc-strong" fill="#000" fill-rule="evenodd" d="M3.705 2.25a.25.25 0 0 0-.25.25v10c0 .138.112.25.25.25h8a.25.25 0 0 0 .25-.25V6.25h-3.25a.75.75 0 0 1-.75-.75V2.25zm5.75 1.06 1.44 1.44h-1.44zm-7.5-.81c0-.966.784-1.75 1.75-1.75h5a.75.75 0 0 1 .53.22l4 4c.141.14.22.331.22.53v7a1.75 1.75 0 0 1-1.75 1.75h-8a1.75 1.75 0 0 1-1.75-1.75z" clip-rule="evenodd"/><path id="icon-doc" fill="#000" fill-rule="evenodd" d="M3.705 2a.5.5 0 0 0-.5.5v10a.5.5 0 0 0 .5.5h8a.5.5 0 0 0 .5-.5V6h-3.5a.5.5 0 0 1-.5-.5V2zm5.5.707L11.498 5H9.205zm-7-.207a1.5 1.5 0 0 1 1.5-1.5h5a.5.5 0 0 1 .354.146l4 4a.5.5 0 0 1 .146.354v7a1.5 1.5 0 0 1-1.5 1.5h-8a1.5 1.5 0 0 1-1.5-1.5z" clip-rule="evenodd"/><path id="icon-dots-horizontal-strong" fill="#000" stroke="#000" stroke-width=".25" d="M10.915 8.298c.22.217.488.327.795.327q.308 0 .566-.153.251-.151.403-.404a1.1 1.1 0 0 0 .159-.57q-.001-.464-.333-.791a1.1 1.1 0 0 0-.795-.332 1.1 1.1 0 0 0-.795.332c-.22.217-.332.483-.332.79q0 .468.332.8Zm-4.005 0c.22.217.488.327.795.327q.308 0 .565-.153.252-.151.404-.404a1.1 1.1 0 0 0 .158-.57q0-.464-.333-.791a1.1 1.1 0 0 0-.794-.332 1.1 1.1 0 0 0-.795.332c-.22.217-.333.483-.333.79q0 .468.333.8Zm-4.005 0c.22.217.488.327.795.327q.309 0 .565-.153.252-.151.404-.404a1.1 1.1 0 0 0 .158-.57q-.001-.464-.332-.791a1.1 1.1 0 0 0-.795-.332 1.1 1.1 0 0 0-.795.332c-.22.217-.333.483-.333.79q0 .468.333.8Z"/><path id="icon-dots-horizontal" fill="#000" d="M11.71 8.5a.97.97 0 0 1-.707-.29.97.97 0 0 1-.296-.713q.001-.41.296-.701a.96.96 0 0 1 .707-.296q.411 0 .707.296a.95.95 0 0 1 .296.701.96.96 0 0 1-.14.507q-.136.225-.362.36a.96.96 0 0 1-.501.136m-4.005 0a.97.97 0 0 1-.707-.29.97.97 0 0 1-.296-.713q0-.41.296-.701a.97.97 0 0 1 .707-.296q.412 0 .706.296a.95.95 0 0 1 .296.701.96.96 0 0 1-.14.507q-.135.225-.361.36a.96.96 0 0 1-.501.136M3.7 8.5a.97.97 0 0 1-.707-.29.97.97 0 0 1-.296-.713q0-.41.296-.701A.97.97 0 0 1 3.7 6.5q.411 0 .707.296a.95.95 0 0 1 .295.701.96.96 0 0 1-.14.507q-.135.225-.361.36A.96.96 0 0 1 3.7 8.5"/><path id="icon-dots-vertical-strong" fill="#000" stroke="#000" stroke-width=".25" d="M6.907 10.71q-.326.333-.327.795 0 .309.153.566.151.252.404.403.261.159.57.159.464 0 .791-.333.331-.332.332-.795a1.1 1.1 0 0 0-.332-.795 1.07 1.07 0 0 0-.79-.332q-.468 0-.8.332Zm0-4.005c-.217.22-.327.488-.327.795q0 .309.153.566.151.251.404.403.261.159.57.159.464-.002.791-.333.331-.332.332-.795a1.1 1.1 0 0 0-.332-.795 1.07 1.07 0 0 0-.79-.333q-.468 0-.8.333Zm0-4.005c-.217.22-.327.488-.327.795q0 .309.153.565.151.252.404.404.261.159.57.158.464-.001.791-.332.331-.331.332-.795a1.1 1.1 0 0 0-.332-.795 1.07 1.07 0 0 0-.79-.333q-.468 0-.8.333Z"/><path id="icon-dots-vertical" fill="#000" d="M6.705 11.505q0-.411.29-.707a.97.97 0 0 1 .713-.295q.411 0 .701.295a.96.96 0 0 1 .296.707q0 .411-.296.707a.95.95 0 0 1-.701.296.96.96 0 0 1-.507-.14q-.225-.135-.36-.362a.96.96 0 0 1-.136-.5m0-4.006q0-.411.29-.707a.97.97 0 0 1 .713-.296q.411.001.701.296a.97.97 0 0 1 .296.707q0 .411-.296.707a.95.95 0 0 1-.701.296.96.96 0 0 1-.507-.14q-.225-.136-.36-.362a.96.96 0 0 1-.136-.501m0-4.005q0-.411.29-.707a.97.97 0 0 1 .713-.296q.411 0 .701.296a.97.97 0 0 1 .296.707q0 .411-.296.707a.95.95 0 0 1-.701.295.96.96 0 0 1-.507-.14q-.225-.135-.36-.36a.96.96 0 0 1-.136-.502"/><g id="icon-draw" clip-path="url(#a)"><path fill="#000" fill-rule="evenodd" d="M0 1.95A1.95 1.95 0 0 1 1.95 0h11.1A1.95 1.95 0 0 1 15 1.95v11.1A1.95 1.95 0 0 1 13.05 15H1.95A1.95 1.95 0 0 1 0 13.05zM8.85 4.5a1.35 1.35 0 1 1-2.7 0 1.35 1.35 0 0 1 2.7 0m-1.793 7.65c.635.002 1.246-.88 1.475-1.372.281-.606.457-1.696.175-2.342-.198-.452-.652-.786-1.251-.786-.721 0-1.306.586-1.306 1.31 0 .2.046.387.127.553.075.154.174.314.274.476.315.508.637 1.03.244 1.398-.318.3-.218.761.262.763" clip-rule="evenodd"/></g><g id="icon-edit-strong" fill="#000" fill-rule="evenodd" clip-path="url(#a)" clip-rule="evenodd"><path d="M11.646.646a.5.5 0 0 1 .707 0l2 2a.5.5 0 0 1 0 .708l-3.942 3.942a1 1 0 0 1-.26.188L6.224 9.447a.5.5 0 0 1-.671-.67l1.964-3.928a1 1 0 0 1 .187-.26zM12 1.707l-3.59 3.59-1.037 2.076.254.254L9.704 6.59 13.293 3z"/><path d="M12.53.47a.75.75 0 0 0-1.06 0zm0 0 2 2a.75.75 0 0 1 0 1.06l-3.942 3.943a1.3 1.3 0 0 1-.325.234L6.335 9.671A.75.75 0 0 1 5.33 8.665l1.964-3.928q.091-.181.234-.325L11.47.47M6.224 9.447l3.927-1.963a1 1 0 0 0 .26-.188l3.943-3.942a.5.5 0 0 0 0-.708l-2-2a.5.5 0 0 0-.708 0L7.704 4.59a1 1 0 0 0-.187.26L5.553 8.776a.5.5 0 0 0 .67.671m2.392-4.003-.939 1.879 1.879-.94L12.939 3 12 2.06zm-.205-.148L7.373 7.373l.254.254L9.704 6.59 13.293 3 12 1.707z"/><path d="M7.5 1.5h-5a2 2 0 0 0-2 2v9a2 2 0 0 0 2 2h9a2 2 0 0 0 2-2v-5H12v5a.5.5 0 0 1-.5.5h-9a.5.5 0 0 1-.5-.5v-9a.5.5 0 0 1 .5-.5h5z"/></g><g id="icon-edit" fill="#000" fill-rule="evenodd" clip-path="url(#a)" clip-rule="evenodd"><path d="M11.852.646a.5.5 0 0 1 .707 0l2 2a.5.5 0 0 1 0 .708l-3.943 3.942a1 1 0 0 1-.26.188L6.43 9.447a.5.5 0 0 1-.671-.67l1.964-3.928a1 1 0 0 1 .187-.26zm.353 1.061-3.589 3.59-1.038 2.076.254.254L9.91 6.59 13.498 3z"/><path d="M7.705 1.5h-5a2 2 0 0 0-2 2v9a2 2 0 0 0 2 2h9a2 2 0 0 0 2-2v-5h-1v5a1 1 0 0 1-1 1h-9a1 1 0 0 1-1-1v-9a1 1 0 0 1 1-1h5z"/></g><path id="icon-export" fill="#000" fill-rule="evenodd" d="M3.705 5a.5.5 0 0 0-.5.5v6a.5.5 0 0 0 .5.5h8a.5.5 0 0 0 .5-.5v-6a.5.5 0 0 0-.5-.5h-1.25a.5.5 0 1 1 0-1h1.25a1.5 1.5 0 0 1 1.5 1.5v6a1.5 1.5 0 0 1-1.5 1.5h-8a1.5 1.5 0 0 1-1.5-1.5v-6a1.5 1.5 0 0 1 1.5-1.5h1.25a.5.5 0 0 1 0 1zm3.5-3.364L5.773 3.068a.45.45 0 0 1-.636-.636l2.25-2.25a.45.45 0 0 1 .636 0l2.25 2.25a.45.45 0 0 1-.636.636L8.205 1.636V8.5a.5.5 0 0 1-1 0z" clip-rule="evenodd"/><g id="icon-external"><path fill="#000" fill-rule="evenodd" d="M3 3.008a1 1 0 0 0-1 1V12a1 1 0 0 0 1 1h8a1 1 0 0 0 1-1V8.5a.5.5 0 0 0-1 0V12H3V4.008h3.5a.5.5 0 0 0 0-1z" clip-rule="evenodd"/><path fill="#000" fill-rule="evenodd" d="M13 2.5v3a.5.5 0 0 1-1 0V3.707L6.854 8.854a.5.5 0 0 1-.708-.708L11.293 3H9.5a.5.5 0 0 1 0-1h3a.5.5 0 0 1 .5.497" clip-rule="evenodd"/></g><g id="icon-group-strong" fill="#000" stroke="#000" stroke-width=".25" clip-path="url(#a)"><path d="M9.037 6.034a3.23 3.23 0 0 0-1.48-2.073 1.975 1.975 0 1 1 1.48 2.073ZM9.525.895a3.226 3.226 0 0 0-3.17 2.634A3.225 3.225 0 1 0 9.056 7.31q.23.033.468.034a3.225 3.225 0 0 0 0-6.45ZM3.91 6.72a1.975 1.975 0 1 1 3.95 0 1.975 1.975 0 0 1-3.95 0Z"/><path stroke-linecap="round" d="M8.609 7.436q.44-.09.916-.091c2.31 0 4.055 1.65 4.055 3.535a.625.625 0 1 0 1.25 0c0-2.71-2.447-4.785-5.305-4.785q-.6.001-1.164.115a.625.625 0 1 0 .248 1.226ZM1.83 13.48c0-1.886 1.745-3.535 4.055-3.535s4.055 1.65 4.055 3.535a.625.625 0 1 0 1.25 0c0-2.71-2.447-4.785-5.305-4.785S.58 10.77.58 13.48a.625.625 0 1 0 1.25 0Z"/></g><g id="icon-group" clip-path="url(#a)"><path fill="#000" fill-rule="evenodd" d="M7.427 4.03A2.1 2.1 0 1 1 8.93 6.135 3.1 3.1 0 0 0 7.427 4.03m-.97-.357a3.1 3.1 0 1 1 2.496 3.494 3.1 3.1 0 1 1-2.496-3.494M3.785 6.72a2.1 2.1 0 1 1 4.2 0 2.1 2.1 0 0 1-4.2 0" clip-rule="evenodd"/><path stroke="#000" stroke-linecap="round" d="M14.205 10.88c0-2.298-2.095-4.16-4.68-4.16q-.537.001-1.04.103m2.08 6.657c0-2.298-2.095-4.16-4.68-4.16s-4.68 1.862-4.68 4.16"/></g><path id="icon-home-strong" fill="#000" stroke="#000" stroke-width=".25" d="m14.963 7.748-6.75-6.64a.725.725 0 0 0-1.016 0l-6.75 6.64a.725.725 0 1 0 1.016 1.034l.617-.607v5.3c0 .345.28.625.625.625h10c.345 0 .625-.28.625-.625v-5.3l.617.607a.725.725 0 0 0 1.017-1.034ZM3.33 6.946l4.375-4.304 4.375 4.304v5.904h-1.75V9.475a.625.625 0 0 0-.625-.625h-3a.625.625 0 0 0-.625.625v3.375H3.33zM9.08 10.1v2.75H7.33V10.1z"/><g id="icon-home" clip-path="url(#a)"><path fill="#000" fill-rule="evenodd" d="M7.284 1.197a.6.6 0 0 1 .842 0l6.75 6.64a.6.6 0 0 1-.842.856l-.829-.816v5.598a.5.5 0 0 1-.5.5h-10a.5.5 0 0 1-.5-.5V7.877l-.83.816a.6.6 0 1 1-.84-.856zm.421 1.27 4.5 4.426v6.082h-2v-3.5a.5.5 0 0 0-.5-.5h-3a.5.5 0 0 0-.5.5v3.5h-3V6.893zm-.5 10.508h2v-3h-2z" clip-rule="evenodd"/></g><path id="icon-import" fill="#000" fill-rule="evenodd" d="M3 2a1 1 0 0 0-1 1v9a1 1 0 0 0 1 1h9a1 1 0 0 0 1-1V8.5a.5.5 0 0 0-1 0V12H3V3h3.5a.5.5 0 0 0 0-1zm3 6.5v-3a.5.5 0 0 1 1 0v1.793l5.146-5.147a.5.5 0 0 1 .708.708L7.707 8H9.5a.5.5 0 0 1 0 1h-3a.5.5 0 0 1-.5-.497" clip-rule="evenodd"/><g id="icon-info" clip-path="url(#a)"><path fill="#000" fill-rule="evenodd" d="M7.5.877a6.623 6.623 0 1 0 0 13.246A6.623 6.623 0 0 0 7.5.877M1.827 7.5a5.673 5.673 0 1 1 11.346 0 5.673 5.673 0 0 1-11.346 0m6.423-3a.75.75 0 1 1-1.5 0 .75.75 0 0 1 1.5 0M6 6h1.5a.5.5 0 0 1 .5.5V10h1v1H6v-1h1V7H6z" clip-rule="evenodd"/></g><path id="icon-link-strong" fill="#000" fill-rule="evenodd" d="M8.858 3.212c.597-.405 1.342-.408 1.889-.049.117.077.25.204.67.625.421.42.548.553.625.67.36.547.357 1.293-.049 1.89-.088.13-.229.275-.664.71l-.619.62a.75.75 0 1 0 1.061 1.06l.619-.619.056-.056c.356-.356.61-.609.788-.872.73-1.074.77-2.477.062-3.556-.173-.263-.422-.512-.76-.85l-.058-.058-.057-.057c-.338-.339-.587-.587-.85-.76-1.08-.709-2.483-.668-3.556.061-.264.18-.516.432-.873.789l-.056.056-.618.618a.75.75 0 0 0 1.06 1.061l.62-.619c.434-.435.58-.576.71-.664M4.7 7.324a.75.75 0 1 0-1.06-1.061l-.62.619-.055.056c-.357.356-.61.609-.789.872-.729 1.073-.77 2.477-.062 3.555.173.264.422.513.76.85l.058.058.058.058c.338.338.586.587.85.76 1.079.709 2.482.667 3.556-.062.263-.179.516-.432.872-.788l.056-.056.619-.619a.75.75 0 0 0-1.061-1.06l-.619.618c-.435.435-.58.576-.71.664-.597.406-1.343.409-1.89.05-.117-.078-.25-.205-.67-.625s-.548-.554-.625-.671c-.359-.547-.356-1.292.05-1.89.087-.129.228-.275.663-.71zm5.304-1.062a.75.75 0 1 0-1.061-1.06L5.407 8.737a.75.75 0 0 0 1.061 1.061z" clip-rule="evenodd"/><path id="icon-link" fill="#000" fill-rule="evenodd" d="M8.717 3.005c.676-.46 1.532-.468 2.167-.051.144.095.298.245.71.657s.563.566.657.71c.418.636.409 1.49-.051 2.167-.105.154-.267.32-.694.747l-.619.619a.5.5 0 0 0 .707.707l.619-.619.043-.043c.37-.37.606-.606.771-.849.675-.994.71-2.288.06-3.278-.159-.241-.39-.472-.741-.824l-.045-.044-.044-.045c-.352-.351-.583-.582-.824-.74-.99-.651-2.284-.616-3.278.059-.243.165-.48.402-.849.771l-.043.043-.619.619a.5.5 0 1 0 .708.707L7.97 3.7c.427-.427.593-.589.747-.694m-4.194 4.14a.5.5 0 0 0-.707-.707l-.619.62-.043.042c-.37.37-.606.606-.77.85-.676.993-.711 2.287-.06 3.277.158.241.389.472.74.824l.045.044.045.045c.35.351.582.582.823.741.99.65 2.284.615 3.278-.06.243-.165.48-.402.85-.771l.042-.043.619-.619a.5.5 0 1 0-.707-.707l-.619.619c-.427.427-.593.59-.747.694-.676.46-1.531.468-2.167.051-.144-.095-.298-.245-.71-.657s-.562-.566-.657-.71c-.417-.635-.408-1.49.051-2.167.105-.154.267-.32.694-.747zm5.304-1.06a.5.5 0 1 0-.707-.708L5.584 8.914a.5.5 0 1 0 .707.707z" clip-rule="evenodd"/><path id="icon-more" fill="#000" d="M11.505 8.5a.97.97 0 0 1-.707-.29.97.97 0 0 1-.296-.713q0-.41.296-.701a.96.96 0 0 1 .707-.296q.411 0 .707.296a.95.95 0 0 1 .296.701.96.96 0 0 1-.14.507q-.136.225-.362.36a.96.96 0 0 1-.501.136M7.5 8.5a.97.97 0 0 1-.707-.29.97.97 0 0 1-.296-.713q0-.41.296-.701A.97.97 0 0 1 7.5 6.5q.412 0 .706.296a.95.95 0 0 1 .296.701.96.96 0 0 1-.14.507q-.135.225-.361.36A.96.96 0 0 1 7.5 8.5m-4.005 0a.97.97 0 0 1-.707-.29.97.97 0 0 1-.296-.713q0-.41.296-.701a.97.97 0 0 1 .707-.296q.412 0 .706.296a.95.95 0 0 1 .296.701.96.96 0 0 1-.14.507q-.135.225-.361.36a.96.96 0 0 1-.501.136"/><path id="icon-pin-strong" fill="#000" fill-rule="evenodd" d="M9.836 1.97a.75.75 0 0 0-1.06 1.06l.449.45L4.78 6.813l-.954-.954a.75.75 0 0 0-1.06 1.06l1.413 1.415.884.884L1.97 12.31a.75.75 0 0 0 1.06 1.06l3.094-3.093.884.884 1.414 1.414a.75.75 0 1 0 1.06-1.06l-.954-.955 3.334-4.444.45.449a.75.75 0 0 0 1.06-1.06l-1.06-1.061-1.415-1.415zM5.852 7.884l4.444-3.333.495.494L7.457 9.49z" clip-rule="evenodd"/><path id="icon-pin" fill="#000" fill-rule="evenodd" d="M9.66 2.146a.5.5 0 1 0-.708.708l.653.653-4.848 3.636-1.108-1.107a.5.5 0 0 0-.707.707l1.414 1.414 1.06 1.06-3.27 3.27a.5.5 0 1 0 .708.708l3.27-3.27 1.06 1.06L8.6 12.4a.5.5 0 1 0 .707-.708l-1.108-1.107 3.637-4.849.653.653a.5.5 0 1 0 .707-.707l-1.06-1.06-1.415-1.415zM5.47 7.857l4.85-3.636.8.8-3.636 4.85z" clip-rule="evenodd"/><path id="icon-plus-strong" fill="#000" stroke="#000" stroke-width=".25" d="M8.33 2.75a.625.625 0 0 0-1.25 0v4.125H2.955a.625.625 0 1 0 0 1.25H7.08v4.125a.625.625 0 0 0 1.25 0V8.125h4.125a.625.625 0 0 0 0-1.25H8.33z"/><path id="icon-plus" fill="#000" fill-rule="evenodd" d="M8.205 2.75a.5.5 0 0 0-1 0V7h-4.25a.5.5 0 0 0 0 1h4.25v4.25a.5.5 0 0 0 1 0V8h4.25a.5.5 0 0 0 0-1h-4.25z" clip-rule="evenodd"/><path id="icon-qr" fill="#000" fill-rule="evenodd" d="M3.005 1h-.05c-.229 0-.426 0-.6.041A1.5 1.5 0 0 0 1.247 2.15c-.042.174-.042.371-.042.6v2.5c0 .229 0 .426.042.6a1.5 1.5 0 0 0 1.108 1.11c.174.041.371.041.6.041h2.5c.229 0 .426 0 .6-.041a1.5 1.5 0 0 0 1.109-1.11c.042-.174.041-.371.041-.6v-2.5c0-.229 0-.426-.041-.6a1.5 1.5 0 0 0-1.109-1.11C5.881 1 5.684 1 5.455 1zm-.417 1.014c.043-.01.11-.014.417-.014h2.4c.308 0 .374.003.417.014a.5.5 0 0 1 .37.37c.01.042.013.108.013.416v2.4c0 .308-.003.374-.014.417a.5.5 0 0 1-.37.37c-.042.01-.108.013-.416.013h-2.4c-.308 0-.374-.003-.417-.014a.5.5 0 0 1-.369-.37c-.01-.042-.014-.108-.014-.416V2.8c0-.308.004-.374.014-.417a.5.5 0 0 1 .37-.37M10.005 1h-.05c-.229 0-.426 0-.6.041A1.5 1.5 0 0 0 8.247 2.15c-.042.174-.042.371-.042.6v2.5c0 .229 0 .426.042.6a1.5 1.5 0 0 0 1.108 1.11c.174.041.371.041.6.041h2.5c.229 0 .426 0 .6-.041a1.5 1.5 0 0 0 1.109-1.109c.042-.174.041-.371.041-.6v-2.5c0-.229 0-.426-.041-.6a1.5 1.5 0 0 0-1.109-1.109C12.881 1 12.684 1 12.455 1zm-.417 1.014c.043-.01.11-.014.417-.014h2.4c.308 0 .374.003.417.014a.5.5 0 0 1 .37.37c.01.042.013.108.013.416v2.4c0 .308-.003.374-.014.417a.5.5 0 0 1-.37.37c-.042.01-.108.013-.416.013h-2.4c-.308 0-.374-.003-.417-.014a.5.5 0 0 1-.369-.37c-.01-.042-.014-.108-.014-.416V2.8c0-.308.004-.374.014-.417a.5.5 0 0 1 .37-.37M2.955 8h2.5c.229 0 .426 0 .6.041A1.5 1.5 0 0 1 7.164 9.15c.042.174.041.371.041.6v2.5c0 .229 0 .426-.041.6a1.5 1.5 0 0 1-1.109 1.109c-.174.041-.371.041-.6.041h-2.5c-.229 0-.426 0-.6-.041a1.5 1.5 0 0 1-1.108-1.109c-.042-.174-.042-.371-.042-.6v-2.5c0-.229 0-.426.042-.6a1.5 1.5 0 0 1 1.108-1.11c.174-.04.371-.04.6-.04m.05 1c-.308 0-.374.003-.417.014a.5.5 0 0 0-.369.37c-.01.042-.014.108-.014.416v2.4c0 .308.004.374.014.417a.5.5 0 0 0 .37.37c.042.01.108.013.416.013h2.4c.308 0 .374-.004.417-.014a.5.5 0 0 0 .37-.37c.01-.042.013-.108.013-.416V9.8c0-.308-.003-.374-.014-.417a.5.5 0 0 0-.37-.37C5.78 9.004 5.714 9 5.406 9zm7-1h-.05c-.229 0-.426 0-.6.041A1.5 1.5 0 0 0 8.247 9.15c-.042.174-.042.371-.042.6v2.5c0 .229 0 .426.042.6a1.5 1.5 0 0 0 1.108 1.109c.174.041.371.041.6.041h2.5c.229 0 .426 0 .6-.041a1.5 1.5 0 0 0 1.109-1.109c.042-.174.041-.371.041-.6v-2.5c0-.229 0-.426-.041-.6a1.5 1.5 0 0 0-1.109-1.109C12.881 8 12.684 8 12.455 8zm-.417 1.014c.043-.01.11-.014.417-.014h2.4c.308 0 .374.003.417.014a.5.5 0 0 1 .37.37c.01.042.013.108.013.416v2.4c0 .308-.003.374-.014.417a.5.5 0 0 1-.37.37c-.042.01-.108.013-.416.013h-2.4c-.308 0-.374-.004-.417-.014a.5.5 0 0 1-.369-.37c-.01-.042-.014-.108-.014-.416V9.8c0-.308.004-.374.014-.417a.5.5 0 0 1 .37-.37" clip-rule="evenodd"/><path id="icon-question-circle" fill="#000" fill-rule="evenodd" d="M1.082 7.5a6.623 6.623 0 1 1 13.246 0 6.623 6.623 0 0 1-13.246 0m6.623-5.673a5.673 5.673 0 1 0 0 11.346 5.673 5.673 0 0 0 0-11.346m.75 8.673a.75.75 0 1 1-1.5 0 .75.75 0 0 1 1.5 0m-2.2-4.25c0-.678.585-1.325 1.45-1.325s1.45.647 1.45 1.325c0 .491-.27.742-.736 1.025l-.176.104c-.183.106-.4.232-.564.36-.242.188-.524.493-.524.961a.55.55 0 0 0 1.1.004.4.4 0 0 1 .1-.098c.102-.079.215-.144.366-.232q.116-.067.27-.159c.534-.325 1.264-.861 1.264-1.965 0-1.322-1.115-2.425-2.55-2.425s-2.55 1.103-2.55 2.425a.55.55 0 1 0 1.1 0" clip-rule="evenodd"/><path id="icon-share" fill="#000" fill-rule="evenodd" d="M5 7.5a1.5 1.5 0 1 1-3 0 1.5 1.5 0 0 1 3 0m.713 1.164a2.5 2.5 0 1 1 0-2.328l3.391-2.12A2.5 2.5 0 1 1 14 3.5a2.5 2.5 0 0 1-4.484 1.52l-3.53 2.207a2.5 2.5 0 0 1 0 .546l3.53 2.206a2.5 2.5 0 1 1-.411.804zM11.5 5a1.5 1.5 0 1 0 0-3 1.5 1.5 0 0 0 0 3m1.5 6.5a1.5 1.5 0 1 1-3 0 1.5 1.5 0 0 1 3 0" clip-rule="evenodd"/><g id="icon-sidebar-strong"><rect width="11.5" height="11.5" x="1.75" y="1.75" stroke="#000" stroke-width="1.5" rx="1.25"/><path fill="#000" d="M5 1h1.5v13H5z"/></g><g id="icon-sidebar"><rect width="12" height="12" x="1.705" y="1.5" stroke="#000" rx="1.5"/><path fill="#000" d="M5.205 1h1v13h-1z"/></g><path id="icon-sign-in" fill="#000" fill-rule="evenodd" d="M5.5 1a.5.5 0 0 0 0 1H13v11H5.5a.5.5 0 0 0 0 1H13a1 1 0 0 0 1-1V2a1 1 0 0 0-1-1zm2.104 3.896a.5.5 0 1 0-.708.708L8.293 7H1.5a.5.5 0 0 0 0 1h6.793L6.896 9.396a.5.5 0 0 0 .708.708l2.25-2.25a.5.5 0 0 0 0-.708z" clip-rule="evenodd"/><g id="icon-spinner" stroke="#000" stroke-width="2" clip-path="url(#a)"><circle cx="7.705" cy="7.5" r="6" opacity=".2"/><path stroke-linecap="round" d="M13.705 7.5a6 6 0 1 0-6 6"/></g><g id="icon-star-fill" clip-path="url(#a)"><path fill="#000" d="M7.428.666a.3.3 0 0 1 .554 0L9.618 4.6a.3.3 0 0 0 .254.184l4.247.34a.3.3 0 0 1 .171.528l-3.236 2.772a.3.3 0 0 0-.097.297l.99 4.145a.3.3 0 0 1-.45.326L7.862 10.97a.3.3 0 0 0-.312 0l-3.637 2.222a.3.3 0 0 1-.448-.326l.989-4.145a.3.3 0 0 0-.097-.297L1.12 5.652a.3.3 0 0 1 .171-.527l4.248-.34a.3.3 0 0 0 .253-.185z"/></g><path id="icon-star-strong-fill" fill="#000" stroke="#000" stroke-width=".25" d="M8.097.618a.425.425 0 0 0-.784 0L5.676 4.552a.18.18 0 0 1-.147.108L1.28 5c-.377.03-.53.5-.242.747l3.236 2.772c.05.042.071.11.056.173l-.989 4.145a.425.425 0 0 0 .635.461l3.637-2.22a.18.18 0 0 1 .182 0l3.637 2.22a.425.425 0 0 0 .635-.461l-.989-4.145a.18.18 0 0 1 .056-.173l3.236-2.772A.425.425 0 0 0 14.13 5l-4.248-.34a.18.18 0 0 1-.147-.108z"/><path id="icon-star-strong" fill="#000" fill-rule="evenodd" d="M6.926.897c.359-.863 1.58-.863 1.939 0l1.53 3.68 3.974.319c.931.075 1.309 1.236.6 1.844L11.94 9.333l.925 3.878c.217.908-.772 1.626-1.569 1.14l-3.402-2.078-3.401 2.078c-.797.486-1.786-.232-1.57-1.14l.926-3.878L.822 6.74c-.709-.608-.331-1.77.6-1.844l3.973-.319zm.97 1.575L6.674 5.407a1.05 1.05 0 0 1-.886.644l-3.17.254 2.415 2.068c.3.256.43.658.339 1.041l-.738 3.093 2.713-1.658a1.05 1.05 0 0 1 1.095 0l2.713 1.658-.738-3.093a1.05 1.05 0 0 1 .339-1.041l2.414-2.068-3.169-.254a1.05 1.05 0 0 1-.886-.644z" clip-rule="evenodd"/><path id="icon-star" fill="#000" fill-rule="evenodd" d="m7.184 1.893-.02.05-1.372 3.298a.3.3 0 0 1-.253.184l-3.561.286-.055.004-.331.027-.3.024a.3.3 0 0 0-.172.527l.23.196.252.216.041.036 2.713 2.324a.3.3 0 0 1 .097.297l-.83 3.475-.012.053-.077.324-.07.293a.3.3 0 0 0 .448.326l.258-.158.284-.173.046-.028 3.049-1.862a.3.3 0 0 1 .312 0l3.049 1.862.046.028.284.173.258.158a.3.3 0 0 0 .448-.326l-.07-.293-.077-.324-.013-.053-.829-3.475a.3.3 0 0 1 .097-.297l2.713-2.324.041-.036.253-.216.23-.196a.3.3 0 0 0-.172-.527l-.3-.024-.332-.027-.055-.004-3.56-.286a.3.3 0 0 1-.254-.184L8.247 1.943l-.021-.05-.128-.307-.116-.279a.3.3 0 0 0-.554 0l-.116.279zm.521 1.352-.99 2.38a1.3 1.3 0 0 1-1.096.797l-2.57.206 1.958 1.677a1.3 1.3 0 0 1 .418 1.29l-.598 2.507 2.2-1.344a1.3 1.3 0 0 1 1.356 0l2.2 1.344-.598-2.508a1.3 1.3 0 0 1 .418-1.289l1.958-1.677-2.57-.206a1.3 1.3 0 0 1-1.096-.796z" clip-rule="evenodd"/><g id="icon-tldraw" clip-path="url(#a)"><path fill="#000" fill-rule="evenodd" d="M.205 1.95A1.95 1.95 0 0 1 2.155 0h11.1a1.95 1.95 0 0 1 1.95 1.95v11.1a1.95 1.95 0 0 1-1.95 1.95h-11.1a1.95 1.95 0 0 1-1.95-1.95zm8.85 2.55a1.35 1.35 0 1 1-2.7 0 1.35 1.35 0 0 1 2.7 0m-1.793 7.65c.635.002 1.246-.88 1.475-1.372.281-.606.457-1.696.175-2.342-.198-.452-.652-.786-1.25-.786-.722 0-1.307.586-1.307 1.31 0 .2.046.387.127.553.075.154.174.314.274.476.315.508.637 1.03.244 1.398-.318.3-.218.761.262.763" clip-rule="evenodd"/></g><path id="icon-update" fill="#000" fill-rule="evenodd" d="M2.108 7.297c0 3.044 2.207 5.118 4.686 5.547a.521.521 0 1 1-.178 1.027c-2.911-.504-5.55-2.958-5.55-6.574 0-1.537.699-2.744 1.515-3.663.585-.658 1.254-1.193 1.793-1.602H2.737a.5.5 0 0 1 0-1h3a.5.5 0 0 1 .5.5v3a.5.5 0 0 1-1 0V2.687h-.001c-.572.432-1.27.958-1.875 1.64-.715.803-1.253 1.775-1.253 2.97m11.108.406c0-3.012-2.16-5.073-4.607-5.533A.521.521 0 0 1 8.8 1.146c2.874.54 5.457 2.98 5.457 6.557 0 1.537-.699 2.745-1.515 3.663-.585.658-1.254 1.193-1.792 1.602h1.636a.5.5 0 1 1 0 1h-3a.5.5 0 0 1-.5-.5v-3a.5.5 0 0 1 1 0v1.846l.002-.002c.571-.43 1.27-.957 1.875-1.638.714-.804 1.252-1.775 1.252-2.97" clip-rule="evenodd"/></svg>