<svg width="15" height="15" viewBox="0 0 15 15" fill="none" xmlns="http://www.w3.org/2000/svg">
<g clip-path="url(#clip0_1463_121087)">
<path d="M4.08049 7.01221C4.32412 6.74984 4.65476 6.60162 5.00007 6.59998C5.34538 6.60162 5.67603 6.74984 5.91966 7.01221C6.16329 7.27459 6.30007 7.62974 6.30007 7.99998C6.30007 8.37021 6.16329 8.72536 5.91966 8.98774C5.67603 9.25011 5.34538 9.39833 5.00007 9.39998C4.65476 9.39833 4.32412 9.25011 4.08049 8.98774C3.83685 8.72536 3.70007 8.37021 3.70007 7.99998C3.70007 7.62974 3.83685 7.27459 4.08049 7.01221Z" fill="#2D2D2D"/>
<path d="M9.07926 7.01221C9.3229 6.74984 9.65354 6.60162 9.99885 6.59998C10.3442 6.60162 10.6748 6.74984 10.9184 7.01221C11.1621 7.27459 11.2989 7.62974 11.2989 7.99998C11.2989 8.37021 11.1621 8.72536 10.9184 8.98774C10.6748 9.25011 10.3442 9.39833 9.99885 9.39998C9.65354 9.39833 9.3229 9.25011 9.07926 8.98774C8.83563 8.72536 8.69885 8.37021 8.69885 7.99998C8.69885 7.62974 8.83563 7.27459 9.07926 7.01221Z" fill="#2D2D2D"/>
<path fill-rule="evenodd" clip-rule="evenodd" d="M4.94586 1.80299C4.98973 1.79821 5.03403 1.79926 5.07761 1.80611C5.28859 1.83926 5.46936 1.94778 5.60153 2.04762C5.7413 2.15321 5.87082 2.28296 5.98238 2.41388C6.14069 2.59967 6.29436 2.8255 6.39564 3.04143C6.73494 3.01472 7.10264 3.00003 7.5 3.00003C7.89645 3.00003 8.26336 3.01465 8.602 3.04125C8.70328 2.82537 8.85692 2.59961 9.01518 2.41388C9.12674 2.28296 9.25626 2.15321 9.39603 2.04762C9.5282 1.94778 9.70897 1.83926 9.91994 1.80611C9.96353 1.79926 10.0078 1.79821 10.0517 1.80299C10.8961 1.89496 12.1787 2.34982 12.9359 2.76053C12.9881 2.78883 13.0348 2.8262 13.0739 2.87088C13.39 3.23226 13.6756 3.82072 13.899 4.37441C14.129 4.94414 14.3194 5.54458 14.428 5.97872C14.7812 7.39064 14.975 9.08579 15.0001 10.6923C15.0014 10.776 14.9816 10.8587 14.9427 10.9328C14.639 11.5102 13.9887 12.0436 13.3398 12.4324C12.6832 12.8258 11.9163 13.1378 11.2956 13.1977C11.1399 13.2128 10.9861 13.154 10.88 13.039C10.7243 12.8702 10.4611 12.478 10.2634 12.1753C10.1767 12.0426 10.0954 11.9158 10.0297 11.8126C9.3688 11.9317 8.54207 12.0002 7.50002 12.0002C6.45681 12.0002 5.62939 11.9315 4.96812 11.8122C4.90241 11.9155 4.82098 12.0425 4.73419 12.1753C4.53643 12.478 4.2733 12.8702 4.11752 13.039C4.01144 13.154 3.85765 13.2128 3.70193 13.1977C3.08127 13.1378 2.31435 12.8258 1.65781 12.4324C1.00888 12.0436 0.358561 11.5102 0.0548912 10.9328C0.0159279 10.8587 -0.00380681 10.776 -0.00250281 10.6923C0.0225233 9.08579 0.216388 7.39064 0.569535 5.97872C0.678122 5.54458 0.868566 4.94414 1.09852 4.37441C1.32199 3.82072 1.60757 3.23226 1.92364 2.87088C1.96272 2.8262 2.00944 2.78883 2.06162 2.76053C2.81887 2.34982 4.10147 1.89496 4.94586 1.80299ZM3.94943 11.5479C3.93225 11.5743 3.91476 11.6012 3.89705 11.6283C3.76696 11.8274 3.63866 12.0178 3.53827 12.1584C3.14641 12.0683 2.64965 11.8609 2.17176 11.5746C1.63205 11.2512 1.20654 10.881 0.99999 10.5682C1.03284 9.06493 1.21857 7.50509 1.53965 6.22136C1.63669 5.8334 1.81264 5.2769 2.02583 4.74869C2.22582 4.25319 2.43795 3.83541 2.62267 3.59495C3.26952 3.2605 4.28449 2.90752 4.94803 2.81071C4.96112 2.81866 4.97802 2.82988 4.99875 2.84554C5.06541 2.89589 5.14282 2.97044 5.22123 3.06246C5.25511 3.10222 5.28654 3.14206 5.31532 3.18102C5.02277 3.2357 4.76083 3.30049 4.52795 3.37214C3.84282 3.58295 3.34501 3.87336 3.1 4.20003C2.93431 4.42094 2.97909 4.73434 3.2 4.90003C3.42091 5.06572 3.73431 5.02094 3.9 4.80003C3.95499 4.7267 4.20717 4.51711 4.82204 4.32792C5.41424 4.1457 6.28795 4.00003 7.5 4.00003C8.71205 4.00003 9.58576 4.1457 10.178 4.32792C10.7928 4.51711 11.045 4.7267 11.1 4.80003C11.2657 5.02094 11.5791 5.06572 11.8 4.90003C12.0209 4.73434 12.0657 4.42094 11.9 4.20003C11.655 3.87336 11.1572 3.58295 10.472 3.37214C10.2386 3.30031 9.97595 3.23538 9.68254 3.18062C9.71124 3.14179 9.74257 3.10208 9.77633 3.06246C9.85474 2.97044 9.93215 2.89589 9.9988 2.84554C10.0195 2.82988 10.0364 2.81866 10.0495 2.81071C10.7131 2.90752 11.728 3.2605 12.3749 3.59495C12.5596 3.83541 12.7717 4.25319 12.9717 4.74869C13.1849 5.2769 13.3609 5.8334 13.4579 6.22136C13.779 7.50509 13.9647 9.06493 13.9976 10.5682C13.791 10.881 13.3655 11.2512 12.8258 11.5746C12.3479 11.8609 11.8511 12.0683 11.4593 12.1584C11.3589 12.0178 11.2306 11.8274 11.1005 11.6283C11.083 11.6014 11.0656 11.5748 11.0486 11.5486C11.8226 11.2697 12.2427 10.8875 12.5161 10.4775C12.6692 10.2477 12.6071 9.93731 12.3774 9.78413C12.1476 9.63095 11.8372 9.69304 11.684 9.9228C11.4284 10.3062 10.7547 11.0002 7.50002 11.0002C4.24536 11.0002 3.57163 10.3062 3.31605 9.92281C3.16288 9.69304 2.85244 9.63095 2.62268 9.78412C2.39291 9.9373 2.33082 10.2477 2.484 10.4775C2.7571 10.8872 3.17667 11.269 3.94943 11.5479Z" fill="#2D2D2D"/>
</g>
<defs>
<clipPath id="clip0_1463_121087">
<rect width="15" height="15" fill="white"/>
</clipPath>
</defs>
</svg>
