<svg width="16" height="15" viewBox="0 0 16 15" fill="none" xmlns="http://www.w3.org/2000/svg">
<path fill-rule="evenodd" clip-rule="evenodd" d="M3.70508 2C3.42894 2 3.20508 2.22386 3.20508 2.5V12.5C3.20508 12.7761 3.42894 13 3.70508 13H11.7051C11.9812 13 12.2051 12.7761 12.2051 12.5V6H8.70508C8.42894 6 8.20508 5.77614 8.20508 5.5V2H3.70508ZM9.20508 2.70711L11.498 5H9.20508V2.70711ZM2.20508 2.5C2.20508 1.67157 2.87665 1 3.70508 1H8.70508C8.83769 1 8.96487 1.05268 9.05863 1.14645L13.0587 5.14645C13.1524 5.24021 13.2051 5.36739 13.2051 5.5V12.5C13.2051 13.3284 12.5335 14 11.7051 14H3.70508C2.87665 14 2.20508 13.3284 2.20508 12.5V2.5Z" fill="black"/>
</svg>
