<svg width="16" height="15" viewBox="0 0 16 15" fill="none" xmlns="http://www.w3.org/2000/svg">
<g clip-path="url(#clip0_230_17725)">
<path fill-rule="evenodd" clip-rule="evenodd" d="M2.70508 11C1.87665 11 1.20508 10.3285 1.20508 9.50003V2.50003C1.20508 1.6716 1.87665 1.00003 2.70508 1.00003H9.70508C10.5335 1.00003 11.2051 1.6716 11.2051 2.50003V3.99999H12.7051C13.5335 3.99999 14.2051 4.67156 14.2051 5.49999V12.5C14.2051 13.3284 13.5335 14 12.7051 14H5.70508C4.87665 14 4.20508 13.3284 4.20508 12.5V5.49999C4.20508 4.67156 4.87665 3.99999 5.70508 3.99999H10.2051V2.50003C10.2051 2.22389 9.98122 2.00003 9.70508 2.00003L2.70508 2.00003C2.42894 2.00003 2.20508 2.22389 2.20508 2.50003L2.20508 9.50003C2.20508 9.77617 2.42894 10 2.70508 10H4.20508L4.20508 11H2.70508ZM5.70508 4.99999C5.42894 4.99999 5.20508 5.22385 5.20508 5.49999V12.5C5.20508 12.7761 5.42894 13 5.70508 13H12.7051C12.9812 13 13.2051 12.7761 13.2051 12.5V5.49999C13.2051 5.22385 12.9812 4.99999 12.7051 4.99999H5.70508Z" fill="black"/>
<path fill-rule="evenodd" clip-rule="evenodd" d="M2.70508 11C1.87665 11 1.20508 10.3285 1.20508 9.50003V2.50003C1.20508 1.6716 1.87665 1.00003 2.70508 1.00003H9.70508C10.5335 1.00003 11.2051 1.6716 11.2051 2.50003V3.99999H12.7051C13.5335 3.99999 14.2051 4.67156 14.2051 5.49999V12.5C14.2051 13.3284 13.5335 14 12.7051 14H5.70508C4.87665 14 4.20508 13.3284 4.20508 12.5L4.20508 11H2.70508ZM3.95508 11.25H2.70508C1.73858 11.25 0.955078 10.4665 0.955078 9.50003V2.50003C0.955078 1.53353 1.73858 0.750031 2.70508 0.750031H9.70508C10.6716 0.750031 11.4551 1.53353 11.4551 2.50003V3.74999H12.7051C13.6716 3.74999 14.4551 4.53349 14.4551 5.49999V12.5C14.4551 13.4665 13.6716 14.25 12.7051 14.25H5.70508C4.73858 14.25 3.95508 13.4665 3.95508 12.5V11.25ZM4.20508 10L4.20508 5.49999C4.20508 4.67156 4.87665 3.99999 5.70508 3.99999H10.2051V2.50003C10.2051 2.22389 9.98122 2.00003 9.70508 2.00003L2.70508 2.00003C2.42894 2.00003 2.20508 2.22389 2.20508 2.50003L2.20508 9.50003C2.20508 9.77617 2.42894 10 2.70508 10H4.20508ZM3.95508 9.75003H2.70508C2.56701 9.75003 2.45508 9.6381 2.45508 9.50003L2.45508 2.50003C2.45508 2.36196 2.56701 2.25003 2.70508 2.25003L9.70508 2.25003C9.84315 2.25003 9.95508 2.36196 9.95508 2.50003V3.74999H5.70508C4.73858 3.74999 3.95508 4.53349 3.95508 5.49999V9.75003ZM5.70508 5.24999C5.56701 5.24999 5.45508 5.36192 5.45508 5.49999V12.5C5.45508 12.6381 5.56701 12.75 5.70508 12.75H12.7051C12.8432 12.75 12.9551 12.6381 12.9551 12.5V5.49999C12.9551 5.36192 12.8432 5.24999 12.7051 5.24999H5.70508ZM5.20508 5.49999C5.20508 5.22385 5.42894 4.99999 5.70508 4.99999H12.7051C12.9812 4.99999 13.2051 5.22385 13.2051 5.49999V12.5C13.2051 12.7761 12.9812 13 12.7051 13H5.70508C5.42894 13 5.20508 12.7761 5.20508 12.5V5.49999Z" fill="black"/>
</g>
<defs>
<clipPath id="clip0_230_17725">
<rect width="15" height="15" fill="white" transform="translate(0.205078)"/>
</clipPath>
</defs>
</svg>
