<svg width="16" height="15" viewBox="0 0 16 15" fill="none" xmlns="http://www.w3.org/2000/svg">
<path d="M8.33008 2.75C8.33008 2.40482 8.05025 2.125 7.70508 2.125C7.3599 2.125 7.08008 2.40482 7.08008 2.75V6.875H2.95508C2.6099 6.875 2.33008 7.15482 2.33008 7.5C2.33008 7.84518 2.6099 8.125 2.95508 8.125H7.08008V12.25C7.08008 12.5951 7.3599 12.875 7.70508 12.875C8.05026 12.875 8.33008 12.5951 8.33008 12.25V8.125H12.4551C12.8002 8.125 13.0801 7.84518 13.0801 7.5C13.0801 7.15482 12.8002 6.875 12.4551 6.875H8.33008V2.75Z" fill="black" stroke="black" stroke-width="0.25"/>
</svg>
