<svg width="15" height="15" viewBox="0 0 15 15" fill="none" xmlns="http://www.w3.org/2000/svg">
<g clip-path="url(#clip0_676_30971)">
<path fill-rule="evenodd" clip-rule="evenodd" d="M7.49978 0.651952C3.71784 0.651952 0.651953 3.71783 0.651953 7.49978C0.651953 11.2817 3.71783 14.3476 7.49978 14.3476C11.2817 14.3476 14.3476 11.2817 14.3476 7.49978C14.3476 3.71783 11.2817 0.651952 7.49978 0.651952ZM2.05195 7.49978C2.05195 4.49103 4.49103 2.05195 7.49978 2.05195C10.5085 2.05195 12.9476 4.49104 12.9476 7.49978C12.9476 10.5085 10.5085 12.9476 7.49978 12.9476C4.49104 12.9476 2.05195 10.5085 2.05195 7.49978ZM8.24969 4.49995C8.24969 4.08574 7.91391 3.74995 7.49969 3.74995C7.08548 3.74995 6.74969 4.08574 6.74969 4.49995V7.49995C6.74969 7.69886 6.82871 7.88963 6.96936 8.03028L8.96936 10.0303C9.26226 10.3232 9.73713 10.3232 10.03 10.0303C10.3229 9.73739 10.3229 9.26252 10.03 8.96962L8.24969 7.18929V4.49995Z" fill="black"/>
</g>
<defs>
<clipPath id="clip0_676_30971">
<rect width="15" height="15" fill="white"/>
</clipPath>
</defs>
</svg>
