<svg width="17" height="15" viewBox="0 0 17 15" fill="none" xmlns="http://www.w3.org/2000/svg">
<path d="M15.7583 7.74817L15.7583 7.74816L9.00833 1.10815C8.72619 0.830609 8.27361 0.830609 7.99148 1.10815L1.24148 7.74816C0.956032 8.02896 0.952261 8.48798 1.23305 8.77342C1.51385 9.05888 1.97288 9.06265 2.25833 8.78185L2.8749 8.17532V13.475C2.8749 13.8201 3.15472 14.1 3.4999 14.1H13.4999C13.8451 14.1 14.1249 13.8201 14.1249 13.475V8.1753L14.7415 8.78184C14.7415 8.78184 14.7415 8.78185 14.7415 8.78185C15.0269 9.06266 15.486 9.05887 15.7668 8.77343L15.7668 8.77341C16.0475 8.48797 16.0438 8.02897 15.7583 7.74817ZM4.1249 6.9457L8.4999 2.64198L12.8749 6.9457V12.85H11.1249V9.475C11.1249 9.12983 10.8451 8.85 10.4999 8.85H7.4999C7.15472 8.85 6.8749 9.12982 6.8749 9.475V12.85H4.1249V6.9457ZM9.8749 10.1V12.85H8.1249V10.1H9.8749Z" fill="black" stroke="black" stroke-width="0.25"/>
</svg>
