<svg width="15" height="15" viewBox="0 0 15 15" fill="none" xmlns="http://www.w3.org/2000/svg">
<path fill-rule="evenodd" clip-rule="evenodd" d="M3 3.00778C2.44772 3.00778 2 3.45549 2 4.00778V12C2 12.5523 2.44772 13 3 13L11 13C11.5523 13 12 12.5523 12 12V8.49997C12 8.22383 11.7761 7.99997 11.5 7.99997C11.2239 7.99997 11 8.22383 11 8.49997V12L3 12V4.00778H6.5C6.77614 4.00778 7 3.78392 7 3.50778C7 3.23164 6.77614 3.00778 6.5 3.00778H3Z" fill="black"/>
<path fill-rule="evenodd" clip-rule="evenodd" d="M13 2.5L13 5.5C13 5.77614 12.7761 6 12.5 6C12.2239 6 12 5.77614 12 5.5V3.70711L6.8536 8.85355C6.6583 9.04882 6.3417 9.04882 6.1464 8.85355C5.9512 8.65829 5.9512 8.34171 6.1464 8.14645L11.2929 3L9.5 3C9.22386 3 9 2.77614 9 2.5C9 2.22386 9.22386 2 9.5 2L12.5 2C12.5678 2 12.6324 2.01349 12.6914 2.03794C12.7495 2.06198 12.804 2.09744 12.8514 2.14433C12.9425 2.23434 12.9992 2.35909 13 2.49708" fill="black"/>
</svg>
