<svg width="16" height="15" viewBox="0 0 16 15" fill="none" xmlns="http://www.w3.org/2000/svg">
<path fill-rule="evenodd" clip-rule="evenodd" d="M3.70508 2.25C3.56701 2.25 3.45508 2.36193 3.45508 2.5V12.5C3.45508 12.6381 3.56701 12.75 3.70508 12.75H11.7051C11.8431 12.75 11.9551 12.6381 11.9551 12.5V6.25H8.70508C8.29086 6.25 7.95508 5.91421 7.95508 5.5V2.25H3.70508ZM9.45508 3.31066L10.8944 4.75H9.45508V3.31066ZM1.95508 2.5C1.95508 1.5335 2.73858 0.75 3.70508 0.75H8.70508C8.90399 0.75 9.09476 0.829018 9.23541 0.96967L13.2354 4.96967C13.3761 5.11032 13.4551 5.30109 13.4551 5.5V12.5C13.4551 13.4665 12.6716 14.25 11.7051 14.25H3.70508C2.73858 14.25 1.95508 13.4665 1.95508 12.5V2.5Z" fill="black"/>
</svg>
