<svg width="16" height="15" viewBox="0 0 16 15" fill="none" xmlns="http://www.w3.org/2000/svg">
<path fill-rule="evenodd" clip-rule="evenodd" d="M13.0587 2.85355C13.2539 2.65829 13.2539 2.34171 13.0587 2.14645C12.8634 1.95118 12.5468 1.95118 12.3515 2.14645L7.70508 6.79289L3.05863 2.14645C2.86337 1.95118 2.54679 1.95118 2.35153 2.14645C2.15626 2.34171 2.15626 2.65829 2.35153 2.85355L6.99797 7.5L2.35153 12.1464C2.15626 12.3417 2.15626 12.6583 2.35153 12.8536C2.54679 13.0488 2.86337 13.0488 3.05863 12.8536L7.70508 8.20711L12.3515 12.8536C12.5468 13.0488 12.8634 13.0488 13.0587 12.8536C13.2539 12.6583 13.2539 12.3417 13.0587 12.1464L8.41219 7.5L13.0587 2.85355Z" fill="black"/>
</svg>
