<svg width="15" height="15" viewBox="0 0 15 15" fill="none" xmlns="http://www.w3.org/2000/svg">
<path d="M5.19754 11.956L5.19754 11.956C5.44936 12.192 5.84488 12.1793 6.08096 11.9275C6.08096 11.9275 6.08096 11.9275 6.08097 11.9275L9.83099 7.92746L9.831 7.92746C10.0564 7.68705 10.0564 7.31295 9.831 7.07254L9.7398 7.15803L9.83099 7.07254L6.08096 3.07251L6.08095 3.07249C5.84488 2.82074 5.44937 2.808 5.19756 3.04399L5.19753 3.04401C4.94571 3.28013 4.93297 3.67562 5.16903 3.92748L5.16904 3.92749L8.5183 7.5L5.16904 11.0725C4.93296 11.3243 4.94571 11.7199 5.19754 11.956Z" fill="black" stroke="black" stroke-width="0.25"/>
</svg>
