<svg width="15" height="15" viewBox="0 0 15 15" fill="none" xmlns="http://www.w3.org/2000/svg">
<g clip-path="url(#clip0_676_30953)">
<path fill-rule="evenodd" clip-rule="evenodd" d="M7.49978 0.876953C3.8421 0.876953 0.876953 3.8421 0.876953 7.49978C0.876953 11.1574 3.8421 14.1226 7.49978 14.1226C11.1574 14.1226 14.1226 11.1574 14.1226 7.49978C14.1226 3.8421 11.1574 0.876953 7.49978 0.876953ZM1.82695 7.49978C1.82695 4.36677 4.36677 1.82695 7.49978 1.82695C10.6328 1.82695 13.1726 4.36677 13.1726 7.49978C13.1726 10.6328 10.6328 13.1726 7.49978 13.1726C4.36677 13.1726 1.82695 10.6328 1.82695 7.49978ZM7.99969 4.49995C7.99969 4.22381 7.77584 3.99995 7.49969 3.99995C7.22355 3.99995 6.99969 4.22381 6.99969 4.49995V7.49995C6.99969 7.63256 7.05237 7.75974 7.14614 7.85351L9.14614 9.85351C9.3414 10.0488 9.65799 10.0488 9.85325 9.85351C10.0485 9.65824 10.0485 9.34166 9.85325 9.1464L7.99969 7.29285V4.49995Z" fill="black"/>
</g>
<defs>
<clipPath id="clip0_676_30953">
<rect width="15" height="15" fill="white"/>
</clipPath>
</defs>
</svg>
