<svg width="16" height="15" viewBox="0 0 16 15" fill="none" xmlns="http://www.w3.org/2000/svg">
<path d="M14.9634 7.74817L14.9634 7.74816L8.21341 1.10815C7.93127 0.830609 7.47869 0.830609 7.19656 1.10815L0.446557 7.74816C0.16111 8.02896 0.15734 8.48798 0.438133 8.77342C0.718928 9.05888 1.17796 9.06265 1.46341 8.78185L2.07998 8.17532V13.475C2.07998 13.8201 2.35979 14.1 2.70498 14.1H12.705C13.0502 14.1 13.33 13.8201 13.33 13.475V8.1753L13.9466 8.78184C13.9466 8.78184 13.9466 8.78185 13.9466 8.78185C14.232 9.06266 14.6911 9.05887 14.9719 8.77343L14.9719 8.77341C15.2526 8.48797 15.2488 8.02897 14.9634 7.74817ZM3.32998 6.9457L7.70498 2.64198L12.08 6.9457V12.85H10.33V9.475C10.33 9.12983 10.0502 8.85 9.70498 8.85H6.70498C6.3598 8.85 6.07998 9.12982 6.07998 9.475V12.85H3.32998V6.9457ZM9.07998 10.1V12.85H7.32998V10.1H9.07998Z" fill="black" stroke="black" stroke-width="0.25"/>
</svg>
