<svg width="15" height="15" viewBox="0 0 15 15" fill="none" xmlns="http://www.w3.org/2000/svg">
<g clip-path="url(#clip0_105_9199)">
<path d="M7.223 0.665979C7.32548 0.419591 7.67452 0.419591 7.777 0.665979L9.41341 4.60038C9.45661 4.70425 9.55429 4.77522 9.66643 4.78421L13.9139 5.12473C14.1799 5.14606 14.2878 5.47801 14.0851 5.65161L10.849 8.42373C10.7635 8.49691 10.7262 8.61174 10.7523 8.72117L11.741 12.866C11.8029 13.1256 11.5206 13.3307 11.2928 13.1917L7.65638 10.9705C7.56037 10.9119 7.43963 10.9119 7.34362 10.9705L3.70716 13.1917C3.47943 13.3307 3.19705 13.1256 3.25897 12.866L4.24767 8.72117C4.27377 8.61174 4.23646 8.49691 4.15102 8.42373L0.914863 5.65161C0.712202 5.47801 0.820059 5.14606 1.08606 5.12473L5.33357 4.78421C5.44571 4.77522 5.54339 4.70425 5.58659 4.60038L7.223 0.665979Z" fill="black"/>
</g>
<defs>
<clipPath id="clip0_105_9199">
<rect width="15" height="15" fill="white"/>
</clipPath>
</defs>
</svg>
