<svg width="16" height="15" viewBox="0 0 16 15" fill="none" xmlns="http://www.w3.org/2000/svg">
<path d="M10.9149 8.29766L10.9149 8.29766L10.9156 8.29841C11.1359 8.51498 11.4029 8.625 11.71 8.625C11.9153 8.625 12.1048 8.5743 12.2756 8.47185C12.4434 8.37113 12.5784 8.23622 12.6792 8.06841C12.7848 7.89477 12.8375 7.70356 12.8375 7.49749C12.8375 7.18979 12.7254 6.92398 12.5048 6.70697C12.2847 6.48708 12.0177 6.375 11.71 6.375C11.4024 6.375 11.1353 6.48708 10.9152 6.70697C10.6947 6.92399 10.5825 7.18979 10.5825 7.49749C10.5825 7.8082 10.6944 8.0772 10.9149 8.29766Z" fill="black" stroke="black" stroke-width="0.25"/>
<path d="M6.9095 8.29766L6.9095 8.29766L6.91026 8.29841C7.13056 8.51498 7.39753 8.625 7.70465 8.625C7.90997 8.625 8.09946 8.5743 8.27022 8.47185C8.43808 8.37113 8.57303 8.23622 8.67379 8.06841C8.77941 7.89477 8.83216 7.70356 8.83216 7.49749C8.83216 7.18979 8.72 6.92398 8.49943 6.70697C8.27936 6.48708 8.01229 6.375 7.70465 6.375C7.39701 6.375 7.12995 6.48708 6.90988 6.70697C6.68931 6.92399 6.57715 7.18979 6.57715 7.49749C6.57715 7.8082 6.68904 8.0772 6.9095 8.29766Z" fill="black" stroke="black" stroke-width="0.25"/>
<path d="M2.90462 8.29766L2.90461 8.29766L2.90538 8.29841C3.12568 8.51498 3.39264 8.625 3.69977 8.625C3.90508 8.625 4.09458 8.5743 4.26534 8.47185C4.43319 8.37113 4.56815 8.23622 4.66891 8.06841C4.77452 7.89477 4.82728 7.70356 4.82728 7.49749C4.82728 7.18979 4.71512 6.92398 4.49455 6.70697C4.27448 6.48708 4.00741 6.375 3.69977 6.375C3.39213 6.375 3.12506 6.48708 2.90499 6.70697C2.68442 6.92399 2.57227 7.18979 2.57227 7.49749C2.57227 7.8082 2.68415 8.0772 2.90462 8.29766Z" fill="black" stroke="black" stroke-width="0.25"/>
</svg>
