<svg width="15" height="15" viewBox="0 0 15 15" fill="none" xmlns="http://www.w3.org/2000/svg">
<path fill-rule="evenodd" clip-rule="evenodd" d="M3 2C2.44772 2 2 2.44771 2 3L2 12C2 12.5523 2.44772 13 3 13L12 13C12.5523 13 13 12.5523 13 12L13 8.5C13 8.22386 12.7761 8 12.5 8C12.2239 8 12 8.22386 12 8.5L12 12L3 12L3 3L6.5 3C6.77614 3 7 2.77614 7 2.5C7 2.22386 6.77614 2 6.5 2L3 2ZM6 8.5C6 8.4999 6 8.49979 6 8.49969L6 8.49965L6 5.5C6 5.22386 6.22386 5 6.5 5C6.77614 5 7 5.22386 7 5.5L7 7.29289L12.1464 2.14645C12.3417 1.95118 12.6583 1.95118 12.8536 2.14645C13.0488 2.34171 13.0488 2.65829 12.8536 2.85355L7.70711 8L9.5 8C9.77614 8 10 8.22386 10 8.5C10 8.77614 9.77614 9 9.5 9L6.5 9C6.43221 9 6.36756 8.98651 6.30861 8.96206C6.25051 8.93802 6.19602 8.90256 6.14857 8.85567C6.05749 8.76566 6.0008 8.64091 6.00001 8.50292L6.00001 8.50262" fill="black"/>
</svg>
