<svg width="16" height="15" viewBox="0 0 16 15" fill="none" xmlns="http://www.w3.org/2000/svg">
<path fill-rule="evenodd" clip-rule="evenodd" d="M3.00514 1L2.95481 0.99997C2.72636 0.999752 2.52943 0.999564 2.35497 1.04145C1.8065 1.17312 1.37826 1.60136 1.24659 2.14983C1.2047 2.32429 1.20489 2.52122 1.20511 2.74967L1.20514 2.8V5.2L1.20511 5.25033C1.20489 5.47878 1.2047 5.67572 1.24659 5.85017C1.37826 6.39864 1.8065 6.82688 2.35497 6.95856C2.52943 7.00044 2.72636 7.00025 2.95481 7.00003L3.00514 7H5.40514L5.45547 7.00003C5.68392 7.00025 5.88086 7.00044 6.05531 6.95856C6.60378 6.82688 7.03202 6.39864 7.1637 5.85017C7.20558 5.67572 7.20539 5.47878 7.20517 5.25033L7.20514 5.2V2.8L7.20517 2.74967C7.20539 2.52122 7.20558 2.32429 7.1637 2.14983C7.03202 1.60136 6.60378 1.17312 6.05531 1.04145C5.88086 0.999564 5.68392 0.999752 5.45547 0.99997L5.40514 1H3.00514ZM2.58842 2.01382C2.63146 2.00348 2.69736 2 3.00514 2H5.40514C5.71292 2 5.77883 2.00348 5.82186 2.01382C6.00469 2.05771 6.14743 2.20045 6.19133 2.38328C6.20166 2.42632 6.20514 2.49222 6.20514 2.8V5.2C6.20514 5.50779 6.20166 5.57369 6.19133 5.61672C6.14743 5.79955 6.00469 5.94229 5.82186 5.98619C5.77883 5.99652 5.71292 6 5.40514 6H3.00514C2.69736 6 2.63146 5.99652 2.58842 5.98619C2.40559 5.94229 2.26285 5.79955 2.21896 5.61672C2.20862 5.57369 2.20514 5.50779 2.20514 5.2V2.8C2.20514 2.49222 2.20862 2.42632 2.21896 2.38328C2.26285 2.20045 2.40559 2.05771 2.58842 2.01382ZM10.0051 1L9.95481 0.99997C9.72636 0.999752 9.52943 0.999564 9.35497 1.04145C8.8065 1.17312 8.37826 1.60136 8.24659 2.14983C8.2047 2.32429 8.20489 2.52122 8.20511 2.74967L8.20514 2.8V5.2L8.20511 5.25033C8.20489 5.47878 8.2047 5.67572 8.24659 5.85017C8.37826 6.39864 8.8065 6.82688 9.35497 6.95856C9.52943 7.00044 9.72636 7.00025 9.95481 7.00003L10.0051 7H12.4051L12.4555 7.00003C12.6839 7.00025 12.8809 7.00044 13.0553 6.95856C13.6038 6.82688 14.032 6.39864 14.1637 5.85017C14.2056 5.67572 14.2054 5.47878 14.2052 5.25033L14.2051 5.2V2.8L14.2052 2.74967C14.2054 2.52122 14.2056 2.32429 14.1637 2.14983C14.032 1.60136 13.6038 1.17312 13.0553 1.04145C12.8809 0.999564 12.6839 0.999752 12.4555 0.99997L12.4051 1H10.0051ZM9.58842 2.01382C9.63146 2.00348 9.69736 2 10.0051 2H12.4051C12.7129 2 12.7788 2.00348 12.8219 2.01382C13.0047 2.05771 13.1474 2.20045 13.1913 2.38328C13.2017 2.42632 13.2051 2.49222 13.2051 2.8V5.2C13.2051 5.50779 13.2017 5.57369 13.1913 5.61672C13.1474 5.79955 13.0047 5.94229 12.8219 5.98619C12.7788 5.99652 12.7129 6 12.4051 6H10.0051C9.69736 6 9.63146 5.99652 9.58842 5.98619C9.40559 5.94229 9.26285 5.79955 9.21896 5.61672C9.20862 5.57369 9.20514 5.50779 9.20514 5.2V2.8C9.20514 2.49222 9.20862 2.42632 9.21896 2.38328C9.26285 2.20045 9.40559 2.05771 9.58842 2.01382ZM2.95481 7.99997L3.00514 8H5.40514L5.45547 7.99997C5.68392 7.99975 5.88086 7.99956 6.05531 8.04145C6.60378 8.17312 7.03202 8.60136 7.1637 9.14983C7.20558 9.32429 7.20539 9.52122 7.20517 9.74967L7.20514 9.8V12.2L7.20517 12.2503C7.20539 12.4788 7.20558 12.6757 7.1637 12.8502C7.03202 13.3986 6.60378 13.8269 6.05531 13.9586C5.88086 14.0004 5.68392 14.0003 5.45547 14L5.40514 14H3.00514L2.95481 14C2.72636 14.0003 2.52943 14.0004 2.35497 13.9586C1.8065 13.8269 1.37826 13.3986 1.24659 12.8502C1.2047 12.6757 1.20489 12.4788 1.20511 12.2503L1.20514 12.2V9.8L1.20511 9.74967C1.20489 9.52122 1.2047 9.32429 1.24659 9.14983C1.37826 8.60136 1.8065 8.17312 2.35497 8.04145C2.52943 7.99956 2.72636 7.99975 2.95481 7.99997ZM3.00514 9C2.69736 9 2.63146 9.00348 2.58842 9.01382C2.40559 9.05771 2.26285 9.20045 2.21896 9.38328C2.20862 9.42632 2.20514 9.49222 2.20514 9.8V12.2C2.20514 12.5078 2.20862 12.5737 2.21896 12.6167C2.26285 12.7995 2.40559 12.9423 2.58842 12.9862C2.63146 12.9965 2.69736 13 3.00514 13H5.40514C5.71292 13 5.77883 12.9965 5.82186 12.9862C6.00469 12.9423 6.14743 12.7995 6.19133 12.6167C6.20166 12.5737 6.20514 12.5078 6.20514 12.2V9.8C6.20514 9.49222 6.20166 9.42632 6.19133 9.38328C6.14743 9.20045 6.00469 9.05771 5.82186 9.01382C5.77883 9.00348 5.71292 9 5.40514 9H3.00514ZM10.0051 8L9.95481 7.99997C9.72636 7.99975 9.52943 7.99956 9.35497 8.04145C8.8065 8.17312 8.37826 8.60136 8.24659 9.14983C8.2047 9.32429 8.20489 9.52122 8.20511 9.74967L8.20514 9.8V12.2L8.20511 12.2503C8.20489 12.4788 8.2047 12.6757 8.24659 12.8502C8.37826 13.3986 8.8065 13.8269 9.35497 13.9586C9.52943 14.0004 9.72636 14.0003 9.95481 14L10.0051 14H12.4051L12.4555 14C12.6839 14.0003 12.8809 14.0004 13.0553 13.9586C13.6038 13.8269 14.032 13.3986 14.1637 12.8502C14.2056 12.6757 14.2054 12.4788 14.2052 12.2503L14.2051 12.2V9.8L14.2052 9.74967C14.2054 9.52122 14.2056 9.32429 14.1637 9.14983C14.032 8.60136 13.6038 8.17312 13.0553 8.04145C12.8809 7.99956 12.6839 7.99975 12.4555 7.99997L12.4051 8H10.0051ZM9.58842 9.01382C9.63146 9.00348 9.69736 9 10.0051 9H12.4051C12.7129 9 12.7788 9.00348 12.8219 9.01382C13.0047 9.05771 13.1474 9.20045 13.1913 9.38328C13.2017 9.42632 13.2051 9.49222 13.2051 9.8V12.2C13.2051 12.5078 13.2017 12.5737 13.1913 12.6167C13.1474 12.7995 13.0047 12.9423 12.8219 12.9862C12.7788 12.9965 12.7129 13 12.4051 13H10.0051C9.69736 13 9.63146 12.9965 9.58842 12.9862C9.40559 12.9423 9.26285 12.7995 9.21896 12.6167C9.20862 12.5737 9.20514 12.5078 9.20514 12.2V9.8C9.20514 9.49222 9.20862 9.42632 9.21896 9.38328C9.26285 9.20045 9.40559 9.05771 9.58842 9.01382Z" fill="black"/>
</svg>
