<svg width="15" height="15" viewBox="0 0 15 15" fill="none" xmlns="http://www.w3.org/2000/svg">
<path d="M6.5 11.5051C6.5 11.2311 6.59691 10.9955 6.79073 10.7984C6.98789 10.6012 7.22515 10.5026 7.50251 10.5026C7.77652 10.5026 8.01044 10.6012 8.20426 10.7984C8.40142 10.9955 8.5 11.2311 8.5 11.5051C8.5 11.7791 8.40142 12.0147 8.20426 12.2119C8.01044 12.4091 7.77652 12.5076 7.50251 12.5076C7.31871 12.5076 7.14996 12.4609 6.99624 12.3673C6.84586 12.2771 6.72556 12.1568 6.63534 12.0064C6.54511 11.856 6.5 11.6889 6.5 11.5051Z" fill="black"/>
<path d="M6.5 7.5C6.5 7.22599 6.59691 6.9904 6.79073 6.79324C6.98789 6.59608 7.22515 6.4975 7.50251 6.4975C7.77652 6.4975 8.01044 6.59608 8.20426 6.79324C8.40142 6.9904 8.5 7.22599 8.5 7.5C8.5 7.77402 8.40142 8.00961 8.20426 8.20677C8.01044 8.40393 7.77652 8.50251 7.50251 8.50251C7.31871 8.50251 7.14996 8.45573 6.99624 8.36216C6.84586 8.27193 6.72556 8.15163 6.63534 8.00126C6.54511 7.85088 6.5 7.6838 6.5 7.5Z" fill="black"/>
<path d="M6.5 3.49488C6.5 3.22086 6.59691 2.98527 6.79073 2.78811C6.98789 2.59095 7.22515 2.49237 7.50251 2.49237C7.77652 2.49237 8.01044 2.59095 8.20426 2.78811C8.40142 2.98527 8.5 3.22086 8.5 3.49488C8.5 3.7689 8.40142 4.00448 8.20426 4.20164C8.01044 4.3988 7.77652 4.49738 7.50251 4.49738C7.31871 4.49738 7.14996 4.4506 6.99624 4.35703C6.84586 4.26681 6.72556 4.14651 6.63534 3.99613C6.54511 3.84575 6.5 3.67867 6.5 3.49488Z" fill="black"/>
</svg>
