<svg width="15" height="15" viewBox="0 0 15 15" fill="none" xmlns="http://www.w3.org/2000/svg">
<path fill-rule="evenodd" clip-rule="evenodd" d="M7.07914 1.19726C7.31263 0.967572 7.68718 0.967572 7.92067 1.19726L14.6707 7.83728C14.9069 8.06966 14.91 8.44954 14.6777 8.68577C14.4453 8.92201 14.0654 8.92513 13.8292 8.69274L12.9999 7.87702V13.475C12.9999 13.7511 12.7761 13.975 12.4999 13.975H2.4999C2.22376 13.975 1.9999 13.7511 1.9999 13.475V7.87702L1.17067 8.69274C0.934436 8.92513 0.55455 8.92201 0.322168 8.68577C0.0897858 8.44954 0.0929062 8.06966 0.329138 7.83728L7.07914 1.19726ZM7.4999 2.46664L11.9999 6.89332V12.975H9.99988V9.475C9.99988 9.19886 9.77605 8.975 9.4999 8.975H6.4999C6.22376 8.975 5.9999 9.19886 5.9999 9.475V12.975H2.9999V6.89332L7.4999 2.46664ZM6.9999 12.975H8.9999V9.975H6.9999V12.975Z" fill="black"/>
</svg>
