<svg width="16" height="15" viewBox="0 0 16 15" fill="none" xmlns="http://www.w3.org/2000/svg">
<path fill-rule="evenodd" clip-rule="evenodd" d="M2.10829 7.29683C2.10829 10.341 4.31549 12.4148 6.79401 12.844C7.07763 12.8931 7.26774 13.1628 7.21863 13.4464C7.16952 13.73 6.89979 13.9202 6.61616 13.871C3.7045 13.3669 1.06592 10.9127 1.06592 7.29683C1.06592 5.76015 1.76504 4.55251 2.58147 3.63383C3.16632 2.97574 3.83542 2.44141 4.37354 2.03208L2.73713 2.03208C2.46099 2.03208 2.23713 1.80822 2.23713 1.53208C2.23713 1.25594 2.46099 1.03208 2.73713 1.03208L5.73713 1.03208C6.01327 1.03208 6.23713 1.25594 6.23713 1.53208L6.23713 4.53208C6.23713 4.80822 6.01327 5.03208 5.73713 5.03208C5.46099 5.03208 5.23713 4.80822 5.23713 4.53208L5.23713 2.68651L5.23562 2.68766L5.23553 2.68772L5.23552 2.68773L5.23551 2.68774C4.66404 3.11874 3.96567 3.64544 3.36062 4.32626C2.6461 5.13027 2.10829 6.1016 2.10829 7.29683ZM13.2159 7.70327C13.2159 4.69121 11.0555 2.62966 8.60891 2.17035C8.32601 2.11724 8.13973 1.84485 8.19284 1.56195C8.24595 1.27904 8.51834 1.09276 8.80124 1.14587C11.6755 1.68547 14.2583 4.12612 14.2583 7.70327C14.2583 9.23995 13.5592 10.4476 12.7428 11.3663C12.1579 12.0244 11.4888 12.5587 10.9507 12.968L12.5871 12.968C12.8633 12.968 13.0871 13.1919 13.0871 13.468C13.0871 13.7442 12.8633 13.968 12.5871 13.968L9.58713 13.968C9.31099 13.968 9.08713 13.7442 9.08713 13.468L9.08713 10.468C9.08713 10.1919 9.31099 9.96802 9.58713 9.96802C9.86327 9.96802 10.0871 10.1919 10.0871 10.468L10.0871 12.3136L10.0887 12.3124C10.6602 11.8814 11.3586 11.3547 11.9636 10.6738C12.6781 9.86982 13.2159 8.8985 13.2159 7.70327Z" fill="black"/>
</svg>
