<svg xmlns="http://www.w3.org/2000/svg" width="15" height="15" fill="none"><path fill="#000" stroke="#000" stroke-width=".25" d="M6.907 10.71q-.326.333-.327.795 0 .309.153.566.151.252.404.403.261.159.57.159.464 0 .791-.333.331-.332.332-.795a1.1 1.1 0 0 0-.332-.795 1.07 1.07 0 0 0-.79-.332q-.468 0-.8.332Zm0-4.005c-.217.22-.327.488-.327.795q0 .309.153.566.151.251.404.403.261.159.57.159.464-.002.791-.333.331-.332.332-.795a1.1 1.1 0 0 0-.332-.795 1.07 1.07 0 0 0-.79-.333q-.468 0-.8.333Zm0-4.005c-.217.22-.327.488-.327.795q0 .309.153.565.151.252.404.404.261.159.57.158.464-.001.791-.332.331-.331.332-.795a1.1 1.1 0 0 0-.332-.795 1.07 1.07 0 0 0-.79-.333q-.468 0-.8.333Z"/></svg>