<svg width="16" height="15" viewBox="0 0 16 15" fill="none" xmlns="http://www.w3.org/2000/svg">
<path d="M6.90742 10.71L6.90741 10.71L6.90666 10.7107C6.6901 10.931 6.58008 11.198 6.58008 11.5051C6.58008 11.7104 6.63078 11.8999 6.73323 12.0707C6.83394 12.2386 6.96885 12.3735 7.13667 12.4743C7.31031 12.5799 7.50151 12.6326 7.70758 12.6326C8.01529 12.6326 8.28109 12.5205 8.49811 12.2999C8.718 12.0798 8.83008 11.8128 8.83008 11.5051C8.83008 11.1975 8.718 10.9304 8.49811 10.7104C8.28109 10.4898 8.01529 10.3776 7.70758 10.3776C7.39688 10.3776 7.12788 10.4895 6.90742 10.71Z" fill="black" stroke="black" stroke-width="0.25"/>
<path d="M6.90742 6.70485L6.90741 6.70485L6.90666 6.70561C6.6901 6.92591 6.58008 7.19288 6.58008 7.5C6.58008 7.70532 6.63078 7.89481 6.73323 8.06557C6.83394 8.23342 6.96885 8.36838 7.13667 8.46914C7.31031 8.57475 7.50152 8.62751 7.70758 8.62751C8.01529 8.62751 8.2811 8.51535 8.49811 8.29478C8.718 8.07471 8.83008 7.80764 8.83008 7.5C8.83008 7.19236 8.718 6.92529 8.49811 6.70523C8.28109 6.48465 8.01529 6.3725 7.70758 6.3725C7.39688 6.3725 7.12788 6.48439 6.90742 6.70485Z" fill="black" stroke="black" stroke-width="0.25"/>
<path d="M6.90742 2.69972L6.90741 2.69972L6.90666 2.70048C6.6901 2.92078 6.58008 3.18775 6.58008 3.49488C6.58008 3.70019 6.63078 3.88969 6.73323 4.06044C6.83394 4.2283 6.96885 4.36325 7.13667 4.46401C7.31031 4.56963 7.50152 4.62238 7.70758 4.62238C8.01529 4.62238 8.2811 4.51022 8.49811 4.28965C8.718 4.06958 8.83008 3.80252 8.83008 3.49488C8.83008 3.18724 8.718 2.92017 8.49811 2.7001C8.28109 2.47953 8.01529 2.36737 7.70758 2.36737C7.39688 2.36737 7.12788 2.47926 6.90742 2.69972Z" fill="black" stroke="black" stroke-width="0.25"/>
</svg>
