<svg width="16" height="15" viewBox="0 0 16 15" fill="none" xmlns="http://www.w3.org/2000/svg">
<path d="M8.09749 0.617975C7.95231 0.268925 7.45784 0.268926 7.31267 0.617975L5.67626 4.55238C5.65106 4.61297 5.59407 4.65437 5.52866 4.65961L1.28114 5.00013C0.904316 5.03034 0.751518 5.50061 1.03862 5.74654L4.27478 8.51866C4.32462 8.56135 4.34638 8.62833 4.33116 8.69217L3.34246 12.837C3.25474 13.2047 3.65478 13.4954 3.97739 13.2983L7.61386 11.0772C7.66986 11.043 7.7403 11.043 7.7963 11.0772L11.4328 13.2983C11.7554 13.4954 12.1554 13.2047 12.0677 12.837L11.079 8.69217C11.0638 8.62833 11.0855 8.56135 11.1354 8.51866L14.3715 5.74654C14.6586 5.50061 14.5058 5.03034 14.129 5.00013L9.88149 4.65961C9.81608 4.65437 9.7591 4.61297 9.7339 4.55238L8.09749 0.617975Z" fill="black" stroke="black" stroke-width="0.25"/>
</svg>
