<svg width="16" height="15" viewBox="0 0 16 15" fill="none" xmlns="http://www.w3.org/2000/svg">
<path d="M6.70508 11.5051C6.70508 11.2311 6.80199 10.9955 6.99581 10.7984C7.19296 10.6012 7.43022 10.5026 7.70758 10.5026C7.9816 10.5026 8.21552 10.6012 8.40934 10.7984C8.6065 10.9955 8.70508 11.2311 8.70508 11.5051C8.70508 11.7791 8.6065 12.0147 8.40934 12.2119C8.21552 12.4091 7.9816 12.5076 7.70758 12.5076C7.52379 12.5076 7.35504 12.4609 7.20132 12.3673C7.05094 12.2771 6.93064 12.1568 6.84042 12.0064C6.75019 11.856 6.70508 11.6889 6.70508 11.5051Z" fill="black"/>
<path d="M6.70508 7.5C6.70508 7.22599 6.80199 6.9904 6.99581 6.79324C7.19296 6.59608 7.43022 6.4975 7.70758 6.4975C7.9816 6.4975 8.21552 6.59608 8.40934 6.79324C8.6065 6.9904 8.70508 7.22599 8.70508 7.5C8.70508 7.77402 8.6065 8.00961 8.40934 8.20677C8.21552 8.40393 7.9816 8.50251 7.70758 8.50251C7.52379 8.50251 7.35504 8.45573 7.20132 8.36216C7.05094 8.27193 6.93064 8.15163 6.84042 8.00126C6.75019 7.85088 6.70508 7.6838 6.70508 7.5Z" fill="black"/>
<path d="M6.70508 3.49488C6.70508 3.22086 6.80199 2.98527 6.99581 2.78811C7.19296 2.59095 7.43022 2.49237 7.70758 2.49237C7.9816 2.49237 8.21552 2.59095 8.40934 2.78811C8.6065 2.98527 8.70508 3.22086 8.70508 3.49488C8.70508 3.7689 8.6065 4.00448 8.40934 4.20164C8.21552 4.3988 7.9816 4.49738 7.70758 4.49738C7.52379 4.49738 7.35504 4.4506 7.20132 4.35703C7.05094 4.26681 6.93064 4.14651 6.84042 3.99613C6.75019 3.84575 6.70508 3.67867 6.70508 3.49488Z" fill="black"/>
</svg>
