<svg width="16" height="15" viewBox="0 0 16 15" fill="none" xmlns="http://www.w3.org/2000/svg">
<path d="M13.2355 3.03033L8.76574 7.5L13.2355 11.9696C13.5282 12.2625 13.5283 12.7374 13.2355 13.0303C12.9426 13.3231 12.4677 13.3232 12.1747 13.0304L7.70508 8.56066L3.23541 13.0304C2.94252 13.3232 2.46766 13.3232 2.17478 13.0304C1.8819 12.7375 1.88185 12.2626 2.17474 11.9696L6.64441 7.5L2.17476 3.03033C1.88186 2.73744 1.88185 2.26257 2.17475 1.96968C2.46764 1.67678 2.94252 1.67677 3.2354 1.96967L7.70508 6.43933L12.1747 1.96967C12.4676 1.67679 12.9425 1.67677 13.2354 1.96966C13.5282 2.26254 13.5282 2.73744 13.2355 3.03033Z" fill="black"/>
</svg>
