<svg width="15" height="15" viewBox="0 0 15 15" fill="none" xmlns="http://www.w3.org/2000/svg">
<path d="M6.70234 10.71L6.70234 10.71L6.70159 10.7107C6.48502 10.931 6.375 11.198 6.375 11.5051C6.375 11.7104 6.4257 11.8999 6.52815 12.0707C6.62887 12.2386 6.76378 12.3735 6.93159 12.4743C7.10523 12.5799 7.29644 12.6326 7.50251 12.6326C7.81021 12.6326 8.07602 12.5205 8.29303 12.2999C8.51292 12.0798 8.625 11.8128 8.625 11.5051C8.625 11.1975 8.51292 10.9304 8.29303 10.7104C8.07601 10.4898 7.81021 10.3776 7.50251 10.3776C7.1918 10.3776 6.9228 10.4895 6.70234 10.71Z" fill="black" stroke="black" stroke-width="0.25"/>
<path d="M6.70234 6.70485L6.70234 6.70485L6.70159 6.70561C6.48502 6.92591 6.375 7.19288 6.375 7.5C6.375 7.70532 6.4257 7.89481 6.52815 8.06557C6.62887 8.23342 6.76378 8.36838 6.93159 8.46914C7.10523 8.57475 7.29644 8.62751 7.50251 8.62751C7.8102 8.62751 8.07601 8.51536 8.29302 8.29479C8.51292 8.07472 8.625 7.80765 8.625 7.5C8.625 7.19236 8.51292 6.92529 8.29303 6.70523C8.07601 6.48465 7.81021 6.3725 7.50251 6.3725C7.1918 6.3725 6.9228 6.48439 6.70234 6.70485Z" fill="black" stroke="black" stroke-width="0.25"/>
<path d="M6.70234 2.69972L6.70234 2.69972L6.70159 2.70048C6.48502 2.92078 6.375 3.18775 6.375 3.49488C6.375 3.70019 6.4257 3.88969 6.52815 4.06044C6.62887 4.2283 6.76378 4.36325 6.93159 4.46401C7.10523 4.56963 7.29644 4.62238 7.50251 4.62238C7.8102 4.62238 8.07601 4.51023 8.29302 4.28966C8.51292 4.06959 8.625 3.80252 8.625 3.49488C8.625 3.18724 8.51292 2.92017 8.29303 2.7001C8.07601 2.47953 7.81021 2.36737 7.50251 2.36737C7.1918 2.36737 6.9228 2.47926 6.70234 2.69972Z" fill="black" stroke="black" stroke-width="0.25"/>
</svg>
