<svg width="15" height="15" viewBox="0 0 15 15" fill="none" xmlns="http://www.w3.org/2000/svg">
<path fill-rule="evenodd" clip-rule="evenodd" d="M9.65946 2.14645C9.46419 1.95118 9.14761 1.95118 8.95235 2.14645C8.75709 2.34171 8.75709 2.65829 8.95235 2.85355L9.60536 3.50656L4.75663 7.14311L3.64905 6.03553C3.45379 5.84027 3.1372 5.84027 2.94194 6.03553C2.74668 6.2308 2.74668 6.54738 2.94194 6.74264L4.35616 8.15685L5.41682 9.21751L2.14645 12.4879C1.95118 12.6831 1.95118 12.9997 2.14645 13.195C2.34171 13.3903 2.65829 13.3903 2.85355 13.195L6.12392 9.92462L7.18458 10.9853L8.5988 12.3995C8.79406 12.5948 9.11064 12.5948 9.3059 12.3995C9.50116 12.2042 9.50116 11.8876 9.3059 11.6924L8.19832 10.5848L11.8349 5.73608L12.4879 6.38909C12.6831 6.58435 12.9997 6.58435 13.195 6.38909C13.3903 6.19383 13.3903 5.87724 13.195 5.68198L12.1343 4.62132L10.7201 3.20711L9.65946 2.14645ZM5.47091 7.8574L10.3196 4.22085L11.1206 5.02179L7.48404 9.87052L5.47091 7.8574Z" fill="black"/>
</svg>
