<svg width="16" height="15" viewBox="0 0 16 15" fill="none" xmlns="http://www.w3.org/2000/svg">
<g clip-path="url(#clip0_257_26139)">
<path fill-rule="evenodd" clip-rule="evenodd" d="M7.49978 0.876892C3.8421 0.876892 0.876953 3.84204 0.876953 7.49972C0.876953 11.1574 3.8421 14.1226 7.49978 14.1226C11.1574 14.1226 14.1226 11.1574 14.1226 7.49972C14.1226 3.84204 11.1574 0.876892 7.49978 0.876892ZM1.82695 7.49972C1.82695 4.36671 4.36677 1.82689 7.49978 1.82689C10.6328 1.82689 13.1726 4.36671 13.1726 7.49972C13.1726 10.6327 10.6328 13.1726 7.49978 13.1726C4.36677 13.1726 1.82695 10.6327 1.82695 7.49972ZM8.2498 4.49999C8.2498 4.9142 7.91401 5.24999 7.4998 5.24999C7.08558 5.24999 6.7498 4.9142 6.7498 4.49999C6.7498 4.08577 7.08558 3.74999 7.4998 3.74999C7.91401 3.74999 8.2498 4.08577 8.2498 4.49999ZM5.99991 5.99999H6.49991H7.49991C7.77606 5.99999 7.99991 6.22384 7.99991 6.49999V9.99999H8.49991H8.99991V11H8.49991H7.49991H6.49991H5.99991V9.99999H6.49991H6.99991V6.99999H6.49991H5.99991V5.99999Z" fill="black"/>
</g>
<defs>
<clipPath id="clip0_257_26139">
<rect width="15" height="15" fill="white" transform="translate(0.205078)"/>
</clipPath>
</defs>
</svg>
