<svg width="15" height="15" viewBox="0 0 15 15" fill="none" xmlns="http://www.w3.org/2000/svg">
<path fill-rule="evenodd" clip-rule="evenodd" d="M9.83623 1.96967C9.54333 1.67678 9.06846 1.67678 8.77557 1.96967C8.48267 2.26257 8.48267 2.73744 8.77557 3.03033L9.22475 3.47952L4.78008 6.81302L3.82582 5.85876C3.53293 5.56587 3.05805 5.56587 2.76516 5.85876C2.47227 6.15165 2.47227 6.62653 2.76516 6.91942L4.17937 8.33363L5.06326 9.21752L1.96966 12.3111C1.67677 12.604 1.67677 13.0789 1.96966 13.3718C2.26256 13.6647 2.73743 13.6647 3.03033 13.3718L6.12392 10.2782L7.0078 11.1621L8.42201 12.5763C8.71491 12.8692 9.18978 12.8692 9.48267 12.5763C9.77557 12.2834 9.77557 11.8085 9.48267 11.5156L8.52841 10.5614L11.8619 6.11668L12.3111 6.56587C12.604 6.85876 13.0789 6.85876 13.3718 6.56587C13.6647 6.27297 13.6647 5.7981 13.3718 5.50521L12.3111 4.44455L10.8969 3.03033L9.83623 1.96967ZM5.85151 7.88445L10.2962 4.55095L10.7905 5.04525L7.45698 9.48992L5.85151 7.88445Z" fill="black"/>
</svg>
