<svg width="16" height="15" viewBox="0 0 16 15" fill="none" xmlns="http://www.w3.org/2000/svg">
<path fill-rule="evenodd" clip-rule="evenodd" d="M8.71714 3.00517C9.39349 2.5457 10.2487 2.5367 10.884 2.95395C11.0283 3.04869 11.1823 3.19906 11.5942 3.61095C12.0061 4.02283 12.1565 4.1769 12.2512 4.32117C12.6685 4.95651 12.6595 5.81168 12.2 6.48803C12.0951 6.6424 11.9328 6.80787 11.5058 7.23487L10.8871 7.85359C10.6919 8.04885 10.6919 8.36543 10.8871 8.56069C11.0824 8.75596 11.399 8.75596 11.5942 8.56069L12.2129 7.94197L12.2559 7.89905C12.6255 7.52952 12.862 7.29306 13.0272 7.04996C13.7024 6.05599 13.7373 4.76228 13.0871 3.77224C12.9285 3.53078 12.6974 3.29977 12.346 2.94847L12.3013 2.90384L12.2567 2.85918C11.9054 2.50776 11.6744 2.27665 11.4329 2.11808C10.4429 1.46789 9.14918 1.50275 8.15521 2.17798C7.91211 2.34312 7.67564 2.57967 7.3061 2.94931L7.2632 2.99223L6.64448 3.61095C6.44921 3.80621 6.44921 4.12279 6.64448 4.31805C6.83974 4.51331 7.15632 4.51331 7.35158 4.31805L7.9703 3.69933C8.3973 3.27233 8.56277 3.11003 8.71714 3.00517ZM4.52316 7.14648C4.71842 6.95122 4.71842 6.63463 4.52316 6.43937C4.32789 6.24411 4.01131 6.24411 3.81605 6.43937L3.19733 7.05809L3.15442 7.101C2.78477 7.47053 2.54823 7.707 2.38308 7.95011C1.70785 8.94408 1.673 10.2378 2.32319 11.2279C2.48176 11.4693 2.71286 11.7003 3.0643 12.0516L3.10894 12.0963L3.15357 12.1409C3.50487 12.4923 3.73588 12.7235 3.97734 12.882C4.96739 13.5322 6.26109 13.4974 7.25506 12.8221C7.49816 12.657 7.73463 12.4204 8.10416 12.0508L8.14708 12.0079L8.7658 11.3892C8.96106 11.1939 8.96106 10.8773 8.7658 10.6821C8.57053 10.4868 8.25395 10.4868 8.05869 10.6821L7.43997 11.3008C7.01297 11.7278 6.8475 11.8901 6.69314 11.9949C6.01678 12.4544 5.16162 12.4634 4.52627 12.0462C4.38201 11.9514 4.22794 11.801 3.81605 11.3892C3.40416 10.9773 3.2538 10.8232 3.15905 10.6789C2.74181 10.0436 2.75081 9.18839 3.21027 8.51203C3.31513 8.35767 3.47744 8.1922 3.90444 7.7652L4.52316 7.14648ZM9.82692 6.08534C10.0222 5.89008 10.0222 5.57349 9.82692 5.37823C9.63166 5.18297 9.31508 5.18297 9.11981 5.37823L5.58428 8.91377C5.38902 9.10903 5.38902 9.42561 5.58428 9.62087C5.77954 9.81613 6.09612 9.81613 6.29139 9.62087L9.82692 6.08534Z" fill="black"/>
</svg>
