<svg xmlns="http://www.w3.org/2000/svg" width="15" height="15" fill="none"><path fill="#000" d="M11.71 8.5a.97.97 0 0 1-.707-.29.97.97 0 0 1-.296-.713q.001-.41.296-.701a.96.96 0 0 1 .707-.296q.411 0 .707.296a.95.95 0 0 1 .296.701.96.96 0 0 1-.14.507q-.136.225-.362.36a.96.96 0 0 1-.501.136m-4.005 0a.97.97 0 0 1-.707-.29.97.97 0 0 1-.296-.713q0-.41.296-.701a.97.97 0 0 1 .707-.296q.412 0 .706.296a.95.95 0 0 1 .296.701.96.96 0 0 1-.14.507q-.135.225-.361.36a.96.96 0 0 1-.501.136M3.7 8.5a.97.97 0 0 1-.707-.29.97.97 0 0 1-.296-.713q0-.41.296-.701A.97.97 0 0 1 3.7 6.5q.411 0 .707.296a.95.95 0 0 1 .295.701.96.96 0 0 1-.14.507q-.135.225-.361.36A.96.96 0 0 1 3.7 8.5"/></svg>