<svg width="16" height="15" viewBox="0 0 16 15" fill="none" xmlns="http://www.w3.org/2000/svg">
<path fill-rule="evenodd" clip-rule="evenodd" d="M3.70508 5C3.42894 5 3.20508 5.22386 3.20508 5.5L3.20508 11.5C3.20508 11.7761 3.42894 12 3.70508 12L11.7051 12C11.9812 12 12.2051 11.7761 12.2051 11.5L12.2051 5.5C12.2051 5.22386 11.9812 5 11.7051 5L10.4551 5C10.1789 5 9.95508 4.77614 9.95508 4.5C9.95508 4.22386 10.1789 4 10.4551 4L11.7051 4C12.5335 4 13.2051 4.67157 13.2051 5.5L13.2051 11.5C13.2051 12.3284 12.5335 13 11.7051 13L3.70508 13C2.87665 13 2.20508 12.3284 2.20508 11.5L2.20508 5.5C2.20508 4.67157 2.87665 4 3.70508 4L4.95508 4C5.23122 4 5.45508 4.22386 5.45508 4.5C5.45508 4.77614 5.23122 5 4.95508 5L3.70508 5ZM7.20508 1.63634L5.77328 3.06814C5.59754 3.24387 5.31262 3.24387 5.13688 3.06814C4.96114 2.8924 4.96114 2.60748 5.13688 2.43174L7.38688 0.181741C7.47127 0.0973489 7.58573 0.049938 7.70508 0.049938C7.82443 0.049938 7.93888 0.0973489 8.02328 0.181741L10.2733 2.43174C10.449 2.60748 10.449 2.8924 10.2733 3.06814C10.0975 3.24387 9.81262 3.24387 9.63688 3.06814L8.20508 1.63634L8.20508 8.49994C8.20508 8.77608 7.98122 8.99994 7.70508 8.99994C7.42894 8.99994 7.20508 8.77608 7.20508 8.49994L7.20508 1.63634Z" fill="black"/>
</svg>
