<svg width="16" height="15" viewBox="0 0 16 15" fill="none" xmlns="http://www.w3.org/2000/svg">
<path fill-rule="evenodd" clip-rule="evenodd" d="M6.92599 0.896768C7.28466 0.034412 8.50628 0.0344095 8.86496 0.896768L10.3958 4.57739L14.3694 4.89594C15.3003 4.97058 15.6778 6.13241 14.9685 6.74002L11.9411 9.33332L12.866 13.2108C13.0827 14.1193 12.0944 14.8374 11.2974 14.3505L7.89547 12.2726L4.49357 14.3505C3.69652 14.8374 2.7082 14.1193 2.92491 13.2108L3.84983 9.33332L0.822418 6.74002C0.113106 6.13241 0.490605 4.97058 1.42159 4.89594L5.39513 4.57739L6.92599 0.896768ZM7.89547 2.47178L6.67456 5.40721C6.52335 5.77076 6.18146 6.01916 5.78898 6.05062L2.61993 6.30469L5.03441 8.37294C5.33344 8.62909 5.46403 9.03101 5.37267 9.414L4.63501 12.5065L7.34816 10.8493C7.68417 10.644 8.10677 10.644 8.44279 10.8493L11.1559 12.5065L10.4183 9.414C10.3269 9.03101 10.4575 8.62909 10.7565 8.37294L13.171 6.30469L10.002 6.05062C9.60949 6.01916 9.2676 5.77076 9.11639 5.40721L7.89547 2.47178Z" fill="black"/>
</svg>
