<svg width="16" height="15" viewBox="0 0 16 15" fill="none" xmlns="http://www.w3.org/2000/svg">
<g clip-path="url(#clip0_127_8696)">
<path fill-rule="evenodd" clip-rule="evenodd" d="M7.28422 1.19726C7.51771 0.967572 7.89226 0.967572 8.12575 1.19726L14.8758 7.83728C15.112 8.06966 15.1151 8.44954 14.8828 8.68577C14.6504 8.92201 14.2705 8.92513 14.0343 8.69274L13.205 7.87702V13.475C13.205 13.7511 12.9812 13.975 12.705 13.975H2.70498C2.42884 13.975 2.20498 13.7511 2.20498 13.475V7.87702L1.37575 8.69274C1.13951 8.92513 0.759628 8.92201 0.527246 8.68577C0.294864 8.44954 0.297984 8.06966 0.534216 7.83728L7.28422 1.19726ZM7.70498 2.46664L12.205 6.89332V12.975H10.205V9.475C10.205 9.19886 9.98113 8.975 9.70498 8.975H6.70498C6.42884 8.975 6.20498 9.19886 6.20498 9.475V12.975H3.20498V6.89332L7.70498 2.46664ZM7.20498 12.975H9.20498V9.975H7.20498V12.975Z" fill="black"/>
</g>
<defs>
<clipPath id="clip0_127_8696">
<rect width="15" height="15" fill="white" transform="translate(0.205078)"/>
</clipPath>
</defs>
</svg>
