<svg width="15" height="15" viewBox="0 0 15 15" fill="none" xmlns="http://www.w3.org/2000/svg">
<path d="M11.5049 8.5C11.2309 8.5 10.9953 8.40309 10.7982 8.20927C10.601 8.01211 10.5024 7.77485 10.5024 7.49749C10.5024 7.22348 10.601 6.98956 10.7982 6.79574C10.9953 6.59858 11.2309 6.5 11.5049 6.5C11.779 6.5 12.0146 6.59858 12.2117 6.79574C12.4089 6.98956 12.5075 7.22348 12.5075 7.49749C12.5075 7.68129 12.4607 7.85004 12.3671 8.00376C12.2769 8.15414 12.1566 8.27444 12.0062 8.36466C11.8558 8.45489 11.6887 8.5 11.5049 8.5Z" fill="black"/>
<path d="M7.49958 8.5C7.22556 8.5 6.98997 8.40309 6.79281 8.20927C6.59565 8.01211 6.49707 7.77485 6.49707 7.49749C6.49707 7.22348 6.59565 6.98956 6.79281 6.79574C6.98997 6.59858 7.22556 6.5 7.49958 6.5C7.77359 6.5 8.00918 6.59858 8.20634 6.79574C8.4035 6.98956 8.50208 7.22348 8.50208 7.49749C8.50208 7.68129 8.4553 7.85004 8.36173 8.00376C8.27151 8.15414 8.15121 8.27444 8.00083 8.36466C7.85045 8.45489 7.68337 8.5 7.49958 8.5Z" fill="black"/>
<path d="M3.49469 8.5C3.22068 8.5 2.98509 8.40309 2.78793 8.20927C2.59077 8.01211 2.49219 7.77485 2.49219 7.49749C2.49219 7.22348 2.59077 6.98956 2.78793 6.79574C2.98509 6.59858 3.22068 6.5 3.49469 6.5C3.76871 6.5 4.0043 6.59858 4.20146 6.79574C4.39862 6.98956 4.4972 7.22348 4.4972 7.49749C4.4972 7.68129 4.45042 7.85004 4.35685 8.00376C4.26662 8.15414 4.14632 8.27444 3.99595 8.36466C3.84557 8.45489 3.67849 8.5 3.49469 8.5Z" fill="black"/>
</svg>
