<svg xmlns="http://www.w3.org/2000/svg" width="15" height="15" fill="none"><path fill="#000" d="M6.705 11.505q0-.411.29-.707a.97.97 0 0 1 .713-.295q.411 0 .701.295a.96.96 0 0 1 .296.707q0 .411-.296.707a.95.95 0 0 1-.701.296.96.96 0 0 1-.507-.14q-.225-.135-.36-.362a.96.96 0 0 1-.136-.5m0-4.006q0-.411.29-.707a.97.97 0 0 1 .713-.296q.411.001.701.296a.97.97 0 0 1 .296.707q0 .411-.296.707a.95.95 0 0 1-.701.296.96.96 0 0 1-.507-.14q-.225-.136-.36-.362a.96.96 0 0 1-.136-.501m0-4.005q0-.411.29-.707a.97.97 0 0 1 .713-.296q.411 0 .701.296a.97.97 0 0 1 .296.707q0 .411-.296.707a.95.95 0 0 1-.701.295.96.96 0 0 1-.507-.14q-.225-.135-.36-.36a.96.96 0 0 1-.136-.502"/></svg>