<svg width="16" height="15" viewBox="0 0 16 15" fill="none" xmlns="http://www.w3.org/2000/svg">
<path d="M12.161 9.80246L12.161 9.80246C12.3971 9.55064 12.3844 9.15512 12.1325 8.91904C12.1325 8.91904 12.1325 8.91904 12.1325 8.91903L8.13254 5.16901L8.13254 5.169C7.89213 4.94363 7.51803 4.94363 7.27762 5.169L7.36311 5.2602L7.27761 5.16901L3.27758 8.91904L3.27757 8.91905C3.02582 9.15512 3.01308 9.55063 3.24907 9.80244L3.24909 9.80247C3.48521 10.0543 3.8807 10.067 4.13256 9.83097L4.13257 9.83096L7.70508 6.4817L11.2776 9.83096C11.5294 10.067 11.925 10.0543 12.161 9.80246Z" fill="black" stroke="black" stroke-width="0.25"/>
</svg>
