<svg width="15" height="15" viewBox="0 0 15 15" fill="none" xmlns="http://www.w3.org/2000/svg">
<g clip-path="url(#clip0_144_8731)">
<path d="M8.83202 6.03435C8.64202 5.15696 8.09524 4.41295 7.35149 3.96138C7.43223 2.94483 8.28285 2.14499 9.32022 2.14499C10.411 2.14499 11.2952 3.02923 11.2952 4.11999C11.2952 5.21076 10.411 6.095 9.32022 6.095C9.15118 6.095 8.98772 6.0739 8.83202 6.03435ZM9.32022 0.894989C7.74095 0.894989 6.42699 2.03004 6.14929 3.5289C5.99605 3.50656 5.83938 3.495 5.68008 3.495C3.89896 3.495 2.45508 4.93888 2.45508 6.72C2.45508 8.50112 3.89896 9.945 5.68008 9.945C7.25938 9.945 8.57335 8.80992 8.85102 7.31103C9.00437 7.33342 9.16106 7.345 9.32022 7.345C11.1013 7.345 12.5452 5.90111 12.5452 4.11999C12.5452 2.33887 11.1013 0.894989 9.32022 0.894989ZM3.70508 6.72C3.70508 5.62923 4.58932 4.745 5.68008 4.745C6.77085 4.745 7.65509 5.62923 7.65509 6.72C7.65509 7.81076 6.77085 8.695 5.68008 8.695C4.58932 8.695 3.70508 7.81076 3.70508 6.72Z" fill="black" stroke="black" stroke-width="0.25"/>
<path d="M8.40345 7.43571C8.69731 7.37644 9.00399 7.34497 9.31987 7.34497C11.6301 7.34497 13.3749 8.99432 13.3749 10.88C13.3749 11.2252 13.6547 11.505 13.9999 11.505C14.3451 11.505 14.6249 11.2252 14.6249 10.88C14.6249 8.16973 12.1781 6.09497 9.31987 6.09497C8.92087 6.09497 8.5314 6.13474 8.15631 6.21039C7.81795 6.27864 7.59897 6.60826 7.66722 6.94662C7.73547 7.28499 8.06509 7.50396 8.40345 7.43571Z" fill="black" stroke="black" stroke-width="0.25" stroke-linecap="round"/>
<path d="M1.625 13.48C1.625 11.5943 3.3698 9.94498 5.68001 9.94498C7.99021 9.94498 9.73501 11.5943 9.73501 13.48C9.73501 13.8252 10.0148 14.105 10.36 14.105C10.7052 14.105 10.985 13.8252 10.985 13.48C10.985 10.7697 8.5382 8.69498 5.68001 8.69498C2.82181 8.69498 0.375 10.7697 0.375 13.48C0.375 13.8252 0.654822 14.105 1 14.105C1.34518 14.105 1.625 13.8252 1.625 13.48Z" fill="black" stroke="black" stroke-width="0.25" stroke-linecap="round"/>
</g>
<defs>
<clipPath id="clip0_144_8731">
<rect width="15" height="15" fill="white"/>
</clipPath>
</defs>
</svg>
