<svg width="16" height="15" viewBox="0 0 16 15" fill="none" xmlns="http://www.w3.org/2000/svg">
<g clip-path="url(#clip0_62_25322)">
<path fill-rule="evenodd" clip-rule="evenodd" d="M11.8515 0.646449C12.0468 0.451183 12.3634 0.451183 12.5586 0.646449L14.5586 2.64645C14.7539 2.84171 14.7539 3.15829 14.5586 3.35355L10.616 7.29618C10.54 7.37218 10.4522 7.43543 10.3561 7.4835L6.4287 9.44721C6.2362 9.5435 6.00372 9.5057 5.85154 9.35355C5.69936 9.20137 5.66163 8.96889 5.75788 8.77639L7.72159 4.84897C7.76966 4.75283 7.83291 4.66507 7.90891 4.58907L11.8515 0.646449ZM12.2051 1.70711L8.61602 5.29618L7.57777 7.37267L7.83242 7.62732L9.90891 6.58907L13.498 3L12.2051 1.70711Z" fill="black"/>
<path fill-rule="evenodd" clip-rule="evenodd" d="M7.70508 1.5H2.70508C1.60051 1.5 0.705078 2.39543 0.705078 3.5V12.5C0.705078 13.6046 1.60051 14.5 2.70508 14.5H11.7051C12.8096 14.5 13.7051 13.6046 13.7051 12.5V7.5H12.7051V12.5C12.7051 13.0523 12.2574 13.5 11.7051 13.5H2.70508C2.15279 13.5 1.70508 13.0523 1.70508 12.5V3.5C1.70508 2.94772 2.15279 2.5 2.70508 2.5H7.70508V1.5Z" fill="black"/>
</g>
<defs>
<clipPath id="clip0_62_25322">
<rect width="15" height="15" fill="white" transform="translate(0.205078)"/>
</clipPath>
</defs>
</svg>
