<svg width="16" height="15" viewBox="0 0 16 15" fill="none" xmlns="http://www.w3.org/2000/svg">
<path fill-rule="evenodd" clip-rule="evenodd" d="M7.18444 1.89279L7.16352 1.94307L5.79164 5.24147C5.74844 5.34534 5.65075 5.41631 5.53862 5.4253L1.97772 5.71078L1.92343 5.71513L1.59189 5.74171L1.2911 5.76583C1.0251 5.78715 0.917245 6.1191 1.11991 6.2927L1.34908 6.48901L1.60168 6.70539L1.64304 6.74082L4.35607 9.06482C4.4415 9.138 4.47882 9.25284 4.45271 9.36226L3.62384 12.8371L3.6112 12.8901L3.53403 13.2136L3.46401 13.5071C3.4021 13.7667 3.68447 13.9719 3.9122 13.8328L4.16972 13.6755L4.45356 13.5021L4.50004 13.4737L7.54867 11.6116C7.64467 11.553 7.76542 11.553 7.86142 11.6116L10.91 13.4737L10.9565 13.5021L11.2404 13.6755L11.4979 13.8328C11.7256 13.9719 12.008 13.7667 11.9461 13.5071L11.876 13.2136L11.7989 12.8901L11.7862 12.8371L10.9574 9.36226C10.9313 9.25284 10.9686 9.138 11.054 9.06482L13.767 6.74082L13.8084 6.70539L14.061 6.48901L14.2902 6.2927C14.4928 6.1191 14.385 5.78715 14.119 5.76583L13.8182 5.74171L13.4866 5.71513L13.4324 5.71078L9.87147 5.4253C9.75934 5.41631 9.66165 5.34534 9.61845 5.24147L8.24657 1.94307L8.22566 1.89279L8.09793 1.58569L7.98204 1.30707C7.87956 1.06069 7.53053 1.06069 7.42805 1.30707L7.31217 1.58569L7.18444 1.89279ZM7.70505 3.24505L6.71496 5.6255C6.52775 6.07561 6.10446 6.38315 5.61853 6.42211L3.04863 6.62813L5.00662 8.30536C5.37685 8.6225 5.53853 9.12011 5.42542 9.59429L4.82723 12.1021L7.02742 10.7582C7.44344 10.5041 7.96666 10.5041 8.38268 10.7582L10.5828 12.1021L9.98467 9.59429C9.87156 9.12011 10.0332 8.6225 10.4034 8.30536L12.3614 6.62813L9.79156 6.42211C9.30563 6.38315 8.88234 6.07561 8.69513 5.6255L7.70505 3.24505Z" fill="black"/>
</svg>
