<svg width="16" height="15" viewBox="0 0 16 15" fill="none" xmlns="http://www.w3.org/2000/svg">
<path fill-rule="evenodd" clip-rule="evenodd" d="M8.20508 2.75C8.20508 2.47386 7.98122 2.25 7.70508 2.25C7.42894 2.25 7.20508 2.47386 7.20508 2.75V7H2.95508C2.67894 7 2.45508 7.22386 2.45508 7.5C2.45508 7.77614 2.67894 8 2.95508 8H7.20508V12.25C7.20508 12.5261 7.42894 12.75 7.70508 12.75C7.98122 12.75 8.20508 12.5261 8.20508 12.25V8H12.4551C12.7312 8 12.9551 7.77614 12.9551 7.5C12.9551 7.22386 12.7312 7 12.4551 7H8.20508V2.75Z" fill="black"/>
</svg>
