<svg width="16" height="15" viewBox="0 0 16 15" fill="none" xmlns="http://www.w3.org/2000/svg">
<g clip-path="url(#clip0_85_8764)">
<path fill-rule="evenodd" clip-rule="evenodd" d="M0.205078 1.95C0.205078 0.873045 1.07812 0 2.15508 0H13.2551C14.332 0 15.2051 0.873045 15.2051 1.95V13.05C15.2051 14.127 14.332 15 13.2551 15H2.15508C1.07812 15 0.205078 14.127 0.205078 13.05V1.95ZM9.05508 4.5C9.05508 5.24558 8.45066 5.85 7.70508 5.85C6.95949 5.85 6.35508 5.24558 6.35508 4.5C6.35508 3.75442 6.95949 3.15 7.70508 3.15C8.45066 3.15 9.05508 3.75442 9.05508 4.5ZM7.26163 12.15C7.89661 12.1523 8.508 11.2707 8.7367 10.7784C9.01842 10.1719 9.19425 9.08178 8.91166 8.43596C8.7137 7.98355 8.26016 7.65 7.66113 7.65C6.93982 7.65 6.35508 8.23647 6.35508 8.95993C6.35508 9.15974 6.40079 9.34674 6.48185 9.51262C6.55711 9.66664 6.65641 9.82718 6.75647 9.98896C7.07097 10.4974 7.39303 11.0181 7.00042 11.3872C6.68199 11.6864 6.78158 12.1483 7.26163 12.15Z" fill="black"/>
</g>
<defs>
<clipPath id="clip0_85_8764">
<rect width="15" height="15" fill="white" transform="translate(0.205078)"/>
</clipPath>
</defs>
</svg>
