<svg width="108" height="108" viewBox="0 0 108 108" fill="none" xmlns="http://www.w3.org/2000/svg">
<path d="M65.7866 55.6543C65.7866 55.6543 70.9774 56.8435 75.4154 55.6543C79.8534 54.4652 82.7844 49.8574 82.7844 49.8574" stroke="black" style="stroke:black;stroke-opacity:1;" stroke-width="6" stroke-linecap="round"/>
<path d="M41.5706 55.5088C41.5706 55.5088 36.3798 54.3196 31.9418 55.5088C27.5038 56.6979 24.5727 61.3057 24.5727 61.3057" stroke="black" style="stroke:black;stroke-opacity:1;" stroke-width="6" stroke-linecap="round"/>
<path d="M37.8768 104C37.8768 104 43.698 97.305 45.1534 92.2841C46.6087 87.2632 45.7355 81.4419 45.7355 81.4419" stroke="black" style="stroke:black;stroke-opacity:1;" stroke-width="6" stroke-linecap="round"/>
<path d="M55.4159 101.089C55.4159 101.089 59.477 95.6217 60.5071 91.3381C61.5371 87.0545 60.9482 83.3134 60.9482 83.3134" stroke="black" style="stroke:black;stroke-opacity:1;" stroke-width="6" stroke-linecap="round"/>
<path d="M42.8558 78.9622C39.0737 74.3527 39.97 52.878 41.4442 49.1282C44.4666 41.4405 63.6705 45.0422 65.608 52.5445C66.7734 57.0568 67.7949 77.8394 64.958 80.3805C62.121 82.9216 46.6379 83.5718 42.8558 78.9622Z" fill="white" stroke="black" style="fill:white;fill-opacity:1;stroke:black;stroke-opacity:1;" stroke-width="5"/>
<circle cx="55.4159" cy="33.7832" r="19.8442" fill="white" stroke="black" style="fill:white;fill-opacity:1;stroke:black;stroke-opacity:1;" stroke-width="5"/>
<path d="M51.0768 38.1579C51.0768 38.1579 51.5588 43.5307 56.8472 43.83C62.1356 44.1292 64.6892 36.4271 64.6892 36.4271" stroke="black" style="stroke:black;stroke-opacity:1;" stroke-width="6" stroke-linecap="round"/>
<circle cx="65.7018" cy="28.0308" r="2.62701" transform="rotate(3.23906 65.7018 28.0308)" fill="black" style="fill:black;fill-opacity:1;"/>
<circle cx="47.9069" cy="30.8536" r="2.77454" transform="rotate(3.23906 47.9069 30.8536)" fill="black" style="fill:black;fill-opacity:1;"/>
<path d="M56.5614 3.05088C54.4626 3.24769 38.4994 15.119 37.8673 20.7098C37.7215 21.9997 45.5984 14.7551 54.1455 14.0794C62.6927 13.4038 68.1123 17.3462 69.0414 16.883C69.9705 16.4197 61.3353 2.60324 56.5614 3.05088Z" fill="white" style="fill:white;fill-opacity:1;"/>
<path d="M37.8673 20.7098L40.3515 20.9906L40.3515 20.9906L37.8673 20.7098ZM56.5614 3.05088L56.328 0.561798L56.5614 3.05088ZM69.0414 16.883L70.1569 19.1203L70.1569 19.1203L69.0414 16.883ZM54.1455 14.0794L54.3425 16.5717L54.1455 14.0794ZM37.8673 20.7098L40.3515 20.9906C40.3752 20.7815 40.5073 20.3313 40.9261 19.6124C41.3286 18.9215 41.9137 18.1215 42.664 17.2395C44.1642 15.476 46.1762 13.558 48.2857 11.7605C50.388 9.96925 52.5289 8.34712 54.252 7.17268C55.1165 6.58342 55.8461 6.12715 56.3945 5.82285C56.6705 5.6697 56.8682 5.57319 56.9935 5.51972C57.1753 5.44218 57.0662 5.51452 56.7948 5.53996L56.5614 3.05088L56.328 0.561798C55.7944 0.611841 55.3146 0.799984 55.0316 0.920694C54.6922 1.06547 54.3311 1.24964 53.9685 1.45086C53.2397 1.85528 52.3729 2.40242 51.4359 3.04113C49.5558 4.32262 47.2729 6.05464 45.0429 7.95467C42.8203 9.84846 40.5918 11.9588 38.8556 13.9997C37.9877 15.0199 37.2055 16.0661 36.6059 17.0954C36.0225 18.0966 35.5175 19.2403 35.3832 20.4289L37.8673 20.7098ZM56.5614 3.05088L56.7948 5.53996C56.7728 5.54203 56.9566 5.52413 57.4138 5.74629C57.8557 5.96103 58.4048 6.32863 59.0421 6.86737C60.3171 7.94514 61.6907 9.4896 62.9532 11.1427C64.2075 12.7852 65.2812 14.4414 65.9704 15.6794C66.3227 16.3122 66.5324 16.7608 66.6242 17.008C66.6791 17.1556 66.6403 17.0955 66.6206 16.9092C66.6116 16.8235 66.5846 16.5287 66.6879 16.1473C66.8036 15.7206 67.1356 15.0397 67.9258 14.6457L69.0414 16.883L70.1569 19.1203C71.0052 18.6973 71.3766 17.9614 71.5138 17.4552C71.6387 16.9944 71.6154 16.5958 71.5929 16.3836C71.5465 15.9442 71.4128 15.5401 71.3111 15.2665C71.09 14.6712 70.7401 13.9679 70.339 13.2473C69.5212 11.7783 68.3119 9.92157 66.9269 8.10799C65.55 6.30501 63.9278 4.45033 62.27 3.04893C61.441 2.34809 60.5395 1.7061 59.5991 1.24912C58.6739 0.79956 57.5436 0.447818 56.328 0.561798L56.5614 3.05088ZM69.0414 16.883L67.9258 14.6457C68.3852 14.4166 68.7772 14.4175 68.9027 14.422C69.047 14.427 69.1204 14.4495 69.0797 14.4395C68.9919 14.418 68.7998 14.356 68.4131 14.2088C67.721 13.9455 66.5756 13.4731 65.2381 13.0289C62.4966 12.1186 58.6576 11.215 53.9485 11.5872L54.1455 14.0794L54.3425 16.5717C58.1805 16.2683 61.325 16.998 63.6624 17.7742C64.8643 18.1733 65.7822 18.5574 66.6347 18.8819C67.0203 19.0286 67.4708 19.1933 67.8906 19.2961C68.1037 19.3483 68.3972 19.4073 68.7271 19.4189C69.0382 19.4298 69.5814 19.4073 70.1569 19.1203L69.0414 16.883ZM54.1455 14.0794L53.9485 11.5872C49.1026 11.9703 44.5988 14.1846 41.5014 15.9639C40.0059 16.8228 38.5693 17.7464 37.8659 18.1664C37.4044 18.4419 37.2902 18.4836 37.3521 18.462C37.3879 18.4496 37.5108 18.408 37.6919 18.3832C37.8482 18.3617 38.2503 18.3226 38.7382 18.4888C39.3243 18.6884 39.8634 19.1309 40.1553 19.7769C40.401 20.321 40.3737 20.7947 40.3515 20.9906L37.8673 20.7098L35.3832 20.4289C35.3519 20.7054 35.3311 21.2431 35.5986 21.8354C35.9123 22.5296 36.4884 23.0046 37.1262 23.2218C37.6659 23.4056 38.1345 23.3693 38.3717 23.3368C38.6337 23.3008 38.8518 23.2343 38.9966 23.1838C39.4948 23.0103 40.0388 22.6924 40.4288 22.4595C41.4284 21.8628 42.4678 21.1749 43.9918 20.2995C46.9331 18.61 50.6413 16.8642 54.3425 16.5717L54.1455 14.0794Z" fill="black" style="fill:black;fill-opacity:1;"/>
</svg>
