<svg width="108" height="108" viewBox="0 0 108 108" fill="none" xmlns="http://www.w3.org/2000/svg">
<path d="M65.0887 51.585C65.0887 51.585 67.5893 56.2867 71.3943 58.8619C75.1993 61.4371 80.601 60.6347 80.601 60.6347" stroke="black" style="stroke:black;stroke-opacity:1;" stroke-width="6" stroke-linecap="round"/>
<path d="M37.8768 104C37.8768 104 43.698 97.3052 45.1534 92.2844C46.6087 87.2635 45.7355 81.4421 45.7355 81.4421" stroke="black" style="stroke:black;stroke-opacity:1;" stroke-width="6" stroke-linecap="round"/>
<path d="M55.4159 101.089C55.4159 101.089 59.477 95.622 60.5071 91.3384C61.5371 87.0547 60.9482 83.3137 60.9482 83.3137" stroke="black" style="stroke:black;stroke-opacity:1;" stroke-width="6" stroke-linecap="round"/>
<path d="M42.8558 78.9625C39.0737 74.3529 39.97 52.8782 41.4442 49.1285C44.4666 41.4408 63.6705 45.0425 65.608 52.5447C66.7734 57.0571 67.7949 77.8397 64.958 80.3808C62.121 82.9219 46.6379 83.572 42.8558 78.9625Z" fill="white" stroke="black" style="fill:white;fill-opacity:1;stroke:black;stroke-opacity:1;" stroke-width="5"/>
<circle cx="55.4159" cy="33.7834" r="19.8442" fill="white" stroke="black" style="fill:white;fill-opacity:1;stroke:black;stroke-opacity:1;" stroke-width="5"/>
<circle cx="66.366" cy="32.3093" r="2.62701" transform="rotate(3.23906 66.366 32.3093)" fill="black" style="fill:black;fill-opacity:1;"/>
<circle cx="49.7496" cy="33.7665" r="2.77454" transform="rotate(3.23906 49.7496 33.7665)" fill="black" style="fill:black;fill-opacity:1;"/>
<path d="M56.913 4.85752C54.6723 5.06763 37.6199 17.634 36.9398 23.5455C36.7828 24.9094 45.1985 17.2424 54.3233 16.5198C63.4481 15.7971 69.2298 19.96 70.2221 19.4693C71.2143 18.9787 62.0097 4.37961 56.913 4.85752Z" fill="white" style="fill:white;fill-opacity:1;"/>
<path d="M36.9398 23.5455L34.4561 23.2597L34.4561 23.2597L36.9398 23.5455ZM56.913 4.85752L56.6796 2.36844L56.913 4.85752ZM70.2221 19.4693L69.1139 17.2284L69.1139 17.2284L70.2221 19.4693ZM54.3233 16.5198L54.1259 14.0276L54.3233 16.5198ZM36.9398 23.5455L39.4234 23.8312C39.4516 23.5859 39.6026 23.0916 40.0556 22.3224C40.4917 21.5818 41.123 20.728 41.9286 19.7904C43.5394 17.9156 45.6961 15.8796 47.9538 13.9739C50.204 12.0744 52.4959 10.3535 54.342 9.10645C55.268 8.48091 56.0523 7.99458 56.6445 7.66873C56.9424 7.50483 57.1595 7.39939 57.3013 7.33936C57.499 7.25572 57.405 7.32235 57.1464 7.3466L56.913 4.85752L56.6796 2.36844C56.141 2.41894 55.6512 2.60838 55.3525 2.73478C54.9981 2.8848 54.6184 3.07666 54.2342 3.28803C53.4624 3.71271 52.5415 4.28879 51.5431 4.96325C49.5404 6.31618 47.1066 8.1458 44.7286 10.1531C42.358 12.1542 39.9841 14.3813 38.1362 16.5319C37.2125 17.6069 36.3825 18.7064 35.7471 19.7853C35.1286 20.8356 34.598 22.0272 34.4561 23.2597L36.9398 23.5455ZM56.913 4.85752L57.1464 7.3466C57.1708 7.34431 57.4026 7.33941 57.9061 7.58135C58.3947 7.81617 58.9921 8.21333 59.6777 8.78713C61.0494 9.9352 62.5216 11.5759 63.8708 13.3264C65.2119 15.0664 66.3601 16.8218 67.098 18.136C67.4748 18.8071 67.7018 19.2876 67.8028 19.5576C67.8624 19.7168 67.8253 19.6643 67.806 19.4822C67.7971 19.3984 67.7699 19.1035 67.8748 18.7211C67.993 18.2906 68.3288 17.6166 69.1139 17.2284L70.2221 19.4693L71.3302 21.7103C72.1773 21.2914 72.5552 20.5592 72.6965 20.0447C72.8245 19.5783 72.8012 19.1736 72.7782 18.956C72.7306 18.5064 72.5925 18.0904 72.4854 17.8045C72.2531 17.184 71.8839 16.4471 71.4577 15.6881C70.5895 14.1418 69.3041 12.1854 67.831 10.2741C66.3659 8.3732 64.6434 6.42304 62.8868 4.95287C62.0082 4.21754 61.0581 3.54872 60.0717 3.07471C59.1002 2.60783 57.9294 2.25125 56.6796 2.36844L56.913 4.85752ZM70.2221 19.4693L69.1139 17.2284C69.5656 17.005 69.9481 17.0066 70.065 17.0106C70.2008 17.0152 70.2652 17.0358 70.2155 17.0238C70.1096 16.9982 69.8951 16.9291 69.4826 16.7739C68.7383 16.494 67.5241 15.9988 66.1017 15.5321C63.1905 14.5771 59.1196 13.6321 54.1259 14.0276L54.3233 16.5198L54.5207 19.012C58.6518 18.6848 62.0342 19.4599 64.5431 20.283C65.8307 20.7054 66.8183 21.1138 67.7223 21.4538C68.134 21.6086 68.6053 21.7786 69.0411 21.8839C69.2622 21.9373 69.5616 21.9964 69.8955 22.0077C70.2105 22.0184 70.7545 21.995 71.3302 21.7103L70.2221 19.4693ZM54.3233 16.5198L54.1259 14.0276C48.9967 14.4338 44.217 16.7614 40.9137 18.6427C39.3155 19.5528 37.7952 20.5223 37.0332 20.9733C36.5432 21.2633 36.4054 21.3176 36.4505 21.302C36.4819 21.2912 36.6 21.2513 36.7763 21.2272C36.9276 21.2065 37.3236 21.1674 37.8062 21.3298C38.3863 21.525 38.9294 21.962 39.2251 22.6113C39.4743 23.1584 39.4459 23.6354 39.4234 23.8312L36.9398 23.5455L34.4561 23.2597C34.4238 23.5408 34.4024 24.0854 34.6747 24.6835C34.9936 25.3837 35.5762 25.8549 36.2115 26.0687C36.7494 26.2497 37.2165 26.2135 37.454 26.181C37.7166 26.1451 37.9364 26.0787 38.0843 26.0276C38.5952 25.8509 39.1604 25.5244 39.5799 25.2762C40.6368 24.6506 41.7614 23.9139 43.3881 22.9875C46.5346 21.1955 50.5251 19.3284 54.5207 19.012L54.3233 16.5198Z" fill="black" style="fill:black;fill-opacity:1;"/>
<path d="M50.6168 41.4292C50.6168 41.4292 54.9124 41.9709 59.3826 41.9709C63.8527 41.9709 67.5882 41.4293 67.5882 41.4293" stroke="black" style="stroke:black;stroke-opacity:1;" stroke-width="6" stroke-linecap="round"/>
<path d="M54.0719 72.7172L58.8616 34.6991C58.9277 34.1749 59.3901 33.7925 59.9173 33.8261L82.5992 35.2707C83.2068 35.3094 83.6391 35.8773 83.5145 36.4732L81.7658 44.8397C81.7479 44.9252 81.7189 45.008 81.6795 45.086L80.5601 47.3019C80.4677 47.4848 80.4337 47.6917 80.4628 47.8946L80.7081 49.6066C80.7246 49.7219 80.7208 49.8391 80.697 49.953L75.87 73.0467C75.7732 73.5102 75.3646 73.8421 74.8912 73.8421L55.0641 73.8422C54.4622 73.8422 53.9967 73.3143 54.0719 72.7172Z" fill="white" stroke="black" style="fill:white;fill-opacity:1;stroke:black;stroke-opacity:1;" stroke-width="5" stroke-linecap="round"/>
<path d="M38.4022 56.4584C38.4022 56.4584 41.8394 60.5329 46.1228 62.2121C50.4063 63.8914 55.5653 61.8737 55.5653 61.8737" stroke="black" style="stroke:black;stroke-opacity:1;" stroke-width="7" stroke-linecap="round"/>
</svg>
