<svg width="108" height="108" viewBox="0 0 108 108" fill="none" xmlns="http://www.w3.org/2000/svg">
<path d="M65.6146 53.7521C68.8514 55.8325 73.413 60.9857 74.1733 66.8989" stroke="black" style="stroke:black;stroke-opacity:1;" stroke-width="6" stroke-linecap="round"/>
<path d="M48.4376 100.267C48.4376 100.267 47.0636 95.8756 46.7201 92.5821C46.3766 89.2887 46.5827 85.4702 46.5827 85.4702" stroke="black" style="stroke:black;stroke-opacity:1;" stroke-width="6" stroke-linecap="round"/>
<path d="M60.1818 101.42C60.1818 101.42 61.222 97.0898 61.4859 93.6972C61.7497 90.3046 61.5989 87.3418 61.5989 87.3418" stroke="black" style="stroke:black;stroke-opacity:1;" stroke-width="6" stroke-linecap="round"/>
<path d="M43.3818 82.9905C39.5997 78.381 40.496 56.9063 41.9702 53.1565C44.9926 45.4689 64.1965 49.0706 66.134 56.5728C67.2994 61.0851 68.3209 81.8677 65.484 84.4088C62.647 86.95 47.1639 87.6001 43.3818 82.9905Z" fill="white" stroke="black" style="fill:white;fill-opacity:1;stroke:black;stroke-opacity:1;" stroke-width="5"/>
<circle cx="55.9419" cy="37.8115" r="19.8442" fill="white" stroke="black" style="fill:white;fill-opacity:1;stroke:black;stroke-opacity:1;" stroke-width="5"/>
<path d="M38.9547 55.5009C38.9547 55.5009 36.4896 59.1794 34.9243 62.6311C33.3591 66.0828 33.2653 68.8938 33.2653 68.8938" stroke="black" style="stroke:black;stroke-opacity:1;" stroke-width="7" stroke-linecap="round"/>
<path d="M57.6214 7.69907C55.3807 7.90918 38.3283 20.4756 37.6481 26.387C37.4912 27.7509 45.9069 20.084 55.0317 19.3613C64.1565 18.6387 69.9382 22.8016 70.9304 22.3109C71.9227 21.8202 62.718 7.22117 57.6214 7.69907Z" fill="white" style="fill:white;fill-opacity:1;"/>
<path d="M37.6481 26.387L35.1645 26.1013L35.1645 26.1013L37.6481 26.387ZM57.6214 7.69907L57.388 5.20999L57.6214 7.69907ZM70.9304 22.3109L69.8222 20.0699L69.8222 20.0699L70.9304 22.3109ZM55.0317 19.3613L54.8343 16.8691L55.0317 19.3613ZM37.6481 26.387L40.1317 26.6728C40.16 26.4275 40.311 25.9332 40.764 25.164C41.2001 24.4234 41.8314 23.5696 42.637 22.6319C44.2478 20.7572 46.4045 18.7212 48.6621 16.8154C50.9124 14.9159 53.2043 13.1951 55.0504 11.948C55.9764 11.3225 56.7606 10.8361 57.3529 10.5103C57.6508 10.3464 57.8679 10.2409 58.0097 10.1809C58.2073 10.0973 58.1134 10.1639 57.8548 10.1882L57.6214 7.69907L57.388 5.20999C56.8494 5.2605 56.3596 5.44993 56.0609 5.57633C55.7064 5.72636 55.3268 5.91821 54.9426 6.12958C54.1707 6.55426 53.2499 7.13034 52.2515 7.80481C50.2487 9.15774 47.8149 10.9874 45.437 12.9947C43.0664 14.9957 40.6924 17.2228 38.8446 19.3734C37.9209 20.4485 37.0908 21.5479 36.4555 22.6268C35.837 23.6772 35.3063 24.8687 35.1645 26.1013L37.6481 26.387ZM57.6214 7.69907L57.8548 10.1882C57.8792 10.1859 58.111 10.181 58.6144 10.4229C59.1031 10.6577 59.7005 11.0549 60.3861 11.6287C61.7578 12.7768 63.23 14.4174 64.5791 16.1679C65.9202 17.908 67.0684 19.6634 67.8063 20.9776C68.1832 21.6487 68.4101 22.1292 68.5112 22.3991C68.5708 22.5584 68.5336 22.5059 68.5144 22.3238C68.5055 22.24 68.4782 21.945 68.5832 21.5627C68.7014 21.1322 69.0372 20.4581 69.8222 20.0699L70.9304 22.3109L72.0386 24.5519C72.8857 24.133 73.2636 23.4007 73.4048 22.8862C73.5328 22.4199 73.5096 22.0152 73.4866 21.7976C73.439 21.348 73.3008 20.932 73.1938 20.646C72.9615 20.0255 72.5923 19.2887 72.1661 18.5296C71.2979 16.9834 70.0125 15.0269 68.5394 13.1156C67.0743 11.2147 65.3517 9.26459 63.5952 7.79442C62.7166 7.0591 61.7665 6.39027 60.7801 5.91626C59.8086 5.44938 58.6378 5.0928 57.388 5.20999L57.6214 7.69907ZM70.9304 22.3109L69.8222 20.0699C70.274 19.8465 70.6565 19.8482 70.7733 19.8521C70.9091 19.8567 70.9736 19.8774 70.9239 19.8653C70.8179 19.8397 70.6035 19.7706 70.1909 19.6155C69.4466 19.3355 68.2325 18.8403 66.8101 18.3737C63.8988 17.4186 59.828 16.4737 54.8343 16.8691L55.0317 19.3613L55.2291 21.8535C59.3602 21.5264 62.7426 22.3015 65.2515 23.1246C66.5391 23.547 67.5267 23.9554 68.4307 24.2954C68.8423 24.4502 69.3136 24.6201 69.7494 24.7255C69.9706 24.7789 70.2699 24.8379 70.6039 24.8493C70.9189 24.8599 71.4628 24.8366 72.0386 24.5519L70.9304 22.3109ZM55.0317 19.3613L54.8343 16.8691C49.7051 17.2753 44.9254 19.603 41.6221 21.4842C40.0239 22.3944 38.5036 23.3639 37.7416 23.8148C37.2516 24.1049 37.1137 24.1592 37.1589 24.1436C37.1903 24.1327 37.3084 24.0929 37.4847 24.0687C37.6359 24.048 38.032 24.009 38.5146 24.1714C39.0946 24.3666 39.6378 24.8035 39.9335 25.4528C40.1827 26 40.1543 26.4769 40.1317 26.6728L37.6481 26.387L35.1645 26.1013C35.1322 26.3824 35.1107 26.9269 35.3831 27.525C35.702 28.2252 36.2846 28.6965 36.9199 28.9103C37.4578 29.0913 37.9248 29.0551 38.1624 29.0226C38.425 28.9867 38.6448 28.9203 38.7926 28.8691C39.3036 28.6925 39.8688 28.3659 40.2883 28.1177C41.3452 27.4922 42.4698 26.7554 44.0964 25.829C47.243 24.0371 51.2335 22.1699 55.2291 21.8535L55.0317 19.3613Z" fill="black" style="fill:black;fill-opacity:1;"/>
<path d="M48.6738 42.3267C48.6738 42.3267 49.8288 43.7894 51.4491 44.1565C53.0694 44.5236 54.4968 43.6459 54.4968 43.6459" stroke="black" style="stroke:black;stroke-opacity:1;" stroke-width="4" stroke-linecap="round"/>
<path d="M63.4446 43.7061C63.4446 43.7061 64.933 44.5425 66.5486 44.1429C68.1642 43.7434 69.2506 42.2701 69.2506 42.2701" stroke="black" style="stroke:black;stroke-opacity:1;" stroke-width="4" stroke-linecap="round"/>
<circle cx="59.7095" cy="49.1596" r="1.93228" fill="black" style="fill:black;fill-opacity:1;"/>
<path d="M82.0023 11.8623L88.0255 11.1453C88.8429 11.048 89.4212 11.9247 89.01 12.6377L84.8816 19.7979C84.4748 20.5035 85.037 21.3735 85.8474 21.2925L93.4369 20.5335" stroke="black" style="stroke:black;stroke-opacity:1;" stroke-width="5" stroke-linecap="round"/>
<path d="M93.437 4.46094L99.4602 3.74389C100.278 3.64659 100.856 4.52329 100.445 5.23638L96.3163 12.3966C95.9095 13.1022 96.4717 13.9721 97.2821 13.8911L104.872 13.1322" stroke="black" style="stroke:black;stroke-opacity:1;" stroke-width="5" stroke-linecap="round"/>
</svg>
