<svg width="108" height="108" viewBox="0 0 108 108" fill="none" xmlns="http://www.w3.org/2000/svg">
<path d="M65.3304 52.4409C65.3304 52.4409 66.1522 55.8524 69.3809 58.9177C72.6095 61.9829 75.8969 63.5156 75.8969 63.5156" stroke="black" style="stroke:black;stroke-opacity:1;" stroke-width="6" stroke-linecap="round"/>
<path d="M42.8558 78.9622C39.0737 74.3527 39.97 52.878 41.4442 49.1282C44.4666 41.4405 63.6705 45.0422 65.608 52.5445C66.7734 57.0568 67.7949 77.8394 64.958 80.3805C62.121 82.9216 46.6379 83.5718 42.8558 78.9622Z" fill="white" stroke="black" style="fill:white;fill-opacity:1;stroke:black;stroke-opacity:1;" stroke-width="5"/>
<circle cx="55.4159" cy="33.7832" r="19.8442" fill="white" stroke="black" style="fill:white;fill-opacity:1;stroke:black;stroke-opacity:1;" stroke-width="5"/>
<circle cx="62.3212" cy="26.9563" r="3.00928" fill="black" style="fill:black;fill-opacity:1;"/>
<circle cx="47.7234" cy="31.3422" r="3.21667" fill="black" style="fill:black;fill-opacity:1;"/>
<path d="M62.8797 39.2658C60.5706 39.5658 52.801 40.5877 52.801 40.755C52.801 40.9249 60.8154 40.5158 62.9839 40.402C63.287 40.386 63.5194 40.1358 63.5194 39.8323C63.5194 39.488 63.2212 39.2215 62.8797 39.2658Z" stroke="black" style="stroke:black;stroke-opacity:1;" stroke-width="5"/>
<path d="M55.4159 101.089C55.4159 101.089 59.477 95.6217 60.5071 91.3381C61.5371 87.0545 60.9482 83.3134 60.9482 83.3134" stroke="black" style="stroke:black;stroke-opacity:1;" stroke-width="6" stroke-linecap="round"/>
<path d="M37.8768 104C37.8768 104 43.698 97.305 45.1534 92.2841C46.6087 87.2632 45.7355 81.4419 45.7355 81.4419" stroke="black" style="stroke:black;stroke-opacity:1;" stroke-width="6" stroke-linecap="round"/>
<path d="M49.5842 3.98178C47.6469 4.59165 35.2415 19.7356 35.8999 25.5207C36.0518 26.8555 41.8618 17.9785 49.7792 15.6223C57.6966 13.2662 63.6981 16.1983 64.4712 15.5474C65.2444 14.8966 53.9906 2.59463 49.5842 3.98178Z" fill="white" style="fill:white;fill-opacity:1;"/>
<path d="M35.8999 25.5207L33.4159 25.8034L33.4159 25.8034L35.8999 25.5207ZM49.5842 3.98178L50.3349 6.36641L49.5842 3.98178ZM64.4712 15.5474L62.8612 13.6349L62.8612 13.6349L64.4712 15.5474ZM49.7792 15.6223L50.4922 18.0185L49.7792 15.6223ZM35.8999 25.5207L38.3838 25.238C38.3539 24.9748 38.3867 24.4645 38.6211 23.6533C38.8479 22.8684 39.2222 21.941 39.7322 20.9019C40.7523 18.8232 42.2199 16.4895 43.806 14.2595C45.3869 12.0367 47.0414 9.97854 48.4009 8.45619C49.0833 7.69204 49.666 7.09129 50.11 6.68091C50.3337 6.47415 50.4929 6.34292 50.5909 6.2704C50.743 6.15786 50.6288 6.27388 50.3349 6.36641L49.5842 3.98178L48.8335 1.59715C48.2974 1.76591 47.8593 2.07172 47.6172 2.25084C47.321 2.46997 47.0157 2.73229 46.716 3.00929C46.1133 3.56643 45.4142 4.29405 44.6715 5.1258C43.1806 6.79525 41.4117 8.99902 39.7314 11.3616C38.0562 13.7169 36.4248 16.292 35.2436 18.699C34.6529 19.9027 34.1508 21.1123 33.8177 22.2652C33.4921 23.3919 33.2813 24.6204 33.4159 25.8034L35.8999 25.5207ZM49.5842 3.98178L50.3349 6.36641C50.2466 6.3942 50.3679 6.32644 50.8433 6.46026C51.2977 6.58816 51.8946 6.85009 52.6197 7.27245C54.0682 8.11617 55.7165 9.41506 57.2844 10.8466C58.8413 12.2681 60.2323 13.7408 61.1672 14.8673C61.6439 15.4417 61.9507 15.8646 62.1019 16.1118C62.1897 16.2553 62.1534 16.2241 62.1036 16.0719C62.0815 16.0041 61.9994 15.7456 62.0101 15.3795C62.0216 14.9902 62.158 14.2269 62.8612 13.6349L64.4712 15.5474L66.0813 17.46C66.8328 16.8273 66.994 16.0005 67.008 15.5266C67.0212 15.0759 66.9193 14.7115 66.8561 14.5182C66.7243 14.115 66.5211 13.7541 66.3666 13.5017C66.0332 12.9569 65.5531 12.3228 65.0147 11.674C63.9193 10.3542 62.3664 8.71605 60.6557 7.15415C58.956 5.60221 57.0129 4.04502 55.1363 2.95192C54.1988 2.40587 53.1996 1.92921 52.1981 1.64731C51.2177 1.37133 50.0234 1.22257 48.8335 1.59715L49.5842 3.98178ZM64.4712 15.5474L62.8612 13.6349C63.2856 13.2776 63.7054 13.1888 63.8514 13.1642C64.0139 13.1369 64.1073 13.1461 64.0735 13.1443C63.9999 13.1405 63.815 13.1174 63.416 13.0438C62.7093 12.9136 61.5137 12.6577 60.1463 12.4689C57.3402 12.0814 53.4762 11.9138 49.0661 13.2262L49.7792 15.6223L50.4922 18.0185C53.9996 16.9747 57.0951 17.095 59.4624 17.4219C60.6816 17.5903 61.6262 17.7981 62.5097 17.961C62.9057 18.034 63.3784 18.1148 63.8119 18.1375C64.0317 18.149 64.341 18.1521 64.6802 18.0951C65.003 18.0408 65.5602 17.8986 66.0813 17.46L64.4712 15.5474ZM49.7792 15.6223L49.0661 13.2262C44.5153 14.5804 40.7271 17.7386 38.2022 20.1463C36.9839 21.308 35.8239 22.5352 35.2623 23.0899C34.8846 23.4631 34.8009 23.5117 34.8777 23.4631C34.9163 23.4386 35.0397 23.3625 35.2288 23.2932C35.3964 23.2318 35.8112 23.1021 36.3556 23.1817C37.006 23.2768 37.594 23.6365 37.9745 24.1769C38.2933 24.6294 38.3637 25.0607 38.3838 25.238L35.8999 25.5207L33.4159 25.8034C33.4456 26.0641 33.5365 26.5589 33.8866 27.056C34.2986 27.6409 34.9287 28.0262 35.632 28.1291C36.2292 28.2164 36.7075 28.0765 36.9489 27.9881C37.2118 27.8917 37.4195 27.7717 37.5526 27.6874C38.0071 27.3996 38.4641 26.9553 38.7761 26.6471C39.594 25.8392 40.4098 24.9501 41.6527 23.7649C44.0501 21.4788 47.1256 19.0203 50.4922 18.0185L49.7792 15.6223Z" fill="black" style="fill:black;fill-opacity:1;"/>
<path d="M38.7031 51.8276C38.7031 51.8276 43.0099 51.5883 48.0345 50.392C53.0591 49.1956 55.9302 45.5269 55.9302 45.5269" stroke="black" style="stroke:black;stroke-opacity:1;" stroke-width="7" stroke-linecap="round"/>
</svg>
