<svg width="108" height="108" viewBox="0 0 108 108" fill="none" xmlns="http://www.w3.org/2000/svg">
<path d="M59.6873 102.885C59.6873 102.885 59.1467 97.183 59.3962 92.212C59.6457 87.241 60.5079 83.1487 60.5079 83.1487" stroke="black" style="stroke:black;stroke-opacity:1;" stroke-width="6" stroke-linecap="round"/>
<path d="M42.8558 78.9622C39.0737 74.3527 39.97 52.878 41.4442 49.1282C44.4666 41.4405 63.6705 45.0422 65.608 52.5445C66.7734 57.0568 67.7949 77.8394 64.958 80.3805C62.121 82.9216 46.6379 83.5718 42.8558 78.9622Z" fill="white" stroke="black" style="fill:white;fill-opacity:1;stroke:black;stroke-opacity:1;" stroke-width="5"/>
<circle cx="55.4159" cy="33.7832" r="19.8442" fill="white" stroke="black" style="fill:white;fill-opacity:1;stroke:black;stroke-opacity:1;" stroke-width="5"/>
<circle cx="64.6328" cy="29.0855" r="2.62701" transform="rotate(3.23906 64.6328 29.0855)" fill="black" style="fill:black;fill-opacity:1;"/>
<path d="M51.9556 31.2173C51.869 32.7472 50.5586 33.9172 49.0287 33.8306C47.4988 33.744 46.3288 32.4336 46.4154 30.9037C46.502 29.3738 47.8124 28.2038 49.3423 28.2904C50.8721 28.377 52.0422 29.6874 51.9556 31.2173Z" fill="black" style="fill:black;fill-opacity:1;"/>
<path d="M66.643 38.4563L64.6464 40.5638C63.9307 41.3192 64.7013 42.5293 65.6886 42.2002L66.643 41.8821" stroke="black" style="stroke:black;stroke-opacity:1;" stroke-width="5" stroke-linecap="round"/>
<path d="M56.5615 3.05091C54.4626 3.24772 38.4994 15.119 37.8674 20.7098C37.7215 21.9997 45.5984 14.7551 54.1456 14.0794C62.6927 13.4038 68.1123 17.3462 69.0414 16.883C69.9705 16.4197 61.3354 2.60327 56.5615 3.05091Z" fill="white" style="fill:white;fill-opacity:1;"/>
<path d="M37.8674 20.7098L35.3832 20.4289L35.3832 20.4289L37.8674 20.7098ZM56.5615 3.05091L56.3281 0.56183L56.5615 3.05091ZM69.0414 16.883L67.9258 14.6457L67.9258 14.6457L69.0414 16.883ZM54.1456 14.0794L53.9485 11.5872L53.9485 11.5872L54.1456 14.0794ZM37.8674 20.7098L40.3516 20.9906C40.3752 20.7815 40.5073 20.3313 40.9261 19.6124C41.3287 18.9216 41.9137 18.1215 42.664 17.2395C44.1643 15.476 46.1762 13.558 48.2858 11.7605C50.388 9.96928 52.5289 8.34715 54.252 7.17271C55.1165 6.58345 55.8462 6.12718 56.3946 5.82288C56.6705 5.66974 56.8682 5.57322 56.9935 5.51975C57.1753 5.44222 57.0662 5.51455 56.7949 5.53999L56.5615 3.05091L56.3281 0.56183C55.7944 0.611873 55.3146 0.800016 55.0317 0.920725C54.6923 1.0655 54.3311 1.24968 53.9685 1.45089C53.2397 1.85531 52.373 2.40245 51.4359 3.04116C49.5558 4.32264 47.2729 6.05466 45.043 7.95469C42.8204 9.84848 40.5918 11.9588 38.8556 13.9997C37.9877 15.02 37.2056 16.0661 36.6059 17.0954C36.0226 18.0966 35.5176 19.2403 35.3832 20.4289L37.8674 20.7098ZM56.5615 3.05091L56.7949 5.53999C56.7728 5.54206 56.9566 5.52416 57.4138 5.74632C57.8557 5.96106 58.4048 6.32866 59.0421 6.8674C60.3171 7.94517 61.6907 9.48962 62.9532 11.1427C64.2076 12.7852 65.2812 14.4414 65.9704 15.6794C66.3227 16.3123 66.5324 16.7608 66.6243 17.008C66.6791 17.1556 66.6404 17.0955 66.6207 16.9092C66.6116 16.8235 66.5846 16.5287 66.6879 16.1473C66.8036 15.7206 67.1357 15.0397 67.9258 14.6457L69.0414 16.883L70.157 19.1203C71.0052 18.6973 71.3767 17.9614 71.5139 17.4552C71.6387 16.9944 71.6154 16.5958 71.593 16.3836C71.5465 15.9442 71.4128 15.5401 71.3112 15.2665C71.09 14.6712 70.7402 13.9679 70.339 13.2473C69.5212 11.7783 68.3119 9.92159 66.9269 8.108C65.55 6.30503 63.9278 4.45035 62.2701 3.04895C61.441 2.34812 60.5395 1.70613 59.5991 1.24915C58.6739 0.799591 57.5436 0.447851 56.3281 0.56183L56.5615 3.05091ZM69.0414 16.883L67.9258 14.6457C68.3853 14.4166 68.7772 14.4175 68.9027 14.422C69.047 14.427 69.1204 14.4495 69.0798 14.4395C68.9919 14.418 68.7998 14.356 68.4131 14.2088C67.7211 13.9455 66.5756 13.4731 65.2381 13.029C62.4966 12.1186 58.6577 11.215 53.9485 11.5872L54.1456 14.0794L54.3426 16.5717C58.1806 16.2683 61.325 16.998 63.6624 17.7742C64.8644 18.1733 65.7822 18.5574 66.6347 18.8819C67.0203 19.0286 67.4708 19.1933 67.8906 19.2961C68.1037 19.3483 68.3972 19.4073 68.7271 19.4189C69.0382 19.4298 69.5814 19.4073 70.157 19.1203L69.0414 16.883ZM54.1456 14.0794L53.9485 11.5872C49.1026 11.9703 44.5989 14.1846 41.5014 15.9639C40.006 16.8229 38.5693 17.7464 37.8659 18.1664C37.4044 18.4419 37.2902 18.4836 37.3522 18.462C37.3879 18.4496 37.5108 18.408 37.6919 18.3832C37.8483 18.3617 38.2504 18.3226 38.7382 18.4888C39.3243 18.6884 39.8635 19.1309 40.1553 19.7769C40.4011 20.321 40.3737 20.7947 40.3516 20.9906L37.8674 20.7098L35.3832 20.4289C35.3519 20.7054 35.3311 21.2431 35.5987 21.8354C35.9123 22.5296 36.4884 23.0046 37.1263 23.2218C37.6659 23.4056 38.1346 23.3693 38.3717 23.3368C38.6337 23.3008 38.8518 23.2343 38.9966 23.1838C39.4948 23.0103 40.0388 22.6924 40.4289 22.4595C41.4284 21.8628 42.4678 21.1749 43.9918 20.2995C46.9331 18.61 50.6414 16.8643 54.3426 16.5717L54.1456 14.0794Z" fill="black" style="fill:black;fill-opacity:1;"/>
<path d="M85.5242 24.4624L83.4059 8.64603C83.3415 8.1654 83.6313 7.70785 84.0933 7.56054L92.4138 4.90758C93.0066 4.71858 93.6262 5.11098 93.7088 5.72765L96.0773 23.4219" stroke="black" style="stroke:black;stroke-opacity:1;" stroke-width="5" stroke-linecap="round"/>
<circle cx="84.4837" cy="26.3945" r="4.1618" fill="black" style="fill:black;fill-opacity:1;"/>
<circle cx="94.5909" cy="24.4621" r="4.1618" fill="black" style="fill:black;fill-opacity:1;"/>
<path d="M39.9748 54.8145C39.9748 54.8145 30.065 77.9645 52.5691 70.1016" stroke="black" style="stroke:black;stroke-opacity:1;" stroke-width="6" stroke-linecap="round"/>
<path d="M66.7934 54.0405C66.7934 54.0405 78.598 76.88 59.7542 69.9661" stroke="black" style="stroke:black;stroke-opacity:1;" stroke-width="6" stroke-linecap="round"/>
<path d="M46.8016 102.696C49.4382 88.6889 49.0265 87.0369 48.2847 82.5915" stroke="black" style="stroke:black;stroke-opacity:1;" stroke-width="6" stroke-linecap="round"/>
</svg>
