<svg width="108" height="108" viewBox="0 0 108 108" fill="none" xmlns="http://www.w3.org/2000/svg">
<path d="M65.0887 51.5848C65.0887 51.5848 67.5893 56.2864 71.3943 58.8616C75.1993 61.4369 80.601 60.6345 80.601 60.6345" stroke="black" style="stroke:black;stroke-opacity:1;" stroke-width="6" stroke-linecap="round"/>
<path d="M37.8768 104C37.8768 104 43.698 97.305 45.1534 92.2841C46.6087 87.2632 45.7355 81.4419 45.7355 81.4419" stroke="black" style="stroke:black;stroke-opacity:1;" stroke-width="6" stroke-linecap="round"/>
<path d="M55.4159 101.089C55.4159 101.089 59.477 95.6217 60.5071 91.3381C61.5371 87.0545 60.9482 83.3134 60.9482 83.3134" stroke="black" style="stroke:black;stroke-opacity:1;" stroke-width="6" stroke-linecap="round"/>
<path d="M42.8558 78.9622C39.0737 74.3527 39.97 52.878 41.4442 49.1282C44.4666 41.4405 63.6705 45.0422 65.608 52.5445C66.7734 57.0568 67.7949 77.8394 64.958 80.3805C62.121 82.9216 46.6379 83.5718 42.8558 78.9622Z" fill="white" stroke="black" style="fill:white;fill-opacity:1;stroke:black;stroke-opacity:1;" stroke-width="5"/>
<circle cx="58.2658" cy="36.4192" r="19.8442" fill="white" stroke="black" style="fill:white;fill-opacity:1;stroke:black;stroke-opacity:1;" stroke-width="5"/>
<circle cx="69.216" cy="34.9451" r="2.62701" transform="rotate(3.23906 69.216 34.9451)" fill="black" style="fill:black;fill-opacity:1;"/>
<circle cx="56.4075" cy="36.2562" r="2.77454" transform="rotate(3.23906 56.4075 36.2562)" fill="black" style="fill:black;fill-opacity:1;"/>
<path d="M59.763 7.49326C57.5223 7.70337 40.4699 20.2698 39.7897 26.1812C39.6328 27.5451 48.0485 19.8781 57.1733 19.1555C66.2981 18.4329 72.0798 22.5958 73.072 22.1051C74.0643 21.6144 64.8596 7.01535 59.763 7.49326Z" fill="white" style="fill:white;fill-opacity:1;"/>
<path d="M39.7897 26.1812L37.3061 25.8955L37.3061 25.8955L39.7897 26.1812ZM59.763 7.49326L59.5296 5.00418L59.763 7.49326ZM73.072 22.1051L71.9638 19.8641L71.9638 19.8641L73.072 22.1051ZM57.1733 19.1555L56.9759 16.6633L57.1733 19.1555ZM39.7897 26.1812L42.2733 26.467C42.3016 26.2217 42.4526 25.7274 42.9056 24.9582C43.3417 24.2175 43.973 23.3638 44.7786 22.4261C46.3894 20.5514 48.5461 18.5154 50.8037 16.6096C53.054 14.7101 55.3459 12.9893 57.192 11.7422C58.118 11.1166 58.9022 10.6303 59.4945 10.3045C59.7924 10.1406 60.0095 10.0351 60.1513 9.97511C60.3489 9.89146 60.255 9.95809 59.9964 9.98234L59.763 7.49326L59.5296 5.00418C58.991 5.05469 58.5012 5.24412 58.2025 5.37052C57.848 5.52054 57.4684 5.7124 57.0842 5.92377C56.3123 6.34845 55.3915 6.92453 54.3931 7.599C52.3903 8.95193 49.9565 10.7815 47.5786 12.7889C45.208 14.7899 42.834 17.017 40.9862 19.1676C40.0625 20.2427 39.2324 21.3421 38.5971 22.421C37.9786 23.4714 37.4479 24.6629 37.3061 25.8955L39.7897 26.1812ZM59.763 7.49326L59.9964 9.98234C60.0208 9.98005 60.2526 9.97515 60.756 10.2171C61.2447 10.4519 61.8421 10.8491 62.5277 11.4229C63.8994 12.5709 65.3716 14.2116 66.7207 15.9621C68.0618 17.7022 69.2101 19.4576 69.9479 20.7718C70.3248 21.4429 70.5517 21.9234 70.6528 22.1933C70.7124 22.3526 70.6752 22.3001 70.656 22.118C70.6471 22.0342 70.6199 21.7392 70.7248 21.3569C70.843 20.9264 71.1788 20.2523 71.9638 19.8641L73.072 22.1051L74.1802 24.3461C75.0273 23.9272 75.4052 23.1949 75.5464 22.6804C75.6744 22.2141 75.6512 21.8093 75.6282 21.5918C75.5806 21.1421 75.4424 20.7262 75.3354 20.4402C75.1031 19.8197 74.7339 19.0829 74.3077 18.3238C73.4395 16.7776 72.1541 14.8211 70.681 12.9098C69.2159 11.0089 67.4934 9.05878 65.7368 7.58861C64.8582 6.85329 63.9081 6.18446 62.9217 5.71045C61.9502 5.24357 60.7794 4.88699 59.5296 5.00418L59.763 7.49326ZM73.072 22.1051L71.9638 19.8641C72.4156 19.6407 72.7981 19.6424 72.9149 19.6463C73.0507 19.6509 73.1152 19.6716 73.0655 19.6595C72.9595 19.6339 72.7451 19.5648 72.3325 19.4096C71.5882 19.1297 70.3741 18.6345 68.9517 18.1679C66.0405 17.2128 61.9696 16.2678 56.9759 16.6633L57.1733 19.1555L57.3707 21.6477C61.5018 21.3206 64.8842 22.0957 67.3931 22.9188C68.6807 23.3412 69.6683 23.7495 70.5723 24.0896C70.9839 24.2444 71.4552 24.4143 71.891 24.5196C72.1122 24.5731 72.4115 24.6321 72.7455 24.6434C73.0605 24.6541 73.6044 24.6308 74.1802 24.346L73.072 22.1051ZM57.1733 19.1555L56.9759 16.6633C51.8467 17.0695 47.067 19.3972 43.7637 21.2784C42.1655 22.1886 40.6452 23.158 39.8832 23.609C39.3932 23.8991 39.2553 23.9534 39.3005 23.9378C39.3319 23.9269 39.45 23.887 39.6263 23.8629C39.7775 23.8422 40.1736 23.8032 40.6562 23.9656C41.2362 24.1608 41.7794 24.5977 42.0751 25.247C42.3243 25.7942 42.2959 26.2711 42.2733 26.467L39.7897 26.1812L37.3061 25.8955C37.2738 26.1766 37.2523 26.7211 37.5247 27.3192C37.8436 28.0194 38.4262 28.4907 39.0615 28.7045C39.5994 28.8854 40.0664 28.8493 40.304 28.8168C40.5666 28.7809 40.7864 28.7144 40.9342 28.6633C41.4452 28.4867 42.0104 28.1601 42.4299 27.9119C43.4868 27.2863 44.6114 26.5496 46.238 25.6232C49.3846 23.8313 53.3751 21.9641 57.3707 21.6477L57.1733 19.1555Z" fill="black" style="fill:black;fill-opacity:1;"/>
<path d="M49.534 71.7667L62.8736 35.9497C63.0491 35.4786 63.5469 35.211 64.0366 35.3246L85.7393 40.3574C86.3687 40.5034 86.6965 41.1988 86.4086 41.7772L82.0187 50.5956C81.9835 50.6664 81.9399 50.7328 81.889 50.7934L80.2836 52.7034C80.1517 52.8603 80.0712 53.0539 80.053 53.258L79.8992 54.9837C79.889 55.0977 79.8594 55.2091 79.8115 55.3131L70.958 74.5413C70.7792 74.9297 70.3731 75.1615 69.9477 75.1178L50.3691 73.1105C49.7181 73.0437 49.3056 72.3799 49.534 71.7667Z" fill="white" stroke="black" style="fill:white;fill-opacity:1;stroke:black;stroke-opacity:1;" stroke-width="5" stroke-linecap="round"/>
<path d="M39.4108 55.2593C39.4108 55.2593 40.5712 59.8951 46.027 59.8951C51.4828 59.8951 54.9901 51.5817 54.9901 51.5817" stroke="black" style="stroke:black;stroke-opacity:1;" stroke-width="7" stroke-linecap="round"/>
<path d="M47.0319 42.5432L56.5813 51.2944" stroke="black" style="stroke:black;stroke-opacity:1;" stroke-width="4" stroke-linecap="round"/>
</svg>
