<svg width="15" height="15" viewBox="0 0 15 15" fill="none" xmlns="http://www.w3.org/2000/svg">
<path fill-rule="evenodd" clip-rule="evenodd" d="M7.49933 0.249978C3.49635 0.249978 0.25 3.49591 0.25 7.50022C0.25 10.703 2.32715 13.4206 5.2081 14.3797C5.57084 14.446 5.70302 14.2221 5.70302 14.0299C5.70302 13.8576 5.69679 13.4019 5.69323 12.797C3.67661 13.235 3.25112 11.825 3.25112 11.825C2.92132 10.9874 2.44599 10.7644 2.44599 10.7644C1.78773 10.3148 2.49584 10.3238 2.49584 10.3238C3.22353 10.3749 3.60629 11.071 3.60629 11.071C4.25298 12.1788 5.30335 11.8588 5.71638 11.6732C5.78225 11.205 5.96962 10.8854 6.17658 10.7043C4.56675 10.5209 2.87415 9.89915 2.87415 7.12102C2.87415 6.32923 3.15677 5.68254 3.62053 5.17561C3.54576 4.99224 3.29697 4.25518 3.69174 3.25689C3.69174 3.25689 4.30015 3.06194 5.68522 3.99971C6.26337 3.83904 6.8838 3.75893 7.50022 3.75581C8.1162 3.75893 8.73619 3.83904 9.31523 3.99971C10.6994 3.06194 11.3069 3.25689 11.3069 3.25689C11.7026 4.25518 11.4538 4.99224 11.3795 5.17561C11.8441 5.68254 12.1245 6.32923 12.1245 7.12102C12.1245 9.90628 10.4292 10.5191 8.81452 10.6985C9.07444 10.9224 9.30633 11.3648 9.30633 12.0413C9.30633 13.0102 9.29742 13.7922 9.29742 14.0299C9.29742 14.2239 9.42828 14.4496 9.79591 14.3788C12.6746 13.4179 14.75 10.7025 14.75 7.50022C14.75 3.49591 11.5036 0.249978 7.49933 0.249978" fill="#2D2D2D"/>
</svg>
