<svg width="15" height="15" viewBox="0 0 15 15" fill="none" xmlns="http://www.w3.org/2000/svg">
<path fill-rule="evenodd" clip-rule="evenodd" d="M7.23347 4.69633C7.23347 2.96887 8.63346 1.5686 10.3601 1.5686C12.3031 1.5686 13.4957 3.33048 13.4957 5.00083C13.4957 8.68713 10.6874 12.9746 5.52134 12.9746C3.93917 12.9746 2.46555 12.5111 1.22516 11.7152C1.02917 11.5895 0.945933 11.3451 1.02444 11.1258C1.10294 10.9066 1.3224 10.7706 1.55367 10.7978C1.74004 10.8198 1.92971 10.831 2.12221 10.831C2.82595 10.831 3.49398 10.6795 4.09587 10.4071C3.31987 10.0395 2.71968 9.36178 2.45469 8.53509C2.40426 8.37777 2.43497 8.20646 2.53511 8.07684C1.90532 7.50479 1.51 6.67941 1.51 5.76151V5.72768C1.51 5.55051 1.60376 5.38656 1.75646 5.29673C1.78736 5.27855 1.81973 5.26396 1.85301 5.25295C1.64719 4.83575 1.53143 4.366 1.53143 3.86966C1.53143 3.29809 1.68595 2.76085 1.95411 2.29827C2.03647 2.1562 2.18333 2.06363 2.34703 2.05061C2.51073 2.03759 2.67039 2.10578 2.77417 2.23305C3.86547 3.57129 5.44077 4.49586 7.23377 4.73964C7.23357 4.72523 7.23347 4.71079 7.23347 4.69633ZM2.63816 6.49033C2.88893 7.17798 3.48434 7.70032 4.21566 7.84714C4.44315 7.8928 4.60933 8.08897 4.61698 8.32087C4.62463 8.55276 4.47175 8.75946 4.24777 8.82002C4.09338 8.86177 3.93479 8.89191 3.77291 8.90972C4.15542 9.38625 4.73894 9.6946 5.3937 9.70616C5.60531 9.7099 5.79165 9.84646 5.85893 10.0471C5.92622 10.2478 5.85988 10.4691 5.69329 10.5996C5.05138 11.1027 4.3004 11.4734 3.48222 11.6703C4.12699 11.8681 4.81144 11.9746 5.52134 11.9746C10.0203 11.9746 12.4957 8.25712 12.4957 5.00083C12.4957 3.71212 11.5944 2.5686 10.3601 2.5686C9.18603 2.5686 8.23347 3.52088 8.23347 4.69633C8.23347 4.86287 8.25266 5.0252 8.28862 5.18287C8.32343 5.33551 8.28474 5.49565 8.18406 5.61556C8.08339 5.73546 7.93236 5.80129 7.776 5.79342C5.74502 5.69116 3.91635 4.83008 2.5654 3.48932C2.54308 3.61278 2.53143 3.73987 2.53143 3.86966C2.53143 4.60737 2.90661 5.25897 3.47769 5.64076C3.66328 5.76483 3.74413 5.9969 3.67582 6.20943C3.6075 6.42196 3.40657 6.56346 3.18345 6.55616C2.99723 6.55006 2.81498 6.52765 2.63816 6.49033Z" fill="#2D2D2D"/>
<path d="M13.1965 3.56882C13.7282 3.5051 14.234 3.36413 14.7049 3.15549L14.7038 3.15718C14.3525 3.68329 13.907 4.14511 13.3939 4.51615L12.6833 2.75231C13.2816 2.63502 13.8438 2.41623 14.3513 2.11511C14.1551 2.72862 13.7389 3.24402 13.1965 3.56882Z" fill="#2D2D2D"/>
</svg>
