<svg xmlns="http://www.w3.org/2000/svg" width="15" height="15" fill="none"><path fill="#000" fill-rule="evenodd" d="M3.705 5a.5.5 0 0 0-.5.5v6a.5.5 0 0 0 .5.5h8a.5.5 0 0 0 .5-.5v-6a.5.5 0 0 0-.5-.5h-1.25a.5.5 0 1 1 0-1h1.25a1.5 1.5 0 0 1 1.5 1.5v6a1.5 1.5 0 0 1-1.5 1.5h-8a1.5 1.5 0 0 1-1.5-1.5v-6a1.5 1.5 0 0 1 1.5-1.5h1.25a.5.5 0 0 1 0 1zm3.5-3.364L5.773 3.068a.45.45 0 0 1-.636-.636l2.25-2.25a.45.45 0 0 1 .636 0l2.25 2.25a.45.45 0 0 1-.636.636L8.205 1.636V8.5a.5.5 0 0 1-1 0z" clip-rule="evenodd"/></svg>