<svg width="16" height="15" viewBox="0 0 16 15" fill="none" xmlns="http://www.w3.org/2000/svg">
<path d="M5.40262 11.956L5.40262 11.956C5.65444 12.192 6.04996 12.1793 6.28604 11.9275C6.28604 11.9275 6.28604 11.9275 6.28604 11.9275L10.0361 7.92746L10.0361 7.92746C10.2614 7.68705 10.2614 7.31295 10.0361 7.07254L9.94488 7.15803L10.0361 7.07254L6.28604 3.07251L6.28603 3.07249C6.04995 2.82074 5.65445 2.808 5.40263 3.04399L5.40261 3.04401C5.15079 3.28013 5.13805 3.67562 5.37411 3.92748L5.37412 3.92749L8.72338 7.5L5.37412 11.0725C5.13804 11.3243 5.15079 11.7199 5.40262 11.956Z" fill="black" stroke="black" stroke-width="0.25"/>
</svg>
