<svg width="16" height="15" viewBox="0 0 16 15" fill="none" xmlns="http://www.w3.org/2000/svg">
<g clip-path="url(#clip0_105_9199)">
<path d="M7.42808 0.665979C7.53056 0.419591 7.8796 0.419591 7.98207 0.665979L9.61848 4.60038C9.66169 4.70425 9.75937 4.77522 9.87151 4.78421L14.119 5.12473C14.385 5.14606 14.4929 5.47801 14.2902 5.65161L11.0541 8.42373C10.9686 8.49691 10.9313 8.61174 10.9574 8.72117L11.9461 12.866C12.008 13.1256 11.7257 13.3307 11.4979 13.1917L7.86145 10.9705C7.76545 10.9119 7.64471 10.9119 7.5487 10.9705L3.91224 13.1917C3.68451 13.3307 3.40213 13.1256 3.46405 12.866L4.45275 8.72117C4.47885 8.61174 4.44154 8.49691 4.3561 8.42373L1.11994 5.65161C0.91728 5.47801 1.02514 5.14606 1.29113 5.12473L5.53865 4.78421C5.65079 4.77522 5.74847 4.70425 5.79167 4.60038L7.42808 0.665979Z" fill="black"/>
</g>
<defs>
<clipPath id="clip0_105_9199">
<rect width="15" height="15" fill="white" transform="translate(0.205078)"/>
</clipPath>
</defs>
</svg>
