<svg width="16" height="15" viewBox="0 0 16 15" fill="none" xmlns="http://www.w3.org/2000/svg">
<path d="M11.71 8.5C11.436 8.5 11.2004 8.40309 11.0033 8.20927C10.8061 8.01211 10.7075 7.77485 10.7075 7.49749C10.7075 7.22348 10.8061 6.98956 11.0033 6.79574C11.2004 6.59858 11.436 6.5 11.71 6.5C11.984 6.5 12.2196 6.59858 12.4168 6.79574C12.614 6.98956 12.7125 7.22348 12.7125 7.49749C12.7125 7.68129 12.6657 7.85004 12.5722 8.00376C12.482 8.15414 12.3617 8.27444 12.2113 8.36466C12.0609 8.45489 11.8938 8.5 11.71 8.5Z" fill="black"/>
<path d="M7.70465 8.5C7.43064 8.5 7.19505 8.40309 6.99789 8.20927C6.80073 8.01211 6.70215 7.77485 6.70215 7.49749C6.70215 7.22348 6.80073 6.98956 6.99789 6.79574C7.19505 6.59858 7.43064 6.5 7.70465 6.5C7.97867 6.5 8.21426 6.59858 8.41142 6.79574C8.60858 6.98956 8.70716 7.22348 8.70716 7.49749C8.70716 7.68129 8.66038 7.85004 8.56681 8.00376C8.47658 8.15414 8.35628 8.27444 8.20591 8.36466C8.05553 8.45489 7.88845 8.5 7.70465 8.5Z" fill="black"/>
<path d="M3.69977 8.5C3.42575 8.5 3.19016 8.40309 2.993 8.20927C2.79585 8.01211 2.69727 7.77485 2.69727 7.49749C2.69727 7.22348 2.79585 6.98956 2.993 6.79574C3.19016 6.59858 3.42575 6.5 3.69977 6.5C3.97379 6.5 4.20938 6.59858 4.40654 6.79574C4.6037 6.98956 4.70228 7.22348 4.70228 7.49749C4.70228 7.68129 4.65549 7.85004 4.56193 8.00376C4.4717 8.15414 4.3514 8.27444 4.20102 8.36466C4.05065 8.45489 3.88356 8.5 3.69977 8.5Z" fill="black"/>
</svg>
