<svg width="16" height="15" viewBox="0 0 16 15" fill="none" xmlns="http://www.w3.org/2000/svg">
<g clip-path="url(#clip0_113_8701)">
<path fill-rule="evenodd" clip-rule="evenodd" d="M7.42718 4.03012C7.47426 2.91201 8.39561 2.01999 9.5253 2.01999C10.6851 2.01999 11.6253 2.96019 11.6253 4.11999C11.6253 5.27979 10.6851 6.22 9.5253 6.22C9.318 6.22 9.11831 6.1901 8.92996 6.13455C8.75786 5.23412 8.19624 4.47195 7.42718 4.03012ZM6.45733 3.67269C6.67412 2.17255 7.96511 1.01999 9.5253 1.01999C11.2374 1.01999 12.6253 2.40791 12.6253 4.11999C12.6253 5.83208 11.2374 7.22 9.5253 7.22C9.33005 7.22 9.13877 7.20189 8.95314 7.16721C8.73638 8.66739 7.44537 9.82 5.88516 9.82C4.17308 9.82 2.78516 8.43208 2.78516 6.72C2.78516 5.00791 4.17308 3.62 5.88516 3.62C6.08064 3.62 6.27188 3.63809 6.45733 3.67269ZM3.78516 6.72C3.78516 5.5602 4.72536 4.62 5.88516 4.62C7.04496 4.62 7.98516 5.5602 7.98516 6.72C7.98516 7.8798 7.04496 8.82 5.88516 8.82C4.72536 8.82 3.78516 7.8798 3.78516 6.72Z" fill="black"/>
<path d="M14.2053 10.88C14.2053 8.58247 12.11 6.71997 9.52534 6.71997C9.1679 6.71997 8.81982 6.75559 8.48535 6.82305" stroke="black" stroke-linecap="round"/>
<path d="M10.5651 13.48C10.5651 11.1825 8.46978 9.31998 5.88508 9.31998C3.30039 9.31998 1.20508 11.1825 1.20508 13.48" stroke="black" stroke-linecap="round"/>
</g>
<defs>
<clipPath id="clip0_113_8701">
<rect width="15" height="15" fill="white" transform="translate(0.205078)"/>
</clipPath>
</defs>
</svg>
