<svg width="16" height="15" viewBox="0 0 16 15" fill="none" xmlns="http://www.w3.org/2000/svg">
<path d="M3.24912 5.19754L3.24912 5.19754C3.01305 5.44936 3.02579 5.84488 3.27762 6.08096C3.27762 6.08096 3.27762 6.08096 3.27762 6.08097L7.27762 9.83099L7.27762 9.831C7.51803 10.0564 7.89213 10.0564 8.13254 9.831L8.04705 9.7398L8.13254 9.83099L12.1326 6.08096L12.1326 6.08095C12.3843 5.84488 12.3971 5.44937 12.1611 5.19756L12.1611 5.19753C11.9249 4.94571 11.5295 4.93297 11.2776 5.16903L11.2776 5.16904L7.70508 8.5183L4.13254 5.16904C3.88073 4.93296 3.4852 4.94571 3.24912 5.19754Z" fill="black" stroke="black" stroke-width="0.25"/>
</svg>
