<svg width="16" height="15" viewBox="0 0 16 15" fill="none" xmlns="http://www.w3.org/2000/svg">
<g clip-path="url(#clip0_85_8751)">
<path fill-rule="evenodd" clip-rule="evenodd" d="M11.8515 0.64645C12.0468 0.451184 12.3634 0.451184 12.5586 0.64645L14.5586 2.64645C14.7539 2.84171 14.7539 3.15829 14.5586 3.35355L10.616 7.29618C10.54 7.37218 10.4522 7.43543 10.3561 7.4835L6.4287 9.44721C6.2362 9.5435 6.00372 9.5057 5.85154 9.35355C5.69936 9.20137 5.66163 8.96889 5.75788 8.77639L7.72159 4.84897C7.76966 4.75283 7.83291 4.66507 7.90891 4.58907L11.8515 0.64645ZM12.2051 1.70711L8.61602 5.29618L7.57777 7.37267L7.83242 7.62732L9.90891 6.58907L13.498 3L12.2051 1.70711Z" fill="black"/>
<path fill-rule="evenodd" clip-rule="evenodd" d="M12.7354 0.469673C12.4425 0.176741 11.9676 0.176816 11.6747 0.469657L12.7354 0.469673ZM12.7354 0.469673L14.7354 2.46965C15.0283 2.76255 15.0283 3.23743 14.7354 3.53033L10.7928 7.47296C10.6978 7.56798 10.588 7.64703 10.4679 7.70709L6.54054 9.6708C6.25172 9.81525 5.90299 9.75851 5.67478 9.53034C5.44651 9.30207 5.3899 8.95333 5.53427 8.66459L7.49798 4.73717C7.55807 4.617 7.63713 4.5073 7.73213 4.41229L11.6747 0.469657M6.4287 9.44721L10.3561 7.4835C10.4522 7.43543 10.54 7.37218 10.616 7.29618L14.5586 3.35355C14.7539 3.15829 14.7539 2.84171 14.5586 2.64645L12.5586 0.64645C12.3634 0.451184 12.0468 0.451184 11.8515 0.64645L7.90891 4.58907C7.83291 4.66507 7.76966 4.75283 7.72159 4.84897L5.75788 8.77639C5.66163 8.96889 5.69936 9.20137 5.85154 9.35355C6.00372 9.5057 6.2362 9.5435 6.4287 9.44721ZM8.82148 5.44427L7.88214 7.32295L9.76082 6.38361L13.1445 3L12.2051 2.06066L8.82148 5.44427ZM8.61602 5.29618L7.57777 7.37267L7.83242 7.62732L9.90891 6.58907L13.498 3L12.2051 1.70711L8.61602 5.29618Z" fill="black"/>
<path fill-rule="evenodd" clip-rule="evenodd" d="M7.70508 1.5H2.70508C1.60051 1.5 0.705078 2.39543 0.705078 3.5V12.5C0.705078 13.6046 1.60051 14.5 2.70508 14.5H11.7051C12.8096 14.5 13.7051 13.6046 13.7051 12.5V7.5H12.2051V12.5C12.2051 12.7761 11.9812 13 11.7051 13H2.70508C2.42894 13 2.20508 12.7761 2.20508 12.5V3.5C2.20508 3.22386 2.42894 3 2.70508 3H7.70508V1.5Z" fill="black"/>
</g>
<defs>
<clipPath id="clip0_85_8751">
<rect width="15" height="15" fill="white" transform="translate(0.205078)"/>
</clipPath>
</defs>
</svg>
