<svg width="16" height="15" viewBox="0 0 16 15" fill="none" xmlns="http://www.w3.org/2000/svg">
<g clip-path="url(#clip0_144_8731)">
<path d="M9.0371 6.03435C8.8471 5.15696 8.30032 4.41295 7.55656 3.96138C7.6373 2.94483 8.48792 2.14499 9.5253 2.14499C10.6161 2.14499 11.5003 3.02923 11.5003 4.11999C11.5003 5.21076 10.6161 6.095 9.5253 6.095C9.35626 6.095 9.1928 6.0739 9.0371 6.03435ZM9.5253 0.894989C7.94602 0.894989 6.63207 2.03004 6.35436 3.5289C6.20113 3.50656 6.04446 3.495 5.88516 3.495C4.10404 3.495 2.66016 4.93888 2.66016 6.72C2.66016 8.50112 4.10404 9.945 5.88516 9.945C7.46445 9.945 8.77843 8.80992 9.0561 7.31103C9.20945 7.33342 9.36613 7.345 9.5253 7.345C11.3064 7.345 12.7503 5.90111 12.7503 4.11999C12.7503 2.33887 11.3064 0.894989 9.5253 0.894989ZM3.91016 6.72C3.91016 5.62923 4.7944 4.745 5.88516 4.745C6.97592 4.745 7.86016 5.62923 7.86016 6.72C7.86016 7.81076 6.97592 8.695 5.88516 8.695C4.7944 8.695 3.91016 7.81076 3.91016 6.72Z" fill="black" stroke="black" stroke-width="0.25"/>
<path d="M8.60853 7.43571C8.90239 7.37644 9.20907 7.34497 9.52495 7.34497C11.8351 7.34497 13.58 8.99432 13.58 10.88C13.58 11.2252 13.8598 11.505 14.205 11.505C14.5501 11.505 14.83 11.2252 14.83 10.88C14.83 8.16973 12.3831 6.09497 9.52495 6.09497C9.12595 6.09497 8.73647 6.13474 8.36139 6.21039C8.02302 6.27864 7.80405 6.60826 7.8723 6.94662C7.94055 7.28499 8.27017 7.50396 8.60853 7.43571Z" fill="black" stroke="black" stroke-width="0.25" stroke-linecap="round"/>
<path d="M1.83008 13.48C1.83008 11.5943 3.57488 9.94498 5.88508 9.94498C8.19529 9.94498 9.94009 11.5943 9.94009 13.48C9.94009 13.8252 10.2199 14.105 10.5651 14.105C10.9103 14.105 11.1901 13.8252 11.1901 13.48C11.1901 10.7697 8.74328 8.69498 5.88508 8.69498C3.02689 8.69498 0.580078 10.7697 0.580078 13.48C0.580078 13.8252 0.8599 14.105 1.20508 14.105C1.55026 14.105 1.83008 13.8252 1.83008 13.48Z" fill="black" stroke="black" stroke-width="0.25" stroke-linecap="round"/>
</g>
<defs>
<clipPath id="clip0_144_8731">
<rect width="15" height="15" fill="white" transform="translate(0.205078)"/>
</clipPath>
</defs>
</svg>
