<svg width="16" height="15" viewBox="0 0 16 15" fill="none" xmlns="http://www.w3.org/2000/svg">
<path fill-rule="evenodd" clip-rule="evenodd" d="M1.08203 7.49972C1.08203 3.84204 4.04718 0.876892 7.70486 0.876892C11.3625 0.876892 14.3277 3.84204 14.3277 7.49972C14.3277 11.1574 11.3625 14.1226 7.70486 14.1226C4.04718 14.1226 1.08203 11.1574 1.08203 7.49972ZM7.70486 1.82689C4.57185 1.82689 2.03203 4.36671 2.03203 7.49972C2.03203 10.6327 4.57185 13.1726 7.70486 13.1726C10.8379 13.1726 13.3777 10.6327 13.3777 7.49972C13.3777 4.36671 10.8379 1.82689 7.70486 1.82689ZM8.45488 10.5C8.45488 10.9142 8.1191 11.25 7.70488 11.25C7.29067 11.25 6.95488 10.9142 6.95488 10.5C6.95488 10.0858 7.29067 9.75 7.70488 9.75C8.1191 9.75 8.45488 10.0858 8.45488 10.5ZM6.25499 6.25C6.25499 5.57211 6.84007 4.925 7.70499 4.925C8.56992 4.925 9.15499 5.57211 9.15499 6.25C9.15499 6.74118 8.88498 6.99212 8.41943 7.27494C8.36746 7.30651 8.30754 7.34131 8.24343 7.37854L8.24337 7.37858C8.06017 7.48497 7.84283 7.61119 7.67945 7.73849C7.4371 7.92732 7.15499 8.23198 7.15499 8.7C7.15499 9.00376 7.40123 9.25 7.70499 9.25C8.00736 9.25 8.25273 9.00601 8.25497 8.70417L8.25552 8.7033C8.2642 8.6896 8.28989 8.65735 8.35553 8.6062C8.45703 8.52712 8.57004 8.46163 8.72062 8.37436L8.72067 8.37433C8.79918 8.32883 8.88791 8.27741 8.99055 8.21506C9.525 7.89038 10.255 7.35382 10.255 6.25C10.255 4.92789 9.14007 3.825 7.70499 3.825C6.26992 3.825 5.15499 4.92789 5.15499 6.25C5.15499 6.55376 5.40123 6.8 5.70499 6.8C6.00875 6.8 6.25499 6.55376 6.25499 6.25Z" fill="black"/>
</svg>
