<svg width="16" height="15" viewBox="0 0 16 15" fill="none" xmlns="http://www.w3.org/2000/svg">
<path fill-rule="evenodd" clip-rule="evenodd" d="M1.20508 9.50003C1.20508 10.3285 1.87665 11 2.70508 11H4.20508L4.20508 10H2.70508C2.42894 10 2.20508 9.77617 2.20508 9.50003L2.20508 2.50003C2.20508 2.22389 2.42894 2.00003 2.70508 2.00003L9.70508 2.00003C9.98122 2.00003 10.2051 2.22389 10.2051 2.50003V3.99999H5.70508C4.87665 3.99999 4.20508 4.67156 4.20508 5.49999V12.5C4.20508 13.3284 4.87665 14 5.70508 14H12.7051C13.5335 14 14.2051 13.3284 14.2051 12.5V5.49999C14.2051 4.67156 13.5335 3.99999 12.7051 3.99999H11.2051V2.50003C11.2051 1.6716 10.5335 1.00003 9.70508 1.00003H2.70508C1.87665 1.00003 1.20508 1.6716 1.20508 2.50003V9.50003ZM5.20508 5.49999C5.20508 5.22385 5.42894 4.99999 5.70508 4.99999H12.7051C12.9812 4.99999 13.2051 5.22385 13.2051 5.49999V12.5C13.2051 12.7761 12.9812 13 12.7051 13H5.70508C5.42894 13 5.20508 12.7761 5.20508 12.5V5.49999Z" fill="black"/>
</svg>
