<svg width="16" height="15" viewBox="0 0 16 15" fill="none" xmlns="http://www.w3.org/2000/svg">
<path fill-rule="evenodd" clip-rule="evenodd" d="M8.8576 3.21226C9.45455 2.80674 10.2001 2.8042 10.7467 3.16321C10.8642 3.24035 10.9967 3.36733 11.4174 3.78802C11.8381 4.20872 11.9651 4.34125 12.0422 4.4587C12.4012 5.00537 12.3987 5.7509 11.9932 6.34785C11.905 6.47771 11.7642 6.62324 11.329 7.05839L10.7103 7.67711C10.4174 7.97 10.4174 8.44488 10.7103 8.73777C11.0032 9.03066 11.4781 9.03066 11.771 8.73777L12.3897 8.11905L12.4457 8.0631C12.8022 7.70677 13.0551 7.45405 13.234 7.19074C13.9631 6.11736 14.0045 4.71402 13.296 3.6353C13.1229 3.37166 12.874 3.12292 12.5356 2.78481L12.4781 2.72736L12.4206 2.66988C12.0825 2.33149 11.8338 2.08256 11.5701 1.90942C10.4914 1.20099 9.08809 1.24231 8.01471 1.97148C7.7514 2.15035 7.49868 2.40323 7.14235 2.75977L7.0864 2.81575L6.46768 3.43447C6.17479 3.72736 6.17479 4.20223 6.46768 4.49513C6.76057 4.78802 7.23545 4.78802 7.52834 4.49513L8.14706 3.87641C8.58221 3.44126 8.72774 3.30048 8.8576 3.21226ZM4.69991 7.32355C4.99281 7.03066 4.99281 6.55579 4.69991 6.26289C4.40702 5.97 3.93215 5.97 3.63925 6.26289L3.02053 6.88161L2.96456 6.93757C2.60801 7.29389 2.35514 7.54661 2.17627 7.80992C1.44709 8.8833 1.40577 10.2866 2.1142 11.3654C2.28734 11.629 2.53628 11.8777 2.87466 12.2159L2.93215 12.2733L2.9896 12.3308C3.32771 12.6692 3.57644 12.9181 3.84009 13.0912C4.91881 13.7997 6.32215 13.7584 7.39553 13.0292C7.65883 12.8503 7.91156 12.5974 8.26788 12.2409L8.32383 12.1849L8.94255 11.5662C9.23545 11.2733 9.23545 10.7984 8.94255 10.5055C8.64966 10.2126 8.17479 10.2126 7.88189 10.5055L7.26317 11.1243C6.82802 11.5594 6.6825 11.7002 6.55263 11.7884C5.95568 12.1939 5.21015 12.1965 4.66349 11.8375C4.54604 11.7603 4.4135 11.6333 3.99281 11.2126C3.57211 10.7919 3.44513 10.6594 3.368 10.542C3.00899 9.99529 3.01152 9.24977 3.41705 8.65281C3.50526 8.52295 3.64604 8.37743 4.08119 7.94227L4.69991 7.32355ZM10.0037 6.26241C10.2966 5.96952 10.2966 5.49465 10.0037 5.20175C9.71078 4.90886 9.23591 4.90886 8.94302 5.20175L5.40748 8.73729C5.11459 9.03018 5.11459 9.50505 5.40748 9.79795C5.70038 10.0908 6.17525 10.0908 6.46814 9.79795L10.0037 6.26241Z" fill="black"/>
</svg>
