<svg xmlns="http://www.w3.org/2000/svg" width="30" height="31" fill="none"><path fill="#000" fill-rule="evenodd" d="M8 2v2h10V2H8Zm-2-.5A1.5 1.5 0 0 1 7.5 0h11A1.5 1.5 0 0 1 20 1.5V2h1a3 3 0 0 1 3 3v9h-2V5a1 1 0 0 0-1-1h-1v.5A1.5 1.5 0 0 1 18.5 6h-11A1.5 1.5 0 0 1 6 4.5V4H5a1 1 0 0 0-1 1v20a1 1 0 0 0 1 1h7v2H5a3 3 0 0 1-3-3V5a3 3 0 0 1 3-3h1v-.5Z" clip-rule="evenodd"/><path fill="#000" d="M27.52 17.173c.49.32.628.978.307 1.468l-7.212 11.03a1.06 1.06 0 0 1-1.601.205l-4.667-4.243a1.06 1.06 0 1 1 1.427-1.57l3.746 3.406 6.532-9.989a1.06 1.06 0 0 1 1.468-.307Z"/></svg>