<svg xmlns="http://www.w3.org/2000/svg" width="30" height="30" fill="none"><path fill="#000" fill-rule="evenodd" d="M20.93 15.15c-1.588 0-2.916.268-3.979.782-.531.257-1.211-1.656.35-2.149 1.102-.347 2.322-.508 3.63-.508 2.312 0 4.354.503 5.947 1.654 1.609 1.162 2.658 2.914 3.105 5.208a.938.938 0 0 1-1.84.358c-.372-1.91-1.204-3.209-2.364-4.047-1.176-.85-2.791-1.298-4.848-1.298ZM4.26 20.095c-1.142.762-1.98 1.934-2.414 3.637a.937.937 0 1 1-1.817-.464c.535-2.093 1.616-3.682 3.192-4.733 1.558-1.038 3.515-1.494 5.718-1.494 2.744 0 5.108.709 6.784 2.36 1.678 1.654 2.516 4.106 2.516 7.274a.937.937 0 1 1-1.875 0c0-2.852-.75-4.75-1.957-5.938-1.21-1.192-3.027-1.821-5.468-1.821-1.96 0-3.519.406-4.678 1.18Z" clip-rule="evenodd"/><path fill="#000" d="M14.088 8.48c.873.37 1.626.97 2.183 1.722a4.331 4.331 0 1 1 .605 1.051 5.252 5.252 0 0 1 .383 2.755 6.206 6.206 0 1 0-3.17-5.527Z"/><path fill="#000" fill-rule="evenodd" d="M5.827 12.71a6.206 6.206 0 1 1 12.412 0 6.206 6.206 0 0 1-12.412 0Zm6.206-4.331a4.331 4.331 0 1 0 0 8.662 4.331 4.331 0 0 0 0-8.662Z" clip-rule="evenodd"/></svg>