<svg xmlns="http://www.w3.org/2000/svg" width="30" height="30" fill="none"><path fill="#000" fill-rule="evenodd" d="M12.465 2.247a13.055 13.055 0 0 1 5.07 0 1.61 1.61 0 1 1-.625 3.16 9.835 9.835 0 0 0-3.82 0 1.61 1.61 0 1 1-.625-3.16ZM10.01 4.633a1.61 1.61 0 0 1-.442 2.234 9.842 9.842 0 0 0-2.7 2.7A1.61 1.61 0 0 1 4.19 7.777 13.063 13.063 0 0 1 7.776 4.19a1.61 1.61 0 0 1 2.234.442Zm9.98 0a1.61 1.61 0 0 1 2.234-.442 13.063 13.063 0 0 1 3.585 3.585 1.61 1.61 0 1 1-2.676 1.792 9.841 9.841 0 0 0-2.7-2.7 1.61 1.61 0 0 1-.443-2.235ZM4.14 11.197a1.61 1.61 0 0 1 1.267 1.893 9.835 9.835 0 0 0 0 3.82 1.61 1.61 0 1 1-3.16.625 13.055 13.055 0 0 1 0-5.07 1.61 1.61 0 0 1 1.893-1.268Zm21.72 0a1.61 1.61 0 0 1 1.893 1.268 13.053 13.053 0 0 1 0 5.07 1.61 1.61 0 0 1-3.16-.625 9.833 9.833 0 0 0 0-3.82 1.61 1.61 0 0 1 1.267-1.893ZM4.633 19.99a1.61 1.61 0 0 1 2.234.442 9.841 9.841 0 0 0 2.7 2.7 1.61 1.61 0 0 1-1.791 2.677 13.063 13.063 0 0 1-3.585-3.585 1.61 1.61 0 0 1 .442-2.234Zm20.734 0a1.61 1.61 0 0 1 .442 2.234 13.064 13.064 0 0 1-3.585 3.585 1.61 1.61 0 1 1-1.792-2.676 9.841 9.841 0 0 0 2.7-2.7 1.61 1.61 0 0 1 2.235-.443Zm-14.17 5.87a1.61 1.61 0 0 1 1.893-1.267 9.833 9.833 0 0 0 3.82 0 1.61 1.61 0 1 1 .625 3.16 13.053 13.053 0 0 1-5.07 0 1.61 1.61 0 0 1-1.268-1.893Z" clip-rule="evenodd"/></svg>