<svg xmlns="http://www.w3.org/2000/svg" width="30" height="30" fill="none"><path fill="#000" d="m12.504 24-1.42-4.515h-6.29L3.399 24H0L5.935 6.296h4.16L15.979 24h-3.475ZM7.99 9.34h-.126l-2.258 7.28h4.667L7.99 9.34ZM28.2 24c-.711 0-1.277-.203-1.7-.609-.406-.423-.66-.98-.761-1.674h-.152c-.22.863-.668 1.514-1.345 1.953-.676.423-1.513.634-2.51.634-1.353 0-2.393-.355-3.12-1.065-.727-.71-1.09-1.657-1.09-2.84 0-1.37.49-2.385 1.47-3.044.981-.677 2.376-1.015 4.185-1.015h2.258v-.964c0-.744-.195-1.319-.584-1.724-.389-.406-1.014-.61-1.877-.61-.76 0-1.378.17-1.851.508a4.78 4.78 0 0 0-1.167 1.167l-1.927-1.725a5.477 5.477 0 0 1 1.952-1.826c.812-.473 1.886-.71 3.222-.71 1.792 0 3.153.406 4.083 1.217.93.812 1.395 1.979 1.395 3.5v6.24H30V24h-1.8Zm-5.378-2.055c.727 0 1.344-.16 1.852-.482.507-.32.76-.794.76-1.42v-1.75h-2.08c-1.69 0-2.536.541-2.536 1.623v.431c0 .542.17.947.508 1.218.355.254.854.38 1.496.38Z"/></svg>