<svg xmlns="http://www.w3.org/2000/svg" width="30" height="30" fill="none"><path fill="#000" d="M0 22.003h1.262L6.706 6.215H9.8l5.445 15.788h1.262v1.485H9.65v-1.485h2.054l-1.287-3.885H4.454l-1.286 3.885H5.22v1.485H0v-1.485Zm4.9-5.444h5.073L7.498 8.888h-.124L4.9 16.559ZM21.685 23.785c-1.336 0-2.326-.322-2.97-.965-.643-.644-.964-1.535-.964-2.673 0-1.254.453-2.202 1.36-2.846.925-.643 2.36-.965 4.306-.965h1.757v-1.559c0-1.006-.206-1.765-.618-2.276-.413-.528-1.089-.792-2.03-.792-.725 0-1.286.107-1.682.321v.1c.165.098.322.255.47.47.165.197.248.478.248.84 0 .48-.149.875-.446 1.189-.28.297-.701.445-1.262.445-.478 0-.874-.156-1.188-.47-.297-.313-.445-.726-.445-1.237 0-.396.107-.776.322-1.139.23-.38.569-.709 1.014-.99.446-.296.99-.527 1.633-.692.66-.182 1.42-.273 2.277-.273 1.65 0 2.887.38 3.712 1.139.825.742 1.237 1.79 1.237 3.143v7.473H30v1.237c-.247.165-.577.289-.99.371a5.39 5.39 0 0 1-1.262.149c-.825 0-1.419-.198-1.782-.594-.363-.412-.544-.932-.544-1.56v-.073h-.124a4.39 4.39 0 0 1-.445.816 3.159 3.159 0 0 1-.693.718c-.28.198-.627.363-1.04.495-.395.132-.874.198-1.435.198Zm1.262-1.98c.66 0 1.196-.157 1.609-.47.412-.314.618-.841.618-1.584v-2.079h-1.41c-.99 0-1.7.182-2.128.545-.413.346-.619.85-.619 1.51v.445c0 .56.173.973.52 1.237.363.264.833.396 1.41.396Z"/></svg>