<svg xmlns="http://www.w3.org/2000/svg" width="30" height="30" fill="none"><path stroke="#000" stroke-linecap="round" stroke-width="2" d="M11 9H9.25c-1.162 0-1.742 0-2.225.092-1.984.379-3.534 1.867-3.929 3.772C3 13.327 3 13.884 3 15c0 1.115 0 1.673.096 2.136.395 1.905 1.945 3.393 3.929 3.772C7.508 21 8.088 21 9.25 21H11m8-12h1.75c1.162 0 1.742 0 2.226.092 1.983.379 3.533 1.867 3.928 3.772C27 13.327 27 13.884 27 15c0 1.115 0 1.673-.096 2.136-.395 1.905-1.945 3.393-3.928 3.772-.483.092-1.064.092-2.226.092H19M10.002 15h10"/></svg>