<svg xmlns="http://www.w3.org/2000/svg" width="30" height="30" fill="none"><path fill="#000" fill-rule="evenodd" d="M7 4a1 1 0 0 0-1 1v20a1 1 0 0 0 1 1h16a1 1 0 0 0 1-1V9.414L18.586 4H7ZM4 5a3 3 0 0 1 3-3h11.586A2 2 0 0 1 20 2.586L25.414 8A2 2 0 0 1 26 9.414V25a3 3 0 0 1-3 3H7a3 3 0 0 1-3-3V5Z" clip-rule="evenodd"/><path fill="#000" fill-rule="evenodd" d="M8 9a1 1 0 0 1 1-1h6a1 1 0 1 1 0 2H9a1 1 0 0 1-1-1Zm0 6a1 1 0 0 1 1-1h12a1 1 0 1 1 0 2H9a1 1 0 0 1-1-1Zm0 6a1 1 0 0 1 1-1h12a1 1 0 1 1 0 2H9a1 1 0 0 1-1-1Z" clip-rule="evenodd"/></svg>