<svg xmlns="http://www.w3.org/2000/svg" width="30" height="30" fill="none"><path fill="#000" d="M18.065 11.068c-.069-.69-.362-1.226-.881-1.608-.519-.382-1.223-.573-2.112-.573-.604 0-1.115.085-1.53.257-.417.165-.736.396-.959.692a1.667 1.667 0 0 0-.325 1.01c-.011.313.055.586.197.82.148.234.35.436.607.607.257.165.553.31.89.436.336.12.695.223 1.077.308l1.573.376c.764.171 1.465.4 2.104.684a6.386 6.386 0 0 1 1.659 1.052c.467.416.83.907 1.086 1.471.262.564.396 1.211.402 1.941-.006 1.072-.28 2.001-.821 2.788-.536.78-1.311 1.388-2.326 1.821-1.01.428-2.226.642-3.651.642-1.414 0-2.646-.217-3.694-.65-1.044-.434-1.859-1.075-2.446-1.924-.582-.855-.886-1.913-.915-3.173h3.583c.04.587.208 1.078.504 1.471.303.388.704.681 1.206.88.508.195 1.08.291 1.719.291.627 0 1.171-.09 1.633-.273.468-.183.83-.436 1.086-.761.257-.325.385-.699.385-1.12 0-.394-.117-.724-.35-.992-.229-.268-.565-.496-1.01-.684-.439-.188-.977-.36-1.616-.514l-1.907-.478c-1.476-.36-2.642-.921-3.497-1.685s-1.28-1.793-1.274-3.087c-.006-1.06.276-1.987.846-2.779.576-.792 1.366-1.41 2.369-1.856 1.003-.444 2.143-.667 3.42-.667 1.3 0 2.435.223 3.404.667.974.445 1.733 1.064 2.274 1.856.542.792.821 1.71.838 2.754h-3.548Z"/></svg>