<svg xmlns="http://www.w3.org/2000/svg" width="30" height="30" fill="none"><path fill="#000" fill-rule="evenodd" d="M15 7.398a3.602 3.602 0 1 0 0 7.204 3.602 3.602 0 0 0 0-7.204ZM13.398 11a1.602 1.602 0 1 1 3.204 0 1.602 1.602 0 0 1-3.204 0Z" clip-rule="evenodd"/><path fill="#000" fill-rule="evenodd" d="M4.5 2h21A2.5 2.5 0 0 1 28 4.5v21a2.5 2.5 0 0 1-2.5 2.5h-21A2.5 2.5 0 0 1 2 25.5v-21A2.5 2.5 0 0 1 4.5 2ZM26 4.5v14.086l-3.293-3.293a1 1 0 0 0-1.414 0l-5.543 5.543-7.019-7.518a1 1 0 0 0-1.438-.025L4 16.586V4.5a.5.5 0 0 1 .5-.5h21a.5.5 0 0 1 .5.5Zm-22 21v-6.086l3.975-3.975 7.014 7.513L17.747 26H4.5a.5.5 0 0 1-.5-.5Zm21.5.5h-5.055l-3.34-3.69L22 17.413l4 4V25.5a.5.5 0 0 1-.5.5Z" clip-rule="evenodd"/></svg>