<svg xmlns="http://www.w3.org/2000/svg" width="30" height="30" fill="none"><path fill="#000" fill-rule="evenodd" d="M23.854.315c.42-.42 1.102-.42 1.523 0l4.308 4.308c.42.42.42 1.103 0 1.523l-8.492 8.492c-.164.164-.353.3-.56.403l-8.46 4.23a1.077 1.077 0 0 1-1.444-1.445l4.23-8.459c.103-.207.24-.396.403-.56L23.854.315Zm.761 2.285-7.73 7.73-2.236 4.473.548.548 4.473-2.236 7.73-7.73L24.615 2.6Zm-5.384-.446-2.154 2.154h-8.83c-.923 0-1.55 0-2.035.04-.472.039-.714.109-.882.194a2.154 2.154 0 0 0-.941.942c-.086.168-.156.41-.195.882-.04.484-.04 1.112-.04 2.034v13.354c0 .922 0 1.55.04 2.034.039.472.109.714.195.882.206.405.536.735.94.941.17.086.41.156.883.195.485.04 1.112.04 2.034.04H21.6c.922 0 1.55 0 2.034-.04.472-.039.714-.109.882-.195.406-.206.735-.536.942-.94.085-.17.155-.41.194-.883.04-.485.04-1.112.04-2.034v-8.831l2.154-2.154v11.029c0 .867 0 1.583-.047 2.166-.05.605-.156 1.161-.422 1.684a4.308 4.308 0 0 1-1.883 1.883c-.523.266-1.079.372-1.684.421-.583.048-1.299.048-2.165.048H8.202c-.867 0-1.583 0-2.165-.048-.606-.05-1.162-.155-1.685-.422a4.308 4.308 0 0 1-1.882-1.882c-.267-.523-.373-1.08-.422-1.684C2 23.38 2 22.665 2 21.797V8.356c0-.867 0-1.583.048-2.166.049-.605.155-1.161.422-1.684a4.308 4.308 0 0 1 1.882-1.883c.523-.266 1.08-.372 1.684-.422.583-.047 1.299-.047 2.166-.047H19.23Z" clip-rule="evenodd"/></svg>