<svg xmlns="http://www.w3.org/2000/svg" width="30" height="30" fill="none"><path fill="#000" fill-rule="evenodd" d="M10.5 3.3v1.8h9V3.3h-9Zm10.8 1.8V2.85a1.35 1.35 0 0 0-1.35-1.35h-9.9A1.35 1.35 0 0 0 8.7 2.85V5.1H3.3a.9.9 0 0 0 0 1.8h1.961c0 .05.002.102.007.154l1.7 19.8A1.8 1.8 0 0 0 8.76 28.5h12.478a1.8 1.8 0 0 0 1.794-1.646l1.7-19.8c.004-.052.006-.103.006-.154H26.7a.9.9 0 1 0 0-1.8h-5.4Zm1.639 1.8H7.06l1.7 19.8h12.478l1.7-19.8Z" clip-rule="evenodd"/><path fill="#000" fill-rule="evenodd" d="M11.325 11.403a.9.9 0 0 1 .972.822l.9 10.8a.9.9 0 1 1-1.794.15l-.9-10.8a.9.9 0 0 1 .822-.972ZM17.625 23.997a.9.9 0 0 1-.822-.972l.9-10.8a.9.9 0 0 1 1.794.15l-.9 10.8a.9.9 0 0 1-.972.822Z" clip-rule="evenodd"/></svg>