<?xml version="1.0" encoding="utf-8"?>
<!-- Generator: Adobe Illustrator 24.1.0, SVG Export Plug-In . SVG Version: 6.00 Build 0)  -->
<svg version="1.1" id="Layer_1" xmlns="http://www.w3.org/2000/svg" xmlns:xlink="http://www.w3.org/1999/xlink" x="0px" y="0px"
	 viewBox="0 0 40 50" style="enable-background:new 0 0 40 50;" xml:space="preserve">
<style type="text/css">
</style>
<g class="st0">
	<path d="M6.5,10c0.9-0.4,1.8-0.5,2.8-0.5c0.8,0,1.1-0.2,1-1c-0.2-2.2,0.8-3.8,2.4-5c1.2-0.8,2.4-1.2,3.8-1.2c1.6-0.1,3,0.5,4.2,1.5
		c0.5,0.5,0.9,0.4,1.5,0c1.3-1,2.9-1,4.5-1.1c0.8,0.3,1.6,0.5,2.5,0.8c1.4,1,2.2,2.3,2.4,4c0.1,0.5,0.2,0.7,0.7,0.9
		c1.2,0.3,2,1.1,3,1.8c0.3,0.6,0.7,1.2,1,1.7c0.6,2.5,1.1,4.9,0.1,7.4c-0.5,1.2-1.2,2.2-2.5,2.8c-0.7,0.3-1,0.8-1.2,1.5
		c-0.5,2.1-1.3,4-1.7,6.1c-0.1,0.7-0.4,1.4-1,1.9c-1.1,1-1.4,2.4-1.4,3.8c-0.2,4.7,6.7,10.8-2.2,13.5c-5.8,0-13.6,0.9-15.1-2.2
		c-1.7-3.7,0-4.7,0-8.8c0-2.2-0.3-4.3-1.9-6.1c-0.8-0.9-0.9-2.2-0.9-3.4c0-1.1-0.4-1.8-1.1-2.5C4.7,23.2,3.5,20,3,16.4
		c-0.2-1.7,0.2-3.2,1.1-4.6C5,11.2,5.6,10.4,6.5,10z M21.1,15.1c-0.6,0-1.1,0.1-1.6,0.2c-2.1,0.6-3.6,2.1-4.9,3.9
		c-2.1,2.8-1.3,5.6,2,6.9c0.8,0.3,1.7,0.4,2.6,0.3c1.4-0.2,2.7-0.1,4.1,0.3c3.2,0.9,5.8-1.6,5-4.9c-0.2-0.7-0.4-1.5-0.7-2.1
		C26.2,16.9,24.2,15.2,21.1,15.1z M15.6,15.6c0-1.8-1.4-3.4-3.1-3.5c-2,0-3.6,1.8-3.6,4c0,1.6,1.5,2.9,3.2,2.9
		C14,19.1,15.5,17.6,15.6,15.6z M17.7,13.1c2.1,0,3.3-1.2,3.3-3.4c0-1.9-1.5-3.3-3.5-3.3c-2.1,0-3,1.2-3,3.8
		C14.6,12.1,15.7,13.1,17.7,13.1z M27.8,10.6c0-2.1-1.2-3.4-3.2-3.4c-1.7,0-2.7,1-2.8,2.8c0,2.1,1.3,3.7,2.9,3.7
		C26.5,13.6,27.8,12.4,27.8,10.6z M32.5,16c0-1.9-1-3-2.7-3.1c-1.7,0-2.8,1-2.8,2.7c0,1.6,1.3,3.1,2.9,3.2
		C31.4,18.9,32.5,17.7,32.5,16z"/>
</g>
</svg>
