<svg fill="none" height="80" viewBox="0 0 148 80" width="148" xmlns="http://www.w3.org/2000/svg"><path clip-rule="evenodd" d="m121.36 38.9082-2.901-.3273c-1.7-.1873-2.121-.6087-2.121-1.1857 0-.6395.874-1.2166 2.573-1.2166 1.638 0 2.496.6087 2.652 1.5289h3.119c-.159-2.6363-2.372-4.2734-5.599-4.2734-3.837 0-5.771 1.528-5.771 4.2259 0 2.1991 1.279 3.2292 3.931 3.5098l2.947.3114c1.123.1249 1.638.562 1.638 1.1233 0 .6395-.749 1.2166-2.558 1.2166-2.09 0-2.932-.5305-3.072-1.5913h-3.057c.14 2.8702 2.011 4.3358 6.02 4.3358 3.665 0 5.708-1.6063 5.708-4.0236 0-2.1058-1.216-3.369-3.509-3.6338zm-67.5783 4.8188c1.7004 0 2.6987-.6546 2.6987-2.2766v-7.7199h3.1809v8.0787c0 3.6023-3.1966 4.7255-5.8796 4.7255-2.6979 0-5.9104-1.1232-5.9104-4.7255v-8.0787h3.1817v7.7199c0 1.5904 1.0758 2.2766 2.7287 2.2766zm-43.6837 2.5279 11.1727-6.9499h5.7959c.0444 0 .0885.0088.1296.0258.0411.0171.0784.0421.1098.0736.0315.0315.0564.0688.0733.11.017.0411.0257.0852.0256.1297.0046.0578-.008.1156-.0361.1662-.0282.0506-.0706.0918-.122.1184l-5.4876 3.29c-.3565.2134-.4814.6419-.4814.9628l-.0055 2.0734h6.9736v-12.0501c.0002-.0578-.0114-.115-.0339-.1682-.0226-.0532-.0557-.1013-.0974-.1413-.0416-.0401-.091-.0713-.1451-.0917-.054-.0204-.1116-.0297-.1693-.0272h-6.6544l-11.1458 6.9198v5.5587zm91.595-.0008h10.044v-2.6987h-6.862v-2.2607h5.521v-2.7146h-5.521v-2.105h6.862v-2.6979h-10.044zm-67.9208 0 4.788-12.4769h4.0583l4.8464 12.4769h-3.399l-.8221-2.3398h-5.3452l-.8356 2.3398zm6.8211-9.8818-1.7478 4.8907 3.4663.0016zm20.5186.1028h4.0244v9.779h3.1817v-9.779h4.0077v-2.6979h-11.2138zm76.8891-2.6979h-3.79l-4.538 5.0686v-5.0686h-3.182l.016 12.4769h3.166v-4.7413l4.304 4.7413h4.024l-5.802-6.161zm-49.6272 0h5.833c4.5235 0 5.7085 1.7619 5.7085 6.1444 0 4.6638-1.2316 6.3325-5.7085 6.3325h-5.833zm3.1759 9.7798h2.5294c1.9215 0 2.5917-.9842 2.5885-3.6354 0-2.9003-.5921-3.4465-2.5885-3.4465h-2.5294zm-18.7094-3.573c0-3.7587 2.3548-6.5499 6.8938-6.5499 4.5538 0 6.909 2.7912 6.909 6.5499 0 3.7746-2.3552 6.5816-6.909 6.5816-4.539 0-6.8938-2.807-6.8938-6.5816zm3.2441 0c0 2.3398 1.2948 3.7746 3.6497 3.7746 2.3707 0 3.6495-1.4348 3.6495-3.7746 0-2.2924-1.2781-3.7429-3.6495-3.7429-2.3549 0-3.6497 1.4505-3.6497 3.7429z" fill="#fff" fill-rule="evenodd"/></svg>