<svg xmlns:xlink="http://www.w3.org/1999/xlink" width="148" viewBox="0 0 148 80" height="80" fill="none" xmlns="http://www.w3.org/2000/svg"><path fill-rule="evenodd" clip-rule="evenodd" d="M121.36 38.9082L118.459 38.5809C116.759 38.3936 116.338 37.9722 116.338 37.3952C116.338 36.7557 117.212 36.1786 118.911 36.1786C120.549 36.1786 121.407 36.7873 121.563 37.7075H124.682C124.523 35.0712 122.31 33.4341 119.083 33.4341C115.246 33.4341 113.312 34.9621 113.312 37.66C113.312 39.8591 114.591 40.8892 117.243 41.1698L120.19 41.4812C121.313 41.6061 121.828 42.0432 121.828 42.6045C121.828 43.244 121.079 43.8211 119.27 43.8211C117.18 43.8211 116.338 43.2906 116.198 42.2298H113.141C113.281 45.1 115.152 46.5656 119.161 46.5656C122.826 46.5656 124.869 44.9593 124.869 42.542C124.869 40.4362 123.653 39.173 121.36 38.9082ZM53.7817 43.727C55.4821 43.727 56.4804 43.0724 56.4804 41.4504V33.7305H59.6613V41.8092C59.6613 45.4115 56.4647 46.5347 53.7817 46.5347C51.0838 46.5347 47.8713 45.4115 47.8713 41.8092V33.7305H51.053V41.4504C51.053 43.0408 52.1288 43.727 53.7817 43.727ZM10.098 46.2549L21.2707 39.305H27.0666C27.111 39.305 27.1551 39.3138 27.1962 39.3308C27.2373 39.3479 27.2746 39.3729 27.306 39.4044C27.3375 39.4359 27.3624 39.4732 27.3793 39.5144C27.3963 39.5555 27.405 39.5996 27.4049 39.6441C27.4095 39.7019 27.3969 39.7597 27.3688 39.8103C27.3406 39.8609 27.2982 39.9021 27.2468 39.9287L21.7592 43.2187C21.4027 43.4321 21.2778 43.8606 21.2778 44.1815L21.2723 46.2549H28.2459V34.2048C28.2461 34.147 28.2345 34.0898 28.212 34.0366C28.1894 33.9834 28.1563 33.9353 28.1146 33.8953C28.073 33.8552 28.0236 33.824 27.9695 33.8036C27.9155 33.7832 27.8579 33.7739 27.8002 33.7764H21.1458L10 40.6962V46.2549H10.098ZM101.693 46.2541H111.737V43.5554H104.875V41.2947H110.396V38.5801H104.875V36.4751H111.737V33.7772H101.693V46.2541ZM33.7722 46.2541L38.5602 33.7772H42.6185L47.4649 46.2541H44.0659L43.2438 43.9143H37.8986L37.063 46.2541H33.7722ZM40.5933 36.3723L38.8455 41.263L42.3118 41.2646L40.5933 36.3723ZM61.1119 36.4751H65.1363V46.2541H68.318V36.4751H72.3257V33.7772H61.1119V36.4751ZM138.001 33.7772H134.211L129.673 38.8458V33.7772H126.491L126.507 46.2541H129.673V41.5128L133.977 46.2541H138.001L132.199 40.0931L138.001 33.7772ZM88.3738 33.7772H94.2068C98.7303 33.7772 99.9153 35.5391 99.9153 39.9216C99.9153 44.5854 98.6837 46.2541 94.2068 46.2541H88.3738V33.7772ZM91.5497 43.557H94.0791C96.0006 43.557 96.6708 42.5728 96.6676 39.9216C96.6676 37.0213 96.0755 36.4751 94.0791 36.4751H91.5497V43.557ZM72.8403 39.984C72.8403 36.2253 75.1951 33.4341 79.7341 33.4341C84.2879 33.4341 86.6431 36.2253 86.6431 39.984C86.6431 43.7586 84.2879 46.5656 79.7341 46.5656C75.1951 46.5656 72.8403 43.7586 72.8403 39.984ZM76.0844 39.984C76.0844 42.3238 77.3792 43.7586 79.7341 43.7586C82.1048 43.7586 83.3836 42.3238 83.3836 39.984C83.3836 37.6916 82.1055 36.2411 79.7341 36.2411C77.3792 36.2411 76.0844 37.6916 76.0844 39.984Z" fill="#FFFFFF"></path></svg>