<svg xmlns="http://www.w3.org/2000/svg" xmlns:xlink="http://www.w3.org/1999/xlink" version="1.1" id="Layer_1" x="0px" y="0px" viewBox="0 0 512 512" style="enable-background:new 0 0 512 512;" xml:space="preserve" width="512"  height="512" >
<style type="text/css">
	.st0{fill:#213683;}
	.st1{fill:#DA2825;}
	.st2{fill:#FFFFFF;}
</style>
<g id="XMLID_1_">
	<rect id="XMLID_3_" x="0" y="-0.42" class="st0" width="512" height="512.84"/>
	<polyline id="XMLID_4_" class="st1" points="317.4,252.77 512,-0.42 483.2,-0.42 287.75,252.77 317.4,252.77  "/>
	<path id="XMLID_9_" class="st2" d="M391.17,363.77c6.32,17.42,11.38,35.69,17.42,53.39c3.93,10.82,9.98,33.02,17.14,41.87h-48.19   c0-13.77-5.34-26.41-8.99-39.48c-3.09-9.13-5.34-18.41-8.71-27.54l-0.84-3.51l-0.84-2.95l-0.84-2.39l-0.56-2.39l-0.56-1.41   l-0.28-0.84v-0.28h-76.72l-12.22,17.14l0.28,0.28l0.28,1.41l0.84,2.39l0.84,2.95l1.12,3.51c2.25,6.88,4.36,14.05,6.74,20.94   c5.06,16.02,5.06,17,13.63,32.18h-46.23c-0.98-9.69-2.95-15.6-5.76-25.01c-7.59,8.15-13.07,14.61-17.7,25.01h-35.97   c-1.83-10.68-2.67-15.6-6.74-26.13c-8.01,10.96-11.1,13.21-17.14,26.13h-35.69c15.88-14.47,28.66-33.02,41.87-49.88l-8.99-30.77   H82.2v0.28l-1.69,1.69l-1.12,1.69L77.98,384l-1.69,2.39l-1.97,2.95l-2.39,2.67c-6.6,9.13-13.77,17.84-20.37,26.98   c-9.84,12.79-21.36,25.85-28.8,40.04H0v-14.47l0.84-0.84h0.28v-0.28l1.12-1.12l0.56-0.84c1.97-2.11,3.37-4.64,5.48-6.74   c5.48-6.74,10.68-13.49,16.02-20.37c15.03-18.97,29.65-38.08,44.12-57.47c20.09-28.1,47.91-57.19,61.54-88.52h39.2   c0.84,20.79,6.88,31.47,12.22,51.14c3.37,10.68,6.46,21.36,9.84,31.89l1.12,3.51l1.69,6.32l0.84,2.39l0.56,2.39l0.56,1.69   l0.56,1.41l0.28,0.84v0.28l13.35-16.86c-7.59-19.11-16.16-60.14-29.65-85.15h45.95c-0.42,10.26,3.51,17.56,5.76,27.26   c2.67,8.85,4.78,17.98,7.59,26.7c5.9-7.87,12.36-15.6,18.27-23.46c6.74-9.55,17.7-17.98,18.55-30.49h38.36   c-22.48,20.94-43.98,53.39-63.93,77.56c2.25,6.88,3.93,14.05,6.04,20.94c12.22-15.88,24.59-31.75,36.53-47.91   c11.24-15.6,26.7-32.88,34.28-50.58h37.51v1.69l0.28,4.36l0.84,4.64l0.56,3.51L391.17,363.77L391.17,363.77z M334.26,304.76   c-9.84,17.56-25.29,35.13-37.8,51.14h51.14c-2.53-8.15-5.2-16.58-7.87-24.73l-1.12-4.07l-1.12-3.51l-0.84-2.95l-0.56-2.39   l-0.84-5.76v-7.59l-0.28-0.56v-0.28L334.26,304.76L334.26,304.76z M137.98,304.76c-5.34,9.55-12.93,19.67-19.81,28.1   c-3.65,5.06-7.87,9.84-11.66,14.75l-1.69,2.39l-1.41,1.97l-1.41,1.41l-0.84,1.12l-0.84,0.84v0.28h51.14   c-2.67-7.87-5.34-16.72-7.87-24.73l-1.12-4.07l-1.12-3.51l-0.84-2.95l-0.56-2.39l-0.84-5.76l-0.28-4.92v-3.23l-0.28-0.28   L137.98,304.76L137.98,304.76z M214.97,424.18l13.91-19.39c-3.37-8.43-6.32-17-8.99-25.57l-13.63,17.7L214.97,424.18"/>
</g>
</svg>