<?xml version="1.0" encoding="UTF-8"?>
<svg xmlns="http://www.w3.org/2000/svg" width="190" height="32" fill="none">
  <path fill-rule="evenodd" clip-rule="evenodd" d="M39.973 23.612c-1.157 0-2.222-.198-3.197-.595a7.526 7.526 0 0 1-2.537-1.688 7.564 7.564 0 0 1-1.658-2.584C32.194 17.748 32 16.65 32 15.45c0-1.168.205-2.247.615-3.237a7.86 7.86 0 0 1 1.702-2.574 7.717 7.717 0 0 1 2.57-1.698c.987-.404 2.068-.607 3.24-.607.73 0 1.449.098 2.151.292a7.336 7.336 0 0 1 1.966.867c.608.381 1.13.834 1.569 1.36l-2.283 2.675a6.595 6.595 0 0 0-.978-.865 4.122 4.122 0 0 0-2.448-.776 4.25 4.25 0 0 0-1.658.327c-.52.215-.974.525-1.362.921a4.23 4.23 0 0 0-.912 1.45c-.22.57-.328 1.206-.328 1.912 0 .688.108 1.315.328 1.876a4.29 4.29 0 0 0 .924 1.451 3.86 3.86 0 0 0 1.437.922 5.35 5.35 0 0 0 1.878.315c.47 0 .916-.068 1.34-.202a4.852 4.852 0 0 0 1.175-.55c.35-.226.67-.495.955-.8l1.8 2.923c-.366.42-.852.795-1.46 1.123-.607.331-1.28.59-2.02.776a8.972 8.972 0 0 1-2.228.282Zm20.538-3.237-1.098 3.012h-3.688l6.083-15.739h3.162l6.04 15.739h-3.778l-1.094-3.012H60.51Zm4.58-2.878-.757-2.092a25.918 25.918 0 0 1-.354-1.011c-.115-.36-.233-.732-.351-1.113l-.287-.95c-.099.318-.195.635-.294.95-.11.352-.23.704-.363 1.056-.13.352-.256.716-.372 1.091l-.754 2.069h3.532Zm17.277 5.89V7.648h6.434c1.129 0 2.16.19 3.098.574a7.027 7.027 0 0 1 2.427 1.63 7.256 7.256 0 0 1 1.57 2.496c.366.959.55 2.016.55 3.17s-.184 2.214-.55 3.18a7.113 7.113 0 0 1-1.57 2.497 7.14 7.14 0 0 1-2.427 1.62c-.938.381-1.97.572-3.098.572h-6.434Zm3.734-12.367v8.995h2.592c.614 0 1.163-.109 1.647-.327a3.626 3.626 0 0 0 1.24-.91c.344-.39.612-.861.802-1.417.19-.554.286-1.169.286-1.844 0-.674-.096-1.289-.286-1.843a4.16 4.16 0 0 0-.802-1.417 3.626 3.626 0 0 0-1.24-.91c-.484-.218-1.033-.327-1.647-.327h-2.592ZM115.228 23.432c-1.068 0-2.049-.194-2.942-.585a6.741 6.741 0 0 1-2.328-1.674 7.69 7.69 0 0 1-1.527-2.574c-.359-.99-.538-2.077-.538-3.261 0-1.124.194-2.17.583-3.137a8.098 8.098 0 0 1 1.613-2.55 7.363 7.363 0 0 1 2.394-1.71 7.145 7.145 0 0 1 2.942-.607c.749 0 1.476.115 2.18.348a6.847 6.847 0 0 1 1.938.967c.588.412 1.044.88 1.424 1.406l-1.595 1.685a8.573 8.573 0 0 0-1.273-1.09 5.562 5.562 0 0 0-1.321-.663 4.25 4.25 0 0 0-1.353-.226 4.904 4.904 0 0 0-3.633 1.575 5.424 5.424 0 0 0-1.088 1.765 6.18 6.18 0 0 0-.395 2.237c0 .853.129 1.631.384 2.327a5.134 5.134 0 0 0 1.088 1.787 4.659 4.659 0 0 0 1.681 1.136c.651.262 1.371.394 2.161.394.484 0 .959-.068 1.428-.202.469-.136.915-.33 1.314-.585a5.82 5.82 0 0 0 1.121-.9l1.196 1.979c-.342.404-.797.772-1.386 1.1-.57.331-1.216.59-1.926.776a8.31 8.31 0 0 1-2.142.282Zm19.318-6.902v6.677h-2.374V7.468h2.374v6.722h7.654V7.468h2.374v15.739H142.2V16.53h-7.654Zm24.879 2.765-1.462 3.912h-2.412l5.945-15.739h2.411l5.907 15.739h-2.507l-1.462-3.912h-6.42Zm5.565-2.338-1.215-3.24c-.038-.102-.115-.357-.247-.763-.114-.405-.266-.854-.418-1.348a23.641 23.641 0 0 1-.437-1.36c-.019-.016-.019-.032-.019-.048-.019.063-.038.127-.076.193-.114.39-.247.803-.38 1.237-.152.435-.285.844-.418 1.225l-.322.956-1.178 3.148h4.71Zm17.624 6.25v-13.4h-4.311V7.469h11.129v2.34h-4.444v13.399h-2.374Z" fill="#3F3F46"></path>
  <path fill-rule="evenodd" clip-rule="evenodd" d="M12.17 0v9l-4.35 2.5v9l4.35 2.5v9L0 25.005.015 6.987 12.17 0Z" fill="#9346CF"></path>
  <path fill-rule="evenodd" clip-rule="evenodd" d="M7.82 11.5 12.17 9 20 13.5 15.65 16l-7.83-4.5Zm0 9 4.35 2.5L20 18.5 15.65 16l-7.83 4.5Z" fill="#572B7A"></path>
  <path fill-rule="evenodd" clip-rule="evenodd" d="M12.17 0v9L20 13.5v-9L12.17 0Zm0 23v9L20 27.5v-9L12.17 23Z" fill="#D4B5EC"></path>
</svg>
