<svg xmlns="http://www.w3.org/2000/svg" xmlns:xlink="http://www.w3.org/1999/xlink" version="1.1" baseProfile="basic" id="Layer_1" x="0px" y="0px" viewBox="0 0 664.9 161.3" xml:space="preserve" width="664.9"  height="161.3" >
<g>
	
		<linearGradient id="SVGID_1_" gradientUnits="userSpaceOnUse" x1="-165.1135" y1="573.6164" x2="-164.1135" y2="573.6164" gradientTransform="matrix(129.03 0 0 -54.12 21304.5918 31171.8984)">
		<stop offset="0" style="stop-color:#8930FD"/>
		<stop offset="1" style="stop-color:#49CCF9"/>
	</linearGradient>
	<path fill="url(#SVGID_1_)" d="M0,119l23.8-18.2c12.6,16.5,26.1,24.1,41.1,24.1c14.9,0,27.9-7.5,40-23.9l24.2,17.8   c-17.4,23.6-39.1,36.1-64.2,36.1C39.9,154.8,18,142.4,0,119z"/>
	
		<linearGradient id="SVGID_00000068648396004387146440000005038361072953341887_" gradientUnits="userSpaceOnUse" x1="-165.0573" y1="575.8544" x2="-164.0573" y2="575.8544" gradientTransform="matrix(123.63 0 0 -76.2 20408.8418 43918.207)">
		<stop offset="0" style="stop-color:#FF02F0"/>
		<stop offset="1" style="stop-color:#FFC800"/>
	</linearGradient>
	<path fill="url(#SVGID_00000068648396004387146440000005038361072953341887_)" d="M64.8,39.7L22.4,76.2L2.8,53.5L64.9,0l61.6,53.5   l-19.7,22.6L64.8,39.7z"/>
	<path fill="#111111" d="M220.3,132.3c-14.5,0-26.5-4.7-36.3-14.1c-9.8-9.5-14.6-21.7-14.6-36.6c0-15,4.9-27.3,14.7-37   c9.9-9.8,22-14.6,36.3-14.6c17.7,0,33.4,7.6,42.5,19.6l-16,16.8c-7.6-8.2-15.9-12.3-24.9-12.3c-7.6,0-13.9,2.5-19.2,7.8   c-5.1,5.2-7.6,11.8-7.6,19.7c0,7.6,2.5,14.1,7.6,19.3c5.2,5.1,11.5,7.6,19,7.6c9.8,0,18.4-4.3,25.5-12.7l16.6,15.9   c-4.6,6-10.7,11-18.4,14.9C238,130.4,229.6,132.3,220.3,132.3L220.3,132.3z M292.1,28.6v102.2h-23.6V28.6   C268.6,28.6,292.1,28.6,292.1,28.6z M314.5,50.3c-7.9,0-13.7-5.8-13.7-13.7c0-7.6,6-13.4,13.7-13.4c7.6,0,13.5,5.8,13.5,13.4   C328,44.5,322.1,50.3,314.5,50.3L314.5,50.3z M326.4,56.9v74h-23.7v-74C302.7,56.9,326.4,56.9,326.4,56.9z M371.8,132.4   c-11.7,0-21-3.6-28.4-10.9c-7.2-7.2-10.9-16.5-10.9-27.9s3.6-20.6,11-27.9c7.4-7.2,16.9-10.8,28.7-10.8c15.4,0,29,7.5,35.2,21.6   l-18.9,9.9c-3.8-6.3-9-9.5-15.8-9.5c-5,0-9,1.6-12.2,4.8c-3.1,3.2-4.8,7.5-4.7,11.9c0,9.8,7.1,17,16.6,17c6.8,0,13.1-3.8,15.8-9.5   l18.9,11.2C400.8,124.8,387.5,132.4,371.8,132.4L371.8,132.4z M489.5,130.8h-28.1l-21.9-29.3l-3.5,3.2v26.1h-23.6V28.6H436v49.7   l22.2-21.4H487l-31.8,29.7L489.5,130.8z M491,92.4V31.8h25.2V92c0,11.1,6.4,16.5,15.7,16.5c9.1,0,15.5-5.6,15.5-16.5V31.8h25.3   v60.6c0,29.2-20.2,40.2-40.9,40.2C511.4,132.6,491,121.6,491,92.4z M628.8,55c10.6,0,19.2,3.8,26,11.2c6.8,7.4,10.2,16.6,10.2,27.5   c0,10.9-3.5,20.1-10.3,27.7c-6.8,7.5-15.4,11.3-25.7,11.3c-8.2,0-15.3-2.7-21-8v36.6h-23.7V56.9h23.3v6.8   C613.2,57.9,620.3,55,628.8,55L628.8,55z M640.8,94c0-9.7-7-17-16.6-17c-9.7,0-16.8,7.4-16.8,17c0,4.7,1.6,8.7,4.7,12.1   c3.2,3.3,7.2,5,12.1,5c4.8,0,8.8-1.6,11.9-5C639.2,102.8,640.9,98.5,640.8,94L640.8,94z"/>
</g>
</svg>