<svg xmlns:xlink="http://www.w3.org/1999/xlink" xmlns="http://www.w3.org/2000/svg" id="Layer_2" data-name="Layer 2" viewBox="0 0 322.19 107.33" width="322.19"  height="107.33" >
  <defs>
    <style>
      .cls-1 {
        fill: #1b1b1b;
      }

      .cls-2 {
        fill: #254078;
      }

      .cls-2, .cls-3, .cls-4 {
        fill-rule: evenodd;
      }

      .cls-3 {
        fill: #ff62fd;
      }

      .cls-4 {
        fill: #0078ff;
      }
    </style>
  </defs>
  <g id="craft_logopack">
    <g id="craft_logotype_regular">
      <path class="cls-2" d="m57.16,104.15c0,1.76,1.42,3.18,3.18,3.18h43.9c1.76,0,3.19-1.43,3.08-3.18-1.58-25.23-21.76-45.41-46.99-46.99-1.75-.11-3.18,1.33-3.18,3.08v43.9Z"/>
      <path class="cls-2" d="m50.17,60.34c0-1.76-1.42-3.18-3.18-3.18H3.09c-1.76,0-3.19,1.43-3.08,3.18,1.58,25.23,21.76,45.41,46.99,46.99,1.75.11,3.18-1.33,3.18-3.08v-43.9Z"/>
      <path class="cls-3" d="m50.17,46.99c0,1.76-1.42,3.18-3.18,3.18H3.09c-1.76,0-3.19-1.43-3.08-3.18C1.58,21.77,21.76,1.58,46.99,0c1.75-.11,3.18,1.33,3.18,3.08v43.9Z"/>
      <path class="cls-4" d="m57.16,3.18c0-1.76,1.42-3.18,3.18-3.18h43.9c1.76,0,3.19,1.43,3.08,3.18-1.58,25.23-21.76,45.41-46.99,46.99-1.75.11-3.18-1.33-3.18-3.08V3.18Z"/>
      <path class="cls-1" d="m161.28,49.45c-1.98-4.29-5.57-6.44-10.42-6.44-6.47,0-10.78,5.19-10.78,11.81s4.67,11.81,11.13,11.81c4.67,0,7.9-2.15,10.06-6.26h14.19c-2.69,11.63-12.75,19.14-24.6,19.14-13.83,0-24.6-11.09-24.6-24.87s10.95-24.69,24.42-24.69c12.21,0,22.27,7.69,24.78,19.5h-14.19Z"/>
      <path class="cls-1" d="m181.57,77.89V31.56h13.11v5.01h.18c2.51-5.01,6.29-6.44,11.67-6.44v13.95c-8.26,0-10.95,3.22-10.95,8.41v25.58h-14.01v-.18Z"/>
      <path class="cls-1" d="m246.05,54.63c0-6.44-5.21-11.81-11.85-11.81s-11.49,5.19-11.49,11.99c0,6.44,5.21,11.63,11.67,11.63,6.64.18,11.67-5.01,11.67-11.81Zm0,23.26v-5.01h-.18c-1.98,4.11-7.54,6.62-13.65,6.62-13.83,0-23.35-10.73-23.35-24.87s10.06-24.69,23.35-24.69c5.75,0,10.95,2.33,13.65,6.44h.18v-5.01h14.01v46.33h-14.01v.18Z"/>
      <path class="cls-1" d="m300.82,77.89v-33.99h-15.09v33.99h-14.01v-33.99h-6.11v-12.34h6.11v-1.07c0-9.48,5.03-14.31,18.14-14.31h.9v10.38c-4.13,0-5.21,1.97-5.21,5.01h15.09v-15.38h14.01v15.38h7.54v12.34h-7.54v33.99h-13.83Z"/>
    </g>
  </g>
</svg>