<svg xmlns:xlink="http://www.w3.org/1999/xlink" xmlns="http://www.w3.org/2000/svg" width="268" height="78" viewBox="0 0 268 78" fill="none">
<path d="M99.6643 38.844C99.6643 38.428 99.803 38.064 100.08 37.752C100.392 37.44 100.756 37.284 101.172 37.284H113.548C112.924 35.724 111.902 34.4587 110.48 33.488C109.059 32.4827 107.464 31.98 105.696 31.98C104.24 31.98 102.888 32.3267 101.64 33.02C100.392 33.7133 99.3697 34.6667 98.5723 35.88C97.9483 36.8507 97.5323 37.9253 97.3243 39.104C97.2897 39.312 97.255 39.5373 97.2203 39.78C97.2203 39.988 97.2203 40.2133 97.2203 40.456C97.2203 41.6347 97.4457 42.744 97.8963 43.784C98.347 44.7893 98.9537 45.6733 99.7163 46.436C100.479 47.1987 101.363 47.8053 102.368 48.256C103.408 48.7067 104.518 48.932 105.696 48.932C107.014 48.932 108.262 48.6373 109.44 48.048C110.654 47.4587 111.659 46.6267 112.456 45.552C112.63 45.3093 112.786 45.0493 112.924 44.772C113.098 44.4947 113.254 44.2173 113.392 43.94C113.566 43.5587 113.843 43.2987 114.224 43.16C114.64 43.0213 115.039 43.0387 115.42 43.212C115.802 43.3853 116.062 43.68 116.2 44.096C116.374 44.4773 116.374 44.8587 116.2 45.24C115.819 46.072 115.386 46.8 114.9 47.424C113.791 48.88 112.439 50.0067 110.844 50.804C109.25 51.6013 107.534 52 105.696 52C104.102 52 102.594 51.7053 101.172 51.116C99.7857 50.492 98.5723 49.66 97.5323 48.62C96.4923 47.58 95.6603 46.3667 95.0363 44.98C94.447 43.5587 94.1523 42.0507 94.1523 40.456C94.1523 39.832 94.2043 39.208 94.3083 38.584C94.447 37.7867 94.6377 37.0413 94.8803 36.348C95.1577 35.62 95.5217 34.9267 95.9723 34.268C97.047 32.5693 98.4337 31.252 100.132 30.316C101.866 29.38 103.72 28.912 105.696 28.912C107.118 28.912 108.47 29.1547 109.752 29.64C111.035 30.1253 112.179 30.8013 113.184 31.668C114.19 32.5 115.039 33.5227 115.732 34.736C116.426 35.9147 116.876 37.1973 117.084 38.584C117.154 39 117.067 39.3813 116.824 39.728C116.582 40.0747 116.252 40.2827 115.836 40.352C115.836 40.352 115.611 40.352 115.16 40.352C114.744 40.352 114.19 40.3693 113.496 40.404C112.803 40.404 112.006 40.404 111.104 40.404C110.238 40.404 109.354 40.404 108.452 40.404H101.172C100.756 40.404 100.392 40.248 100.08 39.936C99.803 39.624 99.6643 39.26 99.6643 38.844ZM131.64 28.912C132.923 28.912 134.136 29.1547 135.28 29.64C136.424 30.1253 137.412 30.8013 138.244 31.668C139.111 32.5347 139.787 33.54 140.272 34.684C140.757 35.828 141 37.0413 141 38.324V50.44C141 50.856 140.844 51.22 140.532 51.532C140.255 51.8093 139.908 51.948 139.492 51.948C139.076 51.948 138.712 51.8093 138.4 51.532C138.088 51.22 137.932 50.856 137.932 50.44V38.324C137.932 37.4573 137.759 36.6427 137.412 35.88C137.1 35.0827 136.649 34.4067 136.06 33.852C135.505 33.2627 134.847 32.812 134.084 32.5C133.321 32.1533 132.507 31.98 131.64 31.98C131.016 31.98 130.392 32.0667 129.768 32.24C129.352 32.3787 128.953 32.344 128.572 32.136C128.225 31.928 127.983 31.6333 127.844 31.252C127.705 30.836 127.74 30.4547 127.948 30.108C128.156 29.7267 128.468 29.4667 128.884 29.328C129.82 29.0507 130.739 28.912 131.64 28.912ZM123.736 28.964C124.187 28.964 124.551 29.12 124.828 29.432C125.14 29.7093 125.296 30.056 125.296 30.472V50.492C125.296 50.908 125.14 51.272 124.828 51.584C124.551 51.8613 124.187 52 123.736 52C123.32 52 122.956 51.8613 122.644 51.584C122.367 51.272 122.228 50.908 122.228 50.492V30.472C122.228 30.056 122.367 29.7093 122.644 29.432C122.956 29.12 123.32 28.964 123.736 28.964ZM166.263 32.708C166.54 33.02 166.679 33.4013 166.679 33.852C166.679 34.268 166.505 34.6147 166.159 34.892C165.916 35.1347 165.587 35.256 165.171 35.256C164.72 35.256 164.339 35.1 164.027 34.788C163.229 33.8867 162.276 33.1933 161.167 32.708C160.092 32.2227 158.948 31.98 157.735 31.98C156.556 31.98 155.464 32.2053 154.459 32.656C153.973 32.864 153.488 33.124 153.003 33.436C152.725 33.6093 152.431 33.696 152.119 33.696C151.633 33.696 151.217 33.4707 150.871 33.02C150.628 32.6387 150.541 32.2573 150.611 31.876C150.68 31.46 150.905 31.1307 151.287 30.888C151.599 30.68 151.911 30.4893 152.223 30.316C152.535 30.1427 152.881 29.9693 153.263 29.796C154.719 29.2067 156.209 28.912 157.735 28.912C159.364 28.912 160.907 29.2413 162.363 29.9C163.853 30.5587 165.153 31.4947 166.263 32.708ZM157.735 48.932C158.151 48.932 158.497 49.088 158.775 49.4C159.087 49.6773 159.243 50.0413 159.243 50.492C159.243 50.908 159.087 51.272 158.775 51.584C158.497 51.8613 158.151 52 157.735 52C156.14 52 154.632 51.7053 153.211 51.116C151.824 50.492 150.611 49.66 149.571 48.62C148.531 47.58 147.699 46.3667 147.075 44.98C146.485 43.5587 146.191 42.0507 146.191 40.456C146.191 38.7227 146.572 37.0413 147.335 35.412C147.543 35.0307 147.837 34.7707 148.219 34.632C148.635 34.4933 149.033 34.5107 149.415 34.684C149.796 34.8573 150.056 35.152 150.195 35.568C150.333 35.9493 150.299 36.3307 150.091 36.712C149.536 37.9947 149.259 39.2427 149.259 40.456C149.259 41.6347 149.484 42.744 149.935 43.784C150.385 44.7893 150.992 45.6733 151.755 46.436C152.517 47.1987 153.401 47.8053 154.407 48.256C155.447 48.7067 156.556 48.932 157.735 48.932ZM183.841 48.36C184.222 48.1867 184.604 48.1867 184.985 48.36C185.401 48.4987 185.696 48.7587 185.869 49.14C186.042 49.5213 186.042 49.92 185.869 50.336C185.73 50.7173 185.47 50.9947 185.089 51.168C183.945 51.7227 182.662 52 181.241 52C179.924 52 178.693 51.7573 177.549 51.272C176.44 50.7867 175.452 50.1107 174.585 49.244C173.718 48.3773 173.042 47.3893 172.557 46.28C172.072 45.136 171.829 43.9053 171.829 42.588V30.472C171.829 30.056 171.968 29.7093 172.245 29.432C172.557 29.12 172.921 28.964 173.337 28.964C173.788 28.964 174.152 29.12 174.429 29.432C174.741 29.7093 174.897 30.056 174.897 30.472V42.588C174.897 43.4893 175.053 44.3213 175.365 45.084C175.712 45.8467 176.162 46.5227 176.717 47.112C177.306 47.6667 177.982 48.1173 178.745 48.464C179.508 48.776 180.34 48.932 181.241 48.932C182.108 48.932 182.974 48.7413 183.841 48.36ZM189.093 28.912C189.509 28.912 189.856 29.068 190.133 29.38C190.445 29.6573 190.601 30.0213 190.601 30.472V50.44C190.601 50.856 190.445 51.22 190.133 51.532C189.856 51.8093 189.509 51.948 189.093 51.948C188.677 51.948 188.313 51.8093 188.001 51.532C187.689 51.22 187.533 50.856 187.533 50.44V30.472C187.533 30.0213 187.689 29.6573 188.001 29.38C188.313 29.068 188.677 28.912 189.093 28.912ZM207.638 29.12C209.198 29.12 210.671 29.432 212.058 30.056C213.444 30.6453 214.658 31.46 215.698 32.5C216.738 33.54 217.552 34.7533 218.142 36.14C218.766 37.5267 219.078 39 219.078 40.56C219.078 42.12 218.766 43.5933 218.142 44.98C217.552 46.3667 216.738 47.58 215.698 48.62C214.658 49.66 213.444 50.492 212.058 51.116C210.671 51.7053 209.198 52 207.638 52C205.523 52 203.547 51.4453 201.71 50.336C201.363 50.128 201.138 49.8333 201.034 49.452C200.93 49.036 200.999 48.6373 201.242 48.256C201.45 47.8747 201.744 47.6493 202.126 47.58C202.542 47.476 202.94 47.528 203.322 47.736C204.604 48.568 206.043 48.984 207.638 48.984C208.782 48.984 209.856 48.7587 210.862 48.308C211.902 47.8573 212.803 47.2507 213.566 46.488C214.328 45.7253 214.918 44.8413 215.334 43.836C215.784 42.796 216.01 41.704 216.01 40.56C216.01 39.416 215.784 38.3413 215.334 37.336C214.918 36.296 214.328 35.3947 213.566 34.632C212.803 33.8693 211.902 33.28 210.862 32.864C209.856 32.4133 208.782 32.188 207.638 32.188C206.494 32.188 205.402 32.4133 204.362 32.864C203.356 33.28 202.472 33.8693 201.71 34.632C200.947 35.3947 200.34 36.296 199.89 37.336C199.439 38.3413 199.214 39.416 199.214 40.56V50.492C199.214 50.908 199.058 51.272 198.746 51.584C198.468 51.8613 198.122 52 197.706 52C197.29 52 196.926 51.8613 196.614 51.584C196.336 51.272 196.198 50.908 196.198 50.492V17.212C196.198 16.796 196.336 16.4493 196.614 16.172C196.926 15.86 197.29 15.704 197.706 15.704C198.122 15.704 198.468 15.86 198.746 16.172C199.058 16.4493 199.214 16.796 199.214 17.212V32.812C200.288 31.7027 201.536 30.8187 202.958 30.16C204.414 29.4667 205.974 29.12 207.638 29.12ZM229.684 38.844C229.684 38.428 229.823 38.064 230.1 37.752C230.412 37.44 230.776 37.284 231.192 37.284H243.568C242.944 35.724 241.921 34.4587 240.5 33.488C239.079 32.4827 237.484 31.98 235.716 31.98C234.26 31.98 232.908 32.3267 231.66 33.02C230.412 33.7133 229.389 34.6667 228.592 35.88C227.968 36.8507 227.552 37.9253 227.344 39.104C227.309 39.312 227.275 39.5373 227.24 39.78C227.24 39.988 227.24 40.2133 227.24 40.456C227.24 41.6347 227.465 42.744 227.916 43.784C228.367 44.7893 228.973 45.6733 229.736 46.436C230.499 47.1987 231.383 47.8053 232.388 48.256C233.428 48.7067 234.537 48.932 235.716 48.932C237.033 48.932 238.281 48.6373 239.46 48.048C240.673 47.4587 241.679 46.6267 242.476 45.552C242.649 45.3093 242.805 45.0493 242.944 44.772C243.117 44.4947 243.273 44.2173 243.412 43.94C243.585 43.5587 243.863 43.2987 244.244 43.16C244.66 43.0213 245.059 43.0387 245.44 43.212C245.821 43.3853 246.081 43.68 246.22 44.096C246.393 44.4773 246.393 44.8587 246.22 45.24C245.839 46.072 245.405 46.8 244.92 47.424C243.811 48.88 242.459 50.0067 240.864 50.804C239.269 51.6013 237.553 52 235.716 52C234.121 52 232.613 51.7053 231.192 51.116C229.805 50.492 228.592 49.66 227.552 48.62C226.512 47.58 225.68 46.3667 225.056 44.98C224.467 43.5587 224.172 42.0507 224.172 40.456C224.172 39.832 224.224 39.208 224.328 38.584C224.467 37.7867 224.657 37.0413 224.9 36.348C225.177 35.62 225.541 34.9267 225.992 34.268C227.067 32.5693 228.453 31.252 230.152 30.316C231.885 29.38 233.74 28.912 235.716 28.912C237.137 28.912 238.489 29.1547 239.772 29.64C241.055 30.1253 242.199 30.8013 243.204 31.668C244.209 32.5 245.059 33.5227 245.752 34.736C246.445 35.9147 246.896 37.1973 247.104 38.584C247.173 39 247.087 39.3813 246.844 39.728C246.601 40.0747 246.272 40.2827 245.856 40.352C245.856 40.352 245.631 40.352 245.18 40.352C244.764 40.352 244.209 40.3693 243.516 40.404C242.823 40.404 242.025 40.404 241.124 40.404C240.257 40.404 239.373 40.404 238.472 40.404H231.192C230.776 40.404 230.412 40.248 230.1 39.936C229.823 39.624 229.684 39.26 229.684 38.844Z" fill="black"/>
</svg>