<svg xmlns:xlink="http://www.w3.org/1999/xlink" xmlns="http://www.w3.org/2000/svg" id="Layer_1" data-name="Layer 1" viewBox="0 0 1864.99 285.53" width="1864.99"  height="285.53" ><defs><style>.cls-1{fill:#0093ef;}</style></defs><path class="cls-1" d="M525.7,78.38A58.06,58.06,0,0,0,504.38,74q-27.7,0-27.7,30.07v19.86h42.65v42.46H476.68V310.53h-57.4V166.39H387.94V123.93h31.34V100.79q0-31.89,20.78-51.39t56.49-19.5q17.49,0,29.15,3.65Z" transform="translate(-28.93 -29.56)"/><path class="cls-1" d="M628.49,315.09q-46.65,0-73.35-26.15t-26.69-71q0-46.28,27.69-72.43T631,119.38q46.47,0,72.89,26.15t26.42,69.15q0,46.47-27.24,73.44T628.49,315.09ZM630,163.48q-20.41,0-31.71,14t-11.3,39.72q0,53.76,43.37,53.76,41.37,0,41.36-55.21Q671.67,163.48,630,163.48Z" transform="translate(-28.93 -29.56)"/><path class="cls-1" d="M874.51,175.87q-10.39-5.66-24.24-5.65-18.76,0-29.34,13.76t-10.57,37.44v89.11H752.78V123.93h57.58v34.63h.73q13.67-37.91,49.2-37.91c6.08,0,10.81.73,14.22,2.19Z" transform="translate(-28.93 -29.56)"/><path class="cls-1" d="M1189.38,310.53H1132V204.11q0-40.63-29.88-40.63-14.22,0-23.15,12.21T1070,206.12V310.53h-57.59V203q0-39.54-29.34-39.54a28.12,28.12,0,0,0-23.59,11.66q-8.85,11.67-8.84,31.71V310.53H893.08V123.93h57.59v29.16h.73a70.66,70.66,0,0,1,60.31-33.71q39.54,0,54.12,34.8,21.33-34.8,62.69-34.8,60.86,0,60.86,75.08Z" transform="translate(-28.93 -29.56)"/><path class="cls-1" d="M1249.17,94.41q-14.58,0-23.87-8.65a27.88,27.88,0,0,1-9.3-21.23q0-12.95,9.3-21.14t23.87-8.2q14.76,0,24,8.2t9.21,21.14q0,13.11-9.21,21.5T1249.17,94.41Zm28.43,216.12H1220V123.93h57.59Z" transform="translate(-28.93 -29.56)"/><path class="cls-1" d="M1431.4,308.35q-12.76,6.73-38.45,6.74-60.87,0-60.86-63.23V166.39h-30.25V123.93h30.25V83.66l57.4-16.4v56.67h41.91v42.46h-41.91v75.44q0,29.16,23.14,29.16,9.11,0,18.77-5.28Z" transform="translate(-28.93 -29.56)"/><path class="cls-1" d="M1485.53,94.41q-14.58,0-23.87-8.65a27.88,27.88,0,0,1-9.3-21.23q0-12.95,9.3-21.14t23.87-8.2q14.76,0,24,8.2t9.2,21.14q0,13.11-9.2,21.5T1485.53,94.41ZM1514,310.53h-57.59V123.93H1514Z" transform="translate(-28.93 -29.56)"/><path class="cls-1" d="M1702.75,310.53H1535.28V286.66L1629,166.39h-84.37V123.93H1702v28.43l-88.74,115.71h89.47Z" transform="translate(-28.93 -29.56)"/><path class="cls-1" d="M1893.91,233.63H1772.19q2.91,40.65,51.2,40.64,30.79,0,54.12-14.58v41.55q-25.87,13.85-67.24,13.85-45.19,0-70.15-25.06t-25-69.88q0-46.47,27-73.62t66.33-27.15q40.82,0,63.14,24.23t22.32,65.79Zm-53.39-35.35q0-40.08-32.43-40.09-13.86,0-24,11.48t-12.3,28.61Z" transform="translate(-28.93 -29.56)"/><path class="cls-1" d="M327.51,282.14H43.12a14.2,14.2,0,0,0,0,28.39H327.51a14.2,14.2,0,1,0,0-28.39Z" transform="translate(-28.93 -29.56)"/><path class="cls-1" d="M327.51,224.25H43.12a14.2,14.2,0,0,0,0,28.4H327.51a14.2,14.2,0,0,0,0-28.4Z" transform="translate(-28.93 -29.56)"/><path class="cls-1" d="M43.12,194.76H327.51a14.2,14.2,0,1,0,0-28.39H43.12a14.2,14.2,0,0,0,0,28.39Z" transform="translate(-28.93 -29.56)"/><path class="cls-1" d="M58.25,144.42c0-.28,0-.55,0-.84A85.57,85.57,0,0,1,226.8,122.77a55.48,55.48,0,0,1,27.27-8.33s0-.06,0-.09c1-.06,2-.19,3-.19a53.6,53.6,0,0,1,43.57,22.46,56.4,56.4,0,0,1,4.94,7.8h30.17a81.84,81.84,0,0,0-93-57.36,114,114,0,0,0-213,56.52c0,.29,0,.56,0,.84Z" transform="translate(-28.93 -29.56)"/></svg>