<svg xmlns:xlink="http://www.w3.org/1999/xlink" role="presentation" width="169" height="68" viewBox="0 0 169 68" fill="none" xmlns="http://www.w3.org/2000/svg">
<mask id="mask0_1154_2939" style="mask-type:alpha" maskUnits="userSpaceOnUse" x="0" y="0" width="169" height="68" fill="none">
<rect x="0.5" width="168" height="68" fill="#CCCCCC"></rect>
</mask>
<g mask="url(#mask0_1154_2939)" fill="none">
<path d="M140.154 25.54V28.2651C138.548 26.1746 136.122 25.0547 133.098 25.0547C127.387 25.0547 123.094 29.609 123.094 35.8058C123.094 42.1519 127.349 46.8181 133.098 46.8181C136.122 46.8181 138.548 45.6236 140.154 43.4958V46.2955H144.409V25.54H140.154ZM133.957 43.0478C130.186 43.0478 127.536 40.0614 127.536 35.8431C127.536 31.7368 130.149 28.8997 133.957 28.8997C137.54 28.8997 140.303 31.8114 140.303 35.9551C140.303 40.0614 137.578 43.0478 133.957 43.0478Z" fill="black"></path>
<path d="M120.261 35.3951C120.261 29.2357 116.117 25.0547 109.883 25.0547C103.462 25.0547 98.9453 29.5343 98.9453 35.8804C98.9453 42.3758 103.35 46.7808 109.771 46.7808C114.587 46.7808 118.245 44.3917 119.701 40.1734H115.035C114.101 42.0772 112.309 43.0851 109.808 43.0851C106.337 43.0851 103.836 40.8453 103.5 37.5229H120.149C120.223 36.9257 120.261 36.2164 120.261 35.3951ZM103.5 34.0512C103.948 30.9902 106.561 28.713 109.883 28.713C113.504 28.713 115.856 30.9155 115.893 34.0512H103.5Z" fill="black"></path>
<path d="M148.812 46.2955H153.18V34.6112C153.18 31.1022 155.42 28.8624 158.892 28.8624C162.102 28.8624 163.782 30.8035 163.782 34.6112V46.3328H168.149V34.0139C168.149 28.4891 164.939 25.0547 159.676 25.0547C156.876 25.0547 154.636 26.1746 153.18 28.1531V25.54H148.812V46.2955Z" fill="black"></path>
<path d="M33.6187 16.2077C28.7285 14.7518 24.1742 14.1172 19.06 14.1172C13.3485 14.1172 7.59965 15.0504 4.09062 17.5889C1.62683 19.4181 0.65625 21.3219 0.65625 24.4203C0.65625 32.1476 6.81571 44.3919 13.2365 49.6554C15.551 51.5593 18.0147 52.3805 21.3744 52.3805C30.6323 52.3805 43.3619 45.7358 46.7216 39.2777C47.8788 37.0752 48.4761 34.4994 48.4761 31.961C48.5134 24.1963 43.8472 19.2314 33.6187 16.2077ZM12.1539 31.3264C8.79421 31.3264 6.44241 28.9372 6.44241 25.6149C6.44241 22.2925 8.83154 19.9034 12.1539 19.9034C15.5136 19.9034 17.8654 22.2925 17.8654 25.6149C17.8654 28.9746 15.5136 31.3264 12.1539 31.3264Z" fill="black"></path>
<path d="M95.3598 19.8984H90.9922V46.2908H95.3598V19.8984Z" fill="black"></path>
<path d="M73.8243 46.8916C81.589 46.8916 87.3378 41.0681 87.3378 33.2288C87.3378 32.7062 87.3378 32.0342 87.2631 31.325H72.2938V35.2073H82.6715C82.0369 39.9482 78.7145 42.8226 73.8243 42.8226C68.2994 42.8226 64.6038 38.8657 64.6038 33.0795C64.6038 27.256 68.2994 23.3363 73.8243 23.3363C77.184 23.3363 79.8344 24.7922 81.1783 27.4053H86.3672C84.3887 22.3284 79.7224 19.3047 73.8243 19.3047C65.9476 19.3047 59.9375 25.2775 59.9375 33.0795C59.9375 41.2175 65.7237 46.8916 73.8243 46.8916Z" fill="black"></path>
</g>
</svg>