<svg fill="none" height="40" viewBox="0 0 90 40" width="90" xmlns="http://www.w3.org/2000/svg"><path d="m45.3305 31.6216c-.9188-.6969-1.865-1.4182-4.3247-2.0773-2.4597-.659-3.6477-.5096-4.7839-.3634-.3255.0404-.6589.0786-1.014.1025-1.111.7823-1.8719 2.0667-2.0349 3.4687-.0952.7994.4241 1.5593 1.2096 1.7698.0793.0212.1608.0346.2502.05.8332.0957 1.5229-.0342 2.0681-.2282.1228.8748.5215 1.9256 1.6089 2.7867.175.1404.3706.2354.5928.2949s.4391.0752.6608.041c1.3702-.1941 2.2431-.9127 2.7868-1.6089.3751.4407.9095.89 1.6769 1.2317.0751.0371.1544.0584.2417.0818.7855.2105 1.6151-.188 1.9324-.9279.5519-1.2978.5431-2.7884-.0279-4.0214-.3115-.2025-.5731-.4002-.8428-.6z" fill="#73e5bf"/><path d="m81.6786 31.05c-1.6347 0-2.5793-.3861-3.4993-.7557-1.0679-.4354-2.1686-.8872-4.715-.8872s-3.6554.4518-4.715.8872c-.9118.3696-1.8564.7557-3.4993.7557-1.8646 0-3.3021-.4929-4.2796-1.4704s-1.4704-2.415-1.4704-4.2796c0-.0575.0082-5.4625.8296-10.8018 1.1665-7.54891 3.3679-11.37677 6.5633-11.37677 1.9796 0 3.031 1.04321 3.8689 1.88107.7803.78857 1.3964 1.40464 2.7025 1.40464s1.9221-.61607 2.7025-1.40464c.8379-.83786 1.8893-1.88107 3.8689-1.88107 3.1954 0 5.3968 3.82786 6.5632 11.37677.8215 5.3393.8297 10.7525.8297 10.8018 0 1.8646-.4929 3.3021-1.4704 4.2796s-2.415 1.4704-4.2796 1.4704z" fill="#ff4070"/><path d="m48.1944 32.7172c-1.5789-.4231-2.3915-1.0405-3.1844-1.6357-.9188-.6969-1.8651-1.4182-4.3248-2.0772-2.4596-.6591-3.6477-.5097-4.7839-.3634-.9764.121-1.9888.2494-3.5757-.1758-1.8011-.4826-3.062-1.3307-3.7532-2.5279s-.7952-2.7132-.3126-4.5143c1.2564-4.6893 4.2128-9.6289 7.9072-13.19711 3.9354-3.80132 8.0604-5.48536 11.3215-4.61157 3.261.87379 5.9913 4.39471 7.4989 9.65448 1.4132 4.9453 1.5058 10.6934.2493 15.3826-.4826 1.8011-1.3307 3.0621-2.5279 3.7533s-2.7133.7952-4.5144.3126z" fill="#ff4070"/><path d="m14.3214 31.05c-2.7435 0-5.5364-.92-7.68033-2.53-2.46428-1.84-3.81964-4.4439-3.81964-7.3271 0-2.2754 1.28964-4.9286 4.92857-4.9286 2.00429 0 2.4643-.46 2.4643-2.4643v-3.2857c0-5.38858 2.0043-7.39287 7.3928-7.39287 5.3886 0 7.3929 2.00429 7.3929 7.39287v9.8571c0 3.4993-.9118 6.1772-2.7025 7.9761-1.7989 1.7907-4.4768 2.7025-7.9761 2.7025z" fill="#ff4070"/><g fill="#2a3632"><path d="m39.182 17.7299c-.3967-.1063-1.1901-.3189-1.7216 1.6647-.5316 1.9836.2619 2.1962.6586 2.3025s1.1902.3189 1.7217-1.6647-.262-2.1962-.6587-2.3025z"/><path d="m46.323 19.6433c-.3968-.1063-1.1902-.3189-1.7217 1.6647s.2619 2.1962.6587 2.3025c.3967.1063 1.1901.3189 1.7216-1.6647s-.2619-2.1962-.6586-2.3025z"/><path d="m44.4533 12.3391c-.3967-.1063-1.1902-.3189-1.7217 1.6647s.262 2.1962.6587 2.3025 1.1902.3189 1.7217-1.6647-.262-2.1962-.6587-2.3025z"/><path d="m80.0357 3.94286c6.5715 0 6.5715 21.35714 6.5715 21.35714 0 3.2857-1.6429 4.9286-4.9286 4.9286s-3.2857-1.6429-8.2143-1.6429-4.9286 1.6429-8.2143 1.6429-4.9286-1.6429-4.9286-4.9286c0 0 0-21.35714 6.5715-21.35714 3.2857 0 3.2857 3.28571 6.5714 3.28571s3.2857-3.28571 6.5714-3.28571zm0-1.64286c-2.3246 0-3.5485 1.22393-4.4439 2.1275-.805.805-1.2075 1.15822-2.1275 1.15822s-1.3225-.35322-2.1275-1.15822c-.8954-.90357-2.1193-2.1275-4.4439-2.1275-1.2158 0-2.3165.46-3.2858 1.35536-.7639.70643-1.421 1.6675-2.0042 2.9325-.879 1.91393-1.5854 4.52604-2.0865 7.77894-.8296 5.405-.8378 10.7114-.8378 10.9332 0 2.0864.575 3.7211 1.7168 4.8546 1.1335 1.1418 2.7682 1.7168 4.8546 1.7168 1.7989 0 2.8668-.4353 3.8032-.8214 1.035-.4271 2.0207-.8214 4.4111-.8214s3.3679.4025 4.4111.8214c.9446.3861 2.0043.8214 3.8032.8214 2.0864 0 3.7211-.575 4.8546-1.7168 1.1336-1.1335 1.7168-2.7682 1.7168-4.8546 0-.2218-.0082-5.5282-.8378-10.925-.5011-3.2529-1.1993-5.87321-2.0865-7.77893-.5832-1.265-1.2403-2.22607-2.0043-2.9325-.9692-.90357-2.07-1.36357-3.2857-1.36357z"/><path d="m56.9788 20.9611c-.0566-2.677-.4613-5.3876-1.1595-7.8283-.7245-2.5327-1.7668-4.76797-3.0194-6.47274-1.4612-1.97328-3.1634-3.23729-5.0598-3.74541-1.8963-.50812-4.0025-.26459-6.2467.71584-1.9371.85011-3.9574 2.2647-5.8512 4.09586-1.825 1.76458-3.5308 3.90975-4.9183 6.19975-1.4569 2.3904-2.5658 4.9422-3.2185 7.378-.54 2.0154-.4077 3.7431.4018 5.1336.7994 1.3962 2.2296 2.3747 4.2449 2.9147.3332.0893.639.1543.931.207-.539.774-.8952 1.6905-1.0069 2.6471-.1438 1.203.638 2.348 1.8122 2.6626.1191.0319.2481.058.3735.0661.5709.0594 1.0953.0383 1.5488-.0358.3068.9497.8847 1.7763 1.7068 2.4218.2674.2077.5599.3541.8852.4413s.6597.1087.9873.0604c1.0346-.1479 1.9484-.5749 2.6889-1.2439.3637.293.7994.5714 1.3234.8053.1148.0478.2396.0897.3587.1216 1.1742.3147 2.4237-.286 2.9007-1.3997.3815-.8843.5314-1.8561.4515-2.796.2793.1004.5766.197.9098.2863 2.0153.54 3.7431.4077 5.1336-.4018 1.3941-.7915 2.3726-2.2216 2.9126-4.2369.6527-2.4359.9682-5.2002.9096-7.9967zm-11.8286 14.5019c-.1618.3819-.5774.5682-.9662.464-.0396-.0106-.0793-.0213-.1169-.0398-1.7346-.7625-2.0255-2.1841-2.0255-2.1841s-.5804 2.1661-2.8894 2.4999c-.1138.012-.2233.0082-.3264-.0195-.1032-.0276-.2079-.0812-.2925-.1463-1.8327-1.4436-1.2523-3.6097-1.2523-3.6097s-.9628 1.0857-2.8462.8787c-.0418-.0027-.0815-.0133-.1212-.024-.3887-.1042-.6555-.4733-.6047-.8849.1432-1.1692.7555-2.1532 1.515-2.766.2873-.0251.5588-.0544.8144-.088 1.1103-.1447 2.1645-.2704 4.4734.3483 2.3089.6186 3.1489 1.2604 4.0482 1.9351.2125.159.4229.3259.6613.4833.3513.9106.3976 2.071-.071 3.153zm3.2959-3.4454c-3.1738-.8504-2.7486-2.4373-7.5092-3.7129s-5.1858.3113-8.3596-.5391-4.3354-2.8625-3.485-6.0363c2.5512-9.5212 11.8751-18.92858 18.2226-17.22777s9.7186 14.50977 7.1674 24.03107c-.8504 3.1737-2.8625 4.3354-6.0362 3.485z"/><path d="m17.6071 3.94286c4.9286 0 6.5715 1.64286 6.5715 6.57144v9.8571c0 6.5715-3.2857 9.8572-9.8572 9.8572-4.92854 0-10.67854-3.2857-10.67854-9.0357 0-1.6429.82143-4.1072 4.10714-4.1072 2.4643 0 3.2857-.8214 3.2857-3.2857v-3.2857c0-4.92858 1.6429-6.57144 6.5714-6.57144zm0-1.64286c-3.031 0-4.9696.59143-6.2921 1.92214-1.33071 1.3225-1.92214 3.26108-1.92214 6.29216v3.2857c0 1.1089-.19715 1.3636-.23822 1.4046-.04107.0411-.29571.2383-1.40464.2383-3.97571 0-5.75 2.8914-5.75 5.75 0 3.146 1.47036 5.98 4.14821 7.9842 2.28358 1.7086 5.25719 2.6943 8.17319 2.6943 3.7211 0 6.5961-.9939 8.5511-2.9489s2.9489-4.83 2.9489-8.5511v-9.8571c0-3.03108-.5914-4.96966-1.9221-6.29216-1.3225-1.33071-3.2611-1.92214-6.2922-1.92214z"/></g></svg>