<svg xmlns:xlink="http://www.w3.org/1999/xlink" id="day-logo" class="logo" width="150" height="150" viewBox="0 0 150 150" fill="none" xmlns="http://www.w3.org/2000/svg">
    <path d="M94.9143 102.764H43.325V112.517H94.9143V102.764Z" fill="#DCCCA3" transform="scale(1)" opacity="1" transform-origin="center"></path>
    <path d="M63.8757 91.2441L62.2389 89.6593H58.1772H57.3892V99.3509H71.9384L66.0581 93.4994L63.8757 91.2441Z" fill="#DCCCA3" transform="scale(1)" opacity="1" transform-origin="center"></path>
    <path d="M71.9385 99.3509H94.9142V89.6593H93.5805H81.8199L71.9385 99.3509Z" fill="#DCCCA3" transform="scale(1)" opacity="1" transform-origin="center"></path>
    <path d="M93.5806 86.4288H94.9143V76.7372L85.0935 86.4288H93.5806Z" fill="#DCCCA3" transform="scale(1)" opacity="1" transform-origin="center"></path>
    <path d="M58.3591 85.6973L57.3892 84.7221L65.4519 76.6762H57.3892V86.4288H58.1772H59.026L58.3591 85.6973Z" fill="#DCCCA3" transform="scale(1)" opacity="1" transform-origin="center"></path>
    <path d="M94.9749 115.747H43.325V125.5H94.9749V115.747Z" fill="#DCCCA3" transform="scale(1)" opacity="1" transform-origin="center"></path>
    <path d="M68.5437 50.8929H43.325V60.5845H78.2432L68.5437 50.8929Z" fill="#DCCCA3" transform="scale(1)" opacity="1" transform-origin="center"></path>
    <path d="M78.2432 63.815H43.325V73.5676H68.5437L78.2432 63.815Z" fill="#DCCCA3" transform="scale(1)" opacity="1" transform-origin="center"></path>
    <path d="M40.1121 24.8047H30.4126V86.4288H43.3251V76.6762H40.1121V24.8047Z" fill="#FFA0D6" transform="scale(1)" opacity="1" transform-origin="center"></path>
    <path d="M27.1995 24.8047H17.5V99.3509L43.325 99.4119V89.6593H27.1995V24.8047Z" fill="#FFA0D6" transform="scale(1)" opacity="1" transform-origin="center"></path>
    <path d="M57.3893 76.6763H43.325V86.4288H57.3893V76.6763Z" fill="#FF6B86" transform="scale(1)" opacity="1" transform-origin="center"></path>
    <path d="M57.3893 89.6594H43.325V99.351H57.3893V89.6594Z" fill="#FF6B86" transform="scale(1)" opacity="1" transform-origin="center"></path>
    <path d="M132.5 39.6774L126.014 33.2164L97.1575 62.2302L126.014 91.2441L132.5 84.783L110.07 62.2302L132.5 39.6774Z" fill="#48DEFF" transform="scale(1)" opacity="1" transform-origin="center"></path>
    <path d="M94.9752 64.4855L123.831 93.4994L117.648 99.7167L94.9146 76.7372V76.6762V64.4855" fill="#48DEFF" transform="scale(1)" opacity="1" transform-origin="center"></path>
    <path d="M94.9144 59.9749H94.9751L123.831 30.9611L117.405 24.5L94.9751 47.0528L72.4843 24.5L66.0583 30.9611L85.8818 50.8929H94.9144V59.9749Z" fill="#48DEFF" transform="scale(1)" opacity="1" transform-origin="center"></path>
    <path d="M63.876 33.2164L57.3894 39.6774L68.5439 50.8929H81.4563L63.876 33.2164Z" fill="#48DEFF" transform="scale(1)" opacity="1" transform-origin="center"></path>
    <path d="M94.9143 60.0359L94.9749 59.975H94.9143V60.0359Z" fill="#FFFFFF" transform="scale(1)" opacity="1" transform-origin="center"></path>
    <path d="M94.9143 64.4855H94.9749L94.9143 64.4246V64.4855Z" fill="#FFFFFF" transform="scale(1)" opacity="1" transform-origin="center"></path>
    <path d="M63.8757 33.2164L81.4561 50.8929L63.8757 33.2164Z" fill="#49D3FF" transform="scale(1)" opacity="1" transform-origin="center"></path>
    <path d="M63.8757 33.2164L81.4561 50.8929L63.8757 33.2164Z" fill="#FFFFFF" transform="scale(1)" opacity="1" transform-origin="center"></path>
    <path d="M94.9145 50.8929H85.8818L94.9145 59.975V50.8929Z" fill="#0094FF" transform="scale(1)" opacity="1" transform-origin="center"></path>
    <path d="M69.8775 89.6593L66.0583 93.4994L71.9387 99.3509L81.8201 89.6593H69.8775Z" fill="#0094FF" transform="scale(1)" opacity="1" transform-origin="center"></path>
    <path d="M82.79 76.6762L73.1511 86.4288H85.0937L94.9144 76.7372V76.6762H82.79Z" fill="#0094FF" transform="scale(1)" opacity="1" transform-origin="center"></path>
    <path d="M94.9751 64.4855H94.9145L85.8818 73.5676H94.9145V64.4855" fill="#0094FF" transform="scale(1)" opacity="1" transform-origin="center"></path>
    <path d="M62.2393 89.6593L63.876 91.2441L65.4522 89.6593H62.2393Z" fill="#0094FF" transform="scale(1)" opacity="1" transform-origin="center"></path>
    <path d="M78.3646 76.6762H65.4521L57.3894 84.7221L59.0262 86.4288H68.6651L78.3646 76.6762Z" fill="#0094FF" transform="scale(1)" opacity="1" transform-origin="center"></path>
    <path d="M91.0953 60.5845L86.3062 55.7692L81.4564 50.8929H68.5439L78.2435 60.5845H91.0953Z" fill="#0094FF" transform="scale(1)" opacity="1" transform-origin="center"></path>
    <path d="M91.0953 63.815H78.2435L68.5439 73.5676H81.4564L91.0953 63.815Z" fill="#0094FF" transform="scale(1)" opacity="1" transform-origin="center"></path>
    <rect x="43.325" y="50.8929" width="3" height="74.6071" fill="#111111" opacity="1"></rect>
  </svg>