<svg xmlns:xlink="http://www.w3.org/1999/xlink" xmlns="http://www.w3.org/2000/svg" width="176" height="49" viewBox="0 0 176 49" fill="none">
<path d="M87.0165 35.7174C86.7764 35.7359 86.5548 35.6805 86.3516 35.5512C86.167 35.4404 86.0377 35.2927 85.9638 35.108C85.89 35.0157 85.7699 34.8125 85.6037 34.4986C85.4375 34.2031 85.336 33.9446 85.299 33.723C85.2436 33.1321 85.2067 32.5596 85.1882 32.0056C85.1882 31.4516 85.2159 30.6759 85.2713 29.6787C85.3267 28.8662 85.4375 28.146 85.6037 27.5181C85.7699 26.8718 85.9361 26.327 86.1023 25.8838C86.2685 25.4221 86.3978 25.0805 86.4901 24.8589C86.5825 24.6188 86.6009 24.4988 86.5455 24.4988C86.4717 24.4988 86.3886 24.5726 86.2962 24.7204C86.2224 24.8496 86.13 25.0251 86.0192 25.2467C85.9269 25.4683 85.8161 25.7083 85.6868 25.9669C85.576 26.2254 85.456 26.4747 85.3267 26.7148C85.0682 27.2873 84.7635 27.8967 84.4126 28.543C84.0802 29.1709 83.7386 29.7803 83.3877 30.3712C83.0368 30.9622 82.7321 31.4793 82.4736 31.9225C82.3074 32.1071 82.1135 32.3749 81.8919 32.7258C81.6703 33.0582 81.4302 33.4091 81.1717 33.7784C80.9131 34.1477 80.6454 34.4524 80.3684 34.6925C79.9621 35.0803 79.5466 35.3112 79.1218 35.385C78.6971 35.4774 78.3001 35.4312 77.9307 35.2465C77.746 35.2281 77.5521 35.1265 77.349 34.9418C77.1459 34.7756 76.9797 34.5632 76.8504 34.3047C76.7396 34.0462 76.7119 33.8061 76.7673 33.5845C76.7488 33.326 76.7488 32.9289 76.7673 32.3934C76.8042 31.8394 76.8596 31.2392 76.9335 30.5928C77.0074 29.928 77.0812 29.2909 77.1551 28.6815C77.2474 28.0721 77.3305 27.5643 77.4044 27.158C77.5706 25.9761 77.7922 24.7665 78.0692 23.5292C78.3647 22.292 78.6325 21.0454 78.8725 19.7897C79.0203 19.4203 79.1495 19.0048 79.2603 18.5432C79.3896 18.063 79.5189 17.6198 79.6481 17.2135C79.6666 16.8073 79.8143 16.558 80.0914 16.4656C80.3684 16.3548 80.6638 16.3364 80.9778 16.4102C81.3102 16.4841 81.541 16.6134 81.6703 16.798C81.8549 16.9827 82.0304 17.2689 82.1966 17.6568C82.3628 18.0446 82.3166 18.5339 82.0581 19.1249C81.6887 20.0298 81.3286 21.1378 80.9778 22.4489C80.6454 23.7416 80.3407 25.3113 80.0637 27.158C79.9898 27.6012 79.9067 28.0998 79.8143 28.6538C79.7405 29.1894 79.6666 29.7064 79.5927 30.205C79.5373 30.7037 79.4912 31.1192 79.4542 31.4516C79.4358 31.7655 79.445 31.9317 79.4819 31.9502C79.6297 31.9871 79.7866 31.904 79.9528 31.7009C80.1375 31.4977 80.3314 31.1746 80.5346 30.7314C81.2917 29.4756 82.0027 28.2291 82.6675 26.9918C83.3508 25.7545 84.034 24.4618 84.7173 23.1137C85.0313 22.5782 85.3452 21.9965 85.6591 21.3686C85.9915 20.7223 86.3055 20.1313 86.6009 19.5958C86.9149 19.0418 87.2196 18.5062 87.5151 17.9892C87.8105 17.4721 88.0691 17.0381 88.2907 16.6872C88.5123 16.3179 88.6785 16.1148 88.7893 16.0778C89.2879 16.0778 89.6572 16.2071 89.8973 16.4656C90.1558 16.7242 90.359 17.0381 90.5067 17.4074C90.5436 17.4998 90.5621 17.6568 90.5621 17.8784C90.5806 18.1 90.5529 18.2939 90.479 18.4601C90.4605 18.5893 90.3774 18.8571 90.2297 19.2634C90.1004 19.6697 89.9804 20.1221 89.8696 20.6207C89.6849 21.1193 89.5187 21.6179 89.371 22.1165C89.2417 22.5967 89.1494 22.9937 89.094 23.3076C88.9463 24.1017 88.7616 24.9697 88.54 25.9115C88.3184 26.8533 88.1245 27.7859 87.9583 28.7092C87.8105 29.6326 87.7274 30.4636 87.709 31.2023C87.6905 31.7193 87.6905 32.061 87.709 32.2272C87.7459 32.3749 87.8013 32.5319 87.8752 32.6981C87.9121 32.8458 87.9952 32.8827 88.1245 32.8089C88.2537 32.735 88.383 32.6057 88.5123 32.4211C88.7708 32.0333 88.9647 31.7009 89.094 31.4239C89.2417 31.1469 89.3895 30.8514 89.5372 30.5374C89.6849 30.205 89.8881 29.7895 90.1466 29.2909C90.6083 28.4414 91.0792 27.5089 91.5593 26.4932C92.0579 25.4775 92.5288 24.4711 92.972 23.4738C93.4337 22.4766 93.8308 21.5902 94.1632 20.8146C94.514 19.8174 94.8095 19.0141 95.0496 18.4047C95.2896 17.7768 95.5113 17.2966 95.7144 16.9642C95.9175 16.6318 96.1114 16.4102 96.2961 16.2994C96.3884 16.2256 96.5823 16.1886 96.8778 16.1886C97.1917 16.1886 97.4318 16.2625 97.598 16.4102C97.6719 16.4841 97.8012 16.6041 97.9858 16.7703C98.1705 16.9365 98.2536 17.1304 98.2351 17.352C98.1428 17.6475 97.9674 18.1277 97.7088 18.7925C97.4687 19.4573 97.1825 20.196 96.8501 21.0085C96.5362 21.8026 96.2222 22.569 95.9083 23.3076C95.6128 24.0278 95.3635 24.6003 95.1604 25.0251C94.9572 25.4129 94.7633 25.7453 94.5787 26.0223C94.394 26.2993 94.3017 26.5117 94.3017 26.6594C94.3017 26.7333 94.2093 26.9641 94.0247 27.3519C93.84 27.7212 93.5999 28.1737 93.3044 28.7092C93.0274 29.2448 92.7227 29.7988 92.3903 30.3712C92.0579 30.9437 91.744 31.47 91.4485 31.9502C91.1531 32.4303 90.9037 32.7996 90.7006 33.0582C90.2389 33.6307 89.7403 34.1108 89.2048 34.4986C88.6877 34.9049 88.226 35.2096 87.8198 35.4127C87.4135 35.6159 87.1457 35.7174 87.0165 35.7174ZM97.6735 33.8061C97.4335 33.8061 97.2396 33.7599 97.0918 33.6676C96.9626 33.5753 96.7964 33.446 96.5932 33.2798C96.2424 32.9105 95.9561 32.5134 95.7345 32.0887C95.5314 31.6639 95.4575 31.2946 95.5129 30.9807C95.5683 30.8329 95.5868 30.6944 95.5683 30.5651C95.5683 30.4174 95.5683 30.3435 95.5683 30.3435C95.476 30.2512 95.4483 30.1958 95.4852 30.1773C95.5221 30.1404 95.5591 30.085 95.596 30.0111C95.7068 30.0111 95.7437 29.9096 95.7068 29.7064C95.6699 29.5587 95.7253 29.2448 95.873 28.7646C96.0392 28.266 96.2608 27.7951 96.5378 27.3519C96.6486 27.1672 96.8148 26.9272 97.0364 26.6317C97.258 26.3178 97.4981 26.013 97.7566 25.7176C98.0336 25.4036 98.283 25.1543 98.5046 24.9697C98.9662 24.5819 99.391 24.2679 99.7788 24.0278C100.185 23.7878 100.591 23.6216 100.998 23.5292C101.404 23.4369 101.819 23.3907 102.244 23.3907C102.687 23.3907 103.047 23.5385 103.324 23.8339C103.749 24.0186 104.045 24.2679 104.211 24.5819C104.396 24.8958 104.516 25.3021 104.571 25.8007C104.626 26.3547 104.571 27.038 104.405 27.8505C104.239 28.6446 103.786 29.5679 103.047 30.6205C102.586 31.2854 102.133 31.8024 101.69 32.1718C101.247 32.5411 100.758 32.8827 100.222 33.1967C99.8342 33.4552 99.4187 33.6122 98.9755 33.6676C98.5323 33.723 98.0983 33.7692 97.6735 33.8061ZM100.499 30.4266C100.905 30.0758 101.191 29.688 101.358 29.2632C101.542 28.8385 101.736 28.3399 101.939 27.7674C102.013 27.6566 102.059 27.4719 102.078 27.2134C102.115 26.9549 102.124 26.7056 102.106 26.4655C102.087 26.2069 102.023 26.0592 101.912 26.0223C101.746 25.893 101.579 25.8653 101.413 25.9392C101.247 25.9946 101.035 26.1146 100.776 26.2993C100.222 26.761 99.7049 27.2965 99.2248 27.9059C98.7631 28.4969 98.4399 29.2263 98.2552 30.0942C98.1998 30.5559 98.246 30.9068 98.3938 31.1469C98.56 31.3685 98.8185 31.4331 99.1694 31.3408C99.5387 31.23 99.9819 30.9253 100.499 30.4266ZM106.352 33.2521C106.186 33.1228 106.001 32.9566 105.798 32.7535C105.614 32.5503 105.549 32.2641 105.604 31.8948C105.66 31.3777 105.734 30.9253 105.826 30.5374C105.918 30.1312 106.029 29.6695 106.158 29.1524C106.195 28.9308 106.288 28.5523 106.435 28.0167C106.602 27.4812 106.795 26.8995 107.017 26.2716C107.239 25.6437 107.469 25.0528 107.71 24.4988C107.95 23.9263 108.162 23.5015 108.347 23.2245C108.55 23.0399 108.845 22.9475 109.233 22.9475C109.639 22.9475 109.916 23.0214 110.064 23.1691C110.267 23.3353 110.332 23.6308 110.258 24.0555C110.184 24.4618 109.926 25.0989 109.482 25.9669C109.39 26.1885 109.27 26.4286 109.122 26.6871C108.993 26.9272 108.901 27.1303 108.845 27.2965C108.79 27.4442 108.808 27.5089 108.901 27.4904C109.011 27.2873 109.215 27.0564 109.51 26.7979C109.806 26.5209 110.119 26.2531 110.452 25.9946C110.784 25.736 111.098 25.5052 111.394 25.3021C111.689 25.0989 111.892 24.9697 112.003 24.9143C112.151 24.8219 112.317 24.7481 112.502 24.6927C112.705 24.6188 112.843 24.5634 112.917 24.5265C113.342 24.3233 113.804 24.2495 114.302 24.3049C114.819 24.3418 115.133 24.4988 115.244 24.7758C115.263 24.9235 115.318 25.0343 115.41 25.1082C115.521 25.182 115.576 25.219 115.576 25.219C115.65 25.219 115.687 25.2467 115.687 25.3021C115.706 25.3575 115.715 25.3852 115.715 25.3852C115.715 25.5144 115.586 25.6991 115.327 25.9392C115.087 26.1792 114.819 26.3085 114.524 26.327C114.284 26.3455 114.071 26.3916 113.887 26.4655C113.702 26.5394 113.48 26.6317 113.222 26.7425C112.52 27.1488 111.883 27.5089 111.311 27.8228C110.757 28.1367 110.184 28.6169 109.593 29.2632C109.464 29.411 109.325 29.5495 109.178 29.6787C109.03 29.808 108.882 29.9927 108.734 30.2327C108.642 30.3251 108.55 30.5282 108.457 30.8422C108.365 31.1561 108.282 31.4608 108.208 31.7563C108.153 32.0333 108.125 32.1995 108.125 32.2549C108.125 32.2549 108.097 32.3472 108.042 32.5319C107.987 32.6981 107.894 32.8643 107.765 33.0305C107.543 33.326 107.322 33.5106 107.1 33.5845C106.897 33.6584 106.648 33.5476 106.352 33.2521ZM116.528 33.8061C116.251 33.7138 116.002 33.566 115.78 33.3629C115.577 33.1598 115.494 32.8273 115.531 32.3657C115.568 32.0887 115.623 31.8024 115.697 31.507C115.771 31.193 115.863 30.8883 115.974 30.5928C116.029 30.2604 116.094 29.928 116.168 29.5956C116.26 29.2632 116.408 28.9493 116.611 28.6538C116.851 27.9705 117.1 27.2965 117.359 26.6317C117.618 25.9484 117.839 25.2374 118.024 24.4988C118.301 23.8339 118.55 23.243 118.772 22.7259C119.012 22.2089 119.298 21.544 119.63 20.7315C119.815 20.3068 119.972 19.8359 120.101 19.3188C120.249 18.7832 120.471 18.3123 120.766 17.9061C120.895 17.7399 120.988 17.6014 121.043 17.4906C121.117 17.3613 121.191 17.2412 121.265 17.1304C121.394 16.8719 121.588 16.7519 121.846 16.7703C122.123 16.7888 122.308 16.8627 122.4 16.9919C122.714 17.1212 122.936 17.3613 123.065 17.7122C123.195 18.0446 123.241 18.2846 123.204 18.4324C123.204 18.6355 123.13 18.8571 122.982 19.0972C122.908 19.171 122.834 19.2818 122.761 19.4296C122.687 19.5588 122.576 19.7343 122.428 19.9559C122.354 20.196 122.28 20.436 122.207 20.6761C122.133 20.9162 122.05 21.1378 121.957 21.3409C121.865 21.544 121.763 21.7472 121.653 21.9503C121.542 22.1535 121.468 22.3197 121.431 22.4489C121.265 22.8737 121.08 23.2892 120.877 23.6954C120.692 24.0833 120.526 24.4988 120.378 24.942C120.231 25.3667 120.074 25.8191 119.907 26.2993C119.741 26.761 119.529 27.2042 119.27 27.6289C119.141 27.8136 119.067 28.0629 119.049 28.3768C119.049 28.6908 119.012 28.9955 118.938 29.2909C118.809 29.6233 118.689 29.928 118.578 30.205C118.485 30.482 118.439 30.6575 118.439 30.7314C118.31 31.1376 118.208 31.5439 118.135 31.9502C118.061 32.338 117.941 32.6796 117.775 32.9751C117.775 33.4183 117.654 33.6953 117.414 33.8061C117.174 33.9169 116.879 33.9169 116.528 33.8061ZM122.871 34.0554C122.576 34.0185 122.354 33.9631 122.207 33.8892C122.059 33.7969 121.782 33.603 121.376 33.3075C121.154 33.0859 120.877 32.7442 120.545 32.2826C120.212 31.8209 119.88 31.3315 119.547 30.8145C119.215 30.2789 118.919 29.8265 118.661 29.4571L120.184 27.5181C120.425 27.8136 120.618 28.0906 120.766 28.3491C120.914 28.6077 121.034 28.7831 121.126 28.8754C121.551 29.5033 121.883 30.0111 122.123 30.3989C122.364 30.7868 122.567 31.1007 122.733 31.3408C122.918 31.5808 123.121 31.7932 123.342 31.9779C123.564 32.1625 123.85 32.3564 124.201 32.5596C124.256 32.5965 124.312 32.6888 124.367 32.8366C124.423 32.9659 124.441 33.1044 124.423 33.2521C124.386 33.4737 124.247 33.6584 124.007 33.8061C123.786 33.9354 123.407 34.0185 122.871 34.0554ZM118.855 28.9308C118.744 28.6169 118.716 28.266 118.772 27.8782C118.846 27.4719 119.003 27.2042 119.243 27.0749C119.317 26.9456 119.39 26.8625 119.464 26.8256C119.557 26.7702 119.612 26.7056 119.63 26.6317C119.667 26.5578 119.76 26.4563 119.907 26.327C120.074 26.1977 120.221 26.0777 120.351 25.9669C120.646 25.7822 120.969 25.5606 121.32 25.3021C121.69 25.0251 122.04 24.7481 122.373 24.4711C122.724 24.1941 123.01 23.954 123.232 23.7508C123.472 23.5477 123.619 23.4184 123.675 23.363C123.73 23.2892 123.841 23.243 124.007 23.2245C124.192 23.2061 124.367 23.2338 124.533 23.3076C124.755 23.363 124.93 23.4831 125.06 23.6677C125.207 23.8524 125.281 24.111 125.281 24.4434C125.337 24.6465 125.217 24.8958 124.921 25.1913C124.644 25.4683 124.293 25.7453 123.869 26.0223C123.721 26.1146 123.518 26.2531 123.259 26.4378C123.019 26.6225 122.807 26.7979 122.622 26.9641C122.493 27.038 122.299 27.1672 122.04 27.3519C121.8 27.5181 121.588 27.6843 121.403 27.8505C121.256 27.9428 121.08 28.109 120.877 28.3491C120.692 28.5707 120.48 28.7369 120.24 28.8477C119.649 29.4017 119.289 29.6695 119.16 29.651C119.049 29.6326 118.947 29.3925 118.855 28.9308ZM128.911 34.1939C127.932 34.1939 127.212 33.88 126.75 33.2521C126.621 32.9566 126.556 32.6611 126.556 32.3657C126.575 32.0517 126.649 31.8301 126.778 31.7009C126.907 31.5531 127.064 31.5808 127.249 31.784C127.489 31.9317 127.83 32.0056 128.274 32.0056C128.495 32.0056 128.689 32.0056 128.855 32.0056C129.04 31.9871 129.252 31.9686 129.492 31.9502C129.917 31.9132 130.185 31.784 130.296 31.5624C130.425 31.3408 130.397 31.1561 130.213 31.0084H130.24C129.742 30.8791 129.252 30.6944 128.772 30.4543C128.292 30.2143 127.886 29.9465 127.553 29.651C127.221 29.3371 127.027 29.0416 126.972 28.7646C126.824 28.1552 126.861 27.5273 127.083 26.881C127.304 26.2346 127.627 25.6714 128.052 25.1913C128.218 25.0805 128.449 24.9235 128.745 24.7204C129.04 24.4988 129.252 24.3787 129.382 24.3603V24.388C129.733 24.0186 130.13 23.7231 130.573 23.5015C131.016 23.2615 131.533 23.0399 132.124 22.8367L132.567 22.7813C132.789 22.7444 132.983 22.7259 133.149 22.7259C133.13 22.7259 133.177 22.7444 133.287 22.7813C133.398 22.8183 133.491 22.846 133.564 22.8644C133.675 22.9198 133.786 22.9475 133.897 22.9475C134.155 22.9845 134.405 23.123 134.645 23.363C134.903 23.5846 135.106 23.8524 135.254 24.1664C135.42 24.4618 135.485 24.7388 135.448 24.9974C135.393 25.4221 135.236 25.8468 134.977 26.2716C134.719 26.6779 134.442 26.9087 134.146 26.9641C134.183 26.9456 134.146 26.9087 134.035 26.8533C133.925 26.7979 133.823 26.7425 133.731 26.6871L133.62 26.7425C133.62 26.7425 133.611 26.7148 133.592 26.6594C133.592 26.604 133.574 26.5394 133.537 26.4655C133.463 26.3362 133.407 26.1977 133.371 26.05C133.352 25.9022 133.352 25.736 133.371 25.5514C133.407 25.3482 133.417 25.2282 133.398 25.1913C133.38 25.1543 133.269 25.1266 133.066 25.1082C132.826 25.0528 132.521 25.0805 132.152 25.1913C131.782 25.2836 131.441 25.4498 131.127 25.6899C130.757 25.9299 130.48 26.1238 130.296 26.2716C130.13 26.4193 130 26.5671 129.908 26.7148C129.816 26.8441 129.714 27.038 129.603 27.2965C129.529 27.4258 129.465 27.5458 129.409 27.6566C129.354 27.7489 129.326 27.8413 129.326 27.9336C129.326 28.1183 129.483 28.3122 129.797 28.5153C130.111 28.7 130.582 28.9216 131.21 29.1801C131.708 29.3833 132.032 29.6603 132.179 30.0111C132.346 30.362 132.493 30.6944 132.623 31.0084C132.66 31.0822 132.696 31.2207 132.733 31.4239C132.789 31.6085 132.798 31.7193 132.761 31.7563C132.798 31.7932 132.816 31.8301 132.816 31.8671V31.8394C132.964 32.1164 132.937 32.4118 132.733 32.7258C132.549 33.0213 132.253 33.2983 131.847 33.5568C131.441 33.7969 130.979 33.9723 130.462 34.0831H130.49C130.213 34.12 129.936 34.1477 129.659 34.1662C129.4 34.1847 129.151 34.1939 128.911 34.1939ZM134.772 40.4542C134.699 40.4542 134.588 40.4542 134.44 40.4542C134.311 40.4727 134.2 40.3988 134.108 40.2326C134.034 40.1403 133.923 39.9556 133.775 39.6786C133.627 39.42 133.6 39.0507 133.692 38.5706C133.784 38.2566 133.858 37.9427 133.914 37.6288C133.969 37.3333 133.997 37.1117 133.997 36.9639C133.997 36.8901 134.015 36.7423 134.052 36.5207C134.108 36.3176 134.135 36.1699 134.135 36.0775C134.228 35.9298 134.301 35.7267 134.357 35.4681C134.412 35.2096 134.44 34.9787 134.44 34.7756C134.44 34.554 134.551 34.3509 134.772 34.1662C134.772 34.0185 134.8 33.8338 134.856 33.6122C134.929 33.3906 134.966 33.2429 134.966 33.169C135.022 32.9105 135.142 32.458 135.326 31.8117C135.53 31.1469 135.77 30.3989 136.047 29.5679C136.342 28.7369 136.628 27.9244 136.905 27.1303C137.182 26.3362 137.432 25.6622 137.653 25.1082C137.875 24.5911 138.06 24.111 138.207 23.6677C138.355 23.2245 138.429 22.9106 138.429 22.7259C138.429 22.6521 138.447 22.5967 138.484 22.5597C138.521 22.5043 138.604 22.4028 138.734 22.255C138.918 22.0704 139.158 22.0057 139.454 22.0611C139.768 22.0981 140.026 22.1904 140.229 22.3381C140.377 22.5782 140.479 22.7998 140.534 23.0029C140.608 23.1876 140.608 23.4831 140.534 23.8893C140.534 24.1664 140.469 24.4249 140.34 24.665C140.211 24.8866 140.091 25.0712 139.98 25.219C139.888 25.3482 139.86 25.4036 139.897 25.3852C140.71 24.8866 141.439 24.6188 142.085 24.5819C142.75 24.5265 143.304 24.6373 143.747 24.9143C144.209 25.1728 144.56 25.5329 144.8 25.9946C145.04 26.4563 145.16 26.9549 145.16 27.4904C145.16 27.712 145.086 28.0075 144.938 28.3768C144.791 28.7462 144.625 29.097 144.44 29.4294C144.255 29.7434 144.107 29.9557 143.997 30.0665C143.923 30.0665 143.849 30.1312 143.775 30.2604C143.701 30.3712 143.627 30.5005 143.553 30.6482C143.406 30.8329 143.156 31.0453 142.806 31.2854C142.473 31.507 142.131 31.6916 141.781 31.8394C141.43 31.9686 141.18 32.0056 141.033 31.9502C141.033 31.9502 141.005 31.9686 140.95 32.0056C140.913 32.0425 140.894 32.1071 140.894 32.1995C140.894 32.2364 140.765 32.3103 140.506 32.4211C140.248 32.5319 139.943 32.6334 139.592 32.7258C139.241 32.8181 138.918 32.8643 138.623 32.8643C138.235 32.8643 137.958 32.7904 137.792 32.6427C137.755 32.6796 137.709 32.735 137.653 32.8089C137.616 32.8827 137.598 32.9474 137.598 33.0028C137.598 33.1136 137.552 33.289 137.459 33.5291C137.385 33.7692 137.293 33.9815 137.182 34.1662C137.072 34.3693 136.97 34.4709 136.878 34.4709C136.878 34.4709 136.859 34.4986 136.822 34.554C136.785 34.6094 136.804 34.6833 136.878 34.7756C136.878 34.7756 136.868 34.8772 136.85 35.0803C136.85 35.3019 136.804 35.4866 136.711 35.6343C136.711 35.7821 136.684 36.0037 136.628 36.2991C136.573 36.5946 136.508 36.8162 136.434 36.9639C136.434 37.1855 136.397 37.3979 136.324 37.6011C136.268 37.8227 136.204 37.9335 136.13 37.9335C136.056 37.9519 136.01 38.0627 135.991 38.2659C135.973 38.4875 135.964 38.6444 135.964 38.7368C135.945 39.1984 135.797 39.5955 135.52 39.9279C135.243 40.2788 134.994 40.4542 134.772 40.4542ZM138.318 30.7591C138.466 30.7591 138.734 30.6944 139.121 30.5651C139.509 30.4359 139.915 30.2789 140.34 30.0942C140.765 29.8911 141.097 29.688 141.337 29.4848C141.818 29.0601 142.187 28.6446 142.445 28.2383C142.722 27.832 142.704 27.3796 142.39 26.881C142.242 26.6225 142.002 26.5209 141.67 26.5763C141.356 26.6132 141.005 26.761 140.617 27.0195C140.229 27.278 139.832 27.6012 139.426 27.989C139.204 28.2291 139.001 28.5061 138.817 28.82C138.632 29.134 138.475 29.4387 138.346 29.7341C138.235 30.0296 138.17 30.2789 138.152 30.482C138.133 30.6667 138.189 30.7591 138.318 30.7591ZM148.787 33.6122C148.639 33.6491 148.445 33.6676 148.205 33.6676C147.965 33.6491 147.753 33.6214 147.568 33.5845C147.402 33.5291 147.319 33.4737 147.319 33.4183C147.319 33.326 147.273 33.2798 147.18 33.2798C147.18 33.2798 147.079 33.2059 146.876 33.0582C146.672 32.892 146.488 32.7719 146.322 32.6981C146.155 32.4395 146.045 32.1441 145.989 31.8117C145.952 31.4608 146.063 30.8514 146.322 29.9834C146.34 29.3925 146.506 28.7739 146.82 28.1275C147.134 27.4627 147.531 26.8164 148.011 26.1885C148.491 25.5606 148.99 25.0066 149.507 24.5265C150.024 24.0278 150.486 23.6585 150.892 23.4184C151.151 23.1599 151.492 23.0214 151.917 23.0029C152.36 22.9845 152.748 23.0676 153.08 23.2522C153.265 23.3446 153.468 23.5292 153.69 23.8062C153.911 24.0833 154.124 24.3787 154.327 24.6927C154.53 24.9881 154.687 25.2559 154.798 25.496C154.853 25.6991 154.899 25.8838 154.936 26.05C154.992 26.1977 155.029 26.3824 155.047 26.604C155.066 26.8256 155.047 27.158 154.992 27.6012C154.899 27.9336 154.816 28.2752 154.742 28.6261C154.687 28.9585 154.659 29.3002 154.659 29.651C154.622 30.0019 154.659 30.2512 154.77 30.3989C154.899 30.5467 155.084 30.5559 155.324 30.4266C155.546 30.3158 155.777 30.3066 156.017 30.3989C156.257 30.4728 156.423 30.6205 156.515 30.8422C156.626 31.0453 156.598 31.3131 156.432 31.6455C156.321 31.8855 156.146 32.1164 155.906 32.338C155.666 32.5596 155.398 32.7442 155.103 32.892C154.807 33.0213 154.521 33.0859 154.244 33.0859C154.041 33.0859 153.838 33.012 153.634 32.8643C153.431 32.6981 153.247 32.4765 153.08 32.1995C152.914 31.9225 152.776 31.6178 152.665 31.2854L152.499 30.6482L151.502 31.5624C151.261 31.8209 151.021 32.061 150.781 32.2826C150.56 32.4857 150.421 32.6334 150.366 32.7258C150.273 32.892 150.089 33.0397 149.812 33.169C149.553 33.2983 149.212 33.446 148.787 33.6122ZM149.535 30.953C149.849 30.7683 150.116 30.5467 150.338 30.2881C150.578 30.0296 150.809 29.7434 151.031 29.4294C151.252 29.097 151.492 28.7462 151.751 28.3768C152.065 27.9521 152.286 27.6104 152.416 27.3519C152.563 27.0934 152.674 26.8164 152.748 26.5209C152.674 26.3178 152.573 26.1054 152.443 25.8838C152.314 25.6437 152.185 25.5144 152.056 25.496C151.797 25.496 151.483 25.6529 151.114 25.9669C150.763 26.2808 150.375 26.7333 149.95 27.3242C149.876 27.4165 149.784 27.5643 149.673 27.7674C149.562 27.9705 149.452 28.1644 149.341 28.3491C149.249 28.5153 149.184 28.6261 149.147 28.6815C149.092 28.7554 149.008 28.9308 148.898 29.2078C148.805 29.4664 148.722 29.7341 148.648 30.0111C148.574 30.2697 148.538 30.4543 148.538 30.5651C148.538 30.6759 148.547 30.796 148.565 30.9253C148.602 31.0545 148.695 31.1376 148.842 31.1746C148.99 31.2115 149.221 31.1376 149.535 30.953ZM160.121 33.7784C159.714 33.7784 159.41 33.7599 159.207 33.723C159.022 33.6861 158.883 33.6307 158.791 33.5568C158.699 33.4829 158.579 33.3814 158.431 33.2521C158.357 33.1044 158.228 32.9197 158.043 32.6981C157.858 32.458 157.729 32.301 157.655 32.2272C157.581 31.9502 157.554 31.5716 157.572 31.0915C157.609 30.6113 157.692 30.0942 157.822 29.5402C157.951 28.9862 158.108 28.4876 158.292 28.0444C158.366 27.8967 158.431 27.7489 158.486 27.6012C158.542 27.4535 158.569 27.3796 158.569 27.3796C158.569 27.2873 158.68 27.0657 158.902 26.7148C159.142 26.3639 159.4 25.9946 159.677 25.6068C159.973 25.219 160.213 24.942 160.398 24.7758C160.527 24.628 160.721 24.4711 160.979 24.3049C161.256 24.1387 161.496 24.0186 161.7 23.9447C161.903 23.8709 162.18 23.7785 162.531 23.6677C162.881 23.5385 163.195 23.4738 163.472 23.4738C163.731 23.4738 164.008 23.5292 164.303 23.64C164.599 23.7508 164.848 23.9447 165.051 24.2218C165.384 24.5542 165.596 24.9512 165.688 25.4129C165.781 25.8745 165.79 26.2716 165.716 26.604C165.624 26.9733 165.439 27.278 165.162 27.5181C164.885 27.7397 164.59 27.8597 164.276 27.8782C163.962 27.8782 163.685 27.7489 163.445 27.4904C163.371 27.3427 163.334 27.2226 163.334 27.1303C163.334 27.0195 163.371 26.8625 163.445 26.6594C163.519 26.4009 163.556 26.17 163.556 25.9669C163.556 25.7637 163.472 25.6622 163.306 25.6622C163.066 25.6622 162.872 25.736 162.725 25.8838C162.577 26.013 162.355 26.2346 162.06 26.5486C161.93 26.6963 161.764 26.9087 161.561 27.1857C161.358 27.4627 161.155 27.7674 160.952 28.0998C160.767 28.4137 160.601 28.7369 160.453 29.0693C160.25 29.6787 160.121 30.0758 160.065 30.2604C160.028 30.4266 160.01 30.5097 160.01 30.5097C160.01 30.5836 160.001 30.6575 159.982 30.7314C159.964 30.7868 159.954 30.8514 159.954 30.9253C159.954 31.1469 160.084 31.3223 160.342 31.4516C160.545 31.5808 160.712 31.6455 160.841 31.6455C160.989 31.627 161.266 31.5254 161.672 31.3408C161.967 31.193 162.244 30.9991 162.503 30.7591C162.78 30.519 163.066 30.3066 163.362 30.1219C163.565 29.9927 163.722 29.8819 163.833 29.7895C163.962 29.6972 164.026 29.688 164.026 29.7618C164.026 29.8357 164.054 29.8726 164.11 29.8726C164.165 29.8726 164.23 29.8357 164.303 29.7618C164.414 29.6141 164.553 29.5587 164.719 29.5956C164.885 29.6141 165.033 29.6603 165.162 29.7341C165.31 29.808 165.384 29.8726 165.384 29.928C165.347 30.0942 165.384 30.2327 165.495 30.3435C165.495 30.4174 165.467 30.519 165.411 30.6482C165.375 30.7591 165.319 30.8514 165.245 30.9253C165.153 31.0545 165.014 31.2392 164.83 31.4793C164.664 31.7193 164.507 31.9317 164.359 32.1164C164.211 32.301 164.137 32.3934 164.137 32.3934C164.063 32.3749 163.989 32.3934 163.916 32.4488C163.86 32.5042 163.796 32.5688 163.722 32.6427C163.574 32.7719 163.435 32.8735 163.306 32.9474C163.177 33.0028 163.075 33.0305 163.002 33.0305C162.872 33.1044 162.771 33.1505 162.697 33.169C162.641 33.1875 162.614 33.2336 162.614 33.3075C162.429 33.4922 162.097 33.6214 161.616 33.6953C161.136 33.7507 160.638 33.7784 160.121 33.7784ZM169.521 33.7507C168.801 33.4552 168.302 32.9751 168.025 32.3103C167.748 31.6455 167.674 30.7591 167.803 29.651C167.84 29.0786 167.822 28.7 167.748 28.5153C167.674 28.3122 167.536 28.1183 167.333 27.9336C167.277 27.8597 167.148 27.7397 166.945 27.5735C166.742 27.3888 166.649 27.2503 166.668 27.158C166.649 27.0287 166.677 26.8718 166.751 26.6871C166.825 26.484 166.889 26.3732 166.945 26.3547C167.074 26.2993 167.203 26.2346 167.333 26.1608C167.48 26.0869 167.591 26.0684 167.665 26.1054C167.739 26.1054 167.85 26.1515 167.997 26.2439C168.164 26.3362 168.247 26.4193 168.247 26.4932C168.321 26.6225 168.431 26.5671 168.579 26.327C168.745 26.0869 168.921 25.7822 169.105 25.4129C169.29 25.1174 169.521 24.8404 169.798 24.5819C170.075 24.3233 170.352 24.0925 170.629 23.8893C170.924 23.6677 171.174 23.5015 171.377 23.3907C171.469 23.3538 171.645 23.2984 171.903 23.2245C172.18 23.1507 172.466 23.0953 172.762 23.0583C173.057 23.0029 173.279 22.9845 173.427 23.0029C173.759 23.0214 174.11 23.1599 174.479 23.4184C174.849 23.677 175.135 23.917 175.338 24.1387C175.578 24.3049 175.735 24.5634 175.809 24.9143C175.901 25.2467 175.938 25.5975 175.92 25.9669C175.901 26.3362 175.827 26.6502 175.698 26.9087C175.643 27.0934 175.449 27.3519 175.116 27.6843C174.784 28.0167 174.415 28.3399 174.008 28.6538C173.621 28.9493 173.288 29.1524 173.011 29.2632C172.771 29.3186 172.485 29.3648 172.152 29.4017C171.82 29.4202 171.506 29.4202 171.211 29.4017C170.934 29.3648 170.74 29.3186 170.629 29.2632C170.5 29.1894 170.389 29.2171 170.296 29.3463C170.223 29.4571 170.158 29.7711 170.103 30.2881C170.084 30.4913 170.084 30.6667 170.103 30.8145C170.139 30.9622 170.176 31.073 170.213 31.1469C170.343 31.3685 170.472 31.5347 170.601 31.6455C170.73 31.7378 170.971 31.7655 171.321 31.7286C171.672 31.6916 172.023 31.4793 172.374 31.0915C172.743 30.6852 173.076 30.362 173.371 30.1219C173.445 29.9927 173.602 29.9096 173.842 29.8726C174.101 29.8172 174.405 29.8357 174.756 29.928C174.959 30.0573 175.052 30.2604 175.033 30.5374C175.033 30.8145 174.885 31.2207 174.59 31.7563C174.535 31.8855 174.378 32.0794 174.119 32.338C173.879 32.578 173.611 32.8273 173.316 33.0859C173.039 33.326 172.808 33.5014 172.623 33.6122C172.069 33.9077 171.525 34.0462 170.989 34.0277C170.453 34.0092 169.964 33.9169 169.521 33.7507ZM171.571 27.5181C171.848 27.4442 172.079 27.3704 172.263 27.2965C172.466 27.2226 172.66 27.1026 172.845 26.9364C173.03 26.7702 173.242 26.5209 173.482 26.1885C173.556 25.9853 173.593 25.8099 173.593 25.6622C173.611 25.5144 173.602 25.4221 173.565 25.3852C173.417 25.2374 173.251 25.1913 173.067 25.2467C172.9 25.2836 172.716 25.3759 172.512 25.5237C172.383 25.5791 172.199 25.6991 171.958 25.8838C171.737 26.05 171.515 26.2439 171.294 26.4655C171.091 26.6686 170.924 26.8625 170.795 27.0472C170.684 27.2134 170.666 27.315 170.74 27.3519C170.703 27.4258 170.804 27.4719 171.044 27.4904C171.303 27.5089 171.478 27.5181 171.571 27.5181Z" fill="url(#paint0_linear_12091_124972)"/>
<path d="M1.60516 34.4053V19.5053H4.60516L10.1852 26.9053H8.78516L14.2052 19.5053H17.2052V34.4053H14.1052V22.9253L15.3452 23.2053L9.60516 30.6053H9.20516L3.66516 23.2053L4.70516 22.9253V34.4053H1.60516ZM23.0073 34.6453C22.2207 34.6453 21.5407 34.5186 20.9673 34.2653C20.394 34.0119 19.954 33.6519 19.6473 33.1853C19.3407 32.7053 19.1873 32.1386 19.1873 31.4853C19.1873 30.8719 19.3273 30.3319 19.6073 29.8653C19.8873 29.3853 20.314 28.9853 20.8873 28.6653C21.474 28.3453 22.2007 28.1186 23.0673 27.9853L26.4073 27.4453V29.6453L23.6073 30.1453C23.1807 30.2253 22.854 30.3653 22.6273 30.5653C22.4007 30.7519 22.2873 31.0253 22.2873 31.3853C22.2873 31.7186 22.414 31.9786 22.6673 32.1653C22.9207 32.3519 23.234 32.4453 23.6073 32.4453C24.1007 32.4453 24.534 32.3386 24.9073 32.1253C25.2807 31.9119 25.5673 31.6253 25.7673 31.2653C25.9807 30.8919 26.0873 30.4853 26.0873 30.0453V27.2053C26.0873 26.7919 25.9207 26.4453 25.5873 26.1653C25.2673 25.8853 24.8273 25.7453 24.2673 25.7453C23.734 25.7453 23.2607 25.8919 22.8473 26.1853C22.4473 26.4786 22.154 26.8653 21.9673 27.3453L19.5673 26.2053C19.7807 25.5919 20.1207 25.0653 20.5873 24.6253C21.054 24.1853 21.614 23.8453 22.2673 23.6053C22.9207 23.3653 23.634 23.2453 24.4073 23.2453C25.3273 23.2453 26.1407 23.4119 26.8473 23.7453C27.554 24.0786 28.1007 24.5453 28.4873 25.1453C28.8873 25.7319 29.0873 26.4186 29.0873 27.2053V34.4053H26.2873V32.6453L26.9673 32.5253C26.6473 33.0053 26.294 33.4053 25.9073 33.7253C25.5207 34.0319 25.0873 34.2586 24.6073 34.4053C24.1273 34.5653 23.594 34.6453 23.0073 34.6453ZM36.3522 34.5253C35.0322 34.5253 34.0055 34.1719 33.2722 33.4653C32.5522 32.7453 32.1922 31.7453 32.1922 30.4653V26.0853H30.3522V23.4853H30.4522C31.0122 23.4853 31.4389 23.3453 31.7322 23.0653C32.0389 22.7853 32.1922 22.3653 32.1922 21.8053V21.0053H35.1922V23.4853H37.7522V26.0853H35.1922V30.2653C35.1922 30.6386 35.2589 30.9519 35.3922 31.2053C35.5255 31.4453 35.7322 31.6253 36.0122 31.7453C36.2922 31.8653 36.6389 31.9253 37.0522 31.9253C37.1455 31.9253 37.2522 31.9186 37.3722 31.9053C37.4922 31.8919 37.6189 31.8786 37.7522 31.8653V34.4053C37.5522 34.4319 37.3255 34.4586 37.0722 34.4853C36.8189 34.5119 36.5789 34.5253 36.3522 34.5253ZM39.5102 34.4053V23.4853H42.5102V34.4053H39.5102ZM39.5102 22.5053V19.5053H42.5102V22.5053H39.5102ZM44.7055 34.4053V19.2653H47.7055V34.4053H44.7055ZM55.0408 34.6453C53.9741 34.6453 53.0208 34.3919 52.1808 33.8853C51.3408 33.3786 50.6741 32.6919 50.1808 31.8253C49.7008 30.9586 49.4608 29.9986 49.4608 28.9453C49.4608 27.8786 49.7074 26.9186 50.2008 26.0653C50.6941 25.1986 51.3608 24.5119 52.2008 24.0053C53.0408 23.4986 53.9808 23.2453 55.0208 23.2453C55.8208 23.2453 56.5274 23.3986 57.1408 23.7053C57.7674 23.9986 58.2608 24.4186 58.6208 24.9653L58.1608 25.5653V19.2653H61.1608V34.4053H58.3608V32.4053L58.6408 33.0253C58.2674 33.5586 57.7608 33.9653 57.1208 34.2453C56.4808 34.5119 55.7874 34.6453 55.0408 34.6453ZM55.4008 31.9453C55.9474 31.9453 56.4274 31.8186 56.8408 31.5653C57.2541 31.3119 57.5741 30.9586 57.8008 30.5053C58.0408 30.0519 58.1608 29.5319 58.1608 28.9453C58.1608 28.3586 58.0408 27.8386 57.8008 27.3853C57.5741 26.9319 57.2541 26.5786 56.8408 26.3253C56.4274 26.0719 55.9474 25.9453 55.4008 25.9453C54.8541 25.9453 54.3608 26.0786 53.9208 26.3453C53.4941 26.5986 53.1608 26.9519 52.9208 27.4053C52.6808 27.8453 52.5608 28.3586 52.5608 28.9453C52.5608 29.5319 52.6808 30.0519 52.9208 30.5053C53.1608 30.9586 53.4941 31.3119 53.9208 31.5653C54.3608 31.8186 54.8541 31.9453 55.4008 31.9453ZM66.7378 34.6453C65.9511 34.6453 65.2711 34.5186 64.6978 34.2653C64.1245 34.0119 63.6845 33.6519 63.3778 33.1853C63.0711 32.7053 62.9178 32.1386 62.9178 31.4853C62.9178 30.8719 63.0578 30.3319 63.3378 29.8653C63.6178 29.3853 64.0445 28.9853 64.6178 28.6653C65.2045 28.3453 65.9311 28.1186 66.7978 27.9853L70.1378 27.4453V29.6453L67.3378 30.1453C66.9111 30.2253 66.5845 30.3653 66.3578 30.5653C66.1311 30.7519 66.0178 31.0253 66.0178 31.3853C66.0178 31.7186 66.1445 31.9786 66.3978 32.1653C66.6511 32.3519 66.9645 32.4453 67.3378 32.4453C67.8311 32.4453 68.2645 32.3386 68.6378 32.1253C69.0111 31.9119 69.2978 31.6253 69.4978 31.2653C69.7111 30.8919 69.8178 30.4853 69.8178 30.0453V27.2053C69.8178 26.7919 69.6511 26.4453 69.3178 26.1653C68.9978 25.8853 68.5578 25.7453 67.9978 25.7453C67.4645 25.7453 66.9911 25.8919 66.5778 26.1853C66.1778 26.4786 65.8845 26.8653 65.6978 27.3453L63.2978 26.2053C63.5111 25.5919 63.8511 25.0653 64.3178 24.6253C64.7845 24.1853 65.3445 23.8453 65.9978 23.6053C66.6511 23.3653 67.3645 23.2453 68.1378 23.2453C69.0578 23.2453 69.8711 23.4119 70.5778 23.7453C71.2845 24.0786 71.8311 24.5453 72.2178 25.1453C72.6178 25.7319 72.8178 26.4186 72.8178 27.2053V34.4053H70.0178V32.6453L70.6978 32.5253C70.3778 33.0053 70.0245 33.4053 69.6378 33.7253C69.2511 34.0319 68.8178 34.2586 68.3378 34.4053C67.8578 34.5653 67.3245 34.6453 66.7378 34.6453Z" fill="#082F49"/>
<defs>
<linearGradient id="paint0_linear_12091_124972" x1="86.4483" y1="24.9455" x2="165.31" y2="21.4661" gradientUnits="userSpaceOnUse">
<stop stop-color="#7DD3FC"/>
<stop offset="1" stop-color="#0EA5E9"/>
</linearGradient>
</defs>
</svg>