<svg xmlns:xlink="http://www.w3.org/1999/xlink" data-v-784b1145="" viewBox="0 0 72 20" xmlns="http://www.w3.org/2000/svg" role="img" class="block fill-current text-dark-text-100 hover-hover:group-hover:opacity-100 transition-opacity motion-reduce:transition-none h-5" width="72"  height="20" ><title data-v-784b1145="" fill="#111111">Padlet logo</title><path data-v-784b1145="" fill-rule="evenodd" clip-rule="evenodd" d="M7.2 14.7984C11.1765 14.7984 14.4 11.5749 14.4 7.59844C14.4 3.62199 11.1765 0.398438 7.2 0.398438C7.13312 0.398438 7.06644 0.39935 7 0.401162V0.398438H3.6H2.4H0V7.59844V19.5984H3.6V14.7984H7V14.7957C7.06644 14.7975 7.13312 14.7984 7.2 14.7984ZM7.19992 11.1984H7.2C9.16019 11.1984 10.7492 9.58664 10.7492 7.59844C10.7492 5.61024 9.16019 3.99848 7.2 3.99844H7.19992H3.6V11.1984H7.19992ZM25.2 5.19844H28.8V19.5984H25.2V18.6353C24.141 19.2479 22.9114 19.5985 21.6 19.5985C17.6235 19.5985 14.4 16.3749 14.4 12.3985C14.4 8.42204 17.6235 5.19849 21.6 5.19849C22.9114 5.19849 24.141 5.54911 25.2 6.16172V5.19844ZM21.6 8.79844C23.5882 8.79844 25.2 10.4102 25.2 12.3984C25.2 14.3867 23.5882 15.9984 21.6 15.9984C19.6118 15.9984 18 14.3867 18 12.3984C18 10.4102 19.6118 8.79844 21.6 8.79844ZM44 0.398438H40.4V6.16167C39.3409 5.54906 38.1114 5.19844 36.8 5.19844C32.8235 5.19844 29.6 8.42199 29.6 12.3984C29.6 16.3749 32.8235 19.5984 36.8 19.5984C38.1114 19.5984 39.3409 19.2478 40.4 18.6352V19.5984H44V12.3984V0.398438ZM40.4 12.4169C40.39 14.3966 38.7821 15.9984 36.8 15.9984C34.8118 15.9984 33.2 14.3866 33.2 12.3984C33.2 10.4102 34.8118 8.79839 36.8 8.79839C38.7821 8.79839 40.39 10.4002 40.4 12.3799V12.4169ZM49 0.398438H45.4V19.5984H49V0.398438ZM64.33 13.6088C63.9644 15.7426 62.6474 17.7036 60.6252 18.7339C56.9257 20.6189 52.5901 19.2102 50.8645 15.8236C48.9795 12.1241 50.3883 7.78843 54.0878 5.90344C57.4743 4.17789 61.81 5.58664 63.695 9.28615C63.884 9.65698 64.0353 10.0392 64.1506 10.4281L60.5086 12.2838L60.5088 12.2838L54.882 15.1508C55.9628 16.051 57.5435 16.2637 58.9871 15.5282C60.1296 14.9461 60.8166 13.695 60.8047 12.3864L64.33 13.6088ZM53.6108 12.656L59.5229 9.64364C58.4565 8.73604 56.9329 8.49409 55.7184 9.11291C54.2747 9.84852 53.5176 11.2525 53.6108 12.656ZM65.4 0.398438H68.9985V6.39844H71.7984V9.99844H68.9985V19.5984H65.4V0.398438Z" fill="#111111"></path></svg>