<svg xmlns:xlink="http://www.w3.org/1999/xlink" xmlns="http://www.w3.org/2000/svg" class="h-12 w-12" viewBox="0 0 283 283" fill="none" width="283"  height="283" >
  <path fill-rule="evenodd" clip-rule="evenodd" d="M215.987 207.515C179.345 248.837 116.142 252.63 74.8201 215.987C69.9593 211.677 65.6178 206.999 61.8003 202.033L92.6965 167.191C95.6808 172.751 99.6797 177.888 104.676 182.318C127.403 202.472 162.165 200.385 182.318 177.658C202.472 154.931 200.385 120.17 177.658 100.016C155.684 80.5307 122.46 81.8354 102.067 102.485L102.007 102.432L100.016 104.676L44.5966 167.173C36.1798 135.803 43.1852 100.94 66.3472 74.8201C102.99 33.4981 166.193 29.7047 207.515 66.3472C248.837 102.99 252.63 166.193 215.987 207.515Z" fill="#6E53FF"/>
</svg>