<svg xmlns:xlink="http://www.w3.org/1999/xlink" xmlns="http://www.w3.org/2000/svg" width="146" height="24" viewBox="0 0 146 24" fill="none">
                  <g clip-path="url(#clip0_2149_239)" fill="none">
                    <path d="M6 18H18V24H6C2.69 24 0 21.31 0 18V6H6V18ZM18 0H6V6H18V18H24V6C24 2.69 21.31 0 18 0Z" fill="#F9F9F9" fill-opacity="0.9"></path>
                    <path d="M35.61 20V14.65H37.76L40.48 20H44.5L41.09 13.94C42.76 13.09 43.92 11.36 43.92 9.28C43.92 7.73 43.39 6.47 42.32 5.49C41.25 4.51 39.9 4 38.25 4H31.99V20H35.61ZM35.61 7.09H37.9C39.34 7.09 40.23 7.94 40.23 9.29C40.23 10.73 39.32 11.58 37.94 11.58H35.61V7.09ZM44.57 14.03C44.5 17.6 47.29 20.36 50.7 20.29C53.92 20.29 56.16 18.69 56.71 16.13H53.51C53.14 16.95 52.18 17.57 50.84 17.57C49.19 17.57 48.05 16.5 47.94 14.94H56.83V13.91C56.83 10.55 54.75 7.63 50.77 7.63C48.94 7.63 47.46 8.22 46.29 9.41C45.15 10.6 44.58 12.13 44.58 14.03H44.57ZM48 12.59C48.16 11.33 49.3 10.33 50.77 10.33C52.32 10.33 53.42 11.29 53.54 12.59H48ZM61.9 20V13.23C61.9 11.93 62.75 10.92 63.96 10.92C65.17 10.92 65.9 11.77 65.9 13.05V20H69.44V11.95C69.44 10.67 69.05 9.64 68.25 8.84C67.47 8.04 66.42 7.63 65.12 7.63C63.59 7.63 62.4 8.34 61.87 9.25H61.69V7.93H58.35V20H61.9ZM70.87 14.03C70.87 15.93 71.37 17.44 72.4 18.58C73.43 19.72 74.78 20.29 76.45 20.29C78.44 20.29 79.42 19.19 79.79 18.62H79.97V19.99H83.49V2.86H79.95V9.3H79.77C79.22 8.46 78.03 7.63 76.36 7.63C74.69 7.63 73.41 8.22 72.38 9.41C71.37 10.58 70.87 12.13 70.87 14.03ZM74.46 13.96C74.46 12.11 75.58 10.83 77.23 10.83C78.88 10.83 80.02 12.06 80.02 13.96C80.02 15.86 78.92 17.09 77.25 17.09C75.58 17.09 74.46 15.81 74.46 13.96ZM84.9 14.03C84.83 17.6 87.62 20.36 91.03 20.29C94.25 20.29 96.49 18.69 97.04 16.13H93.84C93.47 16.95 92.51 17.57 91.17 17.57C89.52 17.57 88.38 16.5 88.27 14.94H97.16V13.91C97.16 10.55 95.08 7.63 91.1 7.63C89.27 7.63 87.79 8.22 86.62 9.41C85.48 10.6 84.91 12.13 84.91 14.03H84.9ZM88.33 12.59C88.49 11.33 89.63 10.33 91.1 10.33C92.65 10.33 93.75 11.29 93.87 12.59H88.33ZM111.58 20V9.94H111.72L117.82 20H121.84V4H118.34V14.06H118.2L112.07 4H108.07V20H111.58ZM123.44 14.03C123.37 17.6 126.16 20.36 129.57 20.29C132.79 20.29 135.03 18.69 135.58 16.13H132.38C132.01 16.95 131.05 17.57 129.71 17.57C128.06 17.57 126.92 16.5 126.81 14.94H135.7V13.91C135.7 10.55 133.62 7.63 129.64 7.63C127.81 7.63 126.33 8.22 125.16 9.41C124.02 10.6 123.45 12.13 123.45 14.03H123.44ZM126.87 12.59C127.03 11.33 128.17 10.33 129.64 10.33C131.19 10.33 132.29 11.29 132.41 12.59H126.87ZM138.5 10.7V15.82C138.5 18.47 140.05 20 142.71 20H145.16V17.07H143.61C142.6 17.07 142.06 16.54 142.06 15.63V10.69H145.21V7.93H142.06V4.66H138.7V6.88C138.7 7.52 138.33 7.96 137.72 7.96H136.58V10.7H138.52H138.5ZM98.75 20V12C98.75 9.35 100.3 7.82 102.96 7.82H106.52V10.75H103.86C102.85 10.75 102.31 11.27 102.31 12.19V20.01H98.77L98.75 20Z" fill="#F9F9F9" fill-opacity="0.9"></path>
                  </g>
                  <defs>
                    <clipPath id="clip0_2149_239">
                      <rect width="146" height="24" fill="white"></rect>
                    </clipPath>
                  </defs>
                </svg>