<svg width="684" height="231" viewBox="0 0 684 231" fill="none" xmlns="http://www.w3.org/2000/svg">
<g clip-path="url(#clip0_865_96)">
<path fill-rule="evenodd" clip-rule="evenodd" d="M594.504 109.68L579.036 107.934C569.972 106.936 567.727 104.689 567.727 101.612C567.727 98.2027 572.388 95.1256 581.446 95.1256C590.18 95.1256 594.755 98.3712 595.587 103.278H612.217C611.369 89.2211 599.57 80.4922 582.364 80.4922C561.905 80.4922 551.593 88.6393 551.593 103.024C551.593 114.75 558.413 120.242 572.553 121.738L588.266 123.399C594.254 124.065 597 126.395 597 129.388C597 132.798 593.006 135.875 583.361 135.875C572.217 135.875 567.727 133.046 566.981 127.39H550.681C551.428 142.694 561.404 150.508 582.779 150.508C602.321 150.508 613.214 141.944 613.214 129.055C613.214 117.827 606.73 111.092 594.504 109.68ZM234.183 135.373C243.249 135.373 248.572 131.883 248.572 123.234V82.0726H265.532V125.148C265.532 144.355 248.488 150.343 234.183 150.343C219.798 150.343 202.669 144.355 202.669 125.148V82.0726H219.633V123.234C219.633 131.714 225.369 135.373 234.183 135.373ZM1.26471 148.852L60.8366 111.795H91.7399C91.9766 111.795 92.2117 111.842 92.4309 111.933C92.65 112.024 92.8489 112.157 93.0163 112.325C93.1843 112.493 93.317 112.692 93.4071 112.912C93.4978 113.131 93.5442 113.366 93.5436 113.603C93.5682 113.912 93.501 114.22 93.3512 114.49C93.2008 114.759 92.9747 114.979 92.7007 115.121L63.4412 132.663C61.5404 133.801 60.8745 136.085 60.8745 137.796L60.8451 148.852H98.0278V84.6015C98.0288 84.2933 97.967 83.9883 97.847 83.7047C97.7265 83.421 97.55 83.1645 97.3277 82.9513C97.1059 82.7375 96.8425 82.5711 96.554 82.4623C96.2661 82.3536 95.959 82.304 95.6513 82.3173H60.1706L0.742188 119.213V148.852H1.26471ZM489.642 148.847H543.195V134.458H506.608V122.404H536.045V107.93H506.608V96.7065H543.195V82.3216H489.642V148.847ZM127.494 148.847L153.023 82.3216H174.661L200.502 148.847H182.379L177.995 136.372H149.495L145.04 148.847H127.494ZM163.863 96.1584L154.544 122.235L173.026 122.244L163.863 96.1584ZM273.267 96.7065H294.724V148.847H311.689V96.7065H333.058V82.3216H273.267V96.7065ZM683.233 82.3216H663.025L638.829 109.347V82.3216H621.862L621.948 148.847H638.829V123.567L661.777 148.847H683.233L652.297 115.997L683.233 82.3216ZM418.625 82.3216H449.726C473.845 82.3216 480.163 91.7159 480.163 115.083C480.163 139.95 473.596 148.847 449.726 148.847H418.625V82.3216ZM435.558 134.467H449.045C459.29 134.467 462.864 129.219 462.847 115.083C462.847 99.6188 459.689 96.7065 449.045 96.7065H435.558V134.467ZM335.801 115.416C335.801 95.3746 348.357 80.4922 372.559 80.4922C396.839 80.4922 409.397 95.3746 409.397 115.416C409.397 135.542 396.839 150.508 372.559 150.508C348.357 150.508 335.801 135.542 335.801 115.416ZM353.099 115.416C353.099 127.891 360.002 135.542 372.559 135.542C385.199 135.542 392.017 127.891 392.017 115.416C392.017 103.193 385.203 95.4589 372.559 95.4589C360.002 95.4589 353.099 103.193 353.099 115.416Z" fill="black"/>
</g>
<defs>
<clipPath id="clip0_865_96">
<rect width="682.491" height="231" fill="white" transform="translate(0.742188)"/>
</clipPath>
</defs>
</svg>
