<svg width="162" height="231" viewBox="0 0 162 231" fill="none" xmlns="http://www.w3.org/2000/svg">
<g clip-path="url(#clip0_865_126)">
<g clip-path="url(#clip1_865_126)">
<path fill-rule="evenodd" clip-rule="evenodd" d="M152.559 34.8682H0.615234V174.793L0.879375 174.529H0.967422V174.441L1.31961 174.089L1.4957 173.825C1.78153 173.519 2.0292 173.184 2.27825 172.848C2.56896 172.456 2.86155 172.061 3.21891 171.705C4.73555 169.84 6.18399 167.972 7.65427 166.076C7.85452 165.818 8.05517 165.559 8.25645 165.3C12.9827 159.335 17.58 153.325 22.1301 147.228C24.0462 144.548 26.1859 141.84 28.3569 139.091C33.3437 132.778 38.4956 126.257 41.4816 119.393H53.8082C53.9931 123.971 54.9802 126.991 56.1319 130.514C56.6247 132.021 57.1476 133.621 57.6508 135.474C58.1328 137.002 58.5966 138.529 59.0591 140.052C59.6133 141.878 60.1656 143.697 60.745 145.502L61.0972 146.606L61.6286 148.593L61.8927 149.345L62.0688 150.096L62.2449 150.627L62.421 151.071L62.5091 151.335V151.423L66.707 146.121C65.8433 143.947 64.9392 140.869 63.936 137.454C62.1671 131.433 60.0903 124.364 57.3835 119.346H71.8326C71.7422 121.555 72.2932 123.328 72.8767 125.205C73.1453 126.07 73.4208 126.956 73.6439 127.918C74.0128 129.141 74.3478 130.381 74.6824 131.619C75.1091 133.199 75.5353 134.777 76.0306 136.314C76.9708 135.059 77.9562 133.817 78.9414 132.574C79.9003 131.365 80.859 130.156 81.7756 128.937C82.3601 128.108 83.0454 127.307 83.7372 126.498C85.554 124.374 87.4152 122.198 87.6087 119.349H99.6712C94.92 123.775 90.308 129.835 85.8897 135.642C83.7343 138.474 81.625 141.246 79.5682 143.738C79.9656 144.953 80.3065 146.197 80.6465 147.438C80.9118 148.406 81.1767 149.373 81.4675 150.322C82.2143 149.352 82.9629 148.382 83.7119 147.411C86.8169 143.386 89.9296 139.351 92.9544 135.257C93.8838 133.967 94.905 132.641 95.9487 131.285C98.8742 127.485 101.977 123.454 103.734 119.352H115.529V119.883L115.617 121.254L115.881 122.713L116.057 123.817L123.62 149.389C124.75 152.503 125.751 155.703 126.754 158.908C127.516 161.34 128.278 163.775 129.098 166.177C129.379 166.953 129.696 167.914 130.043 168.969C131.219 172.543 132.749 177.195 134.487 179.343H119.334C119.334 176.064 118.371 172.989 117.405 169.904C117.095 168.916 116.786 167.926 116.507 166.929C116.088 165.689 115.717 164.441 115.347 163.192C114.859 161.547 114.37 159.9 113.768 158.269L113.504 157.165L113.24 156.237L112.976 155.486L112.8 154.734L112.623 154.291L112.535 154.027V153.939H88.4106L84.568 159.328L84.656 159.416L84.7441 159.86L85.0082 160.611L85.2723 161.539L85.6245 162.643C85.9021 163.491 86.1729 164.354 86.4447 165.22C86.8657 166.562 87.2891 167.911 87.7439 169.227C87.8633 169.605 87.9737 169.956 88.0769 170.285C89.3502 174.336 89.5372 174.931 92.0299 179.346H77.4928C77.2126 176.576 76.675 174.788 75.9156 172.262C75.8398 172.01 75.7617 171.751 75.6815 171.482C73.2948 174.045 71.5716 176.076 70.1157 179.346H58.8048L58.8025 179.333C58.2287 175.984 57.9635 174.437 56.6854 171.13C56.0433 172.008 55.5017 172.709 55.0196 173.333C53.6109 175.155 52.7108 176.32 51.2957 179.346H40.0728C43.9844 175.782 47.2978 171.431 50.5466 167.164C51.4452 165.984 52.3389 164.81 53.239 163.662L50.4121 153.986H26.4633V154.074L25.9319 154.605L25.5797 155.137L25.1363 155.75L24.6049 156.501L23.9854 157.429L23.2339 158.269C22.2006 159.698 21.123 161.095 20.0451 162.491C18.9579 163.9 17.8706 165.309 16.8284 166.753C16.1249 167.667 15.394 168.586 14.6571 169.512C12.1532 172.66 9.57977 175.896 7.77219 179.343H0.615234V196.132H161.615V34.8688L161.616 34.8682H161.615V34.8688L100.423 114.485H91.0996L152.559 34.8682ZM96.6796 143.352C99.9226 139.327 103.345 135.079 105.724 130.833L105.948 130.613V130.701L106.036 130.877V133.263L106.3 135.075L106.476 135.826L106.74 136.754L107.092 137.858L107.444 139.137C108.284 141.7 109.124 144.351 109.919 146.914H93.8381C94.7469 145.751 95.7052 144.561 96.6796 143.352ZM37.7742 139.669C39.9376 137.018 42.3243 133.836 44.0035 130.833L44.1827 130.525L44.2708 130.613V131.628L44.3588 133.175L44.623 134.987L44.7991 135.738L45.0632 136.666L45.4154 137.77L45.7676 139.049C45.9943 139.767 46.2246 140.506 46.4574 141.254C47.0417 143.129 47.642 145.056 48.2423 146.826H32.1612V146.738L32.4253 146.474L32.6895 146.121L33.1328 145.678L33.5762 145.059L34.1077 144.307C34.5864 143.687 35.0869 143.073 35.5889 142.458C36.3366 141.541 37.0875 140.621 37.7742 139.669ZM72.5873 162.287L68.2133 168.385L65.4744 159.813L69.7604 154.247C70.6 156.942 71.5276 159.637 72.5873 162.287Z" fill="black"/>
</g>
</g>
<defs>
<clipPath id="clip0_865_126">
<rect width="161" height="231" fill="white" transform="translate(0.615234)"/>
</clipPath>
<clipPath id="clip1_865_126">
<rect width="161" height="161" fill="white" transform="translate(0.615234 35)"/>
</clipPath>
</defs>
</svg>
