<svg width="442" height="231" viewBox="0 0 442 231" fill="none" xmlns="http://www.w3.org/2000/svg">
<g clip-path="url(#clip0_865_231)">
<path d="M0.398438 125.089C0.398438 122.586 0.398437 120.083 0.475941 117.43C1.02686 112.288 2.07495 107.423 3.96132 102.77C8.13876 92.4662 14.6495 84.1263 24.7042 78.9937C33.6628 74.4205 43.3157 74.047 53.0797 74.9434C59.3665 75.5205 65.3317 77.4724 71.2629 79.5446C76.5168 81.3801 81.7741 83.2368 87.1219 84.7613C90.2711 85.659 93.5995 85.9277 96.8345 86.5351C99.3862 86.6187 101.951 86.6469 104.516 86.6666C104.526 86.6667 104.538 86.5449 104.638 86.439C109.207 86.0802 113.587 85.2278 117.853 83.8208C125.048 81.4475 131.566 77.7322 137.89 73.6401C144.571 69.3172 151.161 64.8463 157.952 60.7049C166.586 55.4402 175.929 51.9901 186.017 50.7239C187.414 50.5486 188.807 50.3341 190.201 50.1377C192.778 50.1377 195.354 50.1377 198.072 50.2118C198.477 50.3819 198.732 50.5322 199.003 50.5655C202.006 50.9357 205.037 51.1424 208.009 51.6815C211.697 52.3506 215.335 53.2926 218.996 54.1129C219.983 54.3342 220.974 54.542 221.958 54.7613C221.952 54.7666 221.952 54.7513 221.979 54.825C223.754 55.441 225.501 55.9832 227.244 56.5293C227.24 56.533 227.237 56.5219 227.266 56.595C228.086 56.9151 228.878 57.1621 229.667 57.4121C229.663 57.4152 229.661 57.4059 229.701 57.4714C231.405 58.229 233.057 58.9489 234.734 59.604C235.973 60.0878 237.245 60.4871 238.495 60.9295C238.488 60.935 238.489 60.9175 238.516 60.9926C238.892 61.1713 239.241 61.2749 239.586 61.3812C239.582 61.3839 239.58 61.3745 239.606 61.4461C240.647 61.9129 241.661 62.308 242.671 62.7051C242.667 62.7071 242.664 62.6994 242.69 62.7716C243.366 63.088 244.017 63.3321 244.662 63.5804C244.656 63.5846 244.655 63.5703 244.681 63.643C245.354 63.9638 246.002 64.2118 246.644 64.4635C246.639 64.4673 246.638 64.4539 246.664 64.5263C247.337 64.8467 247.985 65.0946 248.628 65.3463C248.623 65.3501 248.621 65.3375 248.645 65.4102C249.315 65.7328 249.961 65.9827 250.605 66.2332C250.602 66.2338 250.599 66.2298 250.628 66.3023C250.942 66.4667 251.229 66.5586 251.506 66.6536C251.498 66.6567 251.494 66.6392 251.531 66.7075C252.207 67.0322 252.846 67.2887 253.479 67.5493C253.473 67.5534 253.473 67.5397 253.496 67.6126C254.165 67.9366 254.81 68.1877 255.453 68.4384C255.451 68.438 255.447 68.4364 255.476 68.5086C255.79 68.6738 256.074 68.7668 256.351 68.8631C256.344 68.8662 256.34 68.8502 256.377 68.9185C257.051 69.2433 257.689 69.4998 258.323 69.7586C258.32 69.7609 258.317 69.7524 258.342 69.8241C259.312 70.2869 260.258 70.678 261.197 71.0727C261.19 71.0763 261.187 71.0612 261.226 71.1281C261.904 71.4488 262.543 71.7026 263.177 71.96C263.172 71.9636 263.17 71.9515 263.195 72.0243C263.866 72.3451 264.514 72.5933 265.158 72.844C265.154 72.8466 265.152 72.8376 265.177 72.9099C265.851 73.2283 266.5 73.4743 267.144 73.7239C267.14 73.7274 267.138 73.7158 267.164 73.7882C267.841 74.105 268.491 74.3495 269.135 74.5988C269.128 74.6038 269.129 74.5874 269.156 74.6619C269.529 74.842 269.876 74.9476 270.222 75.0518C270.22 75.0505 270.216 75.0513 270.245 75.1227C270.925 75.4346 271.577 75.675 272.223 75.9201C272.216 75.9247 272.215 75.9082 272.242 75.9831C272.618 76.1619 272.967 76.2657 273.313 76.3717C273.31 76.3737 273.307 76.3666 273.334 76.438C274.948 77.2122 276.514 77.9696 278.129 78.6005C279.435 79.1104 280.8 79.4679 282.134 79.8965C282.13 79.9001 282.128 79.8894 282.168 79.9553C283.802 80.5659 285.395 81.1106 286.985 81.6593C286.981 81.6633 286.979 81.6521 287.01 81.7268C287.461 81.9024 287.881 82.0034 288.3 82.1041C288.299 82.1037 288.296 82.1032 288.326 82.1756C288.471 82.3321 288.574 82.4562 288.703 82.4944C292.614 83.6539 296.515 84.8497 300.446 85.9392C302.519 86.5141 304.631 86.9811 306.751 87.3523C309.117 87.7665 311.506 88.0637 313.894 88.3264C316.799 88.646 319.716 89.1226 322.623 89.0867C326.818 89.0349 331.019 88.6853 335.198 88.2666C337.981 87.9879 340.75 87.4618 343.487 86.8702C345.73 86.3851 347.928 85.6733 350.126 84.9945C351.073 84.702 351.967 84.239 352.884 83.8602C352.884 83.8668 352.874 83.8574 352.967 83.8629C353.883 83.5684 354.707 83.2684 355.53 82.9756C355.529 82.9829 355.517 82.9738 355.609 82.9795C358.091 82.1931 360.482 81.4028 362.869 80.5999C362.944 80.5748 362.975 80.4199 363.025 80.3324C363.024 80.3392 363.014 80.3303 363.105 80.3355C363.949 80.0443 364.702 79.7478 365.454 79.4557C365.453 79.4601 365.445 79.4544 365.537 79.459C366.77 79.1349 367.925 78.8406 369.05 78.462C369.57 78.2873 370.034 77.9478 370.522 77.6891C370.521 77.6952 370.511 77.6871 370.6 77.6926C371.075 77.5462 371.46 77.3941 371.844 77.2482C371.843 77.2543 371.834 77.2459 371.926 77.2509C373.355 76.8092 374.693 76.3625 376.03 75.9231C376.029 75.9302 376.02 75.9193 376.114 75.9256C379.045 75.2938 381.863 74.5565 384.722 74.0455C387.626 73.5267 390.56 73.0198 393.497 72.8968C396.476 72.7721 399.476 73.1168 402.466 73.2674C405.519 73.4211 408.395 74.3588 411.269 75.2939C412.826 75.8004 414.383 76.3077 415.938 76.8149C415.935 76.8151 415.932 76.8119 415.96 76.8842C416.273 77.0502 416.558 77.1441 416.835 77.2418C416.827 77.2457 416.827 77.2292 416.852 77.3034C417.161 77.4766 417.445 77.5756 417.721 77.6785C417.713 77.6823 417.712 77.665 417.737 77.7392C418.04 77.9177 418.319 78.0222 418.592 78.1303C418.586 78.134 418.585 78.1198 418.608 78.1921C419.137 78.5101 419.643 78.7558 420.142 79.0045C420.134 79.0077 420.135 78.991 420.153 79.065C420.752 79.4609 421.333 79.7828 421.905 80.1074C421.896 80.1101 421.892 80.0912 421.926 80.1553C422.164 80.329 422.368 80.4386 422.564 80.5505C422.556 80.5528 422.552 80.5368 422.586 80.6004C422.821 80.7752 423.022 80.8864 423.217 80.9997C423.212 81.002 423.212 80.9904 423.228 81.0658C423.533 81.3122 423.821 81.4831 424.102 81.6568C424.095 81.6597 424.098 81.6454 424.116 81.7181C424.378 81.9329 424.623 82.0752 424.854 82.2242C424.841 82.2309 424.844 82.2006 424.866 82.2649C424.999 82.3964 425.11 82.4635 425.214 82.5319C425.206 82.5331 425.207 82.5165 425.223 82.5895C425.478 82.8194 425.717 82.9764 425.935 83.1386C425.915 83.1438 425.916 83.1023 425.947 83.1549C426.048 83.2412 426.119 83.2749 426.153 83.344C426.115 83.3793 426.183 83.3016 426.201 83.3678C426.33 83.506 426.441 83.578 426.597 83.6603C426.702 83.7036 426.734 83.7541 426.77 83.8764C426.866 83.98 426.932 84.0291 426.986 84.077C426.973 84.0759 426.978 84.0509 426.987 84.1276C427.876 85.0417 428.755 85.8793 429.623 86.7193C429.613 86.7217 429.61 86.7005 429.638 86.7518C429.725 86.8524 429.785 86.9017 429.835 86.9505C429.826 86.9499 429.828 86.9318 429.853 86.9828C429.937 87.0805 429.996 87.1272 430.049 87.1741C430.043 87.1744 430.046 87.1627 430.063 87.2276C430.181 87.3738 430.281 87.4552 430.362 87.5389C430.343 87.5412 430.353 87.5043 430.36 87.5816C430.565 87.8574 430.765 88.056 430.952 88.256C430.94 88.2574 430.94 88.2324 430.965 88.2856C431.048 88.3911 431.106 88.4434 431.156 88.495C431.148 88.4943 431.152 88.48 431.166 88.5455C431.279 88.6927 431.378 88.7744 431.453 88.8725C431.429 88.889 431.467 88.8455 431.464 88.9199C431.594 89.1204 431.727 89.2465 431.904 89.3902C432.001 89.4524 432.025 89.5093 432.03 89.6511C432.194 89.9004 432.348 90.0768 432.491 90.2517C432.48 90.2502 432.485 90.2292 432.497 90.2965C432.606 90.4505 432.703 90.5373 432.784 90.632C432.768 90.6399 432.788 90.6104 432.782 90.6823C432.897 90.8835 433.017 91.0129 433.133 91.1418C433.128 91.1413 433.132 91.1326 433.134 91.2076C433.285 91.4556 433.433 91.6286 433.576 91.8014C433.57 91.8011 433.575 91.7907 433.577 91.8655C433.723 92.1164 433.868 92.2923 434.011 92.4667C434.01 92.4652 434.009 92.4608 434.02 92.5262C434.11 92.6954 434.188 92.7992 434.255 92.8995C434.243 92.896 434.251 92.8725 434.256 92.9527C434.481 93.3534 434.702 93.674 434.914 93.9947C434.906 93.9949 434.912 93.9791 434.911 94.0615C435.2 94.6131 435.491 95.0821 435.778 95.5501C435.773 95.5491 435.777 95.5414 435.776 95.6216C435.924 95.9451 436.075 96.1883 436.22 96.4308C436.215 96.43 436.22 96.421 436.217 96.501C436.362 96.827 436.509 97.0729 436.656 97.317C436.655 97.3151 436.654 97.3117 436.652 97.3989C437.245 98.8975 437.839 100.309 438.427 101.719C438.421 101.718 438.429 101.708 438.423 101.797C438.57 102.271 438.721 102.657 438.867 103.041C438.861 103.04 438.869 103.03 438.863 103.124C438.878 103.51 438.85 103.814 438.925 104.09C439.827 107.393 440.56 110.719 440.7 114.164C440.747 115.313 441.084 116.451 441.288 117.594C441.288 119.288 441.288 120.983 441.209 122.827C440.898 124.721 440.734 126.478 440.42 128.208C437.828 142.492 430.95 154.066 419.009 162.583C402.649 174.252 384.192 179.234 364.401 180.207C353.99 180.719 343.614 180.095 333.255 179.243C322.39 178.348 311.547 177.196 300.691 176.193C290.346 175.238 280.009 174.134 269.646 173.45C257.518 172.65 245.37 172.083 233.222 171.695C221.253 171.312 209.272 171.372 197.31 172.092C191.226 172.458 185.146 172.914 179.076 173.463C173.156 173.999 167.248 174.681 161.339 175.345C154.775 176.082 148.22 176.9 141.655 177.629C135.6 178.301 129.545 178.996 123.475 179.507C117.585 180.003 111.677 180.276 105.778 180.656C105.625 180.666 105.479 180.791 105.33 180.861C98.9326 180.861 92.5351 180.861 85.9876 180.779C81.6013 180.317 77.3527 180.04 73.1312 179.538C63.3104 178.368 53.7236 176.151 44.4439 172.699C33.3653 168.578 23.2469 162.877 14.7029 154.576C7.57251 147.649 2.91954 139.4 1.14794 129.58C0.878546 128.086 0.647318 126.586 0.398438 125.089ZM364.679 117.606C364.503 117.685 364.327 117.764 364.144 117.822C364.144 117.822 364.16 117.838 363.987 117.827C363.599 117.976 363.212 118.125 362.817 118.254C362.817 118.254 362.829 118.272 362.655 118.24C362.486 117.811 362.175 117.384 362.171 116.954C362.132 113.073 362.156 109.193 362.138 105.312C362.136 104.853 361.994 104.395 361.714 103.906C360.111 103.906 358.508 103.906 356.824 103.906C356.824 108.838 356.824 113.638 356.824 118.629C352.078 117.095 347.462 115.604 342.753 114.082C342.215 115.742 341.702 117.325 341.172 118.962C345.887 120.5 350.491 122.001 355.192 123.533C352.239 127.603 349.404 131.511 346.533 135.468C347.971 136.511 349.295 137.472 350.69 138.483C353.613 134.472 356.47 130.551 359.376 126.563C362.312 130.596 365.156 134.503 368.055 138.486C369.497 137.44 370.842 136.464 372.216 135.466C369.283 131.427 366.452 127.528 363.548 123.528C368.328 121.972 372.913 120.479 377.579 118.96C377.028 117.279 376.508 115.694 375.982 114.089C375.527 114.235 375.179 114.347 374.83 114.457C371.723 115.44 368.615 116.422 365.351 117.399C365.164 117.477 364.978 117.554 364.804 117.605C364.804 117.605 364.831 117.618 364.679 117.606ZM207.142 150.139C207.395 150.168 207.649 150.222 207.902 150.222C215.991 150.226 224.081 150.227 232.17 150.218C232.489 150.217 232.807 150.108 233.201 149.97C233.2 149.835 233.2 149.7 233.178 149.358C233.157 147.816 233.135 146.274 232.992 144.619C232.596 144.572 232.201 144.488 231.805 144.485C229.676 144.472 227.547 144.483 225.418 144.477C224.002 144.474 223.943 144.415 223.942 142.972C223.939 136.401 223.945 129.831 223.938 123.26C223.933 118.635 223.913 114.011 223.765 109.297C223.378 109.213 222.992 109.058 222.605 109.057C217.893 109.04 213.18 109.037 208.467 109.062C208.111 109.064 207.757 109.3 207.237 109.526C207.22 111.003 207.187 112.479 207.206 113.955C207.209 114.156 207.471 114.353 207.772 114.639C210.45 114.669 213.127 114.719 215.805 114.717C216.594 114.717 216.923 114.973 216.921 115.796C216.904 124.977 216.905 134.157 216.918 143.337C216.919 144.178 216.582 144.533 215.737 144.523C213.754 144.498 211.771 144.496 209.788 144.521C206.187 144.566 206.563 143.954 206.57 147.723C206.571 148.416 206.786 149.108 206.938 149.817C206.938 149.817 206.928 149.854 206.939 149.964C206.954 149.998 206.969 150.032 207.142 150.139ZM196.961 144.56C196.551 144.465 196.141 144.289 195.73 144.286C192.903 144.262 190.075 144.274 187.248 144.273C185.576 144.272 185.574 144.271 185.574 142.559C185.574 125.961 185.577 109.363 185.562 92.7645C185.561 92.2432 185.379 91.722 185.203 91.1201C185.168 91.0535 185.134 90.9869 184.961 90.8097C184.747 90.7694 184.533 90.6941 184.32 90.6939C178.968 90.6868 173.616 90.6836 168.265 90.6976C167.956 90.6984 167.647 90.8501 167.262 91.0786C167.24 92.6429 167.209 94.2072 167.214 95.7715C167.215 95.9066 167.45 96.0409 167.695 96.2949C168.091 96.338 168.488 96.4168 168.885 96.4184C171.638 96.4295 174.392 96.4533 177.145 96.4093C178.125 96.3937 178.517 96.7006 178.515 97.7291C178.493 112.893 178.494 128.056 178.514 143.22C178.515 144.186 178.158 144.505 177.216 144.493C174.132 144.456 171.048 144.472 167.964 144.49C167.605 144.492 167.248 144.637 166.81 144.909C166.832 146.593 166.854 148.277 167.007 150.079C167.365 150.129 167.724 150.22 168.083 150.221C177.337 150.228 186.592 150.229 195.847 150.215C196.229 150.214 196.61 150.057 197.098 149.825C197.075 148.122 197.053 146.419 196.961 144.56ZM128.509 130.865C129.133 130.854 129.757 130.832 130.381 130.832C138.719 130.83 147.058 130.835 155.396 130.821C155.891 130.82 156.387 130.676 157.003 130.458C157.378 127.29 157.174 124.146 156.418 121.061C155.208 116.127 152.657 112.154 147.903 109.92C139.463 105.954 128.997 109.578 124.709 117.964C122.165 122.939 121.669 128.26 122.293 133.724C122.844 138.545 124.65 142.789 128.285 146.131C131.959 149.508 136.516 150.639 141.29 151.014C142.775 151.131 144.321 150.704 145.816 150.413C149.86 149.625 153.314 147.779 156.027 144.567C155.418 143.955 154.837 143.397 154.287 142.81C153.741 142.227 153.225 141.616 152.674 140.991C152.15 141.484 151.836 141.786 151.514 142.081C144.755 148.262 133.551 146.176 129.888 138.048C128.865 135.778 128.409 133.376 128.509 130.865ZM293.861 131.192C294.377 131.072 294.893 130.848 295.409 130.847C303.853 130.825 312.296 130.835 320.74 130.821C321.236 130.82 321.732 130.68 322.369 130.477C322.241 127.63 322.369 124.743 321.926 121.946C321.273 117.821 319.414 114.214 316.007 111.593C307.832 105.306 294.954 108.439 290.091 117.927C287.565 122.855 287.03 128.135 287.636 133.566C288.173 138.383 289.931 142.642 293.525 146.017C297.193 149.463 301.78 150.829 306.588 150.973C310.662 151.095 314.646 149.992 318.075 147.56C319.278 146.708 320.334 145.65 321.201 144.906C319.998 143.551 318.939 142.357 317.865 141.148C317.481 141.511 317.167 141.818 316.843 142.112C312.139 146.381 304.396 146.863 299.315 143.113C295.374 140.204 294.008 136.01 293.861 131.192ZM275.935 146.345C276.571 145.753 277.206 145.161 277.903 144.512C276.614 143.02 275.409 141.626 274.122 140.136C273.742 140.566 273.497 140.893 273.205 141.169C265.954 148.025 254.752 145.704 250.856 136.529C249.305 132.876 249.039 129.073 249.725 125.194C250.939 118.326 256.497 113.619 263.21 113.863C267.721 114.027 271.207 116.248 274.048 119.621C274.249 119.859 274.46 120.088 274.708 120.368C275.717 119.193 276.567 118.022 277.603 117.047C278.546 116.16 278.324 115.545 277.597 114.701C274.248 110.814 269.968 108.803 264.917 108.468C257.713 107.99 251.581 110.26 247.089 116.082C243.171 121.161 242.144 127.031 243.016 133.27C243.765 138.633 246.094 143.209 250.345 146.646C257.645 152.546 267.987 152.431 275.935 146.345ZM84.2909 103.899C83.8263 103.899 83.3618 103.899 82.8144 103.899C82.8144 108.829 82.8144 113.627 82.8144 118.628C78.0676 117.094 73.455 115.604 68.7484 114.083C68.2124 115.733 67.6979 117.317 67.1632 118.962C71.8731 120.498 76.4794 121.999 81.1845 123.533C78.2401 127.589 75.4036 131.496 72.5217 135.466C73.9438 136.497 75.268 137.458 76.6827 138.484C79.5954 134.482 82.4543 130.554 85.3609 126.561C88.2968 130.589 91.1587 134.515 94.0538 138.487C95.5086 137.428 96.8293 136.466 98.2059 135.464C95.2928 131.452 92.4587 127.549 89.5408 123.531C94.2996 121.98 98.9085 120.477 103.576 118.956C103.014 117.256 102.494 115.679 101.966 114.083C97.238 115.613 92.6481 117.099 87.9047 118.634C87.9047 113.634 87.9047 108.809 87.9047 103.899C86.6979 103.899 85.6033 103.899 84.2909 103.899ZM50.8067 105.275C44.0692 119.829 37.3317 134.383 30.5735 148.982C32.337 149.858 33.991 150.68 35.7041 151.532C44.8433 131.862 53.9283 112.31 63.0296 92.7216C61.2396 91.8186 59.5771 90.9799 57.8265 90.0967C55.4845 95.1582 53.1793 100.14 50.8067 105.275ZM406.183 96.032C398.017 113.668 389.851 131.305 381.666 148.982C383.447 149.869 385.079 150.683 386.792 151.537C395.908 131.921 404.996 112.364 414.121 92.7265C412.359 91.8346 410.678 90.9844 408.928 90.0992C408 92.0975 407.122 93.9871 406.183 96.032ZM224.723 94.2588C223.48 92.2097 221.517 91.3239 219.42 91.8665C217.527 92.3563 216.099 94.0778 215.995 95.9946C215.894 97.8587 216.901 99.5753 218.567 100.382C220.266 101.204 222.32 100.91 223.701 99.6482C225.161 98.3132 225.545 96.473 224.723 94.2588Z" fill="black"/>
<path d="M288.326 82.1758C292.16 83.2234 296 84.4324 299.892 85.446C310.259 88.1466 320.789 89.3172 331.499 88.453C338.661 87.875 345.584 86.1602 352.391 83.9265C352.495 83.8924 352.605 83.8745 352.799 83.8513C351.967 84.2392 351.073 84.7022 350.126 84.9947C347.929 85.6735 345.731 86.3853 343.487 86.8704C340.75 87.462 337.982 87.9881 335.199 88.2668C331.02 88.6855 326.819 89.0351 322.623 89.0869C319.717 89.1228 316.799 88.6462 313.895 88.3266C311.506 88.0639 309.117 87.7667 306.752 87.3525C304.632 86.9813 302.52 86.5143 300.446 85.9394C296.516 84.8499 292.615 83.6541 288.704 82.4946C288.575 82.4564 288.471 82.3323 288.326 82.1758Z" fill="black"/>
<path d="M207.694 114.596C210.766 114.553 213.918 114.553 217.165 114.553C217.165 124.601 217.165 134.628 217.165 144.77C213.779 144.77 210.418 144.77 206.926 144.77C206.926 146.452 206.926 148.023 206.915 149.697C206.787 149.109 206.572 148.416 206.571 147.723C206.564 143.954 206.188 144.566 209.789 144.521C211.772 144.496 213.756 144.498 215.738 144.523C216.583 144.533 216.92 144.178 216.919 143.337C216.907 134.157 216.905 124.977 216.922 115.796C216.924 114.973 216.595 114.717 215.806 114.717C213.128 114.72 210.451 114.67 207.694 114.596Z" fill="black"/>
<path d="M196.995 144.639C193.143 144.717 189.257 144.717 185.227 144.717C185.227 126.903 185.227 109.146 185.254 91.2949C185.379 91.722 185.561 92.2432 185.561 92.7645C185.576 109.363 185.574 125.961 185.574 142.559C185.574 144.271 185.575 144.272 187.247 144.273C190.075 144.274 192.902 144.262 195.73 144.286C196.141 144.289 196.55 144.465 196.995 144.639Z" fill="black"/>
<path d="M167.636 96.2354C171.246 96.1758 174.914 96.1758 178.667 96.1758C178.667 112.302 178.667 128.438 178.667 144.741C174.832 144.741 170.959 144.741 166.988 144.729C167.248 144.638 167.606 144.492 167.964 144.49C171.049 144.472 174.133 144.456 177.217 144.494C178.158 144.505 178.515 144.186 178.514 143.22C178.495 128.057 178.493 112.893 178.516 97.7292C178.517 96.7007 178.125 96.3939 177.146 96.4095C174.393 96.4534 171.639 96.4296 168.885 96.4185C168.488 96.4169 168.092 96.3381 167.636 96.2354Z" fill="black"/>
<path d="M376.113 75.9249C379.919 74.9773 383.782 73.8136 387.728 73.1399C396.527 71.6375 405.161 72.4259 413.512 75.7169C414.293 76.0247 415.057 76.376 415.884 76.7606C414.382 76.3071 412.825 75.7998 411.268 75.2933C408.394 74.3581 405.519 73.4205 402.466 73.2667C399.475 73.1162 396.475 72.7715 393.496 72.8962C390.559 73.0192 387.625 73.5261 384.722 74.0449C381.862 74.5559 379.044 75.2932 376.113 75.9249Z" fill="black"/>
<path d="M223.717 144.626C223.692 144.189 223.644 143.753 223.644 143.317C223.64 132.527 223.64 121.737 223.64 110.947C223.64 110.477 223.64 110.007 223.64 109.435C218.227 109.435 212.917 109.435 207.504 109.431C207.756 109.299 208.111 109.063 208.466 109.061C213.179 109.037 217.892 109.039 222.605 109.056C222.992 109.057 223.378 109.213 223.795 109.428C223.808 110.036 223.774 110.511 223.774 110.986C223.771 121.724 223.773 132.462 223.77 143.2C223.77 143.676 223.735 144.151 223.717 144.626Z" fill="black"/>
<path d="M223.812 144.675C223.737 144.151 223.771 143.676 223.772 143.201C223.775 132.463 223.773 121.725 223.776 110.987C223.776 110.512 223.81 110.036 223.864 109.474C223.914 114.011 223.934 118.635 223.939 123.26C223.946 129.831 223.94 136.401 223.943 142.972C223.944 144.415 224.003 144.474 225.419 144.477C227.548 144.483 229.678 144.472 231.806 144.485C232.202 144.488 232.598 144.573 233.054 144.676C230.045 144.729 226.975 144.726 223.812 144.675Z" fill="black"/>
<path d="M166.941 150.02C176.85 149.954 186.824 149.946 196.895 149.956C196.61 150.057 196.229 150.215 195.847 150.215C186.592 150.229 177.337 150.229 168.083 150.221C167.724 150.221 167.365 150.129 166.941 150.02Z" fill="black"/>
<path d="M293.802 131.26C293.561 130.872 293.564 130.529 294.204 130.567C294.35 130.576 294.497 130.567 294.643 130.567C303.772 130.569 312.9 130.571 322.128 130.588C321.732 130.679 321.236 130.82 320.739 130.821C312.296 130.834 303.853 130.824 295.409 130.846C294.893 130.848 294.377 131.071 293.802 131.26Z" fill="black"/>
<path d="M128.412 130.881C128.639 130.788 128.966 130.582 129.292 130.582C138.423 130.566 147.555 130.571 156.785 130.586C156.389 130.677 155.894 130.82 155.398 130.821C147.06 130.835 138.721 130.83 130.383 130.832C129.759 130.832 129.135 130.854 128.412 130.881Z" fill="black"/>
<path d="M206.936 149.909C215.445 149.865 223.959 149.877 232.473 149.881C232.683 149.881 232.892 149.785 233.151 149.649C233.201 149.7 233.202 149.835 233.069 150.01C224.285 150.056 215.635 150.061 206.986 150.066C206.971 150.032 206.956 149.998 206.936 149.909Z" fill="black"/>
<path d="M207.064 150.102C215.635 150.061 224.285 150.056 233.031 150.05C232.808 150.108 232.49 150.217 232.172 150.218C224.082 150.227 215.993 150.226 207.903 150.222C207.65 150.221 207.397 150.168 207.064 150.102Z" fill="black"/>
<path d="M185.028 90.8647C179.242 90.927 173.386 90.9341 167.434 90.9362C167.646 90.8497 167.954 90.698 168.263 90.6972C173.615 90.6833 178.967 90.6865 184.318 90.6935C184.532 90.6938 184.746 90.7691 185.028 90.8647Z" fill="black"/>
<path d="M273.336 76.4375C276.214 77.5065 279.119 78.6469 282.082 79.8399C280.801 79.4674 279.436 79.1099 278.131 78.6C276.516 77.9691 274.95 77.2117 273.336 76.4375Z" fill="black"/>
<path d="M355.609 82.9791C357.963 82.0901 360.409 81.2067 362.941 80.3242C362.975 80.4195 362.944 80.5744 362.869 80.5995C360.483 81.4023 358.091 82.1926 355.609 82.9791Z" fill="black"/>
<path d="M365.537 79.459C367.081 78.8623 368.716 78.2703 370.438 77.6807C370.034 77.9479 369.57 78.2873 369.051 78.462C367.925 78.8406 366.771 79.1349 365.537 79.459Z" fill="black"/>
<path d="M96.834 86.5345C99.3534 86.467 101.86 86.4552 104.458 86.4614C104.538 86.5443 104.526 86.6661 104.515 86.666C101.95 86.6464 99.3857 86.6181 96.834 86.5345Z" fill="black"/>
<path d="M282.168 79.9551C283.708 80.4432 285.289 80.9972 286.929 81.6031C285.395 81.1103 283.802 80.5657 282.168 79.9551Z" fill="black"/>
<path d="M436.652 97.3994C437.248 98.7249 437.842 100.138 438.435 101.636C437.839 100.309 437.245 98.898 436.652 97.3994Z" fill="black"/>
<path d="M426.986 84.1279C427.847 84.8925 428.716 85.7336 429.61 86.646C428.754 85.8796 427.875 85.0421 426.986 84.1279Z" fill="black"/>
<path d="M371.926 77.2516C373.174 76.8003 374.514 76.3539 375.942 75.9121C374.693 76.3632 373.355 76.8099 371.926 77.2516Z" fill="black"/>
<path d="M363.105 80.3353C363.772 80.0358 364.529 79.7416 365.371 79.4492C364.703 79.7476 363.95 80.0441 363.105 80.3353Z" fill="black"/>
<path d="M352.967 83.8626C353.703 83.5592 354.531 83.2614 355.445 82.9658C354.707 83.268 353.883 83.5681 352.967 83.8626Z" fill="black"/>
<path d="M420.154 79.0654C420.704 79.3194 421.273 79.6473 421.878 80.0402C421.335 79.7832 420.754 79.4613 420.154 79.0654Z" fill="black"/>
<path d="M267.164 73.7881C267.772 73.9698 268.406 74.2239 269.09 74.5359C268.491 74.3494 267.841 74.1049 267.164 73.7881Z" fill="black"/>
<path d="M270.244 75.1221C270.853 75.2998 271.49 75.5491 272.178 75.8565C271.577 75.6744 270.924 75.4339 270.244 75.1221Z" fill="black"/>
<path d="M418.609 78.1924C419.081 78.3719 419.575 78.6239 420.11 78.9387C419.645 78.756 419.138 78.5104 418.609 78.1924Z" fill="black"/>
<path d="M434.91 94.0615C435.197 94.4516 435.482 94.9241 435.774 95.4739C435.49 95.0821 435.2 94.613 434.91 94.0615Z" fill="black"/>
<path d="M370.602 77.6916C370.903 77.5352 371.294 77.3844 371.766 77.2373C371.461 77.3931 371.076 77.5451 370.602 77.6916Z" fill="black"/>
<path d="M287.01 81.7275C287.379 81.7716 287.778 81.8904 288.239 82.0572C287.881 82.0042 287.46 81.9032 287.01 81.7275Z" fill="black"/>
<path d="M434.254 92.9531C434.467 93.1973 434.684 93.5216 434.911 93.9205C434.7 93.6745 434.479 93.3539 434.254 92.9531Z" fill="black"/>
<path d="M269.156 74.6621C269.457 74.7091 269.784 74.8306 270.168 75.0028C269.877 74.9478 269.53 74.8422 269.156 74.6621Z" fill="black"/>
<path d="M423.229 81.0654C423.489 81.1689 423.766 81.3478 424.076 81.5901C423.821 81.4826 423.533 81.3118 423.229 81.0654Z" fill="black"/>
<path d="M272.242 75.9834C272.545 76.0276 272.876 76.1467 273.261 76.3178C272.967 76.266 272.618 76.1622 272.242 75.9834Z" fill="black"/>
<path d="M424.117 81.7188C424.328 81.7992 424.557 81.9523 424.828 82.1617C424.625 82.0759 424.38 81.9336 424.117 81.7188Z" fill="black"/>
<path d="M415.963 76.8848C416.208 76.9151 416.482 77.0177 416.8 77.1794C416.56 77.1447 416.276 77.0508 415.963 76.8848Z" fill="black"/>
<path d="M416.852 77.3037C417.098 77.3381 417.369 77.4467 417.684 77.6151C417.444 77.5759 417.161 77.4769 416.852 77.3037Z" fill="black"/>
<path d="M425.223 82.5898C425.433 82.6811 425.659 82.8453 425.92 83.0716C425.716 82.9768 425.478 82.8198 425.223 82.5898Z" fill="black"/>
<path d="M435.775 95.6211C435.924 95.7888 436.07 96.0366 436.221 96.3578C436.075 96.1879 435.924 95.9446 435.775 95.6211Z" fill="black"/>
<path d="M436.219 96.502C436.366 96.6721 436.51 96.9223 436.656 97.2461C436.51 97.0738 436.363 96.8279 436.219 96.502Z" fill="black"/>
<path d="M430.357 87.582C430.542 87.7097 430.732 87.9146 430.943 88.1873C430.763 88.0564 430.563 87.8579 430.357 87.582Z" fill="black"/>
<path d="M417.736 77.7383C417.978 77.7791 418.244 77.8942 418.554 78.0675C418.319 78.0213 418.04 77.9169 417.736 77.7383Z" fill="black"/>
<path d="M433.576 91.8662C433.714 91.9713 433.854 92.1513 434.003 92.4001C433.868 92.293 433.723 92.117 433.576 91.8662Z" fill="black"/>
<path d="M433.133 91.207C433.273 91.3092 433.416 91.4863 433.57 91.7322C433.432 91.628 433.284 91.455 433.133 91.207Z" fill="black"/>
<path d="M421.928 80.1553C422.098 80.202 422.302 80.3128 422.539 80.4859C422.369 80.4385 422.166 80.329 421.928 80.1553Z" fill="black"/>
<path d="M422.586 80.6006C422.753 80.6499 422.953 80.7629 423.188 80.9367C423.021 80.8865 422.821 80.7754 422.586 80.6006Z" fill="black"/>
<path d="M432.031 89.6514C432.172 89.7569 432.323 89.9354 432.488 90.1837C432.349 90.0771 432.195 89.9007 432.031 89.6514Z" fill="black"/>
<path d="M432.781 90.6816C432.896 90.7437 433.006 90.8777 433.126 91.0766C433.016 91.0122 432.896 90.8829 432.781 90.6816Z" fill="black"/>
<path d="M431.463 88.9199C431.584 88.978 431.702 89.1104 431.839 89.3078C431.726 89.2466 431.593 89.1204 431.463 88.9199Z" fill="black"/>
<path d="M431.166 88.5449C431.244 88.5646 431.336 88.6497 431.452 88.7952C431.377 88.7738 431.279 88.6921 431.166 88.5449Z" fill="black"/>
<path d="M430.064 87.2275C430.143 87.2465 430.238 87.3303 430.358 87.4753C430.282 87.4552 430.182 87.3738 430.064 87.2275Z" fill="black"/>
<path d="M424.867 82.2646C424.955 82.2702 425.064 82.34 425.198 82.4701C425.112 82.4633 425 82.3961 424.867 82.2646Z" fill="black"/>
<path d="M434.021 92.5264C434.091 92.5636 434.172 92.6663 434.26 92.836C434.19 92.7993 434.111 92.6955 434.021 92.5264Z" fill="black"/>
<path d="M432.498 90.2969C432.576 90.3199 432.666 90.4102 432.779 90.5625C432.704 90.5377 432.607 90.4509 432.498 90.2969Z" fill="black"/>
<path d="M426.201 83.3682C426.288 83.3783 426.392 83.4547 426.524 83.5907C426.441 83.5784 426.33 83.5063 426.201 83.3682Z" fill="black"/>
<path d="M429.639 86.752C429.679 86.7436 429.747 86.7865 429.831 86.8903C429.786 86.9019 429.726 86.8526 429.639 86.752Z" fill="black"/>
<path d="M429.854 86.9827C429.894 86.9734 429.96 87.015 430.041 87.1152C429.997 87.1271 429.938 87.0804 429.854 86.9827Z" fill="black"/>
<path d="M426.771 83.8764C426.814 83.8662 426.886 83.9104 426.979 84.0165C426.934 84.0291 426.868 83.98 426.771 83.8764Z" fill="black"/>
<path d="M425.945 83.1552C425.984 83.1388 426.053 83.175 426.156 83.2601C426.118 83.2753 426.047 83.2415 425.945 83.1552Z" fill="black"/>
<path d="M430.965 88.2857C431.005 88.2796 431.071 88.3266 431.149 88.4348C431.105 88.4435 431.048 88.3912 430.965 88.2857Z" fill="black"/>
<path d="M295.553 119.948C297.474 115.884 300.664 113.578 305.159 113.365C309.619 113.155 312.882 115.206 314.986 119.288C315.13 119.712 315.271 119.978 315.413 120.243C315.413 120.243 315.408 120.24 315.408 120.332C315.557 121.613 315.704 122.803 315.857 123.992C315.983 124.976 315.602 125.336 314.571 125.33C308.241 125.29 301.91 125.291 295.58 125.329C294.598 125.335 294.132 125.036 294.193 124.042C294.193 124.042 294.165 124.011 294.248 123.944C294.432 123.344 294.533 122.812 294.635 122.279C294.635 122.279 294.618 122.245 294.706 122.194C294.905 121.724 295.017 121.306 295.129 120.888C295.129 120.888 295.136 120.898 295.179 120.853C295.26 120.681 295.298 120.554 295.336 120.428C295.336 120.428 295.347 120.452 295.385 120.405C295.466 120.221 295.509 120.085 295.553 119.948Z" fill="black"/>
<path d="M294.141 124.113C294.135 125.037 294.601 125.336 295.582 125.33C301.913 125.292 308.244 125.291 314.574 125.331C315.605 125.337 315.986 124.977 315.859 123.993C315.707 122.804 315.56 121.614 315.412 120.33C316.182 121.914 316.298 123.673 316.111 125.551C308.704 125.551 301.352 125.551 293.871 125.551C293.944 125.086 294.016 124.635 294.141 124.113Z" fill="black"/>
<path d="M294.579 122.349C294.535 122.812 294.434 123.345 294.264 123.93C294.304 123.46 294.412 122.939 294.579 122.349Z" fill="black"/>
<path d="M295.074 120.946C295.018 121.307 294.906 121.725 294.723 122.185C294.774 121.819 294.897 121.411 295.074 120.946Z" fill="black"/>
<path d="M315.413 120.166C315.272 119.978 315.13 119.713 314.994 119.363C315.138 119.549 315.275 119.819 315.413 120.166Z" fill="black"/>
<path d="M295.279 120.468C295.299 120.556 295.261 120.682 295.174 120.856C295.158 120.771 295.19 120.639 295.279 120.468Z" fill="black"/>
<path d="M295.495 119.995C295.51 120.086 295.467 120.222 295.373 120.412C295.361 120.323 295.399 120.182 295.495 119.995Z" fill="black"/>
<path d="M147.016 115.838C147.086 115.836 147.141 115.864 147.227 116.019C147.332 116.168 147.393 116.219 147.454 116.27C147.454 116.27 147.435 116.27 147.465 116.309C147.556 116.395 147.615 116.443 147.675 116.49C147.675 116.49 147.655 116.49 147.685 116.529C147.775 116.616 147.836 116.663 147.896 116.711C147.896 116.711 147.876 116.711 147.905 116.75C147.991 116.837 148.048 116.885 148.105 116.934C148.105 116.934 148.093 116.934 148.111 116.994C148.23 117.136 148.331 117.218 148.432 117.301C148.432 117.301 148.39 117.306 148.409 117.347C148.487 117.45 148.546 117.512 148.605 117.575C148.605 117.575 148.56 117.57 148.586 117.604C148.667 117.698 148.723 117.756 148.779 117.815C148.779 117.815 148.762 117.809 148.766 117.877C148.917 118.121 149.063 118.297 149.21 118.474C149.21 118.474 149.197 118.473 149.198 118.548C149.356 118.864 149.512 119.104 149.668 119.344C149.668 119.344 149.653 119.342 149.65 119.418C149.806 119.808 149.964 120.123 150.122 120.437C150.122 120.437 150.107 120.435 150.1 120.523C150.236 121.726 150.372 122.841 150.522 123.955C150.665 125.011 150.219 125.338 149.164 125.331C142.939 125.29 136.714 125.312 130.489 125.311C128.957 125.311 128.957 125.308 128.895 123.738C128.895 123.738 128.906 123.751 128.968 123.71C129.279 122.736 129.528 121.803 129.777 120.87C129.777 120.87 129.784 120.888 129.827 120.843C129.905 120.667 129.94 120.536 129.976 120.404C129.976 120.404 129.989 120.441 130.028 120.399C130.128 120.173 130.189 119.99 130.249 119.806C130.249 119.806 130.239 119.799 130.315 119.774C130.481 119.519 130.57 119.29 130.658 119.061C131.466 117.426 132.701 116.181 134.348 115.157C134.693 114.996 134.886 114.848 135.079 114.7C135.079 114.7 135.077 114.717 135.136 114.706C135.308 114.623 135.42 114.549 135.532 114.476C135.532 114.476 135.522 114.5 135.578 114.491C135.747 114.411 135.859 114.341 135.971 114.27C135.971 114.27 135.966 114.285 136.036 114.281C136.28 114.191 136.455 114.104 136.63 114.016C136.63 114.016 136.617 114.046 136.68 114.048C136.919 113.967 137.096 113.884 137.273 113.801C137.273 113.801 137.269 113.817 137.364 113.824C139.399 113.826 141.341 113.82 143.282 113.814C143.282 113.814 143.264 113.835 143.292 113.899C143.738 114.072 144.156 114.18 144.573 114.288C144.573 114.288 144.567 114.292 144.592 114.36C144.895 114.53 145.172 114.632 145.449 114.734C145.449 114.734 145.448 114.73 145.484 114.775C145.592 114.853 145.662 114.886 145.732 114.919C145.732 114.919 145.689 114.926 145.725 114.96C145.884 115.051 146.005 115.107 146.127 115.164C146.127 115.164 146.112 115.168 146.148 115.207C146.253 115.286 146.322 115.325 146.392 115.364C146.392 115.364 146.348 115.372 146.386 115.399C146.499 115.462 146.574 115.499 146.649 115.535C146.649 115.535 146.612 115.536 146.64 115.582C146.784 115.698 146.9 115.768 147.016 115.838Z" fill="black"/>
<path d="M128.844 123.806C128.958 125.309 128.958 125.311 130.49 125.312C136.715 125.313 142.94 125.291 149.165 125.332C150.22 125.339 150.666 125.012 150.523 123.956C150.373 122.842 150.237 121.727 150.104 120.517C150.875 122.036 150.871 123.74 150.742 125.546C143.347 125.546 135.993 125.546 128.49 125.546C128.592 124.985 128.692 124.429 128.844 123.806Z" fill="black"/>
<path d="M143.218 113.756C141.342 113.82 139.401 113.826 137.357 113.822C139.208 113.094 141.177 113.222 143.218 113.756Z" fill="black"/>
<path d="M129.719 120.924C129.53 121.803 129.28 122.736 128.961 123.71C129.147 122.827 129.404 121.902 129.719 120.924Z" fill="black"/>
<path d="M144.517 114.234C144.156 114.18 143.738 114.071 143.297 113.886C143.669 113.932 144.065 114.056 144.517 114.234Z" fill="black"/>
<path d="M150.119 120.361C149.964 120.124 149.806 119.809 149.652 119.411C149.81 119.646 149.963 119.965 150.119 120.361Z" fill="black"/>
<path d="M149.662 119.271C149.512 119.104 149.356 118.864 149.201 118.543C149.354 118.707 149.505 118.952 149.662 119.271Z" fill="black"/>
<path d="M145.402 114.678C145.172 114.632 144.896 114.53 144.592 114.356C144.828 114.397 145.092 114.51 145.402 114.678Z" fill="black"/>
<path d="M130.597 119.103C130.57 119.29 130.481 119.52 130.32 119.778C130.345 119.586 130.44 119.365 130.597 119.103Z" fill="black"/>
<path d="M149.201 118.404C149.064 118.297 148.917 118.121 148.77 117.868C148.909 117.973 149.05 118.154 149.201 118.404Z" fill="black"/>
<path d="M135.007 114.709C134.888 114.848 134.694 114.996 134.42 115.141C134.537 114.998 134.735 114.858 135.007 114.709Z" fill="black"/>
<path d="M130.2 119.858C130.19 119.99 130.13 120.174 130.012 120.405C130.019 120.272 130.084 120.091 130.2 119.858Z" fill="black"/>
<path d="M136.555 114.02C136.456 114.105 136.281 114.192 136.029 114.279C136.128 114.194 136.304 114.108 136.555 114.02Z" fill="black"/>
<path d="M137.199 113.801C137.097 113.884 136.92 113.967 136.666 114.041C136.767 113.955 136.945 113.878 137.199 113.801Z" fill="black"/>
<path d="M129.919 120.445C129.941 120.536 129.905 120.667 129.818 120.846C129.798 120.758 129.83 120.622 129.919 120.445Z" fill="black"/>
<path d="M135.901 114.271C135.859 114.341 135.747 114.411 135.566 114.486C135.61 114.417 135.721 114.344 135.901 114.271Z" fill="black"/>
<path d="M135.464 114.48C135.422 114.55 135.311 114.624 135.131 114.706C135.173 114.638 135.284 114.561 135.464 114.48Z" fill="black"/>
<path d="M146.094 115.104C146.006 115.108 145.884 115.051 145.723 114.939C145.808 114.936 145.934 114.99 146.094 115.104Z" fill="black"/>
<path d="M146.987 115.778C146.901 115.769 146.786 115.699 146.643 115.564C146.729 115.572 146.843 115.644 146.987 115.778Z" fill="black"/>
<path d="M148.408 117.241C148.333 117.219 148.232 117.136 148.115 116.988C148.193 117.008 148.288 117.094 148.408 117.241Z" fill="black"/>
<path d="M145.704 114.862C145.662 114.885 145.591 114.853 145.482 114.776C145.521 114.757 145.598 114.781 145.704 114.862Z" fill="black"/>
<path d="M148.77 117.75C148.725 117.755 148.669 117.697 148.59 117.581C148.631 117.578 148.695 117.632 148.77 117.75Z" fill="black"/>
<path d="M148.591 117.511C148.548 117.513 148.489 117.45 148.41 117.326C148.451 117.325 148.513 117.386 148.591 117.511Z" fill="black"/>
<path d="M148.092 116.875C148.05 116.886 147.992 116.837 147.906 116.74C147.944 116.733 148.011 116.774 148.092 116.875Z" fill="black"/>
<path d="M147.882 116.651C147.838 116.664 147.778 116.616 147.688 116.52C147.727 116.511 147.796 116.551 147.882 116.651Z" fill="black"/>
<path d="M147.661 116.43C147.617 116.443 147.557 116.395 147.467 116.299C147.506 116.29 147.575 116.33 147.661 116.43Z" fill="black"/>
<path d="M147.441 116.21C147.396 116.22 147.335 116.17 147.244 116.066C147.285 116.058 147.354 116.103 147.441 116.21Z" fill="black"/>
<path d="M146.616 115.481C146.576 115.499 146.501 115.462 146.385 115.377C146.423 115.361 146.502 115.394 146.616 115.481Z" fill="black"/>
<path d="M146.365 115.307C146.322 115.326 146.253 115.287 146.146 115.201C146.186 115.186 146.262 115.217 146.365 115.307Z" fill="black"/>
</g>
<defs>
<clipPath id="clip0_865_231">
<rect width="440.889" height="231" fill="white" transform="translate(0.398438)"/>
</clipPath>
</defs>
</svg>
