<svg width="161" height="231" viewBox="0 0 161 231" fill="none" xmlns="http://www.w3.org/2000/svg">
<g clip-path="url(#clip0_865_215)">
<g clip-path="url(#clip1_865_215)">
<path d="M80.4727 35.5C59.2553 35.5 38.907 43.9285 23.9041 58.9315C8.9012 73.9344 0.472656 94.2827 0.472656 115.5C0.472656 136.717 8.9012 157.066 23.9041 172.069C38.907 187.071 59.2553 195.5 80.4727 195.5C101.69 195.5 122.038 187.071 137.041 172.069C152.044 157.066 160.473 136.717 160.473 115.5C160.473 94.2827 152.044 73.9344 137.041 58.9315C122.038 43.9285 101.69 35.5 80.4727 35.5ZM46.0593 65.6067C51.0127 65.6067 55.246 68.0333 58.7527 72.88C62.2593 77.7333 63.9993 83.56 63.9993 90.38V135.447C63.9993 139.04 65.7993 140.84 69.3927 140.84H97.2193C100.806 140.84 102.606 139.04 102.606 135.447V114.08C102.606 110.613 100.806 108.827 97.2193 108.7H91.8393C84.8993 108.46 79.0193 106.647 74.2393 103.26C69.446 99.88 67.0593 95.7067 67.0593 90.7467H97.2193C103.686 90.7467 109.193 93.0267 113.739 97.5733C115.944 99.7127 117.687 102.281 118.861 105.12C120.036 107.959 120.616 111.008 120.566 114.08V135.447C120.566 141.913 118.286 147.427 113.739 151.973C109.193 156.52 103.679 158.78 97.2193 158.78H69.3927C62.926 158.78 57.426 156.52 52.8793 151.973C50.6739 149.831 48.9309 147.259 47.7579 144.416C46.5849 141.574 46.0068 138.521 46.0593 135.447V65.6067Z" fill="black"/>
</g>
</g>
<defs>
<clipPath id="clip0_865_215">
<rect width="160" height="231" fill="white" transform="translate(0.472656)"/>
</clipPath>
<clipPath id="clip1_865_215">
<rect width="160" height="160" fill="white" transform="translate(0.472656 35.5)"/>
</clipPath>
</defs>
</svg>
