<svg width="537" height="231" viewBox="0 0 537 231" fill="none" xmlns="http://www.w3.org/2000/svg">
<g clip-path="url(#clip0_865_98)">
<g clip-path="url(#clip1_865_98)">
<path d="M0.232422 146.409L19.4141 131.74C29.5691 145.038 40.4494 151.164 52.5387 151.164C64.5474 151.164 75.0247 145.119 84.7768 131.901L104.281 146.247C90.2572 165.268 72.7681 175.342 52.5387 175.342C32.3899 175.262 14.7396 165.268 0.232422 146.409Z" fill="black"/>
<path d="M52.4573 82.4963L18.2849 111.914L2.48828 93.6184L52.5379 50.5L102.185 93.6184L86.3073 111.833L52.4573 82.4963Z" fill="black"/>
<path d="M177.783 157.128C166.096 157.128 156.425 153.34 148.527 145.764C140.628 138.107 136.76 128.274 136.76 116.266C136.76 104.177 140.709 94.2633 148.607 86.4456C156.586 78.5473 166.338 74.6787 177.863 74.6787C192.129 74.6787 204.782 80.8039 212.116 90.4754L199.221 104.015C193.096 97.4065 186.406 94.1021 179.153 94.1021C173.028 94.1021 167.95 96.117 163.679 100.389C159.568 104.58 157.553 109.899 157.553 116.266C157.553 122.391 159.568 127.63 163.679 131.821C167.869 135.931 172.947 137.946 178.992 137.946C186.89 137.946 193.821 134.48 199.543 127.71L212.922 140.525C209.215 145.361 204.299 149.39 198.093 152.534C192.048 155.596 185.278 157.128 177.783 157.128ZM235.65 73.5504V155.919H216.63V73.5504C216.71 73.5504 235.65 73.5504 235.65 73.5504ZM253.703 91.0395C247.336 91.0395 242.662 86.365 242.662 79.998C242.662 73.8728 247.498 69.1982 253.703 69.1982C259.829 69.1982 264.584 73.8728 264.584 79.998C264.584 86.365 259.829 91.0395 253.703 91.0395ZM263.294 96.3588V155.999H244.193V96.3588H263.294ZM299.884 157.208C290.455 157.208 282.959 154.307 276.995 148.423C271.192 142.62 268.21 135.125 268.21 125.937C268.21 116.749 271.112 109.335 277.076 103.451C283.04 97.6483 290.697 94.7469 300.207 94.7469C312.618 94.7469 323.579 100.792 328.576 112.155L313.344 120.134C310.281 115.057 306.09 112.478 300.61 112.478C296.58 112.478 293.356 113.767 290.777 116.346C288.279 118.925 286.909 122.391 286.989 125.937C286.989 133.836 292.711 139.638 300.368 139.638C305.848 139.638 310.926 136.576 313.102 131.982L328.334 141.009C323.257 151.083 312.538 157.208 299.884 157.208ZM394.745 155.919H372.098L354.447 132.304L351.626 134.883V155.919H332.606V73.5504H351.626V113.606L369.519 96.3588H392.73L367.101 120.296L394.745 155.919ZM395.954 124.97V76.1294H416.264V124.648C416.264 133.594 421.422 137.946 428.917 137.946C436.251 137.946 441.409 133.433 441.409 124.648V76.1294H461.8V124.97C461.8 148.504 445.52 157.369 428.837 157.369C412.395 157.369 395.954 148.504 395.954 124.97ZM507.014 94.8275C515.557 94.8275 522.488 97.8901 527.969 103.854C533.449 109.818 536.189 117.233 536.189 126.018C536.189 134.803 533.369 142.217 527.888 148.343C522.408 154.387 515.476 157.45 507.175 157.45C500.566 157.45 494.844 155.274 490.25 151.002V180.5H471.149V96.3588H489.928V101.839C494.441 97.1648 500.163 94.8275 507.014 94.8275ZM516.685 126.26C516.685 118.442 511.044 112.558 503.307 112.558C495.489 112.558 489.767 118.522 489.767 126.26C489.767 130.048 491.056 133.271 493.554 136.012C496.134 138.671 499.357 140.041 503.307 140.041C507.175 140.041 510.399 138.752 512.897 136.012C515.396 133.352 516.766 129.886 516.685 126.26Z" fill="black"/>
</g>
</g>
<defs>
<clipPath id="clip0_865_98">
<rect width="535.877" height="231" fill="white" transform="translate(0.232422)"/>
</clipPath>
<clipPath id="clip1_865_98">
<rect width="535.877" height="130" fill="white" transform="translate(0.232422 50.5)"/>
</clipPath>
</defs>
</svg>
