<svg width="403" height="231" viewBox="0 0 403 231" fill="none" xmlns="http://www.w3.org/2000/svg">
<g clip-path="url(#clip0_865_104)">
<g clip-path="url(#clip1_865_104)">
<path fill-rule="evenodd" clip-rule="evenodd" d="M71.4734 178.53C71.4734 180.728 73.2463 182.5 75.4436 182.5H130.252C132.449 182.5 134.235 180.715 134.097 178.53C132.125 147.031 106.93 121.836 75.4311 119.864C73.2463 119.726 71.4609 121.524 71.4609 123.709V178.518L71.4734 178.53Z" fill="black"/>
<path fill-rule="evenodd" clip-rule="evenodd" d="M62.7447 123.833C62.7447 121.636 60.9719 119.863 58.7746 119.863H3.96604C1.76871 119.863 -0.0166247 121.649 0.120709 123.833C2.09332 155.333 27.2878 180.527 58.787 182.5C60.9719 182.637 62.7572 180.839 62.7572 178.654V123.846L62.7447 123.833Z" fill="black"/>
<path fill-rule="evenodd" clip-rule="evenodd" d="M62.7448 107.168C62.7448 109.365 60.9719 111.138 58.7746 111.138H3.96605C1.76871 111.138 -0.0166248 109.353 0.120709 107.168C2.08083 75.6811 27.2753 50.4741 58.7746 48.5015C60.9594 48.3642 62.7448 50.162 62.7448 52.3469V107.155V107.168Z" fill="black"/>
<path fill-rule="evenodd" clip-rule="evenodd" d="M71.4734 52.4702C71.4734 50.2728 73.2463 48.5 75.4436 48.5H130.252C132.449 48.5 134.235 50.2853 134.097 52.4702C132.125 83.9695 106.93 109.164 75.4311 111.137C73.2463 111.274 71.4609 109.476 71.4609 107.291V52.4702H71.4734Z" fill="black"/>
<path d="M201.464 110.238C198.992 104.882 194.51 102.198 188.455 102.198C180.377 102.198 174.996 108.677 174.996 116.942C174.996 125.207 180.827 131.687 188.892 131.687C194.722 131.687 198.755 129.003 201.452 123.872H219.168C215.809 138.391 203.25 147.768 188.455 147.768C171.188 147.768 157.742 133.922 157.742 116.718C157.742 99.5136 171.413 85.8926 188.23 85.8926C203.474 85.8926 216.034 95.4934 219.168 110.238H201.452H201.464Z" fill="black"/>
<path d="M226.797 145.745V87.9025H243.165V94.1574H243.389C246.523 87.9025 251.242 86.1172 257.959 86.1172V103.534C247.647 103.534 244.288 107.554 244.288 114.033V145.97H226.797V145.745Z" fill="black"/>
<path d="M307.3 116.705C307.3 108.665 300.795 101.96 292.505 101.96C284.215 101.96 278.16 108.44 278.16 116.93C278.16 124.97 284.665 131.45 292.73 131.45C301.02 131.674 307.3 125.195 307.3 116.705ZM307.3 145.745V139.49H307.075C304.603 144.621 297.661 147.755 290.033 147.755C272.766 147.755 260.881 134.359 260.881 116.705C260.881 99.0514 273.441 85.8799 290.033 85.8799C297.212 85.8799 303.704 88.7889 307.075 93.9201H307.3V87.6652H324.791V145.508H307.3V145.732V145.745Z" fill="black"/>
<path d="M375.678 145.745V103.309H356.838V145.745H339.347V103.309H331.719V87.9029H339.347V86.567C339.347 74.7314 345.627 68.7012 361.995 68.7012H363.118V81.6605C357.962 81.6605 356.614 84.12 356.614 87.9154H375.453V68.7137H392.945V87.9154H402.358V103.322H392.945V145.758H375.678V145.745Z" fill="black"/>
</g>
</g>
<defs>
<clipPath id="clip0_865_104">
<rect width="402.25" height="231" fill="white" transform="translate(0.109375)"/>
</clipPath>
<clipPath id="clip1_865_104">
<rect width="402.25" height="134" fill="white" transform="translate(0.109375 48.5)"/>
</clipPath>
</defs>
</svg>
