<svg width="451" height="231" viewBox="0 0 451 231" fill="none" xmlns="http://www.w3.org/2000/svg">
<g clip-path="url(#clip0_865_218)">
<path d="M16.9068 111.808C16.9068 110.585 17.3148 109.514 18.1297 108.596C19.0476 107.678 20.1184 107.219 21.3422 107.219H57.7502C55.9145 102.63 52.908 98.9075 48.7247 96.0519C44.5444 93.0945 39.8522 91.6156 34.651 91.6156C30.3677 91.6156 26.3904 92.6355 22.7189 94.6751C19.0475 96.7147 16.0401 99.5194 13.6943 103.089C11.8586 105.944 10.6348 109.106 10.0229 112.573C9.92112 113.185 9.81902 113.848 9.71694 114.562C9.71694 115.174 9.71694 115.837 9.71694 116.551C9.71694 120.018 10.38 123.281 11.7056 126.341C13.0315 129.298 14.8163 131.899 17.0598 134.143C19.3035 136.386 21.9041 138.171 24.8606 139.497C27.9201 140.823 31.1855 141.486 34.651 141.486C38.5283 141.486 42.1998 140.619 45.6652 138.885C49.2366 137.151 52.1931 134.704 54.5378 131.542C55.0497 130.828 55.5086 130.063 55.9146 129.247C56.4264 128.432 56.8854 127.616 57.2913 126.8C57.8032 125.678 58.6181 124.913 59.7389 124.505C60.9627 124.097 62.1365 124.148 63.2574 124.658C64.3811 125.168 65.146 126.035 65.552 127.259C66.0639 128.381 66.0639 129.503 65.552 130.624C64.4311 133.072 63.1573 135.214 61.7276 137.049C58.4651 141.333 54.4878 144.647 49.7956 146.993C45.1063 149.338 40.0581 150.511 34.651 150.511C29.9617 150.511 25.5254 149.644 21.3422 147.91C17.2639 146.075 13.6943 143.627 10.6348 140.568C7.5753 137.508 5.12769 133.939 3.29199 129.859C1.55837 125.678 0.691406 121.242 0.691406 116.551C0.691406 114.715 0.844376 112.879 1.15033 111.043C1.55836 108.698 2.11938 106.505 2.83307 104.466C3.64913 102.324 4.71995 100.284 6.04554 98.3465C9.20712 93.3492 13.2866 89.474 18.2827 86.7204C23.3838 83.9668 28.838 82.5901 34.651 82.5901C38.8343 82.5901 42.8116 83.304 46.5831 84.7317C50.3574 86.1594 53.7229 88.1481 56.6794 90.6978C59.6389 93.1454 62.1365 96.154 64.1752 99.7233C66.2169 103.191 67.5407 106.964 68.1526 111.043C68.3585 112.267 68.1025 113.389 67.3877 114.409C66.6758 115.429 65.705 116.041 64.4812 116.245C64.4812 116.245 63.8193 116.245 62.4925 116.245C61.2687 116.245 59.6389 116.296 57.5973 116.398C55.5586 116.398 53.2139 116.398 50.5604 116.398C48.0128 116.398 45.4122 116.398 42.7587 116.398H21.3422C20.1184 116.398 19.0476 115.939 18.1297 115.021C17.3148 114.103 16.9068 113.032 16.9068 111.808ZM110.974 82.5901C114.748 82.5901 118.317 83.304 121.682 84.7317C125.048 86.1594 127.954 88.1481 130.402 90.6978C132.952 93.2474 134.941 96.2049 136.368 99.5703C137.795 102.936 138.509 106.505 138.509 110.279V145.922C138.509 147.146 138.05 148.216 137.133 149.134C136.318 149.95 135.297 150.358 134.073 150.358C132.849 150.358 131.778 149.95 130.861 149.134C129.943 148.216 129.484 147.146 129.484 145.922V110.279C129.484 107.729 128.975 105.332 127.954 103.089C127.036 100.743 125.709 98.7545 123.977 97.1227C122.344 95.3891 120.408 94.0632 118.164 93.1454C115.919 92.1254 113.524 91.6156 110.974 91.6156C109.138 91.6156 107.302 91.8707 105.467 92.3805C104.243 92.7885 103.069 92.6864 101.948 92.0745C100.928 91.4626 100.216 90.5957 99.8067 89.474C99.3977 88.2502 99.5007 87.1284 100.113 86.1085C100.725 84.9868 101.642 84.2219 102.866 83.8139C105.62 82.9981 108.323 82.5901 110.974 82.5901ZM87.7216 82.743C89.0484 82.743 90.1192 83.202 90.9341 84.1198C91.852 84.9356 92.3109 85.9555 92.3109 87.1793V146.075C92.3109 147.299 91.852 148.369 90.9341 149.287C90.1192 150.103 89.0484 150.511 87.7216 150.511C86.4978 150.511 85.427 150.103 84.5091 149.287C83.6942 148.369 83.2853 147.299 83.2853 146.075V87.1793C83.2853 85.9555 83.6942 84.9356 84.5091 84.1198C85.427 83.202 86.4978 82.743 87.7216 82.743ZM212.829 93.7573C213.644 94.6751 214.053 95.7968 214.053 97.1227C214.053 98.3465 213.541 99.3664 212.523 100.182C211.808 100.896 210.84 101.253 209.616 101.253C208.29 101.253 207.169 100.794 206.251 99.8763C203.903 97.2248 201.1 95.1849 197.837 93.7573C194.675 92.3296 191.309 91.6156 187.741 91.6156C184.272 91.6156 181.06 92.2784 178.103 93.6043C176.674 94.2162 175.247 94.9811 173.82 95.8989C173.002 96.4087 172.137 96.6638 171.22 96.6638C169.79 96.6638 168.566 96.001 167.548 94.6751C166.833 93.5534 166.577 92.4314 166.783 91.3097C166.986 90.0859 167.648 89.1171 168.772 88.4031C169.69 87.7912 170.608 87.2302 171.526 86.7204C172.443 86.2106 173.461 85.7005 174.585 85.1906C178.868 83.457 183.252 82.5901 187.741 82.5901C192.533 82.5901 197.072 83.5588 201.356 85.4966C205.739 87.4344 209.563 90.1879 212.829 93.7573ZM187.741 141.486C188.965 141.486 189.983 141.944 190.8 142.862C191.718 143.678 192.177 144.749 192.177 146.075C192.177 147.299 191.718 148.369 190.8 149.287C189.983 150.103 188.965 150.511 187.741 150.511C183.049 150.511 178.612 149.644 174.432 147.91C170.352 146.075 166.783 143.627 163.724 140.568C160.664 137.508 158.217 133.939 156.381 129.859C154.645 125.678 153.78 121.242 153.78 116.551C153.78 111.451 154.901 106.505 157.146 101.712C157.758 100.59 158.623 99.8254 159.746 99.4173C160.97 99.0093 162.141 99.0605 163.265 99.5703C164.386 100.08 165.151 100.947 165.56 102.171C165.965 103.293 165.865 104.415 165.254 105.536C163.621 109.31 162.806 112.981 162.806 116.551C162.806 120.018 163.468 123.281 164.795 126.341C166.118 129.298 167.904 131.899 170.149 134.143C172.39 136.386 174.991 138.171 177.95 139.497C181.01 140.823 184.272 141.486 187.741 141.486ZM264.54 139.803C265.661 139.293 266.785 139.293 267.906 139.803C269.13 140.211 269.997 140.976 270.506 142.097C271.015 143.219 271.015 144.392 270.506 145.616C270.097 146.738 269.333 147.554 268.212 148.063C264.846 149.695 261.072 150.511 256.892 150.511C253.017 150.511 249.396 149.797 246.03 148.369C242.768 146.942 239.861 144.953 237.311 142.403C234.76 139.854 232.771 136.947 231.345 133.684C229.918 130.318 229.203 126.698 229.203 122.823V87.1793C229.203 85.9555 229.612 84.9356 230.427 84.1198C231.345 83.202 232.416 82.743 233.639 82.743C234.966 82.743 236.037 83.202 236.852 84.1198C237.77 84.9356 238.229 85.9555 238.229 87.1793V122.823C238.229 125.474 238.688 127.922 239.605 130.165C240.626 132.409 241.95 134.398 243.583 136.131C245.315 137.763 247.304 139.089 249.549 140.109C251.793 141.027 254.241 141.486 256.892 141.486C259.442 141.486 261.99 140.925 264.54 139.803ZM279.991 82.5901C281.215 82.5901 282.235 83.049 283.05 83.9668C283.968 84.7826 284.427 85.8534 284.427 87.1793V145.922C284.427 147.146 283.968 148.216 283.05 149.134C282.235 149.95 281.215 150.358 279.991 150.358C278.767 150.358 277.696 149.95 276.778 149.134C275.86 148.216 275.402 147.146 275.402 145.922V87.1793C275.402 85.8534 275.86 84.7826 276.778 83.9668C277.696 83.049 278.767 82.5901 279.991 82.5901ZM334.547 83.202C339.136 83.202 343.47 84.1198 347.55 85.9555C351.627 87.6891 355.199 90.0859 358.258 93.1454C361.318 96.2049 363.712 99.7742 365.448 103.854C367.284 107.933 368.202 112.267 368.202 116.857C368.202 121.446 367.284 125.78 365.448 129.859C363.712 133.939 361.318 137.508 358.258 140.568C355.199 143.627 351.627 146.075 347.55 147.91C343.47 149.644 339.136 150.511 334.547 150.511C328.325 150.511 322.512 148.879 317.108 145.616C316.087 145.004 315.425 144.137 315.119 143.015C314.813 141.791 315.016 140.619 315.731 139.497C316.343 138.375 317.208 137.712 318.332 137.508C319.555 137.202 320.726 137.355 321.85 137.967C325.622 140.415 329.855 141.638 334.547 141.638C337.912 141.638 341.072 140.976 344.031 139.65C347.091 138.324 349.742 136.539 351.986 134.296C354.228 132.052 355.964 129.451 357.187 126.494C358.511 123.434 359.176 120.222 359.176 116.857C359.176 113.491 358.511 110.329 357.187 107.372C355.964 104.313 354.228 101.661 351.986 99.4173C349.742 97.1736 347.091 95.44 344.031 94.2162C341.072 92.8903 337.912 92.2275 334.547 92.2275C331.182 92.2275 327.969 92.8903 324.91 94.2162C321.95 95.44 319.35 97.1736 317.108 99.4173C314.863 101.661 313.078 104.313 311.754 107.372C310.427 110.329 309.765 113.491 309.765 116.857V146.075C309.765 147.299 309.306 148.369 308.388 149.287C307.57 150.103 306.553 150.511 305.329 150.511C304.105 150.511 303.034 150.103 302.116 149.287C301.298 148.369 300.892 147.299 300.892 146.075V48.1707C300.892 46.9469 301.298 45.9269 302.116 45.1112C303.034 44.1933 304.105 43.7344 305.329 43.7344C306.553 43.7344 307.57 44.1933 308.388 45.1112C309.306 45.9269 309.765 46.9469 309.765 48.1707V94.0632C312.925 90.7998 316.596 88.1993 320.779 86.2615C325.063 84.2219 329.652 83.202 334.547 83.202ZM399.403 111.808C399.403 110.585 399.812 109.514 400.626 108.596C401.544 107.678 402.615 107.219 403.839 107.219H440.247C438.411 102.63 435.402 98.9075 431.221 96.0519C427.041 93.0945 422.349 91.6156 417.148 91.6156C412.864 91.6156 408.887 92.6355 405.216 94.6751C401.544 96.7147 398.535 99.5194 396.19 103.089C394.354 105.944 393.131 109.106 392.519 112.573C392.416 113.185 392.316 113.848 392.213 114.562C392.213 115.174 392.213 115.837 392.213 116.551C392.213 120.018 392.875 123.281 394.201 126.341C395.528 129.298 397.311 131.899 399.556 134.143C401.8 136.386 404.401 138.171 407.357 139.497C410.417 140.823 413.679 141.486 417.148 141.486C421.022 141.486 424.694 140.619 428.162 138.885C431.73 137.151 434.69 134.704 437.034 131.542C437.543 130.828 438.002 130.063 438.411 129.247C438.92 128.432 439.379 127.616 439.788 126.8C440.297 125.678 441.115 124.913 442.236 124.505C443.459 124.097 444.633 124.148 445.754 124.658C446.875 125.168 447.64 126.035 448.049 127.259C448.558 128.381 448.558 129.503 448.049 130.624C446.928 133.072 445.651 135.214 444.224 137.049C440.962 141.333 436.984 144.647 432.292 146.993C427.6 149.338 422.552 150.511 417.148 150.511C412.455 150.511 408.019 149.644 403.839 147.91C399.759 146.075 396.19 143.627 393.131 140.568C390.071 137.508 387.624 133.939 385.788 129.859C384.055 125.678 383.187 121.242 383.187 116.551C383.187 114.715 383.34 112.879 383.646 111.043C384.055 108.698 384.614 106.505 385.329 104.466C386.144 102.324 387.215 100.284 388.541 98.3465C391.704 93.3492 395.781 89.474 400.779 86.7204C405.878 83.9668 411.335 82.5901 417.148 82.5901C421.328 82.5901 425.305 83.304 429.08 84.7317C432.854 86.1594 436.22 88.1481 439.176 90.6978C442.133 93.1454 444.633 96.154 446.672 99.7233C448.711 103.191 450.037 106.964 450.649 111.043C450.852 112.267 450.599 113.389 449.884 114.409C449.17 115.429 448.202 116.041 446.978 116.245C446.978 116.245 446.316 116.245 444.989 116.245C443.765 116.245 442.133 116.296 440.094 116.398C438.055 116.398 435.708 116.398 433.057 116.398C430.507 116.398 427.906 116.398 425.255 116.398H403.839C402.615 116.398 401.544 115.939 400.626 115.021C399.812 114.103 399.403 113.032 399.403 111.808Z" fill="black"/>
</g>
<defs>
<clipPath id="clip0_865_218">
<rect width="450.464" height="231" fill="white" transform="translate(0.472656)"/>
</clipPath>
</defs>
</svg>
