<svg width="563" height="231" viewBox="0 0 563 231" fill="none" xmlns="http://www.w3.org/2000/svg">
<g clip-path="url(#clip0_865_153)">
<g clip-path="url(#clip1_865_153)">
<path d="M150.157 87.2044C148.118 86.3638 145.94 85.9162 143.735 85.8852C138.173 85.8852 135.392 88.9042 135.392 94.9421V100.924H148.238V113.713H135.392V157.127H118.103V113.713H108.664V100.924H118.103V93.9542C118.103 87.5508 120.19 82.3914 124.362 78.4758C128.535 74.5603 134.206 72.6025 141.377 72.6025C144.889 72.6025 147.815 72.969 150.157 73.7019V87.2044Z" fill="black"/>
<path d="M181.118 158.5C171.751 158.5 164.386 155.875 159.025 150.624C153.664 145.373 150.984 138.245 150.986 129.239C150.986 119.947 153.766 112.675 159.326 107.424C164.886 102.173 172.402 99.5497 181.874 99.5537C191.205 99.5537 198.523 102.179 203.828 107.43C209.133 112.681 211.785 119.623 211.785 128.258C211.785 137.589 209.051 144.962 203.581 150.377C198.111 155.793 190.623 158.5 181.118 158.5ZM181.573 112.836C177.474 112.836 174.291 114.242 172.022 117.053C169.753 119.864 168.618 123.852 168.618 129.017C168.618 139.811 172.972 145.209 181.681 145.209C189.988 145.209 194.14 139.666 194.138 128.58C194.128 118.084 189.94 112.836 181.573 112.836Z" fill="black"/>
<path d="M255.217 116.567C253.131 115.431 250.697 114.864 247.916 114.866C244.149 114.866 241.204 116.247 239.079 119.01C236.955 121.773 235.893 125.532 235.895 130.287V157.126H218.553V100.923H235.895V111.354H236.115C238.86 103.742 243.8 99.9355 250.934 99.9355C252.765 99.9355 254.19 100.155 255.217 100.595V116.567Z" fill="black"/>
<path d="M350.054 157.127H332.772V125.074C332.772 116.916 329.772 112.836 323.772 112.836C320.917 112.836 318.593 114.062 316.8 116.514C315.006 118.966 314.106 122.021 314.098 125.679V157.127H296.752V124.74C296.752 116.8 293.806 112.83 287.915 112.83C286.534 112.792 285.165 113.092 283.926 113.704C282.688 114.316 281.618 115.222 280.81 116.342C279.033 118.686 278.145 121.869 278.147 125.893V157.127H260.811V100.924H278.156V109.707H278.376C280.282 106.601 282.953 104.037 286.133 102.259C289.314 100.481 292.897 99.5495 296.541 99.5537C304.481 99.5537 309.914 103.048 312.842 110.035C317.125 103.048 323.419 99.5537 331.724 99.5537C343.944 99.5537 350.054 107.092 350.054 122.167V157.127Z" fill="black"/>
<path d="M368.062 92.032C365.134 92.032 362.738 91.1636 360.872 89.4267C359.974 88.6241 359.259 87.6377 358.776 86.5344C358.293 85.4311 358.052 84.2367 358.071 83.0323C358.071 80.432 359.005 78.3096 360.872 76.6651C362.74 75.0206 365.136 74.1973 368.062 74.1953C371.026 74.1953 373.435 75.0186 375.291 76.6651C377.146 78.3116 378.071 80.434 378.065 83.0323C378.065 85.6648 377.14 87.8233 375.291 89.508C373.441 91.1927 371.032 92.034 368.062 92.032ZM376.625 157.126H359.276V100.923H376.622L376.625 157.126Z" fill="black"/>
<path d="M422.949 156.47C420.386 157.822 416.526 158.498 411.368 158.5C399.145 158.5 393.035 152.152 393.037 139.456V113.713H383.926V100.924H393.037V88.7951L410.325 83.8555V100.924H422.949V113.713H410.325V136.435C410.325 142.29 412.649 145.218 417.295 145.218C419.124 145.218 421.009 144.688 422.949 143.627V156.47Z" fill="black"/>
<path d="M439.253 92.032C436.326 92.032 433.929 91.1636 432.064 89.4267C431.166 88.6241 430.451 87.6377 429.967 86.5344C429.484 85.4311 429.244 84.2367 429.263 83.0323C429.263 80.432 430.196 78.3096 432.064 76.6651C433.931 75.0206 436.328 74.1973 439.253 74.1953C442.217 74.1953 444.627 75.0186 446.482 76.6651C448.337 78.3116 449.261 80.434 449.253 83.0323C449.253 85.6648 448.329 87.8233 446.482 89.508C444.635 91.1927 442.225 92.034 439.253 92.032ZM447.828 157.126H430.483V100.923H447.828V157.126Z" fill="black"/>
<path d="M504.679 157.127H454.238V149.937L482.466 113.713H457.054V100.924H504.453V109.487L477.725 144.338H504.673L504.679 157.127Z" fill="black"/>
<path d="M562.255 133.965H525.593C526.178 142.128 531.318 146.208 541.015 146.206C547.197 146.206 552.631 144.742 557.315 141.814V154.329C552.121 157.11 545.37 158.5 537.063 158.5C527.989 158.5 520.946 155.984 515.934 150.953C510.922 145.921 508.412 138.905 508.404 129.905C508.404 120.574 511.115 113.183 516.537 107.731C521.958 102.28 528.617 99.5537 536.515 99.5537C544.711 99.5537 551.05 101.986 555.532 106.852C560.014 111.717 562.255 118.322 562.255 126.667V133.965ZM546.174 123.318C546.174 115.27 542.918 111.245 536.406 111.243C533.623 111.243 531.214 112.396 529.178 114.701C527.142 117.006 525.907 119.878 525.473 123.318H546.174Z" fill="black"/>
<path d="M90.4647 148.576H4.808C3.69373 148.605 2.63503 149.069 1.85736 149.867C1.0797 150.666 0.644531 151.737 0.644531 152.851C0.644531 153.966 1.0797 155.036 1.85736 155.835C2.63503 156.634 3.69373 157.097 4.808 157.127H90.4647C91.0357 157.142 91.604 157.042 92.136 156.834C92.6679 156.626 93.1529 156.314 93.5621 155.915C93.9713 155.517 94.2966 155.04 94.5187 154.514C94.7408 153.988 94.8552 153.422 94.8552 152.851C94.8552 152.28 94.7408 151.715 94.5187 151.188C94.2966 150.662 93.9713 150.186 93.5621 149.787C93.1529 149.389 92.6679 149.076 92.136 148.868C91.604 148.66 91.0357 148.561 90.4647 148.576Z" fill="black"/>
<path d="M90.463 131.14H4.80626C3.67194 131.14 2.58408 131.59 1.78199 132.392C0.979904 133.194 0.529297 134.282 0.529297 135.417C0.529297 136.551 0.979904 137.639 1.78199 138.441C2.58408 139.243 3.67194 139.694 4.80626 139.694H90.463C91.5973 139.694 92.6852 139.243 93.4872 138.441C94.2893 137.639 94.7399 136.551 94.7399 135.417C94.7399 134.282 94.2893 133.194 93.4872 132.392C92.6852 131.59 91.5973 131.14 90.463 131.14Z" fill="black"/>
<path d="M4.808 122.257H90.4647C91.0357 122.273 91.604 122.173 92.136 121.965C92.6679 121.757 93.1529 121.445 93.5621 121.046C93.9713 120.648 94.2966 120.171 94.5187 119.645C94.7408 119.119 94.8552 118.553 94.8552 117.982C94.8552 117.411 94.7408 116.845 94.5187 116.319C94.2966 115.793 93.9713 115.316 93.5621 114.918C93.1529 114.519 92.6679 114.207 92.136 113.999C91.604 113.791 91.0357 113.691 90.4647 113.707H4.808C3.69373 113.736 2.63503 114.2 1.85736 114.998C1.0797 115.797 0.644531 116.867 0.644531 117.982C0.644531 119.097 1.0797 120.167 1.85736 120.966C2.63503 121.764 3.69373 122.228 4.808 122.257Z" fill="black"/>
<path d="M9.36334 107.095C9.36334 107.01 9.36334 106.929 9.36334 106.842C9.36947 100.557 11.6714 94.492 15.8362 89.786C20.0009 85.0801 25.7416 82.0579 31.9784 81.2879C38.2153 80.5178 44.5186 82.053 49.7029 85.6047C54.8872 89.1564 58.5953 94.4798 60.1297 100.574C62.6022 99.0362 65.4336 98.1713 68.3432 98.0649C68.3432 98.0649 68.3432 98.0468 68.3432 98.0378C68.6444 98.0197 68.9456 97.9805 69.2468 97.9805C71.8146 97.9832 74.3446 98.5984 76.627 99.7749C78.9093 100.951 80.8781 102.655 82.3699 104.745C82.9292 105.486 83.4268 106.272 83.8578 107.095H92.9448C91.2244 101.27 87.4141 96.2855 82.2447 93.0971C77.0754 89.9088 70.911 88.7412 64.9337 89.8182C61.179 83.242 55.3557 78.0915 48.37 75.1683C41.3844 72.2451 33.6284 71.7132 26.3091 73.6554C18.9898 75.5976 12.5178 79.9049 7.90051 85.9069C3.28321 91.909 0.779585 99.2691 0.779297 106.842C0.779297 106.929 0.779297 107.01 0.779297 107.095H9.36334Z" fill="black"/>
</g>
</g>
<defs>
<clipPath id="clip0_865_153">
<rect width="561.724" height="231" fill="white" transform="translate(0.533203)"/>
</clipPath>
<clipPath id="clip1_865_153">
<rect width="561.724" height="86" fill="white" transform="translate(0.533203 72.5)"/>
</clipPath>
</defs>
</svg>
