<svg width="528" height="231" viewBox="0 0 528 231" fill="none" xmlns="http://www.w3.org/2000/svg">
<g clip-path="url(#clip0_865_116)">
<path d="M439.489 91.2402V99.8162C434.433 93.2373 426.796 89.7129 417.277 89.7129C399.299 89.7129 385.785 104.046 385.785 123.547C385.785 143.519 399.18 158.204 417.277 158.204C426.796 158.204 434.433 154.444 439.489 147.748V156.559H452.883V91.2402H439.489ZM419.981 146.338C408.11 146.338 399.768 136.94 399.768 123.665C399.768 110.742 407.994 101.813 419.981 101.813C431.26 101.813 439.958 110.977 439.958 124.017C439.958 136.94 431.38 146.338 419.981 146.338Z" fill="black"/>
<path d="M376.866 122.255C376.866 102.871 363.821 89.7129 344.197 89.7129C323.984 89.7129 309.766 103.81 309.766 123.782C309.766 144.223 323.631 158.086 343.844 158.086C359.005 158.086 370.52 150.568 375.103 137.292H360.415C357.475 143.284 351.834 146.456 343.961 146.456C333.034 146.456 325.161 139.407 324.104 128.951H376.513C376.746 127.072 376.866 124.839 376.866 122.255ZM324.104 118.025C325.514 108.392 333.739 101.226 344.197 101.226C355.595 101.226 362.999 108.157 363.116 118.025H324.104Z" fill="black"/>
<path d="M466.742 156.559H480.492V119.788C480.492 108.745 487.544 101.696 498.473 101.696C508.578 101.696 513.867 107.805 513.867 119.788V156.676H527.614V117.908C527.614 100.521 517.509 89.7129 500.941 89.7129C492.127 89.7129 485.076 93.2373 480.492 99.4637V91.2402H466.742V156.559Z" fill="black"/>
<path d="M104.123 61.8709C88.7288 57.2891 74.3922 55.292 58.2931 55.292C40.3137 55.292 22.2167 58.2288 11.1705 66.2176C3.41469 71.9742 0.359375 77.9656 0.359375 87.7165C0.359375 112.035 19.7489 150.568 39.9611 167.133C47.247 173.124 55.0025 175.709 65.5786 175.709C94.7218 175.709 134.794 154.798 145.37 134.474C149.013 127.542 150.893 119.436 150.893 111.447C151.01 87.0115 136.321 71.3867 104.123 61.8709ZM36.5532 109.45C25.9771 109.45 18.5738 101.931 18.5738 91.4759C18.5738 81.0201 26.0946 73.5015 36.5532 73.5015C47.1293 73.5015 54.5326 81.0201 54.5326 91.4759C54.5326 102.049 47.1293 109.45 36.5532 109.45Z" fill="black"/>
<path d="M298.479 73.4854H284.73V156.544H298.479V73.4854Z" fill="black"/>
<path d="M230.687 158.435C255.13 158.435 273.227 140.108 273.227 115.437C273.227 113.792 273.227 111.678 272.992 109.446H225.869V121.664H258.538C256.54 136.583 246.081 145.629 230.687 145.629C213.295 145.629 201.662 133.177 201.662 114.967C201.662 96.6404 213.295 84.3049 230.687 84.3049C241.263 84.3049 249.607 88.8867 253.837 97.1102H270.171C263.943 81.1329 249.254 71.6172 230.687 71.6172C205.892 71.6172 186.973 90.4139 186.973 114.967C186.973 140.578 205.187 158.435 230.687 158.435Z" fill="black"/>
</g>
<defs>
<clipPath id="clip0_865_116">
<rect width="527.255" height="231" fill="white" transform="translate(0.359375)"/>
</clipPath>
</defs>
</svg>
