<svg width="294" height="231" viewBox="0 0 294 231" fill="none" xmlns="http://www.w3.org/2000/svg">
<g clip-path="url(#clip0_865_134)">
<path d="M266.071 151.412C260.758 151.412 257.688 150.158 254.698 148.956C251.227 147.541 247.65 146.073 239.374 146.073C231.098 146.073 227.494 147.541 224.05 148.956C221.087 150.158 218.017 151.412 212.678 151.412C206.618 151.412 201.946 149.81 198.769 146.634C195.592 143.457 193.99 138.785 193.99 132.725C193.99 132.538 194.017 114.972 196.686 97.619C200.478 73.0851 207.632 60.6445 218.017 60.6445C224.451 60.6445 227.868 64.035 230.591 66.758C233.127 69.3209 235.129 71.3231 239.374 71.3231C243.619 71.3231 245.621 69.3209 248.157 66.758C250.881 64.035 254.298 60.6445 260.731 60.6445C271.116 60.6445 278.271 73.0851 282.062 97.619C284.732 114.972 284.758 132.565 284.758 132.725C284.758 138.785 283.156 143.457 279.979 146.634C276.802 149.81 272.131 151.412 266.071 151.412Z" fill="black"/>
<path d="M47.1601 151.412C38.2437 151.412 29.1668 148.422 22.199 143.19C14.1901 137.21 9.78516 128.747 9.78516 119.377C9.78516 111.982 13.9765 103.359 25.803 103.359C32.317 103.359 33.812 101.864 33.812 95.3499V84.6714C33.812 67.1585 40.326 60.6445 57.8386 60.6445C75.3515 60.6445 81.8655 67.1585 81.8655 84.6714V116.707C81.8655 128.08 78.9022 136.783 73.0824 142.629C67.236 148.449 58.5328 151.412 47.1601 151.412Z" fill="black"/>
<path d="M260.731 63.3139C282.088 63.3139 282.088 132.725 282.088 132.725C282.088 143.403 276.749 148.743 266.07 148.743C255.392 148.743 255.392 143.403 239.374 143.403C223.356 143.403 223.356 148.743 212.677 148.743C201.999 148.743 196.659 143.403 196.659 132.725C196.659 132.725 196.659 63.3139 218.017 63.3139C228.695 63.3139 228.695 73.9925 239.374 73.9925C250.052 73.9925 250.052 63.3139 260.731 63.3139ZM260.731 57.9746C253.176 57.9746 249.198 61.9524 246.288 64.889C243.672 67.5052 242.364 68.6532 239.374 68.6532C236.384 68.6532 235.076 67.5052 232.459 64.889C229.549 61.9524 225.572 57.9746 218.017 57.9746C214.065 57.9746 210.488 59.4696 207.338 62.3795C204.855 64.6754 202.72 67.7989 200.824 71.9102C197.968 78.1304 195.672 86.6198 194.043 97.1917C191.347 114.758 191.32 132.004 191.32 132.725C191.32 139.505 193.189 144.818 196.9 148.502C200.584 152.213 205.897 154.082 212.677 154.082C218.524 154.082 221.994 152.667 225.038 151.412C228.402 150.024 231.605 148.743 239.374 148.743C247.143 148.743 250.32 150.051 253.71 151.412C256.78 152.667 260.224 154.082 266.07 154.082C272.851 154.082 278.164 152.213 281.848 148.502C285.532 144.818 287.427 139.505 287.427 132.725C287.427 132.004 287.401 114.758 284.705 97.2184C283.076 86.6464 280.807 78.1304 277.923 71.9368C276.028 67.8256 273.892 64.7021 271.409 62.4062C268.26 59.4696 264.682 57.9746 260.731 57.9746Z" fill="black"/>
<path d="M185.796 118.623C185.612 109.923 184.297 101.113 182.028 93.1809C179.673 84.9496 176.285 77.685 172.215 72.1445C167.466 65.7314 161.933 61.6233 155.77 59.9719C149.607 58.3205 142.762 59.112 135.468 62.2984C129.173 65.0613 122.607 69.6587 116.452 75.61C110.521 81.3448 104.977 88.3166 100.467 95.7591C95.7326 103.528 92.1286 111.821 90.0074 119.738C88.2524 126.288 88.6823 131.903 91.3132 136.422C93.9113 140.96 98.5594 144.14 105.109 145.895C106.192 146.185 107.186 146.396 108.135 146.567C106.383 149.083 105.225 152.062 104.862 155.17C104.395 159.08 106.936 162.801 110.752 163.824C111.139 163.928 111.558 164.012 111.966 164.039C113.821 164.232 115.526 164.163 117 163.922C117.997 167.009 119.875 169.695 122.547 171.793C123.416 172.468 124.366 172.944 125.424 173.227C126.481 173.511 127.568 173.581 128.632 173.424C131.995 172.943 134.965 171.555 137.371 169.381C138.553 170.333 139.969 171.238 141.672 171.998C142.045 172.154 142.451 172.29 142.838 172.394C146.654 173.416 150.715 171.464 152.265 167.844C153.505 164.971 153.992 161.812 153.733 158.757C154.64 159.084 155.607 159.398 156.69 159.688C163.239 161.443 168.855 161.013 173.374 158.382C177.905 155.81 181.085 151.162 182.84 144.612C184.961 136.696 185.986 127.712 185.796 118.623ZM147.353 165.754C146.827 166.995 145.476 167.601 144.213 167.262C144.084 167.228 143.955 167.193 143.833 167.133C138.195 164.655 137.25 160.034 137.25 160.034C137.25 160.034 135.364 167.074 127.859 168.159C127.49 168.198 127.134 168.186 126.799 168.096C126.463 168.006 126.123 167.832 125.848 167.62C119.892 162.929 121.778 155.889 121.778 155.889C121.778 155.889 118.649 159.417 112.528 158.744C112.392 158.736 112.263 158.701 112.134 158.666C110.871 158.328 110.004 157.128 110.169 155.791C110.634 151.991 112.624 148.793 115.092 146.801C116.026 146.719 116.909 146.624 117.739 146.515C121.348 146.045 124.774 145.636 132.278 147.647C139.782 149.657 142.512 151.743 145.434 153.936C146.125 154.453 146.809 154.995 147.584 155.507C148.725 158.466 148.876 162.238 147.353 165.754ZM158.065 154.557C147.75 151.793 149.132 146.635 133.66 142.49C118.188 138.344 116.806 143.501 106.491 140.738C96.1762 137.974 92.401 131.434 95.1648 121.12C103.456 90.1756 133.759 59.6017 154.388 65.1293C175.018 70.6569 185.974 112.286 177.682 143.23C174.919 153.545 168.379 157.32 158.065 154.557Z" fill="black"/>
<path d="M57.8383 63.3139C73.8563 63.3139 79.1957 68.6532 79.1957 84.6711V116.707C79.1957 138.064 68.5172 148.743 47.1598 148.743C31.142 148.743 12.4545 138.064 12.4545 119.377C12.4545 114.037 15.1242 106.028 25.8027 106.028C33.8117 106.028 36.4813 103.359 36.4813 95.3496V84.6711C36.4813 68.6532 41.8207 63.3139 57.8383 63.3139ZM57.8383 57.9746C47.9876 57.9746 41.6871 59.8968 37.389 64.2216C33.0642 68.5197 31.142 74.8201 31.142 84.6711V95.3496C31.142 98.9535 30.5013 99.7813 30.3678 99.9146C30.2343 100.048 29.4068 100.689 25.8027 100.689C12.8817 100.689 7.11523 110.086 7.11523 119.377C7.11523 129.601 11.8939 138.812 20.5969 145.325C28.0186 150.878 37.6828 154.082 47.1598 154.082C59.2534 154.082 68.5971 150.851 74.9509 144.498C81.3046 138.144 84.5348 128.8 84.5348 116.707V84.6711C84.5348 74.8201 82.6127 68.5197 78.288 64.2216C73.9898 59.8968 67.6894 57.9746 57.8383 57.9746Z" fill="black"/>
<path fill-rule="evenodd" clip-rule="evenodd" d="M146.972 151.571C149.525 153.488 152.165 155.469 157.247 156.831C163.101 158.4 168.028 158.062 171.919 155.815C175.81 153.569 178.566 149.471 180.135 143.617C184.218 128.377 183.917 109.696 179.325 93.6237C174.425 76.5294 165.551 65.0864 154.953 62.2466C144.355 59.4068 130.948 64.8799 118.158 77.2342C106.151 88.8309 96.5431 104.885 92.4598 120.125C90.8914 125.978 91.2294 130.905 93.4758 134.796C95.7222 138.687 99.8201 141.444 105.674 143.012C110.807 144.387 114.091 143.98 117.25 143.589L117.295 143.583C120.987 143.108 124.849 142.622 132.842 144.764C140.813 146.9 143.894 149.237 146.872 151.495L146.898 151.515L146.972 151.571ZM122.362 113.533C124.09 107.086 126.668 107.777 127.958 108.122L127.958 108.122C129.247 108.468 131.826 109.159 130.098 115.605C128.371 122.052 125.792 121.361 124.503 121.016L124.503 121.016C123.213 120.67 120.635 119.979 122.362 113.533ZM151.165 114.34L151.165 114.34C149.875 113.995 147.297 113.304 145.569 119.75C143.842 126.197 146.42 126.888 147.71 127.233C148.999 127.579 151.578 128.27 153.305 121.823C155.033 115.376 152.454 114.685 151.165 114.34ZM139.493 96.012C141.22 89.5653 143.799 90.2563 145.089 90.6017L145.089 90.6017C146.378 90.9472 148.957 91.6382 147.229 98.0849C145.502 104.532 142.923 103.841 141.634 103.495L141.634 103.495C140.344 103.15 137.766 102.459 139.493 96.012Z" fill="black"/>
</g>
<defs>
<clipPath id="clip0_865_134">
<rect width="292.5" height="231" fill="white" transform="translate(0.615234)"/>
</clipPath>
</defs>
</svg>
