<svg width="229" height="231" viewBox="0 0 229 231" fill="none" xmlns="http://www.w3.org/2000/svg">
<g clip-path="url(#clip0_865_168)">
<path d="M144.527 157.701H66.1113V172.526H144.527V157.701Z" fill="black"/>
<path d="M97.3497 140.191L94.8618 137.782H88.688H87.4902V152.513H109.605L100.667 143.619L97.3497 140.191Z" fill="black"/>
<path d="M109.604 152.513H144.527V137.782H142.499H124.623L109.604 152.513Z" fill="black"/>
<path d="M142.5 132.872H144.527V118.141L129.6 132.872H142.5Z" fill="black"/>
<path d="M88.9645 131.76L87.4902 130.278L99.7455 118.048H87.4902V132.872H88.688H89.9782L88.9645 131.76Z" fill="black"/>
<path d="M144.619 177.436H66.1113V192.26H144.619V177.436Z" fill="black"/>
<path d="M104.444 78.8574H66.1113V93.5887H119.187L104.444 78.8574Z" fill="black"/>
<path d="M119.187 98.499H66.1113V113.323H104.444L119.187 98.499Z" fill="black"/>
<path d="M61.2276 39.2031H46.4844V132.872H66.1114V118.048H61.2276V39.2031Z" fill="black"/>
<path d="M41.6007 39.2031H26.8574V152.513L66.1114 152.606V137.782H41.6007V39.2031Z" fill="black"/>
<path d="M87.4891 118.048H66.1113V132.872H87.4891V118.048Z" fill="black"/>
<path d="M87.4891 137.782H66.1113V152.513H87.4891V137.782Z" fill="black"/>
<path d="M201.658 61.81L191.799 51.9893L147.938 96.0902L191.799 140.191L201.658 130.37L167.564 96.0902L201.658 61.81Z" fill="black"/>
<path d="M144.619 99.5176L188.48 143.619L179.082 153.069L144.527 118.14V118.047V99.5176" fill="black"/>
<path d="M144.527 92.6621H144.62L188.481 48.5611L178.713 38.7402L144.62 73.0205L110.434 38.7402L100.666 48.5611L130.798 78.8574H144.527V92.6621Z" fill="black"/>
<path d="M97.3499 51.9893L87.4902 61.81L104.445 78.8575H124.072L97.3499 51.9893Z" fill="black"/>
<path d="M144.527 92.7514L144.616 92.6621H144.527V92.7514Z" fill="white"/>
<path d="M144.527 99.5151H144.616L144.527 99.4258V99.5151Z" fill="white"/>
<path d="M144.529 78.8574H130.799L144.529 92.6622V78.8574Z" fill="black"/>
<path d="M106.471 137.782L100.666 143.619L109.604 152.513L124.624 137.782H106.471Z" fill="black"/>
<path d="M126.098 118.048L111.447 132.872H129.6L144.527 118.141V118.048H126.098Z" fill="black"/>
<path d="M144.621 99.5176H144.529L130.799 113.322H144.529V99.5176" fill="black"/>
<path d="M94.8613 137.782L97.3491 140.191L99.7449 137.782H94.8613Z" fill="black"/>
<path d="M119.373 118.048H99.7455L87.4902 130.278L89.9782 132.872H104.629L119.373 118.048Z" fill="black"/>
<path d="M138.723 93.5887L131.444 86.2694L124.072 78.8574H104.445L119.189 93.5887H138.723Z" fill="black"/>
<path d="M138.723 98.499H119.189L104.445 113.323H124.072L138.723 98.499Z" fill="black"/>
<path d="M70.6713 78.8574H66.1113V192.26H70.6713V78.8574Z" fill="#111111"/>
</g>
<defs>
<clipPath id="clip0_865_168">
<rect width="228" height="231" fill="white" transform="translate(0.257812)"/>
</clipPath>
</defs>
</svg>
