<svg width="713" height="231" viewBox="0 0 713 231" fill="none" xmlns="http://www.w3.org/2000/svg">
<g clip-path="url(#clip0_865_225)">
<path d="M349.556 145.908C348.576 145.983 347.671 145.757 346.842 145.229C346.089 144.777 345.561 144.174 345.259 143.42C344.958 143.044 344.468 142.214 343.789 140.933C343.111 139.727 342.697 138.672 342.546 137.767C342.32 135.355 342.169 133.019 342.093 130.758C342.093 128.496 342.207 125.33 342.433 121.26C342.659 117.944 343.111 115.004 343.789 112.441C344.468 109.803 345.146 107.58 345.824 105.771C346.503 103.886 347.031 102.492 347.407 101.587C347.784 100.607 347.86 100.118 347.633 100.118C347.332 100.118 346.993 100.419 346.616 101.022C346.315 101.549 345.938 102.266 345.485 103.17C345.109 104.075 344.656 105.054 344.129 106.11C343.676 107.165 343.187 108.182 342.659 109.162C341.604 111.499 340.36 113.986 338.928 116.624C337.571 119.187 336.177 121.675 334.744 124.086C333.312 126.499 332.069 128.609 331.013 130.418C330.335 131.172 329.544 132.265 328.639 133.697C327.735 135.054 326.755 136.486 325.7 137.993C324.644 139.501 323.551 140.744 322.421 141.724C320.762 143.307 319.067 144.25 317.333 144.551C315.599 144.928 313.979 144.74 312.471 143.986C311.717 143.911 310.926 143.496 310.097 142.742C309.268 142.064 308.589 141.197 308.062 140.142C307.609 139.086 307.496 138.106 307.722 137.202C307.647 136.147 307.647 134.526 307.722 132.34C307.873 130.079 308.099 127.629 308.401 124.991C308.702 122.278 309.004 119.677 309.305 117.19C309.682 114.702 310.021 112.63 310.323 110.971C311.001 106.147 311.906 101.21 313.036 96.16C314.242 91.1102 315.335 86.022 316.315 80.8967C316.918 79.3889 317.446 77.693 317.898 75.8089C318.426 73.8489 318.953 72.04 319.481 70.3816C319.556 68.7236 320.159 67.7061 321.29 67.3289C322.421 66.8767 323.627 66.8016 324.908 67.1028C326.265 67.4045 327.207 67.9322 327.735 68.6857C328.488 69.4396 329.204 70.6077 329.883 72.191C330.561 73.7738 330.373 75.771 329.318 78.1832C327.81 81.8767 326.34 86.3992 324.908 91.7506C323.551 97.0269 322.308 103.434 321.177 110.971C320.875 112.78 320.536 114.815 320.159 117.077C319.858 119.263 319.556 121.373 319.255 123.408C319.029 125.444 318.84 127.14 318.689 128.496C318.614 129.778 318.652 130.456 318.802 130.531C319.406 130.682 320.046 130.343 320.724 129.514C321.478 128.684 322.27 127.366 323.099 125.557C326.189 120.431 329.091 115.343 331.805 110.293C334.594 105.243 337.382 99.9665 340.171 94.464C341.453 92.2783 342.734 89.9041 344.016 87.3412C345.372 84.7032 346.654 82.291 347.86 80.1053C349.141 77.844 350.385 75.6579 351.591 73.5477C352.797 71.4371 353.852 69.6657 354.757 68.2334C355.661 66.7261 356.34 65.8971 356.792 65.7461C358.827 65.7461 360.334 66.2738 361.314 67.3289C362.369 68.3845 363.199 69.6657 363.802 71.173C363.952 71.5502 364.028 72.191 364.028 73.0955C364.103 74 363.99 74.7914 363.689 75.4698C363.613 75.9971 363.274 77.0902 362.671 78.7485C362.143 80.4069 361.653 82.2534 361.201 84.2885C360.447 86.3236 359.769 88.3587 359.166 90.3938C358.638 92.3538 358.262 93.9743 358.036 95.2555C357.433 98.4967 356.679 102.04 355.774 105.884C354.87 109.728 354.078 113.534 353.4 117.303C352.797 121.072 352.458 124.464 352.382 127.479C352.307 129.589 352.307 130.984 352.382 131.662C352.533 132.265 352.759 132.906 353.061 133.584C353.211 134.187 353.551 134.338 354.078 134.036C354.606 133.735 355.133 133.207 355.661 132.453C356.716 130.871 357.508 129.514 358.036 128.383C358.638 127.253 359.242 126.046 359.844 124.765C360.447 123.408 361.277 121.712 362.332 119.677C364.216 116.21 366.138 112.404 368.098 108.258C370.133 104.112 372.055 100.004 373.864 95.9338C375.749 91.8636 377.369 88.2457 378.726 85.08C380.158 81.0098 381.364 77.731 382.344 75.2436C383.324 72.6808 384.229 70.7208 385.058 69.364C385.887 68.0073 386.678 67.1028 387.432 66.6506C387.809 66.3494 388.6 66.1983 389.806 66.1983C391.087 66.1983 392.067 66.5 392.746 67.1028C393.047 67.4045 393.575 67.8943 394.329 68.5726C395.082 69.251 395.422 70.0424 395.346 70.9469C394.969 72.153 394.253 74.113 393.198 76.8265C392.218 79.54 391.05 82.5551 389.693 85.8714C388.412 89.1126 387.13 92.2408 385.849 95.2555C384.643 98.1951 383.625 100.532 382.796 102.266C381.967 103.849 381.175 105.205 380.422 106.336C379.668 107.466 379.291 108.333 379.291 108.936C379.291 109.238 378.914 110.18 378.161 111.763C377.407 113.27 376.427 115.117 375.221 117.303C374.09 119.489 372.847 121.75 371.49 124.086C370.133 126.423 368.852 128.571 367.646 130.531C366.44 132.491 365.422 133.998 364.593 135.054C362.709 137.391 360.673 139.35 358.488 140.933C356.377 142.591 354.493 143.835 352.835 144.664C351.176 145.493 350.083 145.908 349.556 145.908ZM393.054 138.106C392.074 138.106 391.283 137.918 390.68 137.541C390.152 137.164 389.474 136.637 388.644 135.958C387.213 134.451 386.044 132.83 385.14 131.097C384.311 129.363 384.009 127.855 384.235 126.574C384.461 125.971 384.537 125.406 384.461 124.878C384.461 124.275 384.461 123.973 384.461 123.973C384.084 123.597 383.971 123.371 384.122 123.295C384.273 123.144 384.424 122.918 384.574 122.617C385.027 122.617 385.177 122.202 385.027 121.373C384.876 120.77 385.102 119.489 385.705 117.529C386.383 115.494 387.288 113.572 388.418 111.763C388.871 111.009 389.549 110.029 390.453 108.823C391.358 107.542 392.338 106.298 393.393 105.092C394.524 103.811 395.542 102.793 396.446 102.04C398.33 100.457 400.064 99.1751 401.647 98.1951C403.305 97.2155 404.962 96.5371 406.623 96.16C408.28 95.7832 409.974 95.5947 411.709 95.5947C413.517 95.5947 414.987 96.1979 416.117 97.4036C417.852 98.1575 419.06 99.1751 419.738 100.457C420.493 101.738 420.982 103.396 421.207 105.431C421.431 107.693 421.207 110.482 420.529 113.798C419.852 117.039 418.003 120.808 414.987 125.104C413.105 127.818 411.256 129.928 409.448 131.436C407.64 132.943 405.644 134.338 403.456 135.619C401.873 136.674 400.177 137.315 398.368 137.541C396.559 137.767 394.788 137.956 393.054 138.106ZM404.587 124.313C406.244 122.881 407.411 121.298 408.093 119.564C408.844 117.831 409.636 115.795 410.464 113.459C410.766 113.006 410.954 112.253 411.031 111.198C411.182 110.142 411.219 109.125 411.146 108.145C411.068 107.089 410.807 106.486 410.354 106.336C409.676 105.808 408.995 105.695 408.317 105.997C407.64 106.223 406.774 106.713 405.717 107.466C403.456 109.351 401.345 111.537 399.386 114.024C397.501 116.436 396.182 119.413 395.428 122.956C395.202 124.84 395.391 126.273 395.994 127.253C396.672 128.157 397.727 128.421 399.16 128.044C400.667 127.592 402.476 126.348 404.587 124.313ZM428.476 135.845C427.799 135.318 427.044 134.639 426.215 133.81C425.464 132.981 425.199 131.813 425.423 130.305C425.652 128.195 425.954 126.348 426.329 124.765C426.705 123.107 427.158 121.222 427.684 119.112C427.836 118.207 428.215 116.662 428.815 114.476C429.497 112.291 430.284 109.916 431.191 107.353C432.097 104.791 433.036 102.379 434.019 100.118C434.999 97.7808 435.864 96.0469 436.619 94.9163C437.448 94.1628 438.652 93.7857 440.236 93.7857C441.893 93.7857 443.023 94.0873 443.627 94.6902C444.456 95.3685 444.721 96.5747 444.419 98.3081C444.117 99.9665 443.064 102.567 441.252 106.11C440.876 107.014 440.387 107.994 439.782 109.049C439.256 110.029 438.88 110.858 438.652 111.537C438.427 112.14 438.501 112.404 438.88 112.328C439.329 111.499 440.162 110.557 441.366 109.502C442.574 108.371 443.852 107.278 445.211 106.223C446.566 105.167 447.848 104.225 449.056 103.396C450.26 102.567 451.089 102.04 451.542 101.813C452.146 101.436 452.823 101.135 453.578 100.909C454.407 100.607 454.97 100.381 455.272 100.231C457.007 99.4012 458.893 99.1 460.925 99.3261C463.036 99.4767 464.317 100.118 464.77 101.248C464.848 101.851 465.072 102.303 465.448 102.605C465.901 102.906 466.125 103.057 466.125 103.057C466.427 103.057 466.578 103.17 466.578 103.396C466.656 103.622 466.693 103.735 466.693 103.735C466.693 104.263 466.166 105.017 465.109 105.997C464.129 106.976 463.036 107.504 461.831 107.58C460.852 107.655 459.982 107.843 459.231 108.145C458.476 108.446 457.57 108.823 456.517 109.275C453.652 110.934 451.052 112.404 448.717 113.685C446.456 114.966 444.117 116.926 441.705 119.564C441.178 120.167 440.611 120.733 440.011 121.26C439.407 121.788 438.803 122.542 438.199 123.521C437.823 123.898 437.448 124.727 437.068 126.009C436.693 127.29 436.354 128.534 436.052 129.74C435.827 130.871 435.713 131.549 435.713 131.775C435.713 131.775 435.599 132.152 435.374 132.906C435.15 133.584 434.77 134.262 434.244 134.941C433.338 136.147 432.436 136.9 431.529 137.202C430.701 137.504 429.684 137.051 428.476 135.845ZM470.011 138.106C468.88 137.73 467.864 137.126 466.958 136.298C466.129 135.469 465.791 134.111 465.942 132.227C466.093 131.097 466.317 129.928 466.619 128.722C466.921 127.441 467.297 126.197 467.75 124.991C467.974 123.634 468.24 122.278 468.542 120.921C468.917 119.564 469.521 118.283 470.35 117.077C471.329 114.288 472.346 111.537 473.403 108.823C474.46 106.034 475.362 103.132 476.117 100.118C477.248 97.4036 478.264 94.9918 479.17 92.8812C480.15 90.771 481.317 88.0571 482.672 84.7408C483.427 83.0073 484.068 81.0853 484.595 78.9747C485.199 76.7885 486.105 74.8665 487.309 73.2085C487.836 72.5302 488.215 71.9649 488.44 71.5126C488.742 70.9849 489.044 70.4947 489.346 70.0424C489.872 68.9873 490.664 68.4975 491.717 68.5726C492.848 68.6481 493.603 68.9498 493.978 69.4771C495.26 70.0049 496.166 70.9849 496.693 72.4171C497.223 73.7738 497.411 74.7534 497.26 75.3567C497.26 76.1857 496.958 77.0902 496.354 78.0702C496.052 78.3714 495.75 78.8236 495.452 79.4269C495.15 79.9543 494.697 80.6706 494.093 81.5751C493.791 82.5551 493.489 83.5347 493.191 84.5147C492.889 85.4947 492.55 86.3992 492.17 87.2281C491.795 88.0571 491.378 88.8865 490.929 89.7155C490.476 90.5449 490.174 91.2232 490.023 91.7506C489.346 93.4845 488.591 95.1804 487.762 96.8383C487.007 98.4216 486.329 100.118 485.725 101.926C485.125 103.66 484.484 105.506 483.803 107.466C483.125 109.351 482.26 111.16 481.203 112.893C480.676 113.647 480.374 114.665 480.301 115.946C480.301 117.228 480.15 118.471 479.848 119.677C479.321 121.034 478.831 122.278 478.378 123.408C477.999 124.539 477.811 125.255 477.811 125.557C477.285 127.215 476.868 128.873 476.57 130.531C476.268 132.114 475.778 133.509 475.101 134.715C475.101 136.524 474.607 137.654 473.627 138.106C472.648 138.559 471.444 138.559 470.011 138.106ZM495.901 139.124C494.697 138.973 493.791 138.747 493.191 138.446C492.587 138.069 491.456 137.278 489.799 136.071C488.893 135.167 487.762 133.772 486.407 131.888C485.048 130.004 483.693 128.006 482.333 125.896C480.978 123.71 479.77 121.863 478.717 120.355L484.933 112.441C485.917 113.647 486.705 114.778 487.309 115.833C487.913 116.889 488.403 117.604 488.778 117.981C490.513 120.544 491.868 122.617 492.848 124.2C493.831 125.783 494.66 127.064 495.338 128.044C496.093 129.024 496.921 129.891 497.823 130.644C498.729 131.398 499.897 132.189 501.329 133.019C501.554 133.169 501.782 133.546 502.007 134.149C502.236 134.677 502.309 135.242 502.236 135.845C502.084 136.75 501.517 137.504 500.538 138.106C499.636 138.634 498.089 138.973 495.901 139.124ZM479.509 118.207C479.056 116.926 478.942 115.494 479.17 113.911C479.472 112.253 480.113 111.16 481.093 110.632C481.395 110.104 481.693 109.765 481.995 109.615C482.374 109.389 482.599 109.125 482.672 108.823C482.823 108.522 483.203 108.107 483.803 107.58C484.484 107.052 485.084 106.562 485.615 106.11C486.819 105.356 488.138 104.451 489.57 103.396C491.08 102.266 492.509 101.135 493.868 100.004C495.301 98.8738 496.468 97.8938 497.374 97.0645C498.354 96.2355 498.954 95.7077 499.182 95.4816C499.407 95.1804 499.86 94.9918 500.538 94.9163C501.293 94.8412 502.007 94.9543 502.684 95.2555C503.591 95.4816 504.305 95.9718 504.836 96.7253C505.436 97.4791 505.738 98.5347 505.738 99.8914C505.966 100.72 505.476 101.738 504.268 102.944C503.138 104.075 501.705 105.205 499.974 106.336C499.37 106.713 498.542 107.278 497.485 108.032C496.505 108.786 495.64 109.502 494.885 110.18C494.358 110.482 493.566 111.009 492.509 111.763C491.529 112.441 490.664 113.12 489.909 113.798C489.309 114.175 488.591 114.853 487.762 115.833C487.007 116.738 486.142 117.416 485.162 117.868C482.75 120.129 481.28 121.222 480.754 121.147C480.301 121.072 479.885 120.092 479.509 118.207ZM520.554 139.689C516.558 139.689 513.619 138.408 511.733 135.845C511.207 134.639 510.942 133.433 510.942 132.227C511.019 130.946 511.321 130.041 511.848 129.514C512.374 128.911 513.015 129.024 513.77 129.853C514.75 130.456 516.142 130.758 517.954 130.758C518.856 130.758 519.648 130.758 520.325 130.758C521.08 130.682 521.946 130.606 522.925 130.531C524.66 130.38 525.754 129.853 526.207 128.949C526.734 128.044 526.619 127.29 525.868 126.687H525.978C523.946 126.16 521.946 125.406 519.987 124.426C518.027 123.446 516.37 122.353 515.011 121.147C513.656 119.866 512.864 118.66 512.64 117.529C512.036 115.042 512.187 112.479 513.093 109.841C513.995 107.202 515.313 104.904 517.048 102.944C517.725 102.492 518.668 101.851 519.876 101.022C521.08 100.118 521.946 99.6273 522.476 99.5522V99.6653C523.909 98.1575 525.529 96.9514 527.338 96.0469C529.146 95.0673 531.256 94.1628 533.668 93.3334L535.476 93.1073C536.382 92.9567 537.174 92.8812 537.852 92.8812C537.774 92.8812 537.966 92.9567 538.415 93.1073C538.868 93.2583 539.248 93.3714 539.546 93.4465C539.999 93.6726 540.452 93.7857 540.905 93.7857C541.958 93.9367 542.978 94.502 543.958 95.4816C545.011 96.3861 545.84 97.4792 546.444 98.7608C547.121 99.9665 547.387 101.097 547.236 102.153C547.011 103.886 546.37 105.62 545.313 107.353C544.26 109.012 543.129 109.954 541.921 110.18C542.072 110.104 541.921 109.954 541.468 109.728C541.019 109.502 540.603 109.275 540.227 109.049L539.774 109.275C539.774 109.275 539.738 109.162 539.66 108.936C539.66 108.71 539.587 108.446 539.436 108.145C539.133 107.617 538.905 107.052 538.758 106.449C538.68 105.846 538.68 105.167 538.758 104.414C538.905 103.584 538.946 103.095 538.868 102.944C538.795 102.793 538.342 102.68 537.513 102.605C536.533 102.379 535.289 102.492 533.782 102.944C532.272 103.321 530.88 103.999 529.599 104.979C528.089 105.959 526.958 106.75 526.207 107.353C525.529 107.956 524.999 108.56 524.623 109.162C524.248 109.69 523.831 110.482 523.378 111.537C523.076 112.064 522.815 112.554 522.587 113.006C522.362 113.383 522.248 113.76 522.248 114.137C522.248 114.891 522.889 115.682 524.17 116.511C525.452 117.265 527.374 118.17 529.938 119.225C531.97 120.054 533.293 121.185 533.893 122.617C534.574 124.049 535.174 125.406 535.705 126.687C535.856 126.989 536.003 127.554 536.154 128.383C536.382 129.137 536.419 129.589 536.268 129.74C536.419 129.891 536.493 130.041 536.493 130.192V130.079C537.097 131.21 536.987 132.415 536.154 133.697C535.403 134.903 534.195 136.034 532.538 137.089C530.88 138.069 528.995 138.785 526.885 139.237H526.999C525.868 139.388 524.738 139.501 523.607 139.576C522.55 139.652 521.533 139.689 520.554 139.689ZM544.476 165.242C544.178 165.242 543.725 165.242 543.121 165.242C542.595 165.317 542.142 165.015 541.766 164.337C541.464 163.96 541.011 163.206 540.407 162.076C539.803 161.02 539.693 159.513 540.068 157.553C540.444 156.272 540.746 154.991 540.974 153.709C541.199 152.503 541.313 151.599 541.313 150.995C541.313 150.694 541.387 150.091 541.538 149.186C541.766 148.358 541.876 147.755 541.876 147.378C542.256 146.775 542.554 145.946 542.782 144.89C543.007 143.835 543.121 142.893 543.121 142.064C543.121 141.159 543.574 140.33 544.476 139.576C544.476 138.973 544.591 138.22 544.819 137.315C545.117 136.411 545.268 135.808 545.268 135.506C545.497 134.451 545.987 132.604 546.738 129.966C547.57 127.253 548.55 124.2 549.68 120.808C550.884 117.416 552.052 114.1 553.182 110.858C554.313 107.617 555.333 104.866 556.236 102.605C557.142 100.494 557.897 98.5347 558.497 96.7253C559.101 94.9163 559.403 93.6351 559.403 92.8812C559.403 92.58 559.476 92.3538 559.627 92.2028C559.778 91.9767 560.117 91.5624 560.648 90.9591C561.399 90.2057 562.378 89.9416 563.587 90.1677C564.868 90.3187 565.921 90.6955 566.75 91.2983C567.354 92.2783 567.77 93.1828 567.995 94.0118C568.297 94.7657 568.297 95.9718 567.995 97.6298C567.995 98.7608 567.729 99.8159 567.203 100.796C566.676 101.7 566.187 102.454 565.733 103.057C565.358 103.584 565.244 103.811 565.395 103.735C568.713 101.7 571.689 100.607 574.325 100.457C577.04 100.231 579.301 100.683 581.109 101.813C582.995 102.869 584.427 104.338 585.407 106.223C586.387 108.107 586.876 110.142 586.876 112.328C586.876 113.233 586.574 114.439 585.97 115.946C585.37 117.454 584.693 118.886 583.938 120.242C583.183 121.524 582.578 122.391 582.129 122.843C581.827 122.843 581.525 123.107 581.223 123.634C580.921 124.086 580.619 124.614 580.317 125.217C579.717 125.971 578.697 126.838 577.268 127.818C575.909 128.722 574.513 129.476 573.085 130.079C571.652 130.606 570.631 130.758 570.031 130.531C570.031 130.531 569.917 130.606 569.693 130.758C569.542 130.908 569.464 131.172 569.464 131.549C569.464 131.7 568.938 132.001 567.88 132.453C566.827 132.906 565.582 133.32 564.15 133.697C562.717 134.074 561.399 134.262 560.195 134.262C558.611 134.262 557.48 133.961 556.803 133.358C556.652 133.509 556.464 133.735 556.236 134.036C556.085 134.338 556.011 134.602 556.011 134.828C556.011 135.28 555.823 135.996 555.444 136.976C555.142 137.956 554.766 138.822 554.313 139.576C553.864 140.405 553.448 140.82 553.072 140.82C553.072 140.82 552.995 140.933 552.844 141.159C552.693 141.385 552.77 141.687 553.072 142.064C553.072 142.064 553.031 142.478 552.958 143.307C552.958 144.212 552.77 144.966 552.391 145.569C552.391 146.172 552.28 147.076 552.052 148.282C551.827 149.488 551.562 150.393 551.26 150.995C551.26 151.9 551.109 152.767 550.811 153.596C550.582 154.501 550.321 154.953 550.019 154.953C549.717 155.028 549.529 155.48 549.452 156.31C549.378 157.214 549.342 157.855 549.342 158.232C549.264 160.116 548.66 161.737 547.529 163.093C546.399 164.526 545.382 165.242 544.476 165.242ZM558.95 125.67C559.554 125.67 560.648 125.406 562.227 124.878C563.811 124.351 565.468 123.71 567.203 122.956C568.938 122.127 570.293 121.298 571.272 120.469C573.236 118.735 574.742 117.039 575.795 115.381C576.925 113.722 576.852 111.876 575.57 109.841C574.966 108.786 573.987 108.371 572.631 108.597C571.35 108.748 569.917 109.351 568.334 110.406C566.75 111.461 565.129 112.78 563.472 114.363C562.566 115.343 561.738 116.474 560.987 117.755C560.231 119.037 559.591 120.28 559.064 121.486C558.611 122.692 558.346 123.71 558.272 124.539C558.195 125.293 558.423 125.67 558.95 125.67ZM601.68 137.315C601.076 137.466 600.285 137.541 599.305 137.541C598.325 137.466 597.46 137.353 596.705 137.202C596.027 136.976 595.689 136.75 595.689 136.524C595.689 136.147 595.501 135.958 595.121 135.958C595.121 135.958 594.709 135.657 593.88 135.054C593.048 134.375 592.297 133.885 591.619 133.584C590.938 132.529 590.489 131.323 590.26 129.966C590.109 128.534 590.562 126.046 591.619 122.504C591.693 120.092 592.37 117.567 593.652 114.929C594.934 112.215 596.554 109.577 598.513 107.014C600.472 104.451 602.509 102.19 604.619 100.231C606.729 98.1951 608.615 96.6877 610.272 95.7077C611.329 94.6526 612.721 94.0873 614.456 94.0118C616.264 93.9367 617.848 94.2759 619.203 95.0293C619.958 95.4065 620.787 96.16 621.693 97.2906C622.595 98.4216 623.464 99.6273 624.293 100.909C625.121 102.115 625.762 103.208 626.215 104.188C626.44 105.017 626.627 105.771 626.778 106.449C627.007 107.052 627.158 107.806 627.231 108.71C627.309 109.615 627.232 110.971 627.007 112.78C626.627 114.137 626.289 115.531 625.987 116.964C625.762 118.32 625.648 119.715 625.648 121.147C625.497 122.579 625.648 123.597 626.101 124.2C626.627 124.803 627.383 124.84 628.362 124.313C629.268 123.86 630.211 123.823 631.191 124.2C632.17 124.501 632.848 125.104 633.223 126.009C633.676 126.838 633.562 127.931 632.885 129.288C632.432 130.267 631.717 131.21 630.738 132.114C629.758 133.019 628.664 133.772 627.46 134.375C626.252 134.903 625.085 135.167 623.954 135.167C623.125 135.167 622.297 134.865 621.464 134.262C620.636 133.584 619.885 132.68 619.203 131.549C618.525 130.418 617.962 129.175 617.509 127.818L616.831 125.217L612.762 128.949C611.778 130.004 610.799 130.984 609.819 131.888C608.917 132.717 608.35 133.32 608.125 133.697C607.746 134.375 606.995 134.978 605.864 135.506C604.807 136.034 603.415 136.637 601.68 137.315ZM604.734 126.461C606.015 125.707 607.105 124.803 608.011 123.747C608.991 122.692 609.934 121.524 610.84 120.242C611.742 118.886 612.721 117.454 613.778 115.946C615.06 114.213 615.962 112.818 616.493 111.763C617.093 110.708 617.546 109.577 617.848 108.371C617.546 107.542 617.133 106.675 616.603 105.771C616.076 104.791 615.55 104.263 615.023 104.188C613.966 104.188 612.685 104.828 611.178 106.11C609.746 107.391 608.162 109.238 606.427 111.65C606.125 112.026 605.75 112.63 605.297 113.459C604.844 114.288 604.395 115.079 603.942 115.833C603.566 116.511 603.301 116.964 603.15 117.19C602.925 117.491 602.582 118.207 602.133 119.338C601.754 120.393 601.415 121.486 601.113 122.617C600.811 123.672 600.664 124.426 600.664 124.878C600.664 125.33 600.701 125.82 600.774 126.348C600.925 126.875 601.305 127.215 601.905 127.366C602.509 127.516 603.452 127.215 604.734 126.461ZM647.942 137.993C646.28 137.993 645.04 137.918 644.211 137.767C643.456 137.617 642.889 137.391 642.513 137.089C642.138 136.787 641.648 136.373 641.044 135.845C640.742 135.242 640.215 134.489 639.46 133.584C638.705 132.604 638.178 131.963 637.876 131.662C637.574 130.531 637.464 128.986 637.538 127.026C637.689 125.066 638.027 122.956 638.558 120.695C639.085 118.433 639.725 116.398 640.476 114.589C640.778 113.986 641.044 113.383 641.268 112.78C641.497 112.178 641.607 111.876 641.607 111.876C641.607 111.499 642.06 110.595 642.966 109.162C643.946 107.73 644.999 106.223 646.129 104.64C647.338 103.057 648.317 101.926 649.072 101.248C649.599 100.645 650.391 100.004 651.444 99.3261C652.574 98.6477 653.554 98.1575 654.387 97.8559C655.215 97.5547 656.346 97.1775 657.778 96.7253C659.207 96.1979 660.489 95.9338 661.619 95.9338C662.676 95.9338 663.807 96.16 665.011 96.6122C666.219 97.0645 667.236 97.8559 668.064 98.9869C669.423 100.344 670.289 101.964 670.664 103.849C671.044 105.733 671.08 107.353 670.778 108.71C670.403 110.218 669.648 111.461 668.517 112.441C667.387 113.346 666.183 113.835 664.901 113.911C663.619 113.911 662.489 113.383 661.509 112.328C661.207 111.725 661.056 111.235 661.056 110.858C661.056 110.406 661.207 109.765 661.509 108.936C661.811 107.881 661.962 106.939 661.962 106.11C661.962 105.28 661.619 104.866 660.942 104.866C659.962 104.866 659.17 105.167 658.57 105.771C657.966 106.298 657.06 107.202 655.856 108.484C655.325 109.087 654.648 109.954 653.819 111.084C652.991 112.215 652.162 113.459 651.334 114.815C650.578 116.097 649.901 117.416 649.297 118.773C648.468 121.26 647.942 122.881 647.713 123.634C647.562 124.313 647.489 124.652 647.489 124.652C647.489 124.953 647.452 125.255 647.374 125.557C647.301 125.783 647.26 126.046 647.26 126.348C647.26 127.253 647.791 127.969 648.844 128.496C649.672 129.024 650.354 129.288 650.88 129.288C651.485 129.212 652.615 128.798 654.272 128.044C655.476 127.441 656.607 126.649 657.664 125.67C658.795 124.69 659.962 123.823 661.17 123.069C661.999 122.542 662.64 122.089 663.093 121.712C663.619 121.335 663.88 121.298 663.88 121.599C663.88 121.901 663.995 122.051 664.223 122.051C664.448 122.051 664.713 121.901 665.011 121.599C665.464 120.996 666.031 120.77 666.709 120.921C667.387 120.996 667.991 121.185 668.517 121.486C669.121 121.788 669.423 122.051 669.423 122.278C669.272 122.956 669.423 123.521 669.876 123.973C669.876 124.275 669.762 124.69 669.534 125.217C669.387 125.67 669.158 126.046 668.856 126.348C668.48 126.875 667.913 127.629 667.162 128.609C666.485 129.589 665.844 130.456 665.24 131.21C664.636 131.963 664.334 132.34 664.334 132.34C664.031 132.265 663.729 132.34 663.431 132.566C663.203 132.793 662.942 133.056 662.64 133.358C662.036 133.885 661.468 134.3 660.942 134.602C660.415 134.828 659.999 134.941 659.701 134.941C659.17 135.242 658.758 135.431 658.456 135.506C658.227 135.582 658.117 135.77 658.117 136.071C657.362 136.825 656.007 137.353 654.044 137.654C652.085 137.88 650.052 137.993 647.942 137.993ZM686.309 137.88C683.37 136.674 681.334 134.715 680.203 132.001C679.072 129.288 678.77 125.67 679.297 121.147C679.448 118.811 679.374 117.265 679.072 116.511C678.77 115.682 678.207 114.891 677.378 114.137C677.15 113.835 676.623 113.346 675.795 112.667C674.966 111.913 674.587 111.348 674.664 110.971C674.587 110.444 674.701 109.803 675.003 109.049C675.305 108.22 675.566 107.768 675.795 107.693C676.321 107.466 676.848 107.202 677.378 106.901C677.978 106.6 678.431 106.524 678.734 106.675C679.036 106.675 679.489 106.863 680.089 107.24C680.77 107.617 681.109 107.956 681.109 108.258C681.411 108.786 681.86 108.56 682.464 107.58C683.142 106.6 683.86 105.356 684.611 103.849C685.366 102.642 686.309 101.512 687.44 100.457C688.57 99.4012 689.701 98.4591 690.831 97.6298C692.036 96.7253 693.056 96.0469 693.885 95.5947C694.26 95.444 694.978 95.2179 696.031 94.9163C697.162 94.6151 698.329 94.3889 699.538 94.2379C700.742 94.0118 701.648 93.9367 702.252 94.0118C703.607 94.0873 705.04 94.6526 706.546 95.7077C708.056 96.7632 709.223 97.7428 710.052 98.6477C711.031 99.3261 711.672 100.381 711.974 101.813C712.35 103.17 712.501 104.602 712.427 106.11C712.35 107.617 712.048 108.899 711.521 109.954C711.297 110.708 710.505 111.763 709.146 113.12C707.791 114.476 706.285 115.795 704.623 117.077C703.044 118.283 701.685 119.112 700.554 119.564C699.574 119.79 698.407 119.979 697.048 120.129C695.693 120.205 694.411 120.205 693.207 120.129C692.076 119.979 691.285 119.79 690.831 119.564C690.305 119.263 689.852 119.376 689.472 119.903C689.174 120.355 688.909 121.637 688.685 123.747C688.607 124.577 688.607 125.293 688.685 125.896C688.831 126.499 688.983 126.951 689.134 127.253C689.664 128.157 690.191 128.835 690.717 129.288C691.244 129.664 692.227 129.778 693.656 129.627C695.089 129.476 696.521 128.609 697.954 127.026C699.46 125.368 700.819 124.049 702.023 123.069C702.325 122.542 702.966 122.202 703.946 122.051C705.003 121.825 706.244 121.901 707.676 122.278C708.505 122.805 708.885 123.634 708.807 124.765C708.807 125.896 708.203 127.554 706.999 129.74C706.774 130.267 706.134 131.059 705.076 132.114C704.097 133.094 703.003 134.111 701.799 135.167C700.668 136.147 699.725 136.863 698.97 137.315C696.709 138.521 694.489 139.086 692.301 139.011C690.113 138.935 688.117 138.559 686.309 137.88ZM694.676 112.441C695.807 112.14 696.75 111.838 697.501 111.537C698.329 111.235 699.121 110.745 699.876 110.067C700.632 109.389 701.497 108.371 702.476 107.014C702.778 106.185 702.929 105.469 702.929 104.866C703.003 104.263 702.966 103.886 702.815 103.735C702.211 103.132 701.534 102.944 700.783 103.17C700.101 103.321 699.35 103.698 698.517 104.301C697.991 104.527 697.24 105.017 696.256 105.771C695.354 106.449 694.448 107.24 693.546 108.145C692.717 108.974 692.036 109.765 691.509 110.519C691.056 111.198 690.983 111.612 691.285 111.763C691.134 112.064 691.546 112.253 692.525 112.328C693.583 112.404 694.297 112.441 694.676 112.441Z" fill="black"/>
<path d="M0.9375 140.552V79.7355H13.1824L35.9581 109.94H30.2436L52.3662 79.7355H64.6111V140.552H51.9581V93.6946L57.0193 94.8375L33.5906 125.042H31.9579L9.34566 94.8375L13.5906 93.6946V140.552H0.9375ZM88.2932 141.531C85.0826 141.531 82.3071 141.014 79.9667 139.98C77.6267 138.946 75.8307 137.477 74.5789 135.572C73.3275 133.613 72.7013 131.3 72.7013 128.633C72.7013 126.13 73.2728 123.926 74.4156 122.021C75.5585 120.062 77.3001 118.429 79.6401 117.123C82.0348 115.817 85.0009 114.892 88.5381 114.348L102.171 112.144V121.123L90.7422 123.164C89.0009 123.491 87.6675 124.062 86.7422 124.878C85.8173 125.64 85.3544 126.756 85.3544 128.225C85.3544 129.586 85.8715 130.647 86.9054 131.409C87.9397 132.171 89.2185 132.552 90.7422 132.552C92.756 132.552 94.5246 132.116 96.0483 131.246C97.5724 130.375 98.7422 129.205 99.5585 127.735C100.43 126.211 100.865 124.552 100.865 122.756V111.164C100.865 109.477 100.185 108.062 98.8238 106.919C97.5177 105.776 95.7218 105.205 93.436 105.205C91.2593 105.205 89.3275 105.803 87.6401 107.001C86.0075 108.198 84.8103 109.776 84.0483 111.735L74.2524 107.082C75.1234 104.579 76.5111 102.429 78.4156 100.633C80.3205 98.8375 82.6062 97.4497 85.2728 96.4701C87.9397 95.4906 90.8511 95.0008 94.0075 95.0008C97.7626 95.0008 101.083 95.6808 103.967 97.0416C106.851 98.402 109.083 100.307 110.661 102.756C112.293 105.15 113.11 107.953 113.11 111.164V140.552H101.681V133.368L104.456 132.878C103.15 134.837 101.708 136.47 100.13 137.776C98.552 139.028 96.783 139.953 94.8238 140.552C92.8646 141.205 90.6879 141.531 88.2932 141.531ZM142.762 141.042C137.374 141.042 133.184 139.599 130.191 136.715C127.252 133.776 125.783 129.695 125.783 124.47V106.593H118.272V95.9803H118.681C120.966 95.9803 122.708 95.4089 123.905 94.2661C125.157 93.1232 125.783 91.4089 125.783 89.1232V85.8579H138.027V95.9803H148.476V106.593H138.027V123.654C138.027 125.177 138.3 126.456 138.844 127.491C139.388 128.47 140.232 129.205 141.374 129.695C142.517 130.184 143.932 130.429 145.619 130.429C146 130.429 146.436 130.402 146.925 130.348C147.415 130.293 147.932 130.239 148.476 130.184V140.552C147.66 140.66 146.735 140.769 145.701 140.878C144.667 140.987 143.687 141.042 142.762 141.042ZM155.652 140.552V95.9803H167.897V140.552H155.652ZM155.652 91.9803V79.7355H167.897V91.9803H155.652ZM176.857 140.552V78.7559H189.102V140.552H176.857ZM219.042 141.531C214.688 141.531 210.797 140.497 207.369 138.429C203.94 136.361 201.219 133.558 199.205 130.021C197.246 126.484 196.267 122.565 196.267 118.266C196.267 113.912 197.273 109.994 199.287 106.511C201.301 102.973 204.022 100.171 207.45 98.1028C210.879 96.0346 214.716 95.0008 218.961 95.0008C222.226 95.0008 225.11 95.6265 227.614 96.8783C230.171 98.0754 232.185 99.7897 233.654 102.021L231.777 104.47V78.7559H244.022V140.552H232.593V132.389L233.736 134.919C232.212 137.096 230.144 138.756 227.532 139.899C224.92 140.987 222.09 141.531 219.042 141.531ZM220.512 130.511C222.743 130.511 224.702 129.994 226.389 128.96C228.076 127.926 229.382 126.484 230.307 124.633C231.287 122.783 231.777 120.66 231.777 118.266C231.777 115.871 231.287 113.749 230.307 111.899C229.382 110.048 228.076 108.606 226.389 107.572C224.702 106.538 222.743 106.021 220.512 106.021C218.28 106.021 216.267 106.565 214.471 107.654C212.729 108.688 211.369 110.13 210.389 111.98C209.41 113.776 208.92 115.871 208.92 118.266C208.92 120.66 209.41 122.783 210.389 124.633C211.369 126.484 212.729 127.926 214.471 128.96C216.267 129.994 218.28 130.511 220.512 130.511ZM266.785 141.531C263.574 141.531 260.799 141.014 258.459 139.98C256.119 138.946 254.323 137.477 253.071 135.572C251.819 133.613 251.193 131.3 251.193 128.633C251.193 126.13 251.765 123.926 252.907 122.021C254.05 120.062 255.792 118.429 258.132 117.123C260.527 115.817 263.492 114.892 267.03 114.348L280.663 112.144V121.123L269.234 123.164C267.492 123.491 266.159 124.062 265.234 124.878C264.309 125.64 263.846 126.756 263.846 128.225C263.846 129.586 264.363 130.647 265.397 131.409C266.431 132.171 267.71 132.552 269.234 132.552C271.247 132.552 273.016 132.116 274.54 131.246C276.064 130.375 277.234 129.205 278.05 127.735C278.921 126.211 279.356 124.552 279.356 122.756V111.164C279.356 109.477 278.676 108.062 277.316 106.919C276.01 105.776 274.214 105.205 271.928 105.205C269.751 105.205 267.819 105.803 266.132 107.001C264.499 108.198 263.302 109.776 262.54 111.735L252.744 107.082C253.615 104.579 255.003 102.429 256.907 100.633C258.812 98.8375 261.098 97.4497 263.765 96.4701C266.431 95.4906 269.343 95.0008 272.499 95.0008C276.254 95.0008 279.574 95.6808 282.458 97.0416C285.343 98.402 287.574 100.307 289.152 102.756C290.785 105.15 291.601 107.953 291.601 111.164V140.552H280.173V133.368L282.948 132.878C281.642 134.837 280.2 136.47 278.622 137.776C277.043 139.028 275.275 139.953 273.316 140.552C271.356 141.205 269.18 141.531 266.785 141.531Z" fill="black"/>
</g>
<defs>
<clipPath id="clip0_865_225">
<rect width="711.508" height="231" fill="white" transform="translate(0.9375)"/>
</clipPath>
</defs>
</svg>
