<svg width="361" height="231" viewBox="0 0 361 231" fill="none" xmlns="http://www.w3.org/2000/svg">
<g clip-path="url(#clip0_865_148)">
<g clip-path="url(#clip1_865_148)">
<path fill-rule="evenodd" clip-rule="evenodd" d="M36.1152 139.492C55.9977 139.492 72.1152 123.374 72.1152 103.492C72.1152 83.6099 55.9977 67.4922 36.1152 67.4922C35.7808 67.4922 35.4474 67.4967 35.1152 67.5058V67.4922H18.1152H12.1152H0.115234V103.492V163.492H18.1152V139.492H35.1152V139.478C35.4474 139.487 35.7808 139.492 36.1152 139.492ZM36.1148 121.492C45.9158 121.492 53.8612 113.433 53.8612 103.492C53.8612 93.5512 45.9162 85.4924 36.1152 85.4922H18.1152V121.492H36.1148ZM126.115 91.4922H144.115V163.492H126.115V158.676C120.82 161.739 114.672 163.492 108.115 163.492C88.2327 163.492 72.1152 147.374 72.1152 127.492C72.1152 107.61 88.2327 91.4924 108.115 91.4924C114.672 91.4924 120.82 93.2455 126.115 96.3086V91.4922ZM108.115 109.492C118.056 109.492 126.115 117.551 126.115 127.492C126.115 137.433 118.056 145.492 108.115 145.492C98.1742 145.492 90.1152 137.433 90.1152 127.492C90.1152 117.551 98.1742 109.492 108.115 109.492ZM220.115 67.4922H202.115V96.3083C196.82 93.2453 190.672 91.4922 184.115 91.4922C164.233 91.4922 148.115 107.61 148.115 127.492C148.115 147.374 164.233 163.492 184.115 163.492C190.672 163.492 196.82 161.739 202.115 158.676V163.492H220.115V127.492V67.4922ZM202.115 127.584C202.065 137.483 194.026 145.492 184.115 145.492C174.174 145.492 166.115 137.433 166.115 127.492C166.115 117.551 174.174 109.492 184.115 109.492C194.026 109.492 202.065 117.501 202.115 127.399V127.584ZM245.115 67.4922H227.115V163.492H245.115V67.4922ZM321.765 133.544C319.937 144.213 313.352 154.018 303.241 159.17C284.744 168.595 263.066 161.551 254.438 144.618C245.013 126.12 252.057 104.442 270.554 95.0172C287.487 86.3894 309.165 93.4332 318.59 111.931C319.535 113.785 320.292 115.696 320.868 117.64L302.658 126.919L274.525 141.254C279.929 145.755 287.833 146.818 295.051 143.141C300.763 140.23 304.198 133.975 304.139 127.432L321.765 133.544ZM268.169 128.78L297.73 113.718C292.398 109.18 284.78 107.97 278.707 111.065C271.489 114.743 267.703 121.762 268.169 128.78ZM327.115 67.4922H345.108V97.4922H359.107V115.492H345.108V163.492H327.115V67.4922Z" fill="#111111"/>
</g>
</g>
<defs>
<clipPath id="clip0_865_148">
<rect width="360" height="231" fill="white" transform="translate(0.115234)"/>
</clipPath>
<clipPath id="clip1_865_148">
<rect width="360" height="100" fill="white" transform="translate(0.115234 65.5)"/>
</clipPath>
</defs>
</svg>
