<svg width="188" height="231" viewBox="0 0 188 231" fill="none" xmlns="http://www.w3.org/2000/svg">
<g clip-path="url(#clip0_865_222)">
<path fill-rule="evenodd" clip-rule="evenodd" d="M143.656 159.122C119.444 186.426 77.6809 188.933 50.3764 164.72C47.1645 161.872 44.2957 158.781 41.7732 155.499L62.1887 132.476C64.1607 136.15 66.803 139.545 70.1045 142.472C85.122 155.789 108.092 154.41 121.409 139.393C134.726 124.375 133.347 101.406 118.329 88.0887C103.809 75.2133 81.8557 76.0754 68.3805 89.7202L68.3409 89.6852L67.0253 91.168L30.4054 132.465C24.8438 111.736 29.4728 88.6993 44.7777 71.4399C68.9904 44.1352 110.753 41.6286 138.058 65.8412C165.363 90.0539 167.869 131.817 143.656 159.122Z" fill="black"/>
</g>
<defs>
<clipPath id="clip0_865_222">
<rect width="187" height="231" fill="white" transform="translate(0.9375)"/>
</clipPath>
</defs>
</svg>
