<svg width="452" height="231" viewBox="0 0 452 231" fill="none" xmlns="http://www.w3.org/2000/svg">
<g clip-path="url(#clip0_865_199)">
<g clip-path="url(#clip1_865_199)">
<path d="M53.7109 160.55C28.8305 160.55 8.66094 140.38 8.66094 115.5C8.66094 90.6196 28.8305 70.45 53.7109 70.45C78.5913 70.45 98.7609 90.6196 98.7609 115.5C98.7609 140.38 78.5913 160.55 53.7109 160.55ZM53.7109 168.5C82.9818 168.5 106.711 144.771 106.711 115.5C106.711 86.2289 82.9818 62.5 53.7109 62.5C24.4398 62.5 0.710938 86.2289 0.710938 115.5C0.710938 144.771 24.4398 168.5 53.7109 168.5Z" fill="black"/>
<path d="M216.686 78.4004C197.66 78.4004 182.236 93.8242 182.236 112.85C182.236 131.877 197.66 147.3 216.686 147.3C235.713 147.3 251.136 131.877 251.136 112.85C251.136 93.8242 235.713 78.4004 216.686 78.4004ZM190.186 112.85C190.186 98.2149 202.051 86.3504 216.686 86.3504C231.322 86.3504 243.186 98.2149 243.186 112.85C243.186 127.486 231.322 139.35 216.686 139.35C202.051 139.35 190.186 127.486 190.186 112.85Z" fill="black"/>
<path d="M175.61 79.7247L175.114 79.7246C169.254 79.7243 165.764 79.724 162.773 80.2582C148.648 82.7806 137.591 93.8376 135.069 107.962C134.535 110.954 134.535 114.444 134.535 120.303V147.3H142.485V120.8C142.485 114.297 142.501 111.567 142.895 109.36C144.832 98.5128 153.323 90.0215 164.171 88.0844C166.378 87.6903 169.108 87.6747 175.61 87.6747V79.7247Z" fill="black"/>
<path d="M322.686 134.864V147.3H330.636V112.85C330.636 93.8242 315.213 78.4004 296.186 78.4004C277.16 78.4004 261.736 93.8242 261.736 112.85C261.736 131.877 277.16 147.3 296.186 147.3C306.841 147.3 316.367 142.463 322.686 134.864ZM296.186 86.3504C310.822 86.3504 322.686 98.2149 322.686 112.85C322.686 127.486 310.822 139.35 296.186 139.35C281.551 139.35 269.686 127.486 269.686 112.85C269.686 98.2149 281.551 86.3504 296.186 86.3504Z" fill="black"/>
<path d="M374.362 87.6746C363.385 87.6746 354.487 96.5729 354.487 107.55V147.3H346.537V107.55C346.537 92.1823 358.995 79.7246 374.362 79.7246C384.484 79.7246 393.343 85.129 398.212 93.2094C403.081 85.129 411.941 79.7246 422.062 79.7246C437.429 79.7246 449.887 92.1823 449.887 107.55V147.3H441.937V107.55C441.937 96.5729 433.039 87.6746 422.062 87.6746C411.085 87.6746 402.187 96.5729 402.187 107.55V147.3H394.237V107.55C394.237 96.5729 385.339 87.6746 374.362 87.6746Z" fill="black"/>
<path d="M75.4581 76.0372C72.479 75.3396 69.3737 74.9707 66.1815 74.9707C43.798 74.9707 25.6523 93.1163 25.6523 115.5C25.6523 137.884 43.798 156.03 66.1815 156.03C69.3737 156.03 72.479 155.66 75.4581 154.963C89.3271 147.304 98.7283 132.546 98.7611 115.589C98.7129 133.541 84.1453 148.08 66.1815 148.08C48.1886 148.08 33.6023 133.493 33.6023 115.5C33.6023 97.507 48.1886 82.9207 66.1815 82.9207C84.1453 82.9207 98.7129 97.4588 98.7611 115.411C98.7283 98.4543 89.3271 83.6964 75.4581 76.0372Z" fill="black" fill-opacity="0.5"/>
<path d="M83.4094 143.157C92.6044 137.418 98.7301 127.22 98.7614 115.589V115.546C98.7365 126.631 89.7429 135.609 78.6527 135.609C67.5465 135.609 58.544 126.606 58.544 115.5C58.544 104.394 67.5465 95.3914 78.6527 95.3914C89.7429 95.3914 98.7365 104.37 98.7614 115.455V115.411C98.7301 103.78 92.6044 93.5826 83.4094 87.8429C81.8629 87.5789 80.2739 87.4414 78.6527 87.4414C63.156 87.4414 50.5938 100.004 50.5938 115.5C50.5938 130.996 63.156 143.559 78.6527 143.559C80.2739 143.559 81.8634 143.422 83.4094 143.157Z" fill="black" fill-opacity="0.3"/>
</g>
</g>
<defs>
<clipPath id="clip0_865_199">
<rect width="450.5" height="231" fill="white" transform="translate(0.710938)"/>
</clipPath>
<clipPath id="clip1_865_199">
<rect width="450.5" height="106" fill="white" transform="translate(0.710938 62.5)"/>
</clipPath>
</defs>
</svg>
