<svg xmlns="http://www.w3.org/2000/svg" viewBox="0 0 1188.21 512.47" width="1188.21" height="512.47" style="background-color: transparent;"><defs><style>@import url('https://fonts.googleapis.com/css2?family=Caveat+Brush&amp;family=Source+Code+Pro&amp;family=Source+Sans+Pro&amp;family=Crimson+Pro&amp;display=block');</style></defs><text font-size="48px" font-family="Source Sans Pro" font-weight="normal" line-height="48px" letter-spacing="-0.03em" text-align="center" dominant-baseline="mathematical" alignment-baseline="mathematical" text-anchor="middle" fill="#36a64c" transform="translate(220.11, 181.09) rotate(0.00, 286.00, 29.00)"><tspan y="24px" x="290">When you save a ".svg.tldr" file
</tspan></text><text font-size="48px" font-family="Source Sans Pro" font-weight="normal" line-height="48px" letter-spacing="-0.03em" text-align="center" dominant-baseline="mathematical" alignment-baseline="mathematical" text-anchor="middle" fill="#128fa3" transform="translate(282.02, 254.73) rotate(0.00, 317.00, 29.00)"><tspan y="24px" x="321">It will export to SVG automatically
</tspan></text><g id="9c8b814d-366a-475f-08d3-fd04adc208fa_svg" class="tl-centered-g" transform="translate(102.45, 75.24) rotate(0.00, 505.88, 168.52)"><g opacity="1"><path d="M99.47,46.10 Q102.99,41.52 107.66,37.47 T119.18,29.19 132.40,21.83 144.75,16.25 160.69,11.11 188.92,6.13 226.66,4.44 259.32,6.47 287.30,12.86 311.09,21.21 325.89,27.08 334.95,31.03 340.25,33.30 345.56,34.74 352.29,34.93 361.18,32.93 376.22,28.98 395.50,25.27 414.91,24.04 433.56,25.59 450.37,29.45 465.15,34.64 475.94,39.06 485.64,38.94 496.59,35.39 509.09,31.35 526.30,27.19 547.82,24.63 575.48,25.54 606.19,29.69 632.68,35.08 653.15,40.52 667.25,45.04 675.71,48.10 682.20,49.93 688.63,50.54 700.07,49.46 718.31,47.73 742.22,47.93 773.25,51.82 811.16,60.10 847.44,70.40 873.02,81.11 888.56,92.85 894.28,104.81 892.88,115.29 890.09,122.29 896.88,125.70 914.48,129.11 936.81,137.53 960.84,152.31 981.49,171.42 995.76,194.44 1001.24,217.85 996.01,237.16 981.29,251.90 959.43,261.58 937.76,266.25 923.44,267.64 915.33,268.02 912.10,271.72 910.61,279.79 906.20,289.05 896.52,297.82 875.45,305.11 845.51,310.07 817.55,311.83 795.21,310.08 779.64,305.36 770.80,300.23 765.60,298.30 757.79,301.87 743.73,308.99 724.05,316.27 700.53,322.46 674.44,327.31 639.43,330.19 601.42,330.53 572.31,328.64 551.51,324.77 538.54,319.76 531.50,315.59 525.01,314.85 514.32,318.50 498.22,324.60 475.98,330.33 451.02,333.99 400.53,328.49 334.76,315.96 288.05,305.02 257.55,296.56 240.14,291.24 231.04,287.74 225.37,285.27 216.91,284.10 201.33,284.18 172.79,284.80 132.88,285.29 93.84,284.34 64.01,279.21 47.47,269.78 43.71,259.17 48.18,249.78 55.10,243.02 59.91,238.94 54.99,230.86 41.40,218.50 27.32,206.67 15.37,194.83 8.85,178.91 7.19,157.51 7.31,133.30 7.91,110.18 8.99,92.92 11.05,81.41 14.57,74.00 19.62,68.86 25.42,65.07 30.26,62.34 36.28,59.89 43.96,57.60 50.86,55.30 56.18,53.02 66.63,53.13 75.41,54.27 76.03,54.57 76.53,55.06 76.85,55.68 76.95,56.38 76.82,57.06 76.48,57.67 75.97,58.14 75.33,58.43 74.63,58.49 73.95,58.33 73.36,57.96 72.92,57.41 72.67,56.76 72.65,56.06 72.85,55.39 73.25,54.82 73.81,54.41 74.48,54.20 75.18,54.21 75.84,54.45 76.38,54.88 76.77,55.47 76.94,56.14 76.89,56.84 76.62,57.48 76.16,58.01 75.55,58.36 74.87,58.49 74.51,58.51 65.16,58.14 52.30,59.35 45.10,62.10 37.67,64.12 31.97,65.71 27.27,67.95 22.01,71.29 17.58,75.59 14.44,82.13 12.50,93.16 11.49,110.27 10.96,133.31 10.91,157.22 12.30,177.51 18.29,192.11 30.06,203.34 44.42,214.96 58.22,226.48 64.44,236.41 62.34,241.86 57.48,245.57 51.15,251.43 46.92,258.99 49.71,267.48 64.85,275.62 93.95,280.43 132.82,281.18 172.65,280.43 201.22,279.44 217.86,279.36 227.13,281.48 232.36,284.59 241.16,287.95 258.49,293.22 288.86,301.62 335.44,312.48 400.67,324.93 450.51,330.36 474.99,326.70 496.80,320.96 512.78,314.70 525.32,311.33 533.41,312.54 539.89,316.60 552.21,321.36 572.56,325.12 601.40,326.95 639.08,326.56 673.74,323.62 699.52,318.70 722.59,312.47 741.69,305.17 755.73,297.67 763.96,293.51 768.24,294.14 772.64,297.29 780.76,302.07 795.55,306.55 817.34,308.22 844.90,306.42 874.04,301.60 893.89,294.94 902.47,287.29 906.16,279.28 907.64,270.38 910.35,264.95 915.20,264.44 923.15,264.21 937.09,262.86 958.03,258.43 978.91,249.41 992.83,236.01 997.78,218.36 992.61,196.32 978.86,174.20 958.75,155.73 935.40,141.54 913.70,133.63 894.78,129.93 885.54,125.75 886.72,120.83 889.59,114.64 891.16,105.75 886.28,95.29 871.58,84.30 846.44,73.84 810.40,63.67 772.81,55.54 742.25,51.81 718.73,51.77 700.42,53.76 688.22,55.16 681.11,53.90 674.54,51.29 666.20,48.27 652.26,43.80 631.99,38.41 605.73,33.06 575.40,28.94 548.23,28.02 527.13,30.51 510.16,34.62 497.62,38.69 485.69,42.24 474.86,42.34 463.97,38.00 449.55,32.98 433.24,29.28 415.17,27.86 396.28,29.20 377.36,33.06 362.16,37.37 352.26,39.86 344.26,39.18 338.63,36.72 333.57,34.18 324.61,30.27 309.93,24.47 286.55,16.25 259.07,9.98 226.83,8.01 189.63,9.70 161.90,14.65 146.37,19.77 134.39,25.36 121.76,32.63 111.08,40.59 105.19,46.77 103.30,49.32 102.84,49.71 102.29,49.97 101.70,50.09 101.10,50.07 100.52,49.91 100.00,49.61 99.56,49.19 99.24,48.68 99.04,48.11 98.99,47.51 99.09,46.92 99.32,46.36 Z" fill="#7045e0" stroke="#7045e0" stroke-width="1.75" stroke-linejoin="round" stroke-linecap="round" pointer-events="none"/></g></g><g id="cc5f1d35-d231-403d-054a-b744d60a228c_svg" class="tl-centered-g" transform="translate(173.66, 405.63) rotate(0.00, 10.34, 27.66)"><g opacity="1"><path d="M22.61,0.63 Q19.80,8.75 16.73,16.65 T11.50,30.05 5.31,45.68 1.17,56.02 0.89,56.35 0.51,56.58 0.08,56.68 -0.36,56.64 -0.76,56.45 -1.08,56.15 -1.29,55.76 -1.36,55.33 -1.30,54.89 -1.09,54.50 -0.77,54.20 -0.37,54.01 0.06,53.96 0.50,54.05 0.88,54.27 1.16,54.61 1.33,55.02 1.36,55.46 1.24,55.88 1.00,56.25 0.65,56.52 0.23,56.66 -0.21,56.67 -0.63,56.53 -0.98,56.26 -1.23,55.90 -1.36,55.48 -1.33,55.04 -1.29,54.82 2.62,44.65 8.56,28.94 13.43,15.53 17.42,3.51 18.67,-0.86 18.94,-1.29 19.29,-1.65 19.73,-1.92 20.21,-2.07 20.72,-2.10 21.21,-2.01 21.68,-1.80 22.07,-1.49 22.39,-1.09 22.60,-0.63 22.69,-0.13 22.66,0.38 Z" fill="#415fda" stroke="#415fda" stroke-width="1" stroke-linejoin="round" stroke-linecap="round" pointer-events="none"/></g></g><g id="11162aae-4999-44ba-055b-a056450e7786_svg" class="tl-centered-g" transform="translate(448.04, 449.68) rotate(0.00, 17.73, 21.77)"><g opacity="1"><path d="M1.87,-0.99 Q3.77,3.17 6.20,7.09 T12.27,15.87 26.19,31.67 36.59,42.77 36.77,43.18 36.82,43.61 36.73,44.05 36.50,44.42 36.16,44.71 35.75,44.87 35.31,44.90 34.89,44.78 34.52,44.53 34.25,44.18 34.11,43.76 34.11,43.32 34.25,42.90 34.52,42.55 34.89,42.30 35.31,42.18 35.75,42.21 36.16,42.37 36.50,42.66 36.73,43.04 36.82,43.47 36.77,43.91 36.59,44.31 36.29,44.63 35.90,44.83 35.46,44.90 35.02,44.83 34.63,44.63 34.46,44.49 24.00,33.53 9.70,17.68 3.19,8.85 -0.68,2.95 -1.96,0.75 -2.08,0.26 -2.09,-0.24 -1.97,-0.74 -1.73,-1.18 -1.40,-1.57 -0.99,-1.86 -0.51,-2.04 -0.01,-2.10 0.49,-2.04 0.97,-1.86 1.39,-1.58 1.72,-1.20 Z" fill="#415fda" stroke="#415fda" stroke-width="1" stroke-linejoin="round" stroke-linecap="round" pointer-events="none"/></g></g><g id="1e5f2749-b20e-4813-1278-2222291a76f9_svg" class="tl-centered-g" transform="translate(711.79, 455.28) rotate(0.00, 36.90, 20.59)"><g opacity="1"><path d="M1.37,-1.43 Q5.69,3.03 8.74,5.48 T15.55,10.57 26.55,17.15 54.06,30.56 74.50,40.15 74.79,40.43 74.98,40.79 75.05,41.19 74.98,41.59 74.79,41.95 74.49,42.23 74.12,42.40 73.72,42.44 73.32,42.36 72.97,42.14 72.71,41.83 72.56,41.46 72.54,41.05 72.65,40.66 72.88,40.32 73.20,40.08 73.59,39.95 74.00,39.95 74.38,40.08 74.70,40.33 74.93,40.67 75.04,41.06 75.02,41.46 74.86,41.84 74.60,42.15 74.25,42.36 73.85,42.44 73.45,42.40 73.25,42.34 52.89,32.90 25.11,19.52 13.78,13.01 6.58,7.98 0.95,3.49 -1.52,1.25 -1.78,0.85 -1.93,0.40 -1.97,-0.08 -1.89,-0.54 -1.71,-0.98 -1.42,-1.36 -1.05,-1.66 -0.63,-1.87 -0.16,-1.96 0.31,-1.94 0.77,-1.81 1.18,-1.58 Z" fill="#415fda" stroke="#415fda" stroke-width="1" stroke-linejoin="round" stroke-linecap="round" pointer-events="none"/></g></g><g id="69e645bd-1311-49fd-150c-6c08beb015a6_svg" class="tl-centered-g" transform="translate(1052.07, 441.60) rotate(0.00, 22.52, 4.29)"><g opacity="1"><path d="M-0.18,-0.62 Q4.81,-0.95 6.83,-0.97 T10.96,-0.76 15.65,-0.07 21.01,1.06 27.30,2.66 38.08,5.53 45.50,7.53 45.81,7.74 46.04,8.03 46.16,8.38 46.16,8.75 46.05,9.10 45.83,9.40 45.52,9.61 45.17,9.72 44.80,9.70 44.45,9.57 44.17,9.33 43.97,9.02 43.89,8.66 43.92,8.29 44.07,7.95 44.33,7.68 44.65,7.50 45.02,7.43 45.38,7.49 45.71,7.66 45.97,7.93 46.13,8.26 46.18,8.63 46.10,8.99 45.91,9.31 45.63,9.56 45.29,9.70 44.92,9.72 44.73,9.70 37.49,7.80 26.73,5.01 20.52,3.52 15.32,2.55 10.89,2.05 7.06,2.06 2.65,2.55 -0.03,2.89 -0.45,2.83 -0.84,2.68 -1.19,2.43 -1.46,2.11 -1.65,1.73 -1.74,1.32 -1.74,0.90 -1.63,0.49 -1.42,0.12 -1.14,-0.19 -0.79,-0.43 -0.39,-0.57 Z" fill="#415fda" stroke="#415fda" stroke-width="1" stroke-linejoin="round" stroke-linecap="round" pointer-events="none"/></g></g><g id="1d7dd582-e506-4986-3258-4ae6127b7855_svg" class="tl-centered-g" transform="translate(1138.36, 149.57) rotate(0.00, 16.93, 20.41)"><g opacity="1"><path d="M-0.97,41.13 Q-1.40,38.43 -0.95,36.59 T2.21,32.07 8.32,26.47 15.31,20.04 25.83,7.83 32.94,-1.01 33.31,-1.25 33.74,-1.36 34.18,-1.32 34.59,-1.15 34.92,-0.86 35.13,-0.48 35.22,-0.05 35.16,0.39 34.97,0.79 34.66,1.10 34.27,1.30 33.83,1.36 33.40,1.28 33.01,1.07 32.72,0.74 32.54,0.34 32.50,-0.10 32.61,-0.53 32.84,-0.90 33.18,-1.18 33.59,-1.34 34.03,-1.35 34.46,-1.22 34.82,-0.97 35.08,-0.61 35.21,-0.19 35.20,0.25 35.05,0.66 34.94,0.86 27.98,9.73 17.46,22.31 10.72,29.00 5.13,34.98 2.91,39.25 3.09,40.78 3.05,41.27 2.88,41.73 2.62,42.14 2.26,42.47 1.83,42.71 1.36,42.84 0.87,42.85 0.39,42.75 -0.05,42.53 -0.43,42.22 -0.72,41.82 -0.90,41.37 Z" fill="#415fda" stroke="#415fda" stroke-width="1" stroke-linejoin="round" stroke-linecap="round" pointer-events="none"/></g></g><g id="dea6eb44-eec8-4535-3328-f8b390ead0e0_svg" class="tl-centered-g" transform="translate(795.95, 60.56) rotate(0.00, 7.54, 22.85)"><g opacity="1"><path d="M12.34,45.68 Q12.40,42.34 12.58,40.36 T12.98,36.39 13.12,31.40 12.11,24.88 9.34,17.65 3.25,7.29 -1.09,0.47 -1.18,0.10 -1.15,-0.28 -1.00,-0.64 -0.75,-0.92 -0.41,-1.11 -0.04,-1.19 0.34,-1.14 0.69,-0.97 0.96,-0.70 1.13,-0.35 1.19,0.03 1.12,0.41 0.93,0.74 0.64,1.00 0.29,1.15 -0.09,1.18 -0.47,1.09 -0.79,0.89 -1.03,0.59 -1.17,0.23 -1.18,-0.16 -1.07,-0.52 -0.84,-0.84 -0.53,-1.06 -0.16,-1.18 0.22,-1.17 0.58,-1.04 0.88,-0.80 1.01,-0.65 5.37,6.08 11.72,16.75 14.76,24.47 16.01,31.45 16.11,36.59 16.01,40.46 15.99,44.05 15.95,45.94 15.84,46.36 15.64,46.74 15.34,47.07 14.98,47.31 14.57,47.46 14.14,47.51 13.71,47.45 13.30,47.29 12.95,47.04 12.66,46.71 12.46,46.32 12.36,45.90 Z" fill="#415fda" stroke="#415fda" stroke-width="1" stroke-linejoin="round" stroke-linecap="round" pointer-events="none"/></g></g><g id="279108ac-46f0-43ef-20ec-788b17448a94_svg" class="tl-centered-g" transform="translate(477.50, 16.00) rotate(0.00, 76.48, 24.34)"><g opacity="1"><path d="M152.62,50.41 Q145.42,48.79 142.15,47.68 T135.12,44.79 124.20,39.29 108.24,31.59 89.12,23.47 39.27,10.23 -0.43,1.06 -0.75,0.86 -0.99,0.58 -1.12,0.24 -1.14,-0.13 -1.03,-0.49 -0.82,-0.79 -0.53,-1.02 -0.17,-1.13 0.20,-1.13 0.55,-1.01 0.84,-0.78 1.04,-0.47 1.14,-0.11 1.11,0.26 0.97,0.60 0.73,0.88 0.41,1.07 0.05,1.14 -0.32,1.10 -0.65,0.94 -0.92,0.68 -1.09,0.35 -1.14,-0.01 -1.08,-0.38 -0.90,-0.70 -0.63,-0.95 -0.30,-1.10 0.07,-1.14 0.26,-1.13 39.97,8.00 90.06,21.25 109.32,29.34 125.35,36.92 136.13,42.19 142.91,44.75 149.67,46.32 153.51,47.02 153.89,47.20 154.22,47.46 154.47,47.80 154.64,48.18 154.71,48.60 154.68,49.02 154.54,49.42 154.32,49.78 154.02,50.07 153.65,50.29 153.25,50.41 152.83,50.42 Z" fill="#415fda" stroke="#415fda" stroke-width="1" stroke-linejoin="round" stroke-linecap="round" pointer-events="none"/></g></g><g id="5b98594a-d4dd-40a3-3161-b35635cf7f10_svg" class="tl-centered-g" transform="translate(91.74, 35.15) rotate(0.00, 81.83, 2.69)"><g opacity="1"><path d="M163.38,6.33 Q156.66,5.13 151.68,4.54 T137.33,3.35 112.55,2.40 78.72,2.67 30.18,4.94 -0.13,6.57 -0.50,6.47 -0.82,6.25 -1.05,5.95 -1.17,5.58 -1.17,5.20 -1.05,4.84 -0.82,4.53 -0.50,4.31 -0.13,4.21 0.25,4.23 0.61,4.37 0.90,4.62 1.10,4.95 1.19,5.32 1.14,5.71 0.98,6.05 0.72,6.33 0.38,6.51 0.00,6.58 -0.38,6.52 -0.72,6.34 -0.98,6.06 -1.14,5.71 -1.19,5.33 -1.10,4.95 -0.91,4.62 -0.61,4.37 -0.26,4.23 -0.07,4.19 30.07,2.49 78.70,0.12 112.66,-0.29 137.57,0.47 152.08,1.41 160.53,2.25 164.14,2.70 164.55,2.87 164.91,3.14 165.20,3.48 165.40,3.88 165.49,4.31 165.48,4.76 165.36,5.19 165.15,5.58 164.84,5.91 164.47,6.15 164.05,6.30 163.60,6.34 Z" fill="#415fda" stroke="#415fda" stroke-width="1" stroke-linejoin="round" stroke-linecap="round" pointer-events="none"/></g></g><g id="77fc69a1-79f5-4eea-0049-cf14e0ef8a6d_svg" class="tl-centered-g" transform="translate(16.00, 256.25) rotate(0.00, 10.89, 19.29)"><g opacity="1"><path d="M23.49,1.19 Q21.22,4.14 20.23,5.55 T18.12,8.53 14.20,14.97 6.33,29.54 1.11,39.41 0.79,39.72 0.38,39.91 -0.06,39.96 -0.50,39.87 -0.88,39.64 -1.18,39.30 -1.35,38.89 -1.37,38.44 -1.26,38.01 -1.01,37.64 -0.66,37.37 -0.24,37.22 0.21,37.22 0.64,37.35 0.99,37.62 1.25,37.99 1.37,38.42 1.35,38.87 1.19,39.28 0.90,39.62 0.52,39.86 0.09,39.96 -0.36,39.91 -0.77,39.73 -1.09,39.43 -1.30,39.03 -1.38,38.59 -1.31,38.15 -1.24,37.94 3.76,28.16 11.48,13.31 15.20,6.59 17.15,3.45 19.08,0.39 20.24,-1.38 20.61,-1.70 21.06,-1.93 21.54,-2.05 22.04,-2.05 22.52,-1.93 22.96,-1.69 23.33,-1.36 23.61,-0.95 23.79,-0.49 23.85,0.01 23.78,0.50 23.60,0.97 Z" fill="#415fda" stroke="#415fda" stroke-width="1" stroke-linejoin="round" stroke-linecap="round" pointer-events="none"/></g></g></svg>