<svg xmlns="http://www.w3.org/2000/svg" viewBox="0 0 1482.72 244.87" width="1450.72" height="212.87" fill="transparent"><defs><style>@import url('https://fonts.googleapis.com/css2?family=Caveat+Brush&amp;family=Source+Code+Pro&amp;family=Source+Sans+Pro&amp;family=Crimson+Pro&amp;display=block');</style></defs><g font-size="28" font-family="Caveat Brush" text-align="justify" fill="#1d1d1d" transform="translate(860.8699999999999, 106.38) rotate(0, 57, 19)"><text y="18.2">Small Sized</text></g><g font-size="52.46" font-family="Caveat Brush" text-align="justify" fill="#1d1d1d" transform="translate(1065.7199999999993, 106.86) rotate(0, 200.5, 31)"><text y="34.09">Small Sized (Scaled 2x)</text></g><g transform="translate(574.2399999999998, 15.99) rotate(0, 100.55, 100.55)"><g id="e5cbd912-57bf-448e-0e27-42d68e9e957d_svg" class="tl-centered-g"><defs><mask id="e5cbd912-57bf-448e-0e27-42d68e9e957d_clip"><rect x="-100" y="-100" width="401.10" height="401.10" fill="white"/><rect x="29.13" y="38.13" width="56" height="38" rx="4" ry="4" fill="black" opacity="1"/></mask></defs><g pointer-events="none" opacity="1" mask="url(#e5cbd912-57bf-448e-0e27-42d68e9e957d_clip)"><path d="M -0.37,218.93 Q -0.37,218.93 -0.93,216.20 -1.49,213.47 -1.75,210.02 -2.01,206.57 -2.17,201.82 -2.32,197.06 -2.19,191.06 -2.06,185.07 -1.44,177.96 -0.82,170.85 0.51,162.80 1.86,154.75 4.12,145.98 6.38,137.21 9.72,127.99 13.07,118.77 17.60,109.39 22.13,100.02 27.87,90.82 33.61,81.62 40.50,72.90 47.39,64.19 55.28,56.24 63.17,48.30 71.84,41.35 80.51,34.40 89.67,28.59 98.83,22.78 108.18,18.19 117.52,13.59 126.74,10.18 135.95,6.77 144.71,4.45 153.47,2.13 161.52,0.73 169.57,-0.65 176.69,-1.32 183.81,-2.00 189.81,-2.16 195.81,-2.33 200.59,-2.20 205.37,-2.07 208.83,-1.84 212.29,-1.60 215.09,-1.32 217.89,-1.03 218.24,-0.93 218.59,-0.84 218.89,-0.63 219.20,-0.43 219.42,-0.14 219.64,0.14 219.75,0.49 219.87,0.83 219.87,1.20 219.87,1.56 219.75,1.90 219.64,2.25 219.42,2.54 219.20,2.83 218.89,3.03 218.59,3.24 218.24,3.33 217.89,3.43 217.53,3.41 217.17,3.39 216.83,3.26 216.49,3.12 216.21,2.89 215.93,2.65 215.75,2.34 215.56,2.03 215.48,1.67 215.40,1.32 215.44,0.96 215.48,0.59 215.63,0.26 215.79,-0.06 216.04,-0.32 216.29,-0.59 216.61,-0.76 216.93,-0.93 217.29,-0.99 217.65,-1.04 218.01,-0.99 218.37,-0.93 218.69,-0.76 219.01,-0.59 219.26,-0.32 219.51,-0.06 219.66,0.26 219.82,0.59 219.86,0.96 219.90,1.32 219.82,1.67 219.74,2.03 219.55,2.34 219.36,2.65 219.09,2.89 218.81,3.12 218.47,3.26 218.13,3.39 217.77,3.41 217.41,3.43 217.41,3.43 217.41,3.43 214.69,3.16 211.98,2.88 208.61,2.65 205.24,2.41 200.59,2.28 195.94,2.15 190.08,2.31 184.22,2.48 177.28,3.12 170.34,3.77 162.48,5.13 154.62,6.48 146.06,8.74 137.50,11.00 128.50,14.32 119.51,17.64 110.37,22.11 101.24,26.59 92.28,32.25 83.32,37.91 74.84,44.69 66.36,51.47 58.64,59.23 50.92,66.98 44.17,75.50 37.42,84.01 31.80,93.00 26.18,101.99 21.74,111.15 17.30,120.30 14.02,129.32 10.73,138.34 8.51,146.92 6.29,155.50 4.98,163.37 3.66,171.24 3.04,178.20 2.42,185.16 2.29,191.04 2.16,196.91 2.32,201.57 2.47,206.24 2.72,209.62 2.97,213.00 3.00,215.78 3.03,218.56 3.03,218.77 3.02,218.98 2.97,219.18 2.92,219.38 2.82,219.56 2.72,219.74 2.58,219.89 2.44,220.04 2.27,220.16 2.10,220.27 1.91,220.34 1.71,220.41 1.51,220.44 1.30,220.46 1.10,220.43 0.89,220.40 0.70,220.33 0.51,220.25 0.34,220.13 0.17,220.01 0.04,219.85 -0.09,219.70 -0.18,219.51 -0.28,219.33 -0.32,219.13 Z" fill="#1d1d1d" stroke="#1d1d1d" stroke-width="0" stroke-dasharray="none" stroke-dashoffset="none" stroke-linecap="round" stroke-linejoin="round" pointer-events="none"/><g><path d="M 205.71,-7.950986235432131 L 218.75,1.33 204.19,7.976555693788628" fill="none" stroke="#1d1d1d" stroke-width="4.23" stroke-linecap="round" stroke-linejoin="round" pointer-events="none"/></g></g></g><g font-size="28" font-family="Caveat Brush" text-align="left" text-anchor="start" alignment-baseline="central" fill="#1d1d1d" transform-origin="top left" transform="translate(72.55421805118857, 81.55)"><text y="18.2">Hello</text></g></g><g transform="translate(16, 28.87) rotate(0, 100, 100)"><rect width="200" height="200" fill="#fddf8e" rx="3" ry="3"/><g font-size="28" font-family="Caveat Brush" text-align="center" text-anchor="middle" fill="#0d0d0d" transform="translate(16, 16)"><text y="18.2" x="84">asdfasdfasdfasdfasdfasdfasdfasdfasdfasdfs adsfasdf aaasdf asdfasdf asdfasdf</text></g></g></svg>