<svg xmlns="http://www.w3.org/2000/svg" viewBox="0 0 2205.08 883.50" width="2173.08" height="851.50" fill="transparent"><defs><style>@import url('https://fonts.googleapis.com/css2?family=Caveat+Brush&amp;family=Source+Code+Pro&amp;family=Source+Sans+Pro&amp;family=Crimson+Pro&amp;display=block');</style></defs><g font-size="28" font-family="Caveat Brush" text-align="justify" fill="#1d1d1d" transform="translate(860.8699999999999, 109.91) rotate(0, 57, 19)"><text y="18.2">Small Sized</text></g><g font-size="52.46" font-family="Caveat Brush" text-align="justify" fill="#1d1d1d" transform="translate(858.96, 143.04) rotate(0, 200.5, 31)"><text y="34.09">Small Sized (Scaled 2x)</text></g><g transform="translate(490.0699999999997, 15.99) rotate(0, 100.55, 100.55)"><g id="e5cbd912-57bf-448e-0e27-42d68e9e957d_svg" class="tl-centered-g"><defs><mask id="e5cbd912-57bf-448e-0e27-42d68e9e957d_clip"><rect x="-100" y="-100" width="401.10" height="401.10" fill="white"/><rect x="29.13" y="38.13" width="56" height="38" rx="4" ry="4" fill="black" opacity="1"/></mask></defs><g pointer-events="none" opacity="1" mask="url(#e5cbd912-57bf-448e-0e27-42d68e9e957d_clip)"><path d="M -0.37,218.93 Q -0.37,218.93 -0.93,216.20 -1.49,213.47 -1.75,210.02 -2.01,206.57 -2.17,201.82 -2.32,197.06 -2.19,191.06 -2.06,185.07 -1.44,177.96 -0.82,170.85 0.51,162.80 1.86,154.75 4.12,145.98 6.38,137.21 9.72,127.99 13.07,118.77 17.60,109.39 22.13,100.02 27.87,90.82 33.61,81.62 40.50,72.90 47.39,64.19 55.28,56.24 63.17,48.30 71.84,41.35 80.51,34.40 89.67,28.59 98.83,22.78 108.18,18.19 117.52,13.59 126.74,10.18 135.95,6.77 144.71,4.45 153.47,2.13 161.52,0.73 169.57,-0.65 176.69,-1.32 183.81,-2.00 189.81,-2.16 195.81,-2.33 200.59,-2.20 205.37,-2.07 208.83,-1.84 212.29,-1.60 215.09,-1.32 217.89,-1.03 218.24,-0.93 218.59,-0.84 218.89,-0.63 219.20,-0.43 219.42,-0.14 219.64,0.14 219.75,0.49 219.87,0.83 219.87,1.20 219.87,1.56 219.75,1.90 219.64,2.25 219.42,2.54 219.20,2.83 218.89,3.03 218.59,3.24 218.24,3.33 217.89,3.43 217.53,3.41 217.17,3.39 216.83,3.26 216.49,3.12 216.21,2.89 215.93,2.65 215.75,2.34 215.56,2.03 215.48,1.67 215.40,1.32 215.44,0.96 215.48,0.59 215.63,0.26 215.79,-0.06 216.04,-0.32 216.29,-0.59 216.61,-0.76 216.93,-0.93 217.29,-0.99 217.65,-1.04 218.01,-0.99 218.37,-0.93 218.69,-0.76 219.01,-0.59 219.26,-0.32 219.51,-0.06 219.66,0.26 219.82,0.59 219.86,0.96 219.90,1.32 219.82,1.67 219.74,2.03 219.55,2.34 219.36,2.65 219.09,2.89 218.81,3.12 218.47,3.26 218.13,3.39 217.77,3.41 217.41,3.43 217.41,3.43 217.41,3.43 214.69,3.16 211.98,2.88 208.61,2.65 205.24,2.41 200.59,2.28 195.94,2.15 190.08,2.31 184.22,2.48 177.28,3.12 170.34,3.77 162.48,5.13 154.62,6.48 146.06,8.74 137.50,11.00 128.50,14.32 119.51,17.64 110.37,22.11 101.24,26.59 92.28,32.25 83.32,37.91 74.84,44.69 66.36,51.47 58.64,59.23 50.92,66.98 44.17,75.50 37.42,84.01 31.80,93.00 26.18,101.99 21.74,111.15 17.30,120.30 14.02,129.32 10.73,138.34 8.51,146.92 6.29,155.50 4.98,163.37 3.66,171.24 3.04,178.20 2.42,185.16 2.29,191.04 2.16,196.91 2.32,201.57 2.47,206.24 2.72,209.62 2.97,213.00 3.00,215.78 3.03,218.56 3.03,218.77 3.02,218.98 2.97,219.18 2.92,219.38 2.82,219.56 2.72,219.74 2.58,219.89 2.44,220.04 2.27,220.16 2.10,220.27 1.91,220.34 1.71,220.41 1.51,220.44 1.30,220.46 1.10,220.43 0.89,220.40 0.70,220.33 0.51,220.25 0.34,220.13 0.17,220.01 0.04,219.85 -0.09,219.70 -0.18,219.51 -0.28,219.33 -0.32,219.13 Z" fill="#1d1d1d" stroke="#1d1d1d" stroke-width="0" stroke-dasharray="none" stroke-dashoffset="none" stroke-linecap="round" stroke-linejoin="round" pointer-events="none"/><g><path d="M 205.71,-7.950986235432131 L 218.75,1.33 204.19,7.976555693788628" fill="none" stroke="#1d1d1d" stroke-width="4.23" stroke-linecap="round" stroke-linejoin="round" pointer-events="none"/></g></g></g><g font-size="28" font-family="Caveat Brush" text-align="left" text-anchor="start" alignment-baseline="central" fill="#1d1d1d" transform-origin="top left" transform="translate(72.55421805118857, 81.55)"><text y="18.2">Hello</text></g></g><g transform="translate(16, 32.40) rotate(0, 100, 100)"><rect width="200" height="200" fill="#fddf8e" rx="3" ry="3"/><g font-size="28" font-family="Caveat Brush" text-align="center" text-anchor="middle" fill="#0d0d0d" transform="translate(16, 16)"><text y="18.2" x="84">asdfasdfasdfasdfasdfasdfasdfasdfasdfasdfs adsfasdf aaasdf asdfasdf asdfasdf</text></g></g><g font-size="48" font-family="Caveat Brush" text-align="justify" fill="#1d1d1d" transform="translate(857.3899999999994, 325.00) rotate(0, 112.5, 29)"><text y="31.20">Medium Sized</text></g><g font-size="89.93" font-family="Caveat Brush" text-align="justify" fill="#1d1d1d" transform="translate(853.6899999999996, 377.91) rotate(0, 375, 50)"><text y="58.45">Medium Sized (Scaled 2x)</text></g><g font-size="96" font-family="Caveat Brush" text-align="justify" fill="#1d1d1d" transform="translate(850.3800000000001, 585.54) rotate(0, 181.5, 53)"><text y="62.40">Large Sized</text></g><g font-size="179.86" font-family="Caveat Brush" text-align="justify" fill="#1d1d1d" transform="translate(843.0799999999999, 677.50) rotate(0, 673, 95)"><text y="116.91">Large Sized (Scaled 2x)</text></g><g transform="translate(490.96000000000004, 246.88) rotate(0, 108.71, 108.71)"><g id="5c6d564e-c010-4c75-26ab-3f2d7622ea1e_svg" class="tl-centered-g"><defs><mask id="5c6d564e-c010-4c75-26ab-3f2d7622ea1e_clip"><rect x="-100" y="-100" width="417.41" height="417.41" fill="white"/><rect x="80.71" y="89.71" width="56" height="38" rx="4" ry="4" fill="black" opacity="1"/></mask></defs><g pointer-events="none" opacity="1" mask="url(#5c6d564e-c010-4c75-26ab-3f2d7622ea1e_clip)"><path d="M -0.61,216.80 Q -0.61,216.80 26.41,189.83 53.44,162.86 80.47,135.88 107.49,108.90 134.50,81.92 161.52,54.93 188.53,27.94 215.55,0.95 215.63,0.89 215.72,0.83 215.81,0.80 215.91,0.77 216.02,0.77 216.12,0.78 216.22,0.81 216.32,0.85 216.40,0.91 216.48,0.98 216.54,1.07 216.59,1.16 216.62,1.26 216.64,1.36 216.63,1.46 216.62,1.56 216.58,1.66 216.54,1.76 216.47,1.83 216.40,1.91 216.31,1.96 216.22,2.01 216.12,2.03 216.02,2.05 215.92,2.04 215.81,2.02 215.72,1.98 215.63,1.93 215.55,1.86 215.48,1.78 215.43,1.69 215.39,1.60 215.37,1.49 215.36,1.39 215.38,1.29 215.40,1.19 215.45,1.10 215.50,1.01 215.58,0.94 215.65,0.87 215.75,0.83 215.85,0.78 215.95,0.78 216.05,0.77 216.15,0.79 216.26,0.82 216.34,0.87 216.43,0.93 216.50,1.01 216.56,1.09 216.60,1.19 216.63,1.29 216.64,1.39 216.64,1.50 216.61,1.60 216.58,1.70 216.52,1.78 216.46,1.86 216.46,1.86 216.46,1.86 189.47,28.88 162.48,55.89 135.49,82.91 108.51,109.92 81.53,136.94 54.55,163.97 27.58,191.00 0.61,218.03 0.52,218.09 0.44,218.15 0.35,218.20 0.25,218.24 0.15,218.26 0.05,218.28 -0.05,218.27 -0.15,218.27 -0.25,218.23 -0.35,218.20 -0.44,218.15 -0.53,218.10 -0.60,218.02 -0.68,217.95 -0.73,217.86 -0.78,217.77 -0.81,217.67 -0.85,217.57 -0.85,217.47 -0.86,217.36 -0.84,217.26 -0.82,217.16 -0.78,217.06 -0.73,216.97 -0.67,216.89 Z" fill="#1d1d1d" stroke="#1d1d1d" stroke-width="2.11" stroke-dasharray="none" stroke-dashoffset="none" stroke-linecap="round" stroke-linejoin="round" pointer-events="stroke"/><g><path d="M 201.96,4.141104721640331 L 217.42,0 213.27,15.454813220625095" fill="none" stroke="#1d1d1d" stroke-width="4.23" stroke-linecap="round" stroke-linejoin="round" pointer-events="none"/></g></g></g><g font-size="28" font-family="Caveat Brush" text-align="left" text-anchor="start" alignment-baseline="central" fill="#1d1d1d" transform-origin="top left" transform="translate(80.71, 89.71)"><text y="18.2">Hello</text></g></g><g transform="translate(502.5499999999993, 504.67) rotate(0, 103.74, 103.74)"><g id="72596c1d-8fe9-4a3a-3a00-41a773ada175_svg" class="tl-centered-g"><defs><mask id="72596c1d-8fe9-4a3a-3a00-41a773ada175_clip"><rect x="-100" y="-100" width="407.49" height="407.49" fill="white"/><rect x="128.96" y="137.96" width="56" height="38" rx="4" ry="4" fill="black" opacity="1"/></mask></defs><g pointer-events="none" opacity="1" mask="url(#72596c1d-8fe9-4a3a-3a00-41a773ada175_clip)"><path d="M -17.83,197.47 Q -17.83,197.47 -15.31,197.95 -12.79,198.43 -9.78,199.25 -6.77,200.07 -2.57,201.02 1.62,201.97 6.99,202.86 12.35,203.76 18.82,204.37 25.28,204.99 32.73,205.09 40.19,205.19 48.48,204.52 56.78,203.86 65.70,202.22 74.63,200.57 83.92,197.78 93.21,194.99 102.57,190.93 111.93,186.87 121.04,181.52 130.15,176.18 138.68,169.59 147.22,163.01 154.91,155.35 162.61,147.69 169.22,139.17 175.83,130.66 181.21,121.57 186.59,112.49 190.68,103.15 194.76,93.81 197.59,84.54 200.42,75.26 202.10,66.35 203.77,57.44 204.47,49.16 205.16,40.88 205.09,33.43 205.03,25.98 204.44,19.54 203.85,13.09 202.99,7.74 202.12,2.38 201.20,-1.80 200.27,-5.99 199.47,-8.99 198.67,-12.00 197.94,-14.39 197.22,-16.79 197.16,-17.15 197.11,-17.51 197.18,-17.87 197.25,-18.23 197.43,-18.54 197.60,-18.86 197.87,-19.11 198.14,-19.35 198.48,-19.49 198.81,-19.64 199.17,-19.67 199.54,-19.70 199.89,-19.62 200.24,-19.53 200.55,-19.33 200.86,-19.14 201.09,-18.86 201.32,-18.57 201.44,-18.23 201.57,-17.89 201.58,-17.53 201.59,-17.16 201.49,-16.82 201.38,-16.47 201.17,-16.17 200.96,-15.87 200.67,-15.66 200.37,-15.45 200.02,-15.34 199.68,-15.23 199.31,-15.24 198.95,-15.25 198.61,-15.37 198.26,-15.50 197.98,-15.72 197.69,-15.95 197.50,-16.26 197.30,-16.56 197.21,-16.91 197.12,-17.27 197.15,-17.63 197.18,-17.99 197.32,-18.33 197.46,-18.66 197.70,-18.94 197.95,-19.21 198.26,-19.39 198.58,-19.57 198.94,-19.64 199.29,-19.71 199.65,-19.66 200.02,-19.61 200.34,-19.45 200.67,-19.29 200.93,-19.04 201.19,-18.78 201.35,-18.45 201.51,-18.13 201.51,-18.13 201.51,-18.13 202.27,-15.64 203.02,-13.15 203.84,-10.06 204.66,-6.96 205.61,-2.64 206.57,1.67 207.45,7.17 208.34,12.68 208.93,19.31 209.52,25.95 209.59,33.60 209.65,41.25 208.92,49.76 208.20,58.27 206.46,67.42 204.73,76.57 201.81,86.09 198.89,95.62 194.67,105.20 190.46,114.78 184.92,124.10 179.38,133.41 172.58,142.15 165.78,150.88 157.88,158.73 149.97,166.58 141.20,173.32 132.42,180.05 123.07,185.53 113.72,191.00 104.11,195.15 94.50,199.30 84.97,202.15 75.44,205.00 66.29,206.67 57.13,208.35 48.63,209.02 40.12,209.68 32.49,209.57 24.85,209.46 18.23,208.83 11.62,208.19 6.12,207.28 0.63,206.36 -3.66,205.39 -7.96,204.42 -11.04,203.58 -14.12,202.74 -16.47,201.72 -18.82,200.70 -19.01,200.61 -19.19,200.53 -19.35,200.41 -19.51,200.28 -19.64,200.12 -19.77,199.96 -19.85,199.78 -19.93,199.59 -19.97,199.39 -20.01,199.19 -20.00,198.99 -19.98,198.79 -19.92,198.59 -19.86,198.40 -19.76,198.22 -19.66,198.05 -19.51,197.91 -19.37,197.76 -19.20,197.66 -19.02,197.55 -18.83,197.49 -18.63,197.43 -18.43,197.41 -18.23,197.40 -18.03,197.44 Z" fill="#1d1d1d" stroke="#1d1d1d" stroke-width="0" stroke-dasharray="none" stroke-dashoffset="none" stroke-linecap="round" stroke-linejoin="round" pointer-events="none"/><g><path d="M 195.31,-2.782754578564192 L 199.09,-18.33 210.66,-7.283401601283119" fill="none" stroke="#1d1d1d" stroke-width="4.23" stroke-linecap="round" stroke-linejoin="round" pointer-events="none"/></g></g></g><g font-size="28" font-family="Caveat Brush" text-align="left" text-anchor="start" alignment-baseline="central" fill="#1d1d1d" transform-origin="top left" transform="translate(75.74822514934189, 84.74)"><text y="18.2">Hello</text></g></g></svg>