<svg xmlns="http://www.w3.org/2000/svg" viewBox="562.86 555.38 328.28 197.25" width="296.28" height="165.25">
  <g id="aafc13d1-9c30-447f-1ea4-ca5fe00b2641_svg" class="tl-centered-g" transform="translate(578.86, 571.38) rotate(0, 128.12, 82.62)">
    <g opacity="1">
      <path d="M 0.03,48.54 Q 0.03,48.54 3.46,48.60 6.88,48.66 9.97,48.43 13.05,48.20 16.48,47.71 19.92,47.23 23.40,46.26 26.88,45.29 30.79,43.93 34.70,42.56 38.46,41.01 42.22,39.47 45.59,37.67 48.96,35.88 51.58,34.02 54.20,32.17 56.36,29.64 58.51,27.12 60.32,22.52 62.13,17.92 62.10,14.66 62.07,11.40 59.15,9.33 56.22,7.25 53.32,6.74 50.43,6.22 50.58,10.48 50.74,14.73 50.18,20.46 49.62,26.19 49.22,32.14 48.83,38.10 48.55,46.32 48.27,54.54 48.84,63.06 49.42,71.59 50.39,79.26 51.36,86.93 52.95,96.27 54.54,105.60 55.53,113.90 56.52,122.21 56.56,129.26 56.59,136.32 55.25,142.04 53.91,147.76 50.96,152.12 48.01,156.48 43.87,159.07 39.72,161.67 35.34,162.88 30.97,164.10 26.86,163.80 22.76,163.51 19.06,161.65 15.37,159.80 12.59,157.08 9.82,154.35 8.20,149.92 6.58,145.49 6.50,140.46 6.41,135.43 9.11,129.57 11.80,123.70 17.12,117.98 22.44,112.25 29.87,106.76 37.29,101.27 46.17,95.66 55.05,90.05 62.52,85.29 70.00,80.53 76.45,75.90 82.90,71.28 87.54,66.97 92.17,62.66 95.00,58.62 97.82,54.58 99.33,50.95 100.85,47.33 101.00,44.36 101.15,41.39 100.34,38.46 99.53,35.54 98.86,34.61 98.20,33.69 98.10,33.21 98.00,32.73 98.02,32.24 98.05,31.75 98.18,31.28 98.32,30.81 98.57,30.39 98.81,29.97 99.15,29.61 99.50,29.26 99.91,29.00 100.33,28.74 100.79,28.59 101.26,28.43 101.74,28.40 102.23,28.36 102.72,28.44 103.20,28.52 103.65,28.71 104.10,28.91 104.49,29.20 104.88,29.50 105.19,29.88 105.50,30.26 105.71,30.70 105.91,31.14 105.77,36.02 105.62,40.90 104.84,46.61 104.06,52.32 103.37,57.97 102.68,63.61 102.16,69.36 101.63,75.11 101.32,80.92 101.00,86.72 100.80,91.90 100.61,97.07 100.92,100.99 101.22,104.91 102.11,107.88 102.99,110.85 105.34,114.10 107.68,117.35 111.28,115.77 114.88,114.20 117.23,111.60 119.58,109.01 121.81,105.50 124.04,101.98 125.54,98.44 127.04,94.91 127.70,92.04 128.36,89.16 127.82,86.19 127.28,83.22 128.74,87.43 130.20,91.64 130.01,94.43 129.82,97.22 131.10,101.08 132.37,104.94 136.27,105.81 140.17,106.67 145.99,101.33 151.81,95.98 154.87,91.09 157.92,86.21 160.11,80.39 162.29,74.58 163.66,68.17 165.04,61.75 165.84,55.90 166.64,50.04 166.53,45.43 166.42,40.82 165.95,37.95 165.49,35.08 164.59,32.14 163.69,29.20 163.68,28.73 163.66,28.27 163.75,27.81 163.85,27.35 164.05,26.93 164.25,26.51 164.55,26.15 164.85,25.79 165.22,25.51 165.59,25.23 166.02,25.05 166.45,24.87 166.91,24.80 167.37,24.73 167.84,24.77 168.30,24.80 168.75,24.95 169.19,25.10 169.58,25.35 169.97,25.60 170.30,25.94 170.62,26.28 170.85,26.68 171.08,27.09 171.21,27.54 171.34,27.99 171.21,30.76 171.08,33.53 170.83,38.07 170.58,42.61 170.61,47.59 170.64,52.57 171.07,58.33 171.50,64.08 172.19,69.35 172.88,74.61 173.66,78.49 174.44,82.37 175.48,85.32 176.53,88.27 178.55,90.65 180.58,93.03 182.52,87.62 184.45,82.21 186.24,75.96 188.03,69.71 189.52,63.44 191.00,57.18 192.20,50.30 193.39,43.42 194.26,37.69 195.12,31.96 195.69,27.30 196.25,22.64 196.38,19.34 196.50,16.04 196.42,14.15 196.34,12.27 196.43,11.87 196.51,11.46 196.69,11.09 196.87,10.72 197.13,10.41 197.39,10.09 197.72,9.85 198.05,9.60 198.43,9.44 198.81,9.28 199.21,9.22 199.62,9.15 200.03,9.19 200.44,9.22 200.82,9.36 201.21,9.49 201.56,9.71 201.90,9.93 202.19,10.23 202.47,10.53 202.67,10.88 202.88,11.24 202.99,11.63 203.10,12.03 203.12,12.44 203.13,12.85 203.08,18.56 203.02,24.27 202.65,29.59 202.28,34.91 202.05,41.08 201.82,47.24 201.67,53.31 201.52,59.38 201.43,65.02 201.33,70.65 201.66,74.66 201.98,78.66 202.79,81.54 203.60,84.42 206.19,85.81 208.78,87.19 213.28,83.44 217.79,79.69 220.65,76.23 223.52,72.76 225.67,69.49 227.81,66.21 229.17,63.20 230.52,60.18 231.27,56.69 232.02,53.19 233.23,56.26 234.45,59.34 233.63,64.76 232.80,70.19 233.87,74.16 234.93,78.14 238.46,78.61 242.00,79.08 244.77,75.63 247.54,72.19 248.50,69.14 249.46,66.09 249.75,62.85 250.04,59.60 247.98,55.76 245.91,51.92 242.26,51.04 238.60,50.16 235.96,51.31 233.32,52.45 230.40,54.64 227.49,56.83 226.90,57.20 226.30,57.56 225.62,57.71 224.95,57.87 224.25,57.80 223.56,57.72 222.93,57.44 222.30,57.15 221.79,56.67 221.28,56.20 220.95,55.59 220.62,54.97 220.50,54.29 220.39,53.60 220.49,52.92 220.60,52.23 220.92,51.61 221.25,51.00 221.75,50.51 222.25,50.03 222.88,49.74 223.51,49.44 224.20,49.36 224.89,49.28 225.57,49.43 226.25,49.57 226.85,49.93 227.45,50.28 227.90,50.81 228.35,51.33 228.62,51.98 228.88,52.62 228.92,53.32 228.96,54.01 228.78,54.68 228.60,55.35 228.21,55.93 227.82,56.51 227.27,56.94 226.72,57.36 226.07,57.59 225.41,57.81 224.71,57.82 224.02,57.82 223.36,57.60 222.70,57.39 222.14,56.97 221.58,56.55 221.19,55.98 220.80,55.40 220.60,54.74 220.41,54.07 220.45,53.37 220.48,52.68 220.73,52.03 220.99,51.38 221.43,50.85 221.88,50.32 221.88,50.32 221.88,50.32 225.54,46.85 229.20,43.38 231.80,42.44 234.39,41.49 237.40,41.32 240.41,41.14 243.61,41.99 246.82,42.83 249.70,44.68 252.57,46.53 254.51,49.47 256.44,52.41 257.35,56.20 258.25,59.99 258.07,64.19 257.89,68.39 256.77,72.82 255.66,77.25 253.29,80.91 250.92,84.57 247.50,86.82 244.08,89.07 240.26,89.38 236.43,89.69 233.26,88.25 230.09,86.80 228.08,84.44 226.08,82.08 225.01,79.08 223.94,76.09 223.66,72.67 223.37,69.24 223.67,65.79 223.98,62.35 224.75,58.58 225.52,54.81 228.40,51.45 231.29,48.08 235.59,51.32 239.89,54.56 238.21,58.80 236.54,63.04 234.90,66.32 233.25,69.60 231.09,73.24 228.92,76.88 225.94,81.07 222.95,85.26 219.72,88.50 216.50,91.75 213.00,93.55 209.51,95.36 206.58,94.92 203.65,94.49 200.74,90.10 197.82,85.71 197.32,82.40 196.81,79.09 196.46,74.86 196.10,70.62 196.08,64.97 196.06,59.32 196.05,53.22 196.04,47.13 196.05,40.89 196.07,34.66 196.14,29.29 196.22,23.92 196.28,18.09 196.34,12.27 196.43,11.87 196.51,11.46 196.69,11.09 196.87,10.72 197.13,10.41 197.39,10.09 197.72,9.85 198.05,9.60 198.43,9.44 198.81,9.28 199.21,9.22 199.62,9.15 200.03,9.19 200.43,9.22 200.82,9.36 201.21,9.49 201.56,9.71 201.90,9.93 202.19,10.23 202.47,10.52 202.67,10.88 202.88,11.24 202.99,11.63 203.10,12.03 203.12,12.44 203.13,12.85 202.74,14.69 202.35,16.54 201.90,19.87 201.46,23.20 201.00,27.95 200.54,32.70 199.82,38.51 199.11,44.33 198.10,51.40 197.09,58.48 195.87,64.94 194.64,71.40 193.06,78.28 191.49,85.16 189.85,89.51 188.21,93.87 185.42,96.75 182.62,99.64 177.75,97.47 172.88,95.30 171.77,92.67 170.65,90.04 169.84,86.75 169.02,83.46 168.21,79.44 167.40,75.42 166.52,70.03 165.64,64.64 164.97,58.72 164.29,52.80 163.95,47.68 163.60,42.55 163.65,35.88 163.69,29.20 163.68,28.73 163.66,28.27 163.75,27.81 163.85,27.35 164.05,26.93 164.25,26.51 164.55,26.15 164.84,25.79 165.22,25.51 165.59,25.23 166.02,25.05 166.45,24.87 166.91,24.80 167.37,24.73 167.84,24.77 168.30,24.80 168.75,24.95 169.19,25.10 169.58,25.35 169.97,25.60 170.30,25.94 170.62,26.28 170.85,26.68 171.08,27.09 171.21,27.54 171.34,27.99 171.49,31.25 171.64,34.52 171.72,37.57 171.79,40.62 172.03,45.67 172.27,50.71 171.63,56.81 170.98,62.92 169.75,69.83 168.52,76.74 166.40,83.29 164.28,89.84 161.22,95.57 158.16,101.31 153.92,106.66 149.67,112.01 145.79,114.35 141.91,116.69 137.45,117.02 132.98,117.35 130.04,115.70 127.10,114.05 125.09,111.57 123.07,109.09 122.06,106.42 121.04,103.76 120.39,100.26 119.74,96.76 119.87,93.65 120.00,90.53 120.38,87.48 120.76,84.44 123.84,80.43 126.93,76.42 129.74,76.82 132.55,77.22 134.21,81.23 135.87,85.24 135.53,88.12 135.19,91.00 134.19,94.16 133.20,97.32 131.71,101.41 130.22,105.49 127.98,109.80 125.75,114.11 122.94,117.72 120.12,121.33 116.65,123.51 113.17,125.69 109.87,125.57 106.57,125.46 104.28,123.91 101.99,122.36 100.39,120.04 98.78,117.71 97.95,114.99 97.13,112.27 96.47,108.81 95.81,105.36 95.47,101.15 95.13,96.95 95.17,91.73 95.20,86.52 95.30,80.61 95.40,74.71 95.63,68.87 95.86,63.03 96.14,57.34 96.43,51.64 96.66,45.96 96.89,40.28 97.54,36.99 98.20,33.69 98.10,33.21 98.00,32.73 98.02,32.24 98.05,31.75 98.18,31.28 98.32,30.81 98.57,30.39 98.81,29.97 99.15,29.61 99.49,29.26 99.91,29.00 100.32,28.74 100.79,28.59 101.26,28.43 101.74,28.40 102.23,28.36 102.72,28.44 103.20,28.52 103.65,28.71 104.10,28.90 104.49,29.20 104.88,29.50 105.19,29.88 105.50,30.26 105.71,30.70 105.91,31.14 106.26,32.41 106.61,33.67 106.62,37.88 106.62,42.10 105.92,45.62 105.22,49.15 103.44,53.20 101.66,57.26 98.53,61.68 95.39,66.10 90.54,70.62 85.68,75.14 79.13,79.85 72.58,84.57 65.12,89.37 57.66,94.17 48.95,99.71 40.25,105.26 33.21,110.50 26.17,115.74 21.35,120.88 16.54,126.03 14.22,130.80 11.89,135.57 12.02,139.59 12.15,143.61 13.29,146.97 14.44,150.32 16.33,152.60 18.22,154.87 20.88,156.57 23.54,158.28 26.70,158.86 29.85,159.44 33.57,158.49 37.29,157.54 40.71,155.56 44.13,153.59 46.62,150.05 49.12,146.51 50.30,141.42 51.48,136.33 51.37,129.60 51.26,122.87 50.16,114.73 49.07,106.58 47.29,97.17 45.51,87.77 44.28,79.95 43.05,72.13 42.14,63.31 41.22,54.49 41.06,46.22 40.90,37.96 40.71,31.93 40.52,25.90 40.34,19.80 40.16,13.70 40.38,9.68 40.60,5.66 41.91,2.34 43.22,-0.96 45.72,-2.59 48.22,-4.21 52.67,-3.78 57.11,-3.34 61.43,-0.91 65.75,1.52 68.33,6.04 70.91,10.56 70.17,15.49 69.42,20.43 68.24,23.33 67.05,26.24 65.25,28.85 63.45,31.46 60.66,34.53 57.87,37.60 54.88,39.45 51.89,41.30 48.32,43.26 44.75,45.21 40.97,46.99 37.19,48.77 33.13,50.60 29.07,52.42 25.13,53.73 21.19,55.04 17.41,55.73 13.63,56.41 10.22,56.63 6.81,56.85 3.38,56.85 -0.03,56.85 -0.53,56.79 -1.03,56.72 -1.49,56.54 -1.96,56.36 -2.37,56.07 -2.78,55.78 -3.11,55.40 -3.44,55.03 -3.67,54.58 -3.90,54.13 -4.01,53.65 -4.13,53.16 -4.12,52.66 -4.12,52.16 -4.00,51.67 -3.87,51.18 -3.63,50.74 -3.40,50.30 -3.06,49.93 -2.72,49.56 -2.31,49.27 -1.89,48.99 -1.42,48.82 -0.95,48.65 -0.45,48.59 Z" fill="#1d1d1d" stroke="#1d1d1d" stroke-width="2.5" stroke-linejoin="round" stroke-linecap="round" pointer-events="all" />
    </g>
  </g>
  <g id="d10e7eaa-d2eb-493c-3db3-590d10b77717_svg" class="tl-centered-g" transform="translate(864.45, 572.09) rotate(0, 5.34, 35.30)">
    <g opacity="1">
      <path d="M 14.74,1.29 Q 14.74,1.29 13.65,4.79 12.56,8.30 11.71,11.46 10.87,14.61 9.12,22.97 7.37,31.32 6.35,37.75 5.34,44.19 4.74,48.99 4.14,53.79 3.47,62.29 2.79,70.80 2.69,71.24 2.58,71.68 2.34,72.07 2.11,72.45 1.76,72.74 1.41,73.03 0.98,73.19 0.56,73.35 0.10,73.37 -0.34,73.39 -0.77,73.26 -1.21,73.13 -1.58,72.87 -1.95,72.61 -2.22,72.25 -2.49,71.88 -2.63,71.45 -2.77,71.02 -2.76,70.56 -2.75,70.11 -2.60,69.68 -2.45,69.26 -2.17,68.90 -1.89,68.54 -1.51,68.29 -1.13,68.04 -0.70,67.93 -0.26,67.81 0.18,67.85 0.64,67.88 1.06,68.05 1.48,68.22 1.82,68.52 2.16,68.82 2.39,69.21 2.61,69.61 2.70,70.05 2.80,70.49 2.74,70.94 2.68,71.39 2.49,71.80 2.29,72.21 1.98,72.54 1.66,72.86 1.25,73.07 0.85,73.27 0.40,73.34 -0.04,73.41 -0.48,73.33 -0.93,73.25 -1.33,73.03 -1.72,72.81 -2.03,72.48 -2.34,72.14 -2.52,71.73 -2.71,71.32 -2.75,70.86 -2.79,70.41 -2.79,70.41 -2.79,70.41 -2.29,61.81 -1.79,53.21 -1.44,48.27 -1.08,43.34 -0.38,36.69 0.32,30.03 1.68,21.27 3.05,12.50 3.93,9.30 4.80,6.11 5.72,2.55 6.63,-1.01 6.83,-1.47 7.02,-1.94 7.32,-2.35 7.63,-2.76 8.02,-3.08 8.41,-3.41 8.87,-3.63 9.33,-3.85 9.82,-3.95 10.32,-4.06 10.83,-4.04 11.34,-4.02 11.83,-3.88 12.32,-3.74 12.76,-3.49 13.20,-3.24 13.57,-2.89 13.94,-2.54 14.21,-2.11 14.48,-1.68 14.65,-1.20 14.81,-0.72 14.86,-0.21 14.90,0.28 14.82,0.78 Z" fill="#1d1d1d" stroke="#1d1d1d" stroke-width="2.5" stroke-linejoin="round" stroke-linecap="round" pointer-events="all" />
    </g>
  </g>
  <g id="3660b044-347d-43a8-1a60-6c6b19d8bd4c_svg" class="tl-centered-g" transform="translate(862.42, 669.89) rotate(0, 0.5, 0.5)">
    <circle r="6" fill="#1d1d1d" stroke="#1d1d1d" pointer-events="all" opacity="1" />
  </g>
  <g id="caffc3c5-69e2-4a9c-2440-ca3ed0d3e2ce_svg" class="tl-centered-g" transform="translate(767.5, 701.17) rotate(0, 0.5, 0.5)">
    <circle r="3" fill="#1d1d1d" stroke="#1d1d1d" pointer-events="all" opacity="1" />
  </g>
  <g id="c992ffc2-597d-4326-1805-67217d4f8d36_svg" class="tl-centered-g" transform="translate(798.94, 693.08) rotate(0, 0.5, 0.5)">
    <circle r="3" fill="#1d1d1d" stroke="#1d1d1d" pointer-events="all" opacity="1" />
  </g>
  <g id="19f208f7-96c1-4a2e-2baf-e307c733f84c_svg" class="tl-centered-g" transform="translate(771.12, 698) rotate(0, 17.62, 8.73)">
    <g opacity="1">
      <path d="M 1.20,12.69 Q 1.20,12.69 2.11,13.29 3.03,13.89 4.68,14.26 6.32,14.63 8.94,14.84 11.55,15.05 13.31,15.12 15.07,15.20 16.83,14.79 18.60,14.39 20.45,13.46 22.31,12.54 23.87,11.45 25.42,10.35 26.90,8.77 28.38,7.19 29.46,5.82 30.54,4.46 32.20,1.72 33.85,-1.01 34.04,-1.20 34.24,-1.40 34.49,-1.52 34.74,-1.64 35.02,-1.68 35.29,-1.71 35.57,-1.66 35.84,-1.60 36.08,-1.47 36.32,-1.33 36.51,-1.12 36.69,-0.91 36.80,-0.65 36.91,-0.40 36.93,-0.12 36.95,0.15 36.88,0.42 36.81,0.69 36.66,0.92 36.51,1.15 36.29,1.33 36.07,1.50 35.81,1.59 35.55,1.69 35.27,1.69 34.99,1.70 34.72,1.61 34.46,1.53 34.23,1.37 34.01,1.20 33.85,0.97 33.69,0.75 33.61,0.48 33.53,0.21 33.54,-0.05 33.55,-0.33 33.65,-0.59 33.74,-0.85 33.92,-1.07 34.10,-1.28 34.33,-1.43 34.57,-1.58 34.84,-1.65 35.11,-1.71 35.39,-1.69 35.66,-1.66 35.92,-1.55 36.17,-1.44 36.38,-1.25 36.58,-1.06 36.72,-0.82 36.85,-0.58 36.90,-0.30 36.95,-0.03 36.91,0.24 36.88,0.51 36.75,0.76 36.62,1.01 36.62,1.01 36.62,1.01 35.50,2.60 34.38,4.20 33.55,5.21 32.72,6.21 31.56,7.62 30.40,9.02 28.80,10.85 27.19,12.68 25.52,14.02 23.84,15.36 21.72,16.59 19.60,17.83 17.38,18.56 15.16,19.28 13.26,19.41 11.36,19.53 9.69,19.51 8.01,19.49 6.70,19.33 5.40,19.18 2.96,18.29 0.52,17.41 -0.33,16.72 -1.20,16.04 -1.38,15.87 -1.56,15.70 -1.70,15.49 -1.84,15.28 -1.92,15.05 -2.00,14.82 -2.03,14.57 -2.05,14.32 -2.02,14.08 -1.98,13.83 -1.89,13.60 -1.80,13.37 -1.65,13.17 -1.51,12.97 -1.32,12.81 -1.13,12.65 -0.91,12.54 -0.69,12.42 -0.44,12.37 -0.20,12.32 0.04,12.32 0.29,12.33 0.53,12.39 0.77,12.45 0.98,12.57 Z" fill="#1d1d1d" stroke="#1d1d1d" stroke-width="1" stroke-linejoin="round" stroke-linecap="round" pointer-events="all" />
    </g>
  </g>
<!-- svg-source:tldraw -->
<!-- payload-type:application/vnd.tldraw+json --><!-- payload-version:2 --><!-- payload-start -->

{
  "document": {
    "id": "doc",
    "name": "New Document",
    "version": 13,
    "pages": {
      "page": {
        "id": "page",
        "name": "Page 1",
        "childIndex": 1,
        "shapes": {
          "aafc13d1-9c30-447f-1ea4-ca5fe00b2641": {
            "id": "aafc13d1-9c30-447f-1ea4-ca5fe00b2641",
            "type": "draw",
            "name": "Draw",
            "parentId": "page",
            "childIndex": 1,
            "point": [
              578.86,
              571.38
            ],
            "rotation": 0,
            "style": {
              "color": "indigo",
              "size": "large",
              "isFilled": false,
              "dash": "draw",
              "scale": 1
            },
            "points": [
              [
                0,
                52.7,
                0.5
              ],
              [
                0.13,
                52.84,
                0.5
              ],
              [
                3.52,
                52.84,
                0.5
              ],
              [
                7.92,
                52.84,
                0.5
              ],
              [
                15.31,
                52.84,
                0.5
              ],
              [
                21.36,
                51.75,
                0.5
              ],
              [
                29.47,
                49.7,
                0.5
              ],
              [
                37.15,
                46.05,
                0.5
              ],
              [
                45.79,
                41.73,
                0.5
              ],
              [
                52.8,
                38.24,
                0.5
              ],
              [
                58.99,
                33.97,
                0.5
              ],
              [
                62.97,
                30.31,
                0.5
              ],
              [
                67.09,
                22.39,
                0.5
              ],
              [
                67.69,
                18.33,
                0.5
              ],
              [
                68,
                12.74,
                0.5
              ],
              [
                68,
                10.09,
                0.5
              ],
              [
                66.16,
                5.89,
                0.5
              ],
              [
                62.82,
                3.46,
                0.5
              ],
              [
                59.09,
                1.82,
                0.5
              ],
              [
                54.8,
                0.32,
                0.5
              ],
              [
                50.88,
                0,
                0.5
              ],
              [
                48.22,
                1.4210854715202004e-14,
                0.5
              ],
              [
                45.85,
                1.15000000000002,
                0.5
              ],
              [
                44.96,
                5.100000000000016,
                0.5
              ],
              [
                44.61,
                12.610000000000014,
                0.5
              ],
              [
                44.61,
                22.87000000000002,
                0.5
              ],
              [
                44.61,
                40.65000000000002,
                0.5
              ],
              [
                44.61,
                52.83000000000002,
                0.5
              ],
              [
                44.61,
                74.87000000000002,
                0.5
              ],
              [
                48.07,
                93.28000000000002,
                0.5
              ],
              [
                51.16,
                106.48000000000002,
                0.5
              ],
              [
                55.96,
                129.24,
                0.5
              ],
              [
                56.48,
                142.85000000000002,
                0.5
              ],
              [
                54.22,
                153.35000000000002,
                0.5
              ],
              [
                48.41,
                160.48000000000002,
                0.5
              ],
              [
                39.35,
                164.79000000000002,
                0.5
              ],
              [
                29.17,
                165.25,
                0.5
              ],
              [
                20.42,
                164.45000000000002,
                0.5
              ],
              [
                14.19,
                159.81,
                0.5
              ],
              [
                8.95,
                152.96000000000004,
                0.5
              ],
              [
                6.37,
                146.16000000000003,
                0.5
              ],
              [
                5.96,
                134.95000000000002,
                0.5
              ],
              [
                8.89,
                124.33000000000001,
                0.5
              ],
              [
                20.38,
                111.74000000000001,
                0.5
              ],
              [
                36.82,
                100.57000000000002,
                0.5
              ],
              [
                56.64,
                90.02000000000001,
                0.5
              ],
              [
                78.06,
                78.35000000000002,
                0.5
              ],
              [
                89.74,
                70.75000000000001,
                0.5
              ],
              [
                100.34,
                61.68000000000002,
                0.5
              ],
              [
                105.51,
                53.48000000000002,
                0.5
              ],
              [
                107.1,
                45.490000000000016,
                0.5
              ],
              [
                107.1,
                38.750000000000014,
                0.5
              ],
              [
                104.94,
                33.73000000000002,
                0.5
              ],
              [
                103.78,
                32.29000000000002,
                0.5
              ],
              [
                102.13,
                31.020000000000017,
                0.5
              ],
              [
                101.84,
                30.87000000000002,
                0.5
              ],
              [
                101.49,
                31.790000000000017,
                0.5
              ],
              [
                101.17,
                38.04000000000002,
                0.5
              ],
              [
                100.76,
                47.58000000000002,
                0.5
              ],
              [
                99,
                66.05000000000001,
                0.5
              ],
              [
                98.08,
                77.33000000000001,
                0.5
              ],
              [
                97.59,
                89.22000000000003,
                0.5
              ],
              [
                97.59,
                101.08000000000001,
                0.5
              ],
              [
                97.59,
                109.85000000000002,
                0.5
              ],
              [
                99.32,
                115.17000000000002,
                0.5
              ],
              [
                101.97,
                119.49000000000002,
                0.5
              ],
              [
                104.27,
                122.43000000000002,
                0.5
              ],
              [
                108.42,
                124.10000000000002,
                0.5
              ],
              [
                112.36,
                124.10000000000002,
                0.5
              ],
              [
                117.77,
                120.96000000000002,
                0.5
              ],
              [
                123.7,
                113.29000000000002,
                0.5
              ],
              [
                129.05,
                103.90000000000002,
                0.5
              ],
              [
                132.64,
                94.09000000000002,
                0.5
              ],
              [
                133.82,
                86.70000000000002,
                0.5
              ],
              [
                133.82,
                82.64000000000001,
                0.5
              ],
              [
                132.32,
                78.95000000000002,
                0.5
              ],
              [
                130.46,
                78.48000000000002,
                0.5
              ],
              [
                128.62,
                78.48000000000002,
                0.5
              ],
              [
                126.02,
                80.21000000000002,
                0.5
              ],
              [
                124.75,
                84.70000000000002,
                0.5
              ],
              [
                124.4,
                90.23000000000002,
                0.5
              ],
              [
                124.4,
                97.56000000000002,
                0.5
              ],
              [
                124.4,
                104.29000000000002,
                0.5
              ],
              [
                127.34,
                109.91000000000003,
                0.5
              ],
              [
                129.95,
                112.26000000000002,
                0.5
              ],
              [
                134.75,
                114.79000000000002,
                0.5
              ],
              [
                139.73,
                115.11000000000001,
                0.5
              ],
              [
                148.71,
                110.61000000000001,
                0.5
              ],
              [
                154.63,
                103.39000000000001,
                0.5
              ],
              [
                164.71,
                87.14000000000001,
                0.5
              ],
              [
                168.65,
                74.91000000000003,
                0.5
              ],
              [
                170.72,
                60.40000000000002,
                0.5
              ],
              [
                171.24,
                45.890000000000015,
                0.5
              ],
              [
                171.24,
                35.62000000000002,
                0.5
              ],
              [
                168.68,
                28.80000000000002,
                0.5
              ],
              [
                167.9,
                27.500000000000018,
                0.5
              ],
              [
                167.15,
                25.87000000000002,
                0.5
              ],
              [
                167.01,
                25.87000000000002,
                0.5
              ],
              [
                167.01,
                28.71000000000002,
                0.5
              ],
              [
                167.01,
                39.33000000000002,
                0.5
              ],
              [
                167.01,
                53.890000000000015,
                0.5
              ],
              [
                167.93,
                65.17000000000002,
                0.5
              ],
              [
                169.94,
                78.78000000000002,
                0.5
              ],
              [
                172.08,
                88.18,
                0.5
              ],
              [
                173.7,
                92.67000000000002,
                0.5
              ],
              [
                175.89,
                96.87000000000002,
                0.5
              ],
              [
                178.82,
                99.18,
                0.5
              ],
              [
                181.84,
                99.18,
                0.5
              ],
              [
                184.49,
                96.29000000000002,
                0.5
              ],
              [
                189.09,
                85.41000000000003,
                0.5
              ],
              [
                191.96,
                74.21000000000002,
                0.5
              ],
              [
                195.5,
                54.350000000000016,
                0.5
              ],
              [
                197.4,
                42.12000000000002,
                0.5
              ],
              [
                198.98,
                26.650000000000016,
                0.5
              ],
              [
                199.78,
                18.08000000000002,
                0.5
              ],
              [
                200.13,
                11.310000000000016,
                0.5
              ],
              [
                200.13,
                8.100000000000016,
                0.5
              ],
              [
                200.13,
                7.960000000000015,
                0.5
              ],
              [
                200.13,
                13.40000000000002,
                0.5
              ],
              [
                200.13,
                20.880000000000017,
                0.5
              ],
              [
                199.15,
                33.490000000000016,
                0.5
              ],
              [
                198.63,
                47.990000000000016,
                0.5
              ],
              [
                198.63,
                62.500000000000014,
                0.5
              ],
              [
                198.63,
                74.38000000000002,
                0.5
              ],
              [
                198.63,
                84.57000000000002,
                0.5
              ],
              [
                200.24,
                89.06000000000002,
                0.5
              ],
              [
                202.34,
                92.71000000000001,
                0.5
              ],
              [
                205.37,
                94.09000000000002,
                0.5
              ],
              [
                208.82,
                94.09000000000002,
                0.5
              ],
              [
                213.66,
                91.21000000000001,
                0.5
              ],
              [
                220.56,
                84.25000000000001,
                0.5
              ],
              [
                227.93,
                75.50000000000001,
                0.5
              ],
              [
                233.45,
                65.37000000000002,
                0.5
              ],
              [
                235.86,
                59.38000000000002,
                0.5
              ],
              [
                237.24,
                53.84000000000002,
                0.5
              ],
              [
                237.24,
                51.19000000000002,
                0.5
              ],
              [
                236.9,
                50.09000000000002,
                0.5
              ],
              [
                234.67,
                49.570000000000014,
                0.5
              ],
              [
                232.08,
                50.09000000000002,
                0.5
              ],
              [
                228.75,
                57.54000000000002,
                0.5
              ],
              [
                228,
                60.890000000000015,
                0.5
              ],
              [
                227.26,
                70.96000000000002,
                0.5
              ],
              [
                227.26,
                77.66000000000003,
                0.5
              ],
              [
                229.33,
                82.84000000000002,
                0.5
              ],
              [
                232.81,
                85.69000000000003,
                0.5
              ],
              [
                237.24,
                86.96000000000001,
                0.5
              ],
              [
                243.37,
                86.96000000000001,
                0.5
              ],
              [
                249.36,
                83.10000000000002,
                0.5
              ],
              [
                253.78,
                76.25000000000001,
                0.5
              ],
              [
                256.24,
                67.50000000000001,
                0.5
              ],
              [
                256.24,
                58.01000000000002,
                0.5
              ],
              [
                254.74,
                50.610000000000014,
                0.5
              ],
              [
                250.43,
                45.920000000000016,
                0.5
              ],
              [
                245.25,
                43.850000000000016,
                0.5
              ],
              [
                239.18,
                43.850000000000016,
                0.5
              ],
              [
                233.05,
                44.22000000000001,
                0.5
              ],
              [
                229.61,
                46.97000000000001,
                0.5
              ],
              [
                226.55,
                49.990000000000016,
                0.5
              ],
              [
                224.69,
                53.58000000000002,
                0.5
              ]
            ],
            "isComplete": true
          },
          "d10e7eaa-d2eb-493c-3db3-590d10b77717": {
            "id": "d10e7eaa-d2eb-493c-3db3-590d10b77717",
            "type": "draw",
            "name": "Draw",
            "parentId": "page",
            "childIndex": 2,
            "point": [
              864.45,
              572.09
            ],
            "rotation": 0,
            "style": {
              "color": "indigo",
              "size": "large",
              "isFilled": false,
              "dash": "draw",
              "scale": 1
            },
            "points": [
              [
                10.69,
                0.14,
                0.5
              ],
              [
                10.69,
                0,
                0.5
              ],
              [
                10.69,
                0.65,
                0.5
              ],
              [
                8.88,
                9,
                0.5
              ],
              [
                6.21,
                15.94,
                0.5
              ],
              [
                4.84,
                21.4,
                0.5
              ],
              [
                0,
                51.82,
                0.5
              ],
              [
                5.5067062021407764e-14,
                59.930000000000014,
                0.5
              ],
              [
                5.5067062021407764e-14,
                65.52000000000001,
                0.5
              ],
              [
                5.5067062021407764e-14,
                70.61000000000001,
                0.5
              ]
            ],
            "isComplete": true
          },
          "3660b044-347d-43a8-1a60-6c6b19d8bd4c": {
            "id": "3660b044-347d-43a8-1a60-6c6b19d8bd4c",
            "type": "draw",
            "name": "Draw",
            "parentId": "page",
            "childIndex": 3,
            "point": [
              862.42,
              669.89
            ],
            "rotation": 0,
            "style": {
              "color": "indigo",
              "size": "large",
              "isFilled": false,
              "dash": "draw",
              "scale": 1
            },
            "points": [],
            "isComplete": true
          },
          "caffc3c5-69e2-4a9c-2440-ca3ed0d3e2ce": {
            "id": "caffc3c5-69e2-4a9c-2440-ca3ed0d3e2ce",
            "type": "draw",
            "name": "Draw",
            "parentId": "page",
            "childIndex": 4,
            "point": [
              767.5,
              701.17
            ],
            "rotation": 0,
            "style": {
              "color": "indigo",
              "size": "small",
              "isFilled": false,
              "dash": "draw",
              "scale": 1
            },
            "points": [],
            "isComplete": true
          },
          "c992ffc2-597d-4326-1805-67217d4f8d36": {
            "id": "c992ffc2-597d-4326-1805-67217d4f8d36",
            "type": "draw",
            "name": "Draw",
            "parentId": "page",
            "childIndex": 5,
            "point": [
              798.94,
              693.08
            ],
            "rotation": 0,
            "style": {
              "color": "indigo",
              "size": "small",
              "isFilled": false,
              "dash": "draw",
              "scale": 1
            },
            "points": [],
            "isComplete": true
          },
          "19f208f7-96c1-4a2e-2baf-e307c733f84c": {
            "id": "19f208f7-96c1-4a2e-2baf-e307c733f84c",
            "type": "draw",
            "name": "Draw",
            "parentId": "page",
            "childIndex": 6,
            "point": [
              771.12,
              698
            ],
            "rotation": 0,
            "style": {
              "color": "indigo",
              "size": "small",
              "isFilled": false,
              "dash": "draw",
              "scale": 1
            },
            "points": [
              [
                0,
                14.37,
                0.5
              ],
              [
                0.73,
                15.7,
                0.5
              ],
              [
                1.54,
                16.05,
                0.5
              ],
              [
                2.53,
                16.89,
                0.5
              ],
              [
                3.98,
                17.24,
                0.5
              ],
              [
                6.01,
                17.46,
                0.5
              ],
              [
                8.57,
                17.46,
                0.5
              ],
              [
                11.21,
                17.46,
                0.5
              ],
              [
                15.42,
                17.46,
                0.5
              ],
              [
                19.63,
                17.19,
                0.5
              ],
              [
                24.02,
                14.71,
                0.5
              ],
              [
                28,
                11.3,
                0.5
              ],
              [
                30.3,
                8.51,
                0.5
              ],
              [
                33.21,
                3.9,
                0.5
              ],
              [
                34.4,
                1.92,
                0.5
              ],
              [
                34.88,
                0.75,
                0.5
              ],
              [
                35.14,
                0.22,
                0.5
              ],
              [
                35.14,
                0.11,
                0.5
              ],
              [
                35.14,
                0,
                0.5
              ],
              [
                35.24,
                5.329070518200751e-15,
                0.5
              ]
            ],
            "isComplete": true
          }
        },
        "bindings": {}
      }
    },
    "pageStates": {
      "page": {
        "id": "page",
        "selectedIds": [
          "aafc13d1-9c30-447f-1ea4-ca5fe00b2641",
          "d10e7eaa-d2eb-493c-3db3-590d10b77717",
          "3660b044-347d-43a8-1a60-6c6b19d8bd4c",
          "caffc3c5-69e2-4a9c-2440-ca3ed0d3e2ce",
          "c992ffc2-597d-4326-1805-67217d4f8d36",
          "19f208f7-96c1-4a2e-2baf-e307c733f84c"
        ],
        "camera": {
          "point": [
            0,
            0
          ],
          "zoom": 1
        },
        "editingId": null
      }
    }
  },
  "assets": {}
}
<!-- payload-end -->
</svg>