<svg width="153" height="152" viewBox="0 0 153 152" fill="none" xmlns="http://www.w3.org/2000/svg">
<g clip-path="url(#clip0_1094_102913)">
<path d="M0.501953 16.7033C0.501953 7.47832 7.6654 0 16.502 0H136.502C145.339 0 152.502 7.47832 152.502 16.7033V135.297C152.502 144.522 145.339 152 136.502 152H16.502C7.6654 152 0.501953 144.522 0.501953 135.297V16.7033Z" fill="white"/>
<path d="M89.0482 43.4721C89.0482 47.1455 87.7927 50.2624 85.2816 52.8226C82.7705 55.3829 79.7136 56.663 76.1107 56.663C72.3987 56.663 69.2872 55.3829 66.7761 52.8226C64.265 50.2624 63.0095 47.1455 63.0095 43.4721C63.0095 39.7987 64.265 36.6819 66.7761 34.1216C69.2872 31.5614 72.3987 30.2812 76.1107 30.2812C79.7136 30.2812 82.7705 31.5614 85.2816 34.1216C87.7927 36.6819 89.0482 39.7987 89.0482 43.4721ZM62.8457 89.7004C62.8457 86.027 64.1012 82.9102 66.6123 80.3499C69.2326 77.6783 72.3987 76.3425 76.1107 76.3425C79.6044 76.3425 82.6614 77.6783 85.2816 80.3499C87.9019 82.9102 89.4304 85.8043 89.8671 89.0325C90.7405 95.0435 89.6487 100.999 86.5917 106.899C83.644 112.798 79.3861 117.307 73.818 120.423C70.7611 122.204 68.25 122.149 66.2848 120.256C64.4288 118.475 64.9747 116.36 67.9224 113.911C69.5601 112.687 70.9248 111.129 72.0166 109.236C73.1084 107.344 73.818 105.396 74.1455 103.392C74.2547 102.502 73.8726 102.056 72.9992 102.056C70.8156 101.945 68.5775 100.721 66.2848 98.383C63.9921 96.0454 62.8457 93.1512 62.8457 89.7004Z" fill="black"/>
</g>
<defs>
<clipPath id="clip0_1094_102913">
<rect width="152" height="152" fill="white" transform="translate(0.501953)"/>
</clipPath>
</defs>
</svg>
