<svg width="15" height="15" viewBox="0 0 15 15" fill="none" xmlns="http://www.w3.org/2000/svg">
<path d="M12.942 2.94193L12.942 2.94194L8.38389 7.5L12.942 12.058L12.942 12.058C13.186 12.3021 13.186 12.6979 12.942 12.942L12.942 12.942C12.6979 13.186 12.3021 13.186 12.058 12.942L12.058 12.942L7.5 8.38389L2.94194 12.942L2.94193 12.942C2.69785 13.186 2.30215 13.186 2.05808 12.942L2.05806 12.942C1.81398 12.6979 1.81398 12.3021 2.05806 12.058L2.05806 12.058L6.61612 7.5L2.05807 2.94194C2.05807 2.94194 2.05806 2.94194 2.05806 2.94194C1.81398 2.69787 1.81398 2.30214 2.05806 2.05807C2.05806 2.05806 2.05806 2.05806 2.05807 2.05806M12.942 2.94193L2.85355 2.14645C2.65829 1.95118 2.34171 1.95118 2.14645 2.14645L2.05807 2.05806M12.942 2.94193C13.186 2.69785 13.186 2.30215 12.942 2.05808L12.942 2.05806C12.6979 1.81398 12.3021 1.81398 12.058 2.05806L12.058 2.05806L7.5 6.61612L2.94194 2.05807L12.942 2.94193ZM2.05807 2.05806C2.30214 1.81398 2.69787 1.81398 2.94194 2.05806L2.05807 2.05806Z" fill="black" stroke="black" stroke-width="0.25"/>
</svg>
