<svg width="15" height="15" viewBox="0 0 15 15" fill="none" xmlns="http://www.w3.org/2000/svg">
<g clip-path="url(#clip0_85_8751)">
<path fill-rule="evenodd" clip-rule="evenodd" d="M11.6464 0.64645C11.8417 0.451184 12.1583 0.451184 12.3535 0.64645L14.3535 2.64645C14.5488 2.84171 14.5488 3.15829 14.3535 3.35355L10.4109 7.29618C10.3349 7.37218 10.2471 7.43543 10.151 7.4835L6.22362 9.44721C6.03112 9.5435 5.79864 9.5057 5.64646 9.35355C5.49428 9.20137 5.45655 8.96889 5.5528 8.77639L7.51651 4.84897C7.56458 4.75283 7.62783 4.66507 7.70383 4.58907L11.6464 0.64645ZM12 1.70711L8.41094 5.29618L7.37269 7.37267L7.62734 7.62732L9.70383 6.58907L13.2929 3L12 1.70711Z" fill="black"/>
<path fill-rule="evenodd" clip-rule="evenodd" d="M12.5303 0.469673C12.2374 0.176741 11.7626 0.176816 11.4697 0.469657ZM12.5303 0.469673L14.5303 2.46965C14.8232 2.76255 14.8232 3.23743 14.5303 3.53033L10.5877 7.47296C10.4927 7.56798 10.3829 7.64703 10.2629 7.70709L6.33546 9.6708C6.04664 9.81525 5.69791 9.75851 5.4697 9.53034C5.24143 9.30207 5.18482 8.95333 5.3292 8.66459L7.2929 4.73717C7.35299 4.617 7.43205 4.5073 7.52705 4.41229L11.4697 0.469657M6.22362 9.44721L10.151 7.4835C10.2471 7.43543 10.3349 7.37218 10.4109 7.29618L14.3535 3.35355C14.5488 3.15829 14.5488 2.84171 14.3535 2.64645L12.3535 0.64645C12.1583 0.451184 11.8417 0.451184 11.6464 0.64645L7.70383 4.58907C7.62783 4.66507 7.56458 4.75283 7.51651 4.84897L5.5528 8.77639C5.45655 8.96889 5.49428 9.20137 5.64646 9.35355C5.79864 9.5057 6.03112 9.5435 6.22362 9.44721ZM8.6164 5.44427L7.67706 7.32295L9.55574 6.38361L12.9394 3L12 2.06066L8.6164 5.44427ZM8.41094 5.29618L7.37269 7.37267L7.62734 7.62732L9.70383 6.58907L13.2929 3L12 1.70711L8.41094 5.29618Z" fill="black"/>
<path fill-rule="evenodd" clip-rule="evenodd" d="M7.5 1.5H2.5C1.39543 1.5 0.5 2.39543 0.5 3.5V12.5C0.5 13.6046 1.39543 14.5 2.5 14.5H11.5C12.6046 14.5 13.5 13.6046 13.5 12.5V7.5H12V12.5C12 12.7761 11.7761 13 11.5 13H2.5C2.22386 13 2 12.7761 2 12.5V3.5C2 3.22386 2.22386 3 2.5 3H7.5V1.5Z" fill="black"/>
</g>
<defs>
<clipPath id="clip0_85_8751">
<rect width="15" height="15" fill="white"/>
</clipPath>
</defs>
</svg>
