<svg width="15" height="15" viewBox="0 0 15 15" fill="none" xmlns="http://www.w3.org/2000/svg">
<path fill-rule="evenodd" clip-rule="evenodd" d="M7.2221 4.03012C7.26918 2.91201 8.19053 2.01999 9.32022 2.01999C10.48 2.01999 11.4202 2.96019 11.4202 4.11999C11.4202 5.27979 10.48 6.22 9.32022 6.22C9.11292 6.22 8.91323 6.1901 8.72488 6.13455C8.55278 5.23412 7.99117 4.47195 7.2221 4.03012ZM6.25225 3.67269C6.46905 2.17255 7.76003 1.01999 9.32022 1.01999C11.0323 1.01999 12.4202 2.40791 12.4202 4.11999C12.4202 5.83208 11.0323 7.22 9.32022 7.22C9.12497 7.22 8.93369 7.20189 8.74806 7.16721C8.5313 8.66739 7.2403 9.82 5.68008 9.82C3.968 9.82 2.58008 8.43208 2.58008 6.72C2.58008 5.00791 3.968 3.62 5.68008 3.62C5.87556 3.62 6.06681 3.63809 6.25225 3.67269ZM3.58008 6.72C3.58008 5.5602 4.52028 4.62 5.68008 4.62C6.83988 4.62 7.78009 5.5602 7.78009 6.72C7.78009 7.8798 6.83988 8.82 5.68008 8.82C4.52028 8.82 3.58008 7.8798 3.58008 6.72Z" fill="black"/>
<path d="M14.0003 10.88C14.0003 8.58247 11.905 6.71997 9.32026 6.71997C8.96282 6.71997 8.61474 6.75559 8.28027 6.82305" stroke="black" stroke-linecap="round"/>
<path d="M10.36 13.48C10.36 11.1825 8.2647 9.31998 5.68001 9.31998C3.09531 9.31998 1 11.1825 1 13.48" stroke="black" stroke-linecap="round"/>
</svg>
