<svg width="15" height="15" viewBox="0 0 15 15" fill="none" xmlns="http://www.w3.org/2000/svg">
<path d="M13.0304 3.03033L8.56067 7.5L13.0304 11.9696C13.3231 12.2625 13.3232 12.7374 13.0304 13.0303C12.7375 13.3231 12.2626 13.3232 11.9697 13.0304L7.5 8.56066L3.03033 13.0304C2.73744 13.3232 2.26259 13.3232 1.9697 13.0304C1.67682 12.7375 1.67678 12.2626 1.96966 11.9696L6.43934 7.5L1.96968 3.03033C1.67678 2.73744 1.67677 2.26257 1.96967 1.96968C2.26256 1.67678 2.73744 1.67677 3.03033 1.96967L7.5 6.43933L11.9696 1.96967C12.2626 1.67679 12.7374 1.67677 13.0304 1.96966C13.3232 2.26254 13.3232 2.73744 13.0304 3.03033Z" fill="black"/>
</svg>
