<svg width="15" height="15" viewBox="0 0 15 15" fill="none" xmlns="http://www.w3.org/2000/svg">
<path d="M11.5054 8.5C11.2314 8.5 10.9958 8.40309 10.7987 8.20927C10.6015 8.01211 10.5029 7.77485 10.5029 7.49749C10.5029 7.22348 10.6015 6.98956 10.7987 6.79574C10.9958 6.59858 11.2314 6.5 11.5054 6.5C11.7795 6.5 12.015 6.59858 12.2122 6.79574C12.4094 6.98956 12.5079 7.22348 12.5079 7.49749C12.5079 7.68129 12.4612 7.85004 12.3676 8.00376C12.2774 8.15414 12.1571 8.27444 12.0067 8.36466C11.8563 8.45489 11.6892 8.5 11.5054 8.5Z" fill="black"/>
<path d="M7.50055 8.5C7.22653 8.5 6.99095 8.40309 6.79379 8.20927C6.59663 8.01211 6.49805 7.77485 6.49805 7.49749C6.49805 7.22348 6.59663 6.98956 6.79379 6.79574C6.99095 6.59858 7.22653 6.5 7.50055 6.5C7.77457 6.5 8.01016 6.59858 8.20732 6.79574C8.40448 6.98956 8.50306 7.22348 8.50306 7.49749C8.50306 7.68129 8.45628 7.85004 8.36271 8.00376C8.27248 8.15414 8.15218 8.27444 8.00181 8.36466C7.85143 8.45489 7.68435 8.5 7.50055 8.5Z" fill="black"/>
<path d="M3.49518 8.5C3.22116 8.5 2.98557 8.40309 2.78842 8.20927C2.59126 8.01211 2.49268 7.77485 2.49268 7.49749C2.49268 7.22348 2.59126 6.98956 2.78842 6.79574C2.98557 6.59858 3.22116 6.5 3.49518 6.5C3.7692 6.5 4.00479 6.59858 4.20195 6.79574C4.39911 6.98956 4.49769 7.22348 4.49769 7.49749C4.49769 7.68129 4.4509 7.85004 4.35734 8.00376C4.26711 8.15414 4.14681 8.27444 3.99643 8.36466C3.84606 8.45489 3.67897 8.5 3.49518 8.5Z" fill="black"/>
</svg>
