<svg width="15" height="15" viewBox="0 0 15 15" fill="none" xmlns="http://www.w3.org/2000/svg">
<path fill-rule="evenodd" clip-rule="evenodd" d="M12.8541 2.85355C13.0493 2.65829 13.0493 2.34171 12.8541 2.14645C12.6588 1.95118 12.3422 1.95118 12.1469 2.14645L7.50049 6.79289L2.85404 2.14645C2.65878 1.95118 2.3422 1.95118 2.14694 2.14645C1.95167 2.34171 1.95167 2.65829 2.14694 2.85355L6.79338 7.5L2.14694 12.1464C1.95167 12.3417 1.95167 12.6583 2.14694 12.8536C2.3422 13.0488 2.65878 13.0488 2.85404 12.8536L7.50049 8.20711L12.1469 12.8536C12.3422 13.0488 12.6588 13.0488 12.8541 12.8536C13.0493 12.6583 13.0493 12.3417 12.8541 12.1464L8.2076 7.5L12.8541 2.85355Z" fill="black"/>
</svg>
