<svg width="15" height="15" viewBox="0 0 15 15" fill="none" xmlns="http://www.w3.org/2000/svg">
<g clip-path="url(#clip0_85_8751)">
<path fill-rule="evenodd" clip-rule="evenodd" d="M11.6469 0.64645C11.8422 0.451184 12.1588 0.451184 12.354 0.64645L14.354 2.64645C14.5493 2.84171 14.5493 3.15829 14.354 3.35355L10.4114 7.29618C10.3354 7.37218 10.2476 7.43543 10.1515 7.4835L6.22411 9.44721C6.03161 9.5435 5.79913 9.5057 5.64695 9.35355C5.49477 9.20137 5.45704 8.96889 5.55329 8.77639L7.517 4.84897C7.56507 4.75283 7.62832 4.66507 7.70432 4.58907L11.6469 0.64645ZM12.0005 1.70711L8.41143 5.29618L7.37318 7.37267L7.62783 7.62732L9.70432 6.58907L13.2934 3L12.0005 1.70711Z" fill="black"/>
<path fill-rule="evenodd" clip-rule="evenodd" d="M12.5308 0.469673C12.2379 0.176741 11.7631 0.176816 11.4702 0.469657ZM12.5308 0.469673L14.5308 2.46965V2.46965C14.8237 2.76255 14.8237 3.23743 14.5308 3.53033V3.53033L10.5882 7.47296C10.4932 7.56798 10.3834 7.64703 10.2634 7.70709L6.33595 9.6708V9.6708C6.04713 9.81525 5.6984 9.75851 5.47019 9.53034C5.24192 9.30207 5.18531 8.95333 5.32968 8.66459L7.29339 4.73717C7.35348 4.617 7.43254 4.5073 7.52754 4.41229L11.4702 0.469657M6.22411 9.44721L10.1515 7.4835C10.2476 7.43543 10.3354 7.37218 10.4114 7.29618L14.354 3.35355C14.5493 3.15829 14.5493 2.84171 14.354 2.64645L12.354 0.64645C12.1588 0.451184 11.8422 0.451184 11.6469 0.64645L7.70432 4.58907C7.62832 4.66507 7.56507 4.75283 7.517 4.84897L5.55329 8.77639C5.45704 8.96889 5.49477 9.20137 5.64695 9.35355C5.79913 9.5057 6.03161 9.5435 6.22411 9.44721ZM8.61689 5.44427L7.67755 7.32295L9.55623 6.38361L12.9399 3L12.0005 2.06066L8.61689 5.44427ZM8.41143 5.29618L7.37318 7.37267L7.62783 7.62732L9.70432 6.58907L13.2934 3L12.0005 1.70711L8.41143 5.29618Z" fill="black"/>
<path fill-rule="evenodd" clip-rule="evenodd" d="M7.50049 1.5H2.50049C1.39592 1.5 0.500488 2.39543 0.500488 3.5V12.5C0.500488 13.6046 1.39592 14.5 2.50049 14.5H11.5005C12.6051 14.5 13.5005 13.6046 13.5005 12.5V7.5H12.0005V12.5C12.0005 12.7761 11.7766 13 11.5005 13H2.50049C2.22435 13 2.00049 12.7761 2.00049 12.5V3.5C2.00049 3.22386 2.22435 3 2.50049 3H7.50049V1.5Z" fill="black"/>
</g>
<defs>
<clipPath id="clip0_85_8751">
<rect width="15" height="15" fill="white" transform="translate(0.000488281)"/>
</clipPath>
</defs>
</svg>
