<svg width="15" height="15" viewBox="0 0 15 15" fill="none" xmlns="http://www.w3.org/2000/svg">
<g clip-path="url(#clip0_62_25322)">
<path fill-rule="evenodd" clip-rule="evenodd" d="M11.6469 0.646449C11.8422 0.451183 12.1588 0.451183 12.354 0.646449L14.354 2.64645C14.5493 2.84171 14.5493 3.15829 14.354 3.35355L10.4114 7.29618C10.3354 7.37218 10.2476 7.43543 10.1515 7.4835L6.22411 9.44721C6.03161 9.5435 5.79913 9.5057 5.64695 9.35355C5.49477 9.20137 5.45704 8.96889 5.55329 8.77639L7.517 4.84897C7.56507 4.75283 7.62832 4.66507 7.70432 4.58907L11.6469 0.646449ZM12.0005 1.70711L8.41143 5.29618L7.37318 7.37267L7.62783 7.62732L9.70432 6.58907L13.2934 3L12.0005 1.70711Z" fill="black"/>
<path fill-rule="evenodd" clip-rule="evenodd" d="M7.50049 1.5H2.50049C1.39592 1.5 0.500488 2.39543 0.500488 3.5V12.5C0.500488 13.6046 1.39592 14.5 2.50049 14.5H11.5005C12.6051 14.5 13.5005 13.6046 13.5005 12.5V7.5H12.5005V12.5C12.5005 13.0523 12.0528 13.5 11.5005 13.5H2.50049C1.9482 13.5 1.50049 13.0523 1.50049 12.5V3.5C1.50049 2.94772 1.9482 2.5 2.50049 2.5H7.50049V1.5Z" fill="black"/>
</g>
<defs>
<clipPath id="clip0_62_25322">
<rect width="15" height="15" fill="white" transform="translate(0.000488281)"/>
</clipPath>
</defs>
</svg>
