<svg width="15" height="15" viewBox="0 0 15 15" fill="none" xmlns="http://www.w3.org/2000/svg">
<path d="M3.04404 5.19754L3.04404 5.19754C2.80797 5.44936 2.82071 5.84488 3.07254 6.08096C3.07254 6.08096 3.07254 6.08096 3.07254 6.08097L7.07254 9.83099L7.07254 9.831C7.31295 10.0564 7.68705 10.0564 7.92746 9.831L7.84197 9.7398L7.92746 9.83099L11.9275 6.08096L11.9275 6.08095C12.1793 5.84488 12.192 5.44937 11.956 5.19756L11.956 5.19753C11.7199 4.94571 11.3244 4.93297 11.0725 5.16903L11.0725 5.16904L7.5 8.5183L3.92746 5.16904C3.67565 4.93296 3.28013 4.94571 3.04404 5.19754Z" fill="black" stroke="black" stroke-width="0.25"/>
</svg>
