<svg width="15" height="15" viewBox="0 0 15 15" fill="none" xmlns="http://www.w3.org/2000/svg">
<path d="M8.125 2.75C8.125 2.40482 7.84518 2.125 7.5 2.125C7.15482 2.125 6.875 2.40482 6.875 2.75V6.875H2.75C2.40482 6.875 2.125 7.15482 2.125 7.5C2.125 7.84518 2.40482 8.125 2.75 8.125H6.875V12.25C6.875 12.5951 7.15482 12.875 7.5 12.875C7.84518 12.875 8.125 12.5951 8.125 12.25V8.125H12.25C12.5951 8.125 12.875 7.84518 12.875 7.5C12.875 7.15482 12.5951 6.875 12.25 6.875H8.125V2.75Z" fill="black" stroke="black" stroke-width="0.25"/>
</svg>
