<svg width="16" height="15" viewBox="0 0 16 15" fill="none" xmlns="http://www.w3.org/2000/svg">
<path fill-rule="evenodd" clip-rule="evenodd" d="M6.72091 0.896768C7.07958 0.034412 8.30121 0.0344095 8.65988 0.896768L10.1907 4.57739L14.1643 4.89594C15.0953 4.97058 15.4728 6.13241 14.7635 6.74002L11.736 9.33332L12.661 13.2108C12.8777 14.1193 11.8894 14.8374 11.0923 14.3505L7.6904 12.2726L4.28849 14.3505C3.49144 14.8374 2.50312 14.1193 2.71983 13.2108L3.64476 9.33332L0.61734 6.74002C-0.0919717 6.13241 0.285526 4.97058 1.21652 4.89594L5.19005 4.57739L6.72091 0.896768ZM7.69039 2.47178L6.46948 5.40721C6.31827 5.77076 5.97638 6.01916 5.5839 6.05062L2.41486 6.30469L4.82933 8.37294C5.12836 8.62909 5.25895 9.03101 5.16759 9.414L4.42993 12.5065L7.14308 10.8493C7.4791 10.644 7.9017 10.644 8.23771 10.8493L10.9509 12.5065L10.2132 9.414C10.1218 9.03101 10.2524 8.62909 10.5515 8.37294L12.9659 6.30469L9.79689 6.05062C9.40441 6.01916 9.06252 5.77076 8.91131 5.40721L7.69039 2.47178Z" fill="black"/>
</svg>
