<svg width="15" height="15" viewBox="0 0 15 15" fill="none" xmlns="http://www.w3.org/2000/svg">
<path fill-rule="evenodd" clip-rule="evenodd" d="M8.65252 3.21226C9.24947 2.80674 9.995 2.8042 10.5417 3.16321C10.6591 3.24035 10.7917 3.36733 11.2123 3.78802C11.633 4.20872 11.76 4.34125 11.8372 4.4587C12.1962 5.00537 12.1936 5.7509 11.7881 6.34785C11.6999 6.47771 11.5591 6.62324 11.124 7.05839L10.5052 7.67711C10.2123 7.97 10.2123 8.44488 10.5052 8.73777C10.7981 9.03066 11.273 9.03066 11.5659 8.73777L12.1846 8.11905L12.2406 8.0631C12.5971 7.70677 12.85 7.45405 13.0289 7.19074C13.7581 6.11736 13.7994 4.71402 13.091 3.6353C12.9178 3.37166 12.6689 3.12292 12.3305 2.78481L12.273 2.72736L12.2156 2.66988C11.8774 2.33149 11.6287 2.08256 11.3651 1.90942C10.2863 1.20099 8.88301 1.24231 7.80963 1.97148C7.54632 2.15035 7.2936 2.40323 6.93727 2.75977L6.88132 2.81575L6.2626 3.43447C5.96971 3.72736 5.96971 4.20223 6.2626 4.49513C6.55549 4.78802 7.03037 4.78802 7.32326 4.49513L7.94198 3.87641C8.37713 3.44126 8.52266 3.30048 8.65252 3.21226ZM4.49483 7.32355C4.78773 7.03066 4.78773 6.55579 4.49483 6.26289C4.20194 5.97 3.72707 5.97 3.43417 6.26289L2.81546 6.88161L2.75948 6.93757C2.40293 7.29389 2.15006 7.54661 1.97119 7.80992C1.24202 8.8833 1.2007 10.2866 1.90912 11.3654C2.08226 11.629 2.3312 11.8777 2.66959 12.2159L2.72707 12.2733L2.78452 12.3308C3.12263 12.6692 3.37137 12.9181 3.63501 13.0912C4.71373 13.7997 6.11707 13.7584 7.19045 13.0292C7.45376 12.8503 7.70648 12.5974 8.06281 12.2409L8.11876 12.1849L8.73747 11.5662C9.03037 11.2733 9.03037 10.7984 8.73747 10.5055C8.44458 10.2126 7.96971 10.2126 7.67681 10.5055L7.0581 11.1243C6.62294 11.5594 6.47742 11.7002 6.34756 11.7884C5.7506 12.1939 5.00507 12.1965 4.45841 11.8375C4.34096 11.7603 4.20842 11.6333 3.78773 11.2126C3.36703 10.7919 3.24005 10.6594 3.16292 10.542C2.80391 9.99529 2.80644 9.24977 3.21197 8.65281C3.30019 8.52295 3.44096 8.37743 3.87612 7.94227L4.49483 7.32355ZM9.7986 6.26241C10.0915 5.96952 10.0915 5.49465 9.7986 5.20175C9.50571 4.90886 9.03083 4.90886 8.73794 5.20175L5.2024 8.73729C4.90951 9.03018 4.90951 9.50505 5.2024 9.79795C5.4953 10.0908 5.97017 10.0908 6.26306 9.79795L9.7986 6.26241Z" fill="black"/>
</svg>
