<svg width="15" height="15" viewBox="0 0 15 15" fill="none" xmlns="http://www.w3.org/2000/svg">
<path d="M10.7098 8.29766L10.7098 8.29766L10.7106 8.29841C10.9309 8.51498 11.1978 8.625 11.5049 8.625C11.7103 8.625 11.8998 8.5743 12.0705 8.47185C12.2384 8.37113 12.3733 8.23622 12.4741 8.06841C12.5797 7.89477 12.6325 7.70356 12.6325 7.49749C12.6325 7.18979 12.5203 6.92398 12.2997 6.70697C12.0797 6.48708 11.8126 6.375 11.5049 6.375C11.1973 6.375 10.9302 6.48708 10.7102 6.70697C10.4896 6.92399 10.3774 7.18979 10.3774 7.49749C10.3774 7.8082 10.4893 8.0772 10.7098 8.29766Z" fill="black" stroke="black" stroke-width="0.25"/>
<path d="M6.70442 8.29766L6.70442 8.29766L6.70518 8.29841C6.92548 8.51498 7.19245 8.625 7.49958 8.625C7.70489 8.625 7.89439 8.5743 8.06514 8.47185C8.233 8.37113 8.36795 8.23622 8.46871 8.06841C8.57433 7.89477 8.62708 7.70356 8.62708 7.49749C8.62708 7.1898 8.51493 6.92399 8.29436 6.70698C8.07429 6.48708 7.80722 6.375 7.49958 6.375C7.19194 6.375 6.92487 6.48708 6.7048 6.70697C6.48423 6.92399 6.37207 7.18979 6.37207 7.49749C6.37207 7.8082 6.48396 8.0772 6.70442 8.29766Z" fill="black" stroke="black" stroke-width="0.25"/>
<path d="M2.69954 8.29766L2.69954 8.29766L2.7003 8.29841C2.9206 8.51498 3.18757 8.625 3.49469 8.625C3.70001 8.625 3.8895 8.5743 4.06026 8.47185C4.22811 8.37113 4.36307 8.23622 4.46383 8.06841C4.56944 7.89477 4.6222 7.70356 4.6222 7.49749C4.6222 7.1898 4.51005 6.92399 4.28948 6.70698C4.06941 6.48708 3.80234 6.375 3.49469 6.375C3.18705 6.375 2.91998 6.48708 2.69992 6.70697C2.47934 6.92399 2.36719 7.18979 2.36719 7.49749C2.36719 7.8082 2.47908 8.0772 2.69954 8.29766Z" fill="black" stroke="black" stroke-width="0.25"/>
</svg>
