<svg width="15" height="15" viewBox="0 0 15 15" fill="none" xmlns="http://www.w3.org/2000/svg">
<g clip-path="url(#clip0_62_25313)">
<path fill-rule="evenodd" clip-rule="evenodd" d="M6.97985 1.89279L6.95893 1.94307L5.58705 5.24147C5.54385 5.34534 5.44616 5.41631 5.33403 5.4253L1.77313 5.71078L1.71884 5.71513L1.3873 5.74171L1.08651 5.76583C0.820512 5.78715 0.712655 6.1191 0.915316 6.2927L1.14449 6.48901L1.39709 6.70539L1.43845 6.74082L4.15148 9.06482C4.23691 9.138 4.27423 9.25284 4.24812 9.36226L3.41925 12.8371L3.40661 12.8901L3.32944 13.2136L3.25942 13.5071C3.19751 13.7667 3.47988 13.9719 3.70761 13.8328L3.96513 13.6755L4.24897 13.5021L4.29545 13.4737L7.34408 11.6116C7.44008 11.553 7.56083 11.553 7.65683 11.6116L10.7054 13.4737L10.7519 13.5021L11.0358 13.6755L11.2933 13.8328C11.521 13.9719 11.8034 13.7667 11.7415 13.5071L11.6714 13.2136L11.5943 12.8901L11.5816 12.8371L10.7528 9.36226C10.7267 9.25284 10.764 9.138 10.8494 9.06482L13.5624 6.74082L13.6038 6.70539L13.8564 6.48901L14.0856 6.2927C14.2882 6.1191 14.1804 5.78715 13.9144 5.76583L13.6136 5.74171L13.282 5.71513L13.2278 5.71078L9.66688 5.4253C9.55475 5.41631 9.45706 5.34534 9.41386 5.24147L8.04198 1.94307L8.02107 1.89279L7.89334 1.58569L7.77745 1.30707C7.67497 1.06069 7.32594 1.06069 7.22346 1.30707L7.10758 1.58569L6.97985 1.89279ZM7.50046 3.24505L6.51037 5.6255C6.32316 6.07561 5.89987 6.38315 5.41394 6.42211L2.84404 6.62813L4.80203 8.30536C5.17226 8.6225 5.33394 9.12011 5.22083 9.59429L4.62264 12.1021L6.82283 10.7582C7.23885 10.5041 7.76207 10.5041 8.17809 10.7582L10.3782 12.1021L9.78008 9.59429C9.66697 9.12011 9.82865 8.6225 10.1988 8.30536L12.1568 6.62813L9.58697 6.42211C9.10104 6.38315 8.67775 6.07561 8.49054 5.6255L7.50046 3.24505Z" fill="black"/>
</g>
<defs>
<clipPath id="clip0_62_25313">
<rect width="15" height="15" fill="white" transform="translate(0.000488281)"/>
</clipPath>
</defs>
</svg>
