<svg width="15" height="15" viewBox="0 0 15 15" fill="none" xmlns="http://www.w3.org/2000/svg">
<g clip-path="url(#clip0_85_8764)">
<path fill-rule="evenodd" clip-rule="evenodd" d="M0 1.95C0 0.873045 0.873045 0 1.95 0H13.05C14.127 0 15 0.873045 15 1.95V13.05C15 14.127 14.127 15 13.05 15H1.95C0.873045 15 0 14.127 0 13.05V1.95ZM8.85 4.5C8.85 5.24558 8.24558 5.85 7.5 5.85C6.75442 5.85 6.15 5.24558 6.15 4.5C6.15 3.75442 6.75442 3.15 7.5 3.15C8.24558 3.15 8.85 3.75442 8.85 4.5ZM7.05655 12.15C7.69153 12.1523 8.30292 11.2707 8.53162 10.7784C8.81334 10.1719 8.98917 9.08178 8.70658 8.43596C8.50862 7.98355 8.05508 7.65 7.45605 7.65C6.73474 7.65 6.15 8.23648 6.15 8.95993C6.15 9.15974 6.19571 9.34674 6.27677 9.51262C6.35204 9.66664 6.45133 9.82718 6.55139 9.98896C6.86589 10.4974 7.18795 11.0181 6.79534 11.3872C6.47691 11.6864 6.5765 12.1483 7.05655 12.15Z" fill="black"/>
</g>
<defs>
<clipPath id="clip0_85_8764">
<rect width="15" height="15" fill="white"/>
</clipPath>
</defs>
</svg>
