<svg width="15" height="15" viewBox="0 0 15 15" fill="none" xmlns="http://www.w3.org/2000/svg">
<path fill-rule="evenodd" clip-rule="evenodd" d="M8.00049 2.75C8.00049 2.47386 7.77663 2.25 7.50049 2.25C7.22435 2.25 7.00049 2.47386 7.00049 2.75V7H2.75049C2.47435 7 2.25049 7.22386 2.25049 7.5C2.25049 7.77614 2.47435 8 2.75049 8H7.00049V12.25C7.00049 12.5261 7.22435 12.75 7.50049 12.75C7.77663 12.75 8.00049 12.5261 8.00049 12.25V8H12.2505C12.5266 8 12.7505 7.77614 12.7505 7.5C12.7505 7.22386 12.5266 7 12.2505 7H8.00049V2.75Z" fill="black"/>
</svg>
