<svg width="15" height="15" viewBox="0 0 15 15" fill="none" xmlns="http://www.w3.org/2000/svg">
<path fill-rule="evenodd" clip-rule="evenodd" d="M3.50049 2C3.22435 2 3.00049 2.22386 3.00049 2.5V12.5C3.00049 12.7761 3.22435 13 3.50049 13H11.5005C11.7766 13 12.0005 12.7761 12.0005 12.5V6H8.50049C8.22435 6 8.00049 5.77614 8.00049 5.5V2H3.50049ZM9.00049 2.70711L11.2934 5H9.00049V2.70711ZM2.00049 2.5C2.00049 1.67157 2.67206 1 3.50049 1H8.50049C8.6331 1 8.76028 1.05268 8.85404 1.14645L12.8541 5.14645C12.9478 5.24021 13.0005 5.36739 13.0005 5.5V12.5C13.0005 13.3284 12.3289 14 11.5005 14H3.50049C2.67206 14 2.00049 13.3284 2.00049 12.5V2.5Z" fill="black"/>
</svg>
