<svg width="513" height="513" viewBox="0 0 513 513" fill="none" xmlns="http://www.w3.org/2000/svg">
<g clip-path="url(#clip0_1750_113791)">
<path d="M0.501953 57.1505C0.501953 26.0768 24.6314 0.886719 54.3967 0.886719H458.607C488.372 0.886719 512.502 26.0769 512.502 57.1505V456.623C512.502 487.697 488.372 512.887 458.607 512.887H54.3967C24.6315 512.887 0.501953 487.697 0.501953 456.623V57.1505Z" fill="white"/>
<path d="M220.261 147.432C220.261 159.806 216.032 170.305 207.574 178.929C199.115 187.553 188.818 191.865 176.682 191.865C164.179 191.865 153.698 187.553 145.239 178.929C136.781 170.305 132.552 159.806 132.552 147.432C132.552 135.059 136.781 124.56 145.239 115.936C153.698 107.312 164.179 103 176.682 103C188.818 103 199.115 107.312 207.574 115.936C216.032 124.56 220.261 135.059 220.261 147.432ZM132 303.149C132 290.775 136.229 280.276 144.688 271.652C153.514 262.653 164.179 258.154 176.682 258.154C188.45 258.154 198.748 262.653 207.574 271.652C216.4 280.276 221.548 290.025 223.019 300.899C225.961 321.147 222.284 341.207 211.987 361.08C202.057 380.952 187.715 396.138 168.959 406.637C158.662 412.636 150.204 412.449 143.584 406.074C137.332 400.075 139.171 392.951 149.101 384.702C154.617 380.577 159.214 375.328 162.891 368.954C166.569 362.579 168.959 356.018 170.063 349.268C170.43 346.269 169.143 344.769 166.201 344.769C158.846 344.394 151.307 340.269 143.584 332.395C135.861 324.521 132 314.772 132 303.149Z" fill="black"/>
<path d="M382 238.56C382 265.185 378.424 289.669 371.273 312.011C365.022 331.736 355.817 350.181 343.658 367.347C340.592 371.675 335.553 374.113 330.249 374.113H325.287C313.024 374.113 305.344 359.303 310.555 348.202V348.202C315.346 337.994 319.53 326.859 323.106 314.795C326.682 302.66 329.471 290.097 331.473 277.106C333.476 264.114 334.477 251.266 334.477 238.56C334.477 221.642 332.725 204.582 329.221 187.379C325.788 170.105 321.068 154.115 315.06 139.411C314.255 137.405 313.435 135.449 312.602 133.542C306.886 120.464 315.977 103.113 330.249 103.113V103.113C335.553 103.113 340.592 105.552 343.658 109.88C355.817 127.045 365.022 145.49 371.273 165.215C378.424 187.558 382 212.006 382 238.56Z" fill="black"/>
</g>
<defs>
<clipPath id="clip0_1750_113791">
<rect width="512" height="512" fill="white" transform="translate(0.501953 0.886719)"/>
</clipPath>
</defs>
</svg>
