<svg width="108" height="108" viewBox="0 0 108 108" fill="none" xmlns="http://www.w3.org/2000/svg">
<path d="M75.5645 74.4256C74.0173 71.8738 67.6193 66.94 64.3156 64.489C63.5934 63.9533 62.6222 64.5776 62.8055 65.458C63.7089 69.7967 65.7317 78.6689 67.633 81.1489C73.532 88.8437 80.5292 82.6135 75.5645 74.4256Z" fill="white" stroke="black" style="fill:white;fill-opacity:1;stroke:black;stroke-opacity:1;" stroke-width="5"/>
<path d="M91.5606 41.4765C82.8617 35.9985 59.6558 51.276 59.6558 60.9994C59.6558 70.7228 95.7412 80.9856 95.7412 65.5522C95.7412 57.604 87.0132 56.4469 87.0132 56.4469C87.0132 56.4469 100.259 46.9544 91.5606 41.4765Z" fill="white" stroke="black" style="fill:white;fill-opacity:1;stroke:black;stroke-opacity:1;" stroke-width="5" stroke-linejoin="round"/>
<path d="M32.9254 72.3892C34.4709 69.644 40.856 64.3391 44.163 61.6962C44.874 61.128 45.8758 61.7387 45.7035 62.6324C44.8097 67.2683 42.7717 76.9406 40.857 79.6305C34.9579 87.9183 27.9608 81.2081 32.9254 72.3892Z" fill="white" stroke="black" style="fill:white;fill-opacity:1;stroke:black;stroke-opacity:1;" stroke-width="5"/>
<path d="M16.4091 40.2836C25.0447 35.0606 48.0821 49.6272 48.0822 58.8982C48.0822 68.1692 12.2588 77.9545 12.2588 63.2392C12.2588 55.6608 20.9234 54.5575 20.9234 54.5575C20.9234 54.5575 7.77337 45.5067 16.4091 40.2836Z" fill="white" stroke="black" style="fill:white;fill-opacity:1;stroke:black;stroke-opacity:1;" stroke-width="5" stroke-linejoin="round"/>
</svg>
