<svg width="108" height="108" viewBox="0 0 108 108" fill="none" xmlns="http://www.w3.org/2000/svg">
<path d="M76.7041 80.505C75.6458 77.7148 70.2497 71.7015 67.4458 68.6916C66.8329 68.0336 65.7645 68.4713 65.7849 69.3703C65.8857 73.8009 66.2643 82.8929 67.6838 85.6768C72.088 94.3147 80.0998 89.4582 76.7041 80.505Z" fill="white" stroke="black" style="fill:white;fill-opacity:1;stroke:black;stroke-opacity:1;" stroke-width="5"/>
<path d="M96.1194 56.0936C91.4872 46.9164 63.727 48.0513 58.7166 56.3843C53.7061 64.7174 79.3433 92.1075 87.2961 78.881C91.3918 72.0693 84.5081 66.5801 84.5081 66.5801C84.5081 66.5801 100.752 65.2707 96.1194 56.0936Z" fill="white" stroke="black" style="fill:white;fill-opacity:1;stroke:black;stroke-opacity:1;" stroke-width="5" stroke-linejoin="round"/>
<path d="M32.9433 78.5708C33.7869 75.5355 38.7168 68.8566 41.2952 65.4991C41.8495 64.7772 42.9683 65.1304 43.0149 66.0394C43.2566 70.7545 43.5927 80.6334 42.3775 83.7034C38.6333 93.1621 30.2336 88.3215 32.9433 78.5708Z" fill="white" stroke="black" style="fill:white;fill-opacity:1;stroke:black;stroke-opacity:1;" stroke-width="5"/>
<path d="M11.7469 58.8682C15.9072 49.6732 43.1437 48.6345 48.3934 56.276C53.6432 63.9174 29.6573 92.2678 21.3248 80.139C17.0335 73.8927 23.5504 68.077 23.5504 68.077C23.5504 68.077 7.58668 68.0632 11.7469 58.8682Z" fill="white" stroke="black" style="fill:white;fill-opacity:1;stroke:black;stroke-opacity:1;" stroke-width="5" stroke-linejoin="round"/>
</svg>
