<svg fill="none" height="231" viewBox="0 0 683 231" width="683" xmlns="http://www.w3.org/2000/svg" xmlns:xlink="http://www.w3.org/1999/xlink"><clipPath id="a"><path d="m.318359 0h682.491v231h-682.491z"/></clipPath><g clip-path="url(#a)"><path clip-rule="evenodd" d="m594.08 109.68-15.467-1.746c-9.065-.998-11.309-3.245-11.309-6.322 0-3.4093 4.66-6.4864 13.719-6.4864 8.733 0 13.308 3.2456 14.14 8.1524h16.63c-.848-14.0569-12.647-22.7858-29.853-22.7858-20.459 0-30.771 8.1471-30.771 22.5318 0 11.726 6.82 17.218 20.96 18.714l15.713 1.661c5.988.666 8.734 2.996 8.734 5.989 0 3.41-3.994 6.487-13.639 6.487-11.144 0-15.633-2.829-16.38-8.485h-16.3c.747 15.304 10.723 23.118 32.099 23.118 19.541 0 30.434-8.564 30.434-21.453 0-11.228-6.483-17.963-18.71-19.375zm-360.321 25.693c9.066 0 14.389-3.49 14.389-12.139v-41.1614h16.96v43.0754c0 19.207-17.044 25.195-31.349 25.195-14.385 0-31.514-5.988-31.514-25.195v-43.0754h16.964v41.1614c0 8.48 5.737 12.139 14.55 12.139zm-232.918115 13.479 59.571915-37.057h30.9032c.2368 0 .4719.047.691.138.2192.091.4181.224.5855.392.1679.168.3007.367.3908.587.0907.219.137.454.1365.691.0245.309-.0426.617-.1925.887-.1503.269-.3764.489-.6505.631l-29.2594 17.542c-1.9008 1.138-2.5668 3.422-2.5668 5.133l-.0293 11.056h37.1826v-64.2505c.0011-.3082-.0607-.6132-.1807-.8968-.1205-.2837-.297-.5402-.5193-.7534-.2218-.2138-.4852-.3802-.7737-.489-.2879-.1087-.595-.1583-.9027-.145h-35.4807l-59.428441 36.8957v29.639zm488.377115-.005h53.553v-14.389h-36.587v-12.054h29.437v-14.474h-29.437v-11.2235h36.587v-14.3849h-53.553zm-362.148 0 25.529-66.5254h21.638l25.841 66.5254h-18.123l-4.384-12.475h-28.5l-4.455 12.475zm36.369-52.6886-9.319 26.0766 18.482.009zm109.404.5481h21.457v52.1405h16.965v-52.1405h21.369v-14.3849h-59.791zm409.966-14.3849h-20.208l-24.196 27.0254v-27.0254h-16.967l.086 66.5254h16.881v-25.28l22.948 25.28h21.456l-30.936-32.85zm-264.608 0h31.101c24.119 0 30.437 9.3943 30.437 32.7614 0 24.867-6.567 33.764-30.437 33.764h-31.101zm16.933 52.1454h13.487c10.245 0 13.819-5.248 13.802-19.384 0-15.4642-3.157-18.3765-13.802-18.3765h-13.487zm-99.756-19.051c0-20.0414 12.555-34.9238 36.757-34.9238 24.28 0 36.838 14.8824 36.838 34.9238 0 20.126-12.558 35.092-36.838 35.092-24.202 0-36.757-14.966-36.757-35.092zm17.297 0c0 12.475 6.904 20.126 19.46 20.126 12.64 0 19.458-7.651 19.458-20.126 0-12.223-6.814-19.9571-19.458-19.9571-12.556 0-19.46 7.7341-19.46 19.9571z" fill="#000" fill-rule="evenodd"/></g></svg>