<svg width="683" height="231" viewBox="0 0 683 231" fill="none" xmlns="http://www.w3.org/2000/svg">
<g clip-path="url(#clip0_158_1003)">
<path fill-rule="evenodd" clip-rule="evenodd" d="M594.08 109.68L578.613 107.934C569.548 106.936 567.304 104.689 567.304 101.612C567.304 98.2027 571.964 95.1256 581.023 95.1256C589.756 95.1256 594.331 98.3712 595.163 103.278H611.793C610.945 89.2211 599.146 80.4922 581.94 80.4922C561.481 80.4922 551.169 88.6393 551.169 103.024C551.169 114.75 557.989 120.242 572.129 121.738L587.842 123.399C593.83 124.065 596.576 126.395 596.576 129.388C596.576 132.798 592.582 135.875 582.937 135.875C571.793 135.875 567.304 133.046 566.557 127.39H550.257C551.004 142.694 560.98 150.508 582.356 150.508C601.897 150.508 612.79 141.944 612.79 129.055C612.79 117.827 606.307 111.092 594.08 109.68ZM233.759 135.373C242.825 135.373 248.148 131.883 248.148 123.234V82.0726H265.108V125.148C265.108 144.355 248.064 150.343 233.759 150.343C219.374 150.343 202.245 144.355 202.245 125.148V82.0726H219.209V123.234C219.209 131.714 224.946 135.373 233.759 135.373ZM0.840885 148.852L60.4128 111.795H91.316C91.5528 111.795 91.7879 111.842 92.007 111.933C92.2262 112.024 92.4251 112.157 92.5925 112.325C92.7604 112.493 92.8932 112.692 92.9833 112.912C93.074 113.131 93.1203 113.366 93.1198 113.603C93.1443 113.912 93.0772 114.22 92.9273 114.49C92.777 114.759 92.5509 114.979 92.2768 115.121L63.0174 132.663C61.1166 133.801 60.4506 136.085 60.4506 137.796L60.4213 148.852H97.6039V84.6015C97.605 84.2933 97.5432 83.9883 97.4232 83.7047C97.3027 83.421 97.1262 83.1645 96.9039 82.9513C96.6821 82.7375 96.4187 82.5711 96.1302 82.4623C95.8423 82.3536 95.5352 82.304 95.2275 82.3173H59.7468L0.318359 119.213V148.852H0.840885ZM489.218 148.847H542.771V134.458H506.184V122.404H535.621V107.93H506.184V96.7065H542.771V82.3216H489.218V148.847ZM127.07 148.847L152.599 82.3216H174.237L200.078 148.847H181.955L177.571 136.372H149.071L144.616 148.847H127.07ZM163.439 96.1584L154.12 122.235L172.602 122.244L163.439 96.1584ZM272.843 96.7065H294.3V148.847H311.265V96.7065H332.634V82.3216H272.843V96.7065ZM682.809 82.3216H662.601L638.405 109.347V82.3216H621.438L621.524 148.847H638.405V123.567L661.353 148.847H682.809L651.873 115.997L682.809 82.3216ZM418.201 82.3216H449.302C473.421 82.3216 479.739 91.7159 479.739 115.083C479.739 139.95 473.172 148.847 449.302 148.847H418.201V82.3216ZM435.134 134.467H448.621C458.866 134.467 462.44 129.219 462.423 115.083C462.423 99.6188 459.266 96.7065 448.621 96.7065H435.134V134.467ZM335.378 115.416C335.378 95.3746 347.933 80.4922 372.135 80.4922C396.415 80.4922 408.973 95.3746 408.973 115.416C408.973 135.542 396.415 150.508 372.135 150.508C347.933 150.508 335.378 135.542 335.378 115.416ZM352.675 115.416C352.675 127.891 359.579 135.542 372.135 135.542C384.775 135.542 391.593 127.891 391.593 115.416C391.593 103.193 384.779 95.4589 372.135 95.4589C359.579 95.4589 352.675 103.193 352.675 115.416Z" fill="black"/>
</g>
<defs>
<clipPath id="clip0_158_1003">
<rect width="682.491" height="231" fill="white" transform="translate(0.318359)"/>
</clipPath>
</defs>
</svg>
