<svg width="162" height="231" viewBox="0 0 162 231" fill="none" xmlns="http://www.w3.org/2000/svg">
<g clip-path="url(#clip0_158_786)">
<g clip-path="url(#clip1_158_786)">
<path fill-rule="evenodd" clip-rule="evenodd" d="M152.063 34.8682H0.119141V174.793L0.383281 174.529H0.471328V174.441L0.823516 174.089L0.99961 173.825C1.28544 173.519 1.53311 173.184 1.78216 172.848C2.07287 172.456 2.36546 172.061 2.72281 171.705C4.23946 169.84 5.6879 167.972 7.15818 166.076C7.35842 165.818 7.55907 165.559 7.76035 165.3C12.4866 159.335 17.0839 153.325 21.634 147.228C23.5501 144.548 25.6898 141.84 27.8608 139.091C32.8476 132.778 37.9995 126.257 40.9855 119.393H53.3121C53.497 123.971 54.4841 126.991 55.6358 130.514C56.1286 132.021 56.6515 133.621 57.1547 135.474C57.6367 137.002 58.1005 138.529 58.563 140.052C59.1172 141.878 59.6695 143.697 60.2489 145.502L60.6011 146.606L61.1325 148.593L61.3966 149.345L61.5727 150.096L61.7488 150.627L61.9249 151.071L62.013 151.335V151.423L66.2109 146.121C65.3472 143.947 64.4431 140.869 63.4399 137.454C61.671 131.433 59.5942 124.364 56.8874 119.346H71.3365C71.2461 121.555 71.7971 123.328 72.3806 125.205C72.6492 126.07 72.9247 126.956 73.1478 127.918C73.5167 129.141 73.8517 130.381 74.1863 131.619C74.613 133.199 75.0392 134.777 75.5345 136.314C76.4747 135.059 77.4601 133.817 78.4453 132.574C79.4042 131.365 80.3629 130.156 81.2795 128.937C81.864 128.108 82.5493 127.307 83.2411 126.498C85.0579 124.374 86.9191 122.198 87.1126 119.349H99.1751C94.4239 123.775 89.8119 129.835 85.3936 135.642C83.2382 138.474 81.129 141.246 79.0721 143.738C79.4695 144.953 79.8104 146.197 80.1504 147.438C80.4158 148.406 80.6806 149.373 80.9714 150.322C81.7182 149.352 82.4668 148.382 83.2158 147.411C86.3208 143.386 89.4335 139.351 92.4583 135.257C93.3877 133.967 94.4089 132.641 95.4526 131.285C98.3781 127.485 101.481 123.454 103.238 119.352H115.033V119.883L115.121 121.254L115.385 122.713L115.561 123.817L123.124 149.389C124.254 152.503 125.255 155.703 126.258 158.908C127.02 161.34 127.782 163.775 128.602 166.177C128.883 166.953 129.199 167.914 129.547 168.969C130.723 172.543 132.253 177.195 133.991 179.343H118.838C118.838 176.064 117.875 172.989 116.909 169.904C116.599 168.916 116.289 167.926 116.011 166.929C115.591 165.689 115.221 164.441 114.851 163.192C114.363 161.547 113.874 159.9 113.272 158.269L113.008 157.165L112.744 156.237L112.48 155.486L112.303 154.734L112.127 154.291L112.039 154.027V153.939H87.9145L84.0719 159.328L84.1599 159.416L84.248 159.86L84.5121 160.611L84.7763 161.539L85.1284 162.643C85.406 163.491 85.6768 164.354 85.9486 165.22C86.3696 166.562 86.793 167.911 87.2478 169.227C87.3672 169.605 87.4776 169.956 87.5808 170.285C88.8541 174.336 89.0411 174.931 91.5339 179.346H76.9967C76.7165 176.576 76.179 174.788 75.4195 172.262C75.3437 172.01 75.2656 171.751 75.1854 171.482C72.7987 174.045 71.0755 176.076 69.6196 179.346H58.3087L58.3064 179.333C57.7326 175.984 57.4674 174.437 56.1893 171.13C55.5472 172.008 55.0056 172.709 54.5235 173.333C53.1148 175.155 52.2147 176.32 50.7996 179.346H39.5767C43.4883 175.782 46.8017 171.431 50.0505 167.164C50.9491 165.984 51.8428 164.81 52.7429 163.662L49.916 153.986H25.9672V154.074L25.4358 154.605L25.0836 155.137L24.6402 155.75L24.1088 156.501L23.4893 157.429L22.7378 158.269C21.7045 159.698 20.6269 161.095 19.549 162.491C18.4619 163.9 17.3745 165.309 16.3324 166.753C15.6288 167.667 14.8979 168.586 14.161 169.512C11.6571 172.66 9.08367 175.896 7.2761 179.343H0.119141V196.132H161.119V34.8688L161.12 34.8682H161.119V34.8688L99.927 114.485H90.6035L152.063 34.8682ZM96.1835 143.352C99.4266 139.327 102.849 135.079 105.228 130.833L105.452 130.613V130.701L105.54 130.877V133.263L105.804 135.075L105.98 135.826L106.244 136.754L106.596 137.858L106.948 139.137C107.788 141.7 108.628 144.351 109.423 146.914H93.342C94.2508 145.751 95.2091 144.561 96.1835 143.352ZM37.2781 139.669C39.4415 137.018 41.8282 133.836 43.5074 130.833L43.6866 130.525L43.7747 130.613V131.628L43.8627 133.175L44.1269 134.987L44.303 135.738L44.5671 136.666L44.9193 137.77L45.2715 139.049C45.4982 139.767 45.7285 140.506 45.9613 141.254C46.5456 143.129 47.1459 145.056 47.7462 146.826H31.6651V146.738L31.9292 146.474L32.1934 146.121L32.6368 145.678L33.0801 145.059L33.6116 144.307C34.0903 143.687 34.5908 143.073 35.0928 142.458C35.8405 141.541 36.5914 140.621 37.2781 139.669ZM72.0912 162.287L67.7172 168.385L64.9783 159.813L69.2643 154.247C70.1039 156.942 71.0315 159.637 72.0912 162.287Z" fill="black"/>
</g>
</g>
<defs>
<clipPath id="clip0_158_786">
<rect width="161" height="231" fill="white" transform="translate(0.119141)"/>
</clipPath>
<clipPath id="clip1_158_786">
<rect width="161" height="161" fill="white" transform="translate(0.119141 35)"/>
</clipPath>
</defs>
</svg>
