<svg fill="none" height="231" viewBox="0 0 162 231" width="162" xmlns="http://www.w3.org/2000/svg" xmlns:xlink="http://www.w3.org/1999/xlink"><clipPath id="a"><path d="m.119141 0h161v231h-161z"/></clipPath><clipPath id="b"><path d="m.119141 35h161v161h-161z"/></clipPath><g clip-path="url(#a)"><g clip-path="url(#b)"><path clip-rule="evenodd" d="m152.063 34.8682h-151.943859v139.9248l.26414-.264h.088047v-.088l.352188-.352.176094-.264c.28583-.306.5335-.641.78255-.977.29071-.392.5833-.787.94065-1.143 1.51665-1.865 2.96509-3.733 4.43537-5.629.20024-.258.40089-.517.60217-.776 4.72625-5.965 9.32355-11.975 13.87365-18.072 1.9161-2.68 4.0558-5.388 6.2268-8.137 4.9868-6.313 10.1387-12.834 13.1247-19.698h12.3266c.1849 4.578 1.172 7.598 2.3237 11.121.4928 1.507 1.0157 3.107 1.5189 4.96.482 1.528.9458 3.055 1.4083 4.578.5542 1.826 1.1065 3.645 1.6859 5.45l.3522 1.104.5314 1.987.2641.752.1761.751.1761.531.1761.444.0881.264v.088l4.1979-5.302c-.8637-2.174-1.7678-5.252-2.771-8.667-1.7689-6.021-3.8457-13.09-6.5525-18.108h14.4491c-.0904 2.209.4606 3.982 1.0441 5.859.2686.865.5441 1.751.7672 2.713.3689 1.223.7039 2.463 1.0385 3.701.4267 1.58.8529 3.158 1.3482 4.695.9402-1.255 1.9256-2.497 2.9108-3.74.9589-1.209 1.9176-2.418 2.8342-3.637.5845-.829 1.2698-1.63 1.9616-2.439 1.8168-2.124 3.678-4.3 3.8715-7.149h12.0625c-4.7512 4.426-9.3632 10.486-13.7815 16.293-2.1554 2.832-4.2646 5.604-6.3215 8.096.3974 1.215.7383 2.459 1.0783 3.7.2654.968.5302 1.935.821 2.884.7468-.97 1.4954-1.94 2.2444-2.911 3.105-4.025 6.2177-8.06 9.2425-12.154.9294-1.29 1.9506-2.616 2.9943-3.972 2.9255-3.8 6.0284-7.831 7.7854-11.933h11.795v.531l.088 1.371.264 1.459.176 1.104 7.563 25.572c1.13 3.114 2.131 6.314 3.134 9.519.762 2.432 1.524 4.867 2.344 7.269.281.776.597 1.737.945 2.792 1.176 3.574 2.706 8.226 4.444 10.374h-15.153c0-3.279-.963-6.354-1.929-9.439-.31-.988-.62-1.978-.898-2.975-.42-1.24-.79-2.488-1.16-3.737-.488-1.645-.977-3.292-1.579-4.923l-.264-1.104-.264-.928-.264-.751-.177-.752-.176-.443-.088-.264v-.088h-24.1245l-3.8426 5.389.088.088.0881.444.2641.751.2642.928.3521 1.104c.2776.848.5484 1.711.8202 2.577.421 1.342.8444 2.691 1.2992 4.007.1194.378.2298.729.333 1.058 1.2733 4.051 1.4603 4.646 3.9531 9.061h-14.5372c-.2802-2.77-.8177-4.558-1.5772-7.084-.0758-.252-.1539-.511-.2341-.78-2.3867 2.563-4.1099 4.594-5.5658 7.864h-11.3109l-.0023-.013c-.5738-3.349-.839-4.896-2.1171-8.203-.6421.878-1.1837 1.579-1.6658 2.203-1.4087 1.822-2.3088 2.987-3.7239 6.013h-11.2229c3.9116-3.564 7.225-7.915 10.4738-12.182.8986-1.18 1.7923-2.354 2.6924-3.502l-2.8269-9.676h-23.9488v.088l-.5314.531-.3522.532-.4434.613-.5314.751-.6195.928-.7515.84c-1.0333 1.429-2.1109 2.826-3.1888 4.222-1.0871 1.409-2.1745 2.818-3.2166 4.262-.7036.914-1.4345 1.833-2.1714 2.759-2.5039 3.148-5.07733 6.384-6.8849 9.831h-7.156959v16.789h160.999859v-161.2632l.001-.0006h-.001v.0006l-61.192 79.6162h-9.3235zm-55.8795 108.4838c3.2431-4.025 6.6655-8.273 9.0445-12.519l.224-.22v.088l.088.176v2.386l.264 1.812.176.751.264.928.352 1.104.352 1.279c.84 2.563 1.68 5.214 2.475 7.777h-16.081c.9088-1.163 1.8671-2.353 2.8415-3.562zm-58.9054-3.683c2.1634-2.651 4.5501-5.833 6.2293-8.836l.1792-.308.0881.088v1.015l.088 1.547.2642 1.812.1761.751.2641.928.3522 1.104.3522 1.279c.2267.718.457 1.457.6898 2.205.5843 1.875 1.1846 3.802 1.7849 5.572h-16.0811v-.088l.2641-.264.2642-.353.4434-.443.4433-.619.5315-.752c.4787-.62.9792-1.234 1.4812-1.849.7477-.917 1.4986-1.837 2.1853-2.789zm34.8131 22.618-4.374 6.098-2.7389-8.572 4.286-5.566c.8396 2.695 1.7672 5.39 2.8269 8.04z" fill="#000" fill-rule="evenodd"/></g></g></svg>