<svg width="681" height="231" viewBox="0 0 681 231" fill="none" xmlns="http://www.w3.org/2000/svg">
<g clip-path="url(#clip0_158_882)">
<g clip-path="url(#clip1_158_882)">
<path d="M67.142 49.0547C49.4553 49.0547 32.4929 56.0552 19.9865 68.5161C7.48012 80.977 0.454102 97.8777 0.454102 115.5C0.454102 133.122 7.48012 150.023 19.9865 162.484C32.4929 174.945 49.4553 181.945 67.142 181.945C84.8287 181.945 101.791 174.945 114.297 162.484C126.804 150.023 133.83 133.122 133.83 115.5C133.83 97.8777 126.804 80.977 114.297 68.5161C101.791 56.0552 84.8287 49.0547 67.142 49.0547ZM38.4551 74.0603C42.5842 74.0603 46.1131 76.0758 49.0362 80.1013C51.9594 84.1323 53.4098 88.9717 53.4098 94.6362V132.067C53.4098 135.052 54.9103 136.547 57.9057 136.547H81.102C84.0918 136.547 85.5923 135.052 85.5923 132.067V114.321C85.5923 111.441 84.0918 109.957 81.102 109.852H76.6172C70.832 109.653 65.9305 108.147 61.9459 105.334C57.9502 102.527 55.9606 99.0604 55.9606 94.9408H81.102C86.4926 94.9408 91.0829 96.8344 94.873 100.611C96.711 102.388 98.1641 104.521 99.1428 106.879C100.122 109.237 100.605 111.769 100.564 114.321V132.067C100.564 137.438 98.6631 142.017 94.873 145.794C91.0829 149.57 86.487 151.447 81.102 151.447H57.9057C52.5151 151.447 47.9303 149.57 44.1402 145.794C42.3018 144.014 40.8488 141.878 39.871 139.517C38.8932 137.156 38.4113 134.621 38.4551 132.067V74.0603Z" fill="black"/>
</g>
<path d="M189.392 140.029C186.59 140.029 183.788 139.921 180.986 139.706C178.234 139.544 175.358 139.113 172.359 138.413V84.1038C174.719 83.6189 177.3 83.2687 180.102 83.0532C182.904 82.7838 185.509 82.6491 187.917 82.6491C191.162 82.6491 194.136 82.9185 196.839 83.4573C199.592 83.9422 201.952 84.8042 203.918 86.0434C205.884 87.2826 207.408 88.9259 208.49 90.9732C209.62 92.9667 210.186 95.4451 210.186 98.4084C210.186 102.88 208.219 106.409 204.287 108.995C207.531 110.342 209.743 112.174 210.923 114.491C212.103 116.808 212.693 119.421 212.693 122.33C212.693 128.203 210.726 132.621 206.794 135.584C202.91 138.547 197.11 140.029 189.392 140.029ZM183.567 114.895V129.361C184.403 129.469 185.312 129.55 186.295 129.604C187.278 129.657 188.36 129.684 189.54 129.684C192.981 129.684 195.758 129.146 197.872 128.068C199.985 126.99 201.042 124.997 201.042 122.088C201.042 119.501 200.158 117.67 198.388 116.592C196.618 115.461 194.087 114.895 190.793 114.895H183.567ZM183.567 105.278H189.171C192.71 105.278 195.242 104.793 196.766 103.823C198.29 102.799 199.052 101.183 199.052 98.9741C199.052 96.7112 198.265 95.1218 196.692 94.2059C195.119 93.29 192.809 92.832 189.761 92.832C188.778 92.832 187.721 92.859 186.59 92.9128C185.46 92.9128 184.452 92.9667 183.567 93.0745V105.278Z" fill="black"/>
<path d="M232.149 139.302H221.163V96.792H232.149V139.302ZM233.182 84.5079C233.182 86.7169 232.518 88.4679 231.191 89.761C229.913 91.0002 228.389 91.6198 226.619 91.6198C224.85 91.6198 223.301 91.0002 221.974 89.761C220.696 88.4679 220.057 86.7169 220.057 84.5079C220.057 82.2989 220.696 80.5748 221.974 79.3357C223.301 78.0426 224.85 77.3961 226.619 77.3961C228.389 77.3961 229.913 78.0426 231.191 79.3357C232.518 80.5748 233.182 82.2989 233.182 84.5079Z" fill="black"/>
<path d="M251.841 116.673C251.841 123.408 254.324 126.775 259.289 126.775C260.419 126.775 261.476 126.613 262.459 126.29C263.442 125.967 264.278 125.59 264.966 125.159V105.924C264.425 105.817 263.786 105.736 263.049 105.682C262.312 105.574 261.451 105.52 260.468 105.52C257.568 105.52 255.405 106.571 253.98 108.672C252.554 110.773 251.841 113.44 251.841 116.673ZM275.953 133.968C275.953 140.918 274.33 146.063 271.086 149.404C267.891 152.798 262.926 154.495 256.192 154.495C253.832 154.495 251.473 154.253 249.113 153.768C246.754 153.337 244.566 152.744 242.551 151.99L244.468 141.888C246.188 142.642 247.982 143.235 249.85 143.666C251.768 144.097 253.93 144.312 256.339 144.312C259.485 144.312 261.697 143.558 262.975 142.049C264.302 140.541 264.966 138.601 264.966 136.23V134.695C263.786 135.288 262.557 135.746 261.279 136.069C260.05 136.338 258.699 136.473 257.224 136.473C251.866 136.473 247.761 134.749 244.91 131.301C242.059 127.799 240.634 122.923 240.634 116.673C240.634 113.548 241.076 110.719 241.961 108.187C242.846 105.601 244.124 103.392 245.795 101.56C247.515 99.7284 249.605 98.3275 252.062 97.3577C254.52 96.3341 257.298 95.8222 260.395 95.8222C261.722 95.8222 263.074 95.903 264.45 96.0647C265.876 96.1724 267.276 96.3341 268.653 96.5496C270.029 96.7651 271.332 97.0345 272.561 97.3577C273.839 97.6271 274.97 97.9235 275.953 98.2467V133.968Z" fill="black"/>
<path d="M304.027 140.029C301.225 140.029 298.423 139.921 295.622 139.706C292.869 139.544 289.993 139.113 286.994 138.413V84.1038C289.354 83.6189 291.935 83.2687 294.737 83.0532C297.539 82.7838 300.144 82.6491 302.553 82.6491C305.797 82.6491 308.771 82.9185 311.475 83.4573C314.227 83.9422 316.587 84.8042 318.553 86.0434C320.519 87.2826 322.043 88.9259 323.125 90.9732C324.255 92.9667 324.821 95.4451 324.821 98.4084C324.821 102.88 322.854 106.409 318.922 108.995C322.166 110.342 324.378 112.174 325.558 114.491C326.738 116.808 327.328 119.421 327.328 122.33C327.328 128.203 325.361 132.621 321.429 135.584C317.545 138.547 311.745 140.029 304.027 140.029ZM298.202 114.895V129.361C299.038 129.469 299.947 129.55 300.93 129.604C301.914 129.657 302.995 129.684 304.175 129.684C307.616 129.684 310.393 129.146 312.507 128.068C314.621 126.99 315.677 124.997 315.677 122.088C315.677 119.501 314.793 117.67 313.023 116.592C311.253 115.461 308.722 114.895 305.428 114.895H298.202ZM298.202 105.278H303.806C307.345 105.278 309.877 104.793 311.401 103.823C312.925 102.799 313.687 101.183 313.687 98.9741C313.687 96.7112 312.9 95.1218 311.327 94.2059C309.754 93.29 307.444 92.832 304.396 92.832C303.413 92.832 302.356 92.859 301.225 92.9128C300.095 92.9128 299.087 92.9667 298.202 93.0745V105.278Z" fill="black"/>
<path d="M351.282 140.11C348.087 140.056 345.482 139.679 343.466 138.978C341.5 138.278 339.927 137.308 338.747 136.069C337.617 134.776 336.83 133.24 336.388 131.462C335.995 129.63 335.798 127.583 335.798 125.32V78.5275L346.784 76.5879V122.896C346.784 123.973 346.858 124.943 347.006 125.805C347.153 126.667 347.424 127.395 347.817 127.987C348.259 128.58 348.874 129.065 349.66 129.442C350.447 129.819 351.504 130.061 352.831 130.169L351.282 140.11Z" fill="black"/>
<path d="M392.235 137.847C390.367 138.439 387.959 138.978 385.009 139.463C382.06 140.002 378.963 140.271 375.719 140.271C372.425 140.271 369.672 139.786 367.46 138.817C365.297 137.847 363.577 136.5 362.299 134.776C361.021 132.998 360.111 130.897 359.571 128.472C359.03 126.048 358.76 123.381 358.76 120.471V96.792H369.746V119.017C369.746 122.896 370.213 125.697 371.147 127.421C372.081 129.146 373.826 130.008 376.382 130.008C377.169 130.008 378.004 129.981 378.889 129.927C379.774 129.819 380.561 129.711 381.249 129.604V96.792H392.235V137.847Z" fill="black"/>
<path d="M400.705 118.37C400.705 114.599 401.221 111.312 402.253 108.51C403.335 105.655 404.736 103.284 406.456 101.399C408.177 99.5128 410.143 98.0851 412.355 97.1153C414.616 96.1455 416.927 95.6606 419.286 95.6606C424.792 95.6606 429.142 97.5194 432.337 101.237C435.533 104.901 437.13 110.315 437.13 117.481C437.13 118.181 437.106 118.963 437.056 119.825C437.007 120.633 436.958 121.36 436.909 122.007H411.987C412.232 124.485 413.289 126.452 415.157 127.906C417.025 129.361 419.532 130.088 422.678 130.088C424.694 130.088 426.66 129.9 428.577 129.523C430.543 129.092 432.141 128.58 433.37 127.987L434.844 137.766C434.255 138.089 433.468 138.413 432.485 138.736C431.502 139.059 430.396 139.328 429.167 139.544C427.987 139.813 426.709 140.029 425.333 140.19C423.956 140.352 422.58 140.433 421.203 140.433C417.713 140.433 414.666 139.867 412.06 138.736C409.504 137.604 407.366 136.069 405.645 134.129C403.974 132.136 402.72 129.792 401.885 127.098C401.098 124.404 400.705 121.495 400.705 118.37ZM426.512 113.763C426.463 112.74 426.291 111.743 425.996 110.773C425.75 109.803 425.333 108.941 424.743 108.187C424.202 107.433 423.489 106.813 422.604 106.328C421.769 105.843 420.712 105.601 419.434 105.601C418.205 105.601 417.148 105.843 416.263 106.328C415.378 106.759 414.641 107.352 414.051 108.106C413.461 108.861 412.994 109.75 412.65 110.773C412.355 111.743 412.134 112.74 411.987 113.763H426.512Z" fill="black"/>
<path d="M463.379 140.029C460.577 140.029 457.775 139.921 454.973 139.706C452.22 139.544 449.345 139.113 446.346 138.413V84.1038C448.705 83.6189 451.286 83.2687 454.088 83.0532C456.89 82.7838 459.495 82.6491 461.904 82.6491C465.148 82.6491 468.122 82.9185 470.826 83.4573C473.579 83.9422 475.938 84.8042 477.905 86.0434C479.871 87.2826 481.395 88.9259 482.476 90.9732C483.607 92.9667 484.172 95.4451 484.172 98.4084C484.172 102.88 482.206 106.409 478.273 108.995C481.518 110.342 483.73 112.174 484.909 114.491C486.089 116.808 486.679 119.421 486.679 122.33C486.679 128.203 484.713 132.621 480.78 135.584C476.897 138.547 471.096 140.029 463.379 140.029ZM457.554 114.895V129.361C458.389 129.469 459.299 129.55 460.282 129.604C461.265 129.657 462.346 129.684 463.526 129.684C466.967 129.684 469.745 129.146 471.858 128.068C473.972 126.99 475.029 124.997 475.029 122.088C475.029 119.501 474.144 117.67 472.374 116.592C470.605 115.461 468.073 114.895 464.78 114.895H457.554ZM457.554 105.278H463.158C466.697 105.278 469.228 104.793 470.752 103.823C472.276 102.799 473.038 101.183 473.038 98.9741C473.038 96.7112 472.252 95.1218 470.679 94.2059C469.106 93.29 466.795 92.832 463.747 92.832C462.764 92.832 461.707 92.859 460.577 92.9128C459.446 92.9128 458.439 92.9667 457.554 93.0745V105.278Z" fill="black"/>
<path d="M528.256 137.847C526.389 138.439 523.98 138.978 521.03 139.463C518.081 140.002 514.984 140.271 511.74 140.271C508.446 140.271 505.694 139.786 503.481 138.817C501.319 137.847 499.598 136.5 498.32 134.776C497.042 132.998 496.133 130.897 495.592 128.472C495.051 126.048 494.781 123.381 494.781 120.471V96.792H505.767V119.017C505.767 122.896 506.234 125.697 507.168 127.421C508.102 129.146 509.847 130.008 512.403 130.008C513.19 130.008 514.026 129.981 514.91 129.927C515.795 129.819 516.582 129.711 517.27 129.604V96.792H528.256V137.847Z" fill="black"/>
<path d="M538.201 86.2051L549.187 84.2655V96.792H562.386V106.813H549.187V121.764C549.187 124.297 549.581 126.317 550.367 127.826C551.203 129.334 552.85 130.088 555.307 130.088C556.487 130.088 557.692 129.981 558.92 129.765C560.199 129.496 561.354 129.146 562.386 128.715L563.935 138.089C562.607 138.682 561.133 139.194 559.51 139.625C557.888 140.056 555.897 140.271 553.538 140.271C550.539 140.271 548.057 139.84 546.091 138.978C544.124 138.062 542.551 136.823 541.372 135.261C540.192 133.644 539.356 131.705 538.865 129.442C538.422 127.179 538.201 124.674 538.201 121.926V86.2051Z" fill="black"/>
<path d="M570.964 86.2051L581.951 84.2655V96.792H595.149V106.813H581.951V121.764C581.951 124.297 582.344 126.317 583.13 127.826C583.966 129.334 585.613 130.088 588.071 130.088C589.25 130.088 590.455 129.981 591.684 129.765C592.962 129.496 594.117 129.146 595.149 128.715L596.698 138.089C595.37 138.682 593.896 139.194 592.274 139.625C590.651 140.056 588.661 140.271 586.301 140.271C583.302 140.271 580.82 139.84 578.854 138.978C576.887 138.062 575.314 136.823 574.135 135.261C572.955 133.644 572.119 131.705 571.628 129.442C571.185 127.179 570.964 124.674 570.964 121.926V86.2051Z" fill="black"/>
<path d="M638.933 117.966C638.933 121.306 638.491 124.377 637.606 127.179C636.721 129.927 635.443 132.297 633.772 134.291C632.101 136.23 630.085 137.739 627.726 138.817C625.415 139.894 622.81 140.433 619.91 140.433C617.059 140.433 614.453 139.894 612.094 138.817C609.784 137.739 607.793 136.23 606.121 134.291C604.45 132.297 603.147 129.927 602.213 127.179C601.279 124.377 600.812 121.306 600.812 117.966C600.812 114.626 601.279 111.581 602.213 108.834C603.197 106.086 604.524 103.742 606.195 101.803C607.916 99.8631 609.931 98.3545 612.241 97.2769C614.601 96.1994 617.157 95.6606 619.91 95.6606C622.712 95.6606 625.268 96.1994 627.578 97.2769C629.938 98.3545 631.953 99.8631 633.625 101.803C635.296 103.742 636.599 106.086 637.533 108.834C638.467 111.581 638.933 114.626 638.933 117.966ZM627.726 117.966C627.726 114.248 627.038 111.339 625.661 109.238C624.334 107.083 622.417 106.005 619.91 106.005C617.403 106.005 615.461 107.083 614.085 109.238C612.708 111.339 612.02 114.248 612.02 117.966C612.02 121.684 612.708 124.647 614.085 126.856C615.461 129.011 617.403 130.088 619.91 130.088C622.417 130.088 624.334 129.011 625.661 126.856C627.038 124.647 627.726 121.684 627.726 117.966Z" fill="black"/>
<path d="M647.444 98.2467C649.312 97.6541 651.721 97.1153 654.67 96.6304C657.62 96.0916 660.716 95.8222 663.961 95.8222C667.254 95.8222 669.983 96.3071 672.145 97.2769C674.357 98.1928 676.103 99.5128 677.381 101.237C678.659 102.961 679.568 105.008 680.109 107.379C680.65 109.75 680.92 112.39 680.92 115.299V139.302H669.933V116.754C669.933 112.875 669.466 110.127 668.532 108.51C667.598 106.894 665.853 106.086 663.297 106.086C662.511 106.086 661.675 106.14 660.79 106.248C659.905 106.301 659.119 106.382 658.431 106.49V139.302H647.444V98.2467Z" fill="black"/>
</g>
<defs>
<clipPath id="clip0_158_882">
<rect width="680.466" height="231" fill="white" transform="translate(0.454102)"/>
</clipPath>
<clipPath id="clip1_158_882">
<rect width="133.376" height="132.891" fill="white" transform="translate(0.454102 49.0547)"/>
</clipPath>
</defs>
</svg>
