<svg fill="none" height="231" viewBox="0 0 442 231" width="442" xmlns="http://www.w3.org/2000/svg" xmlns:xlink="http://www.w3.org/1999/xlink"><clipPath id="a"><path d="m.381836 0h440.889v231h-440.889z"/></clipPath><g clip-path="url(#a)" fill="#000"><path d="m.381836 125.089c0-2.503 0-5.006.077503-7.659.550921-5.142 1.599011-10.007 3.485381-14.66 4.17743-10.3038 10.68818-18.6437 20.74288-23.7763 8.9586-4.5732 18.6115-4.9467 28.3755-4.0503 6.2868.5771 12.252 2.529 18.1832 4.6012 5.2539 1.8355 10.5112 3.6922 15.859 5.2167 3.1492.8977 6.4776 1.1664 9.7126 1.7738 2.5517.0836 5.1161.1118 7.6811.1315.011.0001.023-.1217.122-.2276 4.57-.3588 8.949-1.2112 13.215-2.6182 7.196-2.3733 13.713-6.0886 20.037-10.1807 6.681-4.3229 13.271-8.7938 20.063-12.9352 8.633-5.2647 17.976-8.7148 28.065-9.981 1.397-.1753 2.789-.3898 4.184-.5862 2.576 0 5.153 0 7.871.0741.404.1701.66.3204.93.3537 3.003.3702 6.035.5769 9.006 1.116 3.688.6691 7.326 1.6111 10.987 2.4314.988.2213 1.978.4291 2.962.6484-.005.0053-.005-.01.022.0637 1.774.616 3.521 1.1582 5.265 1.7043-.005.0037-.007-.0074.021.0657.821.3201 1.613.5671 2.401.8171-.003.0031-.006-.0062.035.0593 1.703.7576 3.355 1.4775 5.033 2.1326 1.239.4838 2.51.8831 3.761 1.3255-.007.0055-.006-.012.02.0631.376.1787.726.2823 1.071.3886-.004.0027-.007-.0067.019.0649 1.041.4668 2.055.8619 3.065 1.259-.003.002-.006-.0057.019.0665.677.3164 1.327.5605 1.972.8088-.005.0042-.006-.0101.019.0626.673.3208 1.321.5688 1.964.8205-.006.0038-.007-.0096.019.0628.674.3204 1.321.5683 1.964.82-.005.0038-.006-.0088.018.0639.67.3226 1.316.5725 1.959.823-.002.0006-.006-.0034.023.0691.315.1644.601.2563.879.3513-.009.0031-.012-.0144.025.0539.675.3247 1.314.5812 1.947.8418-.005.0041-.006-.0096.018.0633.668.324 1.313.5751 1.956.8258-.002-.0004-.005-.002.023.0702.314.1652.599.2582.876.3545-.008.0031-.011-.0129.025.0554.675.3248 1.313.5813 1.947.8401-.004.0023-.007-.0062.018.0655.971.4628 1.916.8539 2.855 1.2486-.007.0036-.009-.0115.029.0554.678.3207 1.317.5745 1.951.8319-.005.0036-.006-.0085.018.0643.672.3208 1.319.569 1.963.8197-.004.0026-.006-.0064.019.0659.674.3184 1.323.5644 1.968.814-.005.0035-.007-.0081.019.0643.677.3168 1.327.5613 1.971.8106-.006.005-.006-.0114.021.0631.374.1801.721.2857 1.066.3899-.001-.0013-.005-.0005.023.0709.68.3119 1.333.5523 1.978.7974-.007.0046-.007-.0119.02.063.376.1788.725.2826 1.071.3886-.004.002-.006-.0051.021.0663 1.613.7742 3.179 1.5316 4.795 2.1625 1.305.5099 2.67.8674 4.004 1.296-.004.0036-.006-.0071.034.0588 1.634.6106 3.228 1.1553 4.817 1.704-.004.004-.005-.0072.025.0675.451.1756.871.2766 1.29.3773-.001-.0004-.004-.0009.026.0715.145.1565.248.2806.377.3188 3.911 1.1595 7.813 2.3553 11.743 3.4448 2.074.5749 4.186 1.0419 6.305 1.4131 2.366.4142 4.755.7114 7.143.9741 2.905.3196 5.823.7962 8.729.7603 4.196-.0518 8.397-.4014 12.576-.8201 2.782-.2787 5.551-.8048 8.288-1.3964 2.244-.4851 4.442-1.1969 6.639-1.8757.947-.2925 1.841-.7555 2.759-1.1343-.001.0066-.01-.0028.082.0027.917-.2945 1.741-.5945 2.563-.8873-.001.0073-.012-.0018.079.0039 2.482-.7864 4.874-1.5767 7.26-2.3796.075-.0251.106-.18.157-.2675-.001.0068-.012-.0021.079.0031.845-.2912 1.598-.5877 2.35-.8798-.002.0044-.009-.0013.082.0033 1.234-.3241 2.388-.6184 3.514-.997.519-.1747.983-.5142 1.471-.7729-.001.0061-.01-.002.079.0035.474-.1464.859-.2985 1.243-.4444-.001.0061-.01-.0023.082.0027 1.43-.4417 2.767-.8884 4.104-1.3278 0 .0071-.01-.0038.084.0025 2.931-.6318 5.75-1.3691 8.609-1.8801 2.903-.5188 5.837-1.0257 8.774-1.1487 2.98-.1247 5.979.22 8.97.3706 3.053.1537 5.928 1.0914 8.803 2.0265 1.557.5065 3.113 1.0138 4.668 1.521-.002.0002-.006-.003.023.0693.313.166.597.2599.874.3576-.007.0039-.008-.0126.018.0616.309.1732.592.2722.868.3751-.008.0038-.008-.0135.016.0607.303.1785.582.283.855.3911-.006.0037-.006-.0105.016.0618.529.318 1.036.5637 1.534.8124-.007.0032-.007-.0135.012.0605.599.3959 1.18.7178 1.752 1.0424-.01.0027-.013-.0162.021.0479.238.1737.441.2833.637.3952-.008.0023-.011-.0137.022.0499.235.1748.436.286.631.3993-.005.0023-.005-.0093.012.0661.304.2464.592.4173.873.591-.006.0029-.004-.0114.014.0613.263.2148.508.3571.739.5061-.014.0067-.01-.0236.011.0407.133.1315.245.1986.348.267-.008.0012-.007-.0154.01.0576.255.2299.493.3869.712.5491-.02.0052-.019-.0363.011.0163.101.0863.173.12.206.1891-.038.0353.031-.0424.049.0238.129.1382.24.2102.396.2925.104.0433.137.0938.172.2161.096.1036.163.1527.216.2006-.013-.0011-.008-.0261.002.0506.888.9141 1.767 1.7517 2.636 2.5917-.011.0024-.014-.0188.014.0325.088.1006.147.1499.198.1987-.009-.0006-.008-.0187.017.0323.085.0977.144.1444.197.1913-.006.0003-.004-.0114.013.0535.118.1462.218.2276.3.3113-.019.0023-.009-.0346-.003.0427.206.2758.406.4744.593.6744-.013.0014-.013-.0236.013.0296.082.1055.14.1578.19.2094-.007-.0007-.004-.015.011.0505.113.1472.211.2289.286.327-.024.0165.014-.027.011.0474.13.2005.263.3266.44.4703.097.0622.121.1191.127.2609.163.2493.317.4257.46.6006-.011-.0015-.006-.0225.006.0448.109.154.206.2408.288.3355-.016.0079.003-.0216-.002.0503.115.2012.235.3306.35.4595-.004-.0005-.001-.0092.002.0658.151.248.299.421.441.5938-.005-.0003 0-.0107.001.0641.146.2509.291.4268.435.6012-.002-.0015-.002-.0059.009.0595.089.1692.168.273.234.3733-.012-.0035-.003-.027.001.0532.225.4007.446.7213.658 1.042-.008.0002-.002-.0156-.003.0668.289.5516.58 1.0206.867 1.4886-.004-.001 0-.0087-.002.0715.149.3235.299.5667.444.8092-.005-.0008.001-.0098-.002.0702.144.326.291.5719.438.816 0-.0019-.002-.0053-.003.0819.592 1.4986 1.186 2.9101 1.774 4.3201-.006-.001.002-.011-.003.078.146.474.298.86.444 1.244-.006-.001.002-.011-.004.083.014.386-.014.69.062.966.901 3.303 1.635 6.629 1.775 10.074.046 1.149.383 2.287.587 3.43 0 1.694 0 3.389-.078 5.233-.312 1.894-.476 3.651-.79 5.381-2.591 14.284-9.47 25.858-21.411 34.375-16.359 11.669-34.817 16.651-54.608 17.624-10.411.512-20.786-.112-31.145-.964-10.865-.895-21.709-2.047-32.565-3.05-10.345-.955-20.681-2.059-31.045-2.743-12.128-.8-24.276-1.367-36.424-1.755-11.969-.383-23.95-.323-35.912.397-6.083.366-12.164.822-18.233 1.371-5.921.536-11.829 1.218-17.737 1.882-6.565.737-13.12 1.555-19.685 2.284-6.055.672-12.11 1.367-18.18 1.878-5.889.496-11.798.769-17.697 1.149-.153.01-.298.135-.447.205-6.398 0-12.7955 0-19.343-.082-4.3863-.462-8.6349-.739-12.8564-1.241-9.8208-1.17-19.4076-3.387-28.6873-6.839-11.0786-4.121-21.197-9.822-29.741-18.123-7.13039-6.927-11.78336-15.176-13.55496-24.996-.269396-1.494-.500623-2.994-.749504-4.491zm364.280164-7.483c-.176.079-.351.158-.535.216 0 0 .016.016-.157.005-.387.149-.775.298-1.169.427 0 0 .012.018-.163-.014-.169-.429-.48-.856-.484-1.286-.038-3.881-.015-7.761-.033-11.642-.002-.459-.143-.917-.423-1.406-1.603 0-3.206 0-4.89 0v14.723c-4.747-1.534-9.362-3.025-14.072-4.547-.537 1.66-1.05 3.243-1.581 4.88 4.716 1.538 9.32 3.039 14.021 4.571-2.954 4.07-5.789 7.978-8.66 11.935 1.438 1.043 2.763 2.004 4.157 3.015 2.923-4.011 5.781-7.932 8.686-11.92 2.936 4.033 5.78 7.94 8.679 11.923 1.442-1.046 2.787-2.022 4.162-3.02-2.933-4.039-5.764-7.938-8.669-11.938 4.781-1.556 9.366-3.049 14.031-4.568-.551-1.681-1.07-3.266-1.596-4.871-.456.146-.804.258-1.152.368-3.108.983-6.216 1.965-9.479 2.942-.187.078-.374.155-.547.206 0 0 .026.013-.126.001zm-157.536 32.533c.253.029.506.083.759.083 8.09.004 16.179.005 24.269-.004.318-.001.637-.11 1.031-.248-.001-.135-.002-.27-.023-.612-.022-1.542-.044-3.084-.187-4.739-.395-.047-.791-.131-1.186-.134-2.129-.013-4.258-.002-6.387-.008-1.416-.003-1.476-.062-1.477-1.505-.003-6.571.003-13.141-.004-19.712-.004-4.625-.025-9.249-.173-13.963-.386-.084-.772-.239-1.159-.24-4.713-.017-9.426-.02-14.139.005-.355.002-.71.238-1.23.464-.016 1.477-.049 2.953-.03 4.429.002.201.264.398.566.684 2.677.03 5.355.08 8.032.078.789 0 1.118.256 1.117 1.079-.018 9.181-.016 18.361-.004 27.541.001.841-.336 1.196-1.181 1.186-1.982-.025-3.966-.027-5.948-.002-3.602.045-3.226-.567-3.219 3.202.001.693.217 1.385.368 2.094 0 0-.009.037.002.147.015.034.029.068.203.175zm-10.182-5.579c-.41-.095-.819-.271-1.23-.274-2.828-.024-5.655-.012-8.483-.013-1.672-.001-1.673-.002-1.673-1.714-.001-16.598.002-33.196-.013-49.7945 0-.5213-.183-1.0425-.359-1.6444-.034-.0666-.069-.1332-.242-.3104-.214-.0403-.427-.1156-.641-.1158-5.352-.0071-10.703-.0103-16.055.0037-.309.0008-.618.1525-1.003.381-.021 1.5643-.052 3.1286-.047 4.6929 0 .1351.236.2694.48.5234.397.0431.793.1219 1.19.1235 2.754.0111 5.508.0349 8.261-.0091.979-.0156 1.371.2913 1.37 1.3198-.023 15.1639-.022 30.3269-.002 45.4909.001.966-.356 1.285-1.298 1.273-3.083-.037-6.168-.021-9.252-.003-.358.002-.716.147-1.153.419.022 1.684.043 3.368.196 5.17.359.05.717.141 1.076.142 9.255.007 18.51.008 27.764-.006.382-.001.764-.158 1.251-.39-.022-1.703-.045-3.406-.137-5.265zm-68.452-13.695c.624-.011 1.248-.033 1.872-.033 8.339-.002 16.677.003 25.015-.011.496-.001.991-.145 1.608-.363.375-3.168.171-6.312-.586-9.397-1.21-4.934-3.76-8.907-8.514-11.141-8.441-3.966-18.907-.342-23.195 8.044-2.543 4.975-3.039 10.296-2.415 15.76.55 4.821 2.356 9.065 5.991 12.407 3.674 3.377 8.231 4.508 13.006 4.883 1.485.117 3.03-.31 4.526-.601 4.043-.788 7.497-2.634 10.21-5.846-.609-.612-1.189-1.17-1.74-1.757-.546-.583-1.061-1.194-1.613-1.819-.524.493-.838.795-1.159 1.09-6.76 6.181-17.964 4.095-21.626-4.033-1.023-2.27-1.48-4.672-1.38-7.183zm165.352.327c.516-.12 1.032-.344 1.549-.345 8.443-.022 16.887-.012 25.33-.026.496-.001.993-.141 1.629-.344-.127-2.847.001-5.734-.442-8.531-.653-4.125-2.512-7.732-5.92-10.353-8.174-6.287-21.053-3.154-25.916 6.334-2.526 4.928-3.061 10.208-2.455 15.639.537 4.817 2.295 9.076 5.889 12.451 3.669 3.446 8.255 4.812 13.063 4.956 4.075.122 8.058-.981 11.487-3.413 1.203-.852 2.26-1.91 3.126-2.654-1.203-1.355-2.262-2.549-3.335-3.758-.385.363-.699.67-1.023.964-4.704 4.269-12.446 4.751-17.528 1.001-3.941-2.909-5.306-7.103-5.454-11.921zm-17.925 15.153c.635-.592 1.271-1.184 1.967-1.833-1.289-1.492-2.493-2.886-3.78-4.376-.38.43-.626.757-.918 1.033-7.25 6.856-18.452 4.535-22.349-4.64-1.55-3.653-1.816-7.456-1.13-11.335 1.214-6.868 6.772-11.575 13.485-11.331 4.511.164 7.996 2.385 10.838 5.758.2.238.412.467.66.747 1.008-1.175 1.859-2.346 2.895-3.321.943-.887.721-1.502-.007-2.346-3.349-3.887-7.629-5.898-12.68-6.233-7.204-.478-13.336 1.792-17.827 7.614-3.918 5.079-4.945 10.949-4.074 17.188.749 5.363 3.078 9.939 7.33 13.376 7.299 5.9 17.642 5.785 25.59-.301zm-191.6447-42.446c-.4646 0-.9291 0-1.4765 0v14.729c-4.7468-1.534-9.3594-3.024-14.066-4.545-.536 1.65-1.0505 3.234-1.5852 4.879 4.7099 1.536 9.3162 3.037 14.0213 4.571-2.9444 4.056-5.7809 7.963-8.6628 11.933 1.4221 1.031 2.7463 1.992 4.161 3.018 2.9127-4.002 5.7716-7.93 8.6782-11.923 2.9359 4.028 5.7978 7.954 8.6929 11.926 1.4548-1.059 2.7755-2.021 4.1521-3.023-2.9131-4.012-5.7472-7.915-8.6651-11.933 4.7588-1.551 9.3677-3.054 14.0358-4.575-.562-1.7-1.083-3.277-1.611-4.873-4.7276 1.53-9.3175 3.016-14.0609 4.551 0-5 0-9.825 0-14.735-1.2068 0-2.3014 0-3.6138 0zm-33.4842 1.376c-6.7375 14.554-13.475 29.108-20.2332 43.707 1.7635.876 3.4175 1.698 5.1306 2.55 9.1392-19.67 18.2242-39.222 27.3255-58.8104-1.79-.903-3.4525-1.7417-5.2031-2.6249-2.342 5.0615-4.6472 10.0433-7.0198 15.1783zm355.3759-9.243c-8.166 17.636-16.332 35.273-24.516 52.95 1.781.887 3.412 1.701 5.126 2.555 9.115-19.616 18.203-39.173 27.329-58.8105-1.763-.8919-3.444-1.7421-5.193-2.6273-.929 1.9983-1.807 3.8879-2.746 5.9328zm-181.46-1.7732c-1.242-2.0491-3.206-2.9349-5.303-2.3923-1.893.4898-3.321 2.2113-3.425 4.1281-.1 1.8641.906 3.5807 2.572 4.3874 1.699.822 3.753.528 5.134-.7338 1.461-1.335 1.845-3.1752 1.022-5.3894z"/><path d="m288.31 82.1758c3.833 1.0476 7.674 2.2566 11.565 3.2702 10.368 2.7006 20.897 3.8712 31.607 3.007 7.162-.578 14.085-2.2928 20.893-4.5265.104-.0341.213-.052.407-.0752-.831.3879-1.725.8509-2.672 1.1434-2.198.6788-4.396 1.3906-6.639 1.8757-2.737.5916-5.506 1.1177-8.289 1.3964-4.179.4187-8.38.7683-12.575.8201-2.907.0359-5.824-.4407-8.729-.7603-2.388-.2627-4.777-.5599-7.143-.9741-2.12-.3712-4.232-.8382-6.305-1.4131-3.931-1.0895-7.832-2.2853-11.743-3.4448-.129-.0382-.232-.1623-.377-.3188z"/><path d="m207.677 114.596c3.072-.043 6.224-.043 9.471-.043v30.217c-3.386 0-6.747 0-10.239 0 0 1.682 0 3.253-.011 4.927-.127-.588-.343-1.281-.344-1.974-.006-3.769-.383-3.157 3.219-3.202 1.982-.025 3.966-.023 5.949.002.845.01 1.181-.345 1.18-1.186-.012-9.18-.013-18.36.004-27.541.001-.823-.328-1.079-1.117-1.079-2.677.003-5.355-.047-8.112-.121z"/><path d="m196.979 144.639c-3.852.078-7.738.078-11.768.078 0-17.814 0-35.571.027-53.4221.125.4271.307.9483.308 1.4696.015 16.5985.012 33.1965.012 49.7945 0 1.712.002 1.713 1.674 1.714 2.827.001 5.655-.011 8.482.013.411.003.821.179 1.265.353z"/><path d="m167.62 96.2354c3.609-.0596 7.277-.0596 11.03-.0596v48.5652c-3.834 0-7.707 0-11.678-.012.26-.091.617-.237.976-.239 3.084-.018 6.168-.034 9.252.004.942.011 1.299-.308 1.298-1.274-.02-15.163-.021-30.327.001-45.4908.002-1.0285-.39-1.3353-1.37-1.3197-2.753.0439-5.507.0201-8.26.009-.397-.0016-.794-.0804-1.249-.1831z"/><path d="m376.098 75.9249c3.806-.9476 7.668-2.1113 11.614-2.785 8.799-1.5024 17.433-.714 25.784 2.577.781.3078 1.545.6591 2.372 1.0437-1.501-.4535-3.058-.9608-4.615-1.4673-2.875-.9352-5.75-1.8728-8.803-2.0266-2.99-.1505-5.99-.4952-8.97-.3705-2.937.123-5.871.6299-8.774 1.1487-2.859.511-5.678 1.2483-8.608 1.88z"/><path d="m223.7 144.626c-.026-.437-.074-.873-.074-1.309-.004-10.79-.003-21.58-.003-32.37 0-.47 0-.94 0-1.512-5.413 0-10.724 0-16.137-.004.253-.132.607-.368.963-.37 4.713-.024 9.426-.022 14.138-.005.387.001.773.157 1.191.372.012.608-.021 1.083-.021 1.558-.003 10.738-.002 21.476-.005 32.214 0 .476-.034.951-.052 1.426z"/><path d="m223.794 144.675c-.074-.524-.04-.999-.04-1.474.003-10.738.002-21.476.005-32.214 0-.475.033-.951.088-1.513.049 4.537.07 9.161.075 13.786.007 6.571 0 13.141.004 19.712 0 1.443.06 1.502 1.476 1.505 2.129.006 4.258-.005 6.387.008.396.003.791.088 1.247.191-3.009.053-6.079.05-9.242-.001z"/><path d="m166.924 150.02c9.909-.066 19.883-.074 29.954-.064-.285.101-.667.259-1.049.259-9.254.014-18.509.014-27.764.006-.359 0-.717-.092-1.141-.201z"/><path d="m293.786 131.26c-.241-.388-.237-.731.402-.693.146.009.293 0 .44 0 9.128.002 18.256.004 27.485.021-.396.091-.893.232-1.389.233-8.444.013-16.887.003-25.33.025-.517.002-1.033.225-1.608.414z"/><path d="m128.395 130.881c.227-.093.553-.299.879-.299 9.132-.016 18.263-.011 27.494.004-.397.091-.892.234-1.388.235-8.338.014-16.676.009-25.014.011-.625 0-1.249.022-1.971.049z"/><path d="m206.918 149.909c8.509-.044 17.023-.032 25.538-.028.209 0 .418-.096.677-.232.051.051.052.186-.082.361-8.783.046-17.433.051-26.083.056-.015-.034-.03-.068-.05-.157z"/><path d="m207.048 150.102c8.57-.041 17.22-.046 25.966-.052-.222.058-.54.167-.859.168-8.089.009-16.179.008-24.269.004-.253-.001-.506-.054-.838-.12z"/><path d="m185.013 90.8647c-5.787.0623-11.643.0694-17.595.0715.212-.0865.521-.2382.83-.239 5.351-.0139 10.703-.0107 16.055-.0037.213.0003.427.0756.71.1712z"/><path d="m273.319 76.4375c2.879 1.069 5.784 2.2094 8.746 3.4024-1.28-.3725-2.645-.73-3.95-1.2399-1.616-.6309-3.182-1.3883-4.796-2.1625z"/><path d="m355.593 82.9791c2.354-.889 4.8-1.7724 7.331-2.6549.034.0953.003.2502-.071.2753-2.387.8028-4.778 1.5931-7.26 2.3796z"/><path d="m365.521 79.459c1.544-.5967 3.179-1.1887 4.9-1.7783-.403.2672-.867.6066-1.387.7813-1.126.3786-2.28.6729-3.513.997z"/><path d="m96.8164 86.5345c2.5194-.0675 5.0256-.0793 7.6236-.0731.08.0829.068.2047.057.2046-2.564-.0196-5.1288-.0479-7.6806-.1315z"/><path d="m282.152 79.9551c1.541.4881 3.121 1.0421 4.761 1.648-1.533-.4928-3.127-1.0374-4.761-1.648z"/><path d="m436.635 97.3994c.596 1.3255 1.19 2.7386 1.782 4.2366-.595-1.327-1.19-2.738-1.782-4.2366z"/><path d="m426.971 84.1279c.86.7646 1.73 1.6057 2.623 2.5181-.856-.7664-1.735-1.6039-2.623-2.5181z"/><path d="m371.91 77.2516c1.249-.4513 2.589-.8977 4.017-1.3395-1.25.4511-2.587.8978-4.017 1.3395z"/><path d="m363.088 80.3353c.666-.2995 1.423-.5937 2.266-.8861-.669.2984-1.422.5949-2.266.8861z"/><path d="m352.949 83.8626c.736-.3034 1.565-.6012 2.479-.8968-.738.3022-1.562.6023-2.479.8968z"/><path d="m420.138 79.0654c.55.254 1.118.5819 1.724.9748-.544-.257-1.125-.5789-1.724-.9748z"/><path d="m267.147 73.7881c.608.1817 1.242.4358 1.927.7478-.6-.1865-1.25-.431-1.927-.7478z"/><path d="m270.228 75.1221c.609.1777 1.246.427 1.934.7344-.602-.1821-1.254-.4226-1.934-.7344z"/><path d="m418.592 78.1924c.472.1795.966.4315 1.501.7463-.466-.1827-.972-.4283-1.501-.7463z"/><path d="m434.893 94.0615c.286.3901.571.8626.863 1.4124-.283-.3918-.574-.8609-.863-1.4124z"/><path d="m370.585 77.6916c.302-.1564.693-.3072 1.164-.4543-.305.1558-.69.3078-1.164.4543z"/><path d="m286.992 81.7275c.369.0441.769.1629 1.23.3297-.359-.053-.779-.154-1.23-.3297z"/><path d="m434.238 92.9531c.213.2442.43.5685.657.9674-.211-.246-.431-.5666-.657-.9674z"/><path d="m269.14 74.6621c.3.047.628.1685 1.011.3407-.291-.055-.638-.1606-1.011-.3407z"/><path d="m423.212 81.0654c.26.1035.537.2824.847.5247-.255-.1075-.543-.2783-.847-.5247z"/><path d="m272.227 75.9834c.303.0442.633.1633 1.018.3344-.294-.0518-.642-.1556-1.018-.3344z"/><path d="m424.1 81.7188c.211.0804.44.2335.71.4429-.203-.0858-.448-.2281-.71-.4429z"/><path d="m415.945 76.8848c.246.0303.519.1329.837.2946-.239-.0347-.524-.1286-.837-.2946z"/><path d="m416.835 77.3037c.246.0344.517.143.832.3114-.24-.0392-.523-.1382-.832-.3114z"/><path d="m425.205 82.5898c.21.0913.436.2555.698.4818-.204-.0948-.443-.2518-.698-.4818z"/><path d="m435.76 95.6211c.148.1677.295.4155.445.7367-.146-.1699-.297-.4132-.445-.7367z"/><path d="m436.201 96.502c.147.1701.291.4203.437.7441-.145-.1723-.292-.4182-.437-.7441z"/><path d="m430.342 87.582c.184.1277.374.3326.585.6053-.18-.1309-.379-.3294-.585-.6053z"/><path d="m417.72 77.7383c.241.0408.507.1559.817.3292-.235-.0462-.514-.1506-.817-.3292z"/><path d="m433.56 91.8662c.138.1051.277.2851.426.5339-.135-.1071-.28-.2831-.426-.5339z"/><path d="m433.116 91.207c.141.1022.284.2793.437.5252-.137-.1042-.286-.2772-.437-.5252z"/><path d="m421.911 80.1553c.17.0467.374.1575.612.3306-.17-.0474-.374-.1569-.612-.3306z"/><path d="m422.568 80.6006c.167.0493.367.1623.602.3361-.166-.0502-.367-.1613-.602-.3361z"/><path d="m432.014 89.6514c.141.1055.292.284.457.5323-.14-.1066-.294-.283-.457-.5323z"/><path d="m432.766 90.6816c.115.0621.225.1961.345.395-.11-.0644-.231-.1937-.345-.395z"/><path d="m431.447 88.9199c.121.0581.239.1905.377.3879-.114-.0612-.247-.1874-.377-.3879z"/><path d="m431.15 88.5449c.078.0197.171.1048.286.2503-.074-.0214-.173-.1031-.286-.2503z"/><path d="m430.048 87.2275c.078.019.173.1028.293.2478-.075-.0201-.176-.1015-.293-.2478z"/><path d="m424.85 82.2646c.087.0056.197.0754.331.2055-.087-.0068-.198-.074-.331-.2055z"/><path d="m434.005 92.5264c.069.0372.15.1399.239.3096-.071-.0367-.149-.1405-.239-.3096z"/><path d="m432.481 90.2969c.078.023.168.1133.281.2656-.074-.0248-.171-.1116-.281-.2656z"/><path d="m426.185 83.3682c.086.0101.191.0865.323.2225-.084-.0123-.194-.0844-.323-.2225z"/><path d="m429.622 86.752c.04-.0084.109.0345.192.1383-.045.0116-.104-.0377-.192-.1383z"/><path d="m429.836 86.9827c.04-.0093.106.0323.187.1325-.044.0119-.103-.0348-.187-.1325z"/><path d="m426.755 83.8764c.042-.0102.115.034.208.1401-.046.0126-.112-.0365-.208-.1401z"/><path d="m425.93 83.1552c.038-.0164.107.0198.21.1049-.038.0152-.109-.0186-.21-.1049z"/><path d="m430.948 88.2857c.04-.0061.106.0409.185.1491-.044.0087-.102-.0436-.185-.1491z"/><path d="m295.536 119.948c1.921-4.064 5.111-6.37 9.606-6.583 4.46-.21 7.723 1.841 9.827 5.923.144.424.286.69.427.955 0 0-.005-.003-.005.089.149 1.281.296 2.471.449 3.66.126.984-.254 1.344-1.285 1.338-6.331-.04-12.662-.039-18.992-.001-.982.006-1.447-.293-1.387-1.287 0 0-.028-.031.055-.098.184-.6.286-1.132.387-1.665 0 0-.016-.034.071-.085.199-.47.311-.888.423-1.306 0 0 .008.01.05-.035.081-.172.119-.299.157-.425 0 0 .012.024.05-.023.081-.184.124-.32.167-.457z"/><path d="m294.125 124.113c-.006.924.459 1.223 1.441 1.217 6.33-.038 12.661-.039 18.992.001 1.031.006 1.411-.354 1.285-1.338-.153-1.189-.3-2.379-.448-3.663.771 1.584.887 3.343.7 5.221-7.408 0-14.759 0-22.241 0 .074-.465.145-.916.271-1.438z"/><path d="m294.562 122.349c-.044.463-.145.996-.315 1.581.04-.47.149-.991.315-1.581z"/><path d="m295.059 120.946c-.057.361-.169.779-.352 1.239.052-.366.174-.774.352-1.239z"/><path d="m315.397 120.166c-.142-.188-.284-.453-.419-.803.143.186.281.456.419.803z"/><path d="m295.263 120.468c.019.088-.019.214-.106.388-.016-.085.016-.217.106-.388z"/><path d="m295.478 119.995c.015.091-.028.227-.121.417-.013-.089.025-.23.121-.417z"/><path d="m147 115.838c.07-.002.126.026.211.181.105.149.167.2.228.251 0 0-.02 0 .011.039.09.086.15.134.209.181 0 0-.019 0 .011.039.09.087.15.134.21.182 0 0-.02 0 .009.039.086.087.143.135.201.184 0 0-.013 0 .005.06.119.142.22.224.321.307 0 0-.042.005-.023.046.078.103.137.165.196.228 0 0-.045-.005-.019.029.082.094.138.152.194.211 0 0-.018-.006-.014.062.151.244.298.42.444.597 0 0-.013-.001-.012.074.158.316.314.556.471.796 0 0-.016-.002-.019.074.156.39.314.705.473 1.019 0 0-.016-.002-.023.086.136 1.203.272 2.318.423 3.432.143 1.056-.303 1.383-1.359 1.376-6.224-.041-12.449-.019-18.674-.02-1.533 0-1.533-.003-1.595-1.573 0 0 .012.013.073-.028.311-.974.561-1.907.81-2.84 0 0 .006.018.049-.027.078-.176.114-.307.149-.439 0 0 .013.037.053-.005.1-.226.16-.409.22-.593 0 0-.01-.007.067-.032.165-.255.254-.484.343-.713.807-1.635 2.043-2.88 3.689-3.904.345-.161.538-.309.732-.457 0 0-.003.017.057.006.171-.083.283-.157.395-.23 0 0-.01.024.047.015.168-.08.28-.15.393-.221 0 0-.005.015.064.011.244-.09.42-.177.595-.265 0 0-.013.03.049.032.24-.081.417-.164.594-.247 0 0-.004.016.09.023 2.036.002 3.977-.004 5.918-.01 0 0-.018.021.01.085.446.173.864.281 1.282.389 0 0-.007.004.019.072.302.17.579.272.856.374 0 0-.001-.004.036.041.107.078.177.111.248.144 0 0-.044.007-.007.041.158.091.28.147.401.204 0 0-.015.004.021.043.105.079.175.118.244.157 0 0-.043.008-.006.035.113.063.188.1.263.136 0 0-.037.001-.008.047.144.116.259.186.375.256z"/><path d="m128.826 123.806c.114 1.503.114 1.505 1.646 1.506 6.225.001 12.451-.021 18.675.02 1.055.007 1.502-.32 1.359-1.376-.151-1.114-.287-2.229-.42-3.439.771 1.519.767 3.223.638 5.029-7.395 0-14.748 0-22.251 0 .101-.561.202-1.117.353-1.74z"/><path d="m143.202 113.756c-1.875.064-3.817.07-5.86.066 1.85-.728 3.819-.6 5.86-.066z"/><path d="m129.702 120.924c-.19.879-.439 1.812-.759 2.786.186-.883.443-1.808.759-2.786z"/><path d="m144.501 114.234c-.361-.054-.779-.163-1.22-.348.372.046.768.17 1.22.348z"/><path d="m150.104 120.361c-.156-.237-.314-.552-.467-.95.157.235.31.554.467.95z"/><path d="m149.646 119.271c-.15-.167-.307-.407-.461-.728.152.164.303.409.461.728z"/><path d="m145.386 114.678c-.23-.046-.507-.148-.811-.322.237.041.5.154.811.322z"/><path d="m130.582 119.103c-.028.187-.117.417-.277.675.024-.192.12-.413.277-.675z"/><path d="m149.184 118.404c-.137-.107-.283-.283-.431-.536.14.105.281.286.431.536z"/><path d="m134.991 114.709c-.119.139-.312.287-.587.432.117-.143.315-.283.587-.432z"/><path d="m130.182 119.858c-.009.132-.07.316-.188.547.007-.133.073-.314.188-.547z"/><path d="m136.539 114.02c-.099.085-.274.172-.525.259.099-.085.274-.171.525-.259z"/><path d="m137.182 113.801c-.101.083-.278.166-.533.24.101-.086.28-.163.533-.24z"/><path d="m129.903 120.445c.022.091-.014.222-.101.401-.02-.088.011-.224.101-.401z"/><path d="m135.886 114.271c-.043.07-.155.14-.335.215.043-.069.154-.142.335-.215z"/><path d="m135.448 114.48c-.042.07-.154.144-.334.226.043-.068.153-.145.334-.226z"/><path d="m146.078 115.104c-.088.004-.209-.053-.371-.165.086-.003.212.051.371.165z"/><path d="m146.971 115.778c-.086-.009-.202-.079-.345-.214.087.008.201.08.345.214z"/><path d="m148.392 117.241c-.075-.022-.176-.105-.293-.253.078.02.172.106.293.253z"/><path d="m145.688 114.862c-.042.023-.112-.009-.221-.086.038-.019.116.005.221.086z"/><path d="m148.753 117.75c-.045.005-.101-.053-.18-.169.041-.003.106.051.18.169z"/><path d="m148.573 117.511c-.043.002-.101-.061-.18-.185.041-.001.102.06.18.185z"/><path d="m148.076 116.875c-.043.011-.1-.038-.186-.135.037-.007.104.034.186.135z"/><path d="m147.864 116.651c-.044.013-.104-.035-.194-.131.039-.009.109.031.194.131z"/><path d="m147.643 116.43c-.044.013-.104-.035-.194-.131.039-.009.109.031.194.131z"/><path d="m147.423 116.21c-.045.01-.106-.04-.196-.144.04-.008.11.037.196.144z"/><path d="m146.6 115.481c-.04.018-.115-.019-.232-.104.038-.016.117.017.232.104z"/><path d="m146.349 115.307c-.042.019-.112-.02-.218-.106.039-.015.115.016.218.106z"/></g></svg>