<svg fill="none" height="231" viewBox="0 0 681 231" width="681" xmlns="http://www.w3.org/2000/svg" xmlns:xlink="http://www.w3.org/1999/xlink"><clipPath id="a"><path d="m.454102 0h680.466v231h-680.466z"/></clipPath><clipPath id="b"><path d="m.454102 49.0547h133.376v132.891h-133.376z"/></clipPath><g clip-path="url(#a)"><g clip-path="url(#b)"><path d="m67.142 49.0547c-17.6867 0-34.6491 7.0005-47.1555 19.4614-12.50638 12.4609-19.532398 29.3616-19.532398 46.9839 0 17.622 7.026018 34.523 19.532398 46.984 12.5064 12.461 29.4688 19.461 47.1555 19.461s34.649-7 47.155-19.461c12.507-12.461 19.533-29.362 19.533-46.984 0-17.6223-7.026-34.523-19.533-46.9839-12.506-12.4609-29.4683-19.4614-47.155-19.4614zm-28.6869 25.0056c4.1291 0 7.658 2.0155 10.5811 6.041 2.9232 4.031 4.3736 8.8704 4.3736 14.5349v37.4308c0 2.985 1.5005 4.48 4.4959 4.48h23.1963c2.9898 0 4.4903-1.495 4.4903-4.48v-17.746c0-2.88-1.5005-4.364-4.4903-4.469h-4.4848c-5.7852-.199-10.6867-1.705-14.6713-4.518-3.9957-2.807-5.9853-6.2736-5.9853-10.3932h25.1414c5.3906 0 9.9809 1.8936 13.771 5.6702 1.838 1.777 3.2911 3.91 4.2698 6.268.9792 2.358 1.4622 4.89 1.4212 7.442v17.746c0 5.371-1.9009 9.95-5.691 13.727-3.7901 3.776-8.386 5.653-13.771 5.653h-23.1963c-5.3906 0-9.9754-1.877-13.7655-5.653-1.8384-1.78-3.2914-3.916-4.2692-6.277s-1.4597-4.896-1.4159-7.45z" fill="#000"/></g><g fill="#000"><path d="m189.392 140.029c-2.802 0-5.604-.108-8.406-.323-2.752-.162-5.628-.593-8.627-1.293v-54.3092c2.36-.4849 4.941-.8351 7.743-1.0506 2.802-.2694 5.407-.4041 7.815-.4041 3.245 0 6.219.2694 8.922.8082 2.753.4849 5.113 1.3469 7.079 2.5861s3.49 2.8825 4.572 4.9298c1.13 1.9935 1.696 4.4719 1.696 7.4352 0 4.4716-1.967 8.0006-5.899 10.5866 3.244 1.347 5.456 3.179 6.636 5.496s1.77 4.93 1.77 7.839c0 5.873-1.967 10.291-5.899 13.254-3.884 2.963-9.684 4.445-17.402 4.445zm-5.825-25.134v14.466c.836.108 1.745.189 2.728.243.983.053 2.065.08 3.245.08 3.441 0 6.218-.538 8.332-1.616 2.113-1.078 3.17-3.071 3.17-5.98 0-2.587-.884-4.418-2.654-5.496-1.77-1.131-4.301-1.697-7.595-1.697zm0-9.617h5.604c3.539 0 6.071-.485 7.595-1.455 1.524-1.024 2.286-2.64 2.286-4.8489 0-2.2629-.787-3.8523-2.36-4.7682s-3.883-1.3739-6.931-1.3739c-.983 0-2.04.027-3.171.0808-1.13 0-2.138.0539-3.023.1617z"/><path d="m232.149 139.302h-10.986v-42.51h10.986zm1.033-54.7941c0 2.209-.664 3.96-1.991 5.2531-1.278 1.2392-2.802 1.8588-4.572 1.8588-1.769 0-3.318-.6196-4.645-1.8588-1.278-1.2931-1.917-3.0441-1.917-5.2531s.639-3.9331 1.917-5.1722c1.327-1.2931 2.876-1.9396 4.645-1.9396 1.77 0 3.294.6465 4.572 1.9396 1.327 1.2391 1.991 2.9632 1.991 5.1722z"/><path d="m251.841 116.673c0 6.735 2.483 10.102 7.448 10.102 1.13 0 2.187-.162 3.17-.485s1.819-.7 2.507-1.131v-19.235c-.541-.107-1.18-.188-1.917-.242-.737-.108-1.598-.162-2.581-.162-2.9 0-5.063 1.051-6.488 3.152-1.426 2.101-2.139 4.768-2.139 8.001zm24.112 17.295c0 6.95-1.623 12.095-4.867 15.436-3.195 3.394-8.16 5.091-14.894 5.091-2.36 0-4.719-.242-7.079-.727-2.359-.431-4.547-1.024-6.562-1.778l1.917-10.102c1.72.754 3.514 1.347 5.382 1.778 1.918.431 4.08.646 6.489.646 3.146 0 5.358-.754 6.636-2.263 1.327-1.508 1.991-3.448 1.991-5.819v-1.535c-1.18.593-2.409 1.051-3.687 1.374-1.229.269-2.58.404-4.055.404-5.358 0-9.463-1.724-12.314-5.172-2.851-3.502-4.276-8.378-4.276-14.628 0-3.125.442-5.954 1.327-8.486.885-2.586 2.163-4.795 3.834-6.627 1.72-1.8316 3.81-3.2325 6.267-4.2023 2.458-1.0236 5.236-1.5355 8.333-1.5355 1.327 0 2.679.0808 4.055.2425 1.426.1077 2.826.2694 4.203.4849 1.376.2155 2.679.4849 3.908.8081 1.278.2694 2.409.5658 3.392.889z"/><path d="m304.027 140.029c-2.802 0-5.604-.108-8.405-.323-2.753-.162-5.629-.593-8.628-1.293v-54.3092c2.36-.4849 4.941-.8351 7.743-1.0506 2.802-.2694 5.407-.4041 7.816-.4041 3.244 0 6.218.2694 8.922.8082 2.752.4849 5.112 1.3469 7.078 2.5861s3.49 2.8825 4.572 4.9298c1.13 1.9935 1.696 4.4719 1.696 7.4352 0 4.4716-1.967 8.0006-5.899 10.5866 3.244 1.347 5.456 3.179 6.636 5.496s1.77 4.93 1.77 7.839c0 5.873-1.967 10.291-5.899 13.254-3.884 2.963-9.684 4.445-17.402 4.445zm-5.825-25.134v14.466c.836.108 1.745.189 2.728.243.984.053 2.065.08 3.245.08 3.441 0 6.218-.538 8.332-1.616s3.17-3.071 3.17-5.98c0-2.587-.884-4.418-2.654-5.496-1.77-1.131-4.301-1.697-7.595-1.697zm0-9.617h5.604c3.539 0 6.071-.485 7.595-1.455 1.524-1.024 2.286-2.64 2.286-4.8489 0-2.2629-.787-3.8523-2.36-4.7682s-3.883-1.3739-6.931-1.3739c-.983 0-2.04.027-3.171.0808-1.13 0-2.138.0539-3.023.1617z"/><path d="m351.282 140.11c-3.195-.054-5.8-.431-7.816-1.132-1.966-.7-3.539-1.67-4.719-2.909-1.13-1.293-1.917-2.829-2.359-4.607-.393-1.832-.59-3.879-.59-6.142v-46.7925l10.986-1.9396v46.3081c0 1.077.074 2.047.222 2.909.147.862.418 1.59.811 2.182.442.593 1.057 1.078 1.843 1.455.787.377 1.844.619 3.171.727z"/><path d="m392.235 137.847c-1.868.592-4.276 1.131-7.226 1.616-2.949.539-6.046.808-9.29.808-3.294 0-6.047-.485-8.259-1.454-2.163-.97-3.883-2.317-5.161-4.041-1.278-1.778-2.188-3.879-2.728-6.304-.541-2.424-.811-5.091-.811-8.001v-23.679h10.986v22.225c0 3.879.467 6.68 1.401 8.404.934 1.725 2.679 2.587 5.235 2.587.787 0 1.622-.027 2.507-.081.885-.108 1.672-.216 2.36-.323v-32.812h10.986z"/><path d="m400.705 118.37c0-3.771.516-7.058 1.548-9.86 1.082-2.855 2.483-5.226 4.203-7.111 1.721-1.8862 3.687-3.3139 5.899-4.2837 2.261-.9698 4.572-1.4547 6.931-1.4547 5.506 0 9.856 1.8588 13.051 5.5764 3.196 3.664 4.793 9.078 4.793 16.244 0 .7-.024 1.482-.074 2.344-.049.808-.098 1.535-.147 2.182h-24.922c.245 2.478 1.302 4.445 3.17 5.899 1.868 1.455 4.375 2.182 7.521 2.182 2.016 0 3.982-.188 5.899-.565 1.966-.431 3.564-.943 4.793-1.536l1.474 9.779c-.589.323-1.376.647-2.359.97s-2.089.592-3.318.808c-1.18.269-2.458.485-3.834.646-1.377.162-2.753.243-4.13.243-3.49 0-6.537-.566-9.143-1.697-2.556-1.132-4.694-2.667-6.415-4.607-1.671-1.993-2.925-4.337-3.76-7.031-.787-2.694-1.18-5.603-1.18-8.728zm25.807-4.607c-.049-1.023-.221-2.02-.516-2.99-.246-.97-.663-1.832-1.253-2.586-.541-.754-1.254-1.374-2.139-1.859-.835-.485-1.892-.727-3.17-.727-1.229 0-2.286.242-3.171.727-.885.431-1.622 1.024-2.212 1.778-.59.755-1.057 1.644-1.401 2.667-.295.97-.516 1.967-.663 2.99z"/><path d="m463.379 140.029c-2.802 0-5.604-.108-8.406-.323-2.753-.162-5.628-.593-8.627-1.293v-54.3092c2.359-.4849 4.94-.8351 7.742-1.0506 2.802-.2694 5.407-.4041 7.816-.4041 3.244 0 6.218.2694 8.922.8082 2.753.4849 5.112 1.3469 7.079 2.5861 1.966 1.2392 3.49 2.8825 4.571 4.9298 1.131 1.9935 1.696 4.4719 1.696 7.4352 0 4.4716-1.966 8.0006-5.899 10.5866 3.245 1.347 5.457 3.179 6.636 5.496 1.18 2.317 1.77 4.93 1.77 7.839 0 5.873-1.966 10.291-5.899 13.254-3.883 2.963-9.684 4.445-17.401 4.445zm-5.825-25.134v14.466c.835.108 1.745.189 2.728.243.983.053 2.064.08 3.244.08 3.441 0 6.219-.538 8.332-1.616 2.114-1.078 3.171-3.071 3.171-5.98 0-2.587-.885-4.418-2.655-5.496-1.769-1.131-4.301-1.697-7.594-1.697zm0-9.617h5.604c3.539 0 6.07-.485 7.594-1.455 1.524-1.024 2.286-2.64 2.286-4.8489 0-2.2629-.786-3.8523-2.359-4.7682s-3.884-1.3739-6.932-1.3739c-.983 0-2.04.027-3.17.0808-1.131 0-2.138.0539-3.023.1617z"/><path d="m528.256 137.847c-1.867.592-4.276 1.131-7.226 1.616-2.949.539-6.046.808-9.29.808-3.294 0-6.046-.485-8.259-1.454-2.162-.97-3.883-2.317-5.161-4.041-1.278-1.778-2.187-3.879-2.728-6.304-.541-2.424-.811-5.091-.811-8.001v-23.679h10.986v22.225c0 3.879.467 6.68 1.401 8.404.934 1.725 2.679 2.587 5.235 2.587.787 0 1.623-.027 2.507-.081.885-.108 1.672-.216 2.36-.323v-32.812h10.986z"/><path d="m538.201 86.2051 10.986-1.9396v12.5265h13.199v10.021h-13.199v14.951c0 2.533.394 4.553 1.18 6.062.836 1.508 2.483 2.262 4.94 2.262 1.18 0 2.385-.107 3.613-.323 1.279-.269 2.434-.619 3.466-1.05l1.549 9.374c-1.328.593-2.802 1.105-4.425 1.536-1.622.431-3.613.646-5.972.646-2.999 0-5.481-.431-7.447-1.293-1.967-.916-3.54-2.155-4.719-3.717-1.18-1.617-2.016-3.556-2.507-5.819-.443-2.263-.664-4.768-.664-7.516z"/><path d="m570.964 86.2051 10.987-1.9396v12.5265h13.198v10.021h-13.198v14.951c0 2.533.393 4.553 1.179 6.062.836 1.508 2.483 2.262 4.941 2.262 1.179 0 2.384-.107 3.613-.323 1.278-.269 2.433-.619 3.465-1.05l1.549 9.374c-1.328.593-2.802 1.105-4.424 1.536-1.623.431-3.613.646-5.973.646-2.999 0-5.481-.431-7.447-1.293-1.967-.916-3.54-2.155-4.719-3.717-1.18-1.617-2.016-3.556-2.507-5.819-.443-2.263-.664-4.768-.664-7.516z"/><path d="m638.933 117.966c0 3.34-.442 6.411-1.327 9.213-.885 2.748-2.163 5.118-3.834 7.112-1.671 1.939-3.687 3.448-6.046 4.526-2.311 1.077-4.916 1.616-7.816 1.616-2.851 0-5.457-.539-7.816-1.616-2.31-1.078-4.301-2.587-5.973-4.526-1.671-1.994-2.974-4.364-3.908-7.112-.934-2.802-1.401-5.873-1.401-9.213s.467-6.385 1.401-9.132c.984-2.748 2.311-5.092 3.982-7.031 1.721-1.9399 3.736-3.4485 6.046-4.5261 2.36-1.0775 4.916-1.6163 7.669-1.6163 2.802 0 5.358.5388 7.668 1.6163 2.36 1.0776 4.375 2.5862 6.047 4.5261 1.671 1.939 2.974 4.283 3.908 7.031.934 2.747 1.4 5.792 1.4 9.132zm-11.207 0c0-3.718-.688-6.627-2.065-8.728-1.327-2.155-3.244-3.233-5.751-3.233s-4.449 1.078-5.825 3.233c-1.377 2.101-2.065 5.01-2.065 8.728s.688 6.681 2.065 8.89c1.376 2.155 3.318 3.232 5.825 3.232s4.424-1.077 5.751-3.232c1.377-2.209 2.065-5.172 2.065-8.89z"/><path d="m647.444 98.2467c1.868-.5926 4.277-1.1314 7.226-1.6163 2.95-.5388 6.046-.8082 9.291-.8082 3.293 0 6.022.4849 8.184 1.4547 2.212.9159 3.958 2.2359 5.236 3.9601 1.278 1.724 2.187 3.771 2.728 6.142s.811 5.011.811 7.92v24.003h-10.987v-22.548c0-3.879-.467-6.627-1.401-8.244-.934-1.616-2.679-2.424-5.235-2.424-.786 0-1.622.054-2.507.162-.885.053-1.671.134-2.359.242v32.812h-10.987z"/></g></g></svg>