<svg width="442" height="231" viewBox="0 0 442 231" fill="none" xmlns="http://www.w3.org/2000/svg">
<g clip-path="url(#clip0_158_893)">
<path d="M0.381836 125.089C0.381836 122.586 0.381836 120.083 0.459339 117.43C1.01026 112.288 2.05835 107.423 3.94472 102.77C8.12215 92.4662 14.6329 84.1263 24.6876 78.9937C33.6462 74.4205 43.2991 74.047 53.0631 74.9434C59.3499 75.5205 65.3151 77.4724 71.2463 79.5446C76.5002 81.3801 81.7575 83.2368 87.1053 84.7613C90.2545 85.659 93.5829 85.9277 96.8179 86.5351C99.3696 86.6187 101.934 86.6469 104.499 86.6666C104.51 86.6667 104.522 86.5449 104.621 86.439C109.191 86.0802 113.57 85.2278 117.836 83.8208C125.032 81.4475 131.549 77.7322 137.873 73.6401C144.554 69.3172 151.144 64.8463 157.936 60.7049C166.569 55.4402 175.912 51.9901 186.001 50.7239C187.398 50.5486 188.79 50.3341 190.185 50.1377C192.761 50.1377 195.338 50.1377 198.056 50.2118C198.46 50.3819 198.716 50.5322 198.986 50.5655C201.989 50.9357 205.021 51.1424 207.992 51.6815C211.68 52.3506 215.318 53.2926 218.979 54.1129C219.967 54.3342 220.957 54.542 221.941 54.7613C221.936 54.7666 221.936 54.7513 221.963 54.825C223.737 55.441 225.484 55.9832 227.228 56.5293C227.223 56.533 227.221 56.5219 227.249 56.595C228.07 56.9151 228.862 57.1621 229.65 57.4121C229.647 57.4152 229.644 57.4059 229.685 57.4714C231.388 58.229 233.04 58.9489 234.718 59.604C235.957 60.0878 237.228 60.4871 238.479 60.9295C238.472 60.935 238.473 60.9175 238.499 60.9926C238.875 61.1713 239.225 61.2749 239.57 61.3812C239.566 61.3839 239.563 61.3745 239.589 61.4461C240.63 61.9129 241.644 62.308 242.654 62.7051C242.651 62.7071 242.648 62.6994 242.673 62.7716C243.35 63.088 244 63.3321 244.645 63.5804C244.64 63.5846 244.639 63.5703 244.664 63.643C245.337 63.9638 245.985 64.2118 246.628 64.4635C246.622 64.4673 246.621 64.4539 246.647 64.5263C247.321 64.8467 247.968 65.0946 248.611 65.3463C248.606 65.3501 248.605 65.3375 248.629 65.4102C249.299 65.7328 249.945 65.9827 250.588 66.2332C250.586 66.2338 250.582 66.2298 250.611 66.3023C250.926 66.4667 251.212 66.5586 251.49 66.6536C251.481 66.6567 251.478 66.6392 251.515 66.7075C252.19 67.0322 252.829 67.2887 253.462 67.5493C253.457 67.5534 253.456 67.5397 253.48 67.6126C254.148 67.9366 254.793 68.1877 255.436 68.4384C255.434 68.438 255.431 68.4364 255.459 68.5086C255.773 68.6738 256.058 68.7668 256.335 68.8631C256.327 68.8662 256.324 68.8502 256.36 68.9185C257.035 69.2433 257.673 69.4998 258.307 69.7586C258.303 69.7609 258.3 69.7524 258.325 69.8241C259.296 70.2869 260.241 70.678 261.18 71.0727C261.173 71.0763 261.171 71.0612 261.209 71.1281C261.887 71.4488 262.526 71.7026 263.16 71.96C263.155 71.9636 263.154 71.9515 263.178 72.0243C263.85 72.3451 264.497 72.5933 265.141 72.844C265.137 72.8466 265.135 72.8376 265.16 72.9099C265.834 73.2283 266.483 73.4743 267.128 73.7239C267.123 73.7274 267.121 73.7158 267.147 73.7882C267.824 74.105 268.474 74.3495 269.118 74.5988C269.112 74.6038 269.112 74.5874 269.139 74.6619C269.513 74.842 269.86 74.9476 270.205 75.0518C270.204 75.0505 270.2 75.0513 270.228 75.1227C270.908 75.4346 271.561 75.675 272.206 75.9201C272.199 75.9247 272.199 75.9082 272.226 75.9831C272.602 76.1619 272.951 76.2657 273.297 76.3717C273.293 76.3737 273.291 76.3666 273.318 76.438C274.931 77.2122 276.497 77.9696 278.113 78.6005C279.418 79.1104 280.783 79.4679 282.117 79.8965C282.113 79.9001 282.111 79.8894 282.151 79.9553C283.785 80.5659 285.379 81.1106 286.968 81.6593C286.964 81.6633 286.963 81.6521 286.993 81.7268C287.444 81.9024 287.864 82.0034 288.283 82.1041C288.282 82.1037 288.279 82.1032 288.309 82.1756C288.454 82.3321 288.557 82.4562 288.686 82.4944C292.597 83.6539 296.499 84.8497 300.429 85.9392C302.503 86.5141 304.615 86.9811 306.734 87.3523C309.1 87.7665 311.489 88.0637 313.877 88.3264C316.782 88.646 319.7 89.1226 322.606 89.0867C326.802 89.0349 331.003 88.6853 335.182 88.2666C337.964 87.9879 340.733 87.4618 343.47 86.8702C345.714 86.3851 347.912 85.6733 350.109 84.9945C351.056 84.702 351.95 84.239 352.868 83.8602C352.867 83.8668 352.858 83.8574 352.95 83.8629C353.867 83.5684 354.691 83.2684 355.513 82.9756C355.512 82.9829 355.501 82.9738 355.592 82.9795C358.074 82.1931 360.466 81.4028 362.852 80.5999C362.927 80.5748 362.958 80.4199 363.009 80.3324C363.008 80.3392 362.997 80.3303 363.088 80.3355C363.933 80.0443 364.686 79.7478 365.438 79.4557C365.436 79.4601 365.429 79.4544 365.52 79.459C366.754 79.1349 367.908 78.8406 369.034 78.462C369.553 78.2873 370.017 77.9478 370.505 77.6891C370.504 77.6952 370.495 77.6871 370.584 77.6926C371.058 77.5462 371.443 77.3941 371.827 77.2482C371.826 77.2543 371.817 77.2459 371.909 77.2509C373.339 76.8092 374.676 76.3625 376.013 75.9231C376.013 75.9302 376.003 75.9193 376.097 75.9256C379.028 75.2938 381.847 74.5565 384.706 74.0455C387.609 73.5267 390.543 73.0198 393.48 72.8968C396.46 72.7721 399.459 73.1168 402.45 73.2674C405.503 73.4211 408.378 74.3588 411.253 75.2939C412.81 75.8004 414.366 76.3077 415.921 76.8149C415.919 76.8151 415.915 76.8119 415.944 76.8842C416.257 77.0502 416.541 77.1441 416.818 77.2418C416.811 77.2457 416.81 77.2292 416.836 77.3034C417.145 77.4766 417.428 77.5756 417.704 77.6785C417.696 77.6823 417.696 77.665 417.72 77.7392C418.023 77.9177 418.302 78.0222 418.575 78.1303C418.569 78.134 418.569 78.1198 418.591 78.1921C419.12 78.5101 419.627 78.7558 420.125 79.0045C420.118 79.0077 420.118 78.991 420.137 79.065C420.736 79.4609 421.317 79.7828 421.889 80.1074C421.879 80.1101 421.876 80.0912 421.91 80.1553C422.148 80.329 422.351 80.4386 422.547 80.5505C422.539 80.5528 422.536 80.5368 422.569 80.6004C422.804 80.7752 423.005 80.8864 423.2 80.9997C423.195 81.002 423.195 80.9904 423.212 81.0658C423.516 81.3122 423.804 81.4831 424.085 81.6568C424.079 81.6597 424.081 81.6454 424.099 81.7181C424.362 81.9329 424.607 82.0752 424.838 82.2242C424.824 82.2309 424.828 82.2006 424.849 82.2649C424.982 82.3964 425.094 82.4635 425.197 82.5319C425.189 82.5331 425.19 82.5165 425.207 82.5895C425.462 82.8194 425.7 82.9764 425.919 83.1386C425.899 83.1438 425.9 83.1023 425.93 83.1549C426.031 83.2412 426.103 83.2749 426.136 83.344C426.098 83.3793 426.167 83.3016 426.185 83.3678C426.314 83.506 426.425 83.578 426.581 83.6603C426.685 83.7036 426.718 83.7541 426.753 83.8764C426.849 83.98 426.916 84.0291 426.969 84.077C426.956 84.0759 426.961 84.0509 426.971 84.1276C427.859 85.0417 428.738 85.8793 429.607 86.7193C429.596 86.7217 429.593 86.7005 429.621 86.7518C429.709 86.8524 429.768 86.9017 429.819 86.9505C429.81 86.9499 429.811 86.9318 429.836 86.9828C429.921 87.0805 429.98 87.1272 430.033 87.1741C430.027 87.1744 430.029 87.1627 430.046 87.2276C430.164 87.3738 430.264 87.4552 430.346 87.5389C430.327 87.5412 430.337 87.5043 430.343 87.5816C430.549 87.8574 430.749 88.056 430.936 88.256C430.923 88.2574 430.923 88.2324 430.949 88.2856C431.031 88.3911 431.089 88.4434 431.139 88.495C431.132 88.4943 431.135 88.48 431.15 88.5455C431.263 88.6927 431.361 88.7744 431.436 88.8725C431.412 88.889 431.45 88.8455 431.447 88.9199C431.577 89.1204 431.71 89.2465 431.887 89.3902C431.984 89.4524 432.008 89.5093 432.014 89.6511C432.177 89.9004 432.331 90.0768 432.474 90.2517C432.463 90.2502 432.468 90.2292 432.48 90.2965C432.589 90.4505 432.686 90.5373 432.768 90.632C432.752 90.6399 432.771 90.6104 432.766 90.6823C432.881 90.8835 433.001 91.0129 433.116 91.1418C433.112 91.1413 433.115 91.1326 433.118 91.2076C433.269 91.4556 433.417 91.6286 433.559 91.8014C433.554 91.8011 433.559 91.7907 433.56 91.8655C433.706 92.1164 433.851 92.2923 433.995 92.4667C433.993 92.4652 433.993 92.4608 434.004 92.5262C434.093 92.6954 434.172 92.7992 434.238 92.8995C434.226 92.896 434.235 92.8725 434.239 92.9527C434.464 93.3534 434.685 93.674 434.897 93.9947C434.889 93.9949 434.895 93.9791 434.894 94.0615C435.183 94.6131 435.474 95.0821 435.761 95.5501C435.757 95.5491 435.761 95.5414 435.759 95.6216C435.908 95.9451 436.058 96.1883 436.203 96.4308C436.198 96.43 436.204 96.421 436.201 96.501C436.345 96.827 436.492 97.0729 436.639 97.317C436.639 97.3151 436.637 97.3117 436.636 97.3989C437.228 98.8975 437.822 100.309 438.41 101.719C438.404 101.718 438.412 101.708 438.407 101.797C438.553 102.271 438.705 102.657 438.851 103.041C438.845 103.04 438.853 103.03 438.847 103.124C438.861 103.51 438.833 103.814 438.909 104.09C439.81 107.393 440.544 110.719 440.684 114.164C440.73 115.313 441.067 116.451 441.271 117.594C441.271 119.288 441.271 120.983 441.193 122.827C440.881 124.721 440.717 126.478 440.403 128.208C437.812 142.492 430.933 154.066 418.992 162.583C402.633 174.252 384.175 179.234 364.384 180.207C353.973 180.719 343.598 180.095 333.239 179.243C322.374 178.348 311.53 177.196 300.674 176.193C290.329 175.238 279.993 174.134 269.629 173.45C257.501 172.65 245.353 172.083 233.205 171.695C221.236 171.312 209.255 171.372 197.293 172.092C191.21 172.458 185.129 172.914 179.06 173.463C173.139 173.999 167.231 174.681 161.323 175.345C154.758 176.082 148.203 176.9 141.638 177.629C135.583 178.301 129.528 178.996 123.458 179.507C117.569 180.003 111.66 180.276 105.761 180.656C105.608 180.666 105.463 180.791 105.314 180.861C98.916 180.861 92.5185 180.861 85.971 180.779C81.5847 180.317 77.3361 180.04 73.1146 179.538C63.2938 178.368 53.707 176.151 44.4273 172.699C33.3487 168.578 23.2303 162.877 14.6863 154.576C7.55591 147.649 2.90294 139.4 1.13134 129.58C0.861944 128.086 0.630717 126.586 0.381836 125.089ZM364.662 117.606C364.486 117.685 364.311 117.764 364.127 117.822C364.127 117.822 364.143 117.838 363.97 117.827C363.583 117.976 363.195 118.125 362.801 118.254C362.801 118.254 362.813 118.272 362.638 118.24C362.469 117.811 362.158 117.384 362.154 116.954C362.116 113.073 362.139 109.193 362.121 105.312C362.119 104.853 361.978 104.395 361.698 103.906C360.095 103.906 358.492 103.906 356.808 103.906C356.808 108.838 356.808 113.638 356.808 118.629C352.061 117.095 347.446 115.604 342.736 114.082C342.199 115.742 341.686 117.325 341.155 118.962C345.871 120.5 350.475 122.001 355.176 123.533C352.222 127.603 349.387 131.511 346.516 135.468C347.954 136.511 349.279 137.472 350.673 138.483C353.596 134.472 356.454 130.551 359.359 126.563C362.295 130.596 365.139 134.503 368.038 138.486C369.48 137.44 370.825 136.464 372.2 135.466C369.267 131.427 366.436 127.528 363.531 123.528C368.312 121.972 372.897 120.479 377.562 118.96C377.011 117.279 376.492 115.694 375.966 114.089C375.51 114.235 375.162 114.347 374.814 114.457C371.706 115.44 368.598 116.422 365.335 117.399C365.148 117.477 364.961 117.554 364.788 117.605C364.788 117.605 364.814 117.618 364.662 117.606ZM207.126 150.139C207.379 150.168 207.632 150.222 207.885 150.222C215.975 150.226 224.064 150.227 232.154 150.218C232.472 150.217 232.791 150.108 233.185 149.97C233.184 149.835 233.183 149.7 233.162 149.358C233.14 147.816 233.118 146.274 232.975 144.619C232.58 144.572 232.184 144.488 231.789 144.485C229.66 144.472 227.531 144.483 225.402 144.477C223.986 144.474 223.926 144.415 223.925 142.972C223.922 136.401 223.928 129.831 223.921 123.26C223.917 118.635 223.896 114.011 223.748 109.297C223.362 109.213 222.976 109.058 222.589 109.057C217.876 109.04 213.163 109.037 208.45 109.062C208.095 109.064 207.74 109.3 207.22 109.526C207.204 111.003 207.171 112.479 207.19 113.955C207.192 114.156 207.454 114.353 207.756 114.639C210.433 114.669 213.111 114.719 215.788 114.717C216.577 114.717 216.906 114.973 216.905 115.796C216.887 124.977 216.889 134.157 216.901 143.337C216.902 144.178 216.565 144.533 215.72 144.523C213.738 144.498 211.754 144.496 209.772 144.521C206.17 144.566 206.546 143.954 206.553 147.723C206.554 148.416 206.77 149.108 206.921 149.817C206.921 149.817 206.912 149.854 206.923 149.964C206.938 149.998 206.952 150.032 207.126 150.139ZM196.944 144.56C196.534 144.465 196.125 144.289 195.714 144.286C192.886 144.262 190.059 144.274 187.231 144.273C185.559 144.272 185.558 144.271 185.558 142.559C185.557 125.961 185.56 109.363 185.545 92.7645C185.545 92.2432 185.362 91.722 185.186 91.1201C185.152 91.0535 185.117 90.9869 184.944 90.8097C184.73 90.7694 184.517 90.6941 184.303 90.6939C178.951 90.6868 173.6 90.6836 168.248 90.6976C167.939 90.6984 167.63 90.8501 167.245 91.0786C167.224 92.6429 167.193 94.2072 167.198 95.7715C167.198 95.9066 167.434 96.0409 167.678 96.2949C168.075 96.338 168.471 96.4168 168.868 96.4184C171.622 96.4295 174.376 96.4533 177.129 96.4093C178.108 96.3937 178.5 96.7006 178.499 97.7291C178.476 112.893 178.477 128.056 178.497 143.22C178.498 144.186 178.141 144.505 177.199 144.493C174.116 144.456 171.031 144.472 167.947 144.49C167.589 144.492 167.231 144.637 166.794 144.909C166.816 146.593 166.837 148.277 166.99 150.079C167.349 150.129 167.707 150.22 168.066 150.221C177.321 150.228 186.576 150.229 195.83 150.215C196.212 150.214 196.594 150.057 197.081 149.825C197.059 148.122 197.036 146.419 196.944 144.56ZM128.492 130.865C129.116 130.854 129.74 130.832 130.364 130.832C138.703 130.83 147.041 130.835 155.379 130.821C155.875 130.82 156.37 130.676 156.987 130.458C157.362 127.29 157.158 124.146 156.401 121.061C155.191 116.127 152.641 112.154 147.887 109.92C139.446 105.954 128.98 109.578 124.692 117.964C122.149 122.939 121.653 128.26 122.277 133.724C122.827 138.545 124.633 142.789 128.268 146.131C131.942 149.508 136.499 150.639 141.274 151.014C142.759 151.131 144.304 150.704 145.8 150.413C149.843 149.625 153.297 147.779 156.01 144.567C155.401 143.955 154.821 143.397 154.27 142.81C153.724 142.227 153.209 141.616 152.657 140.991C152.133 141.484 151.819 141.786 151.498 142.081C144.738 148.262 133.534 146.176 129.872 138.048C128.849 135.778 128.392 133.376 128.492 130.865ZM293.844 131.192C294.36 131.072 294.876 130.848 295.393 130.847C303.836 130.825 312.28 130.835 320.723 130.821C321.219 130.82 321.716 130.68 322.352 130.477C322.225 127.63 322.353 124.743 321.91 121.946C321.257 117.821 319.398 114.214 315.99 111.593C307.816 105.306 294.937 108.439 290.074 117.927C287.548 122.855 287.013 128.135 287.619 133.566C288.156 138.383 289.914 142.642 293.508 146.017C297.177 149.463 301.763 150.829 306.571 150.973C310.646 151.095 314.629 149.992 318.058 147.56C319.261 146.708 320.318 145.65 321.184 144.906C319.981 143.551 318.922 142.357 317.849 141.148C317.464 141.511 317.15 141.818 316.826 142.112C312.122 146.381 304.38 146.863 299.298 143.113C295.357 140.204 293.992 136.01 293.844 131.192ZM275.919 146.345C276.554 145.753 277.19 145.161 277.886 144.512C276.597 143.02 275.393 141.626 274.106 140.136C273.726 140.566 273.48 140.893 273.188 141.169C265.938 148.025 254.736 145.704 250.839 136.529C249.289 132.876 249.023 129.073 249.709 125.194C250.923 118.326 256.481 113.619 263.194 113.863C267.705 114.027 271.19 116.248 274.032 119.621C274.232 119.859 274.444 120.088 274.692 120.368C275.7 119.193 276.551 118.022 277.587 117.047C278.53 116.16 278.308 115.545 277.58 114.701C274.231 110.814 269.951 108.803 264.9 108.468C257.696 107.99 251.564 110.26 247.073 116.082C243.155 121.161 242.128 127.031 242.999 133.27C243.748 138.633 246.077 143.209 250.329 146.646C257.628 152.546 267.971 152.431 275.919 146.345ZM84.2743 103.899C83.8097 103.899 83.3452 103.899 82.7978 103.899C82.7978 108.829 82.7978 113.627 82.7978 118.628C78.051 117.094 73.4384 115.604 68.7318 114.083C68.1958 115.733 67.6813 117.317 67.1466 118.962C71.8565 120.498 76.4628 121.999 81.1679 123.533C78.2235 127.589 75.387 131.496 72.5051 135.466C73.9272 136.497 75.2514 137.458 76.6661 138.484C79.5788 134.482 82.4377 130.554 85.3443 126.561C88.2802 130.589 91.1421 134.515 94.0372 138.487C95.492 137.428 96.8127 136.466 98.1893 135.464C95.2762 131.452 92.4421 127.549 89.5242 123.531C94.283 121.98 98.8919 120.477 103.56 118.956C102.998 117.256 102.477 115.679 101.949 114.083C97.2214 115.613 92.6315 117.099 87.8881 118.634C87.8881 113.634 87.8881 108.809 87.8881 103.899C86.6813 103.899 85.5867 103.899 84.2743 103.899ZM50.7901 105.275C44.0526 119.829 37.3151 134.383 30.5569 148.982C32.3204 149.858 33.9744 150.68 35.6875 151.532C44.8267 131.862 53.9117 112.31 63.013 92.7216C61.223 91.8186 59.5605 90.9799 57.8099 90.0967C55.4679 95.1582 53.1627 100.14 50.7901 105.275ZM406.166 96.032C398 113.668 389.834 131.305 381.65 148.982C383.431 149.869 385.062 150.683 386.776 151.537C395.891 131.921 404.979 112.364 414.105 92.7265C412.342 91.8346 410.661 90.9844 408.912 90.0992C407.983 92.0975 407.105 93.9871 406.166 96.032ZM224.706 94.2588C223.464 92.2097 221.5 91.3239 219.403 91.8665C217.51 92.3563 216.082 94.0778 215.978 95.9946C215.878 97.8587 216.884 99.5753 218.55 100.382C220.249 101.204 222.303 100.91 223.684 99.6482C225.145 98.3132 225.529 96.473 224.706 94.2588Z" fill="black"/>
<path d="M288.31 82.1758C292.143 83.2234 295.984 84.4324 299.875 85.446C310.243 88.1466 320.772 89.3172 331.482 88.453C338.644 87.875 345.567 86.1602 352.375 83.9265C352.479 83.8924 352.588 83.8745 352.782 83.8513C351.951 84.2392 351.057 84.7022 350.11 84.9947C347.912 85.6735 345.714 86.3853 343.471 86.8704C340.734 87.462 337.965 87.9881 335.182 88.2668C331.003 88.6855 326.802 89.0351 322.607 89.0869C319.7 89.1228 316.783 88.6462 313.878 88.3266C311.49 88.0639 309.101 87.7667 306.735 87.3525C304.615 86.9813 302.503 86.5143 300.43 85.9394C296.499 84.8499 292.598 83.6541 288.687 82.4946C288.558 82.4564 288.455 82.3323 288.31 82.1758Z" fill="black"/>
<path d="M207.677 114.596C210.749 114.553 213.901 114.553 217.148 114.553C217.148 124.601 217.148 134.628 217.148 144.77C213.762 144.77 210.401 144.77 206.909 144.77C206.909 146.452 206.909 148.023 206.898 149.697C206.771 149.109 206.555 148.416 206.554 147.723C206.548 143.954 206.171 144.566 209.773 144.521C211.755 144.496 213.739 144.498 215.722 144.523C216.567 144.533 216.903 144.178 216.902 143.337C216.89 134.157 216.889 124.977 216.906 115.796C216.907 114.973 216.578 114.717 215.789 114.717C213.112 114.72 210.434 114.67 207.677 114.596Z" fill="black"/>
<path d="M196.979 144.639C193.127 144.717 189.241 144.717 185.211 144.717C185.211 126.903 185.211 109.146 185.238 91.2949C185.363 91.722 185.545 92.2432 185.546 92.7645C185.561 109.363 185.558 125.961 185.558 142.559C185.558 144.271 185.56 144.272 187.232 144.273C190.059 144.274 192.887 144.262 195.714 144.286C196.125 144.289 196.535 144.465 196.979 144.639Z" fill="black"/>
<path d="M167.62 96.2354C171.229 96.1758 174.897 96.1758 178.65 96.1758C178.65 112.302 178.65 128.438 178.65 144.741C174.816 144.741 170.943 144.741 166.972 144.729C167.232 144.638 167.589 144.492 167.948 144.49C171.032 144.472 174.116 144.456 177.2 144.494C178.142 144.505 178.499 144.186 178.498 143.22C178.478 128.057 178.477 112.893 178.499 97.7292C178.501 96.7007 178.109 96.3939 177.129 96.4095C174.376 96.4534 171.622 96.4296 168.869 96.4185C168.472 96.4169 168.075 96.3381 167.62 96.2354Z" fill="black"/>
<path d="M376.098 75.9249C379.904 74.9773 383.766 73.8136 387.712 73.1399C396.511 71.6375 405.145 72.4259 413.496 75.7169C414.277 76.0247 415.041 76.376 415.868 76.7606C414.367 76.3071 412.81 75.7998 411.253 75.2933C408.378 74.3581 405.503 73.4205 402.45 73.2667C399.46 73.1162 396.46 72.7715 393.48 72.8962C390.543 73.0192 387.609 73.5261 384.706 74.0449C381.847 74.5559 379.028 75.2932 376.098 75.9249Z" fill="black"/>
<path d="M223.7 144.626C223.674 144.189 223.626 143.753 223.626 143.317C223.622 132.527 223.623 121.737 223.623 110.947C223.623 110.477 223.623 110.007 223.623 109.435C218.21 109.435 212.899 109.435 207.486 109.431C207.739 109.299 208.093 109.063 208.449 109.061C213.162 109.037 217.875 109.039 222.587 109.056C222.974 109.057 223.36 109.213 223.778 109.428C223.79 110.036 223.757 110.511 223.757 110.986C223.754 121.724 223.755 132.462 223.752 143.2C223.752 143.676 223.718 144.151 223.7 144.626Z" fill="black"/>
<path d="M223.794 144.675C223.72 144.151 223.754 143.676 223.754 143.201C223.757 132.463 223.756 121.725 223.759 110.987C223.759 110.512 223.792 110.036 223.847 109.474C223.896 114.011 223.917 118.635 223.922 123.26C223.929 129.831 223.922 136.401 223.926 142.972C223.926 144.415 223.986 144.474 225.402 144.477C227.531 144.483 229.66 144.472 231.789 144.485C232.185 144.488 232.58 144.573 233.036 144.676C230.027 144.729 226.957 144.726 223.794 144.675Z" fill="black"/>
<path d="M166.924 150.02C176.833 149.954 186.807 149.946 196.878 149.956C196.593 150.057 196.211 150.215 195.829 150.215C186.575 150.229 177.32 150.229 168.065 150.221C167.706 150.221 167.348 150.129 166.924 150.02Z" fill="black"/>
<path d="M293.786 131.26C293.545 130.872 293.549 130.529 294.188 130.567C294.334 130.576 294.481 130.567 294.628 130.567C303.756 130.569 312.884 130.571 322.113 130.588C321.717 130.679 321.22 130.82 320.724 130.821C312.28 130.834 303.837 130.824 295.394 130.846C294.877 130.848 294.361 131.071 293.786 131.26Z" fill="black"/>
<path d="M128.395 130.881C128.622 130.788 128.948 130.582 129.274 130.582C138.406 130.566 147.537 130.571 156.768 130.586C156.371 130.677 155.876 130.82 155.38 130.821C147.042 130.835 138.704 130.83 130.366 130.832C129.741 130.832 129.117 130.854 128.395 130.881Z" fill="black"/>
<path d="M206.918 149.909C215.427 149.865 223.941 149.877 232.456 149.881C232.665 149.881 232.874 149.785 233.133 149.649C233.184 149.7 233.185 149.835 233.051 150.01C224.268 150.056 215.618 150.061 206.968 150.066C206.953 150.032 206.938 149.998 206.918 149.909Z" fill="black"/>
<path d="M207.048 150.102C215.618 150.061 224.268 150.056 233.014 150.05C232.792 150.108 232.474 150.217 232.155 150.218C224.066 150.227 215.976 150.226 207.886 150.222C207.633 150.221 207.38 150.168 207.048 150.102Z" fill="black"/>
<path d="M185.013 90.8647C179.226 90.927 173.37 90.9341 167.418 90.9362C167.63 90.8497 167.939 90.698 168.248 90.6972C173.599 90.6833 178.951 90.6865 184.303 90.6935C184.516 90.6938 184.73 90.7691 185.013 90.8647Z" fill="black"/>
<path d="M273.319 76.4375C276.198 77.5065 279.103 78.6469 282.065 79.8399C280.785 79.4674 279.42 79.1099 278.115 78.6C276.499 77.9691 274.933 77.2117 273.319 76.4375Z" fill="black"/>
<path d="M355.593 82.9791C357.947 82.0901 360.393 81.2067 362.924 80.3242C362.958 80.4195 362.927 80.5744 362.853 80.5995C360.466 81.4023 358.075 82.1926 355.593 82.9791Z" fill="black"/>
<path d="M365.521 79.459C367.065 78.8623 368.7 78.2703 370.421 77.6807C370.018 77.9479 369.554 78.2873 369.034 78.462C367.908 78.8406 366.754 79.1349 365.521 79.459Z" fill="black"/>
<path d="M96.8164 86.5345C99.3358 86.467 101.842 86.4552 104.44 86.4614C104.52 86.5443 104.508 86.6661 104.497 86.666C101.933 86.6464 99.3682 86.6181 96.8164 86.5345Z" fill="black"/>
<path d="M282.152 79.9551C283.693 80.4432 285.273 80.9972 286.913 81.6031C285.38 81.1103 283.786 80.5657 282.152 79.9551Z" fill="black"/>
<path d="M436.635 97.3994C437.231 98.7249 437.825 100.138 438.417 101.636C437.822 100.309 437.227 98.898 436.635 97.3994Z" fill="black"/>
<path d="M426.971 84.1279C427.831 84.8925 428.701 85.7336 429.594 86.646C428.738 85.8796 427.859 85.0421 426.971 84.1279Z" fill="black"/>
<path d="M371.91 77.2516C373.159 76.8003 374.499 76.3539 375.927 75.9121C374.677 76.3632 373.34 76.8099 371.91 77.2516Z" fill="black"/>
<path d="M363.088 80.3353C363.754 80.0358 364.511 79.7416 365.354 79.4492C364.685 79.7476 363.932 80.0441 363.088 80.3353Z" fill="black"/>
<path d="M352.949 83.8626C353.685 83.5592 354.514 83.2614 355.428 82.9658C354.69 83.268 353.866 83.5681 352.949 83.8626Z" fill="black"/>
<path d="M420.138 79.0654C420.688 79.3194 421.256 79.6473 421.862 80.0402C421.318 79.7832 420.737 79.4613 420.138 79.0654Z" fill="black"/>
<path d="M267.147 73.7881C267.755 73.9698 268.389 74.2239 269.074 74.5359C268.474 74.3494 267.824 74.1049 267.147 73.7881Z" fill="black"/>
<path d="M270.228 75.1221C270.837 75.2998 271.474 75.5491 272.162 75.8565C271.56 75.6744 270.908 75.4339 270.228 75.1221Z" fill="black"/>
<path d="M418.592 78.1924C419.064 78.3719 419.558 78.6239 420.093 78.9387C419.627 78.756 419.121 78.5104 418.592 78.1924Z" fill="black"/>
<path d="M434.893 94.0615C435.179 94.4516 435.464 94.9241 435.756 95.4739C435.473 95.0821 435.182 94.613 434.893 94.0615Z" fill="black"/>
<path d="M370.585 77.6916C370.887 77.5352 371.278 77.3844 371.749 77.2373C371.444 77.3931 371.059 77.5451 370.585 77.6916Z" fill="black"/>
<path d="M286.992 81.7275C287.361 81.7716 287.761 81.8904 288.222 82.0572C287.863 82.0042 287.443 81.9032 286.992 81.7275Z" fill="black"/>
<path d="M434.238 92.9531C434.451 93.1973 434.668 93.5216 434.895 93.9205C434.684 93.6745 434.464 93.3539 434.238 92.9531Z" fill="black"/>
<path d="M269.14 74.6621C269.44 74.7091 269.768 74.8306 270.151 75.0028C269.86 74.9478 269.513 74.8422 269.14 74.6621Z" fill="black"/>
<path d="M423.212 81.0654C423.472 81.1689 423.749 81.3478 424.059 81.5901C423.804 81.4826 423.516 81.3118 423.212 81.0654Z" fill="black"/>
<path d="M272.227 75.9834C272.53 76.0276 272.86 76.1467 273.245 76.3178C272.951 76.266 272.603 76.1622 272.227 75.9834Z" fill="black"/>
<path d="M424.1 81.7188C424.311 81.7992 424.54 81.9523 424.81 82.1617C424.607 82.0759 424.362 81.9336 424.1 81.7188Z" fill="black"/>
<path d="M415.945 76.8848C416.191 76.9151 416.464 77.0177 416.782 77.1794C416.543 77.1447 416.258 77.0508 415.945 76.8848Z" fill="black"/>
<path d="M416.835 77.3037C417.081 77.3381 417.352 77.4467 417.667 77.6151C417.427 77.5759 417.144 77.4769 416.835 77.3037Z" fill="black"/>
<path d="M425.205 82.5898C425.415 82.6811 425.641 82.8453 425.903 83.0716C425.699 82.9768 425.46 82.8198 425.205 82.5898Z" fill="black"/>
<path d="M435.76 95.6211C435.908 95.7888 436.055 96.0366 436.205 96.3578C436.059 96.1879 435.908 95.9446 435.76 95.6211Z" fill="black"/>
<path d="M436.201 96.502C436.348 96.6721 436.492 96.9223 436.638 97.2461C436.493 97.0738 436.346 96.8279 436.201 96.502Z" fill="black"/>
<path d="M430.342 87.582C430.526 87.7097 430.716 87.9146 430.927 88.1873C430.747 88.0564 430.548 87.8579 430.342 87.582Z" fill="black"/>
<path d="M417.72 77.7383C417.961 77.7791 418.227 77.8942 418.537 78.0675C418.302 78.0213 418.023 77.9169 417.72 77.7383Z" fill="black"/>
<path d="M433.56 91.8662C433.698 91.9713 433.837 92.1513 433.986 92.4001C433.851 92.293 433.706 92.117 433.56 91.8662Z" fill="black"/>
<path d="M433.116 91.207C433.257 91.3092 433.4 91.4863 433.553 91.7322C433.416 91.628 433.267 91.455 433.116 91.207Z" fill="black"/>
<path d="M421.911 80.1553C422.081 80.202 422.285 80.3128 422.523 80.4859C422.353 80.4385 422.149 80.329 421.911 80.1553Z" fill="black"/>
<path d="M422.568 80.6006C422.735 80.6499 422.935 80.7629 423.17 80.9367C423.004 80.8865 422.803 80.7754 422.568 80.6006Z" fill="black"/>
<path d="M432.014 89.6514C432.155 89.7569 432.306 89.9354 432.471 90.1837C432.331 90.0771 432.177 89.9007 432.014 89.6514Z" fill="black"/>
<path d="M432.766 90.6816C432.881 90.7437 432.991 90.8777 433.111 91.0766C433.001 91.0122 432.88 90.8829 432.766 90.6816Z" fill="black"/>
<path d="M431.447 88.9199C431.568 88.978 431.686 89.1104 431.824 89.3078C431.71 89.2466 431.577 89.1204 431.447 88.9199Z" fill="black"/>
<path d="M431.15 88.5449C431.228 88.5646 431.321 88.6497 431.436 88.7952C431.362 88.7738 431.263 88.6921 431.15 88.5449Z" fill="black"/>
<path d="M430.048 87.2275C430.126 87.2465 430.221 87.3303 430.341 87.4753C430.266 87.4552 430.165 87.3738 430.048 87.2275Z" fill="black"/>
<path d="M424.85 82.2646C424.937 82.2702 425.047 82.34 425.181 82.4701C425.094 82.4633 424.983 82.3961 424.85 82.2646Z" fill="black"/>
<path d="M434.005 92.5264C434.074 92.5636 434.155 92.6663 434.244 92.836C434.173 92.7993 434.095 92.6955 434.005 92.5264Z" fill="black"/>
<path d="M432.481 90.2969C432.559 90.3199 432.649 90.4102 432.762 90.5625C432.688 90.5377 432.591 90.4509 432.481 90.2969Z" fill="black"/>
<path d="M426.185 83.3682C426.271 83.3783 426.376 83.4547 426.508 83.5907C426.424 83.5784 426.314 83.5063 426.185 83.3682Z" fill="black"/>
<path d="M429.622 86.752C429.662 86.7436 429.731 86.7865 429.814 86.8903C429.769 86.9019 429.71 86.8526 429.622 86.752Z" fill="black"/>
<path d="M429.836 86.9827C429.876 86.9734 429.942 87.015 430.023 87.1152C429.979 87.1271 429.92 87.0804 429.836 86.9827Z" fill="black"/>
<path d="M426.755 83.8764C426.797 83.8662 426.87 83.9104 426.963 84.0165C426.917 84.0291 426.851 83.98 426.755 83.8764Z" fill="black"/>
<path d="M425.93 83.1552C425.968 83.1388 426.037 83.175 426.14 83.2601C426.102 83.2753 426.031 83.2415 425.93 83.1552Z" fill="black"/>
<path d="M430.948 88.2857C430.988 88.2796 431.054 88.3266 431.133 88.4348C431.089 88.4435 431.031 88.3912 430.948 88.2857Z" fill="black"/>
<path d="M295.536 119.948C297.457 115.884 300.647 113.578 305.142 113.365C309.602 113.155 312.865 115.206 314.969 119.288C315.113 119.712 315.255 119.978 315.396 120.243C315.396 120.243 315.391 120.24 315.391 120.332C315.54 121.613 315.687 122.803 315.84 123.992C315.966 124.976 315.586 125.336 314.555 125.33C308.224 125.29 301.893 125.291 295.563 125.329C294.581 125.335 294.116 125.036 294.176 124.042C294.176 124.042 294.148 124.011 294.231 123.944C294.415 123.344 294.517 122.812 294.618 122.279C294.618 122.279 294.602 122.245 294.689 122.194C294.888 121.724 295 121.306 295.112 120.888C295.112 120.888 295.12 120.898 295.162 120.853C295.243 120.681 295.281 120.554 295.319 120.428C295.319 120.428 295.331 120.452 295.369 120.405C295.45 120.221 295.493 120.085 295.536 119.948Z" fill="black"/>
<path d="M294.125 124.113C294.119 125.037 294.584 125.336 295.566 125.33C301.896 125.292 308.227 125.291 314.558 125.331C315.589 125.337 315.969 124.977 315.843 123.993C315.69 122.804 315.543 121.614 315.395 120.33C316.166 121.914 316.282 123.673 316.095 125.551C308.687 125.551 301.336 125.551 293.854 125.551C293.928 125.086 293.999 124.635 294.125 124.113Z" fill="black"/>
<path d="M294.562 122.349C294.518 122.812 294.417 123.345 294.247 123.93C294.287 123.46 294.396 122.939 294.562 122.349Z" fill="black"/>
<path d="M295.059 120.946C295.002 121.307 294.89 121.725 294.707 122.185C294.759 121.819 294.881 121.411 295.059 120.946Z" fill="black"/>
<path d="M315.397 120.166C315.255 119.978 315.113 119.713 314.978 119.363C315.121 119.549 315.259 119.819 315.397 120.166Z" fill="black"/>
<path d="M295.263 120.468C295.282 120.556 295.244 120.682 295.157 120.856C295.141 120.771 295.173 120.639 295.263 120.468Z" fill="black"/>
<path d="M295.478 119.995C295.493 120.086 295.45 120.222 295.357 120.412C295.344 120.323 295.382 120.182 295.478 119.995Z" fill="black"/>
<path d="M147 115.838C147.07 115.836 147.126 115.864 147.211 116.019C147.316 116.168 147.378 116.219 147.439 116.27C147.439 116.27 147.419 116.27 147.45 116.309C147.54 116.395 147.6 116.443 147.659 116.49C147.659 116.49 147.64 116.49 147.67 116.529C147.76 116.616 147.82 116.663 147.88 116.711C147.88 116.711 147.86 116.711 147.889 116.75C147.975 116.837 148.032 116.885 148.09 116.934C148.09 116.934 148.077 116.934 148.095 116.994C148.214 117.136 148.315 117.218 148.416 117.301C148.416 117.301 148.374 117.306 148.393 117.347C148.471 117.45 148.53 117.512 148.589 117.575C148.589 117.575 148.544 117.57 148.57 117.604C148.652 117.698 148.708 117.756 148.764 117.815C148.764 117.815 148.746 117.809 148.75 117.877C148.901 118.121 149.048 118.297 149.194 118.474C149.194 118.474 149.181 118.473 149.182 118.548C149.34 118.864 149.496 119.104 149.653 119.344C149.653 119.344 149.637 119.342 149.634 119.418C149.79 119.808 149.948 120.123 150.107 120.437C150.107 120.437 150.091 120.435 150.084 120.523C150.22 121.726 150.356 122.841 150.507 123.955C150.65 125.011 150.204 125.338 149.148 125.331C142.924 125.29 136.699 125.312 130.474 125.311C128.941 125.311 128.941 125.308 128.879 123.738C128.879 123.738 128.891 123.751 128.952 123.71C129.263 122.736 129.513 121.803 129.762 120.87C129.762 120.87 129.768 120.888 129.811 120.843C129.889 120.667 129.925 120.536 129.96 120.404C129.96 120.404 129.973 120.441 130.013 120.399C130.113 120.173 130.173 119.99 130.233 119.806C130.233 119.806 130.223 119.799 130.3 119.774C130.465 119.519 130.554 119.29 130.643 119.061C131.45 117.426 132.686 116.181 134.332 115.157C134.677 114.996 134.87 114.848 135.064 114.7C135.064 114.7 135.061 114.717 135.121 114.706C135.292 114.623 135.404 114.549 135.516 114.476C135.516 114.476 135.506 114.5 135.563 114.491C135.731 114.411 135.843 114.341 135.956 114.27C135.956 114.27 135.951 114.285 136.02 114.281C136.264 114.191 136.44 114.104 136.615 114.016C136.615 114.016 136.602 114.046 136.664 114.048C136.904 113.967 137.081 113.884 137.258 113.801C137.258 113.801 137.254 113.817 137.348 113.824C139.384 113.826 141.325 113.82 143.266 113.814C143.266 113.814 143.248 113.835 143.276 113.899C143.722 114.072 144.14 114.18 144.558 114.288C144.558 114.288 144.551 114.292 144.577 114.36C144.879 114.53 145.156 114.632 145.433 114.734C145.433 114.734 145.432 114.73 145.469 114.775C145.576 114.853 145.646 114.886 145.717 114.919C145.717 114.919 145.673 114.926 145.71 114.96C145.868 115.051 145.99 115.107 146.111 115.164C146.111 115.164 146.096 115.168 146.132 115.207C146.237 115.286 146.307 115.325 146.376 115.364C146.376 115.364 146.333 115.372 146.37 115.399C146.483 115.462 146.558 115.499 146.633 115.535C146.633 115.535 146.596 115.536 146.625 115.582C146.769 115.698 146.884 115.768 147 115.838Z" fill="black"/>
<path d="M128.826 123.806C128.94 125.309 128.94 125.311 130.472 125.312C136.697 125.313 142.923 125.291 149.147 125.332C150.202 125.339 150.649 125.012 150.506 123.956C150.355 122.842 150.219 121.727 150.086 120.517C150.857 122.036 150.853 123.74 150.724 125.546C143.329 125.546 135.976 125.546 128.473 125.546C128.574 124.985 128.675 124.429 128.826 123.806Z" fill="black"/>
<path d="M143.202 113.756C141.327 113.82 139.385 113.826 137.342 113.822C139.192 113.094 141.161 113.222 143.202 113.756Z" fill="black"/>
<path d="M129.702 120.924C129.512 121.803 129.263 122.736 128.943 123.71C129.129 122.827 129.386 121.902 129.702 120.924Z" fill="black"/>
<path d="M144.501 114.234C144.14 114.18 143.722 114.071 143.281 113.886C143.653 113.932 144.049 114.056 144.501 114.234Z" fill="black"/>
<path d="M150.104 120.361C149.948 120.124 149.79 119.809 149.637 119.411C149.794 119.646 149.947 119.965 150.104 120.361Z" fill="black"/>
<path d="M149.646 119.271C149.496 119.104 149.339 118.864 149.185 118.543C149.337 118.707 149.488 118.952 149.646 119.271Z" fill="black"/>
<path d="M145.386 114.678C145.156 114.632 144.879 114.53 144.575 114.356C144.812 114.397 145.075 114.51 145.386 114.678Z" fill="black"/>
<path d="M130.582 119.103C130.554 119.29 130.465 119.52 130.305 119.778C130.329 119.586 130.425 119.365 130.582 119.103Z" fill="black"/>
<path d="M149.184 118.404C149.047 118.297 148.901 118.121 148.753 117.868C148.893 117.973 149.034 118.154 149.184 118.404Z" fill="black"/>
<path d="M134.991 114.709C134.872 114.848 134.679 114.996 134.404 115.141C134.521 114.998 134.719 114.858 134.991 114.709Z" fill="black"/>
<path d="M130.182 119.858C130.173 119.99 130.112 120.174 129.994 120.405C130.001 120.272 130.067 120.091 130.182 119.858Z" fill="black"/>
<path d="M136.539 114.02C136.44 114.105 136.265 114.192 136.014 114.279C136.113 114.194 136.288 114.108 136.539 114.02Z" fill="black"/>
<path d="M137.182 113.801C137.081 113.884 136.904 113.967 136.649 114.041C136.75 113.955 136.929 113.878 137.182 113.801Z" fill="black"/>
<path d="M129.903 120.445C129.925 120.536 129.889 120.667 129.802 120.846C129.782 120.758 129.813 120.622 129.903 120.445Z" fill="black"/>
<path d="M135.886 114.271C135.843 114.341 135.731 114.411 135.551 114.486C135.594 114.417 135.705 114.344 135.886 114.271Z" fill="black"/>
<path d="M135.448 114.48C135.406 114.55 135.294 114.624 135.114 114.706C135.157 114.638 135.267 114.561 135.448 114.48Z" fill="black"/>
<path d="M146.078 115.104C145.99 115.108 145.869 115.051 145.707 114.939C145.793 114.936 145.919 114.99 146.078 115.104Z" fill="black"/>
<path d="M146.971 115.778C146.885 115.769 146.769 115.699 146.626 115.564C146.713 115.572 146.827 115.644 146.971 115.778Z" fill="black"/>
<path d="M148.392 117.241C148.317 117.219 148.216 117.136 148.099 116.988C148.177 117.008 148.271 117.094 148.392 117.241Z" fill="black"/>
<path d="M145.688 114.862C145.646 114.885 145.576 114.853 145.467 114.776C145.505 114.757 145.583 114.781 145.688 114.862Z" fill="black"/>
<path d="M148.753 117.75C148.708 117.755 148.652 117.697 148.573 117.581C148.614 117.578 148.679 117.632 148.753 117.75Z" fill="black"/>
<path d="M148.573 117.511C148.53 117.513 148.472 117.45 148.393 117.326C148.434 117.325 148.495 117.386 148.573 117.511Z" fill="black"/>
<path d="M148.076 116.875C148.033 116.886 147.976 116.837 147.89 116.74C147.927 116.733 147.994 116.774 148.076 116.875Z" fill="black"/>
<path d="M147.864 116.651C147.82 116.664 147.76 116.616 147.67 116.52C147.709 116.511 147.779 116.551 147.864 116.651Z" fill="black"/>
<path d="M147.643 116.43C147.599 116.443 147.539 116.395 147.449 116.299C147.488 116.29 147.558 116.33 147.643 116.43Z" fill="black"/>
<path d="M147.423 116.21C147.378 116.22 147.317 116.17 147.227 116.066C147.267 116.058 147.337 116.103 147.423 116.21Z" fill="black"/>
<path d="M146.6 115.481C146.56 115.499 146.485 115.462 146.368 115.377C146.406 115.361 146.485 115.394 146.6 115.481Z" fill="black"/>
<path d="M146.349 115.307C146.307 115.326 146.237 115.287 146.131 115.201C146.17 115.186 146.246 115.217 146.349 115.307Z" fill="black"/>
</g>
<defs>
<clipPath id="clip0_158_893">
<rect width="440.889" height="231" fill="white" transform="translate(0.381836)"/>
</clipPath>
</defs>
</svg>
