<svg fill="none" height="231" viewBox="0 0 537 231" width="537" xmlns="http://www.w3.org/2000/svg" xmlns:xlink="http://www.w3.org/1999/xlink"><clipPath id="a"><path d="m.737305 0h535.877v231h-535.877z"/></clipPath><clipPath id="b"><path d="m.737305 50.5h535.877v130h-535.877z"/></clipPath><g clip-path="url(#a)"><g clip-path="url(#b)" fill="#000"><path d="m.737305 146.409 19.181695-14.669c10.1549 13.298 21.0353 19.424 33.1246 19.424 12.0087 0 22.486-6.045 32.238-19.263l19.5044 14.346c-14.0239 19.021-31.513 29.095-51.7424 29.095-20.1488-.08-37.7992-10.074-52.306295-28.933z"/><path d="m52.9632 82.4963-34.1724 29.4177-15.79666-18.2956 50.04966-43.1184 49.6462 43.1184-15.8769 18.2146z"/><path d="m178.289 157.128c-11.687 0-21.358-3.788-29.256-11.364-7.899-7.657-11.767-17.49-11.767-29.498 0-12.089 3.949-22.0027 11.847-29.8204 7.979-7.8983 17.731-11.7669 29.256-11.7669 14.265 0 26.919 6.1252 34.253 15.7967l-12.895 13.5396c-6.125-6.6085-12.815-9.9129-20.068-9.9129-6.126 0-11.203 2.0149-15.475 6.2869-4.11 4.191-6.125 9.51-6.125 15.877 0 6.125 2.015 11.364 6.125 15.555 4.191 4.11 9.269 6.125 15.313 6.125 7.899 0 14.83-3.466 20.552-10.236l13.379 12.815c-3.707 4.836-8.624 8.865-14.829 12.009-6.045 3.062-12.815 4.594-20.31 4.594zm57.867-83.5776v82.3686h-19.021v-82.3686zm18.053 17.4891c-6.367 0-11.041-4.6745-11.041-11.0415 0-6.1252 4.835-10.7998 11.041-10.7998 6.125 0 10.881 4.6746 10.881 10.7998 0 6.367-4.756 11.0415-10.881 11.0415zm9.591 5.3193v59.6402h-19.101v-59.6402zm36.59 60.8492c-9.429 0-16.925-2.901-22.889-8.785-5.803-5.803-8.785-13.298-8.785-22.486s2.902-16.602 8.866-22.486c5.964-5.8027 13.62-8.7041 23.131-8.7041 12.411 0 23.372 6.0451 28.369 17.4081l-15.232 7.979c-3.063-5.077-7.254-7.656-12.734-7.656-4.03 0-7.254 1.289-9.833 3.868-2.498 2.579-3.869 6.045-3.788 9.591 0 7.899 5.722 13.701 13.379 13.701 5.48 0 10.558-3.062 12.734-7.656l15.232 9.027c-5.077 10.074-15.796 16.199-28.45 16.199zm94.861-1.289h-22.648l-17.65-23.615-2.821 2.579v21.036h-19.02v-82.3686h19.02v40.0556l17.892-17.2472h23.212l-25.629 23.9372zm1.209-30.949v-48.8406h20.31v48.5186c0 8.946 5.158 13.298 12.653 13.298 7.334 0 12.492-4.513 12.492-13.298v-48.5186h20.391v48.8406c0 23.534-16.28 32.399-32.964 32.399-16.441 0-32.882-8.865-32.882-32.399zm111.06-30.1425c8.543 0 15.474 3.0626 20.954 9.0265 5.481 5.964 8.221 13.379 8.221 22.164s-2.821 16.199-8.301 22.325c-5.481 6.044-12.412 9.107-20.713 9.107-6.609 0-12.331-2.176-16.925-6.448v29.498h-19.101v-84.1412h18.779v5.4802c4.513-4.6742 10.235-7.0115 17.086-7.0115zm9.671 31.4325c0-7.818-5.641-13.702-13.379-13.702-7.817 0-13.54 5.964-13.54 13.702 0 3.788 1.29 7.011 3.788 9.752 2.579 2.659 5.803 4.029 9.752 4.029 3.869 0 7.093-1.289 9.591-4.029 2.499-2.66 3.869-6.126 3.788-9.752z"/></g></g></svg>