<svg width="537" height="231" viewBox="0 0 537 231" fill="none" xmlns="http://www.w3.org/2000/svg">
<g clip-path="url(#clip0_158_759)">
<g clip-path="url(#clip1_158_759)">
<path d="M0.737305 146.409L19.919 131.74C30.0739 145.038 40.9543 151.164 53.0436 151.164C65.0523 151.164 75.5296 145.119 85.2816 131.901L104.786 146.247C90.7621 165.268 73.273 175.342 53.0436 175.342C32.8948 175.262 15.2444 165.268 0.737305 146.409Z" fill="black"/>
<path d="M52.9632 82.4963L18.7908 111.914L2.99414 93.6184L53.0438 50.5L102.69 93.6184L86.8131 111.833L52.9632 82.4963Z" fill="black"/>
<path d="M178.289 157.128C166.602 157.128 156.931 153.34 149.033 145.764C141.134 138.107 137.266 128.274 137.266 116.266C137.266 104.177 141.215 94.2633 149.113 86.4456C157.092 78.5473 166.844 74.6787 178.369 74.6787C192.634 74.6787 205.288 80.8039 212.622 90.4754L199.727 104.015C193.602 97.4065 186.912 94.1021 179.659 94.1021C173.533 94.1021 168.456 96.117 164.184 100.389C160.074 104.58 158.059 109.899 158.059 116.266C158.059 122.391 160.074 127.63 164.184 131.821C168.375 135.931 173.453 137.946 179.497 137.946C187.396 137.946 194.327 134.48 200.049 127.71L213.428 140.525C209.721 145.361 204.804 149.39 198.599 152.534C192.554 155.596 185.784 157.128 178.289 157.128ZM236.156 73.5504V155.919H217.135V73.5504C217.216 73.5504 236.156 73.5504 236.156 73.5504ZM254.209 91.0395C247.842 91.0395 243.168 86.365 243.168 79.998C243.168 73.8728 248.003 69.1982 254.209 69.1982C260.334 69.1982 265.09 73.8728 265.09 79.998C265.09 86.365 260.334 91.0395 254.209 91.0395ZM263.8 96.3588V155.999H244.699V96.3588H263.8ZM300.39 157.208C290.961 157.208 283.465 154.307 277.501 148.423C271.698 142.62 268.716 135.125 268.716 125.937C268.716 116.749 271.618 109.335 277.582 103.451C283.546 97.6483 291.202 94.7469 300.713 94.7469C313.124 94.7469 324.085 100.792 329.082 112.155L313.85 120.134C310.787 115.057 306.596 112.478 301.116 112.478C297.086 112.478 293.862 113.767 291.283 116.346C288.785 118.925 287.414 122.391 287.495 125.937C287.495 133.836 293.217 139.638 300.874 139.638C306.354 139.638 311.432 136.576 313.608 131.982L328.84 141.009C323.763 151.083 313.044 157.208 300.39 157.208ZM395.251 155.919H372.603L354.953 132.304L352.132 134.883V155.919H333.112V73.5504H352.132V113.606L370.024 96.3588H393.236L367.607 120.296L395.251 155.919ZM396.46 124.97V76.1294H416.77V124.648C416.77 133.594 421.928 137.946 429.423 137.946C436.757 137.946 441.915 133.433 441.915 124.648V76.1294H462.306V124.97C462.306 148.504 446.026 157.369 429.342 157.369C412.901 157.369 396.46 148.504 396.46 124.97ZM507.52 94.8275C516.063 94.8275 522.994 97.8901 528.474 103.854C533.955 109.818 536.695 117.233 536.695 126.018C536.695 134.803 533.874 142.217 528.394 148.343C522.913 154.387 515.982 157.45 507.681 157.45C501.072 157.45 495.35 155.274 490.756 151.002V180.5H471.655V96.3588H490.434V101.839C494.947 97.1648 500.669 94.8275 507.52 94.8275ZM517.191 126.26C517.191 118.442 511.55 112.558 503.812 112.558C495.995 112.558 490.272 118.522 490.272 126.26C490.272 130.048 491.562 133.271 494.06 136.012C496.639 138.671 499.863 140.041 503.812 140.041C507.681 140.041 510.905 138.752 513.403 136.012C515.902 133.352 517.272 129.886 517.191 126.26Z" fill="black"/>
</g>
</g>
<defs>
<clipPath id="clip0_158_759">
<rect width="535.877" height="231" fill="white" transform="translate(0.737305)"/>
</clipPath>
<clipPath id="clip1_158_759">
<rect width="535.877" height="130" fill="white" transform="translate(0.737305 50.5)"/>
</clipPath>
</defs>
</svg>
