<svg fill="none" height="231" viewBox="0 0 403 231" width="403" xmlns="http://www.w3.org/2000/svg" xmlns:xlink="http://www.w3.org/1999/xlink"><clipPath id="a"><path d="m.614258 0h402.25v231h-402.25z"/></clipPath><clipPath id="b"><path d="m.614258 48.5h402.25v134h-402.25z"/></clipPath><g clip-path="url(#a)"><g clip-path="url(#b)" fill="#000"><g clip-rule="evenodd" fill-rule="evenodd"><path d="m71.9773 178.53c0 2.198 1.7729 3.97 3.9702 3.97h54.8085c2.197 0 3.983-1.785 3.845-3.97-1.972-31.499-27.167-56.694-58.666-58.666-2.1848-.138-3.9702 1.66-3.9702 3.845v54.809z"/><path d="m63.2506 123.833c0-2.197-1.7728-3.97-3.9702-3.97h-54.8085c-2.19733 0-3.982665 1.786-3.845332 3.97 1.972612 31.5 27.167032 56.694 58.666332 58.667 2.1848.137 3.9702-1.661 3.9702-3.846v-54.808z"/><path d="m63.2497 107.168c0 2.197-1.7729 3.97-3.9702 3.97h-54.80857c-2.19734 0-3.982672-1.785-3.845338-3.97 1.960118-31.4869 27.154608-56.6939 58.653908-58.6665 2.1848-.1373 3.9702 1.6605 3.9702 3.8454v54.8081z"/><path d="m71.9773 52.4702c0-2.1974 1.7729-3.9702 3.9702-3.9702h54.8085c2.197 0 3.983 1.7853 3.845 3.9702-1.972 31.4993-27.167 56.6938-58.666 58.6668-2.1848.137-3.9702-1.661-3.9702-3.846v-54.8208z"/></g><path d="m201.97 110.238c-2.472-5.356-6.954-8.04-13.009-8.04-8.078 0-13.459 6.479-13.459 14.744s5.831 14.745 13.896 14.745c5.83 0 9.863-2.684 12.56-7.815h17.716c-3.359 14.519-15.919 23.896-30.713 23.896-17.267 0-30.713-13.846-30.713-31.05 0-17.2044 13.671-30.8254 30.488-30.8254 15.244 0 27.804 9.6008 30.938 24.3454h-17.716z"/><path d="m227.302 145.745v-57.8425h16.367v6.2549h.225c3.134-6.2549 7.853-8.0402 14.57-8.0402v17.4168c-10.313 0-13.671 4.02-13.671 10.499v31.937h-17.491z"/><path d="m307.803 116.705c0-8.04-6.504-14.745-14.794-14.745s-14.345 6.48-14.345 14.97c0 8.04 6.504 14.52 14.57 14.52 8.29.224 14.569-6.255 14.569-14.745zm0 29.04v-6.255h-.224c-2.472 5.131-9.414 8.265-17.042 8.265-17.267 0-29.152-13.396-29.152-31.05 0-17.6536 12.56-30.8251 29.152-30.8251 7.179 0 13.671 2.909 17.042 8.0402h.224v-6.2549h17.492v57.8428h-17.492v.224z"/><path d="m376.184 145.745v-42.436h-18.84v42.436h-17.491v-42.436h-7.628v-15.4061h7.628v-1.3359c0-11.8356 6.28-17.8658 22.647-17.8658h1.124v12.9593c-5.156 0-6.505 2.4595-6.505 6.2549h18.84v-19.2017h17.491v19.2017h9.414v15.4066h-9.414v42.436h-17.266z"/></g></g></svg>