<svg width="403" height="231" viewBox="0 0 403 231" fill="none" xmlns="http://www.w3.org/2000/svg">
<g clip-path="url(#clip0_158_765)">
<g clip-path="url(#clip1_158_765)">
<path fill-rule="evenodd" clip-rule="evenodd" d="M71.9773 178.53C71.9773 180.728 73.7502 182.5 75.9475 182.5H130.756C132.953 182.5 134.739 180.715 134.601 178.53C132.629 147.031 107.434 121.836 75.935 119.864C73.7502 119.726 71.9648 121.524 71.9648 123.709V178.518L71.9773 178.53Z" fill="black"/>
<path fill-rule="evenodd" clip-rule="evenodd" d="M63.2506 123.833C63.2506 121.636 61.4778 119.863 59.2804 119.863H4.4719C2.27457 119.863 0.489235 121.649 0.626568 123.833C2.59918 155.333 27.7936 180.527 59.2929 182.5C61.4777 182.637 63.2631 180.839 63.2631 178.654V123.846L63.2506 123.833Z" fill="black"/>
<path fill-rule="evenodd" clip-rule="evenodd" d="M63.2497 107.168C63.2497 109.365 61.4768 111.138 59.2795 111.138H4.47093C2.27359 111.138 0.488258 109.353 0.625592 107.168C2.58571 75.6811 27.7802 50.4741 59.2795 48.5015C61.4643 48.3642 63.2497 50.162 63.2497 52.3469V107.155V107.168Z" fill="black"/>
<path fill-rule="evenodd" clip-rule="evenodd" d="M71.9773 52.4702C71.9773 50.2728 73.7502 48.5 75.9475 48.5H130.756C132.953 48.5 134.739 50.2853 134.601 52.4702C132.629 83.9695 107.434 109.164 75.935 111.137C73.7502 111.274 71.9648 109.476 71.9648 107.291V52.4702H71.9773Z" fill="black"/>
<path d="M201.97 110.238C199.498 104.882 195.016 102.198 188.961 102.198C180.883 102.198 175.502 108.677 175.502 116.942C175.502 125.207 181.333 131.687 189.398 131.687C195.228 131.687 199.261 129.003 201.958 123.872H219.674C216.315 138.391 203.755 147.768 188.961 147.768C171.694 147.768 158.248 133.922 158.248 116.718C158.248 99.5136 171.919 85.8926 188.736 85.8926C203.98 85.8926 216.54 95.4934 219.674 110.238H201.958H201.97Z" fill="black"/>
<path d="M227.302 145.745V87.9025H243.669V94.1574H243.894C247.028 87.9025 251.747 86.1172 258.464 86.1172V103.534C248.151 103.534 244.793 107.554 244.793 114.033V145.97H227.302V145.745Z" fill="black"/>
<path d="M307.803 116.705C307.803 108.665 301.299 101.96 293.009 101.96C284.719 101.96 278.664 108.44 278.664 116.93C278.664 124.97 285.168 131.45 293.234 131.45C301.524 131.674 307.803 125.195 307.803 116.705ZM307.803 145.745V139.49H307.579C305.107 144.621 298.165 147.755 290.537 147.755C273.27 147.755 261.385 134.359 261.385 116.705C261.385 99.0514 273.945 85.8799 290.537 85.8799C297.716 85.8799 304.208 88.7889 307.579 93.9201H307.803V87.6652H325.295V145.508H307.803V145.732V145.745Z" fill="black"/>
<path d="M376.184 145.745V103.309H357.344V145.745H339.853V103.309H332.225V87.9029H339.853V86.567C339.853 74.7314 346.133 68.7012 362.5 68.7012H363.624V81.6605C358.468 81.6605 357.119 84.12 357.119 87.9154H375.959V68.7137H393.45V87.9154H402.864V103.322H393.45V145.758H376.184V145.745Z" fill="black"/>
</g>
</g>
<defs>
<clipPath id="clip0_158_765">
<rect width="402.25" height="231" fill="white" transform="translate(0.614258)"/>
</clipPath>
<clipPath id="clip1_158_765">
<rect width="402.25" height="134" fill="white" transform="translate(0.614258 48.5)"/>
</clipPath>
</defs>
</svg>
