<svg fill="none" height="231" viewBox="0 0 451 231" width="451" xmlns="http://www.w3.org/2000/svg" xmlns:xlink="http://www.w3.org/1999/xlink"><clipPath id="a"><path d="m-.009766 0h450.464v231h-450.464z"/></clipPath><g clip-path="url(#a)"><path d="m16.4244 111.808c0-1.223.408-2.294 1.2229-3.212.9178-.918 1.9886-1.377 3.2124-1.377h36.4081c-1.8357-4.589-4.8422-8.3115-9.0255-11.1671-4.1803-2.9574-8.8726-4.4363-14.0737-4.4363-4.2833 0-8.2607 1.0199-11.9321 3.0595s-6.6788 4.8443-9.0246 8.4139c-1.8357 2.855-3.0595 6.017-3.67142 9.484-.10179.612-.20388 1.275-.30596 1.989v1.989c0 3.467.6631 6.73 1.98868 9.79 1.3259 2.957 3.1107 5.558 5.3541 7.802 2.2438 2.243 4.8443 4.028 7.8009 5.354 3.0595 1.326 6.3249 1.989 9.7904 1.989 3.8773 0 7.5487-.867 11.0142-2.601 3.5714-1.734 6.5279-4.181 8.8726-7.343.5118-.714.9708-1.479 1.3767-2.295.5119-.815.9708-1.631 1.3768-2.447.5119-1.122 1.3268-1.887 2.4476-2.295 1.2238-.408 2.3976-.357 3.5184.153 1.1238.51 1.8887 1.377 2.2947 2.601.5118 1.122.5118 2.244 0 3.365-1.1209 2.448-2.3947 4.59-3.8244 6.425-3.2625 4.284-7.2398 7.598-11.9321 9.944-4.6892 2.345-9.7374 3.518-15.1445 3.518-4.6893 0-9.1256-.867-13.3089-2.601-4.0782-1.835-7.6478-4.283-10.7073-7.342-3.05952-3.06-5.50713-6.629-7.34283-10.709-1.73362-4.181-2.600586-8.617-2.600586-13.308 0-1.836.15297-3.672.458921-5.508.408035-2.345.969055-4.538 1.682745-6.577.81606-2.142 1.88688-4.182 3.21246-6.1195 3.16159-4.9973 7.24109-8.8725 12.23719-11.6261 5.1011-2.7536 10.5552-4.1303 16.3683-4.1303 4.1833 0 8.1606.7139 11.932 2.1416 3.7744 1.4277 7.1399 3.4164 10.0964 5.9661 2.9595 2.4476 5.4571 5.4562 7.4958 9.0255 2.0416 3.4677 3.3654 7.2407 3.9773 11.3197.206 1.224-.05 2.346-.7648 3.366-.712 1.02-1.6828 1.632-2.9066 1.836 0 0-.6619 0-1.9886 0-1.2238 0-2.8536.051-4.8952.153-2.0387 0-4.3834 0-7.0369 0-2.5476 0-5.1482 0-7.8017 0h-21.4166c-1.2238 0-2.2946-.459-3.2124-1.377-.8149-.918-1.2229-1.989-1.2229-3.213zm94.0666-29.2179c3.775 0 7.343.7139 10.709 2.1416 3.365 1.4277 6.272 3.4164 8.719 5.9661 2.551 2.5496 4.54 5.5071 5.966 8.8725 1.427 3.3657 2.142 6.9347 2.142 10.7087v35.643c0 1.224-.459 2.294-1.377 3.212-.815.816-1.836 1.224-3.059 1.224-1.224 0-2.295-.408-3.213-1.224-.918-.918-1.377-1.988-1.377-3.212v-35.643c0-2.55-.509-4.947-1.529-7.19-.918-2.346-2.245-4.3345-3.978-5.9663-1.632-1.7336-3.568-3.0595-5.813-3.9773-2.244-1.02-4.639-1.5298-7.19-1.5298-1.835 0-3.671.2551-5.507.7649-1.223.408-2.397.3059-3.518-.306-1.021-.6119-1.7328-1.4788-2.1418-2.6005-.4089-1.2238-.3059-2.3456.306-3.3655.6118-1.1217 1.5298-1.8866 2.7538-2.2946 2.753-.8158 5.457-1.2238 8.107-1.2238zm-23.2518.1529c1.3268 0 2.3976.459 3.2125 1.3768.9178.8158 1.3767 1.8357 1.3767 3.0595v58.8957c0 1.224-.4589 2.294-1.3767 3.212-.8149.816-1.8857 1.224-3.2125 1.224-1.2238 0-2.2946-.408-3.2125-1.224-.8149-.918-1.2238-1.988-1.2238-3.212v-58.8957c0-1.2238.4089-2.2437 1.2238-3.0595.9179-.9178 1.9887-1.3768 3.2125-1.3768zm125.1068 11.0143c.815.9178 1.224 2.0395 1.224 3.3654 0 1.2238-.512 2.2437-1.53 3.0593-.714.714-1.682 1.071-2.906 1.071-1.327 0-2.448-.459-3.366-1.3767-2.347-2.6515-5.151-4.6914-8.413-6.119-3.163-1.4277-6.528-2.1417-10.097-2.1417-3.468 0-6.68.6628-9.637 1.9887-1.43.6119-2.856 1.3768-4.283 2.2946-.818.5098-1.683.7649-2.601.7649-1.43 0-2.653-.6628-3.671-1.9887-.715-1.1217-.971-2.2437-.765-3.3654.203-1.2238.865-2.1926 1.989-2.9066.917-.6119 1.835-1.1729 2.753-1.6827s1.936-1.0199 3.06-1.5298c4.283-1.7336 8.666-2.6005 13.155-2.6005 4.793 0 9.332.9687 13.615 2.9065 4.384 1.9378 8.208 4.6913 11.473 8.2607zm-25.088 47.7287c1.224 0 2.242.458 3.06 1.376.918.816 1.377 1.887 1.377 3.213 0 1.224-.459 2.294-1.377 3.212-.818.816-1.836 1.224-3.06 1.224-4.692 0-9.128-.867-13.308-2.601-4.081-1.835-7.649-4.283-10.709-7.342-3.059-3.06-5.507-6.629-7.342-10.709-1.736-4.181-2.601-8.617-2.601-13.308 0-5.1 1.121-10.046 3.365-14.839.612-1.122 1.477-1.8866 2.601-2.2947 1.224-.408 2.395-.3568 3.518.153 1.121.5097 1.886 1.3767 2.295 2.6007.406 1.122.306 2.244-.306 3.365-1.633 3.774-2.447 7.445-2.447 11.015 0 3.467.661 6.73 1.988 9.79 1.324 2.957 3.11 5.558 5.354 7.802 2.242 2.243 4.843 4.028 7.802 5.354 3.06 1.326 6.322 1.989 9.79 1.989zm76.8-1.683c1.121-.51 2.244-.51 3.365 0 1.224.408 2.092 1.173 2.601 2.294.509 1.122.509 2.295 0 3.519-.409 1.122-1.174 1.938-2.295 2.447-3.365 1.632-7.14 2.448-11.32 2.448-3.874 0-7.496-.714-10.861-2.142-3.263-1.427-6.169-3.416-8.72-5.966-2.55-2.549-4.539-5.456-5.966-8.719-1.427-3.366-2.141-6.986-2.141-10.861v-35.6437c0-1.2238.409-2.2437 1.223-3.0595.918-.9178 1.989-1.3768 3.213-1.3768 1.327 0 2.397.459 3.212 1.3768.918.8158 1.377 1.8357 1.377 3.0595v35.6437c0 2.651.459 5.099 1.377 7.342 1.021 2.244 2.345 4.233 3.977 5.966 1.733 1.632 3.722 2.958 5.966 3.978 2.245.918 4.693 1.377 7.343 1.377 2.551 0 5.098-.561 7.649-1.683zm15.45-57.2129c1.224 0 2.245.4589 3.06 1.3767.918.8158 1.377 1.8866 1.377 3.2125v58.7427c0 1.224-.459 2.294-1.377 3.212-.815.816-1.836 1.224-3.06 1.224-1.223 0-2.294-.408-3.212-1.224-.918-.918-1.377-1.988-1.377-3.212v-58.7427c0-1.3259.459-2.3967 1.377-3.2125.918-.9178 1.989-1.3767 3.212-1.3767zm54.557.6119c4.589 0 8.922.9178 13.002 2.7535 4.078 1.7336 7.649 4.1304 10.709 7.1899 3.059 3.0595 5.454 6.6288 7.19 10.7086 1.835 4.079 2.753 8.413 2.753 13.003 0 4.589-.918 8.923-2.753 13.002-1.736 4.08-4.131 7.649-7.19 10.709-3.06 3.059-6.631 5.507-10.709 7.342-4.08 1.734-8.413 2.601-13.002 2.601-6.222 0-12.035-1.632-17.44-4.895-1.02-.612-1.682-1.479-1.988-2.601-.306-1.224-.103-2.396.612-3.518.612-1.122 1.476-1.785 2.6-1.989 1.224-.306 2.395-.153 3.519.459 3.771 2.448 8.004 3.671 12.697 3.671 3.365 0 6.525-.662 9.484-1.988 3.06-1.326 5.71-3.111 7.955-5.354 2.241-2.244 3.977-4.845 5.201-7.802 1.324-3.06 1.989-6.272 1.989-9.637 0-3.366-.665-6.528-1.989-9.485-1.224-3.059-2.96-5.711-5.201-7.9547-2.245-2.2437-4.895-3.9773-7.955-5.2011-2.959-1.3259-6.119-1.9887-9.484-1.9887-3.366 0-6.578.6628-9.638 1.9887-2.959 1.2238-5.56 2.9574-7.802 5.2011-2.244 2.2437-4.03 4.8957-5.354 7.9547-1.326 2.957-1.988 6.119-1.988 9.485v29.218c0 1.224-.459 2.294-1.377 3.212-.818.816-1.836 1.224-3.06 1.224-1.223 0-2.294-.408-3.212-1.224-.818-.918-1.224-1.988-1.224-3.212v-97.9043c0-1.2238.406-2.2438 1.224-3.0595.918-.9179 1.989-1.3768 3.212-1.3768 1.224 0 2.242.4589 3.06 1.3768.918.8157 1.377 1.8357 1.377 3.0595v45.8925c3.159-3.2634 6.831-5.8639 11.014-7.8017 4.283-2.0396 8.872-3.0595 13.768-3.0595zm64.855 28.606c0-1.223.409-2.294 1.224-3.212.918-.918 1.989-1.377 3.212-1.377h36.409c-1.836-4.589-4.846-8.3115-9.026-11.1671-4.18-2.9574-8.873-4.4363-14.074-4.4363-4.283 0-8.26 1.0199-11.932 3.0595-3.671 2.0396-6.681 4.8443-9.025 8.4139-1.836 2.855-3.06 6.017-3.672 9.484-.103.612-.203 1.275-.306 1.989v1.989c0 3.467.662 6.73 1.989 9.79 1.327 2.957 3.11 5.558 5.354 7.802 2.245 2.243 4.845 4.028 7.802 5.354 3.059 1.326 6.322 1.989 9.79 1.989 3.875 0 7.546-.867 11.015-2.601 3.568-1.734 6.527-4.181 8.872-7.343.509-.714.968-1.479 1.377-2.295.509-.815.968-1.631 1.377-2.447.509-1.122 1.326-1.887 2.447-2.295 1.224-.408 2.398-.357 3.519.153 1.12.51 1.885 1.377 2.294 2.601.509 1.122.509 2.244 0 3.365-1.121 2.448-2.397 4.59-3.824 6.425-3.263 4.284-7.24 7.598-11.932 9.944-4.692 2.345-9.741 3.518-15.145 3.518-4.692 0-9.128-.867-13.309-2.601-4.08-1.835-7.648-4.283-10.708-7.342-3.059-3.06-5.507-6.629-7.343-10.709-1.732-4.181-2.6-8.617-2.6-13.308 0-1.836.153-3.672.459-5.508.409-2.345.968-4.538 1.682-6.577.815-2.142 1.886-4.182 3.213-6.1195 3.162-4.9973 7.24-8.8725 12.238-11.6261 5.098-2.7536 10.555-4.1303 16.368-4.1303 4.181 0 8.158.7139 11.932 2.1416 3.775 1.4277 7.14 3.4164 10.097 5.9661 2.956 2.4476 5.457 5.4562 7.495 9.0255 2.039 3.4677 3.366 7.2407 3.978 11.3197.203 1.224-.05 2.346-.765 3.366s-1.683 1.632-2.907 1.836c0 0-.661 0-1.988 0-1.224 0-2.857.051-4.895.153-2.039 0-4.387 0-7.037 0-2.551 0-5.151 0-7.802 0h-21.417c-1.223 0-2.294-.459-3.212-1.377-.815-.918-1.224-1.989-1.224-3.213z" fill="#000"/></g></svg>