<svg width="451" height="231" viewBox="0 0 451 231" fill="none" xmlns="http://www.w3.org/2000/svg">
<g clip-path="url(#clip0_158_875)">
<path d="M16.4244 111.808C16.4244 110.585 16.8324 109.514 17.6473 108.596C18.5651 107.678 19.6359 107.219 20.8597 107.219H57.2678C55.4321 102.63 52.4256 98.9075 48.2423 96.0519C44.062 93.0945 39.3697 91.6156 34.1686 91.6156C29.8853 91.6156 25.9079 92.6355 22.2365 94.6751C18.5651 96.7147 15.5577 99.5194 13.2119 103.089C11.3762 105.944 10.1524 109.106 9.54048 112.573C9.43869 113.185 9.3366 113.848 9.23452 114.562C9.23452 115.174 9.23452 115.837 9.23452 116.551C9.23452 120.018 9.89762 123.281 11.2232 126.341C12.5491 129.298 14.3339 131.899 16.5773 134.143C18.8211 136.386 21.4216 138.171 24.3782 139.497C27.4377 140.823 30.7031 141.486 34.1686 141.486C38.0459 141.486 41.7173 140.619 45.1828 138.885C48.7542 137.151 51.7107 134.704 54.0554 131.542C54.5672 130.828 55.0262 130.063 55.4321 129.247C55.944 128.432 56.4029 127.616 56.8089 126.8C57.3208 125.678 58.1357 124.913 59.2565 124.505C60.4803 124.097 61.6541 124.148 62.7749 124.658C63.8987 125.168 64.6636 126.035 65.0696 127.259C65.5814 128.381 65.5814 129.503 65.0696 130.624C63.9487 133.072 62.6749 135.214 61.2452 137.049C57.9827 141.333 54.0054 144.647 49.3131 146.993C44.6239 149.338 39.5757 150.511 34.1686 150.511C29.4793 150.511 25.043 149.644 20.8597 147.91C16.7815 146.075 13.2119 143.627 10.1524 140.568C7.09288 137.508 4.64527 133.939 2.80957 129.859C1.07595 125.678 0.208984 121.242 0.208984 116.551C0.208984 114.715 0.361954 112.879 0.667905 111.043C1.07594 108.698 1.63696 106.505 2.35065 104.466C3.16671 102.324 4.23753 100.284 5.56311 98.3465C8.7247 93.3492 12.8042 89.474 17.8003 86.7204C22.9014 83.9668 28.3555 82.5901 34.1686 82.5901C38.3519 82.5901 42.3292 83.304 46.1006 84.7317C49.875 86.1594 53.2405 88.1481 56.197 90.6978C59.1565 93.1454 61.6541 96.154 63.6928 99.7233C65.7344 103.191 67.0582 106.964 67.6701 111.043C67.8761 112.267 67.6201 113.389 66.9053 114.409C66.1933 115.429 65.2225 116.041 63.9987 116.245C63.9987 116.245 63.3368 116.245 62.0101 116.245C60.7863 116.245 59.1565 116.296 57.1149 116.398C55.0762 116.398 52.7315 116.398 50.078 116.398C47.5304 116.398 44.9298 116.398 42.2763 116.398H20.8597C19.6359 116.398 18.5651 115.939 17.6473 115.021C16.8324 114.103 16.4244 113.032 16.4244 111.808ZM110.491 82.5901C114.266 82.5901 117.834 83.304 121.2 84.7317C124.565 86.1594 127.472 88.1481 129.919 90.6978C132.47 93.2474 134.459 96.2049 135.885 99.5703C137.312 102.936 138.027 106.505 138.027 110.279V145.922C138.027 147.146 137.568 148.216 136.65 149.134C135.835 149.95 134.814 150.358 133.591 150.358C132.367 150.358 131.296 149.95 130.378 149.134C129.46 148.216 129.001 147.146 129.001 145.922V110.279C129.001 107.729 128.492 105.332 127.472 103.089C126.554 100.743 125.227 98.7545 123.494 97.1227C121.862 95.3891 119.926 94.0632 117.681 93.1454C115.437 92.1254 113.042 91.6156 110.491 91.6156C108.656 91.6156 106.82 91.8707 104.984 92.3805C103.761 92.7885 102.587 92.6864 101.466 92.0745C100.445 91.4626 99.7332 90.5957 99.3242 89.474C98.9153 88.2502 99.0183 87.1284 99.6302 86.1085C100.242 84.9868 101.16 84.2219 102.384 83.8139C105.137 82.9981 107.841 82.5901 110.491 82.5901ZM87.2392 82.743C88.566 82.743 89.6368 83.202 90.4517 84.1198C91.3695 84.9356 91.8284 85.9555 91.8284 87.1793V146.075C91.8284 147.299 91.3695 148.369 90.4517 149.287C89.6368 150.103 88.566 150.511 87.2392 150.511C86.0154 150.511 84.9446 150.103 84.0267 149.287C83.2118 148.369 82.8029 147.299 82.8029 146.075V87.1793C82.8029 85.9555 83.2118 84.9356 84.0267 84.1198C84.9446 83.202 86.0154 82.743 87.2392 82.743ZM212.346 93.7573C213.161 94.6751 213.57 95.7968 213.57 97.1227C213.57 98.3465 213.058 99.3664 212.04 100.182C211.326 100.896 210.358 101.253 209.134 101.253C207.807 101.253 206.686 100.794 205.768 99.8763C203.421 97.2248 200.617 95.1849 197.355 93.7573C194.192 92.3296 190.827 91.6156 187.258 91.6156C183.79 91.6156 180.578 92.2784 177.621 93.6043C176.191 94.2162 174.765 94.9811 173.338 95.8989C172.52 96.4087 171.655 96.6638 170.737 96.6638C169.307 96.6638 168.084 96.001 167.066 94.6751C166.351 93.5534 166.095 92.4314 166.301 91.3097C166.504 90.0859 167.166 89.1171 168.29 88.4031C169.207 87.7912 170.125 87.2302 171.043 86.7204C171.961 86.2106 172.979 85.7005 174.103 85.1906C178.386 83.457 182.769 82.5901 187.258 82.5901C192.051 82.5901 196.59 83.5588 200.873 85.4966C205.257 87.4344 209.081 90.1879 212.346 93.7573ZM187.258 141.486C188.482 141.486 189.5 141.944 190.318 142.862C191.236 143.678 191.695 144.749 191.695 146.075C191.695 147.299 191.236 148.369 190.318 149.287C189.5 150.103 188.482 150.511 187.258 150.511C182.566 150.511 178.13 149.644 173.95 147.91C169.869 146.075 166.301 143.627 163.241 140.568C160.182 137.508 157.734 133.939 155.899 129.859C154.163 125.678 153.298 121.242 153.298 116.551C153.298 111.451 154.419 106.505 156.663 101.712C157.275 100.59 158.14 99.8254 159.264 99.4173C160.488 99.0093 161.659 99.0605 162.782 99.5703C163.903 100.08 164.668 100.947 165.077 102.171C165.483 103.293 165.383 104.415 164.771 105.536C163.138 109.31 162.324 112.981 162.324 116.551C162.324 120.018 162.985 123.281 164.312 126.341C165.636 129.298 167.422 131.899 169.666 134.143C171.908 136.386 174.509 138.171 177.468 139.497C180.528 140.823 183.79 141.486 187.258 141.486ZM264.058 139.803C265.179 139.293 266.302 139.293 267.423 139.803C268.647 140.211 269.515 140.976 270.024 142.097C270.533 143.219 270.533 144.392 270.024 145.616C269.615 146.738 268.85 147.554 267.729 148.063C264.364 149.695 260.589 150.511 256.409 150.511C252.535 150.511 248.913 149.797 245.548 148.369C242.285 146.942 239.379 144.953 236.828 142.403C234.278 139.854 232.289 136.947 230.862 133.684C229.435 130.318 228.721 126.698 228.721 122.823V87.1793C228.721 85.9555 229.13 84.9356 229.944 84.1198C230.862 83.202 231.933 82.743 233.157 82.743C234.484 82.743 235.554 83.202 236.369 84.1198C237.287 84.9356 237.746 85.9555 237.746 87.1793V122.823C237.746 125.474 238.205 127.922 239.123 130.165C240.144 132.409 241.468 134.398 243.1 136.131C244.833 137.763 246.822 139.089 249.066 140.109C251.311 141.027 253.759 141.486 256.409 141.486C258.96 141.486 261.507 140.925 264.058 139.803ZM279.508 82.5901C280.732 82.5901 281.753 83.049 282.568 83.9668C283.486 84.7826 283.945 85.8534 283.945 87.1793V145.922C283.945 147.146 283.486 148.216 282.568 149.134C281.753 149.95 280.732 150.358 279.508 150.358C278.285 150.358 277.214 149.95 276.296 149.134C275.378 148.216 274.919 147.146 274.919 145.922V87.1793C274.919 85.8534 275.378 84.7826 276.296 83.9668C277.214 83.049 278.285 82.5901 279.508 82.5901ZM334.065 83.202C338.654 83.202 342.987 84.1198 347.067 85.9555C351.145 87.6891 354.716 90.0859 357.776 93.1454C360.835 96.2049 363.23 99.7742 364.966 103.854C366.801 107.933 367.719 112.267 367.719 116.857C367.719 121.446 366.801 125.78 364.966 129.859C363.23 133.939 360.835 137.508 357.776 140.568C354.716 143.627 351.145 146.075 347.067 147.91C342.987 149.644 338.654 150.511 334.065 150.511C327.843 150.511 322.03 148.879 316.625 145.616C315.605 145.004 314.943 144.137 314.637 143.015C314.331 141.791 314.534 140.619 315.249 139.497C315.861 138.375 316.725 137.712 317.849 137.508C319.073 137.202 320.244 137.355 321.368 137.967C325.139 140.415 329.372 141.638 334.065 141.638C337.43 141.638 340.59 140.976 343.549 139.65C346.609 138.324 349.259 136.539 351.504 134.296C353.745 132.052 355.481 129.451 356.705 126.494C358.029 123.434 358.694 120.222 358.694 116.857C358.694 113.491 358.029 110.329 356.705 107.372C355.481 104.313 353.745 101.661 351.504 99.4173C349.259 97.1736 346.609 95.44 343.549 94.2162C340.59 92.8903 337.43 92.2275 334.065 92.2275C330.699 92.2275 327.487 92.8903 324.427 94.2162C321.468 95.44 318.867 97.1736 316.625 99.4173C314.381 101.661 312.595 104.313 311.271 107.372C309.945 110.329 309.283 113.491 309.283 116.857V146.075C309.283 147.299 308.824 148.369 307.906 149.287C307.088 150.103 306.07 150.511 304.846 150.511C303.623 150.511 302.552 150.103 301.634 149.287C300.816 148.369 300.41 147.299 300.41 146.075V48.1707C300.41 46.9469 300.816 45.9269 301.634 45.1112C302.552 44.1933 303.623 43.7344 304.846 43.7344C306.07 43.7344 307.088 44.1933 307.906 45.1112C308.824 45.9269 309.283 46.9469 309.283 48.1707V94.0632C312.442 90.7998 316.114 88.1993 320.297 86.2615C324.58 84.2219 329.169 83.202 334.065 83.202ZM398.92 111.808C398.92 110.585 399.329 109.514 400.144 108.596C401.062 107.678 402.133 107.219 403.356 107.219H439.765C437.929 102.63 434.919 98.9075 430.739 96.0519C426.559 93.0945 421.866 91.6156 416.665 91.6156C412.382 91.6156 408.405 92.6355 404.733 94.6751C401.062 96.7147 398.052 99.5194 395.708 103.089C393.872 105.944 392.648 109.106 392.036 112.573C391.933 113.185 391.833 113.848 391.73 114.562C391.73 115.174 391.73 115.837 391.73 116.551C391.73 120.018 392.392 123.281 393.719 126.341C395.046 129.298 396.829 131.899 399.073 134.143C401.318 136.386 403.918 138.171 406.875 139.497C409.934 140.823 413.197 141.486 416.665 141.486C420.54 141.486 424.211 140.619 427.68 138.885C431.248 137.151 434.207 134.704 436.552 131.542C437.061 130.828 437.52 130.063 437.929 129.247C438.438 128.432 438.897 127.616 439.306 126.8C439.815 125.678 440.632 124.913 441.753 124.505C442.977 124.097 444.151 124.148 445.272 124.658C446.392 125.168 447.157 126.035 447.566 127.259C448.075 128.381 448.075 129.503 447.566 130.624C446.445 133.072 445.169 135.214 443.742 137.049C440.479 141.333 436.502 144.647 431.81 146.993C427.118 149.338 422.069 150.511 416.665 150.511C411.973 150.511 407.537 149.644 403.356 147.91C399.276 146.075 395.708 143.627 392.648 140.568C389.589 137.508 387.141 133.939 385.305 129.859C383.573 125.678 382.705 121.242 382.705 116.551C382.705 114.715 382.858 112.879 383.164 111.043C383.573 108.698 384.132 106.505 384.846 104.466C385.661 102.324 386.732 100.284 388.059 98.3465C391.221 93.3492 395.299 89.474 400.297 86.7204C405.395 83.9668 410.852 82.5901 416.665 82.5901C420.846 82.5901 424.823 83.304 428.597 84.7317C432.372 86.1594 435.737 88.1481 438.694 90.6978C441.65 93.1454 444.151 96.154 446.189 99.7233C448.228 103.191 449.555 106.964 450.167 111.043C450.37 112.267 450.117 113.389 449.402 114.409C448.687 115.429 447.719 116.041 446.495 116.245C446.495 116.245 445.834 116.245 444.507 116.245C443.283 116.245 441.65 116.296 439.612 116.398C437.573 116.398 435.225 116.398 432.575 116.398C430.024 116.398 427.424 116.398 424.773 116.398H403.356C402.133 116.398 401.062 115.939 400.144 115.021C399.329 114.103 398.92 113.032 398.92 111.808Z" fill="black"/>
</g>
<defs>
<clipPath id="clip0_158_875">
<rect width="450.464" height="231" fill="white" transform="translate(-0.00976562)"/>
</clipPath>
</defs>
</svg>
