<svg width="562" height="231" viewBox="0 0 562 231" fill="none" xmlns="http://www.w3.org/2000/svg">
<g clip-path="url(#clip0_158_813)">
<g clip-path="url(#clip1_158_813)">
<path d="M149.663 87.2044C147.625 86.3638 145.446 85.9162 143.242 85.8852C137.68 85.8852 134.899 88.9042 134.899 94.9421V100.924H147.745V113.713H134.899V157.127H117.61V113.713H108.171V100.924H117.61V93.9542C117.61 87.5508 119.697 82.3914 123.869 78.4758C128.042 74.5603 133.713 72.6025 140.884 72.6025C144.396 72.6025 147.322 72.969 149.663 73.7019V87.2044Z" fill="black"/>
<path d="M180.623 158.5C171.256 158.5 163.891 155.875 158.53 150.624C153.169 145.373 150.489 138.245 150.491 129.239C150.491 119.947 153.271 112.675 158.831 107.424C164.391 102.173 171.907 99.5497 181.379 99.5537C190.71 99.5537 198.028 102.179 203.333 107.43C208.638 112.681 211.29 119.623 211.29 128.258C211.29 137.589 208.555 144.962 203.086 150.377C197.616 155.793 190.128 158.5 180.623 158.5ZM181.077 112.836C176.979 112.836 173.796 114.242 171.527 117.053C169.258 119.864 168.123 123.852 168.123 129.017C168.123 139.811 172.477 145.209 181.186 145.209C189.493 145.209 193.645 139.666 193.643 128.58C193.633 118.084 189.445 112.836 181.077 112.836Z" fill="black"/>
<path d="M254.723 116.567C252.637 115.431 250.203 114.864 247.422 114.866C243.655 114.866 240.709 116.247 238.585 119.01C236.461 121.773 235.399 125.532 235.401 130.287V157.126H218.059V100.923H235.401V111.354H235.621C238.366 103.742 243.306 99.9355 250.44 99.9355C252.271 99.9355 253.696 100.155 254.723 100.595V116.567Z" fill="black"/>
<path d="M349.56 157.127H332.278V125.074C332.278 116.916 329.278 112.836 323.278 112.836C320.423 112.836 318.099 114.062 316.305 116.514C314.512 118.966 313.612 122.021 313.604 125.679V157.127H296.258V124.74C296.258 116.8 293.312 112.83 287.421 112.83C286.04 112.792 284.671 113.092 283.432 113.704C282.194 114.316 281.124 115.222 280.316 116.342C278.539 118.686 277.651 121.869 277.653 125.893V157.127H260.316V100.924H277.662V109.707H277.882C279.787 106.601 282.458 104.037 285.639 102.259C288.82 100.481 292.403 99.5495 296.047 99.5537C303.987 99.5537 309.42 103.048 312.348 110.035C316.631 103.048 322.925 99.5537 331.23 99.5537C343.45 99.5537 349.56 107.092 349.56 122.167V157.127Z" fill="black"/>
<path d="M367.568 92.032C364.64 92.032 362.244 91.1636 360.378 89.4267C359.48 88.6241 358.765 87.6377 358.282 86.5344C357.799 85.4311 357.558 84.2367 357.577 83.0323C357.577 80.432 358.511 78.3096 360.378 76.6651C362.246 75.0206 364.642 74.1973 367.568 74.1953C370.532 74.1953 372.941 75.0186 374.797 76.6651C376.652 78.3116 377.577 80.434 377.57 83.0323C377.57 85.6648 376.646 87.8233 374.797 89.508C372.947 91.1927 370.538 92.034 367.568 92.032ZM376.131 157.126H358.782V100.923H376.128L376.131 157.126Z" fill="black"/>
<path d="M422.455 156.47C419.893 157.822 416.033 158.498 410.874 158.5C398.652 158.5 392.542 152.152 392.544 139.456V113.713H383.433V100.924H392.544V88.7951L409.832 83.8555V100.924H422.455V113.713H409.832V136.435C409.832 142.29 412.156 145.218 416.802 145.218C418.631 145.218 420.516 144.688 422.455 143.627V156.47Z" fill="black"/>
<path d="M438.758 92.032C435.831 92.032 433.434 91.1636 431.569 89.4267C430.671 88.6241 429.956 87.6377 429.472 86.5344C428.989 85.4311 428.749 84.2367 428.768 83.0323C428.768 80.432 429.701 78.3096 431.569 76.6651C433.436 75.0206 435.833 74.1973 438.758 74.1953C441.722 74.1953 444.132 75.0186 445.987 76.6651C447.842 78.3116 448.766 80.434 448.758 83.0323C448.758 85.6648 447.834 87.8233 445.987 89.508C444.14 91.1927 441.73 92.034 438.758 92.032ZM447.333 157.126H429.988V100.923H447.333V157.126Z" fill="black"/>
<path d="M504.184 157.127H453.743V149.937L481.971 113.713H456.559V100.924H503.958V109.487L477.23 144.338H504.178L504.184 157.127Z" fill="black"/>
<path d="M561.76 133.965H525.098C525.683 142.128 530.823 146.208 540.519 146.206C546.702 146.206 552.136 144.742 556.82 141.814V154.329C551.625 157.11 544.875 158.5 536.568 158.5C527.494 158.5 520.451 155.984 515.439 150.953C510.427 145.921 507.917 138.905 507.909 129.905C507.909 120.574 510.62 113.183 516.041 107.731C521.463 102.28 528.122 99.5537 536.02 99.5537C544.216 99.5537 550.555 101.986 555.037 106.852C559.519 111.717 561.76 118.322 561.76 126.667V133.965ZM545.679 123.318C545.679 115.27 542.423 111.245 535.911 111.243C533.128 111.243 530.719 112.396 528.683 114.701C526.646 117.006 525.412 119.878 524.978 123.318H545.679Z" fill="black"/>
<path d="M89.9696 148.576H4.31289C3.19861 148.605 2.13991 149.069 1.36225 149.867C0.584585 150.666 0.149414 151.737 0.149414 152.851C0.149414 153.966 0.584585 155.036 1.36225 155.835C2.13991 156.634 3.19861 157.097 4.31289 157.127H89.9696C90.5406 157.142 91.1089 157.042 91.6409 156.834C92.1728 156.626 92.6577 156.314 93.067 155.915C93.4762 155.517 93.8015 155.04 94.0236 154.514C94.2456 153.988 94.3601 153.422 94.3601 152.851C94.3601 152.28 94.2456 151.715 94.0236 151.188C93.8015 150.662 93.4762 150.186 93.067 149.787C92.6577 149.389 92.1728 149.076 91.6409 148.868C91.1089 148.66 90.5406 148.561 89.9696 148.576Z" fill="black"/>
<path d="M89.9698 131.14H4.3131C3.17877 131.14 2.09091 131.59 1.28883 132.392C0.48674 133.194 0.0361328 134.282 0.0361328 135.417C0.0361328 136.551 0.48674 137.639 1.28883 138.441C2.09091 139.243 3.17877 139.694 4.3131 139.694H89.9698C91.1041 139.694 92.192 139.243 92.9941 138.441C93.7962 137.639 94.2468 136.551 94.2468 135.417C94.2468 134.282 93.7962 133.194 92.9941 132.392C92.192 131.59 91.1041 131.14 89.9698 131.14Z" fill="black"/>
<path d="M4.31289 122.257H89.9696C90.5406 122.273 91.1089 122.173 91.6409 121.965C92.1728 121.757 92.6577 121.445 93.067 121.046C93.4762 120.648 93.8015 120.171 94.0236 119.645C94.2456 119.119 94.3601 118.553 94.3601 117.982C94.3601 117.411 94.2456 116.845 94.0236 116.319C93.8015 115.793 93.4762 115.316 93.067 114.918C92.6577 114.519 92.1728 114.207 91.6409 113.999C91.1089 113.791 90.5406 113.691 89.9696 113.707H4.31289C3.19861 113.736 2.13991 114.2 1.36225 114.998C0.584585 115.797 0.149414 116.867 0.149414 117.982C0.149414 119.097 0.584585 120.167 1.36225 120.966C2.13991 121.764 3.19861 122.228 4.31289 122.257Z" fill="black"/>
<path d="M8.87018 107.095C8.87018 107.01 8.87018 106.929 8.87018 106.842C8.87631 100.557 11.1782 94.492 15.343 89.786C19.5078 85.0801 25.2484 82.0579 31.4853 81.2879C37.7221 80.5178 44.0255 82.053 49.2098 85.6047C54.3941 89.1564 58.1021 94.4798 59.6365 100.574C62.109 99.0362 64.9404 98.1713 67.8501 98.0649C67.8501 98.0649 67.8501 98.0468 67.8501 98.0378C68.1513 98.0197 68.4525 97.9805 68.7537 97.9805C71.3214 97.9832 73.8515 98.5984 76.1338 99.7749C78.4161 100.951 80.3849 102.655 81.8767 104.745C82.4361 105.486 82.9337 106.272 83.3646 107.095H92.4516C90.7312 101.27 86.9209 96.2855 81.7516 93.0971C76.5822 89.9088 70.4178 88.7412 64.4406 89.8182C60.6859 83.242 54.8625 78.0915 47.8769 75.1683C40.8912 72.2451 33.1352 71.7132 25.8159 73.6554C18.4966 75.5976 12.0246 79.9049 7.40735 85.9069C2.79005 91.909 0.28642 99.2691 0.286133 106.842C0.286133 106.929 0.286133 107.01 0.286133 107.095H8.87018Z" fill="black"/>
</g>
</g>
<defs>
<clipPath id="clip0_158_813">
<rect width="561.724" height="231" fill="white" transform="translate(0.0390625)"/>
</clipPath>
<clipPath id="clip1_158_813">
<rect width="561.724" height="86" fill="white" transform="translate(0.0390625 72.5)"/>
</clipPath>
</defs>
</svg>
