<svg fill="none" height="231" viewBox="0 0 562 231" width="562" xmlns="http://www.w3.org/2000/svg" xmlns:xlink="http://www.w3.org/1999/xlink"><clipPath id="a"><path d="m.039063 0h561.724v231h-561.724z"/></clipPath><clipPath id="b"><path d="m.039063 72.5h561.724v86h-561.724z"/></clipPath><g clip-path="url(#a)"><g clip-path="url(#b)" fill="#000"><path d="m149.663 87.2044c-2.038-.8406-4.217-1.2882-6.421-1.3192-5.562 0-8.343 3.019-8.343 9.0569v5.9819h12.846v12.789h-12.846v43.414h-17.289v-43.414h-9.439v-12.789h9.439v-6.9698c0-6.4034 2.087-11.5628 6.259-15.4784 4.173-3.9155 9.844-5.8733 17.015-5.8733 3.512 0 6.438.3665 8.779 1.0994z"/><path d="m180.623 158.5c-9.367 0-16.732-2.625-22.093-7.876s-8.041-12.379-8.039-21.385c0-9.292 2.78-16.564 8.34-21.815s13.076-7.8743 22.548-7.8703c9.331 0 16.649 2.6253 21.954 7.8763s7.957 12.193 7.957 20.828c0 9.331-2.735 16.704-8.204 22.119-5.47 5.416-12.958 8.123-22.463 8.123zm.454-45.664c-4.098 0-7.281 1.406-9.55 4.217s-3.404 6.799-3.404 11.964c0 10.794 4.354 16.192 13.063 16.192 8.307 0 12.459-5.543 12.457-16.629-.01-10.496-4.198-15.744-12.566-15.744z"/><path d="m254.723 116.567c-2.086-1.136-4.52-1.703-7.301-1.701-3.767 0-6.713 1.381-8.837 4.144s-3.186 6.522-3.184 11.277v26.839h-17.342v-56.203h17.342v10.431h.22c2.745-7.612 7.685-11.4185 14.819-11.4185 1.831 0 3.256.2195 4.283.6595z"/><path d="m349.56 157.127h-17.282v-32.053c0-8.158-3-12.238-9-12.238-2.855 0-5.179 1.226-6.973 3.678-1.793 2.452-2.693 5.507-2.701 9.165v31.448h-17.346v-32.387c0-7.94-2.946-11.91-8.837-11.91-1.381-.038-2.75.262-3.989.874-1.238.612-2.308 1.518-3.116 2.638-1.777 2.344-2.665 5.527-2.663 9.551v31.234h-17.337v-56.203h17.346v8.783h.22c1.905-3.106 4.576-5.67 7.757-7.448s6.764-2.7095 10.408-2.7053c7.94 0 13.373 3.4943 16.301 10.4813 4.283-6.987 10.577-10.4813 18.882-10.4813 12.22 0 18.33 7.5383 18.33 22.6133z"/><path d="m367.568 92.032c-2.928 0-5.324-.8684-7.19-2.6053-.898-.8026-1.613-1.789-2.096-2.8923s-.724-2.2977-.705-3.5021c0-2.6003.934-4.7227 2.801-6.3672 1.868-1.6445 4.264-2.4678 7.19-2.4698 2.964 0 5.373.8233 7.229 2.4698 1.855 1.6465 2.78 3.7689 2.773 6.3672 0 2.6325-.924 4.791-2.773 6.4757-1.85 1.6847-4.259 2.526-7.229 2.524zm8.563 65.094h-17.349v-56.203h17.346z"/><path d="m422.455 156.47c-2.562 1.352-6.422 2.028-11.581 2.03-12.222 0-18.332-6.348-18.33-19.044v-25.743h-9.111v-12.789h9.111v-12.1289l17.288-4.9396v17.0685h12.623v12.789h-12.623v22.722c0 5.855 2.324 8.783 6.97 8.783 1.829 0 3.714-.53 5.653-1.591z"/><path d="m438.758 92.032c-2.927 0-5.324-.8684-7.189-2.6053-.898-.8026-1.613-1.789-2.097-2.8923-.483-1.1033-.723-2.2977-.704-3.5021 0-2.6003.933-4.7227 2.801-6.3672 1.867-1.6445 4.264-2.4678 7.189-2.4698 2.964 0 5.374.8233 7.229 2.4698s2.779 3.7689 2.771 6.3672c0 2.6325-.924 4.791-2.771 6.4757s-4.257 2.526-7.229 2.524zm8.575 65.094h-17.345v-56.203h17.345z"/><path d="m504.184 157.127h-50.441v-7.19l28.228-36.224h-25.412v-12.789h47.399v8.563l-26.728 34.851h26.948z"/><path d="m561.76 133.965h-36.662c.585 8.163 5.725 12.243 15.421 12.241 6.183 0 11.617-1.464 16.301-4.392v12.515c-5.195 2.781-11.945 4.171-20.252 4.171-9.074 0-16.117-2.516-21.129-7.547-5.012-5.032-7.522-12.048-7.53-21.048 0-9.331 2.711-16.722 8.132-22.174 5.422-5.451 12.081-8.1773 19.979-8.1773 8.196 0 14.535 2.4323 19.017 7.2983 4.482 4.865 6.723 11.47 6.723 19.815zm-16.081-10.647c0-8.048-3.256-12.073-9.768-12.075-2.783 0-5.192 1.153-7.228 3.458-2.037 2.305-3.271 5.177-3.705 8.617z"/><path d="m89.9696 148.576h-85.65671c-1.11428.029-2.17298.493-2.95064 1.291-.777665.799-1.212836 1.87-1.212836 2.984 0 1.115.435171 2.185 1.212836 2.984.77766.799 1.83636 1.262 2.95064 1.292h85.65671c.571.015 1.1393-.085 1.6713-.293.5319-.208 1.0168-.52 1.4261-.919.4092-.398.7345-.875.9566-1.401.222-.526.3365-1.092.3365-1.663s-.1145-1.136-.3365-1.663c-.2221-.526-.5474-1.002-.9566-1.401-.4093-.398-.8942-.711-1.4261-.919-.532-.208-1.1003-.307-1.6713-.292z"/><path d="m89.9698 131.14h-85.6567c-1.13433 0-2.22219.45-3.02427 1.252-.80209.802-1.2526972 1.89-1.2526972 3.025 0 1.134.4506072 2.222 1.2526972 3.024.80208.802 1.88994 1.253 3.02427 1.253h85.6567c1.1343 0 2.2222-.451 3.0243-1.253s1.2527-1.89 1.2527-3.024c0-1.135-.4506-2.223-1.2527-3.025s-1.89-1.252-3.0243-1.252z"/><path d="m4.31289 122.257h85.65671c.571.016 1.1393-.084 1.6713-.292.5319-.208 1.0168-.52 1.4261-.919.4092-.398.7345-.875.9566-1.401.222-.526.3365-1.092.3365-1.663s-.1145-1.137-.3365-1.663c-.2221-.526-.5474-1.003-.9566-1.401-.4093-.399-.8942-.711-1.4261-.919-.532-.208-1.1003-.308-1.6713-.292h-85.65671c-1.11428.029-2.17298.493-2.95064 1.291-.777665.799-1.212836 1.869-1.212836 2.984s.435171 2.185 1.212836 2.984c.77766.798 1.83636 1.262 2.95064 1.291z"/><path d="m8.87018 107.095c0-.085 0-.166 0-.253.00613-6.285 2.30802-12.35 6.47282-17.056 4.1648-4.7059 9.9054-7.7281 16.1423-8.4981 6.2368-.7701 12.5402.7651 17.7245 4.3168s8.8923 8.8751 10.4267 14.9693c2.4725-1.5378 5.3039-2.4027 8.2136-2.5091 0 0 0-.0181 0-.0271.3012-.0181.6024-.0573.9036-.0573 2.5677.0027 5.0978.6179 7.3801 1.7944 2.2823 1.1761 4.2511 2.8801 5.7429 4.9701.5594.741 1.057 1.527 1.4879 2.35h9.087c-1.7204-5.825-5.5307-10.8095-10.7-13.9979-5.1694-3.1883-11.3338-4.3559-17.311-3.2789-3.7547-6.5762-9.5781-11.7267-16.5637-14.6499-6.9857-2.9232-14.7417-3.4551-22.061-1.5129s-13.7913 6.2495-18.40855 12.2515c-4.6173 6.0021-7.12093 13.3622-7.121217 20.9351v.253z"/></g></g></svg>