<svg width="529" height="231" viewBox="0 0 529 231" fill="none" xmlns="http://www.w3.org/2000/svg">
<g clip-path="url(#clip0_158_777)">
<path d="M439.994 91.2402V99.8162C434.938 93.2373 427.301 89.7129 417.782 89.7129C399.804 89.7129 386.29 104.046 386.29 123.547C386.29 143.519 399.684 158.204 417.782 158.204C427.301 158.204 434.938 154.444 439.994 147.748V156.559H453.388V91.2402H439.994ZM420.486 146.338C408.615 146.338 400.273 136.94 400.273 123.665C400.273 110.742 408.499 101.813 420.486 101.813C431.765 101.813 440.463 110.977 440.463 124.017C440.463 136.94 431.885 146.338 420.486 146.338Z" fill="black"/>
<path d="M377.372 122.255C377.372 102.871 364.327 89.7129 344.703 89.7129C324.49 89.7129 310.271 103.81 310.271 123.782C310.271 144.223 324.137 158.086 344.35 158.086C359.51 158.086 371.026 150.568 375.609 137.292H360.921C357.981 143.284 352.339 146.456 344.466 146.456C333.54 146.456 325.667 139.407 324.609 128.951H377.019C377.252 127.072 377.372 124.839 377.372 122.255ZM324.609 118.025C326.02 108.392 334.245 101.226 344.703 101.226C356.101 101.226 363.505 108.157 363.622 118.025H324.609Z" fill="black"/>
<path d="M467.248 156.559H480.998V119.788C480.998 108.745 488.05 101.696 498.979 101.696C509.084 101.696 514.373 107.805 514.373 119.788V156.676H528.12V117.908C528.12 100.521 518.015 89.7129 501.447 89.7129C492.633 89.7129 485.582 93.2373 480.998 99.4637V91.2402H467.248V156.559Z" fill="black"/>
<path d="M104.628 61.8709C89.2337 57.2891 74.8971 55.292 58.798 55.292C40.8186 55.292 22.7216 58.2288 11.6754 66.2176C3.91958 71.9742 0.864258 77.9656 0.864258 87.7165C0.864258 112.035 20.2538 150.568 40.466 167.133C47.7519 173.124 55.5074 175.709 66.0835 175.709C95.2267 175.709 135.299 154.798 145.875 134.474C149.517 127.542 151.398 119.436 151.398 111.447C151.515 87.0115 136.826 71.3867 104.628 61.8709ZM37.058 109.45C26.482 109.45 19.0787 101.931 19.0787 91.4759C19.0787 81.0201 26.5995 73.5015 37.058 73.5015C47.6341 73.5015 55.0374 81.0201 55.0374 91.4759C55.0374 102.049 47.6341 109.45 37.058 109.45Z" fill="black"/>
<path d="M298.984 73.4854H285.235V156.544H298.984V73.4854Z" fill="black"/>
<path d="M231.192 158.435C255.635 158.435 273.732 140.108 273.732 115.437C273.732 113.792 273.732 111.678 273.497 109.446H226.374V121.664H259.043C257.045 136.583 246.586 145.629 231.192 145.629C213.8 145.629 202.167 133.177 202.167 114.967C202.167 96.6404 213.8 84.3049 231.192 84.3049C241.768 84.3049 250.112 88.8867 254.342 97.1102H270.676C264.448 81.1329 249.759 71.6172 231.192 71.6172C206.397 71.6172 187.478 90.4139 187.478 114.967C187.478 140.578 205.692 158.435 231.192 158.435Z" fill="black"/>
</g>
<defs>
<clipPath id="clip0_158_777">
<rect width="527.255" height="231" fill="white" transform="translate(0.864258)"/>
</clipPath>
</defs>
</svg>
