<svg fill="none" height="231" viewBox="0 0 529 231" width="529" xmlns="http://www.w3.org/2000/svg" xmlns:xlink="http://www.w3.org/1999/xlink"><clipPath id="a"><path d="m.864258 0h527.255v231h-527.255z"/></clipPath><g clip-path="url(#a)" fill="#000"><path d="m439.994 91.2402v8.576c-5.056-6.5789-12.693-10.1033-22.212-10.1033-17.978 0-31.492 14.3331-31.492 33.8341 0 19.972 13.394 34.657 31.492 34.657 9.519 0 17.156-3.76 22.212-10.456v8.811h13.394v-65.3188zm-19.508 55.0978c-11.871 0-20.213-9.398-20.213-22.673 0-12.923 8.226-21.852 20.213-21.852 11.279 0 19.977 9.164 19.977 22.204 0 12.923-8.578 22.321-19.977 22.321z"/><path d="m377.372 122.255c0-19.384-13.045-32.5421-32.669-32.5421-20.213 0-34.432 14.0971-34.432 34.0691 0 20.441 13.866 34.304 34.079 34.304 15.16 0 26.676-7.518 31.259-20.794h-14.688c-2.94 5.992-8.582 9.164-16.455 9.164-10.926 0-18.799-7.049-19.857-17.505h52.41c.233-1.879.353-4.112.353-6.696zm-52.763-4.23c1.411-9.633 9.636-16.799 20.094-16.799 11.398 0 18.802 6.931 18.919 16.799z"/><path d="m467.248 156.559h13.75v-36.771c0-11.043 7.052-18.092 17.981-18.092 10.105 0 15.394 6.109 15.394 18.092v36.888h13.747v-38.768c0-17.387-10.105-28.1951-26.673-28.1951-8.814 0-15.865 3.5244-20.449 9.7508v-8.2235h-13.75z"/><path d="m104.628 61.8709c-15.3943-4.5818-29.7309-6.5789-45.83-6.5789-17.9794 0-36.0764 2.9368-47.1226 10.9256-7.75582 5.7566-10.811142 11.748-10.811142 21.4989 0 24.3185 19.389542 62.8515 39.601742 79.4165 7.2859 5.991 15.0414 8.576 25.6175 8.576 29.1432 0 69.2155-20.911 79.7915-41.235 3.642-6.932 5.523-15.038 5.523-23.027.117-24.4355-14.572-40.0603-46.77-49.5761zm-67.57 47.5791c-10.576 0-17.9793-7.519-17.9793-17.9741 0-10.4558 7.5208-17.9744 17.9793-17.9744 10.5761 0 17.9794 7.5186 17.9794 17.9744 0 10.5731-7.4033 17.9741-17.9794 17.9741z"/><path d="m298.984 73.4854h-13.749v83.0586h13.749z"/><path d="m231.192 158.435c24.443 0 42.54-18.327 42.54-42.998 0-1.645 0-3.759-.235-5.991h-47.123v12.218h32.669c-1.998 14.919-12.457 23.965-27.851 23.965-17.392 0-29.025-12.452-29.025-30.662 0-18.3266 11.633-30.6621 29.025-30.6621 10.576 0 18.92 4.5818 23.15 12.8053h16.334c-6.228-15.9773-20.917-25.493-39.484-25.493-24.795 0-43.714 18.7967-43.714 43.3498 0 25.611 18.214 43.468 43.714 43.468z"/></g></svg>