<svg width="293" height="231" viewBox="0 0 293 231" fill="none" xmlns="http://www.w3.org/2000/svg">
<g clip-path="url(#clip0_158_1049)">
<g clip-path="url(#clip1_158_1049)">
<path d="M49.085 102.867C48.7736 101.586 48.282 100.462 47.6107 99.4948C46.9393 98.5038 46.1005 97.6698 45.0932 96.993C44.1105 96.2921 42.9595 95.7724 41.6409 95.434C40.3462 95.0714 38.9197 94.8901 37.3613 94.8901C34.0048 94.8901 31.1397 95.6999 28.7662 97.3194C26.4166 98.9388 24.6184 101.271 23.3717 104.317C22.149 107.363 21.5376 111.037 21.5376 115.339C21.5376 119.69 22.125 123.412 23.2998 126.506C24.4746 129.6 26.2248 131.969 28.5504 133.612C30.876 135.256 33.765 136.078 37.2175 136.078C40.2623 136.078 42.7917 135.631 44.8054 134.736C46.8435 133.842 48.366 132.573 49.3728 130.929C50.38 129.286 50.8834 127.352 50.8834 125.128L54.336 125.491H37.5052V111.133H70.1597V121.43C70.1597 128.198 68.733 133.987 65.8801 138.797C63.0508 143.583 59.143 147.257 54.1562 149.819C49.193 152.357 43.499 153.626 37.0736 153.626C29.905 153.626 23.6115 152.092 18.1931 149.022C12.7747 145.952 8.54297 141.577 5.49811 135.897C2.47724 130.216 0.966797 123.461 0.966797 115.629C0.966797 109.49 1.88985 104.051 3.73594 99.3135C5.60601 94.5759 8.19536 90.5756 11.5039 87.3124C14.8125 84.0252 18.6366 81.5476 22.9761 79.8798C27.3157 78.1878 31.9669 77.3418 36.9298 77.3418C41.2933 77.3418 45.3451 77.9703 49.085 79.2272C52.8494 80.4599 56.1698 82.2244 59.0468 84.5207C61.9478 86.7927 64.2855 89.4879 66.0598 92.6059C67.8338 95.7241 68.9128 99.1443 69.2963 102.867H49.085ZM79.7708 152.611V96.9205H99.0466V107.508H99.6221C100.629 103.592 102.224 100.727 104.405 98.9147C106.611 97.1018 109.189 96.1954 112.137 96.1954C113.001 96.1954 113.852 96.2679 114.691 96.4129C115.554 96.5338 116.381 96.7151 117.172 96.9568V114.034C116.189 113.695 114.978 113.442 113.54 113.272C112.101 113.103 110.867 113.019 109.836 113.019C107.893 113.019 106.144 113.466 104.585 114.36C103.051 115.23 101.84 116.463 100.953 118.058C100.066 119.629 99.6221 121.479 99.6221 123.606V152.611H79.7708ZM136.502 153.481C132.978 153.481 129.861 152.901 127.152 151.741C124.467 150.557 122.357 148.768 120.823 146.375C119.288 143.982 118.521 140.936 118.521 137.238C118.521 134.193 119.036 131.594 120.067 129.443C121.098 127.267 122.537 125.491 124.383 124.113C126.229 122.735 128.374 121.684 130.82 120.959C133.289 120.234 135.951 119.762 138.804 119.545C141.897 119.303 144.378 119.013 146.248 118.675C148.142 118.312 149.509 117.817 150.348 117.188C151.187 116.536 151.607 115.677 151.607 114.614V114.469C151.607 113.019 151.055 111.907 149.952 111.133C148.849 110.36 147.435 109.973 145.709 109.973C143.815 109.973 142.268 110.396 141.07 111.242C139.894 112.064 139.187 113.333 138.948 115.049H120.679C120.918 111.665 121.985 108.547 123.879 105.695C125.797 102.818 128.59 100.522 132.259 98.8059C135.927 97.0656 140.506 96.1954 145.997 96.1954C149.952 96.1954 153.501 96.6667 156.641 97.6094C159.782 98.5279 162.455 99.8211 164.661 101.489C166.867 103.133 168.545 105.066 169.696 107.29C170.871 109.49 171.458 111.883 171.458 114.469V152.611H152.901V144.78H152.47C151.367 146.859 150.024 148.538 148.442 149.819C146.884 151.1 145.097 152.031 143.083 152.611C141.093 153.191 138.9 153.481 136.502 153.481ZM142.976 140.864C144.486 140.864 145.9 140.55 147.219 139.921C148.562 139.293 149.652 138.386 150.492 137.202C151.331 136.018 151.75 134.579 151.75 132.887V128.247C151.223 128.464 150.66 128.67 150.06 128.863C149.485 129.056 148.861 129.237 148.19 129.407C147.543 129.576 146.848 129.733 146.104 129.878C145.385 130.023 144.63 130.156 143.839 130.277C142.304 130.519 141.046 130.917 140.062 131.473C139.103 132.005 138.384 132.67 137.905 133.467C137.449 134.241 137.221 135.111 137.221 136.078C137.221 137.625 137.761 138.809 138.84 139.631C139.919 140.453 141.297 140.864 142.976 140.864ZM181.519 152.611V141.589L205.686 112.438V112.148H182.382V96.9205H229.134V109.103L207.125 137.093V137.383H229.997V152.611H181.519ZM265.861 153.626C259.963 153.626 254.88 152.49 250.613 150.218C246.369 147.922 243.096 144.634 240.795 140.356C238.517 136.054 237.378 130.905 237.378 124.911C237.378 119.158 238.529 114.13 240.831 109.828C243.133 105.525 246.381 102.178 250.577 99.7848C254.772 97.3919 259.723 96.1954 265.429 96.1954C269.601 96.1954 273.377 96.848 276.758 98.1533C280.138 99.4585 283.027 101.356 285.425 103.846C287.822 106.311 289.669 109.308 290.963 112.837C292.258 116.366 292.905 120.342 292.905 124.766V129.407H243.564V118.385H274.636C274.612 116.789 274.204 115.387 273.413 114.179C272.646 112.946 271.603 111.991 270.284 111.315C268.99 110.614 267.515 110.263 265.861 110.263C264.254 110.263 262.78 110.614 261.437 111.315C260.095 111.991 259.016 112.934 258.201 114.143C257.41 115.351 256.99 116.765 256.942 118.385V130.277C256.942 132.066 257.314 133.661 258.057 135.063C258.8 136.465 259.867 137.564 261.258 138.362C262.648 139.16 264.327 139.559 266.293 139.559C267.659 139.559 268.906 139.365 270.033 138.979C271.184 138.592 272.166 138.036 272.982 137.311C273.797 136.561 274.396 135.667 274.78 134.628H292.905C292.282 138.495 290.807 141.855 288.482 144.707C286.156 147.535 283.075 149.735 279.239 151.306C275.427 152.853 270.967 153.626 265.861 153.626Z" fill="black"/>
</g>
</g>
<defs>
<clipPath id="clip0_158_1049">
<rect width="292" height="231" fill="white" transform="translate(0.90625)"/>
</clipPath>
<clipPath id="clip1_158_1049">
<rect width="292" height="77" fill="white" transform="translate(0.90625 77)"/>
</clipPath>
</defs>
</svg>
