<svg fill="none" height="231" viewBox="0 0 293 231" width="293" xmlns="http://www.w3.org/2000/svg" xmlns:xlink="http://www.w3.org/1999/xlink"><clipPath id="a"><path d="m.90625 0h292v231h-292z"/></clipPath><clipPath id="b"><path d="m.90625 77h292v77h-292z"/></clipPath><g clip-path="url(#a)"><g clip-path="url(#b)"><path d="m49.085 102.867c-.3114-1.281-.803-2.405-1.4743-3.3722-.6714-.991-1.5102-1.825-2.5175-2.5018-.9827-.7009-2.1337-1.2206-3.4523-1.559-1.2947-.3626-2.7212-.5439-4.2796-.5439-3.3565 0-6.2216.8098-8.5951 2.4293-2.3496 1.6194-4.1478 3.9516-5.3945 6.9976-1.2227 3.046-1.8341 6.72-1.8341 11.022 0 4.351.5874 8.073 1.7622 11.167s2.925 5.463 5.2506 7.106c2.3256 1.644 5.2146 2.466 8.6671 2.466 3.0448 0 5.5742-.447 7.5879-1.342 2.0381-.894 3.5606-2.163 4.5674-3.807 1.0072-1.643 1.5106-3.577 1.5106-5.801l3.4526.363h-16.8308v-14.358h32.6545v10.297c0 6.768-1.4267 12.557-4.2796 17.367-2.8293 4.786-6.7371 8.46-11.7239 11.022-4.9632 2.538-10.6572 3.807-17.0826 3.807-7.1686 0-13.4621-1.534-18.8805-4.604s-9.65013-7.445-12.69499-13.125c-3.02087-5.681-4.531313-12.436-4.531313-20.268 0-6.139.923053-11.578 2.769143-16.3155 1.87007-4.7376 4.45942-8.7379 7.76796-12.0011 3.3086-3.2872 7.1327-5.7648 11.4722-7.4326 4.3396-1.692 8.9908-2.538 13.9537-2.538 4.3635 0 8.4153.6285 12.1552 1.8854 3.7644 1.2327 7.0848 2.9972 9.9618 5.2935 2.901 2.272 5.2387 4.9672 7.013 8.0852 1.774 3.1182 2.853 6.5384 3.2365 10.2611zm30.6858 49.744v-55.6905h19.2758v10.5875h.5755c1.0069-3.916 2.6019-6.781 4.7829-8.5933 2.206-1.8129 4.784-2.7193 7.732-2.7193.864 0 1.715.0725 2.554.2175.863.1209 1.69.3022 2.481.5439v17.0772c-.983-.339-2.194-.592-3.632-.762-1.439-.169-2.673-.253-3.704-.253-1.943 0-3.692.447-5.251 1.341-1.534.87-2.745 2.103-3.632 3.698-.887 1.571-1.3309 3.421-1.3309 5.548v29.005zm56.7312.87c-3.524 0-6.641-.58-9.35-1.74-2.685-1.184-4.795-2.973-6.329-5.366-1.535-2.393-2.302-5.439-2.302-9.137 0-3.045.515-5.644 1.546-7.795 1.031-2.176 2.47-3.952 4.316-5.33s3.991-2.429 6.437-3.154c2.469-.725 5.131-1.197 7.984-1.414 3.093-.242 5.574-.532 7.444-.87 1.894-.363 3.261-.858 4.1-1.487.839-.652 1.259-1.511 1.259-2.574v-.145c0-1.45-.552-2.562-1.655-3.336-1.103-.773-2.517-1.16-4.243-1.16-1.894 0-3.441.423-4.639 1.269-1.176.822-1.883 2.091-2.122 3.807h-18.269c.239-3.384 1.306-6.502 3.2-9.354 1.918-2.877 4.711-5.173 8.38-6.8891 3.668-1.7403 8.247-2.6105 13.738-2.6105 3.955 0 7.504.4713 10.644 1.414 3.141.9185 5.814 2.2117 8.02 3.8796 2.206 1.644 3.884 3.577 5.035 5.801 1.175 2.2 1.762 4.593 1.762 7.179v38.142h-18.557v-7.831h-.431c-1.103 2.079-2.446 3.758-4.028 5.039-1.558 1.281-3.345 2.212-5.359 2.792-1.99.58-4.183.87-6.581.87zm6.474-12.617c1.51 0 2.924-.314 4.243-.943 1.343-.628 2.433-1.535 3.273-2.719.839-1.184 1.258-2.623 1.258-4.315v-4.64c-.527.217-1.09.423-1.69.616-.575.193-1.199.374-1.87.544-.647.169-1.342.326-2.086.471-.719.145-1.474.278-2.265.399-1.535.242-2.793.64-3.777 1.196-.959.532-1.678 1.197-2.157 1.994-.456.774-.684 1.644-.684 2.611 0 1.547.54 2.731 1.619 3.553s2.457 1.233 4.136 1.233zm38.543 11.747v-11.022l24.167-29.151v-.29h-23.304v-15.2275h46.752v12.1825l-22.009 27.99v.29h22.872v15.228zm84.342 1.015c-5.898 0-10.981-1.136-15.248-3.408-4.244-2.296-7.517-5.584-9.818-9.862-2.278-4.302-3.417-9.451-3.417-15.445 0-5.753 1.151-10.781 3.453-15.083 2.302-4.303 5.55-7.65 9.746-10.0432 4.195-2.3929 9.146-3.5894 14.852-3.5894 4.172 0 7.948.6526 11.329 1.9579 3.38 1.3052 6.269 3.2027 8.667 5.6927 2.397 2.465 4.244 5.462 5.538 8.991 1.295 3.529 1.942 7.505 1.942 11.929v4.641h-49.341v-11.022h31.072c-.024-1.596-.432-2.998-1.223-4.206-.767-1.233-1.81-2.188-3.129-2.864-1.294-.701-2.769-1.052-4.423-1.052-1.607 0-3.081.351-4.424 1.052-1.342.676-2.421 1.619-3.236 2.828-.791 1.208-1.211 2.622-1.259 4.242v11.892c0 1.789.372 3.384 1.115 4.786s1.81 2.501 3.201 3.299c1.39.798 3.069 1.197 5.035 1.197 1.366 0 2.613-.194 3.74-.58 1.151-.387 2.133-.943 2.949-1.668.815-.75 1.414-1.644 1.798-2.683h18.125c-.623 3.867-2.098 7.227-4.423 10.079-2.326 2.828-5.407 5.028-9.243 6.599-3.812 1.547-8.272 2.32-13.378 2.32z" fill="#000"/></g></g></svg>