<svg fill="none" height="231" viewBox="0 0 293 231" width="293" xmlns="http://www.w3.org/2000/svg" xmlns:xlink="http://www.w3.org/1999/xlink"><clipPath id="a"><path d="m.119141 0h292.5v231h-292.5z"/></clipPath><g clip-path="url(#a)" fill="#000"><path d="m265.575 151.412c-5.313 0-8.383-1.254-11.373-2.456-3.471-1.415-7.048-2.883-15.324-2.883s-11.88 1.468-15.324 2.883c-2.963 1.202-6.033 2.456-11.372 2.456-6.06 0-10.732-1.602-13.909-4.778-3.177-3.177-4.779-7.849-4.779-13.909 0-.187.027-17.753 2.696-35.106 3.791-24.5339 10.946-36.9745 21.331-36.9745 6.434 0 9.851 3.3905 12.574 6.1135 2.536 2.5629 4.538 4.5651 8.783 4.5651s6.247-2.0022 8.783-4.5651c2.723-2.723 6.14-6.1135 12.574-6.1135 10.385 0 17.54 12.4406 21.331 36.9745 2.669 17.353 2.696 34.946 2.696 35.106 0 6.06-1.602 10.732-4.779 13.909-3.177 3.176-7.848 4.778-13.908 4.778z"/><path d="m46.664 151.412c-8.9164 0-17.9933-2.99-24.9611-8.222-8.0089-5.98-12.41384-14.443-12.41384-23.813 0-7.395 4.19134-16.018 16.01784-16.018 6.514 0 8.009-1.495 8.009-8.0091v-10.6785c0-17.5129 6.514-24.0269 24.0266-24.0269 17.5129 0 24.0269 6.514 24.0269 24.0269v32.0356c0 11.373-2.9633 20.076-8.7831 25.922-5.8464 5.82-14.5496 8.783-25.9223 8.783z"/><path d="m260.235 63.3139c21.357 0 21.357 69.4111 21.357 69.4111 0 10.678-5.339 16.018-16.018 16.018-10.678 0-10.678-5.34-26.696-5.34s-16.018 5.34-26.697 5.34c-10.678 0-16.018-5.34-16.018-16.018 0 0 0-69.4111 21.358-69.4111 10.678 0 10.678 10.6786 21.357 10.6786 10.678 0 10.678-10.6786 21.357-10.6786zm0-5.3393c-7.555 0-11.533 3.9778-14.443 6.9144-2.616 2.6162-3.924 3.7642-6.914 3.7642s-4.298-1.148-6.915-3.7642c-2.91-2.9366-6.887-6.9144-14.442-6.9144-3.952 0-7.529 1.495-10.679 4.4049-2.483 2.2959-4.618 5.4194-6.514 9.5307-2.857 6.2202-5.152 14.7096-6.781 25.2815-2.696 17.5663-2.723 34.8123-2.723 35.5333 0 6.78 1.869 12.093 5.58 15.777 3.684 3.711 8.996 5.58 15.777 5.58 5.847 0 9.317-1.415 12.361-2.67 3.363-1.388 6.567-2.669 14.336-2.669s10.945 1.308 14.336 2.669c3.07 1.255 6.514 2.67 12.36 2.67 6.781 0 12.094-1.869 15.778-5.58 3.684-3.684 5.579-8.997 5.579-15.777 0-.721-.026-17.967-2.723-35.5066-1.628-10.572-3.897-19.088-6.781-25.2816-1.895-4.1112-4.031-7.2347-6.514-9.5306-3.15-2.9366-6.727-4.4316-10.678-4.4316z"/><path d="m185.3 118.623c-.184-8.7-1.499-17.51-3.769-25.4421-2.354-8.2313-5.742-15.4959-9.813-21.0364-4.748-6.4131-10.281-10.5212-16.444-12.1726s-13.008-.8599-20.302 2.3265c-6.295 2.7629-12.861 7.3603-19.016 13.3116-5.931 5.7348-11.475 12.7066-15.9846 20.1491-4.7349 7.7689-8.3388 16.0619-10.4601 23.9789-1.755 6.55-1.325 12.165 1.3058 16.684 2.5981 4.538 7.2462 7.718 13.7959 9.473 1.083.29 2.077.501 3.026.672-1.752 2.516-2.91 5.495-3.273 8.603-.467 3.91 2.074 7.631 5.89 8.654.387.104.806.188 1.214.215 1.855.193 3.56.124 5.034-.117.997 3.087 2.875 5.773 5.547 7.871.869.675 1.819 1.151 2.877 1.434 1.057.284 2.144.354 3.208.197 3.363-.481 6.333-1.869 8.739-4.043 1.182.952 2.598 1.857 4.301 2.617.373.156.779.292 1.166.396 3.816 1.022 7.877-.93 9.427-4.55 1.24-2.873 1.727-6.032 1.468-9.087.907.327 1.874.641 2.956.931 6.55 1.755 12.166 1.325 16.685-1.306 4.531-2.572 7.711-7.22 9.466-13.77 2.121-7.916 3.146-16.9 2.956-25.989zm-38.443 47.131c-.526 1.241-1.877 1.847-3.14 1.508-.129-.034-.258-.069-.38-.129-5.638-2.478-6.583-7.099-6.583-7.099s-1.886 7.04-9.391 8.125c-.369.039-.725.027-1.06-.063-.336-.09-.676-.264-.951-.476-5.956-4.691-4.07-11.731-4.07-11.731s-3.129 3.528-9.25 2.855c-.136-.008-.265-.043-.394-.078-1.263-.338-2.13-1.538-1.965-2.875.465-3.8 2.455-6.998 4.923-8.99.934-.082 1.817-.177 2.647-.286 3.609-.47 7.035-.879 14.539 1.132 7.504 2.01 10.234 4.096 13.156 6.289.691.517 1.375 1.059 2.15 1.571 1.141 2.959 1.292 6.731-.231 10.247zm10.712-11.197c-10.315-2.764-8.933-7.922-24.405-12.067-15.472-4.146-16.854 1.011-27.169-1.752-10.3149-2.764-14.0901-9.304-11.3263-19.618 8.2913-30.9444 38.5943-61.5183 59.2233-55.9907 20.63 5.5276 31.586 47.1567 23.294 78.1007-2.764 10.315-9.303 14.09-19.617 11.327z"/><path d="m57.3422 63.3139c16.018 0 21.3574 5.3393 21.3574 21.3572v32.0359c0 21.357-10.6785 32.036-32.0359 32.036-16.0178 0-34.7053-10.679-34.7053-29.366 0-5.34 2.6697-13.349 13.3482-13.349 8.009 0 10.6786-2.669 10.6786-10.6784v-10.6785c0-16.0179 5.3394-21.3572 21.357-21.3572zm0-5.3393c-9.8507 0-16.1512 1.9222-20.4493 6.247-4.3248 4.2981-6.247 10.5985-6.247 20.4495v10.6785c0 3.6039-.6407 4.4317-.7742 4.565-.1335.1334-.961.7744-4.5651.7744-12.921 0-18.68746 9.397-18.68746 18.688 0 10.224 4.77866 19.435 13.48166 25.948 7.4217 5.553 17.0859 8.757 26.5629 8.757 12.0936 0 21.4373-3.231 27.7911-9.584 6.3537-6.354 9.5839-15.698 9.5839-27.791v-32.0359c0-9.851-1.9221-16.1514-6.2468-20.4495-4.2982-4.3248-10.5986-6.247-20.4497-6.247z"/><path clip-rule="evenodd" d="m146.476 151.571c2.553 1.917 5.193 3.898 10.275 5.26 5.854 1.569 10.781 1.231 14.672-1.016 3.891-2.246 6.647-6.344 8.216-12.198 4.083-15.24 3.782-33.921-.811-49.9933-4.899-17.0943-13.773-28.5373-24.371-31.3771-10.599-2.8398-24.005 2.6333-36.795 14.9876-12.007 11.5967-21.615 27.6508-25.6983 42.8908-1.5684 5.853-1.2304 10.78 1.016 14.671s6.3443 6.648 12.1983 8.216c5.133 1.375 8.416.968 11.576.577l.045-.006c3.692-.475 7.554-.961 15.547 1.181 7.971 2.136 11.052 4.473 14.03 6.731l.026.02zm-24.61-38.038c1.728-6.447 4.306-5.756 5.595-5.411h.001c1.289.346 3.868 1.037 2.14 7.483-1.727 6.447-4.306 5.756-5.595 5.411-1.29-.346-3.868-1.037-2.141-7.483zm28.803.807c-1.29-.345-3.869-1.036-5.596 5.41-1.727 6.447.851 7.138 2.141 7.483 1.289.346 3.868 1.037 5.595-5.41 1.728-6.447-.851-7.138-2.14-7.483zm-11.672-18.328c1.727-6.4467 4.306-5.7557 5.595-5.4103h.001c1.289.3455 3.868 1.0365 2.14 7.4832-1.727 6.4471-4.306 5.7561-5.595 5.4101-1.29-.345-3.868-1.036-2.141-7.483z" fill-rule="evenodd"/></g></svg>