<svg width="293" height="231" viewBox="0 0 293 231" fill="none" xmlns="http://www.w3.org/2000/svg">
<g clip-path="url(#clip0_158_794)">
<path d="M265.575 151.412C260.262 151.412 257.192 150.158 254.202 148.956C250.731 147.541 247.154 146.073 238.878 146.073C230.602 146.073 226.998 147.541 223.554 148.956C220.591 150.158 217.521 151.412 212.182 151.412C206.122 151.412 201.45 149.81 198.273 146.634C195.096 143.457 193.494 138.785 193.494 132.725C193.494 132.538 193.521 114.972 196.19 97.619C199.981 73.0851 207.136 60.6445 217.521 60.6445C223.955 60.6445 227.372 64.035 230.095 66.758C232.631 69.3209 234.633 71.3231 238.878 71.3231C243.123 71.3231 245.125 69.3209 247.661 66.758C250.384 64.035 253.801 60.6445 260.235 60.6445C270.62 60.6445 277.775 73.0851 281.566 97.619C284.235 114.972 284.262 132.565 284.262 132.725C284.262 138.785 282.66 143.457 279.483 146.634C276.306 149.81 271.635 151.412 265.575 151.412Z" fill="black"/>
<path d="M46.664 151.412C37.7476 151.412 28.6707 148.422 21.7029 143.19C13.694 137.21 9.28906 128.747 9.28906 119.377C9.28906 111.982 13.4804 103.359 25.3069 103.359C31.8209 103.359 33.3159 101.864 33.3159 95.3499V84.6714C33.3159 67.1585 39.8299 60.6445 57.3425 60.6445C74.8554 60.6445 81.3694 67.1585 81.3694 84.6714V116.707C81.3694 128.08 78.4061 136.783 72.5863 142.629C66.7399 148.449 58.0367 151.412 46.664 151.412Z" fill="black"/>
<path d="M260.235 63.3139C281.592 63.3139 281.592 132.725 281.592 132.725C281.592 143.403 276.253 148.743 265.574 148.743C254.896 148.743 254.896 143.403 238.878 143.403C222.86 143.403 222.86 148.743 212.181 148.743C201.503 148.743 196.163 143.403 196.163 132.725C196.163 132.725 196.163 63.3139 217.521 63.3139C228.199 63.3139 228.199 73.9925 238.878 73.9925C249.556 73.9925 249.556 63.3139 260.235 63.3139ZM260.235 57.9746C252.68 57.9746 248.702 61.9524 245.792 64.889C243.176 67.5052 241.868 68.6532 238.878 68.6532C235.888 68.6532 234.58 67.5052 231.963 64.889C229.053 61.9524 225.076 57.9746 217.521 57.9746C213.569 57.9746 209.992 59.4696 206.842 62.3795C204.359 64.6754 202.224 67.7989 200.328 71.9102C197.471 78.1304 195.176 86.6198 193.547 97.1917C190.851 114.758 190.824 132.004 190.824 132.725C190.824 139.505 192.693 144.818 196.404 148.502C200.088 152.213 205.4 154.082 212.181 154.082C218.028 154.082 221.498 152.667 224.542 151.412C227.905 150.024 231.109 148.743 238.878 148.743C246.647 148.743 249.823 150.051 253.214 151.412C256.284 152.667 259.728 154.082 265.574 154.082C272.355 154.082 277.668 152.213 281.352 148.502C285.036 144.818 286.931 139.505 286.931 132.725C286.931 132.004 286.905 114.758 284.208 97.2184C282.58 86.6464 280.311 78.1304 277.427 71.9368C275.532 67.8256 273.396 64.7021 270.913 62.4062C267.763 59.4696 264.186 57.9746 260.235 57.9746Z" fill="black"/>
<path d="M185.3 118.623C185.116 109.923 183.801 101.113 181.531 93.1809C179.177 84.9496 175.789 77.685 171.718 72.1445C166.97 65.7314 161.437 61.6233 155.274 59.9719C149.111 58.3205 142.266 59.112 134.972 62.2984C128.677 65.0613 122.111 69.6587 115.956 75.61C110.025 81.3448 104.481 88.3166 99.9714 95.7591C95.2365 103.528 91.6326 111.821 89.5113 119.738C87.7563 126.288 88.1863 131.903 90.8171 136.422C93.4152 140.96 98.0633 144.14 104.613 145.895C105.696 146.185 106.69 146.396 107.639 146.567C105.887 149.083 104.729 152.062 104.366 155.17C103.899 159.08 106.44 162.801 110.256 163.824C110.643 163.928 111.062 164.012 111.47 164.039C113.325 164.232 115.03 164.163 116.504 163.922C117.501 167.009 119.379 169.695 122.051 171.793C122.92 172.468 123.87 172.944 124.928 173.227C125.985 173.511 127.072 173.581 128.136 173.424C131.499 172.943 134.469 171.555 136.875 169.381C138.057 170.333 139.473 171.238 141.176 171.998C141.549 172.154 141.955 172.29 142.342 172.394C146.158 173.416 150.219 171.464 151.769 167.844C153.009 164.971 153.496 161.812 153.237 158.757C154.144 159.084 155.111 159.398 156.193 159.688C162.743 161.443 168.359 161.013 172.878 158.382C177.409 155.81 180.589 151.162 182.344 144.612C184.465 136.696 185.49 127.712 185.3 118.623ZM146.857 165.754C146.331 166.995 144.98 167.601 143.717 167.262C143.588 167.228 143.459 167.193 143.337 167.133C137.699 164.655 136.754 160.034 136.754 160.034C136.754 160.034 134.868 167.074 127.363 168.159C126.994 168.198 126.638 168.186 126.303 168.096C125.967 168.006 125.627 167.832 125.352 167.62C119.396 162.929 121.282 155.889 121.282 155.889C121.282 155.889 118.153 159.417 112.032 158.744C111.896 158.736 111.767 158.701 111.638 158.666C110.375 158.328 109.508 157.128 109.673 155.791C110.138 151.991 112.128 148.793 114.596 146.801C115.53 146.719 116.413 146.624 117.243 146.515C120.852 146.045 124.278 145.636 131.782 147.647C139.286 149.657 142.016 151.743 144.938 153.936C145.629 154.453 146.313 154.995 147.088 155.507C148.229 158.466 148.38 162.238 146.857 165.754ZM157.569 154.557C147.254 151.793 148.636 146.635 133.164 142.49C117.692 138.344 116.31 143.501 105.995 140.738C95.6801 137.974 91.9049 131.434 94.6687 121.12C102.96 90.1756 133.263 59.6017 153.892 65.1293C174.522 70.6569 185.478 112.286 177.186 143.23C174.422 153.545 167.883 157.32 157.569 154.557Z" fill="black"/>
<path d="M57.3422 63.3139C73.3602 63.3139 78.6996 68.6532 78.6996 84.6711V116.707C78.6996 138.064 68.0211 148.743 46.6637 148.743C30.6459 148.743 11.9584 138.064 11.9584 119.377C11.9584 114.037 14.6281 106.028 25.3066 106.028C33.3156 106.028 35.9852 103.359 35.9852 95.3496V84.6711C35.9852 68.6532 41.3246 63.3139 57.3422 63.3139ZM57.3422 57.9746C47.4915 57.9746 41.191 59.8968 36.8929 64.2216C32.5681 68.5197 30.6459 74.8201 30.6459 84.6711V95.3496C30.6459 98.9535 30.0052 99.7813 29.8717 99.9146C29.7382 100.048 28.9107 100.689 25.3066 100.689C12.3856 100.689 6.61914 110.086 6.61914 119.377C6.61914 129.601 11.3978 138.812 20.1008 145.325C27.5225 150.878 37.1867 154.082 46.6637 154.082C58.7573 154.082 68.101 150.851 74.4548 144.498C80.8085 138.144 84.0387 128.8 84.0387 116.707V84.6711C84.0387 74.8201 82.1166 68.5197 77.7919 64.2216C73.4937 59.8968 67.1933 57.9746 57.3422 57.9746Z" fill="black"/>
<path fill-rule="evenodd" clip-rule="evenodd" d="M146.476 151.571C149.029 153.488 151.669 155.469 156.751 156.831C162.605 158.4 167.532 158.062 171.423 155.815C175.314 153.569 178.07 149.471 179.639 143.617C183.722 128.377 183.421 109.696 178.828 93.6237C173.929 76.5294 165.055 65.0864 154.457 62.2466C143.858 59.4068 130.452 64.8799 117.662 77.2342C105.655 88.8309 96.047 104.885 91.9637 120.125C90.3953 125.978 90.7333 130.905 92.9797 134.796C95.2261 138.687 99.324 141.444 105.178 143.012C110.311 144.387 113.594 143.98 116.754 143.589L116.799 143.583C120.491 143.108 124.353 142.622 132.346 144.764C140.317 146.9 143.398 149.237 146.376 151.495L146.402 151.515L146.476 151.571ZM121.866 113.533C123.594 107.086 126.172 107.777 127.461 108.122L127.462 108.122C128.751 108.468 131.33 109.159 129.602 115.605C127.875 122.052 125.296 121.361 124.007 121.016L124.007 121.016C122.717 120.67 120.139 119.979 121.866 113.533ZM150.669 114.34L150.669 114.34C149.379 113.995 146.8 113.304 145.073 119.75C143.346 126.197 145.924 126.888 147.214 127.233C148.503 127.579 151.082 128.27 152.809 121.823C154.537 115.376 151.958 114.685 150.669 114.34ZM138.997 96.012C140.724 89.5653 143.303 90.2563 144.592 90.6017L144.593 90.6017C145.882 90.9472 148.461 91.6382 146.733 98.0849C145.006 104.532 142.427 103.841 141.138 103.495L141.138 103.495C139.848 103.15 137.27 102.459 138.997 96.012Z" fill="black"/>
</g>
<defs>
<clipPath id="clip0_158_794">
<rect width="292.5" height="231" fill="white" transform="translate(0.119141)"/>
</clipPath>
</defs>
</svg>
