<svg width="229" height="231" viewBox="0 0 229 231" fill="none" xmlns="http://www.w3.org/2000/svg">
<g clip-path="url(#clip0_158_828)">
<path d="M145.032 157.701H66.6162V172.526H145.032V157.701Z" fill="black"/>
<path d="M97.8536 140.191L95.3657 137.782H89.1919H87.9941V152.513H110.109L101.171 143.619L97.8536 140.191Z" fill="black"/>
<path d="M110.109 152.513H145.032V137.782H143.005H125.129L110.109 152.513Z" fill="black"/>
<path d="M143.005 132.872H145.032V118.141L130.104 132.872H143.005Z" fill="black"/>
<path d="M89.4684 131.76L87.9941 130.278L100.249 118.048H87.9941V132.872H89.1919H90.4821L89.4684 131.76Z" fill="black"/>
<path d="M145.124 177.436H66.6162V192.26H145.124V177.436Z" fill="black"/>
<path d="M104.949 78.8574H66.6162V93.5887H119.692L104.949 78.8574Z" fill="black"/>
<path d="M119.692 98.499H66.6162V113.323H104.949L119.692 98.499Z" fill="black"/>
<path d="M61.7335 39.2031H46.9902V132.872H66.6172V118.048H61.7335V39.2031Z" fill="black"/>
<path d="M42.1055 39.2031H27.3623V152.513L66.6163 152.606V137.782H42.1055V39.2031Z" fill="black"/>
<path d="M87.9939 118.048H66.6162V132.872H87.9939V118.048Z" fill="black"/>
<path d="M87.9939 137.782H66.6162V152.513H87.9939V137.782Z" fill="black"/>
<path d="M202.163 61.81L192.304 51.9893L148.442 96.0902L192.304 140.191L202.163 130.37L168.069 96.0902L202.163 61.81Z" fill="black"/>
<path d="M145.125 99.5176L188.986 143.619L179.588 153.069L145.033 118.14V118.047V99.5176" fill="black"/>
<path d="M145.032 92.6621H145.124L188.985 48.5611L179.218 38.7402L145.124 73.0205L110.938 38.7402L101.171 48.5611L131.303 78.8574H145.032V92.6621Z" fill="black"/>
<path d="M97.8538 51.9893L87.9941 61.81L104.949 78.8575H124.576L97.8538 51.9893Z" fill="black"/>
<path d="M145.032 92.7514L145.121 92.6621H145.032V92.7514Z" fill="white"/>
<path d="M145.032 99.5151H145.121L145.032 99.4258V99.5151Z" fill="white"/>
<path d="M145.032 78.8574H131.303L145.032 92.6622V78.8574Z" fill="black"/>
<path d="M106.976 137.782L101.171 143.619L110.109 152.513L125.129 137.782H106.976Z" fill="black"/>
<path d="M126.603 118.048L111.952 132.872H130.105L145.032 118.141V118.048H126.603Z" fill="black"/>
<path d="M145.125 99.5176H145.032L131.303 113.322H145.032V99.5176" fill="black"/>
<path d="M95.3662 137.782L97.854 140.191L100.25 137.782H95.3662Z" fill="black"/>
<path d="M119.876 118.048H100.249L87.9941 130.278L90.4821 132.872H105.133L119.876 118.048Z" fill="black"/>
<path d="M139.227 93.5887L131.948 86.2694L124.576 78.8574H104.949L119.693 93.5887H139.227Z" fill="black"/>
<path d="M139.227 98.499H119.693L104.949 113.323H124.576L139.227 98.499Z" fill="black"/>
<path d="M71.1762 78.8574H66.6162V192.26H71.1762V78.8574Z" fill="#111111"/>
</g>
<defs>
<clipPath id="clip0_158_828">
<rect width="228" height="231" fill="white" transform="translate(0.762695)"/>
</clipPath>
</defs>
</svg>
