<svg fill="none" height="231" viewBox="0 0 229 231" width="229" xmlns="http://www.w3.org/2000/svg" xmlns:xlink="http://www.w3.org/1999/xlink"><clipPath id="a"><path d="m.762695 0h228v231h-228z"/></clipPath><g clip-path="url(#a)"><g fill="#000"><path d="m145.032 157.701h-78.4158v14.825h78.4158z"/><path d="m97.8536 140.191-2.4879-2.409h-6.1738-1.1978v14.731h22.1149l-8.938-8.894z"/><path d="m110.109 152.513h34.923v-14.731h-2.027-17.876z"/><path d="m143.005 132.872h2.027v-14.731l-14.928 14.731z"/><path d="m89.4684 131.76-1.4743-1.482 12.2549-12.23h-12.2549v14.824h1.1978 1.2902z"/><path d="m145.124 177.436h-78.5078v14.824h78.5078z"/><path d="m104.949 78.8574h-38.3328v14.7313h53.0758z"/><path d="m119.692 98.499h-53.0758v14.824h38.3328z"/><path d="m61.7335 39.2031h-14.7433v93.6689h19.627v-14.824h-4.8837z"/><path d="m42.1055 39.2031h-14.7432v113.3099l39.254.093v-14.824h-24.5108z"/><path d="m87.9939 118.048h-21.3777v14.824h21.3777z"/><path d="m87.9939 137.782h-21.3777v14.731h21.3777z"/><path d="m202.163 61.81-9.859-9.8207-43.862 44.1009 43.862 44.1008 9.859-9.821-34.094-34.2798z"/><path d="m145.125 99.5176 43.861 44.1014-9.398 9.45-34.555-34.929v-.093-18.5294"/><path d="m145.032 92.6621h.092l43.861-44.101-9.767-9.8209-34.094 34.2803-34.186-34.2803-9.767 9.8209 30.132 30.2963h13.729z"/><path d="m97.8538 51.9893-9.8597 9.8207 16.9549 17.0475h19.627z"/></g><path d="m145.032 92.7514.089-.0893h-.089z" fill="#fff"/><path d="m145.032 99.5151h.089l-.089-.0893z" fill="#fff"/><path d="m145.032 78.8574h-13.729l13.729 13.8048z" fill="#000"/><path d="m106.976 137.782-5.805 5.837 8.938 8.894 15.02-14.731z" fill="#000"/><path d="m126.603 118.048-14.651 14.824h18.153l14.927-14.731v-.093z" fill="#000"/><path d="m145.125 99.5176h-.093l-13.729 13.8044h13.729v-13.8044" fill="#000"/><path d="m95.3662 137.782 2.4878 2.409 2.396-2.409z" fill="#000"/><path d="m119.876 118.048h-19.627l-12.2549 12.23 2.488 2.594h14.6509z" fill="#000"/><path d="m139.227 93.5887-7.279-7.3193-7.372-7.412h-19.627l14.744 14.7313z" fill="#000"/><path d="m139.227 98.499h-19.534l-14.744 14.824h19.627z" fill="#000"/><path d="m71.1762 78.8574h-4.56v113.4026h4.56z" fill="#111"/></g></svg>