<svg fill="none" height="231" viewBox="0 0 713 231" width="713" xmlns="http://www.w3.org/2000/svg" xmlns:xlink="http://www.w3.org/1999/xlink"><clipPath id="a"><path d="m.919922 0h711.508v231h-711.508z"/></clipPath><g clip-path="url(#a)" fill="#000"><path d="m349.538 145.908c-.98.075-1.884-.151-2.714-.679-.753-.452-1.281-1.055-1.582-1.809-.302-.376-.792-1.206-1.47-2.487-.679-1.206-1.093-2.261-1.244-3.166-.226-2.412-.377-4.748-.452-7.009 0-2.262.113-5.428.339-9.498.226-3.316.678-6.256 1.357-8.819.678-2.638 1.357-4.861 2.035-6.67.678-1.885 1.206-3.279 1.583-4.184.377-.98.452-1.469.226-1.469-.301 0-.641.301-1.018.904-.301.527-.678 1.244-1.13 2.148-.377.905-.829 1.884-1.357 2.94-.452 1.055-.942 2.072-1.47 3.052-1.055 2.337-2.299 4.824-3.731 7.462-1.357 2.563-2.751 5.051-4.183 7.462-1.432 2.413-2.676 4.523-3.731 6.332-.678.754-1.47 1.847-2.374 3.279-.905 1.357-1.885 2.789-2.94 4.296-1.056 1.508-2.148 2.751-3.279 3.731-1.658 1.583-3.354 2.526-5.088 2.827-1.733.377-3.354.189-4.862-.565-.753-.075-1.545-.49-2.374-1.244-.829-.678-1.507-1.545-2.035-2.6-.452-1.056-.565-2.036-.339-2.94-.076-1.055-.076-2.676 0-4.862.15-2.261.377-4.711.678-7.349.302-2.713.603-5.314.905-7.801.376-2.488.716-4.56 1.017-6.219.679-4.824 1.583-9.761 2.714-14.811 1.206-5.0498 2.299-10.138 3.278-15.2633.604-1.5078 1.131-3.2037 1.583-5.0878.528-1.96 1.056-3.7689 1.583-5.4273.076-1.658.679-2.6755 1.81-3.0527 1.13-.4522 2.336-.5273 3.618-.2261 1.356.3017 2.298.8294 2.826 1.5829.754.7539 1.47 1.922 2.148 3.5053.679 1.5828.49 3.58-.565 5.9922-1.508 3.6935-2.978 8.216-4.409 13.5674-1.357 5.2763-2.601 11.6834-3.731 19.2204-.302 1.809-.641 3.844-1.018 6.106-.302 2.186-.603 4.296-.905 6.331-.226 2.036-.414 3.732-.565 5.088-.075 1.282-.038 1.96.113 2.035.603.151 1.244-.188 1.922-1.017.754-.83 1.545-2.148 2.375-3.957 3.09-5.126 5.992-10.214 8.705-15.264 2.789-5.05 5.578-10.3265 8.367-15.829 1.281-2.1857 2.563-4.5599 3.844-7.1228 1.357-2.638 2.638-5.0502 3.844-7.2359 1.282-2.2613 2.525-4.4474 3.731-6.5576 1.206-2.1106 2.262-3.882 3.166-5.3143.905-1.5073 1.583-2.3363 2.035-2.4873 2.035 0 3.543.5277 4.523 1.5828 1.055 1.0556 1.884 2.3368 2.487 3.8441.151.3772.226 1.018.226 1.9225.076.9045-.037 1.6959-.339 2.3743-.076.5273-.415 1.6204-1.018 3.2787-.527 1.6584-1.017 3.5049-1.469 5.54-.754 2.0351-1.433 4.0702-2.035 6.1053-.528 1.96-.905 3.5805-1.131 4.8617-.603 3.2412-1.357 6.7845-2.261 10.6285-.905 3.844-1.696 7.65-2.375 11.419-.603 3.769-.942 7.161-1.017 10.176-.076 2.11-.076 3.505 0 4.183.15.603.377 1.244.678 1.922.151.603.49.754 1.018.452.527-.301 1.055-.829 1.583-1.583 1.055-1.582 1.846-2.939 2.374-4.07.603-1.13 1.206-2.337 1.809-3.618.603-1.357 1.432-3.053 2.487-5.088 1.885-3.467 3.807-7.273 5.766-11.419 2.035-4.146 3.958-8.254 5.766-12.3242 1.885-4.0702 3.506-7.6881 4.863-10.8538 1.431-4.0702 2.637-7.349 3.617-9.8364.98-2.5628 1.885-4.5228 2.714-5.8796.829-1.3567 1.62-2.2612 2.374-2.7134.377-.3012 1.168-.4523 2.375-.4523 1.281 0 2.261.3017 2.939.9045.302.3017.83.7915 1.583 1.4698.754.6784 1.093 1.4698 1.018 2.3743-.377 1.2061-1.093 3.1661-2.149 5.8796-.98 2.7135-2.148 5.7286-3.505 9.0449-1.281 3.2412-2.562 6.3694-3.844 9.3841-1.206 2.9396-2.223 5.2765-3.052 7.0105-.83 1.583-1.621 2.939-2.375 4.07-.753 1.13-1.13 1.997-1.13 2.6 0 .302-.377 1.244-1.131 2.827-.754 1.507-1.734 3.354-2.94 5.54-1.13 2.186-2.374 4.447-3.731 6.783-1.357 2.337-2.638 4.485-3.844 6.445s-2.224 3.467-3.053 4.523c-1.884 2.337-3.919 4.296-6.105 5.879-2.11 1.658-3.995 2.902-5.653 3.731s-2.751 1.244-3.279 1.244zm43.498-7.802c-.979 0-1.771-.188-2.374-.565-.527-.377-1.206-.904-2.035-1.583-1.432-1.507-2.601-3.128-3.505-4.861-.829-1.734-1.131-3.242-.904-4.523.226-.603.301-1.168.226-1.696 0-.603 0-.905 0-.905-.377-.376-.49-.602-.34-.678.151-.151.302-.377.453-.678.452 0 .603-.415.452-1.244-.151-.603.075-1.884.678-3.844.679-2.035 1.583-3.957 2.714-5.766.452-.754 1.13-1.734 2.035-2.94.904-1.281 1.884-2.525 2.939-3.731 1.131-1.281 2.149-2.299 3.054-3.052 1.884-1.583 3.618-2.8649 5.2-3.8449 1.658-.9796 3.315-1.658 4.977-2.0351 1.657-.3768 3.351-.5653 5.085-.5653 1.809 0 3.278.6032 4.409 1.8089 1.734.7539 2.942 1.7715 3.62 3.0534.755 1.281 1.245 2.939 1.469 4.974.225 2.262 0 5.051-.677 8.367-.678 3.241-2.527 7.01-5.543 11.306-1.882 2.714-3.731 4.824-5.539 6.332-1.808 1.507-3.804 2.902-5.992 4.183-1.583 1.055-3.278 1.696-5.087 1.922s-3.581.415-5.315.565zm11.533-13.793c1.657-1.432 2.824-3.015 3.506-4.749.751-1.733 1.543-3.769 2.372-6.105.302-.453.489-1.206.567-2.261.151-1.056.188-2.073.114-3.053-.077-1.056-.339-1.659-.792-1.809-.677-.528-1.359-.641-2.036-.339-.678.226-1.543.716-2.6 1.469-2.262 1.885-4.372 4.071-6.332 6.558-1.884 2.412-3.204 5.389-3.957 8.932-.227 1.884-.038 3.317.565 4.297.679.904 1.734 1.168 3.166.791 1.507-.452 3.316-1.696 5.427-3.731zm23.89 11.532c-.678-.527-1.433-1.206-2.261-2.035-.752-.829-1.017-1.997-.792-3.505.228-2.11.53-3.957.906-5.54.375-1.658.828-3.543 1.355-5.653.151-.905.531-2.45 1.131-4.636.681-2.185 1.469-4.56 2.375-7.123.906-2.562 1.845-4.974 2.829-7.235.979-2.3372 1.845-4.0711 2.6-5.2017.828-.7535 2.032-1.1306 3.616-1.1306 1.657 0 2.788.3016 3.392.9045.828.6783 1.094 1.8845.792 3.6179-.302 1.6584-1.355 4.2589-3.168 7.8019-.375.904-.865 1.884-1.469 2.939-.527.98-.902 1.809-1.131 2.488-.224.603-.151.867.229.791.449-.829 1.281-1.771 2.486-2.826 1.208-1.131 2.485-2.224 3.844-3.279 1.356-1.056 2.637-1.998 3.845-2.827 1.204-.829 2.033-1.356 2.486-1.583.604-.377 1.282-.678 2.037-.904.828-.302 1.392-.528 1.694-.678 1.734-.8298 3.62-1.131 5.653-.9049 2.11.1506 3.392.7919 3.845 1.9219.077.603.302 1.055.677 1.357.453.301.678.452.678.452.302 0 .453.113.453.339.077.226.114.339.114.339 0 .528-.526 1.282-1.584 2.262-.979.979-2.073 1.507-3.277 1.583-.98.075-1.849.263-2.6.565-.755.301-1.661.678-2.714 1.13-2.866 1.659-5.466 3.129-7.8 4.41-2.262 1.281-4.6 3.241-7.013 5.879-.526.603-1.094 1.169-1.694 1.696-.604.528-1.208 1.282-1.812 2.261-.375.377-.751 1.206-1.13 2.488-.376 1.281-.715 2.525-1.017 3.731-.224 1.131-.339 1.809-.339 2.035 0 0-.114.377-.338 1.131-.225.678-.604 1.356-1.131 2.035-.906 1.206-1.808 1.959-2.714 2.261-.829.302-1.845-.151-3.053-1.357zm41.534 2.261c-1.13-.376-2.146-.98-3.053-1.808-.828-.829-1.167-2.187-1.016-4.071.151-1.13.376-2.299.678-3.505.302-1.281.677-2.525 1.13-3.731.225-1.357.49-2.713.792-4.07.376-1.357.98-2.638 1.808-3.844.98-2.789 1.996-5.54 3.053-8.254 1.057-2.789 1.959-5.691 2.715-8.705 1.13-2.7144 2.147-5.1262 3.053-7.2368.979-2.1102 2.147-4.8241 3.502-8.1404.755-1.7335 1.396-3.6555 1.922-5.7661.604-2.1862 1.51-4.1082 2.714-5.7662.527-.6783.907-1.2436 1.131-1.6959.302-.5277.604-1.0179.906-1.4702.527-1.0551 1.319-1.5449 2.372-1.4698 1.13.0755 1.885.3772 2.261.9045 1.281.5278 2.188 1.5078 2.714 2.94.531 1.3567.718 2.3363.567 2.9396 0 .829-.302 1.7335-.906 2.7135-.302.3012-.604.7534-.902 1.3567-.302.5274-.755 1.2437-1.359 2.1482-.302.98-.604 1.9596-.902 2.9396-.302.98-.641 1.8845-1.02 2.7134-.376.829-.792 1.6584-1.241 2.4874-.453.8294-.755 1.5077-.906 2.0351-.678 1.7339-1.433 3.4298-2.262 5.0877-.755 1.5833-1.432 3.2797-2.036 5.0877-.6 1.734-1.241 3.58-1.923 5.54-.677 1.885-1.543 3.694-2.6 5.427-.526.754-.828 1.772-.902 3.053 0 1.282-.151 2.525-.453 3.731-.526 1.357-1.016 2.601-1.469 3.731-.38 1.131-.568 1.847-.568 2.149-.526 1.658-.942 3.316-1.24 4.974-.302 1.583-.792 2.978-1.47 4.184 0 1.809-.494 2.939-1.473 3.391-.98.453-2.184.453-3.617 0zm25.89 1.018c-1.204-.151-2.11-.377-2.71-.678-.604-.377-1.735-1.168-3.392-2.375-.906-.904-2.037-2.299-3.392-4.183-1.359-1.884-2.714-3.882-4.073-5.992-1.355-2.186-2.563-4.033-3.616-5.541l6.216-7.914c.984 1.206 1.771 2.337 2.375 3.392.604 1.056 1.094 1.771 1.47 2.148 1.734 2.563 3.09 4.636 4.069 6.219.984 1.583 1.812 2.864 2.49 3.844.755.98 1.584 1.847 2.486 2.6.906.754 2.073 1.545 3.506 2.375.224.15.453.527.677 1.13.229.528.302 1.093.229 1.696-.151.905-.718 1.659-1.698 2.261-.902.528-2.449.867-4.637 1.018zm-16.392-20.917c-.453-1.281-.567-2.713-.338-4.296.302-1.658.942-2.751 1.922-3.279.302-.528.6-.867.902-1.017.38-.226.604-.49.678-.792.151-.301.53-.716 1.13-1.243.682-.528 1.282-1.018 1.813-1.47 1.204-.754 2.522-1.659 3.955-2.714 1.51-1.13 2.938-2.261 4.298-3.392 1.432-1.1302 2.6-2.1102 3.506-2.9395.979-.829 1.579-1.3568 1.808-1.5829.224-.3012.677-.4898 1.355-.5653.755-.0751 1.469.038 2.147.3392.906.2261 1.62.7163 2.151 1.4698.6.7538.902 1.8094.902 3.1661.229.8286-.261 1.8466-1.469 3.0526-1.131 1.131-2.564 2.261-4.294 3.392-.604.377-1.433.942-2.49 1.696-.98.754-1.845 1.47-2.6 2.148-.527.302-1.318.829-2.376 1.583-.979.678-1.844 1.357-2.6 2.035-.6.377-1.318 1.055-2.147 2.035-.755.905-1.62 1.583-2.6 2.035-2.412 2.261-3.881 3.354-4.408 3.279-.453-.075-.869-1.055-1.245-2.94zm41.045 21.482c-3.996 0-6.934-1.281-8.82-3.844-.527-1.206-.792-2.412-.792-3.618.078-1.281.38-2.186.906-2.713.527-.603 1.168-.49 1.923.339.979.603 2.371.905 4.183.905h2.372c.755-.076 1.62-.152 2.6-.227 1.734-.151 2.828-.678 3.281-1.582.527-.905.413-1.659-.338-2.262h.11c-2.033-.527-4.033-1.281-5.992-2.261s-3.616-2.073-4.976-3.279c-1.355-1.281-2.146-2.487-2.371-3.618-.604-2.487-.453-5.05.453-7.688.902-2.639 2.221-4.937 3.955-6.897.678-.452 1.621-1.093 2.829-1.922 1.204-.904 2.069-1.3947 2.6-1.4698v.1131c1.432-1.5078 3.053-2.7139 4.861-3.6184 1.808-.9796 3.918-1.8841 6.331-2.7135l1.808-.2261c.906-.1506 1.698-.2261 2.375-.2261-.077 0 .115.0755.564.2261.453.151.832.2641 1.13.3392.453.2261.906.3392 1.359.3392 1.053.151 2.074.7163 3.053 1.6959 1.053.9045 1.882 1.9976 2.486 3.2792.678 1.2057.943 2.3362.792 3.3922-.225 1.733-.865 3.467-1.922 5.2-1.054 1.659-2.184 2.601-3.392 2.827.151-.076 0-.226-.453-.452-.449-.226-.866-.453-1.241-.679l-.453.226s-.037-.113-.115-.339c0-.226-.073-.49-.224-.791-.302-.528-.531-1.093-.678-1.696-.077-.603-.077-1.282 0-2.035.147-.83.188-1.319.111-1.47-.074-.151-.527-.264-1.356-.339-.979-.226-2.224-.113-3.73.339-1.51.377-2.902 1.055-4.184 2.035-1.51.98-2.641 1.771-3.392 2.374-.677.603-1.208 1.207-1.583 1.809-.376.528-.792 1.32-1.245 2.375-.302.527-.563 1.017-.792 1.469-.225.377-.339.754-.339 1.131 0 .754.641 1.545 1.923 2.374 1.281.754 3.204 1.659 5.767 2.714 2.033.829 3.355 1.96 3.955 3.392.682 1.432 1.282 2.789 1.812 4.07.151.302.298.867.449 1.696.229.754.266 1.206.115 1.357.151.151.224.301.224.452v-.113c.604 1.131.494 2.336-.339 3.618-.751 1.206-1.959 2.337-3.616 3.392-1.657.98-3.543 1.696-5.653 2.148h.114c-1.13.151-2.261.264-3.392.339-1.057.076-2.073.113-3.053.113zm23.923 25.553c-.298 0-.751 0-1.355 0-.527.075-.98-.227-1.355-.905-.302-.377-.756-1.131-1.36-2.261-.604-1.056-.714-2.563-.338-4.523.375-1.281.677-2.562.906-3.844.224-1.206.338-2.11.338-2.714 0-.301.074-.904.225-1.809.229-.828.339-1.431.339-1.808.379-.603.677-1.432.906-2.488.224-1.055.339-1.997.339-2.826 0-.905.453-1.734 1.355-2.488 0-.603.114-1.356.343-2.261.298-.904.449-1.507.449-1.809.228-1.055.718-2.902 1.469-5.54.833-2.713 1.812-5.766 2.943-9.158 1.204-3.392 2.371-6.708 3.502-9.95 1.131-3.241 2.151-5.992 3.053-8.253.906-2.111 1.661-4.0703 2.261-5.8797.604-1.809.906-3.0902.906-3.8441 0-.3012.074-.5274.225-.6784.151-.2261.49-.6404 1.02-1.2437.751-.7534 1.731-1.0175 2.939-.7914 1.282.151 2.335.5278 3.163 1.1306.604.98 1.021 1.8845 1.245 2.7135.302.7539.302 1.96 0 3.618 0 1.131-.265 2.1861-.792 3.1662-.526.904-1.016 1.658-1.469 2.261-.376.527-.49.754-.339.678 3.319-2.035 6.294-3.128 8.931-3.278 2.714-.226 4.975.226 6.783 1.356 1.886 1.056 3.319 2.525 4.298 4.41.98 1.884 1.47 3.919 1.47 6.105 0 .905-.302 2.111-.906 3.618-.6 1.508-1.278 2.94-2.033 4.296-.755 1.282-1.359 2.149-1.808 2.601-.302 0-.604.264-.906.791-.302.452-.604.98-.906 1.583-.6.754-1.621 1.621-3.049 2.601-1.36.904-2.755 1.658-4.184 2.261-1.433.527-2.453.679-3.053.452 0 0-.114.075-.339.227-.151.15-.228.414-.228.791 0 .151-.527.452-1.584.904-1.053.453-2.298.867-3.731 1.244-1.432.377-2.751.565-3.955.565-1.584 0-2.714-.301-3.392-.904-.151.151-.338.377-.567.678-.151.302-.225.566-.225.792 0 .452-.187 1.168-.567 2.148-.302.98-.677 1.846-1.13 2.6-.449.829-.866 1.244-1.241 1.244 0 0-.078.113-.229.339s-.073.528.229.905c0 0-.041.414-.115 1.243 0 .905-.187 1.659-.567 2.262 0 .603-.11 1.507-.339 2.713-.224 1.206-.489 2.111-.792 2.713 0 .905-.151 1.772-.449 2.601-.228.905-.489 1.357-.791 1.357-.302.075-.49.527-.568 1.357-.073.904-.11 1.545-.11 1.922-.077 1.884-.682 3.505-1.812 4.861-1.131 1.433-2.147 2.149-3.053 2.149zm14.473-39.572c.604 0 1.698-.264 3.278-.792 1.583-.527 3.241-1.168 4.975-1.922 1.735-.829 3.09-1.658 4.07-2.487 1.963-1.734 3.469-3.43 4.522-5.088 1.131-1.659 1.057-3.505-.224-5.54-.604-1.055-1.584-1.47-2.939-1.244-1.282.151-2.714.754-4.298 1.809s-3.204 2.374-4.861 3.957c-.906.98-1.735 2.111-2.486 3.392-.755 1.282-1.396 2.525-1.923 3.731-.453 1.206-.718 2.224-.791 3.053-.078.754.151 1.131.677 1.131zm42.731 11.645c-.604.151-1.396.226-2.376.226-.979-.075-1.845-.188-2.6-.339-.677-.226-1.016-.452-1.016-.678 0-.377-.188-.566-.567-.566 0 0-.413-.301-1.241-.904-.833-.679-1.584-1.169-2.261-1.47-.682-1.055-1.131-2.261-1.36-3.618-.151-1.432.303-3.92 1.36-7.462.073-2.412.751-4.937 2.032-7.575 1.282-2.714 2.902-5.352 4.862-7.915 1.959-2.563 3.995-4.824 6.106-6.783 2.11-2.0359 3.996-3.5433 5.653-4.5233 1.057-1.0551 2.449-1.6204 4.183-1.6959 1.809-.0751 3.392.2641 4.747 1.0175.755.3772 1.584 1.1307 2.49 2.2613.902 1.131 1.772 2.3367 2.6 3.6184.829 1.206 1.47 2.299 1.923 3.279.224.829.412 1.583.563 2.261.228.603.379 1.357.453 2.261.077.905 0 2.261-.225 4.07-.379 1.357-.718 2.751-1.02 4.184-.224 1.356-.339 2.751-.339 4.183-.151 1.432 0 2.45.453 3.053.527.603 1.282.64 2.262.113.906-.453 1.848-.49 2.828-.113.98.301 1.657.904 2.033 1.809.453.829.339 1.922-.339 3.279-.453.979-1.167 1.922-2.147 2.826-.98.905-2.073 1.658-3.278 2.261-1.208.528-2.375.792-3.506.792-.828 0-1.657-.302-2.489-.905-.829-.678-1.58-1.582-2.262-2.713-.677-1.131-1.241-2.374-1.694-3.731l-.677-2.601-4.069 3.732c-.984 1.055-1.964 2.035-2.943 2.939-.902.829-1.47 1.432-1.694 1.809-.38.678-1.131 1.281-2.261 1.809-1.058.528-2.449 1.131-4.184 1.809zm3.053-10.854c1.282-.754 2.371-1.658 3.277-2.714.98-1.055 1.923-2.223 2.829-3.505.902-1.356 1.882-2.788 2.939-4.296 1.282-1.733 2.184-3.128 2.714-4.183.6-1.055 1.053-2.186 1.355-3.392-.302-.829-.714-1.696-1.245-2.6-.526-.98-1.053-1.508-1.579-1.583-1.057 0-2.339.64-3.845 1.922-1.433 1.281-3.016 3.128-4.751 5.54-.302.376-.678.98-1.131 1.809s-.902 1.62-1.355 2.374c-.375.678-.641 1.131-.792 1.357-.224.301-.567 1.017-1.016 2.148-.38 1.055-.718 2.148-1.02 3.279-.303 1.055-.449 1.809-.449 2.261s.036.942.11 1.47c.151.527.53.867 1.13 1.018.604.15 1.547-.151 2.829-.905zm43.208 11.532c-1.661 0-2.902-.075-3.73-.226-.756-.15-1.323-.376-1.698-.678-.376-.302-.866-.716-1.47-1.244-.302-.603-.828-1.356-1.584-2.261-.755-.98-1.281-1.621-1.583-1.922-.302-1.131-.412-2.676-.339-4.636.151-1.96.49-4.07 1.02-6.331.527-2.262 1.168-4.297 1.919-6.106.302-.603.567-1.206.792-1.809.228-.602.338-.904.338-.904 0-.377.453-1.281 1.36-2.714.979-1.432 2.032-2.939 3.163-4.522 1.208-1.583 2.188-2.714 2.943-3.392.526-.603 1.318-1.244 2.371-1.9219 1.131-.6784 2.11-1.1686 2.943-1.4702.829-.3012 1.959-.6784 3.392-1.1306 1.428-.5274 2.71-.7915 3.841-.7915 1.057 0 2.187.2262 3.391.6784 1.209.4523 2.225 1.2437 3.054 2.3747 1.359 1.3571 2.224 2.9771 2.6 4.8621.379 1.884.416 3.504.114 4.861-.376 1.508-1.131 2.751-2.261 3.731-1.131.905-2.335 1.394-3.617 1.47-1.281 0-2.412-.528-3.392-1.583-.302-.603-.453-1.093-.453-1.47 0-.452.151-1.093.453-1.922.303-1.055.454-1.997.454-2.826 0-.83-.343-1.244-1.021-1.244-.979 0-1.771.301-2.371.905-.604.527-1.511 1.431-2.715 2.713-.53.603-1.208 1.47-2.036 2.6-.829 1.131-1.657 2.375-2.486 3.731-.755 1.282-1.433 2.601-2.037 3.958-.828 2.487-1.355 4.108-1.583 4.861-.151.679-.225 1.018-.225 1.018 0 .301-.037.603-.114.905-.074.226-.115.489-.115.791 0 .905.531 1.621 1.584 2.148.829.528 1.51.792 2.037.792.604-.076 1.735-.49 3.392-1.244 1.204-.603 2.334-1.395 3.392-2.374 1.13-.98 2.298-1.847 3.506-2.601.828-.527 1.469-.98 1.922-1.357.527-.377.788-.414.788-.113 0 .302.114.452.343.452.224 0 .49-.15.787-.452.454-.603 1.021-.829 1.698-.678.678.075 1.282.264 1.809.565.604.302.906.565.906.792-.151.678 0 1.243.453 1.695 0 .302-.114.717-.343 1.244-.147.453-.376.829-.678 1.131-.375.527-.942 1.281-1.693 2.261-.678.98-1.319 1.847-1.923 2.601-.604.753-.906 1.13-.906 1.13-.302-.075-.604 0-.902.226-.229.227-.49.49-.792.792-.604.527-1.171.942-1.698 1.244-.526.226-.943.339-1.241.339-.53.301-.943.49-1.245.565-.228.076-.338.264-.338.565-.755.754-2.111 1.282-4.074 1.583-1.959.226-3.992.339-6.102.339zm38.367-.113c-2.938-1.206-4.975-3.165-6.106-5.879-1.13-2.713-1.432-6.331-.906-10.854.151-2.336.078-3.882-.224-4.636-.302-.829-.866-1.62-1.694-2.374-.229-.302-.755-.791-1.584-1.47-.828-.754-1.208-1.319-1.13-1.696-.078-.527.036-1.168.338-1.922.302-.829.564-1.281.792-1.356.527-.227 1.053-.491 1.584-.792.6-.301 1.053-.377 1.355-.226.302 0 .755.188 1.355.565.682.377 1.02.716 1.02 1.018.302.528.751.302 1.356-.678.677-.98 1.395-2.224 2.146-3.731.756-1.207 1.698-2.337 2.829-3.392 1.131-1.0558 2.261-1.9979 3.392-2.8272 1.204-.9045 2.224-1.5829 3.053-2.0351.375-.1507 1.094-.3768 2.147-.6784 1.131-.3012 2.298-.5274 3.506-.6784 1.204-.2261 2.11-.3012 2.714-.2261 1.355.0755 2.788.6408 4.294 1.6959 1.51 1.0555 2.678 2.0351 3.506 2.94.98.6784 1.621 1.7333 1.923 3.1653.375 1.357.526 2.789.453 4.297-.078 1.507-.38 2.789-.906 3.844-.225.754-1.017 1.809-2.376 3.166-1.355 1.356-2.861 2.675-4.522 3.957-1.58 1.206-2.939 2.035-4.07 2.487-.979.226-2.147.415-3.506.565-1.355.076-2.636.076-3.841 0-1.13-.15-1.922-.339-2.375-.565-.527-.301-.98-.188-1.359.339-.298.452-.564 1.734-.788 3.844-.078.83-.078 1.546 0 2.149.147.603.298 1.055.449 1.357.531.904 1.057 1.582 1.584 2.035.526.376 1.51.49 2.938.339 1.433-.151 2.866-1.018 4.298-2.601 1.506-1.658 2.866-2.977 4.07-3.957.302-.527.943-.867 1.922-1.018 1.057-.226 2.298-.15 3.731.227.828.527 1.208 1.356 1.13 2.487 0 1.131-.604 2.789-1.808 4.975-.224.527-.865 1.319-1.922 2.374-.98.98-2.074 1.997-3.278 3.053-1.13.98-2.073 1.696-2.828 2.148-2.262 1.206-4.482 1.771-6.67 1.696-2.187-.076-4.183-.452-5.992-1.131zm8.368-25.439c1.13-.301 2.073-.603 2.824-.904.829-.302 1.621-.792 2.376-1.47s1.62-1.696 2.6-3.053c.302-.829.453-1.545.453-2.148.073-.603.037-.98-.114-1.131-.604-.603-1.282-.791-2.033-.565-.682.151-1.433.528-2.265 1.131-.527.226-1.278.716-2.262 1.47-.902.678-1.808 1.469-2.71 2.374-.828.829-1.51 1.62-2.037 2.374-.453.679-.526 1.093-.224 1.244-.151.301.261.49 1.241.565 1.057.076 1.771.113 2.151.113z"/><path d="m.919922 140.552v-60.8165h12.244878l22.7757 30.2045h-5.7145l22.1227-30.2045h12.2449v60.8165h-12.6531v-46.8574l5.0612 1.1429-23.4287 30.2045h-1.6327l-22.61221-30.2045 4.24491-1.1429v46.8574zm87.355678.979c-3.2106 0-5.9861-.517-8.3265-1.551-2.34-1.034-4.1359-2.503-5.3878-4.408-1.2514-1.959-1.8775-4.272-1.8775-6.939 0-2.503.5714-4.707 1.7143-6.612 1.1428-1.959 2.8844-3.592 5.2244-4.898 2.3947-1.306 5.3609-2.231 8.898-2.775l13.6325-2.204v8.979l-11.4284 2.041c-1.7412.327-3.0747.898-4 1.714-.9249.762-1.3878 1.878-1.3878 3.347 0 1.361.5172 2.422 1.551 3.184 1.0343.762 2.3131 1.143 3.8368 1.143 2.0139 0 3.7824-.436 5.3061-1.306 1.5241-.871 2.6939-2.041 3.5102-3.511.8711-1.524 1.3061-3.183 1.3061-4.979v-11.592c0-1.687-.68-3.102-2.0408-4.245-1.3061-1.143-3.102-1.714-5.3877-1.714-2.1768 0-4.1086.598-5.796 1.796-1.6326 1.197-2.8298 2.775-3.5918 4.734l-9.7959-4.653c.871-2.503 2.2588-4.653 4.1633-6.449 1.9048-1.7955 4.1906-3.1833 6.8571-4.1629 2.6669-.9795 5.5784-1.4693 8.7347-1.4693 3.7551 0 7.0751.68 9.9591 2.0408 2.885 1.3604 5.116 3.2654 6.694 5.7144 1.633 2.394 2.449 5.197 2.449 8.408v29.388h-11.429v-7.184l2.776-.49c-1.306 1.959-2.748 3.592-4.327 4.898-1.5776 1.252-3.3466 2.177-5.3058 2.776-1.9592.653-4.1359.979-6.5306.979zm54.4694-.489c-5.388 0-9.579-1.443-12.572-4.327-2.939-2.939-4.408-7.02-4.408-12.245v-17.877h-7.51v-10.6127h.408c2.286 0 4.027-.5714 5.224-1.7142 1.252-1.1429 1.878-2.8572 1.878-5.1429v-3.2653h12.245v10.1224h10.449v10.6127h-10.449v17.061c0 1.523.272 2.802.816 3.837.544.979 1.388 1.714 2.531 2.204 1.143.489 2.558.734 4.245.734.381 0 .816-.027 1.306-.081.49-.055 1.007-.109 1.551-.164v10.368c-.816.108-1.742.217-2.776.326s-2.013.164-2.938.164zm12.889-.49v-44.5717h12.245v44.5717zm0-48.5717v-12.2448h12.245v12.2448zm21.206 48.5717v-61.7961h12.245v61.7961zm42.185.979c-4.354 0-8.245-1.034-11.674-3.102-3.428-2.068-6.15-4.871-8.163-8.408-1.959-3.537-2.939-7.456-2.939-11.755 0-4.354 1.007-8.272 3.021-11.755 2.013-3.538 4.734-6.34 8.163-8.4082 3.428-2.0682 7.265-3.102 11.51-3.102 3.265 0 6.149.6257 8.653 1.8775 2.558 1.1971 4.571 2.9114 6.041 5.1427l-1.878 2.449v-25.7141h12.245v61.7961h-11.428v-8.163l1.142 2.53c-1.524 2.177-3.591 3.837-6.204 4.98-2.612 1.088-5.442 1.632-8.489 1.632zm1.469-11.02c2.231 0 4.19-.517 5.878-1.551 1.686-1.034 2.993-2.476 3.918-4.327.979-1.85 1.469-3.973 1.469-6.367 0-2.395-.49-4.517-1.469-6.367-.925-1.851-2.232-3.293-3.918-4.327-1.688-1.034-3.647-1.551-5.878-1.551s-4.245.544-6.041 1.633c-1.741 1.034-3.102 2.476-4.081 4.326-.98 1.796-1.47 3.891-1.47 6.286 0 2.394.49 4.517 1.47 6.367.979 1.851 2.34 3.293 4.081 4.327 1.796 1.034 3.81 1.551 6.041 1.551zm46.273 11.02c-3.211 0-5.986-.517-8.326-1.551s-4.136-2.503-5.388-4.408c-1.252-1.959-1.877-4.272-1.877-6.939 0-2.503.571-4.707 1.714-6.612 1.143-1.959 2.884-3.592 5.224-4.898 2.395-1.306 5.361-2.231 8.898-2.775l13.633-2.204v8.979l-11.429 2.041c-1.741.327-3.074.898-4 1.714-.925.762-1.387 1.878-1.387 3.347 0 1.361.517 2.422 1.551 3.184s2.313 1.143 3.836 1.143c2.014 0 3.783-.436 5.307-1.306 1.523-.871 2.693-2.041 3.51-3.511.87-1.524 1.306-3.183 1.306-4.979v-11.592c0-1.687-.681-3.102-2.041-4.245-1.306-1.143-3.102-1.714-5.388-1.714-2.176 0-4.109.598-5.796 1.796-1.632 1.197-2.829 2.775-3.591 4.734l-9.796-4.653c.87-2.503 2.258-4.653 4.163-6.449 1.905-1.7955 4.191-3.1833 6.857-4.1629 2.667-.9795 5.578-1.4693 8.735-1.4693 3.755 0 7.074.68 9.959 2.0408 2.884 1.3604 5.115 3.2654 6.694 5.7144 1.632 2.394 2.449 5.197 2.449 8.408v29.388h-11.429v-7.184l2.776-.49c-1.306 1.959-2.748 3.592-4.327 4.898-1.578 1.252-3.347 2.177-5.306 2.776-1.959.653-4.136.979-6.531.979z"/></g></svg>