<svg width="713" height="231" viewBox="0 0 713 231" fill="none" xmlns="http://www.w3.org/2000/svg">
<g clip-path="url(#clip0_158_887)">
<path d="M349.538 145.908C348.558 145.983 347.654 145.757 346.824 145.229C346.071 144.777 345.543 144.174 345.242 143.42C344.94 143.044 344.45 142.214 343.772 140.933C343.093 139.727 342.679 138.672 342.528 137.767C342.302 135.355 342.151 133.019 342.076 130.758C342.076 128.496 342.189 125.33 342.415 121.26C342.641 117.944 343.093 115.004 343.772 112.441C344.45 109.803 345.129 107.58 345.807 105.771C346.485 103.886 347.013 102.492 347.39 101.587C347.767 100.607 347.842 100.118 347.616 100.118C347.315 100.118 346.975 100.419 346.598 101.022C346.297 101.549 345.92 102.266 345.468 103.17C345.091 104.075 344.639 105.054 344.111 106.11C343.659 107.165 343.169 108.182 342.641 109.162C341.586 111.499 340.342 113.986 338.91 116.624C337.553 119.187 336.159 121.675 334.727 124.086C333.295 126.499 332.051 128.609 330.996 130.418C330.318 131.172 329.526 132.265 328.622 133.697C327.717 135.054 326.737 136.486 325.682 137.993C324.626 139.501 323.534 140.744 322.403 141.724C320.745 143.307 319.049 144.25 317.315 144.551C315.582 144.928 313.961 144.74 312.453 143.986C311.7 143.911 310.908 143.496 310.079 142.742C309.25 142.064 308.572 141.197 308.044 140.142C307.592 139.086 307.479 138.106 307.705 137.202C307.629 136.147 307.629 134.526 307.705 132.34C307.855 130.079 308.082 127.629 308.383 124.991C308.685 122.278 308.986 119.677 309.288 117.19C309.664 114.702 310.004 112.63 310.305 110.971C310.984 106.147 311.888 101.21 313.019 96.16C314.225 91.1102 315.318 86.022 316.297 80.8967C316.901 79.3889 317.428 77.693 317.88 75.8089C318.408 73.8489 318.936 72.04 319.463 70.3816C319.539 68.7236 320.142 67.7061 321.273 67.3289C322.403 66.8767 323.609 66.8016 324.891 67.1028C326.247 67.4045 327.189 67.9322 327.717 68.6857C328.471 69.4396 329.187 70.6077 329.865 72.191C330.544 73.7738 330.355 75.771 329.3 78.1832C327.792 81.8767 326.322 86.3992 324.891 91.7506C323.534 97.0269 322.29 103.434 321.16 110.971C320.858 112.78 320.519 114.815 320.142 117.077C319.84 119.263 319.539 121.373 319.237 123.408C319.011 125.444 318.823 127.14 318.672 128.496C318.597 129.778 318.634 130.456 318.785 130.531C319.388 130.682 320.029 130.343 320.707 129.514C321.461 128.684 322.252 127.366 323.082 125.557C326.172 120.431 329.074 115.343 331.787 110.293C334.576 105.243 337.365 99.9665 340.154 94.464C341.435 92.2783 342.717 89.9041 343.998 87.3412C345.355 84.7032 346.636 82.291 347.842 80.1053C349.124 77.844 350.367 75.6579 351.573 73.5477C352.779 71.4371 353.835 69.6657 354.739 68.2334C355.644 66.7261 356.322 65.8971 356.774 65.7461C358.809 65.7461 360.317 66.2738 361.297 67.3289C362.352 68.3845 363.181 69.6657 363.784 71.173C363.935 71.5502 364.01 72.191 364.01 73.0955C364.086 74 363.973 74.7914 363.671 75.4698C363.595 75.9971 363.256 77.0902 362.653 78.7485C362.126 80.4069 361.636 82.2534 361.184 84.2885C360.43 86.3236 359.751 88.3587 359.149 90.3938C358.621 92.3538 358.244 93.9743 358.018 95.2555C357.415 98.4967 356.661 102.04 355.757 105.884C354.852 109.728 354.061 113.534 353.382 117.303C352.779 121.072 352.44 124.464 352.365 127.479C352.289 129.589 352.289 130.984 352.365 131.662C352.515 132.265 352.742 132.906 353.043 133.584C353.194 134.187 353.533 134.338 354.061 134.036C354.588 133.735 355.116 133.207 355.644 132.453C356.699 130.871 357.49 129.514 358.018 128.383C358.621 127.253 359.224 126.046 359.827 124.765C360.43 123.408 361.259 121.712 362.314 119.677C364.199 116.21 366.121 112.404 368.08 108.258C370.115 104.112 372.038 100.004 373.846 95.9338C375.731 91.8636 377.352 88.2457 378.709 85.08C380.14 81.0098 381.346 77.731 382.326 75.2436C383.306 72.6808 384.211 70.7208 385.04 69.364C385.869 68.0073 386.66 67.1028 387.414 66.6506C387.791 66.3494 388.582 66.1983 389.789 66.1983C391.07 66.1983 392.05 66.5 392.728 67.1028C393.03 67.4045 393.558 67.8943 394.311 68.5726C395.065 69.251 395.404 70.0424 395.329 70.9469C394.952 72.153 394.236 74.113 393.18 76.8265C392.2 79.54 391.032 82.5551 389.675 85.8714C388.394 89.1126 387.113 92.2408 385.831 95.2555C384.625 98.1951 383.608 100.532 382.779 102.266C381.949 103.849 381.158 105.205 380.404 106.336C379.651 107.466 379.274 108.333 379.274 108.936C379.274 109.238 378.897 110.18 378.143 111.763C377.389 113.27 376.409 115.117 375.203 117.303C374.073 119.489 372.829 121.75 371.472 124.086C370.115 126.423 368.834 128.571 367.628 130.531C366.422 132.491 365.404 133.998 364.575 135.054C362.691 137.391 360.656 139.35 358.47 140.933C356.36 142.591 354.475 143.835 352.817 144.664C351.159 145.493 350.066 145.908 349.538 145.908ZM393.036 138.106C392.057 138.106 391.265 137.918 390.662 137.541C390.135 137.164 389.456 136.637 388.627 135.958C387.195 134.451 386.026 132.83 385.122 131.097C384.293 129.363 383.991 127.855 384.218 126.574C384.444 125.971 384.519 125.406 384.444 124.878C384.444 124.275 384.444 123.973 384.444 123.973C384.067 123.597 383.954 123.371 384.104 123.295C384.255 123.144 384.406 122.918 384.557 122.617C385.009 122.617 385.16 122.202 385.009 121.373C384.858 120.77 385.084 119.489 385.687 117.529C386.366 115.494 387.27 113.572 388.401 111.763C388.853 111.009 389.531 110.029 390.436 108.823C391.34 107.542 392.32 106.298 393.375 105.092C394.506 103.811 395.524 102.793 396.429 102.04C398.313 100.457 400.047 99.1751 401.629 98.1951C403.287 97.2155 404.944 96.5371 406.606 96.16C408.263 95.7832 409.957 95.5947 411.691 95.5947C413.5 95.5947 414.969 96.1979 416.1 97.4036C417.834 98.1575 419.042 99.1751 419.72 100.457C420.475 101.738 420.965 103.396 421.189 105.431C421.414 107.693 421.189 110.482 420.512 113.798C419.834 117.039 417.985 120.808 414.969 125.104C413.087 127.818 411.238 129.928 409.43 131.436C407.622 132.943 405.626 134.338 403.438 135.619C401.855 136.674 400.16 137.315 398.351 137.541C396.542 137.767 394.77 137.956 393.036 138.106ZM404.569 124.313C406.226 122.881 407.393 121.298 408.075 119.564C408.826 117.831 409.618 115.795 410.447 113.459C410.749 113.006 410.936 112.253 411.014 111.198C411.165 110.142 411.202 109.125 411.128 108.145C411.051 107.089 410.789 106.486 410.336 106.336C409.659 105.808 408.977 105.695 408.3 105.997C407.622 106.223 406.757 106.713 405.7 107.466C403.438 109.351 401.328 111.537 399.368 114.024C397.484 116.436 396.164 119.413 395.411 122.956C395.184 124.84 395.373 126.273 395.976 127.253C396.655 128.157 397.71 128.421 399.142 128.044C400.649 127.592 402.458 126.348 404.569 124.313ZM428.459 135.845C427.781 135.318 427.026 134.639 426.198 133.81C425.446 132.981 425.181 131.813 425.406 130.305C425.634 128.195 425.936 126.348 426.312 124.765C426.687 123.107 427.14 121.222 427.667 119.112C427.818 118.207 428.198 116.662 428.798 114.476C429.479 112.291 430.267 109.916 431.173 107.353C432.079 104.791 433.018 102.379 434.002 100.118C434.981 97.7808 435.847 96.0469 436.602 94.9163C437.43 94.1628 438.634 93.7857 440.218 93.7857C441.875 93.7857 443.006 94.0873 443.61 94.6902C444.438 95.3685 444.704 96.5747 444.402 98.3081C444.1 99.9665 443.047 102.567 441.234 106.11C440.859 107.014 440.369 107.994 439.765 109.049C439.238 110.029 438.863 110.858 438.634 111.537C438.41 112.14 438.483 112.404 438.863 112.328C439.312 111.499 440.144 110.557 441.349 109.502C442.557 108.371 443.834 107.278 445.193 106.223C446.549 105.167 447.83 104.225 449.038 103.396C450.242 102.567 451.071 102.04 451.524 101.813C452.128 101.436 452.806 101.135 453.561 100.909C454.389 100.607 454.953 100.381 455.255 100.231C456.989 99.4012 458.875 99.1 460.908 99.3261C463.018 99.4767 464.3 100.118 464.753 101.248C464.83 101.851 465.055 102.303 465.43 102.605C465.883 102.906 466.108 103.057 466.108 103.057C466.41 103.057 466.561 103.17 466.561 103.396C466.638 103.622 466.675 103.735 466.675 103.735C466.675 104.263 466.149 105.017 465.091 105.997C464.112 106.976 463.018 107.504 461.814 107.58C460.834 107.655 459.965 107.843 459.214 108.145C458.459 108.446 457.553 108.823 456.5 109.275C453.634 110.934 451.034 112.404 448.7 113.685C446.438 114.966 444.1 116.926 441.687 119.564C441.161 120.167 440.593 120.733 439.993 121.26C439.389 121.788 438.785 122.542 438.181 123.521C437.806 123.898 437.43 124.727 437.051 126.009C436.675 127.29 436.336 128.534 436.034 129.74C435.81 130.871 435.695 131.549 435.695 131.775C435.695 131.775 435.581 132.152 435.357 132.906C435.132 133.584 434.753 134.262 434.226 134.941C433.32 136.147 432.418 136.9 431.512 137.202C430.683 137.504 429.667 137.051 428.459 135.845ZM469.993 138.106C468.863 137.73 467.847 137.126 466.94 136.298C466.112 135.469 465.773 134.111 465.924 132.227C466.075 131.097 466.3 129.928 466.602 128.722C466.904 127.441 467.279 126.197 467.732 124.991C467.957 123.634 468.222 122.278 468.524 120.921C468.9 119.564 469.504 118.283 470.332 117.077C471.312 114.288 472.328 111.537 473.385 108.823C474.442 106.034 475.344 103.132 476.1 100.118C477.23 97.4036 478.247 94.9918 479.153 92.8812C480.132 90.771 481.3 88.0571 482.655 84.7408C483.41 83.0073 484.051 81.0853 484.577 78.9747C485.181 76.7885 486.087 74.8665 487.291 73.2085C487.818 72.5302 488.198 71.9649 488.422 71.5126C488.724 70.9849 489.026 70.4947 489.328 70.0424C489.855 68.9873 490.647 68.4975 491.7 68.5726C492.83 68.6481 493.585 68.9498 493.961 69.4771C495.242 70.0049 496.149 70.9849 496.675 72.4171C497.206 73.7738 497.393 74.7534 497.242 75.3567C497.242 76.1857 496.94 77.0902 496.336 78.0702C496.034 78.3714 495.732 78.8236 495.434 79.4269C495.132 79.9543 494.679 80.6706 494.075 81.5751C493.773 82.5551 493.471 83.5347 493.173 84.5147C492.871 85.4947 492.532 86.3992 492.153 87.2281C491.777 88.0571 491.361 88.8865 490.912 89.7155C490.459 90.5449 490.157 91.2232 490.006 91.7506C489.328 93.4845 488.573 95.1804 487.744 96.8383C486.989 98.4216 486.312 100.118 485.708 101.926C485.108 103.66 484.467 105.506 483.785 107.466C483.108 109.351 482.242 111.16 481.185 112.893C480.659 113.647 480.357 114.665 480.283 115.946C480.283 117.228 480.132 118.471 479.83 119.677C479.304 121.034 478.814 122.278 478.361 123.408C477.981 124.539 477.793 125.255 477.793 125.557C477.267 127.215 476.851 128.873 476.553 130.531C476.251 132.114 475.761 133.509 475.083 134.715C475.083 136.524 474.589 137.654 473.61 138.106C472.63 138.559 471.426 138.559 469.993 138.106ZM495.883 139.124C494.679 138.973 493.773 138.747 493.173 138.446C492.569 138.069 491.438 137.278 489.781 136.071C488.875 135.167 487.744 133.772 486.389 131.888C485.03 130.004 483.675 128.006 482.316 125.896C480.961 123.71 479.753 121.863 478.7 120.355L484.916 112.441C485.9 113.647 486.687 114.778 487.291 115.833C487.895 116.889 488.385 117.604 488.761 117.981C490.495 120.544 491.851 122.617 492.83 124.2C493.814 125.783 494.642 127.064 495.32 128.044C496.075 129.024 496.904 129.891 497.806 130.644C498.712 131.398 499.879 132.189 501.312 133.019C501.536 133.169 501.765 133.546 501.989 134.149C502.218 134.677 502.291 135.242 502.218 135.845C502.067 136.75 501.5 137.504 500.52 138.106C499.618 138.634 498.071 138.973 495.883 139.124ZM479.491 118.207C479.038 116.926 478.924 115.494 479.153 113.911C479.455 112.253 480.095 111.16 481.075 110.632C481.377 110.104 481.675 109.765 481.977 109.615C482.357 109.389 482.581 109.125 482.655 108.823C482.806 108.522 483.185 108.107 483.785 107.58C484.467 107.052 485.067 106.562 485.598 106.11C486.802 105.356 488.12 104.451 489.553 103.396C491.063 102.266 492.491 101.135 493.851 100.004C495.283 98.8738 496.451 97.8938 497.357 97.0645C498.336 96.2355 498.936 95.7077 499.165 95.4816C499.389 95.1804 499.842 94.9918 500.52 94.9163C501.275 94.8412 501.989 94.9543 502.667 95.2555C503.573 95.4816 504.287 95.9718 504.818 96.7253C505.418 97.4791 505.72 98.5347 505.72 99.8914C505.949 100.72 505.459 101.738 504.251 102.944C503.12 104.075 501.687 105.205 499.957 106.336C499.353 106.713 498.524 107.278 497.467 108.032C496.487 108.786 495.622 109.502 494.867 110.18C494.34 110.482 493.549 111.009 492.491 111.763C491.512 112.441 490.647 113.12 489.891 113.798C489.291 114.175 488.573 114.853 487.744 115.833C486.989 116.738 486.124 117.416 485.144 117.868C482.732 120.129 481.263 121.222 480.736 121.147C480.283 121.072 479.867 120.092 479.491 118.207ZM520.536 139.689C516.54 139.689 513.602 138.408 511.716 135.845C511.189 134.639 510.924 133.433 510.924 132.227C511.002 130.946 511.304 130.041 511.83 129.514C512.357 128.911 512.998 129.024 513.753 129.853C514.732 130.456 516.124 130.758 517.936 130.758C518.838 130.758 519.63 130.758 520.308 130.758C521.063 130.682 521.928 130.606 522.908 130.531C524.642 130.38 525.736 129.853 526.189 128.949C526.716 128.044 526.602 127.29 525.851 126.687H525.961C523.928 126.16 521.928 125.406 519.969 124.426C518.01 123.446 516.353 122.353 514.993 121.147C513.638 119.866 512.847 118.66 512.622 117.529C512.018 115.042 512.169 112.479 513.075 109.841C513.977 107.202 515.296 104.904 517.03 102.944C517.708 102.492 518.651 101.851 519.859 101.022C521.063 100.118 521.928 99.6273 522.459 99.5522V99.6653C523.891 98.1575 525.512 96.9514 527.32 96.0469C529.128 95.0673 531.238 94.1628 533.651 93.3334L535.459 93.1073C536.365 92.9567 537.157 92.8812 537.834 92.8812C537.757 92.8812 537.949 92.9567 538.398 93.1073C538.851 93.2583 539.23 93.3714 539.528 93.4465C539.981 93.6726 540.434 93.7857 540.887 93.7857C541.94 93.9367 542.961 94.502 543.94 95.4816C544.993 96.3861 545.822 97.4792 546.426 98.7608C547.104 99.9665 547.369 101.097 547.218 102.153C546.993 103.886 546.353 105.62 545.296 107.353C544.242 109.012 543.112 109.954 541.904 110.18C542.055 110.104 541.904 109.954 541.451 109.728C541.002 109.502 540.585 109.275 540.21 109.049L539.757 109.275C539.757 109.275 539.72 109.162 539.642 108.936C539.642 108.71 539.569 108.446 539.418 108.145C539.116 107.617 538.887 107.052 538.74 106.449C538.663 105.846 538.663 105.167 538.74 104.414C538.887 103.584 538.928 103.095 538.851 102.944C538.777 102.793 538.324 102.68 537.495 102.605C536.516 102.379 535.271 102.492 533.765 102.944C532.255 103.321 530.863 103.999 529.581 104.979C528.071 105.959 526.94 106.75 526.189 107.353C525.512 107.956 524.981 108.56 524.606 109.162C524.23 109.69 523.814 110.482 523.361 111.537C523.059 112.064 522.798 112.554 522.569 113.006C522.344 113.383 522.23 113.76 522.23 114.137C522.23 114.891 522.871 115.682 524.153 116.511C525.434 117.265 527.357 118.17 529.92 119.225C531.953 120.054 533.275 121.185 533.875 122.617C534.557 124.049 535.157 125.406 535.687 126.687C535.838 126.989 535.985 127.554 536.136 128.383C536.365 129.137 536.402 129.589 536.251 129.74C536.402 129.891 536.475 130.041 536.475 130.192V130.079C537.079 131.21 536.969 132.415 536.136 133.697C535.385 134.903 534.177 136.034 532.52 137.089C530.863 138.069 528.977 138.785 526.867 139.237H526.981C525.851 139.388 524.72 139.501 523.589 139.576C522.532 139.652 521.516 139.689 520.536 139.689ZM544.459 165.242C544.161 165.242 543.708 165.242 543.104 165.242C542.577 165.317 542.124 165.015 541.749 164.337C541.447 163.96 540.993 163.206 540.389 162.076C539.785 161.02 539.675 159.513 540.051 157.553C540.426 156.272 540.728 154.991 540.957 153.709C541.181 152.503 541.295 151.599 541.295 150.995C541.295 150.694 541.369 150.091 541.52 149.186C541.749 148.358 541.859 147.755 541.859 147.378C542.238 146.775 542.536 145.946 542.765 144.89C542.989 143.835 543.104 142.893 543.104 142.064C543.104 141.159 543.557 140.33 544.459 139.576C544.459 138.973 544.573 138.22 544.802 137.315C545.1 136.411 545.251 135.808 545.251 135.506C545.479 134.451 545.969 132.604 546.72 129.966C547.553 127.253 548.532 124.2 549.663 120.808C550.867 117.416 552.034 114.1 553.165 110.858C554.296 107.617 555.316 104.866 556.218 102.605C557.124 100.494 557.879 98.5347 558.479 96.7253C559.083 94.9163 559.385 93.6351 559.385 92.8812C559.385 92.58 559.459 92.3538 559.61 92.2028C559.761 91.9767 560.1 91.5624 560.63 90.9591C561.381 90.2057 562.361 89.9416 563.569 90.1677C564.851 90.3187 565.904 90.6955 566.732 91.2983C567.336 92.2783 567.753 93.1828 567.977 94.0118C568.279 94.7657 568.279 95.9718 567.977 97.6298C567.977 98.7608 567.712 99.8159 567.185 100.796C566.659 101.7 566.169 102.454 565.716 103.057C565.34 103.584 565.226 103.811 565.377 103.735C568.696 101.7 571.671 100.607 574.308 100.457C577.022 100.231 579.283 100.683 581.091 101.813C582.977 102.869 584.41 104.338 585.389 106.223C586.369 108.107 586.859 110.142 586.859 112.328C586.859 113.233 586.557 114.439 585.953 115.946C585.353 117.454 584.675 118.886 583.92 120.242C583.165 121.524 582.561 122.391 582.112 122.843C581.81 122.843 581.508 123.107 581.206 123.634C580.904 124.086 580.602 124.614 580.3 125.217C579.7 125.971 578.679 126.838 577.251 127.818C575.891 128.722 574.496 129.476 573.067 130.079C571.634 130.606 570.614 130.758 570.014 130.531C570.014 130.531 569.9 130.606 569.675 130.758C569.524 130.908 569.447 131.172 569.447 131.549C569.447 131.7 568.92 132.001 567.863 132.453C566.81 132.906 565.565 133.32 564.132 133.697C562.7 134.074 561.381 134.262 560.177 134.262C558.593 134.262 557.463 133.961 556.785 133.358C556.634 133.509 556.447 133.735 556.218 134.036C556.067 134.338 555.993 134.602 555.993 134.828C555.993 135.28 555.806 135.996 555.426 136.976C555.124 137.956 554.749 138.822 554.296 139.576C553.847 140.405 553.43 140.82 553.055 140.82C553.055 140.82 552.977 140.933 552.826 141.159C552.675 141.385 552.753 141.687 553.055 142.064C553.055 142.064 553.014 142.478 552.94 143.307C552.94 144.212 552.753 144.966 552.373 145.569C552.373 146.172 552.263 147.076 552.034 148.282C551.81 149.488 551.545 150.393 551.242 150.995C551.242 151.9 551.091 152.767 550.793 153.596C550.565 154.501 550.304 154.953 550.002 154.953C549.7 155.028 549.512 155.48 549.434 156.31C549.361 157.214 549.324 157.855 549.324 158.232C549.247 160.116 548.642 161.737 547.512 163.093C546.381 164.526 545.365 165.242 544.459 165.242ZM558.932 125.67C559.536 125.67 560.63 125.406 562.21 124.878C563.793 124.351 565.451 123.71 567.185 122.956C568.92 122.127 570.275 121.298 571.255 120.469C573.218 118.735 574.724 117.039 575.777 115.381C576.908 113.722 576.834 111.876 575.553 109.841C574.949 108.786 573.969 108.371 572.614 108.597C571.332 108.748 569.9 109.351 568.316 110.406C566.732 111.461 565.112 112.78 563.455 114.363C562.549 115.343 561.72 116.474 560.969 117.755C560.214 119.037 559.573 120.28 559.046 121.486C558.593 122.692 558.328 123.71 558.255 124.539C558.177 125.293 558.406 125.67 558.932 125.67ZM601.663 137.315C601.059 137.466 600.267 137.541 599.287 137.541C598.308 137.466 597.442 137.353 596.687 137.202C596.01 136.976 595.671 136.75 595.671 136.524C595.671 136.147 595.483 135.958 595.104 135.958C595.104 135.958 594.691 135.657 593.863 135.054C593.03 134.375 592.279 133.885 591.602 133.584C590.92 132.529 590.471 131.323 590.242 129.966C590.091 128.534 590.545 126.046 591.602 122.504C591.675 120.092 592.353 117.567 593.634 114.929C594.916 112.215 596.536 109.577 598.496 107.014C600.455 104.451 602.491 102.19 604.602 100.231C606.712 98.1951 608.598 96.6877 610.255 95.7077C611.312 94.6526 612.704 94.0873 614.438 94.0118C616.247 93.9367 617.83 94.2759 619.185 95.0293C619.94 95.4065 620.769 96.16 621.675 97.2906C622.577 98.4216 623.447 99.6273 624.275 100.909C625.104 102.115 625.745 103.208 626.198 104.188C626.422 105.017 626.61 105.771 626.761 106.449C626.989 107.052 627.14 107.806 627.214 108.71C627.291 109.615 627.214 110.971 626.989 112.78C626.61 114.137 626.271 115.531 625.969 116.964C625.745 118.32 625.63 119.715 625.63 121.147C625.479 122.579 625.63 123.597 626.083 124.2C626.61 124.803 627.365 124.84 628.345 124.313C629.251 123.86 630.193 123.823 631.173 124.2C632.153 124.501 632.83 125.104 633.206 126.009C633.659 126.838 633.545 127.931 632.867 129.288C632.414 130.267 631.7 131.21 630.72 132.114C629.74 133.019 628.647 133.772 627.442 134.375C626.234 134.903 625.067 135.167 623.936 135.167C623.108 135.167 622.279 134.865 621.447 134.262C620.618 133.584 619.867 132.68 619.185 131.549C618.508 130.418 617.944 129.175 617.491 127.818L616.814 125.217L612.745 128.949C611.761 130.004 610.781 130.984 609.802 131.888C608.9 132.717 608.332 133.32 608.108 133.697C607.728 134.375 606.977 134.978 605.847 135.506C604.789 136.034 603.398 136.637 601.663 137.315ZM604.716 126.461C605.998 125.707 607.087 124.803 607.993 123.747C608.973 122.692 609.916 121.524 610.822 120.242C611.724 118.886 612.704 117.454 613.761 115.946C615.043 114.213 615.945 112.818 616.475 111.763C617.075 110.708 617.528 109.577 617.83 108.371C617.528 107.542 617.116 106.675 616.585 105.771C616.059 104.791 615.532 104.263 615.006 104.188C613.949 104.188 612.667 104.828 611.161 106.11C609.728 107.391 608.145 109.238 606.41 111.65C606.108 112.026 605.732 112.63 605.279 113.459C604.826 114.288 604.377 115.079 603.924 115.833C603.549 116.511 603.283 116.964 603.132 117.19C602.908 117.491 602.565 118.207 602.116 119.338C601.736 120.393 601.398 121.486 601.096 122.617C600.793 123.672 600.647 124.426 600.647 124.878C600.647 125.33 600.683 125.82 600.757 126.348C600.908 126.875 601.287 127.215 601.887 127.366C602.491 127.516 603.434 127.215 604.716 126.461ZM647.924 137.993C646.263 137.993 645.022 137.918 644.194 137.767C643.438 137.617 642.871 137.391 642.496 137.089C642.12 136.787 641.63 136.373 641.026 135.845C640.724 135.242 640.198 134.489 639.442 133.584C638.687 132.604 638.161 131.963 637.859 131.662C637.557 130.531 637.447 128.986 637.52 127.026C637.671 125.066 638.01 122.956 638.54 120.695C639.067 118.433 639.708 116.398 640.459 114.589C640.761 113.986 641.026 113.383 641.251 112.78C641.479 112.178 641.589 111.876 641.589 111.876C641.589 111.499 642.042 110.595 642.949 109.162C643.928 107.73 644.981 106.223 646.112 104.64C647.32 103.057 648.3 101.926 649.055 101.248C649.581 100.645 650.373 100.004 651.426 99.3261C652.557 98.6477 653.536 98.1575 654.369 97.8559C655.198 97.5547 656.328 97.1775 657.761 96.7253C659.189 96.1979 660.471 95.9338 661.602 95.9338C662.659 95.9338 663.789 96.16 664.993 96.6122C666.202 97.0645 667.218 97.8559 668.047 98.9869C669.406 100.344 670.271 101.964 670.647 103.849C671.026 105.733 671.063 107.353 670.761 108.71C670.385 110.218 669.63 111.461 668.5 112.441C667.369 113.346 666.165 113.835 664.883 113.911C663.602 113.911 662.471 113.383 661.491 112.328C661.189 111.725 661.038 111.235 661.038 110.858C661.038 110.406 661.189 109.765 661.491 108.936C661.794 107.881 661.945 106.939 661.945 106.11C661.945 105.28 661.602 104.866 660.924 104.866C659.945 104.866 659.153 105.167 658.553 105.771C657.949 106.298 657.042 107.202 655.838 108.484C655.308 109.087 654.63 109.954 653.802 111.084C652.973 112.215 652.145 113.459 651.316 114.815C650.561 116.097 649.883 117.416 649.279 118.773C648.451 121.26 647.924 122.881 647.696 123.634C647.545 124.313 647.471 124.652 647.471 124.652C647.471 124.953 647.434 125.255 647.357 125.557C647.283 125.783 647.242 126.046 647.242 126.348C647.242 127.253 647.773 127.969 648.826 128.496C649.655 129.024 650.336 129.288 650.863 129.288C651.467 129.212 652.598 128.798 654.255 128.044C655.459 127.441 656.589 126.649 657.647 125.67C658.777 124.69 659.945 123.823 661.153 123.069C661.981 122.542 662.622 122.089 663.075 121.712C663.602 121.335 663.863 121.298 663.863 121.599C663.863 121.901 663.977 122.051 664.206 122.051C664.43 122.051 664.696 121.901 664.993 121.599C665.447 120.996 666.014 120.77 666.691 120.921C667.369 120.996 667.973 121.185 668.5 121.486C669.104 121.788 669.406 122.051 669.406 122.278C669.255 122.956 669.406 123.521 669.859 123.973C669.859 124.275 669.745 124.69 669.516 125.217C669.369 125.67 669.14 126.046 668.838 126.348C668.463 126.875 667.896 127.629 667.145 128.609C666.467 129.589 665.826 130.456 665.222 131.21C664.618 131.963 664.316 132.34 664.316 132.34C664.014 132.265 663.712 132.34 663.414 132.566C663.185 132.793 662.924 133.056 662.622 133.358C662.018 133.885 661.451 134.3 660.924 134.602C660.398 134.828 659.981 134.941 659.683 134.941C659.153 135.242 658.74 135.431 658.438 135.506C658.21 135.582 658.1 135.77 658.1 136.071C657.345 136.825 655.989 137.353 654.026 137.654C652.067 137.88 650.034 137.993 647.924 137.993ZM686.291 137.88C683.353 136.674 681.316 134.715 680.185 132.001C679.055 129.288 678.753 125.67 679.279 121.147C679.43 118.811 679.357 117.265 679.055 116.511C678.753 115.682 678.189 114.891 677.361 114.137C677.132 113.835 676.606 113.346 675.777 112.667C674.949 111.913 674.569 111.348 674.647 110.971C674.569 110.444 674.683 109.803 674.985 109.049C675.287 108.22 675.549 107.768 675.777 107.693C676.304 107.466 676.83 107.202 677.361 106.901C677.961 106.6 678.414 106.524 678.716 106.675C679.018 106.675 679.471 106.863 680.071 107.24C680.753 107.617 681.091 107.956 681.091 108.258C681.393 108.786 681.842 108.56 682.447 107.58C683.124 106.6 683.842 105.356 684.593 103.849C685.349 102.642 686.291 101.512 687.422 100.457C688.553 99.4012 689.683 98.4591 690.814 97.6298C692.018 96.7253 693.038 96.0469 693.867 95.5947C694.242 95.444 694.961 95.2179 696.014 94.9163C697.145 94.6151 698.312 94.3889 699.52 94.2379C700.724 94.0118 701.63 93.9367 702.234 94.0118C703.589 94.0873 705.022 94.6526 706.528 95.7077C708.038 96.7632 709.206 97.7428 710.034 98.6477C711.014 99.3261 711.655 100.381 711.957 101.813C712.332 103.17 712.483 104.602 712.41 106.11C712.332 107.617 712.03 108.899 711.504 109.954C711.279 110.708 710.487 111.763 709.128 113.12C707.773 114.476 706.267 115.795 704.606 117.077C703.026 118.283 701.667 119.112 700.536 119.564C699.557 119.79 698.389 119.979 697.03 120.129C695.675 120.205 694.394 120.205 693.189 120.129C692.059 119.979 691.267 119.79 690.814 119.564C690.287 119.263 689.834 119.376 689.455 119.903C689.157 120.355 688.891 121.637 688.667 123.747C688.589 124.577 688.589 125.293 688.667 125.896C688.814 126.499 688.965 126.951 689.116 127.253C689.647 128.157 690.173 128.835 690.7 129.288C691.226 129.664 692.21 129.778 693.638 129.627C695.071 129.476 696.504 128.609 697.936 127.026C699.442 125.368 700.802 124.049 702.006 123.069C702.308 122.542 702.949 122.202 703.928 122.051C704.985 121.825 706.226 121.901 707.659 122.278C708.487 122.805 708.867 123.634 708.789 124.765C708.789 125.896 708.185 127.554 706.981 129.74C706.757 130.267 706.116 131.059 705.059 132.114C704.079 133.094 702.985 134.111 701.781 135.167C700.651 136.147 699.708 136.863 698.953 137.315C696.691 138.521 694.471 139.086 692.283 139.011C690.096 138.935 688.1 138.559 686.291 137.88ZM694.659 112.441C695.789 112.14 696.732 111.838 697.483 111.537C698.312 111.235 699.104 110.745 699.859 110.067C700.614 109.389 701.479 108.371 702.459 107.014C702.761 106.185 702.912 105.469 702.912 104.866C702.985 104.263 702.949 103.886 702.798 103.735C702.194 103.132 701.516 102.944 700.765 103.17C700.083 103.321 699.332 103.698 698.5 104.301C697.973 104.527 697.222 105.017 696.238 105.771C695.336 106.449 694.43 107.24 693.528 108.145C692.7 108.974 692.018 109.765 691.491 110.519C691.038 111.198 690.965 111.612 691.267 111.763C691.116 112.064 691.528 112.253 692.508 112.328C693.565 112.404 694.279 112.441 694.659 112.441Z" fill="black"/>
<path d="M0.919922 140.552V79.7355H13.1648L35.9405 109.94H30.226L52.3487 79.7355H64.5936V140.552H51.9405V93.6946L57.0017 94.8375L33.573 125.042H31.9403L9.32809 94.8375L13.573 93.6946V140.552H0.919922ZM88.2756 141.531C85.065 141.531 82.2895 141.014 79.9491 139.98C77.6091 138.946 75.8132 137.477 74.5613 135.572C73.3099 133.613 72.6838 131.3 72.6838 128.633C72.6838 126.13 73.2552 123.926 74.3981 122.021C75.5409 120.062 77.2825 118.429 79.6225 117.123C82.0172 115.817 84.9834 114.892 88.5205 114.348L102.153 112.144V121.123L90.7246 123.164C88.9834 123.491 87.6499 124.062 86.7246 124.878C85.7997 125.64 85.3368 126.756 85.3368 128.225C85.3368 129.586 85.854 130.647 86.8878 131.409C87.9221 132.171 89.2009 132.552 90.7246 132.552C92.7385 132.552 94.507 132.116 96.0307 131.246C97.5548 130.375 98.7246 129.205 99.5409 127.735C100.412 126.211 100.847 124.552 100.847 122.756V111.164C100.847 109.477 100.167 108.062 98.8062 106.919C97.5001 105.776 95.7042 105.205 93.4185 105.205C91.2417 105.205 89.3099 105.803 87.6225 107.001C85.9899 108.198 84.7927 109.776 84.0307 111.735L74.2348 107.082C75.1058 104.579 76.4936 102.429 78.3981 100.633C80.3029 98.8375 82.5887 97.4497 85.2552 96.4701C87.9221 95.4906 90.8336 95.0008 93.9899 95.0008C97.745 95.0008 101.065 95.6808 103.949 97.0416C106.834 98.402 109.065 100.307 110.643 102.756C112.276 105.15 113.092 107.953 113.092 111.164V140.552H101.663V133.368L104.439 132.878C103.133 134.837 101.691 136.47 100.112 137.776C98.5344 139.028 96.7654 139.953 94.8062 140.552C92.847 141.205 90.6703 141.531 88.2756 141.531ZM142.745 141.042C137.357 141.042 133.166 139.599 130.173 136.715C127.234 133.776 125.765 129.695 125.765 124.47V106.593H118.255V95.9803H118.663C120.949 95.9803 122.69 95.4089 123.887 94.2661C125.139 93.1232 125.765 91.4089 125.765 89.1232V85.8579H138.01V95.9803H148.459V106.593H138.01V123.654C138.01 125.177 138.282 126.456 138.826 127.491C139.37 128.47 140.214 129.205 141.357 129.695C142.5 130.184 143.915 130.429 145.602 130.429C145.983 130.429 146.418 130.402 146.908 130.348C147.398 130.293 147.915 130.239 148.459 130.184V140.552C147.643 140.66 146.717 140.769 145.683 140.878C144.649 140.987 143.67 141.042 142.745 141.042ZM155.634 140.552V95.9803H167.879V140.552H155.634ZM155.634 91.9803V79.7355H167.879V91.9803H155.634ZM176.84 140.552V78.7559H189.085V140.552H176.84ZM219.025 141.531C214.671 141.531 210.78 140.497 207.351 138.429C203.923 136.361 201.201 133.558 199.188 130.021C197.229 126.484 196.249 122.565 196.249 118.266C196.249 113.912 197.256 109.994 199.27 106.511C201.283 102.973 204.004 100.171 207.433 98.1028C210.861 96.0346 214.698 95.0008 218.943 95.0008C222.208 95.0008 225.092 95.6265 227.596 96.8783C230.154 98.0754 232.167 99.7897 233.637 102.021L231.759 104.47V78.7559H244.004V140.552H232.576V132.389L233.718 134.919C232.194 137.096 230.127 138.756 227.514 139.899C224.902 140.987 222.072 141.531 219.025 141.531ZM220.494 130.511C222.725 130.511 224.684 129.994 226.372 128.96C228.058 127.926 229.365 126.484 230.29 124.633C231.269 122.783 231.759 120.66 231.759 118.266C231.759 115.871 231.269 113.749 230.29 111.899C229.365 110.048 228.058 108.606 226.372 107.572C224.684 106.538 222.725 106.021 220.494 106.021C218.263 106.021 216.249 106.565 214.453 107.654C212.712 108.688 211.351 110.13 210.372 111.98C209.392 113.776 208.902 115.871 208.902 118.266C208.902 120.66 209.392 122.783 210.372 124.633C211.351 126.484 212.712 127.926 214.453 128.96C216.249 129.994 218.263 130.511 220.494 130.511ZM266.767 141.531C263.556 141.531 260.781 141.014 258.441 139.98C256.101 138.946 254.305 137.477 253.053 135.572C251.801 133.613 251.176 131.3 251.176 128.633C251.176 126.13 251.747 123.926 252.89 122.021C254.033 120.062 255.774 118.429 258.114 117.123C260.509 115.817 263.475 114.892 267.012 114.348L280.645 112.144V121.123L269.216 123.164C267.475 123.491 266.142 124.062 265.216 124.878C264.291 125.64 263.829 126.756 263.829 128.225C263.829 129.586 264.346 130.647 265.38 131.409C266.414 132.171 267.693 132.552 269.216 132.552C271.23 132.552 272.999 132.116 274.523 131.246C276.046 130.375 277.216 129.205 278.033 127.735C278.903 126.211 279.339 124.552 279.339 122.756V111.164C279.339 109.477 278.658 108.062 277.298 106.919C275.992 105.776 274.196 105.205 271.91 105.205C269.734 105.205 267.801 105.803 266.114 107.001C264.482 108.198 263.285 109.776 262.523 111.735L252.727 107.082C253.597 104.579 254.985 102.429 256.89 100.633C258.795 98.8375 261.081 97.4497 263.747 96.4701C266.414 95.4906 269.325 95.0008 272.482 95.0008C276.237 95.0008 279.556 95.6808 282.441 97.0416C285.325 98.402 287.556 100.307 289.135 102.756C290.767 105.15 291.584 107.953 291.584 111.164V140.552H280.155V133.368L282.931 132.878C281.625 134.837 280.183 136.47 278.604 137.776C277.026 139.028 275.257 139.953 273.298 140.552C271.339 141.205 269.162 141.531 266.767 141.531Z" fill="black"/>
</g>
<defs>
<clipPath id="clip0_158_887">
<rect width="711.508" height="231" fill="white" transform="translate(0.919922)"/>
</clipPath>
</defs>
</svg>
