<svg fill="none" height="231" viewBox="0 0 597 231" width="597" xmlns="http://www.w3.org/2000/svg" xmlns:xlink="http://www.w3.org/1999/xlink"><clipPath id="a"><path d="m.603516 0h596.303v231h-596.303z"/></clipPath><clipPath id="b"><path d="m.603516 69.5195h596.303v91.96h-596.303z"/></clipPath><g clip-path="url(#a)"><g clip-path="url(#b)" fill="#141414"><path d="m545.377 99.1646h15.104v7.3454c1.725-2.552 4.035-4.552 6.932-6.001 2.897-1.4479 6.104-2.1721 9.621-2.1721 3.931 0 7.38.8277 10.346 2.4831 2.965 1.586 5.276 3.862 6.931 6.828 1.655 2.897 2.483 6.276 2.483 10.138v35.072h-15.208v-31.14c0-3.035-.862-5.449-2.586-7.242-1.655-1.793-3.897-2.69-6.725-2.69-2.552 0-4.69.69-6.414 2.069-1.724 1.311-3.069 3.276-4.035 5.897-.896 2.621-1.345 5.794-1.345 9.518v23.588h-15.104z"/><path d="m520.018 99.1651h15.105v53.6929h-15.105zm-.414-21.5186h16.14v14.794h-16.14z"/><path d="m486.564 153.686c-3.173 0-6.07-.586-8.691-1.759-2.551-1.172-4.483-2.69-5.793-4.552v5.483h-15.104v-75.4185h15.104v27.0015c1.586-1.862 3.655-3.345 6.207-4.4484 2.552-1.1035 5.38-1.6553 8.484-1.6553 5.103 0 9.552 1.138 13.345 3.4137 3.863 2.276 6.828 5.518 8.897 9.725 2.138 4.138 3.208 8.966 3.208 14.484 0 5.586-1.07 10.483-3.208 14.69-2.069 4.139-5.034 7.346-8.897 9.622-3.862 2.276-8.38 3.414-13.552 3.414zm-2.483-12.932c2.552 0 4.793-.621 6.724-1.862 1.931-1.242 3.414-2.966 4.449-5.173 1.034-2.276 1.552-4.862 1.552-7.759 0-4.414-1.173-7.966-3.518-10.656s-5.414-4.035-9.207-4.035c-2.552 0-4.794.621-6.725 1.862-1.931 1.242-3.448 2.966-4.552 5.173-1.034 2.207-1.552 4.759-1.552 7.656 0 2.966.518 5.552 1.552 7.759 1.104 2.207 2.621 3.931 4.552 5.173 1.931 1.241 4.173 1.862 6.725 1.862z"/><path d="m424.957 153.686c-3.172 0-6.069-.586-8.69-1.759-2.552-1.172-4.483-2.69-5.793-4.552v5.483h-15.105v-75.4185h15.105v27.0015c1.586-1.862 3.655-3.345 6.207-4.4484 2.552-1.1035 5.38-1.6553 8.483-1.6553 5.104 0 9.553 1.138 13.346 3.4137 3.862 2.276 6.828 5.518 8.897 9.725 2.138 4.138 3.207 8.966 3.207 14.484 0 5.586-1.069 10.483-3.207 14.69-2.069 4.139-5.035 7.346-8.897 9.622s-8.38 3.414-13.553 3.414zm-2.483-12.932c2.552 0 4.794-.621 6.725-1.862 1.931-1.242 3.414-2.966 4.448-5.173 1.035-2.276 1.552-4.862 1.552-7.759 0-4.414-1.172-7.966-3.517-10.656s-5.414-4.035-9.208-4.035c-2.552 0-4.793.621-6.724 1.862-1.931 1.242-3.449 2.966-4.552 5.173-1.035 2.207-1.552 4.759-1.552 7.656 0 2.966.517 5.552 1.552 7.759 1.103 2.207 2.621 3.931 4.552 5.173 1.931 1.241 4.172 1.862 6.724 1.862z"/><path d="m361.231 153.685c-5.38 0-10.208-1.207-14.484-3.621-4.207-2.414-7.483-5.724-9.828-9.931s-3.518-8.932-3.518-14.174c0-5.241 1.173-9.966 3.518-14.173 2.414-4.207 5.724-7.483 9.932-9.828 4.207-2.4141 9-3.6211 14.38-3.6211 5.31 0 10.069 1.207 14.277 3.6211 4.276 2.414 7.621 5.724 10.035 9.932 2.414 4.138 3.621 8.828 3.621 14.069 0 5.242-1.207 9.967-3.621 14.174s-5.759 7.517-10.035 9.931c-4.208 2.414-8.967 3.621-14.277 3.621zm0-12.932c2.483 0 4.655-.62 6.517-1.862 1.932-1.241 3.414-2.965 4.449-5.172 1.035-2.276 1.552-4.863 1.552-7.76 0-2.827-.517-5.345-1.552-7.552-1.035-2.276-2.517-4.035-4.449-5.276-1.931-1.241-4.103-1.862-6.517-1.862-2.483 0-4.69.621-6.621 1.862-1.863 1.241-3.311 3-4.345 5.276-1.035 2.207-1.552 4.725-1.552 7.552 0 2.897.517 5.484 1.552 7.76 1.034 2.207 2.482 3.931 4.345 5.172 1.862 1.242 4.069 1.862 6.621 1.862z"/><path d="m239.125 78.2666h21.932l17.071 45.6234c1.931 5.242 3.448 10.07 4.552 14.484 1.172-4.414 2.689-9.242 4.552-14.484l16.966-45.6234h21.312v74.5914h-15.725v-35.899c0-5.587.103-10.691.31-15.312-1.448 4.621-3.069 9.449-4.862 14.484l-13.76 36.727h-18.208l-13.863-36.727c-1.931-5.242-3.517-10.069-4.759-14.484.207 4.621.311 9.725.311 15.312v35.899h-15.829z"/><path d="m196.022 112.435h-49.044v49.045h49.044z"/><path d="m.603516 161.479v-43.18l48.779884-48.7795h43.1798v43.1795l-48.7797 48.78z"/><path d="m74.1699 161.479v-43.18l48.7801-48.7795h43.18v43.1795l-48.78 48.78z"/></g></g></svg>