<svg width="597" height="231" viewBox="0 0 597 231" fill="none" xmlns="http://www.w3.org/2000/svg">
<g clip-path="url(#clip0_158_992)">
<g clip-path="url(#clip1_158_992)">
<path d="M545.377 99.1646H560.481V106.51C562.206 103.958 564.516 101.958 567.413 100.509C570.31 99.0611 573.517 98.3369 577.034 98.3369C580.965 98.3369 584.414 99.1646 587.38 100.82C590.345 102.406 592.656 104.682 594.311 107.648C595.966 110.545 596.794 113.924 596.794 117.786V152.858H581.586V121.718C581.586 118.683 580.724 116.269 579 114.476C577.345 112.683 575.103 111.786 572.275 111.786C569.723 111.786 567.585 112.476 565.861 113.855C564.137 115.166 562.792 117.131 561.826 119.752C560.93 122.373 560.481 125.546 560.481 129.27V152.858H545.377V99.1646Z" fill="#141414"/>
<path d="M520.018 99.1651H535.123V152.858H520.018V99.1651ZM519.604 77.6465H535.744V92.4405H519.604V77.6465Z" fill="#141414"/>
<path d="M486.564 153.686C483.391 153.686 480.494 153.1 477.873 151.927C475.322 150.755 473.39 149.237 472.08 147.375V152.858H456.976V77.4395H472.08V104.441C473.666 102.579 475.735 101.096 478.287 99.9926C480.839 98.8891 483.667 98.3373 486.771 98.3373C491.874 98.3373 496.323 99.4753 500.116 101.751C503.979 104.027 506.944 107.269 509.013 111.476C511.151 115.614 512.221 120.442 512.221 125.96C512.221 131.546 511.151 136.443 509.013 140.65C506.944 144.789 503.979 147.996 500.116 150.272C496.254 152.548 491.736 153.686 486.564 153.686ZM484.081 140.754C486.633 140.754 488.874 140.133 490.805 138.892C492.736 137.65 494.219 135.926 495.254 133.719C496.288 131.443 496.806 128.857 496.806 125.96C496.806 121.546 495.633 117.994 493.288 115.304C490.943 112.614 487.874 111.269 484.081 111.269C481.529 111.269 479.287 111.89 477.356 113.131C475.425 114.373 473.908 116.097 472.804 118.304C471.77 120.511 471.252 123.063 471.252 125.96C471.252 128.926 471.77 131.512 472.804 133.719C473.908 135.926 475.425 137.65 477.356 138.892C479.287 140.133 481.529 140.754 484.081 140.754Z" fill="#141414"/>
<path d="M424.957 153.686C421.785 153.686 418.888 153.1 416.267 151.927C413.715 150.755 411.784 149.237 410.474 147.375V152.858H395.369V77.4395H410.474V104.441C412.06 102.579 414.129 101.096 416.681 99.9926C419.233 98.8891 422.061 98.3373 425.164 98.3373C430.268 98.3373 434.717 99.4753 438.51 101.751C442.372 104.027 445.338 107.269 447.407 111.476C449.545 115.614 450.614 120.442 450.614 125.96C450.614 131.546 449.545 136.443 447.407 140.65C445.338 144.789 442.372 147.996 438.51 150.272C434.648 152.548 430.13 153.686 424.957 153.686ZM422.474 140.754C425.026 140.754 427.268 140.133 429.199 138.892C431.13 137.65 432.613 135.926 433.647 133.719C434.682 131.443 435.199 128.857 435.199 125.96C435.199 121.546 434.027 117.994 431.682 115.304C429.337 112.614 426.268 111.269 422.474 111.269C419.922 111.269 417.681 111.89 415.75 113.131C413.819 114.373 412.301 116.097 411.198 118.304C410.163 120.511 409.646 123.063 409.646 125.96C409.646 128.926 410.163 131.512 411.198 133.719C412.301 135.926 413.819 137.65 415.75 138.892C417.681 140.133 419.922 140.754 422.474 140.754Z" fill="#141414"/>
<path d="M361.231 153.685C355.851 153.685 351.023 152.478 346.747 150.064C342.54 147.65 339.264 144.34 336.919 140.133C334.574 135.926 333.401 131.201 333.401 125.959C333.401 120.718 334.574 115.993 336.919 111.786C339.333 107.579 342.643 104.303 346.851 101.958C351.058 99.5439 355.851 98.3369 361.231 98.3369C366.541 98.3369 371.3 99.5439 375.508 101.958C379.784 104.372 383.129 107.682 385.543 111.89C387.957 116.028 389.164 120.718 389.164 125.959C389.164 131.201 387.957 135.926 385.543 140.133C383.129 144.34 379.784 147.65 375.508 150.064C371.3 152.478 366.541 153.685 361.231 153.685ZM361.231 140.753C363.714 140.753 365.886 140.133 367.748 138.891C369.68 137.65 371.162 135.926 372.197 133.719C373.232 131.443 373.749 128.856 373.749 125.959C373.749 123.132 373.232 120.614 372.197 118.407C371.162 116.131 369.68 114.372 367.748 113.131C365.817 111.89 363.645 111.269 361.231 111.269C358.748 111.269 356.541 111.89 354.61 113.131C352.747 114.372 351.299 116.131 350.265 118.407C349.23 120.614 348.713 123.132 348.713 125.959C348.713 128.856 349.23 131.443 350.265 133.719C351.299 135.926 352.747 137.65 354.61 138.891C356.472 140.133 358.679 140.753 361.231 140.753Z" fill="#141414"/>
<path d="M239.125 78.2666H261.057L278.128 123.89C280.059 129.132 281.576 133.96 282.68 138.374C283.852 133.96 285.369 129.132 287.232 123.89L304.198 78.2666H325.51V152.858H309.785V116.959C309.785 111.372 309.888 106.268 310.095 101.647C308.647 106.268 307.026 111.096 305.233 116.131L291.473 152.858H273.265L259.402 116.131C257.471 110.889 255.885 106.062 254.643 101.647C254.85 106.268 254.954 111.372 254.954 116.959V152.858H239.125V78.2666Z" fill="#141414"/>
<path d="M196.022 112.435H146.978V161.48H196.022V112.435Z" fill="#141414"/>
<path d="M0.603516 161.479V118.299L49.3834 69.5195H92.5632V112.699L43.7835 161.479H0.603516Z" fill="#141414"/>
<path d="M74.1699 161.479V118.299L122.95 69.5195H166.13V112.699L117.35 161.479H74.1699Z" fill="#141414"/>
</g>
</g>
<defs>
<clipPath id="clip0_158_992">
<rect width="596.303" height="231" fill="white" transform="translate(0.603516)"/>
</clipPath>
<clipPath id="clip1_158_992">
<rect width="596.303" height="91.96" fill="white" transform="translate(0.603516 69.5195)"/>
</clipPath>
</defs>
</svg>
