<svg width="361" height="231" viewBox="0 0 361 231" fill="none" xmlns="http://www.w3.org/2000/svg">
<g clip-path="url(#clip0_158_808)">
<g clip-path="url(#clip1_158_808)">
<path fill-rule="evenodd" clip-rule="evenodd" d="M36.6191 139.492C56.5016 139.492 72.6191 123.374 72.6191 103.492C72.6191 83.6099 56.5016 67.4922 36.6191 67.4922C36.2847 67.4922 35.9513 67.4967 35.6191 67.5058V67.4922H18.6191H12.6191H0.619141V103.492V163.492H18.6191V139.492H35.6191V139.478C35.9513 139.487 36.2847 139.492 36.6191 139.492ZM36.6187 121.492C46.4197 121.492 54.3651 113.433 54.3651 103.492C54.3651 93.5512 46.4201 85.4924 36.6191 85.4922H18.6191V121.492H36.6187ZM126.619 91.4922H144.619V163.492H126.619V158.676C121.324 161.739 115.176 163.492 108.619 163.492C88.7366 163.492 72.6191 147.374 72.6191 127.492C72.6191 107.61 88.7366 91.4924 108.619 91.4924C115.176 91.4924 121.324 93.2455 126.619 96.3086V91.4922ZM108.619 109.492C118.56 109.492 126.619 117.551 126.619 127.492C126.619 137.433 118.56 145.492 108.619 145.492C98.6781 145.492 90.6191 137.433 90.6191 127.492C90.6191 117.551 98.6781 109.492 108.619 109.492ZM220.619 67.4922H202.619V96.3083C197.324 93.2453 191.176 91.4922 184.619 91.4922C164.737 91.4922 148.619 107.61 148.619 127.492C148.619 147.374 164.737 163.492 184.619 163.492C191.176 163.492 197.324 161.739 202.619 158.676V163.492H220.619V127.492V67.4922ZM202.619 127.584C202.569 137.483 194.53 145.492 184.619 145.492C174.678 145.492 166.619 137.433 166.619 127.492C166.619 117.551 174.678 109.492 184.619 109.492C194.53 109.492 202.569 117.501 202.619 127.399V127.584ZM245.619 67.4922H227.619V163.492H245.619V67.4922ZM322.269 133.544C320.441 144.213 313.856 154.018 303.745 159.17C285.248 168.595 263.57 161.551 254.942 144.618C245.517 126.12 252.561 104.442 271.058 95.0172C287.991 86.3894 309.669 93.4332 319.094 111.931C320.039 113.785 320.796 115.696 321.372 117.64L303.162 126.919L275.029 141.254C280.433 145.755 288.337 146.818 295.555 143.141C301.267 140.23 304.702 133.975 304.643 127.432L322.269 133.544ZM268.673 128.78L298.234 113.718C292.902 109.18 285.284 107.97 279.211 111.065C271.993 114.743 268.207 121.762 268.673 128.78ZM327.619 67.4922H345.612V97.4922H359.611V115.492H345.612V163.492H327.619V67.4922Z" fill="#111111"/>
</g>
</g>
<defs>
<clipPath id="clip0_158_808">
<rect width="360" height="231" fill="white" transform="translate(0.619141)"/>
</clipPath>
<clipPath id="clip1_158_808">
<rect width="360" height="100" fill="white" transform="translate(0.619141 65.5)"/>
</clipPath>
</defs>
</svg>
