<svg fill="none" height="231" viewBox="0 0 361 231" width="361" xmlns="http://www.w3.org/2000/svg" xmlns:xlink="http://www.w3.org/1999/xlink"><clipPath id="a"><path d="m.619141 0h360v231h-360z"/></clipPath><clipPath id="b"><path d="m.619141 65.5h360v100h-360z"/></clipPath><g clip-path="url(#a)"><g clip-path="url(#b)"><path clip-rule="evenodd" d="m36.6191 139.492c19.8825 0 36-16.118 36-36 0-19.8821-16.1175-35.9998-36-35.9998-.3344 0-.6678.0045-1 .0136v-.0136h-17-6-11.999959v35.9998 60h17.999959v-24h17v-.014c.3322.009.6656.014 1 .014zm-.0004-18c9.801 0 17.7464-8.059 17.7464-18 0-9.9408-7.945-17.9996-17.746-17.9998h-18v35.9998zm90.0003-29.9998h18v71.9998h-18v-4.816c-5.295 3.063-11.443 4.816-18 4.816-19.8824 0-35.9999-16.118-35.9999-36s16.1175-35.9996 35.9999-35.9996c6.557 0 12.705 1.7531 18 4.8162zm-18 17.9998c9.941 0 18 8.059 18 18s-8.059 18-18 18c-9.9409 0-17.9999-8.059-17.9999-18s8.059-18 17.9999-18zm112-41.9998h-18v28.8161c-5.295-3.063-11.443-4.8161-18-4.8161-19.882 0-36 16.1178-36 35.9998s16.118 36 36 36c6.557 0 12.705-1.753 18-4.816v4.816h18v-36zm-18 60.0918c-.05 9.899-8.089 17.908-18 17.908-9.941 0-18-8.059-18-18s8.059-18 18-18c9.911 0 17.95 8.009 18 17.907zm43-60.0918h-18v95.9998h18zm76.65 66.0518c-1.828 10.669-8.413 20.474-18.524 25.626-18.497 9.425-40.175 2.381-48.803-14.552-9.425-18.498-2.381-40.176 16.116-49.6008 16.933-8.6278 38.611-1.584 48.036 16.9138.945 1.854 1.702 3.765 2.278 5.709l-18.21 9.279-28.133 14.335c5.404 4.501 13.308 5.564 20.526 1.887 5.712-2.911 9.147-9.166 9.088-15.709zm-53.596-4.764 29.561-15.062c-5.332-4.538-12.95-5.748-19.023-2.653-7.218 3.678-11.004 10.697-10.538 17.715zm58.946-61.2878h17.993v30h13.999v17.9998h-13.999v48h-17.993z" fill="#111" fill-rule="evenodd"/></g></g></svg>