<svg width="188" height="231" viewBox="0 0 188 231" fill="none" xmlns="http://www.w3.org/2000/svg">
<g clip-path="url(#clip0_158_879)">
<path fill-rule="evenodd" clip-rule="evenodd" d="M143.174 159.122C118.962 186.426 77.1985 188.933 49.894 164.72C46.6821 161.872 43.8133 158.781 41.2908 155.499L61.7063 132.476C63.6782 136.15 66.3206 139.545 69.6221 142.472C84.6395 155.789 107.609 154.41 120.926 139.393C134.243 124.375 132.864 101.406 117.847 88.0887C103.327 75.2133 81.3733 76.0754 67.8981 89.7202L67.8584 89.6852L66.5428 91.168L29.923 132.465C24.3613 111.736 28.9903 88.6993 44.2953 71.4399C68.508 44.1352 110.271 41.6286 137.576 65.8412C164.88 90.0539 167.387 131.817 143.174 159.122Z" fill="black"/>
</g>
<defs>
<clipPath id="clip0_158_879">
<rect width="187" height="231" fill="white" transform="translate(0.454102)"/>
</clipPath>
</defs>
</svg>
