<svg fill="none" height="231" viewBox="0 0 188 231" width="188" xmlns="http://www.w3.org/2000/svg" xmlns:xlink="http://www.w3.org/1999/xlink"><clipPath id="a"><path d="m.454102 0h187v231h-187z"/></clipPath><g clip-path="url(#a)"><path clip-rule="evenodd" d="m143.174 159.122c-24.212 27.304-65.9755 29.811-93.28 5.598-3.2119-2.848-6.0807-5.939-8.6032-9.221l20.4155-23.023c1.9719 3.674 4.6143 7.069 7.9158 9.996 15.0174 13.317 37.9869 11.938 51.3039-3.079 13.317-15.018 11.938-37.987-3.079-51.3043-14.52-12.8754-36.4737-12.0133-49.9489 1.6315l-.0397-.035-1.3156 1.4828-36.6198 41.297c-5.5617-20.729-.9327-43.7657 14.3723-61.0251 24.2127-27.3047 65.9757-29.8113 93.2807-5.5987 27.304 24.2127 29.811 65.9758 5.598 93.2808z" fill="#000" fill-rule="evenodd"/></g></svg>