<svg width="452" height="231" viewBox="0 0 452 231" fill="none" xmlns="http://www.w3.org/2000/svg">
<g clip-path="url(#clip0_158_859)">
<g clip-path="url(#clip1_158_859)">
<path d="M53.7627 160.55C28.8823 160.55 8.7127 140.38 8.7127 115.5C8.7127 90.6196 28.8823 70.45 53.7627 70.45C78.643 70.45 98.8127 90.6196 98.8127 115.5C98.8127 140.38 78.643 160.55 53.7627 160.55ZM53.7627 168.5C83.0335 168.5 106.763 144.771 106.763 115.5C106.763 86.2289 83.0335 62.5 53.7627 62.5C24.4916 62.5 0.762695 86.2289 0.762695 115.5C0.762695 144.771 24.4916 168.5 53.7627 168.5Z" fill="black"/>
<path d="M216.737 78.4004C197.711 78.4004 182.287 93.8242 182.287 112.85C182.287 131.877 197.711 147.3 216.737 147.3C235.764 147.3 251.187 131.877 251.187 112.85C251.187 93.8242 235.764 78.4004 216.737 78.4004ZM190.237 112.85C190.237 98.2149 202.102 86.3504 216.737 86.3504C231.373 86.3504 243.237 98.2149 243.237 112.85C243.237 127.486 231.373 139.35 216.737 139.35C202.102 139.35 190.237 127.486 190.237 112.85Z" fill="black"/>
<path d="M175.663 79.7247L175.166 79.7246C169.307 79.7243 165.817 79.724 162.826 80.2582C148.701 82.7806 137.644 93.8376 135.122 107.962C134.587 110.954 134.587 114.444 134.588 120.303V147.3H142.538V120.8C142.538 114.297 142.554 111.567 142.948 109.36C144.885 98.5128 153.376 90.0215 164.223 88.0844C166.43 87.6903 169.16 87.6747 175.663 87.6747V79.7247Z" fill="black"/>
<path d="M322.737 134.864V147.3H330.687V112.85C330.687 93.8242 315.264 78.4004 296.237 78.4004C277.211 78.4004 261.787 93.8242 261.787 112.85C261.787 131.877 277.211 147.3 296.237 147.3C306.892 147.3 316.418 142.463 322.737 134.864ZM296.237 86.3504C310.873 86.3504 322.737 98.2149 322.737 112.85C322.737 127.486 310.873 139.35 296.237 139.35C281.602 139.35 269.737 127.486 269.737 112.85C269.737 98.2149 281.602 86.3504 296.237 86.3504Z" fill="black"/>
<path d="M374.413 87.6746C363.436 87.6746 354.538 96.5729 354.538 107.55V147.3H346.588V107.55C346.588 92.1823 359.046 79.7246 374.413 79.7246C384.534 79.7246 393.394 85.129 398.263 93.2094C403.132 85.129 411.991 79.7246 422.113 79.7246C437.48 79.7246 449.938 92.1823 449.938 107.55V147.3H441.988V107.55C441.988 96.5729 433.09 87.6746 422.113 87.6746C411.136 87.6746 402.238 96.5729 402.238 107.55V147.3H394.288V107.55C394.288 96.5729 385.39 87.6746 374.413 87.6746Z" fill="black"/>
<path d="M75.5098 76.0372C72.5307 75.3396 69.4254 74.9707 66.2333 74.9707C43.8497 74.9707 25.7041 93.1163 25.7041 115.5C25.7041 137.884 43.8497 156.03 66.2333 156.03C69.4254 156.03 72.5307 155.66 75.5098 154.963C89.3789 147.304 98.78 132.546 98.8129 115.589C98.7647 133.541 84.1971 148.08 66.2333 148.08C48.2404 148.08 33.6541 133.493 33.6541 115.5C33.6541 97.507 48.2404 82.9207 66.2333 82.9207C84.1971 82.9207 98.7647 97.4588 98.8129 115.411C98.78 98.4543 89.3789 83.6964 75.5098 76.0372Z" fill="black" fill-opacity="0.5"/>
<path d="M83.4612 143.157C92.6561 137.418 98.7819 127.22 98.8132 115.589V115.546C98.7882 126.631 89.7947 135.609 78.7044 135.609C67.5983 135.609 58.5957 126.606 58.5957 115.5C58.5957 104.394 67.5983 95.3914 78.7044 95.3914C89.7947 95.3914 98.7882 104.37 98.8132 115.455V115.411C98.7819 103.78 92.6561 93.5826 83.4612 87.8429C81.9146 87.5789 80.3257 87.4414 78.7044 87.4414C63.2078 87.4414 50.6455 100.004 50.6455 115.5C50.6455 130.996 63.2078 143.559 78.7044 143.559C80.3257 143.559 81.9152 143.422 83.4612 143.157Z" fill="black" fill-opacity="0.3"/>
</g>
</g>
<defs>
<clipPath id="clip0_158_859">
<rect width="450.5" height="231" fill="white" transform="translate(0.762695)"/>
</clipPath>
<clipPath id="clip1_158_859">
<rect width="450.5" height="106" fill="white" transform="translate(0.762695 62.5)"/>
</clipPath>
</defs>
</svg>
