<svg fill="none" height="231" viewBox="0 0 452 231" width="452" xmlns="http://www.w3.org/2000/svg" xmlns:xlink="http://www.w3.org/1999/xlink"><clipPath id="a"><path d="m.762695 0h450.5v231h-450.5z"/></clipPath><clipPath id="b"><path d="m.762695 62.5h450.5v106h-450.5z"/></clipPath><g clip-path="url(#a)"><g clip-path="url(#b)" fill="#000"><path d="m53.7627 160.55c-24.8804 0-45.05-20.17-45.05-45.05 0-24.8804 20.1696-45.05 45.05-45.05 24.8803 0 45.05 20.1696 45.05 45.05 0 24.88-20.1697 45.05-45.05 45.05zm0 7.95c29.2708 0 53.0003-23.729 53.0003-53 0-29.2711-23.7295-53-53.0003-53-29.2711 0-53.000005 23.7289-53.000005 53 0 29.271 23.728905 53 53.000005 53z"/><path d="m216.737 78.4004c-19.026 0-34.45 15.4238-34.45 34.4496 0 19.027 15.424 34.45 34.45 34.45 19.027 0 34.45-15.423 34.45-34.45 0-19.0258-15.423-34.4496-34.45-34.4496zm-26.5 34.4496c0-14.6351 11.865-26.4996 26.5-26.4996 14.636 0 26.5 11.8645 26.5 26.4996 0 14.636-11.864 26.5-26.5 26.5-14.635 0-26.5-11.864-26.5-26.5z"/><path d="m175.663 79.7247-.497-.0001c-5.859-.0003-9.349-.0006-12.34.5336-14.125 2.5224-25.182 13.5794-27.704 27.7038-.535 2.992-.535 6.482-.534 12.341v26.997h7.95v-26.5c0-6.503.016-9.233.41-11.44 1.937-10.8472 10.428-19.3385 21.275-21.2756 2.207-.3941 4.937-.4097 11.44-.4097z"/><path d="m322.737 134.864v12.436h7.95v-34.45c0-19.0258-15.423-34.4496-34.45-34.4496-19.026 0-34.45 15.4238-34.45 34.4496 0 19.027 15.424 34.45 34.45 34.45 10.655 0 20.181-4.837 26.5-12.436zm-26.5-48.5136c14.636 0 26.5 11.8645 26.5 26.4996 0 14.636-11.864 26.5-26.5 26.5-14.635 0-26.5-11.864-26.5-26.5 0-14.6351 11.865-26.4996 26.5-26.4996z"/><path d="m374.413 87.6746c-10.977 0-19.875 8.8983-19.875 19.8754v39.75h-7.95v-39.75c0-15.3677 12.458-27.8254 27.825-27.8254 10.121 0 18.981 5.4044 23.85 13.4848 4.869-8.0804 13.728-13.4848 23.85-13.4848 15.367 0 27.825 12.4577 27.825 27.8254v39.75h-7.95v-39.75c0-10.9771-8.898-19.8754-19.875-19.8754s-19.875 8.8983-19.875 19.8754v39.75h-7.95v-39.75c0-10.9771-8.898-19.8754-19.875-19.8754z"/><path d="m75.5098 76.0372c-2.9791-.6976-6.0844-1.0665-9.2765-1.0665-22.3836 0-40.5292 18.1456-40.5292 40.5293 0 22.384 18.1456 40.53 40.5292 40.53 3.1921 0 6.2974-.37 9.2765-1.067 13.8691-7.659 23.2702-22.417 23.3031-39.374-.0482 17.952-14.6158 32.491-32.5796 32.491-17.9929 0-32.5792-14.587-32.5792-32.58s14.5863-32.5793 32.5792-32.5793c17.9638 0 32.5314 14.5381 32.5796 32.4903-.0329-16.9567-9.434-31.7146-23.3031-39.3738z" fill-opacity=".5"/><path d="m83.4612 143.157c9.1949-5.739 15.3207-15.937 15.352-27.568v-.043c-.025 11.085-9.0185 20.063-20.1088 20.063-11.1061 0-20.1087-9.003-20.1087-20.109s9.0026-20.1086 20.1087-20.1086c11.0903 0 20.0838 8.9786 20.1088 20.0636v-.044c-.0313-11.631-6.1571-21.8284-15.352-27.5681-1.5466-.264-3.1355-.4015-4.7568-.4015-15.4966 0-28.0589 12.5626-28.0589 28.0586s12.5623 28.059 28.0589 28.059c1.6213 0 3.2108-.137 4.7568-.402z" fill-opacity=".3"/></g></g></svg>