<svg width="524" height="231" viewBox="0 0 524 231" fill="none" xmlns="http://www.w3.org/2000/svg">
<g clip-path="url(#clip0_266_566)">
<path d="M108.785 171.92C108.785 171.948 108.008 171.967 108.008 172C108.267 172 107.749 172 108.008 172L7.08934 171.995C5.53409 172.022 4.02547 171.464 2.86144 170.432C2.14807 169.832 1.57571 169.082 1.1851 168.236C0.794497 167.39 0.595248 166.468 0.601539 165.536C0.582707 159.773 0.610956 154.015 0.582707 148.261C0.567576 147.218 0.806738 146.187 1.27951 145.257C2.47537 142.88 4.48104 141.693 7.06109 141.679C17.2918 141.618 27.532 141.641 37.7675 141.618C38.8174 141.618 39.9003 141.632 40.9125 141.392C42.5368 141.015 44.147 140.559 45.6677 139.81C48.7704 138.275 51.261 136.119 53.0548 133.171C54.8345 130.238 55.9503 127.088 55.7855 123.6C55.7452 122.342 55.6209 121.088 55.4136 119.847C54.9757 117.422 53.954 115.224 52.5981 113.176C51.6753 111.782 50.4371 110.69 49.2553 109.531C44.7261 105.106 40.2157 100.671 35.7053 96.2354C34.081 94.644 32.485 93.0103 30.8089 91.4707C29.7731 90.5102 28.7373 89.5686 27.8475 88.4716C24.8672 84.818 23.629 80.6418 24.1045 75.9383C24.2834 74.1916 24.7778 72.5296 25.5593 70.9853C26.7352 68.5966 28.3852 66.4724 30.4087 64.7422C32.9228 62.6141 35.6912 60.9897 38.8692 60.1281C40.6112 59.6526 42.3673 59.2524 44.1894 59.1064C45.7242 58.9793 47.245 58.9652 48.7751 59.0688C51.0869 59.2371 53.364 59.7268 55.5407 60.5236C58.7615 61.6797 61.6806 63.5464 64.0812 65.9851C66.0586 68.0097 67.4946 70.3638 68.3892 73.0569C68.4504 73.2499 68.5681 73.4335 68.6528 73.6124C68.7423 73.8008 68.8553 73.975 68.8976 74.1727C69.3025 76.2114 69.7074 78.2547 70.1029 80.2934C71.0304 85.0299 71.9626 89.7616 72.8807 94.4981C73.7517 98.9897 74.6039 103.491 75.4561 107.987C75.795 109.79 76.1246 111.589 76.619 113.359C77.1133 115.115 78.0973 116.462 79.7169 117.276C82.3299 118.604 84.9429 118.595 87.5465 117.173C89.0437 116.363 90.0183 115.177 90.4043 113.515C90.8422 111.631 91.2989 109.748 91.6991 107.855C92.3441 104.771 92.9326 101.688 93.5682 98.6036C94.1332 95.8823 94.7547 93.1657 95.3196 90.4443C95.7904 88.2032 96.1906 85.9527 96.6473 83.7116C97.0475 81.7529 97.4807 79.8037 97.9185 77.8451C98.0927 77.0636 98.2057 76.2443 98.5306 75.524C99.9054 72.4966 103.399 71.1359 106.549 71.3807C108.112 71.4985 109.51 72.0587 110.809 72.9533C112.655 74.2198 113.545 75.9383 113.559 78.1323C113.578 83.4997 113.578 88.8576 113.578 94.225V165.583C113.507 167.819 112.631 169.651 110.758 170.922C110.136 171.346 109.411 171.609 108.78 171.925C110.437 171.925 107.057 171.925 108.78 171.925L108.785 171.92Z" fill="black"/>
<path d="M446.619 136.408C446.602 129.827 446.66 123.579 446.546 117.334C446.442 111.632 444.149 108.243 440.234 107.614C434.635 106.715 429.663 109.235 427.848 114.372C426.939 116.944 426.485 119.8 426.449 122.535C426.301 134.124 426.386 145.715 426.386 157.572C421.455 157.572 416.752 157.572 411.667 157.572C411.667 155.125 411.667 152.81 411.667 150.495C411.667 140.121 411.67 129.746 411.665 119.372C411.661 111.173 409.102 107.593 403.212 107.525C396.538 107.448 391.678 112.496 391.597 119.871C391.474 131.024 391.506 142.179 391.473 153.334C391.469 154.654 391.472 155.974 391.472 157.566C386.546 157.566 381.926 157.566 377.051 157.566C377.051 137.553 377.051 117.449 377.051 96.9303C381.027 96.9303 384.9 96.8304 388.758 97.0257C389.424 97.0594 390.391 98.2625 390.576 99.0722C390.88 100.406 390.658 101.859 390.658 104.306C395.584 98.5799 400.788 95.2877 407.626 95.6181C414.406 95.9456 419.992 98.3675 422.949 104.939C425.521 102.708 427.692 100.452 430.215 98.7042C438.016 93.2975 455.153 94.1867 459.787 107.23C460.486 109.198 461.122 111.32 461.14 113.376C461.263 127.654 461.217 141.933 461.213 156.212C461.213 156.633 461.079 157.054 460.948 157.823C456.682 157.823 452.47 157.928 448.276 157.704C447.68 157.672 446.714 156.051 446.694 155.147C446.552 149.015 446.619 142.878 446.619 136.408Z" fill="black"/>
<path d="M324.298 140.788C318.159 157.27 301.234 164.104 287.206 155.826C284.49 154.223 282.205 151.888 279.546 149.749C279.321 150.229 279.071 150.687 278.887 151.171C276.012 158.72 275.743 158.87 267.202 157.461C267.202 128.984 267.202 100.478 267.202 71.494C271.639 71.494 275.95 71.3807 280.24 71.6339C280.791 71.6665 281.642 73.5965 281.656 74.6568C281.771 83.3583 281.721 92.0619 281.721 100.765C281.721 101.747 281.721 102.729 281.721 104.256C282.721 103.43 283.389 102.955 283.968 102.389C295.092 91.4985 313.853 94.1059 321.527 107.731C327.418 118.19 327.013 129.29 324.298 140.788ZM305.066 109.85C295.011 104.23 284.789 108.091 282.216 118.724C280.71 124.949 280.771 131.332 282.471 137.544C284.417 144.657 289.872 148.144 297.976 147.817C304.273 147.563 309.506 143.22 310.439 136.446C311.161 131.21 311.108 125.815 310.863 120.515C310.673 116.416 308.817 112.8 305.066 109.85Z" fill="black"/>
<path d="M515.556 152.705C497.819 167.232 470.14 157.285 466.801 134.962C465.301 124.937 465.523 114.558 472.823 106.056C481.198 96.3028 491.868 93.7629 503.947 96.8515C515.46 99.7956 521.272 107.895 522.768 119.354C523.224 122.846 523.34 126.381 523.646 130.34C509.208 130.34 495.33 130.34 481.505 130.34C480.155 142.412 489.483 150.714 500.598 147.83C504.377 146.85 506.909 144.529 508.037 140.861C508.64 138.901 509.669 138.308 511.644 138.392C515.191 138.542 518.749 138.434 522.703 138.434C522.291 144.359 519.707 148.78 515.556 152.705ZM505.444 119.7C506.416 119.652 507.388 119.604 508.376 119.556C507.196 110.155 503.137 106.499 494.475 106.847C487.231 107.138 482.189 112.177 481.804 119.7C489.481 119.7 497.149 119.7 505.444 119.7Z" fill="black"/>
<path d="M210.827 150.894C209.562 146.103 207.642 141.537 207.488 136.912C207.051 123.777 207.335 110.618 207.335 97.1963C212.184 97.1963 216.807 97.1963 221.865 97.1963C221.918 98.2587 222.026 99.43 222.027 100.601C222.04 112.314 222.024 124.027 222.042 135.74C222.052 142.681 225.045 147.042 230.233 147.765C236.507 148.639 242.157 144.96 243.957 138.633C244.497 136.736 244.763 134.701 244.779 132.726C244.864 122.129 244.829 111.532 244.836 100.934C244.837 99.7348 244.836 98.5351 244.836 97.1357C249.829 97.1357 254.449 97.1357 259.302 97.1357C259.302 117.259 259.302 137.282 259.302 157.573C254.864 157.573 250.381 157.573 245.641 157.573C245.641 155.192 245.641 152.889 245.641 149.736C240.991 156.003 235.636 159.349 228.343 159.22C221.266 159.094 215.222 157.103 210.827 150.894Z" fill="black"/>
<path d="M197.659 105.317C199.043 108.661 200.283 111.808 201.7 115.402C196.551 115.402 192.24 115.402 187.912 115.402C183.8 107.615 178.451 105.09 171.052 107.308C168.362 108.114 166.222 109.48 166.056 112.413C165.899 115.176 167.658 117.009 170.198 117.856C174.932 119.434 179.73 120.821 184.471 122.381C187.529 123.386 190.647 124.317 193.539 125.698C204.834 131.09 206.036 146.151 195.904 154.212C185.162 162.758 163.033 160.186 154.922 149.16C152.913 146.428 152.056 142.848 150.378 138.988C155.714 138.988 160.046 138.908 164.369 139.076C165.01 139.101 165.871 140.188 166.182 140.963C169.084 148.192 180.06 151.412 186.488 146.855C190.41 144.074 190.269 138.785 185.882 136.854C182.052 135.168 177.824 134.411 173.851 133.018C169.461 131.479 165.035 129.946 160.846 127.948C150.91 123.21 150.4 107.291 159.359 100.443C169.194 92.9249 190.614 94.1782 197.659 105.317Z" fill="black"/>
<path d="M336.619 71.4688C339.946 71.4688 342.946 71.4688 346.234 71.4688C346.234 100.23 346.234 128.734 346.234 157.54C341.66 157.54 336.956 157.54 332.035 157.54C332.035 129.014 332.035 100.505 332.035 71.4688C333.492 71.4688 334.892 71.4687 336.619 71.4688Z" fill="black"/>
<path d="M368.89 154.414C368.838 155.616 368.785 156.492 368.719 157.599C364.089 157.599 359.572 157.599 354.675 157.599C354.606 156.588 354.47 155.53 354.469 154.471C354.456 136.51 354.528 118.549 354.393 100.59C354.371 97.6411 355.155 96.5534 358.133 96.878C360.337 97.1183 362.61 97.1153 364.816 96.8798C367.969 96.543 368.996 97.579 368.966 100.876C368.806 118.612 368.89 136.35 368.89 154.414Z" fill="black"/>
<path d="M363.975 77.3956C365.625 77.3955 366.948 77.3955 368.56 77.3955C368.56 81.9066 368.56 86.1616 368.56 90.8389C364.376 90.8389 360.283 90.9162 356.199 90.7528C355.609 90.7291 354.604 89.5699 354.575 88.9017C354.414 85.2457 354.499 81.579 354.499 77.3956C357.723 77.3956 360.685 77.3956 363.975 77.3956Z" fill="black"/>
</g>
<defs>
<clipPath id="clip0_266_566">
<rect width="523.064" height="231" fill="white" transform="translate(0.582031)"/>
</clipPath>
</defs>
</svg>
