<svg fill="none" height="231" viewBox="0 0 524 231" width="524" xmlns="http://www.w3.org/2000/svg" xmlns:xlink="http://www.w3.org/1999/xlink"><clipPath id="a"><path d="m.582031 0h523.064v231h-523.064z"/></clipPath><g clip-path="url(#a)" fill="#000"><path d="m108.785 171.92c0 .028-.777.047-.777.08l-100.91866-.005c-1.55525.027-3.06387-.531-4.2279-1.563-.71337-.6-1.28573-1.35-1.67634-2.196-.390603-.846-.589852-1.768-.583561-2.7-.018832-5.763.009417-11.521-.018832-17.275-.015131-1.043.224031-2.074.696803-3.004 1.19586-2.377 3.20153-3.564 5.78158-3.578 10.23071-.061 20.47091-.038 30.70641-.061 1.0499 0 2.1328.014 3.145-.226 1.6243-.377 3.2345-.833 4.7552-1.582 3.1027-1.535 5.5933-3.691 7.3871-6.639 1.7797-2.933 2.8955-6.083 2.7307-9.571-.0403-1.258-.1646-2.512-.3719-3.753-.4379-2.425-1.4596-4.623-2.8155-6.671-.9228-1.394-2.161-2.486-3.3428-3.645-4.5292-4.425-9.0396-8.86-13.55-13.2956-1.6243-1.5914-3.2203-3.2251-4.8964-4.7647-1.0358-.9605-2.0716-1.9021-2.9614-2.9991-2.9803-3.6536-4.2185-7.8298-3.743-12.5333.1789-1.7467.6733-3.4087 1.4548-4.953 1.1759-2.3887 2.8259-4.5129 4.8494-6.2431 2.5141-2.1281 5.2825-3.7525 8.4605-4.6141 1.742-.4755 3.4981-.8757 5.3202-1.0217 1.5348-.1271 3.0556-.1412 4.5857-.0376 2.3118.1683 4.5889.658 6.7656 1.4548 3.2208 1.1561 6.1399 3.0228 8.5405 5.4615 1.9774 2.0246 3.4134 4.3787 4.308 7.0718.0612.193.1789.3766.2636.5555.0895.1884.2025.3626.2448.5603.4049 2.0387.8098 4.082 1.2053 6.1207.9275 4.7365 1.8597 9.4682 2.7778 14.2047.871 4.4916 1.7232 8.9929 2.5754 13.4889.3389 1.803.6685 3.602 1.1629 5.372.4943 1.756 1.4783 3.103 3.0979 3.917 2.613 1.328 5.226 1.319 7.8296-.103 1.4972-.81 2.4718-1.996 2.8578-3.658.4379-1.884.8946-3.767 1.2948-5.66.645-3.084 1.2335-6.167 1.8691-9.2514.565-2.7213 1.1865-5.4379 1.7514-8.1593.4708-2.2411.871-4.4916 1.3277-6.7327.4002-1.9587.8334-3.9079 1.2712-5.8665.1742-.7815.2872-1.6008.6121-2.3211 1.3748-3.0274 4.8684-4.3881 8.0184-4.1433 1.563.1178 2.961.678 4.26 1.5726 1.846 1.2665 2.736 2.985 2.75 5.179.019 5.3674.019 10.7253.019 16.0927v71.358c-.071 2.236-.947 4.068-2.82 5.339-.622.424-1.347.687-1.978 1.003z"/><path d="m446.619 136.408c-.017-6.581.041-12.829-.073-19.074-.104-5.702-2.397-9.091-6.312-9.72-5.599-.899-10.571 1.621-12.386 6.758-.909 2.572-1.363 5.428-1.399 8.163-.148 11.589-.063 23.18-.063 35.037-4.931 0-9.634 0-14.719 0 0-2.447 0-4.762 0-7.077 0-10.374.003-20.749-.002-31.123-.004-8.199-2.563-11.779-8.453-11.847-6.674-.077-11.534 4.971-11.615 12.346-.123 11.153-.091 22.308-.124 33.463-.004 1.32-.001 2.64-.001 4.232-4.926 0-9.546 0-14.421 0 0-20.013 0-40.117 0-60.6357 3.976 0 7.849-.0999 11.707.0954.666.0337 1.633 1.2368 1.818 2.0465.304 1.3338.082 2.7868.082 5.2338 4.926-5.7261 10.13-9.0183 16.968-8.6879 6.78.3275 12.366 2.7494 15.323 9.3209 2.572-2.231 4.743-4.487 7.266-6.2348 7.801-5.4067 24.938-4.5175 29.572 8.5258.699 1.968 1.335 4.09 1.353 6.146.123 14.278.077 28.557.073 42.836 0 .421-.134.842-.265 1.611-4.266 0-8.478.105-12.672-.119-.596-.032-1.562-1.653-1.582-2.557-.142-6.132-.075-12.269-.075-18.739z"/><path d="m324.298 140.788c-6.139 16.482-23.064 23.316-37.092 15.038-2.716-1.603-5.001-3.938-7.66-6.077-.225.48-.475.938-.659 1.422-2.875 7.549-3.144 7.699-11.685 6.29 0-28.477 0-56.983 0-85.967 4.437 0 8.748-.1133 13.038.1399.551.0326 1.402 1.9626 1.416 3.0229.115 8.7015.065 17.4051.065 26.1082v3.491c1-.826 1.668-1.301 2.247-1.867 11.124-10.8905 29.885-8.2831 37.559 5.342 5.891 10.459 5.486 21.559 2.771 33.057zm-19.232-30.938c-10.055-5.62-20.277-1.759-22.85 8.874-1.506 6.225-1.445 12.608.255 18.82 1.946 7.113 7.401 10.6 15.505 10.273 6.297-.254 11.53-4.597 12.463-11.371.722-5.236.669-10.631.424-15.931-.19-4.099-2.046-7.715-5.797-10.665z"/><path d="m515.556 152.705c-17.737 14.527-45.416 4.58-48.755-17.743-1.5-10.025-1.278-20.404 6.022-28.906 8.375-9.7532 19.045-12.2931 31.124-9.2045 11.513 2.9441 17.325 11.0435 18.821 22.5025.456 3.492.572 7.027.878 10.986-14.438 0-28.316 0-42.141 0-1.35 12.072 7.978 20.374 19.093 17.49 3.779-.98 6.311-3.301 7.439-6.969.603-1.96 1.632-2.553 3.607-2.469 3.547.15 7.105.042 11.059.042-.412 5.925-2.996 10.346-7.147 14.271zm-10.112-33.005c.972-.048 1.944-.096 2.932-.144-1.18-9.401-5.239-13.057-13.901-12.709-7.244.291-12.286 5.33-12.671 12.853z"/><path d="m210.827 150.894c-1.265-4.791-3.185-9.357-3.339-13.982-.437-13.135-.153-26.294-.153-39.7157h14.53c.053 1.0624.161 2.2337.162 3.4047.013 11.713-.003 23.426.015 35.139.01 6.941 3.003 11.302 8.191 12.025 6.274.874 11.924-2.805 13.724-9.132.54-1.897.806-3.932.822-5.907.085-10.597.05-21.194.057-31.792.001-1.1992 0-2.3989 0-3.7983h14.466v60.4373c-4.438 0-8.921 0-13.661 0 0-2.381 0-4.684 0-7.837-4.65 6.267-10.005 9.613-17.298 9.484-7.077-.126-13.121-2.117-17.516-8.326z"/><path d="m197.659 105.317c1.384 3.344 2.624 6.491 4.041 10.085-5.149 0-9.46 0-13.788 0-4.112-7.787-9.461-10.312-16.86-8.094-2.69.806-4.83 2.172-4.996 5.105-.157 2.763 1.602 4.596 4.142 5.443 4.734 1.578 9.532 2.965 14.273 4.525 3.058 1.005 6.176 1.936 9.068 3.317 11.295 5.392 12.497 20.453 2.365 28.514-10.742 8.546-32.871 5.974-40.982-5.052-2.009-2.732-2.866-6.312-4.544-10.172 5.336 0 9.668-.08 13.991.088.641.025 1.502 1.112 1.813 1.887 2.902 7.229 13.878 10.449 20.306 5.892 3.922-2.781 3.781-8.07-.606-10.001-3.83-1.686-8.058-2.443-12.031-3.836-4.39-1.539-8.816-3.072-13.005-5.07-9.936-4.738-10.446-20.657-1.487-27.505 9.835-7.5181 31.255-6.2648 38.3 4.874z"/><path d="m336.619 71.4688h9.615v86.0712c-4.574 0-9.278 0-14.199 0 0-28.526 0-57.035 0-86.0712 1.457 0 2.857-.0001 4.584 0z"/><path d="m368.89 154.414c-.052 1.202-.105 2.078-.171 3.185-4.63 0-9.147 0-14.044 0-.069-1.011-.205-2.069-.206-3.128-.013-17.961.059-35.922-.076-53.881-.022-2.9489.762-4.0366 3.74-3.712 2.204.2403 4.477.2373 6.683.0018 3.153-.3368 4.18.6992 4.15 3.9962-.16 17.736-.076 35.474-.076 53.538z"/><path d="m363.975 77.3956c1.65-.0001 2.973-.0001 4.585-.0001v13.4434c-4.184 0-8.277.0773-12.361-.0861-.59-.0237-1.595-1.1829-1.624-1.8511-.161-3.656-.076-7.3227-.076-11.5061z"/></g></svg>