<svg width="1080" height="160" viewBox="0 0 1080 160" fill="none" xmlns="http://www.w3.org/2000/svg">
<mask id="path-1-outside-1_3296_32770" maskUnits="userSpaceOnUse" x="364" y="27" width="342" height="106" fill="black">
<rect fill="white" x="364" y="27" width="342" height="106"/>
<path fill-rule="evenodd" clip-rule="evenodd" d="M377 48.7912C377 43.936 380.798 40 385.482 40H449.098C453.783 40 457.58 43.936 457.58 48.7912V111.209C457.58 116.064 453.783 120 449.098 120H385.482C380.798 120 377 116.064 377 111.209V48.7912ZM424.571 62.8801C424.571 64.8134 423.905 66.4539 422.574 67.8014C421.243 69.1489 419.622 69.8226 417.712 69.8226C415.744 69.8226 414.095 69.1489 412.764 67.8014C411.433 66.4539 410.767 64.8134 410.767 62.8801C410.767 60.9467 411.433 59.3063 412.764 57.9588C414.095 56.6113 415.744 55.9375 417.712 55.9375C419.622 55.9375 421.243 56.6113 422.574 57.9588C423.905 59.3063 424.571 60.9467 424.571 62.8801ZM410.68 87.2107C410.68 85.2774 411.346 83.6369 412.677 82.2894C414.066 80.8833 415.744 80.1803 417.712 80.1803C419.564 80.1803 421.185 80.8833 422.574 82.2894C423.963 83.6369 424.774 85.1602 425.005 86.8592C425.468 90.0229 424.889 93.1573 423.269 96.2624C421.706 99.3675 419.449 101.74 416.497 103.381C414.876 104.318 413.545 104.289 412.503 103.293C411.519 102.355 411.809 101.242 413.371 99.9534C414.24 99.309 414.963 98.4887 415.542 97.4928C416.121 96.4968 416.497 95.4715 416.671 94.4169C416.728 93.9482 416.526 93.7139 416.063 93.7139C414.905 93.6553 413.719 93.0108 412.503 91.7805C411.288 90.5502 410.68 89.0269 410.68 87.2107Z"/>
<path d="M529.906 104.783C530.387 104.783 530.628 104.543 530.628 104.065V94.3261C530.628 93.3656 529.844 92.587 528.877 92.587H527.607C527.212 92.587 526.906 92.4783 526.687 92.2609C526.512 92.087 526.424 91.8261 526.424 91.4783V56.587C526.424 56.1087 526.183 55.8696 525.701 55.8696H514.644C513.676 55.8696 512.892 56.6482 512.892 57.6087V95.3913C512.892 98.5217 513.79 100.87 515.585 102.435C517.381 104 519.68 104.783 522.483 104.783H529.906Z"/>
<path d="M507.242 94.2609C507.242 93.3004 506.458 92.5217 505.491 92.5217H500.87C499.381 92.5217 498.374 92.2609 497.849 91.7391C497.192 91.1304 496.863 90.1522 496.863 88.8043V83.0435C496.863 82.083 497.648 81.3043 498.615 81.3043H505.491C506.458 81.3043 507.242 80.5257 507.242 79.5652V69.8261C507.242 69.3478 507.002 69.1087 506.52 69.1087H498.615C497.648 69.1087 496.863 68.3301 496.863 67.3696V59.8478C496.863 59.3696 496.622 59.1304 496.141 59.1304H485.477C484.51 59.1304 483.725 59.9091 483.725 60.8696V67.3696C483.725 68.3301 482.941 69.1087 481.973 69.1087H480.353C479.386 69.1087 478.601 69.8873 478.601 70.8478V80.587C478.601 81.0652 478.842 81.3043 479.324 81.3043H481.973C482.941 81.3043 483.725 82.083 483.725 83.0435V89.7826C483.725 94.8261 485.061 98.587 487.732 101.065C490.404 103.543 494.28 104.783 499.36 104.783H506.52C507.002 104.783 507.242 104.543 507.242 104.065V94.2609Z"/>
<path fill-rule="evenodd" clip-rule="evenodd" d="M545.711 68.4565C547.726 68.4565 549.456 68.9565 550.901 69.9565C552.262 70.8705 553.385 72.0568 554.27 73.5156C554.426 73.7713 554.701 73.9348 555.001 73.9348C555.458 73.9348 555.828 73.5675 555.828 73.1144V57.6087C555.828 56.6482 556.612 55.8696 557.58 55.8696H568.243C568.725 55.8696 568.966 56.1087 568.966 56.587V103.043C568.966 104.004 568.182 104.783 567.214 104.783H556.55C556.069 104.783 555.828 104.543 555.828 104.065V100.148C555.828 99.6821 555.447 99.3043 554.978 99.3043C554.689 99.3043 554.42 99.4511 554.259 99.6893C553.14 101.339 551.89 102.689 550.507 103.739C549.018 104.87 547.157 105.435 544.923 105.435C541.901 105.435 539.515 104.413 537.763 102.37C536.011 100.326 535.135 97.587 535.135 94.1522V80.4565C535.135 76.7174 536.033 73.7826 537.829 71.6522C539.668 69.5217 542.296 68.4565 545.711 68.4565ZM548.996 93.0435C549.478 93.5652 550.332 93.8261 551.558 93.8261C552.797 93.8261 553.886 93.6774 554.825 93.3801C555.457 93.18 555.828 92.5622 555.828 91.9034V81.5829C555.828 81.0014 555.542 80.4427 555.014 80.1911C554.6 79.9938 554.171 79.8431 553.726 79.7391C552.981 79.5217 552.259 79.413 551.558 79.413C549.324 79.413 548.208 80.5217 548.208 82.7391V90.5652C548.208 91.7391 548.47 92.5652 548.996 93.0435Z"/>
<path d="M588.228 104.783C589.195 104.783 589.98 104.004 589.98 103.043V84.6928C589.98 84.0869 590.292 83.5143 590.842 83.2503C591.381 82.9911 591.947 82.7772 592.542 82.6087C593.461 82.3044 594.49 82.1522 595.629 82.1522C596.461 82.1522 597.249 82.2174 597.994 82.3478C598.726 82.469 599.44 82.6277 600.134 82.8239C600.24 82.8537 600.349 82.8696 600.458 82.8696C601.093 82.8696 601.607 82.3591 601.607 81.7294V69.8261C601.607 69.5217 601.497 69.2609 601.278 69.0435C601.147 68.913 600.906 68.7826 600.556 68.6522C600.205 68.5217 599.68 68.4565 598.979 68.4565C596.921 68.4565 595.279 69.087 594.052 70.3478C592.966 71.4664 592.12 73.0989 591.514 75.2453C591.418 75.5851 591.11 75.8261 590.754 75.8261C590.326 75.8261 589.98 75.4818 589.98 75.057V69.8261C589.98 69.3478 589.739 69.1087 589.257 69.1087H578.396C577.429 69.1087 576.644 69.8873 576.644 70.8478V104.065C576.644 104.543 576.885 104.783 577.367 104.783H588.228Z"/>
<path fill-rule="evenodd" clip-rule="evenodd" d="M638.295 81.8261V92.3913C638.295 92.9268 638.482 93.2772 638.855 93.4425C638.96 93.4893 639.069 93.5295 639.178 93.5672C639.3 93.6094 639.422 93.6304 639.544 93.6304H639.631C640.599 93.6304 641.383 94.4091 641.383 95.3696V104.065C641.383 104.543 641.142 104.783 640.66 104.783H636.259C634.113 104.783 632.142 104.348 630.347 103.478C628.788 102.705 627.594 101.587 626.763 100.124C626.573 99.7893 626.224 99.5652 625.837 99.5652C625.46 99.5652 625.118 99.7765 624.931 100.101C624 101.715 622.783 102.993 621.282 103.935C619.661 104.935 617.581 105.435 615.041 105.435C611.975 105.435 609.545 104.609 607.749 102.957C605.954 101.304 605.056 99.0652 605.056 96.2391V93.6957C605.056 90.6522 605.954 88.2609 607.749 86.5217C609.589 84.7826 612.172 83.913 615.501 83.913H624.697C625.205 83.913 625.617 83.5043 625.617 83C625.617 81.4783 625.201 80.4565 624.369 79.9348C623.581 79.3696 622.048 79.087 619.771 79.087C615.972 79.087 612.216 79.6361 608.503 80.7343C608.395 80.7661 608.284 80.7826 608.171 80.7826C607.539 80.7826 607.027 80.2739 607.027 79.6463V71.2609C607.027 70.9565 607.092 70.7391 607.224 70.6087C607.53 70.3043 608.362 69.9783 609.72 69.6304C611.121 69.2826 612.808 68.9783 614.778 68.7174C616.793 68.413 618.851 68.2609 620.953 68.2609C626.953 68.2609 631.332 69.3478 634.091 71.5217C636.894 73.6522 638.295 77.087 638.295 81.8261ZM619.442 96.0435C621.348 96.0435 623.127 95.6161 624.777 94.7612C625.312 94.4845 625.617 93.9194 625.617 93.3211V91.9783C625.617 91.0178 624.833 90.2391 623.865 90.2391H619.574C618.829 90.2391 618.26 90.4348 617.866 90.8261C617.515 91.2609 617.34 91.7826 617.34 92.3913V93.9565C617.34 95.3478 618.041 96.0435 619.442 96.0435Z"/>
<path d="M664.776 69.1087C663.958 69.1087 663.25 69.6696 663.068 70.4605C662.137 74.5177 661.277 78.3279 660.489 81.8913C659.711 85.5887 659.125 89.0962 658.73 92.4139C658.682 92.8093 658.346 93.1087 657.945 93.1087C657.503 93.1087 657.147 92.7472 657.154 92.3083C657.205 88.9664 657.069 85.6245 656.744 82.2826C656.438 78.6739 656.044 74.6522 655.562 70.2174C655.518 69.7391 655.43 69.4348 655.299 69.3043C655.168 69.1739 654.971 69.1087 654.708 69.1087H645.295C644.208 69.1087 643.383 70.0825 643.568 71.1467C644.447 76.2065 645.292 81.2663 646.102 86.3261C647.066 92.0652 648.029 97.587 648.993 102.891C649.143 103.562 649.309 104.041 649.491 104.328C649.548 104.417 649.623 104.493 649.711 104.552C649.938 104.706 650.18 104.783 650.438 104.783H662.158C662.955 104.783 663.651 104.249 663.852 103.484C664.192 102.194 664.494 101.039 664.758 100.022C665.109 98.6739 665.415 97.3478 665.678 96.0435C665.941 94.7391 666.204 93.3043 666.466 91.7391C666.743 90.2865 667.038 88.5325 667.35 86.4772C667.409 86.0907 667.743 85.8043 668.137 85.8043C668.535 85.8043 668.871 86.0965 668.924 86.4877C669.191 88.4532 669.423 90.1385 669.62 91.5435C669.882 93.0652 670.123 94.413 670.342 95.587C670.605 96.7174 670.868 97.8696 671.13 99.0435C671.393 100.174 671.7 101.478 672.05 102.957C672.238 103.59 672.425 104.047 672.613 104.329C672.671 104.417 672.746 104.493 672.834 104.552C673.061 104.706 673.303 104.783 673.561 104.783H685.485C686.338 104.783 687.067 104.172 687.212 103.338L689.984 87.3043C690.991 81.4783 691.976 75.6957 692.94 69.9565C692.983 69.3913 692.786 69.1087 692.349 69.1087H682.245C681.344 69.1087 680.589 69.7887 680.503 70.68C680.125 74.5767 679.782 78.2703 679.473 81.7609C679.189 85.3908 679.055 88.9084 679.072 92.3138C679.074 92.7513 678.719 93.1087 678.278 93.1087C677.874 93.1087 677.535 92.8065 677.489 92.4081C677.091 89.0194 676.482 85.5355 675.663 81.9565C674.831 78.1304 673.911 74.087 672.904 69.8261C672.773 69.3478 672.51 69.1087 672.116 69.1087H664.776Z"/>
</mask>
<path fill-rule="evenodd" clip-rule="evenodd" d="M377 48.7912C377 43.936 380.798 40 385.482 40H449.098C453.783 40 457.58 43.936 457.58 48.7912V111.209C457.58 116.064 453.783 120 449.098 120H385.482C380.798 120 377 116.064 377 111.209V48.7912ZM424.571 62.8801C424.571 64.8134 423.905 66.4539 422.574 67.8014C421.243 69.1489 419.622 69.8226 417.712 69.8226C415.744 69.8226 414.095 69.1489 412.764 67.8014C411.433 66.4539 410.767 64.8134 410.767 62.8801C410.767 60.9467 411.433 59.3063 412.764 57.9588C414.095 56.6113 415.744 55.9375 417.712 55.9375C419.622 55.9375 421.243 56.6113 422.574 57.9588C423.905 59.3063 424.571 60.9467 424.571 62.8801ZM410.68 87.2107C410.68 85.2774 411.346 83.6369 412.677 82.2894C414.066 80.8833 415.744 80.1803 417.712 80.1803C419.564 80.1803 421.185 80.8833 422.574 82.2894C423.963 83.6369 424.774 85.1602 425.005 86.8592C425.468 90.0229 424.889 93.1573 423.269 96.2624C421.706 99.3675 419.449 101.74 416.497 103.381C414.876 104.318 413.545 104.289 412.503 103.293C411.519 102.355 411.809 101.242 413.371 99.9534C414.24 99.309 414.963 98.4887 415.542 97.4928C416.121 96.4968 416.497 95.4715 416.671 94.4169C416.728 93.9482 416.526 93.7139 416.063 93.7139C414.905 93.6553 413.719 93.0108 412.503 91.7805C411.288 90.5502 410.68 89.0269 410.68 87.2107Z" fill="black"/>
<path d="M529.906 104.783C530.387 104.783 530.628 104.543 530.628 104.065V94.3261C530.628 93.3656 529.844 92.587 528.877 92.587H527.607C527.212 92.587 526.906 92.4783 526.687 92.2609C526.512 92.087 526.424 91.8261 526.424 91.4783V56.587C526.424 56.1087 526.183 55.8696 525.701 55.8696H514.644C513.676 55.8696 512.892 56.6482 512.892 57.6087V95.3913C512.892 98.5217 513.79 100.87 515.585 102.435C517.381 104 519.68 104.783 522.483 104.783H529.906Z" fill="black"/>
<path d="M507.242 94.2609C507.242 93.3004 506.458 92.5217 505.491 92.5217H500.87C499.381 92.5217 498.374 92.2609 497.849 91.7391C497.192 91.1304 496.863 90.1522 496.863 88.8043V83.0435C496.863 82.083 497.648 81.3043 498.615 81.3043H505.491C506.458 81.3043 507.242 80.5257 507.242 79.5652V69.8261C507.242 69.3478 507.002 69.1087 506.52 69.1087H498.615C497.648 69.1087 496.863 68.3301 496.863 67.3696V59.8478C496.863 59.3696 496.622 59.1304 496.141 59.1304H485.477C484.51 59.1304 483.725 59.9091 483.725 60.8696V67.3696C483.725 68.3301 482.941 69.1087 481.973 69.1087H480.353C479.386 69.1087 478.601 69.8873 478.601 70.8478V80.587C478.601 81.0652 478.842 81.3043 479.324 81.3043H481.973C482.941 81.3043 483.725 82.083 483.725 83.0435V89.7826C483.725 94.8261 485.061 98.587 487.732 101.065C490.404 103.543 494.28 104.783 499.36 104.783H506.52C507.002 104.783 507.242 104.543 507.242 104.065V94.2609Z" fill="black"/>
<path fill-rule="evenodd" clip-rule="evenodd" d="M545.711 68.4565C547.726 68.4565 549.456 68.9565 550.901 69.9565C552.262 70.8705 553.385 72.0568 554.27 73.5156C554.426 73.7713 554.701 73.9348 555.001 73.9348C555.458 73.9348 555.828 73.5675 555.828 73.1144V57.6087C555.828 56.6482 556.612 55.8696 557.58 55.8696H568.243C568.725 55.8696 568.966 56.1087 568.966 56.587V103.043C568.966 104.004 568.182 104.783 567.214 104.783H556.55C556.069 104.783 555.828 104.543 555.828 104.065V100.148C555.828 99.6821 555.447 99.3043 554.978 99.3043C554.689 99.3043 554.42 99.4511 554.259 99.6893C553.14 101.339 551.89 102.689 550.507 103.739C549.018 104.87 547.157 105.435 544.923 105.435C541.901 105.435 539.515 104.413 537.763 102.37C536.011 100.326 535.135 97.587 535.135 94.1522V80.4565C535.135 76.7174 536.033 73.7826 537.829 71.6522C539.668 69.5217 542.296 68.4565 545.711 68.4565ZM548.996 93.0435C549.478 93.5652 550.332 93.8261 551.558 93.8261C552.797 93.8261 553.886 93.6774 554.825 93.3801C555.457 93.18 555.828 92.5622 555.828 91.9034V81.5829C555.828 81.0014 555.542 80.4427 555.014 80.1911C554.6 79.9938 554.171 79.8431 553.726 79.7391C552.981 79.5217 552.259 79.413 551.558 79.413C549.324 79.413 548.208 80.5217 548.208 82.7391V90.5652C548.208 91.7391 548.47 92.5652 548.996 93.0435Z" fill="black"/>
<path d="M588.228 104.783C589.195 104.783 589.98 104.004 589.98 103.043V84.6928C589.98 84.0869 590.292 83.5143 590.842 83.2503C591.381 82.9911 591.947 82.7772 592.542 82.6087C593.461 82.3044 594.49 82.1522 595.629 82.1522C596.461 82.1522 597.249 82.2174 597.994 82.3478C598.726 82.469 599.44 82.6277 600.134 82.8239C600.24 82.8537 600.349 82.8696 600.458 82.8696C601.093 82.8696 601.607 82.3591 601.607 81.7294V69.8261C601.607 69.5217 601.497 69.2609 601.278 69.0435C601.147 68.913 600.906 68.7826 600.556 68.6522C600.205 68.5217 599.68 68.4565 598.979 68.4565C596.921 68.4565 595.279 69.087 594.052 70.3478C592.966 71.4664 592.12 73.0989 591.514 75.2453C591.418 75.5851 591.11 75.8261 590.754 75.8261C590.326 75.8261 589.98 75.4818 589.98 75.057V69.8261C589.98 69.3478 589.739 69.1087 589.257 69.1087H578.396C577.429 69.1087 576.644 69.8873 576.644 70.8478V104.065C576.644 104.543 576.885 104.783 577.367 104.783H588.228Z" fill="black"/>
<path fill-rule="evenodd" clip-rule="evenodd" d="M638.295 81.8261V92.3913C638.295 92.9268 638.482 93.2772 638.855 93.4425C638.96 93.4893 639.069 93.5295 639.178 93.5672C639.3 93.6094 639.422 93.6304 639.544 93.6304H639.631C640.599 93.6304 641.383 94.4091 641.383 95.3696V104.065C641.383 104.543 641.142 104.783 640.66 104.783H636.259C634.113 104.783 632.142 104.348 630.347 103.478C628.788 102.705 627.594 101.587 626.763 100.124C626.573 99.7893 626.224 99.5652 625.837 99.5652C625.46 99.5652 625.118 99.7765 624.931 100.101C624 101.715 622.783 102.993 621.282 103.935C619.661 104.935 617.581 105.435 615.041 105.435C611.975 105.435 609.545 104.609 607.749 102.957C605.954 101.304 605.056 99.0652 605.056 96.2391V93.6957C605.056 90.6522 605.954 88.2609 607.749 86.5217C609.589 84.7826 612.172 83.913 615.501 83.913H624.697C625.205 83.913 625.617 83.5043 625.617 83C625.617 81.4783 625.201 80.4565 624.369 79.9348C623.581 79.3696 622.048 79.087 619.771 79.087C615.972 79.087 612.216 79.6361 608.503 80.7343C608.395 80.7661 608.284 80.7826 608.171 80.7826C607.539 80.7826 607.027 80.2739 607.027 79.6463V71.2609C607.027 70.9565 607.092 70.7391 607.224 70.6087C607.53 70.3043 608.362 69.9783 609.72 69.6304C611.121 69.2826 612.808 68.9783 614.778 68.7174C616.793 68.413 618.851 68.2609 620.953 68.2609C626.953 68.2609 631.332 69.3478 634.091 71.5217C636.894 73.6522 638.295 77.087 638.295 81.8261ZM619.442 96.0435C621.348 96.0435 623.127 95.6161 624.777 94.7612C625.312 94.4845 625.617 93.9194 625.617 93.3211V91.9783C625.617 91.0178 624.833 90.2391 623.865 90.2391H619.574C618.829 90.2391 618.26 90.4348 617.866 90.8261C617.515 91.2609 617.34 91.7826 617.34 92.3913V93.9565C617.34 95.3478 618.041 96.0435 619.442 96.0435Z" fill="black"/>
<path d="M664.776 69.1087C663.958 69.1087 663.25 69.6696 663.068 70.4605C662.137 74.5177 661.277 78.3279 660.489 81.8913C659.711 85.5887 659.125 89.0962 658.73 92.4139C658.682 92.8093 658.346 93.1087 657.945 93.1087C657.503 93.1087 657.147 92.7472 657.154 92.3083C657.205 88.9664 657.069 85.6245 656.744 82.2826C656.438 78.6739 656.044 74.6522 655.562 70.2174C655.518 69.7391 655.43 69.4348 655.299 69.3043C655.168 69.1739 654.971 69.1087 654.708 69.1087H645.295C644.208 69.1087 643.383 70.0825 643.568 71.1467C644.447 76.2065 645.292 81.2663 646.102 86.3261C647.066 92.0652 648.029 97.587 648.993 102.891C649.143 103.562 649.309 104.041 649.491 104.328C649.548 104.417 649.623 104.493 649.711 104.552C649.938 104.706 650.18 104.783 650.438 104.783H662.158C662.955 104.783 663.651 104.249 663.852 103.484C664.192 102.194 664.494 101.039 664.758 100.022C665.109 98.6739 665.415 97.3478 665.678 96.0435C665.941 94.7391 666.204 93.3043 666.466 91.7391C666.743 90.2865 667.038 88.5325 667.35 86.4772C667.409 86.0907 667.743 85.8043 668.137 85.8043C668.535 85.8043 668.871 86.0965 668.924 86.4877C669.191 88.4532 669.423 90.1385 669.62 91.5435C669.882 93.0652 670.123 94.413 670.342 95.587C670.605 96.7174 670.868 97.8696 671.13 99.0435C671.393 100.174 671.7 101.478 672.05 102.957C672.238 103.59 672.425 104.047 672.613 104.329C672.671 104.417 672.746 104.493 672.834 104.552C673.061 104.706 673.303 104.783 673.561 104.783H685.485C686.338 104.783 687.067 104.172 687.212 103.338L689.984 87.3043C690.991 81.4783 691.976 75.6957 692.94 69.9565C692.983 69.3913 692.786 69.1087 692.349 69.1087H682.245C681.344 69.1087 680.589 69.7887 680.503 70.68C680.125 74.5767 679.782 78.2703 679.473 81.7609C679.189 85.3908 679.055 88.9084 679.072 92.3138C679.074 92.7513 678.719 93.1087 678.278 93.1087C677.874 93.1087 677.535 92.8065 677.489 92.4081C677.091 89.0194 676.482 85.5355 675.663 81.9565C674.831 78.1304 673.911 74.087 672.904 69.8261C672.773 69.3478 672.51 69.1087 672.116 69.1087H664.776Z" fill="black"/>
<path fill-rule="evenodd" clip-rule="evenodd" d="M377 48.7912C377 43.936 380.798 40 385.482 40H449.098C453.783 40 457.58 43.936 457.58 48.7912V111.209C457.58 116.064 453.783 120 449.098 120H385.482C380.798 120 377 116.064 377 111.209V48.7912ZM424.571 62.8801C424.571 64.8134 423.905 66.4539 422.574 67.8014C421.243 69.1489 419.622 69.8226 417.712 69.8226C415.744 69.8226 414.095 69.1489 412.764 67.8014C411.433 66.4539 410.767 64.8134 410.767 62.8801C410.767 60.9467 411.433 59.3063 412.764 57.9588C414.095 56.6113 415.744 55.9375 417.712 55.9375C419.622 55.9375 421.243 56.6113 422.574 57.9588C423.905 59.3063 424.571 60.9467 424.571 62.8801ZM410.68 87.2107C410.68 85.2774 411.346 83.6369 412.677 82.2894C414.066 80.8833 415.744 80.1803 417.712 80.1803C419.564 80.1803 421.185 80.8833 422.574 82.2894C423.963 83.6369 424.774 85.1602 425.005 86.8592C425.468 90.0229 424.889 93.1573 423.269 96.2624C421.706 99.3675 419.449 101.74 416.497 103.381C414.876 104.318 413.545 104.289 412.503 103.293C411.519 102.355 411.809 101.242 413.371 99.9534C414.24 99.309 414.963 98.4887 415.542 97.4928C416.121 96.4968 416.497 95.4715 416.671 94.4169C416.728 93.9482 416.526 93.7139 416.063 93.7139C414.905 93.6553 413.719 93.0108 412.503 91.7805C411.288 90.5502 410.68 89.0269 410.68 87.2107Z" stroke="white" stroke-width="26" mask="url(#path-1-outside-1_3296_32770)"/>
<path d="M529.906 104.783C530.387 104.783 530.628 104.543 530.628 104.065V94.3261C530.628 93.3656 529.844 92.587 528.877 92.587H527.607C527.212 92.587 526.906 92.4783 526.687 92.2609C526.512 92.087 526.424 91.8261 526.424 91.4783V56.587C526.424 56.1087 526.183 55.8696 525.701 55.8696H514.644C513.676 55.8696 512.892 56.6482 512.892 57.6087V95.3913C512.892 98.5217 513.79 100.87 515.585 102.435C517.381 104 519.68 104.783 522.483 104.783H529.906Z" stroke="white" stroke-width="26" mask="url(#path-1-outside-1_3296_32770)"/>
<path d="M507.242 94.2609C507.242 93.3004 506.458 92.5217 505.491 92.5217H500.87C499.381 92.5217 498.374 92.2609 497.849 91.7391C497.192 91.1304 496.863 90.1522 496.863 88.8043V83.0435C496.863 82.083 497.648 81.3043 498.615 81.3043H505.491C506.458 81.3043 507.242 80.5257 507.242 79.5652V69.8261C507.242 69.3478 507.002 69.1087 506.52 69.1087H498.615C497.648 69.1087 496.863 68.3301 496.863 67.3696V59.8478C496.863 59.3696 496.622 59.1304 496.141 59.1304H485.477C484.51 59.1304 483.725 59.9091 483.725 60.8696V67.3696C483.725 68.3301 482.941 69.1087 481.973 69.1087H480.353C479.386 69.1087 478.601 69.8873 478.601 70.8478V80.587C478.601 81.0652 478.842 81.3043 479.324 81.3043H481.973C482.941 81.3043 483.725 82.083 483.725 83.0435V89.7826C483.725 94.8261 485.061 98.587 487.732 101.065C490.404 103.543 494.28 104.783 499.36 104.783H506.52C507.002 104.783 507.242 104.543 507.242 104.065V94.2609Z" stroke="white" stroke-width="26" mask="url(#path-1-outside-1_3296_32770)"/>
<path fill-rule="evenodd" clip-rule="evenodd" d="M545.711 68.4565C547.726 68.4565 549.456 68.9565 550.901 69.9565C552.262 70.8705 553.385 72.0568 554.27 73.5156C554.426 73.7713 554.701 73.9348 555.001 73.9348C555.458 73.9348 555.828 73.5675 555.828 73.1144V57.6087C555.828 56.6482 556.612 55.8696 557.58 55.8696H568.243C568.725 55.8696 568.966 56.1087 568.966 56.587V103.043C568.966 104.004 568.182 104.783 567.214 104.783H556.55C556.069 104.783 555.828 104.543 555.828 104.065V100.148C555.828 99.6821 555.447 99.3043 554.978 99.3043C554.689 99.3043 554.42 99.4511 554.259 99.6893C553.14 101.339 551.89 102.689 550.507 103.739C549.018 104.87 547.157 105.435 544.923 105.435C541.901 105.435 539.515 104.413 537.763 102.37C536.011 100.326 535.135 97.587 535.135 94.1522V80.4565C535.135 76.7174 536.033 73.7826 537.829 71.6522C539.668 69.5217 542.296 68.4565 545.711 68.4565ZM548.996 93.0435C549.478 93.5652 550.332 93.8261 551.558 93.8261C552.797 93.8261 553.886 93.6774 554.825 93.3801C555.457 93.18 555.828 92.5622 555.828 91.9034V81.5829C555.828 81.0014 555.542 80.4427 555.014 80.1911C554.6 79.9938 554.171 79.8431 553.726 79.7391C552.981 79.5217 552.259 79.413 551.558 79.413C549.324 79.413 548.208 80.5217 548.208 82.7391V90.5652C548.208 91.7391 548.47 92.5652 548.996 93.0435Z" stroke="white" stroke-width="26" mask="url(#path-1-outside-1_3296_32770)"/>
<path d="M588.228 104.783C589.195 104.783 589.98 104.004 589.98 103.043V84.6928C589.98 84.0869 590.292 83.5143 590.842 83.2503C591.381 82.9911 591.947 82.7772 592.542 82.6087C593.461 82.3044 594.49 82.1522 595.629 82.1522C596.461 82.1522 597.249 82.2174 597.994 82.3478C598.726 82.469 599.44 82.6277 600.134 82.8239C600.24 82.8537 600.349 82.8696 600.458 82.8696C601.093 82.8696 601.607 82.3591 601.607 81.7294V69.8261C601.607 69.5217 601.497 69.2609 601.278 69.0435C601.147 68.913 600.906 68.7826 600.556 68.6522C600.205 68.5217 599.68 68.4565 598.979 68.4565C596.921 68.4565 595.279 69.087 594.052 70.3478C592.966 71.4664 592.12 73.0989 591.514 75.2453C591.418 75.5851 591.11 75.8261 590.754 75.8261C590.326 75.8261 589.98 75.4818 589.98 75.057V69.8261C589.98 69.3478 589.739 69.1087 589.257 69.1087H578.396C577.429 69.1087 576.644 69.8873 576.644 70.8478V104.065C576.644 104.543 576.885 104.783 577.367 104.783H588.228Z" stroke="white" stroke-width="26" mask="url(#path-1-outside-1_3296_32770)"/>
<path fill-rule="evenodd" clip-rule="evenodd" d="M638.295 81.8261V92.3913C638.295 92.9268 638.482 93.2772 638.855 93.4425C638.96 93.4893 639.069 93.5295 639.178 93.5672C639.3 93.6094 639.422 93.6304 639.544 93.6304H639.631C640.599 93.6304 641.383 94.4091 641.383 95.3696V104.065C641.383 104.543 641.142 104.783 640.66 104.783H636.259C634.113 104.783 632.142 104.348 630.347 103.478C628.788 102.705 627.594 101.587 626.763 100.124C626.573 99.7893 626.224 99.5652 625.837 99.5652C625.46 99.5652 625.118 99.7765 624.931 100.101C624 101.715 622.783 102.993 621.282 103.935C619.661 104.935 617.581 105.435 615.041 105.435C611.975 105.435 609.545 104.609 607.749 102.957C605.954 101.304 605.056 99.0652 605.056 96.2391V93.6957C605.056 90.6522 605.954 88.2609 607.749 86.5217C609.589 84.7826 612.172 83.913 615.501 83.913H624.697C625.205 83.913 625.617 83.5043 625.617 83C625.617 81.4783 625.201 80.4565 624.369 79.9348C623.581 79.3696 622.048 79.087 619.771 79.087C615.972 79.087 612.216 79.6361 608.503 80.7343C608.395 80.7661 608.284 80.7826 608.171 80.7826C607.539 80.7826 607.027 80.2739 607.027 79.6463V71.2609C607.027 70.9565 607.092 70.7391 607.224 70.6087C607.53 70.3043 608.362 69.9783 609.72 69.6304C611.121 69.2826 612.808 68.9783 614.778 68.7174C616.793 68.413 618.851 68.2609 620.953 68.2609C626.953 68.2609 631.332 69.3478 634.091 71.5217C636.894 73.6522 638.295 77.087 638.295 81.8261ZM619.442 96.0435C621.348 96.0435 623.127 95.6161 624.777 94.7612C625.312 94.4845 625.617 93.9194 625.617 93.3211V91.9783C625.617 91.0178 624.833 90.2391 623.865 90.2391H619.574C618.829 90.2391 618.26 90.4348 617.866 90.8261C617.515 91.2609 617.34 91.7826 617.34 92.3913V93.9565C617.34 95.3478 618.041 96.0435 619.442 96.0435Z" stroke="white" stroke-width="26" mask="url(#path-1-outside-1_3296_32770)"/>
<path d="M664.776 69.1087C663.958 69.1087 663.25 69.6696 663.068 70.4605C662.137 74.5177 661.277 78.3279 660.489 81.8913C659.711 85.5887 659.125 89.0962 658.73 92.4139C658.682 92.8093 658.346 93.1087 657.945 93.1087C657.503 93.1087 657.147 92.7472 657.154 92.3083C657.205 88.9664 657.069 85.6245 656.744 82.2826C656.438 78.6739 656.044 74.6522 655.562 70.2174C655.518 69.7391 655.43 69.4348 655.299 69.3043C655.168 69.1739 654.971 69.1087 654.708 69.1087H645.295C644.208 69.1087 643.383 70.0825 643.568 71.1467C644.447 76.2065 645.292 81.2663 646.102 86.3261C647.066 92.0652 648.029 97.587 648.993 102.891C649.143 103.562 649.309 104.041 649.491 104.328C649.548 104.417 649.623 104.493 649.711 104.552C649.938 104.706 650.18 104.783 650.438 104.783H662.158C662.955 104.783 663.651 104.249 663.852 103.484C664.192 102.194 664.494 101.039 664.758 100.022C665.109 98.6739 665.415 97.3478 665.678 96.0435C665.941 94.7391 666.204 93.3043 666.466 91.7391C666.743 90.2865 667.038 88.5325 667.35 86.4772C667.409 86.0907 667.743 85.8043 668.137 85.8043C668.535 85.8043 668.871 86.0965 668.924 86.4877C669.191 88.4532 669.423 90.1385 669.62 91.5435C669.882 93.0652 670.123 94.413 670.342 95.587C670.605 96.7174 670.868 97.8696 671.13 99.0435C671.393 100.174 671.7 101.478 672.05 102.957C672.238 103.59 672.425 104.047 672.613 104.329C672.671 104.417 672.746 104.493 672.834 104.552C673.061 104.706 673.303 104.783 673.561 104.783H685.485C686.338 104.783 687.067 104.172 687.212 103.338L689.984 87.3043C690.991 81.4783 691.976 75.6957 692.94 69.9565C692.983 69.3913 692.786 69.1087 692.349 69.1087H682.245C681.344 69.1087 680.589 69.7887 680.503 70.68C680.125 74.5767 679.782 78.2703 679.473 81.7609C679.189 85.3908 679.055 88.9084 679.072 92.3138C679.074 92.7513 678.719 93.1087 678.278 93.1087C677.874 93.1087 677.535 92.8065 677.489 92.4081C677.091 89.0194 676.482 85.5355 675.663 81.9565C674.831 78.1304 673.911 74.087 672.904 69.8261C672.773 69.3478 672.51 69.1087 672.116 69.1087H664.776Z" stroke="white" stroke-width="26" mask="url(#path-1-outside-1_3296_32770)"/>
</svg>
