<svg width="883" height="231" viewBox="0 0 883 231" fill="none" xmlns="http://www.w3.org/2000/svg">
<path fill-rule="evenodd" clip-rule="evenodd" d="M694.077 109.68L678.609 107.934C669.544 106.936 667.3 104.689 667.3 101.612C667.3 98.2027 671.96 95.1256 681.019 95.1256C689.752 95.1256 694.327 98.3712 695.159 103.278H711.789C710.941 89.2211 699.142 80.4922 681.936 80.4922C661.477 80.4922 651.165 88.6393 651.165 103.024C651.165 114.75 657.985 120.242 672.125 121.738L687.838 123.399C693.826 124.065 696.572 126.395 696.572 129.388C696.572 132.798 692.578 135.875 682.933 135.875C671.789 135.875 667.3 133.046 666.553 127.39H650.254C651 142.694 660.976 150.508 682.352 150.508C701.893 150.508 712.786 141.944 712.786 129.055C712.786 117.827 706.303 111.092 694.077 109.68ZM333.755 135.373C342.821 135.373 348.144 131.883 348.144 123.234V82.0726H365.104V125.148C365.104 144.355 348.06 150.343 333.755 150.343C319.37 150.343 302.241 144.355 302.241 125.148V82.0726H319.206V123.234C319.206 131.714 324.942 135.373 333.755 135.373ZM100.837 148.852L160.409 111.795H191.312C191.549 111.795 191.784 111.842 192.003 111.933C192.222 112.024 192.421 112.157 192.589 112.325C192.757 112.493 192.889 112.692 192.979 112.912C193.07 113.131 193.116 113.366 193.116 113.603C193.14 113.912 193.073 114.22 192.923 114.49C192.773 114.759 192.547 114.979 192.273 115.121L163.014 132.663C161.113 133.801 160.447 136.085 160.447 137.796L160.417 148.852H197.6V84.6015C197.601 84.2933 197.539 83.9883 197.419 83.7047C197.299 83.421 197.122 83.1645 196.9 82.9513C196.678 82.7375 196.415 82.5711 196.126 82.4623C195.838 82.3536 195.531 82.304 195.224 82.3173H159.743L100.314 119.213V148.852H100.837ZM589.214 148.847H642.768V134.458H606.18V122.404H635.617V107.93H606.18V96.7065H642.768V82.3216H589.214V148.847ZM227.066 148.847L252.595 82.3216H274.234L300.074 148.847H281.951L277.568 136.372H249.067L244.612 148.847H227.066ZM263.435 96.1584L254.116 122.235L272.598 122.244L263.435 96.1584ZM372.839 96.7065H394.297V148.847H411.261V96.7065H432.63V82.3216H372.839V96.7065ZM782.805 82.3216H762.597L738.401 109.347V82.3216H721.435L721.52 148.847H738.401V123.567L761.349 148.847H782.805L751.869 115.997L782.805 82.3216ZM518.197 82.3216H549.298C573.417 82.3216 579.735 91.7159 579.735 115.083C579.735 139.95 573.168 148.847 549.298 148.847H518.197V82.3216ZM535.131 134.467H548.617C558.862 134.467 562.436 129.219 562.419 115.083C562.419 99.6188 559.262 96.7065 548.617 96.7065H535.131V134.467ZM435.374 115.416C435.374 95.3746 447.929 80.4922 472.131 80.4922C496.411 80.4922 508.969 95.3746 508.969 115.416C508.969 135.542 496.411 150.508 472.131 150.508C447.929 150.508 435.374 135.542 435.374 115.416ZM452.671 115.416C452.671 127.891 459.575 135.542 472.131 135.542C484.771 135.542 491.59 127.891 491.59 115.416C491.59 103.193 484.775 95.4589 472.131 95.4589C459.575 95.4589 452.671 103.193 452.671 115.416Z" fill="black"/>
</svg>
