<svg width="883" height="400" viewBox="0 0 883 400" fill="none" xmlns="http://www.w3.org/2000/svg">
<rect width="882.491" height="400" transform="translate(0.314453)" fill="white"/>
<path fill-rule="evenodd" clip-rule="evenodd" d="M694.077 194.18L678.609 192.434C669.544 191.436 667.3 189.189 667.3 186.112C667.3 182.703 671.96 179.626 681.019 179.626C689.752 179.626 694.327 182.871 695.159 187.778H711.789C710.941 173.721 699.142 164.992 681.936 164.992C661.477 164.992 651.165 173.139 651.165 187.524C651.165 199.25 657.985 204.742 672.125 206.238L687.838 207.899C693.826 208.565 696.572 210.895 696.572 213.888C696.572 217.298 692.578 220.375 682.933 220.375C671.789 220.375 667.3 217.546 666.553 211.89H650.254C651 227.194 660.976 235.008 682.352 235.008C701.893 235.008 712.786 226.444 712.786 213.555C712.786 202.327 706.303 195.592 694.077 194.18ZM333.755 219.873C342.821 219.873 348.144 216.383 348.144 207.734V166.573H365.104V209.648C365.104 228.855 348.06 234.843 333.755 234.843C319.37 234.843 302.241 228.855 302.241 209.648V166.573H319.206V207.734C319.206 216.214 324.942 219.873 333.755 219.873ZM100.837 233.352L160.409 196.295H191.312C191.549 196.295 191.784 196.342 192.003 196.433C192.222 196.524 192.421 196.657 192.589 196.825C192.757 196.993 192.889 197.192 192.979 197.412C193.07 197.631 193.116 197.866 193.116 198.103C193.14 198.412 193.073 198.72 192.923 198.99C192.773 199.259 192.547 199.479 192.273 199.621L163.014 217.163C161.113 218.301 160.447 220.585 160.447 222.296L160.417 233.352H197.6V169.101C197.601 168.793 197.539 168.488 197.419 168.205C197.299 167.921 197.122 167.665 196.9 167.451C196.678 167.237 196.415 167.071 196.126 166.962C195.838 166.854 195.531 166.804 195.224 166.817H159.743L100.314 203.713V233.352H100.837ZM589.214 233.347H642.768V218.958H606.18V206.904H635.617V192.43H606.18V181.207H642.768V166.822H589.214V233.347ZM227.066 233.347L252.595 166.822H274.234L300.074 233.347H281.951L277.568 220.872H249.067L244.612 233.347H227.066ZM263.435 180.658L254.116 206.735L272.598 206.744L263.435 180.658ZM372.839 181.207H394.297V233.347H411.261V181.207H432.63V166.822H372.839V181.207ZM782.805 166.822H762.597L738.401 193.847V166.822H721.435L721.52 233.347H738.401V208.067L761.349 233.347H782.805L751.869 200.497L782.805 166.822ZM518.197 166.822H549.298C573.417 166.822 579.735 176.216 579.735 199.583C579.735 224.45 573.168 233.347 549.298 233.347H518.197V166.822ZM535.131 218.967H548.617C558.862 218.967 562.436 213.719 562.419 199.583C562.419 184.119 559.262 181.207 548.617 181.207H535.131V218.967ZM435.374 199.916C435.374 179.875 447.929 164.992 472.131 164.992C496.411 164.992 508.969 179.875 508.969 199.916C508.969 220.042 496.411 235.008 472.131 235.008C447.929 235.008 435.374 220.042 435.374 199.916ZM452.671 199.916C452.671 212.391 459.575 220.042 472.131 220.042C484.771 220.042 491.59 212.391 491.59 199.916C491.59 187.693 484.775 179.959 472.131 179.959C459.575 179.959 452.671 187.693 452.671 199.916Z" fill="black"/>
</svg>
