<svg width="362" height="231" viewBox="0 0 362 231" fill="none" xmlns="http://www.w3.org/2000/svg">
<g clip-path="url(#clip0_658_22969)">
<path fill-rule="evenodd" clip-rule="evenodd" d="M252.132 34.8682H100.188V174.793L100.452 174.529H100.54V174.441L100.892 174.089L101.068 173.825C101.354 173.519 101.601 173.184 101.851 172.848C102.141 172.456 102.434 172.061 102.791 171.705C104.308 169.84 105.756 167.972 107.227 166.076C107.427 165.818 107.627 165.559 107.829 165.3C112.555 159.335 117.152 153.326 121.702 147.228C123.618 144.548 125.758 141.84 127.929 139.091C132.916 132.778 138.068 126.257 141.054 119.393H153.38C153.565 123.971 154.552 126.991 155.704 130.514C156.197 132.021 156.72 133.621 157.223 135.474C157.705 137.002 158.169 138.529 158.631 140.052C159.186 141.878 159.738 143.697 160.317 145.502L160.669 146.606L161.201 148.593L161.465 149.345L161.641 150.096L161.817 150.627L161.993 151.071L162.081 151.335V151.423L166.279 146.121C165.416 143.947 164.511 140.869 163.508 137.454C161.739 131.433 159.663 124.364 156.956 119.346H171.405C171.314 121.555 171.865 123.328 172.449 125.205C172.718 126.07 172.993 126.956 173.216 127.918C173.585 129.141 173.92 130.381 174.255 131.619C174.681 133.199 175.108 134.777 175.603 136.314C176.543 135.059 177.528 133.817 178.514 132.574C179.473 131.365 180.431 130.156 181.348 128.937C181.932 128.108 182.618 127.307 183.309 126.498C185.126 124.374 186.987 122.198 187.181 119.349H199.243C194.492 123.775 189.88 129.835 185.462 135.642C183.307 138.474 181.197 141.246 179.14 143.738C179.538 144.953 179.879 146.197 180.219 147.438C180.484 148.406 180.749 149.373 181.04 150.322C181.787 149.352 182.535 148.381 183.284 147.41C186.389 143.386 189.502 139.351 192.527 135.257C193.456 133.967 194.477 132.641 195.521 131.285C198.446 127.485 201.549 123.454 203.306 119.352H215.101V119.883L215.189 121.254L215.453 122.713L215.63 123.817L223.192 149.389C224.322 152.503 225.324 155.703 226.327 158.908C227.088 161.34 227.85 163.775 228.67 166.177C228.952 166.953 229.268 167.914 229.615 168.969C230.791 172.543 232.321 177.195 234.06 179.343H218.906C218.906 176.064 217.943 172.989 216.977 169.904C216.668 168.916 216.358 167.926 216.079 166.929C215.66 165.689 215.29 164.441 214.919 163.192C214.431 161.547 213.943 159.9 213.34 158.269L213.076 157.165L212.812 156.237L212.548 155.486L212.372 154.734L212.196 154.291L212.108 154.027V153.939H187.983L184.14 159.328L184.228 159.416L184.316 159.86L184.58 160.611L184.845 161.539L185.197 162.643C185.474 163.491 185.745 164.354 186.017 165.22C186.438 166.562 186.861 167.911 187.316 169.227C187.436 169.605 187.546 169.956 187.649 170.285C188.923 174.336 189.109 174.931 191.602 179.346H177.065C176.785 176.576 176.247 174.788 175.488 172.262C175.412 172.01 175.334 171.751 175.254 171.482C172.867 174.045 171.144 176.076 169.688 179.346H158.377L158.375 179.333C157.801 175.984 157.536 174.437 156.258 171.13C155.616 172.008 155.074 172.709 154.592 173.333C153.183 175.155 152.283 176.32 150.868 179.346H139.645C143.557 175.782 146.87 171.431 150.119 167.164C151.018 165.984 151.911 164.81 152.811 163.662L149.984 153.986H126.036V154.074L125.504 154.605L125.152 155.137L124.709 155.75L124.177 156.501L123.558 157.429L122.806 158.269C121.773 159.698 120.695 161.095 119.617 162.491C118.53 163.9 117.443 165.309 116.401 166.753C115.697 167.667 114.966 168.586 114.229 169.512C111.725 172.66 109.152 175.896 107.344 179.343H100.188V196.132H261.188V34.8688L261.188 34.8682H261.188V34.8688L199.995 114.485H190.672L252.132 34.8682ZM196.252 143.352C199.495 139.327 202.917 135.079 205.297 130.833L205.52 130.613V130.701L205.608 130.877V133.263L205.872 135.075L206.048 135.826L206.312 136.754L206.665 137.858L207.017 139.137C207.856 141.7 208.696 144.351 209.491 146.914H193.41C194.319 145.751 195.277 144.561 196.252 143.352ZM137.346 139.669C139.51 137.018 141.897 133.836 143.576 130.833L143.755 130.525L143.843 130.613V131.628L143.931 133.175L144.195 134.987L144.371 135.738L144.635 136.666L144.988 137.77L145.34 139.049C145.567 139.767 145.797 140.506 146.03 141.254C146.614 143.129 147.214 145.056 147.815 146.826H131.733V146.738L131.998 146.474L132.262 146.121L132.705 145.678L133.148 145.059L133.68 144.307C134.159 143.687 134.659 143.073 135.161 142.458C135.909 141.541 136.66 140.621 137.346 139.669ZM172.16 162.287L167.786 168.385L165.047 159.813L169.333 154.247C170.172 156.942 171.1 159.637 172.16 162.287Z" fill="black"/>
</g>
<defs>
<clipPath id="clip0_658_22969">
<rect width="161" height="161" fill="white" transform="translate(100.188 35)"/>
</clipPath>
</defs>
</svg>
