<svg width="362" height="400" viewBox="0 0 362 400" fill="none" xmlns="http://www.w3.org/2000/svg">
<rect width="361" height="400" transform="translate(0.1875)" fill="white"/>
<g clip-path="url(#clip0_658_22969)">
<path d="M261.188 119.368H100.188V280.632H261.188V119.368Z" fill="black"/>
<path d="M199.995 198.985L261.188 119.368H252.132L190.672 198.985H199.995Z" fill="white"/>
<path d="M223.192 233.889C225.18 239.366 226.771 245.111 228.67 250.677C229.906 254.08 231.808 261.06 234.06 263.843H218.906C218.906 259.513 217.227 255.539 216.079 251.429C215.108 248.558 214.4 245.64 213.34 242.769L213.076 241.665L212.812 240.737L212.548 239.986L212.372 239.234L212.196 238.791L212.108 238.527V238.439H187.983L184.14 243.828L184.228 243.916L184.316 244.36L184.58 245.111L184.845 246.039L185.197 247.143C185.904 249.306 186.568 251.561 187.316 253.727C188.907 258.765 188.907 259.073 191.602 263.846H177.065C176.757 260.799 176.137 258.941 175.254 255.982C172.867 258.545 171.144 260.576 169.688 263.846H158.377C157.802 260.488 157.537 258.941 156.258 255.63C153.739 259.076 152.767 259.784 150.868 263.846H139.645C144.639 259.296 148.657 253.463 152.811 248.162L149.984 238.486H126.036V238.574L125.504 239.105L125.152 239.637L124.709 240.25L124.177 241.001L123.558 241.929L122.806 242.769C120.731 245.64 118.476 248.379 116.401 251.253C113.306 255.274 109.684 259.381 107.344 263.843H100.188V259.293L100.452 259.029H100.54V258.941L100.892 258.589L101.068 258.325C101.687 257.661 102.128 256.866 102.791 256.205C104.514 254.086 106.15 251.963 107.829 249.8C112.555 243.835 117.152 237.825 121.702 231.728C128.02 222.892 136.768 213.745 141.054 203.893H153.38C153.645 210.43 155.544 213.789 157.223 219.974C158.283 223.332 159.254 226.691 160.317 230.002L160.669 231.106L161.201 233.093L161.465 233.845L161.641 234.596L161.817 235.127L161.993 235.571L162.081 235.835V235.923L166.279 230.621C163.893 224.612 161.198 211.71 156.956 203.846H171.405C171.273 207.072 172.509 209.367 173.216 212.418C174.056 215.201 174.719 218.072 175.603 220.814C177.458 218.339 179.489 215.908 181.348 213.437C183.467 210.433 186.914 207.783 187.181 203.849H199.243C192.175 210.433 185.414 220.637 179.14 228.238C179.848 230.401 180.376 232.656 181.04 234.822C184.882 229.829 188.772 224.839 192.527 219.757C196.061 214.852 200.923 209.418 203.306 203.852H215.101V204.383L215.189 205.754L215.453 207.213L215.63 208.317L223.192 233.889ZM205.297 215.333C202.202 220.854 197.344 226.379 193.41 231.414H209.491C208.696 228.851 207.856 226.2 207.017 223.637L206.665 222.358L206.312 221.254L206.048 220.326L205.872 219.575L205.608 217.763V215.377L205.52 215.201V215.113L205.297 215.333ZM143.576 215.333C141.897 218.336 139.51 221.518 137.346 224.169C136.199 225.76 134.872 227.263 133.68 228.807L133.148 229.559L132.705 230.178L132.262 230.621L131.998 230.974L131.733 231.238V231.326H147.815C146.975 228.851 146.135 226.068 145.34 223.549L144.988 222.27L144.635 221.166L144.371 220.238L144.195 219.487L143.931 217.675L143.843 216.128V215.113L143.755 215.025L143.576 215.333ZM167.786 252.885L172.16 246.787C171.1 244.137 170.172 241.442 169.333 238.747L165.047 244.313L167.786 252.885Z" fill="white"/>
</g>
<defs>
<clipPath id="clip0_658_22969">
<rect width="161" height="161" fill="white" transform="translate(100.188 119.5)"/>
</clipPath>
</defs>
</svg>
