<svg width="361" height="400" viewBox="0 0 361 400" fill="none" xmlns="http://www.w3.org/2000/svg">
<rect width="360" height="400" transform="translate(0.453125)" fill="white"/>
<g clip-path="url(#clip0_659_23099)">
<path d="M180.453 120C159.236 120 138.887 128.429 123.885 143.431C108.882 158.434 100.453 178.783 100.453 200C100.453 221.217 108.882 241.566 123.885 256.569C138.887 271.571 159.236 280 180.453 280C201.67 280 222.019 271.571 237.022 256.569C252.025 241.566 260.453 221.217 260.453 200C260.453 178.783 252.025 158.434 237.022 143.431C222.019 128.429 201.67 120 180.453 120ZM146.04 150.107C150.993 150.107 155.226 152.533 158.733 157.38C162.24 162.233 163.98 168.06 163.98 174.88V219.947C163.98 223.54 165.78 225.34 169.373 225.34H197.2C200.786 225.34 202.586 223.54 202.586 219.947V198.58C202.586 195.113 200.786 193.327 197.2 193.2H191.82C184.88 192.96 179 191.147 174.22 187.76C169.426 184.38 167.04 180.207 167.04 175.247H197.2C203.666 175.247 209.173 177.527 213.72 182.073C215.925 184.213 217.668 186.781 218.842 189.62C220.016 192.459 220.596 195.508 220.546 198.58V219.947C220.546 226.413 218.266 231.927 213.72 236.473C209.173 241.02 203.66 243.28 197.2 243.28H169.373C162.906 243.28 157.406 241.02 152.86 236.473C150.654 234.331 148.911 231.759 147.738 228.916C146.565 226.074 145.987 223.021 146.04 219.947V150.107Z" fill="black"/>
</g>
<defs>
<clipPath id="clip0_659_23099">
<rect width="160" height="160" fill="white" transform="translate(100.453 120)"/>
</clipPath>
</defs>
</svg>
