<svg width="361" height="231" viewBox="0 0 361 231" fill="none" xmlns="http://www.w3.org/2000/svg">
<g clip-path="url(#clip0_659_23099)">
<path d="M180.453 35.5C159.236 35.5 138.887 43.9285 123.885 58.9315C108.882 73.9344 100.453 94.2827 100.453 115.5C100.453 136.717 108.882 157.066 123.885 172.069C138.887 187.071 159.236 195.5 180.453 195.5C201.67 195.5 222.019 187.071 237.022 172.069C252.025 157.066 260.453 136.717 260.453 115.5C260.453 94.2827 252.025 73.9344 237.022 58.9315C222.019 43.9285 201.67 35.5 180.453 35.5ZM146.04 65.6067C150.993 65.6067 155.226 68.0333 158.733 72.88C162.24 77.7333 163.98 83.56 163.98 90.38V135.447C163.98 139.04 165.78 140.84 169.373 140.84H197.2C200.786 140.84 202.586 139.04 202.586 135.447V114.08C202.586 110.613 200.786 108.827 197.2 108.7H191.82C184.88 108.46 179 106.647 174.22 103.26C169.426 99.88 167.04 95.7067 167.04 90.7467H197.2C203.666 90.7467 209.173 93.0267 213.72 97.5733C215.925 99.7127 217.668 102.281 218.842 105.12C220.016 107.959 220.596 111.008 220.546 114.08V135.447C220.546 141.913 218.266 147.427 213.72 151.973C209.173 156.52 203.66 158.78 197.2 158.78H169.373C162.906 158.78 157.406 156.52 152.86 151.973C150.654 149.831 148.911 147.259 147.738 144.416C146.565 141.574 145.987 138.521 146.04 135.447V65.6067Z" fill="black"/>
</g>
<defs>
<clipPath id="clip0_659_23099">
<rect width="160" height="160" fill="white" transform="translate(100.453 35.5)"/>
</clipPath>
</defs>
</svg>
