<svg width="881" height="231" viewBox="0 0 881 231" fill="none" xmlns="http://www.w3.org/2000/svg">
<g clip-path="url(#clip0_892_101)">
<path d="M167.047 49.0547C149.361 49.0547 132.398 56.0552 119.892 68.5161C107.385 80.977 100.359 97.8777 100.359 115.5C100.359 133.122 107.385 150.023 119.892 162.484C132.398 174.945 149.361 181.945 167.047 181.945C184.734 181.945 201.696 174.945 214.203 162.484C226.709 150.023 233.735 133.122 233.735 115.5C233.735 97.8777 226.709 80.977 214.203 68.5161C201.696 56.0552 184.734 49.0547 167.047 49.0547ZM138.36 74.0603C142.489 74.0603 146.018 76.0758 148.941 80.1013C151.865 84.1323 153.315 88.9717 153.315 94.6362V132.067C153.315 135.052 154.816 136.547 157.811 136.547H181.007C183.997 136.547 185.498 135.052 185.498 132.067V114.321C185.498 111.441 183.997 109.957 181.007 109.852H176.522C170.737 109.653 165.836 108.147 161.851 105.334C157.855 102.527 155.866 99.0604 155.866 94.9408H181.007C186.398 94.9408 190.988 96.8344 194.778 100.611C196.616 102.388 198.069 104.521 199.048 106.879C200.027 109.237 200.51 111.769 200.469 114.321V132.067C200.469 137.438 198.568 142.017 194.778 145.794C190.988 149.57 186.392 151.447 181.007 151.447H157.811C152.42 151.447 147.836 149.57 144.045 145.794C142.207 144.014 140.754 141.878 139.776 139.517C138.798 137.156 138.317 134.621 138.36 132.067V74.0603Z" fill="black"/>
</g>
<path d="M289.296 140.029C286.495 140.029 283.693 139.921 280.891 139.706C278.138 139.544 275.262 139.113 272.264 138.413V84.1038C274.623 83.6189 277.204 83.2687 280.006 83.0532C282.808 82.7838 285.413 82.6491 287.822 82.6491C291.066 82.6491 294.04 82.9185 296.744 83.4573C299.497 83.9422 301.856 84.8042 303.822 86.0434C305.789 87.2826 307.312 88.9259 308.394 90.9732C309.525 92.9667 310.09 95.4451 310.09 98.4084C310.09 102.88 308.124 106.409 304.191 108.995C307.435 110.342 309.647 112.174 310.827 114.491C312.007 116.808 312.597 119.421 312.597 122.33C312.597 128.203 310.631 132.621 306.698 135.584C302.815 138.547 297.014 140.029 289.296 140.029ZM283.471 114.895V129.361C284.307 129.469 285.216 129.55 286.2 129.604C287.183 129.657 288.264 129.684 289.444 129.684C292.885 129.684 295.662 129.146 297.776 128.068C299.89 126.99 300.947 124.997 300.947 122.088C300.947 119.501 300.062 117.67 298.292 116.592C296.523 115.461 293.991 114.895 290.697 114.895H283.471ZM283.471 105.278H289.075C292.615 105.278 295.146 104.793 296.67 103.823C298.194 102.799 298.956 101.183 298.956 98.9741C298.956 96.7112 298.169 95.1218 296.596 94.2059C295.023 93.29 292.713 92.832 289.665 92.832C288.682 92.832 287.625 92.859 286.495 92.9128C285.364 92.9128 284.356 92.9667 283.471 93.0745V105.278Z" fill="black"/>
<path d="M332.054 139.302H321.067V96.792H332.054V139.302ZM333.086 84.5079C333.086 86.7169 332.422 88.4679 331.095 89.761C329.817 91.0002 328.293 91.6198 326.524 91.6198C324.754 91.6198 323.205 91.0002 321.878 89.761C320.6 88.4679 319.961 86.7169 319.961 84.5079C319.961 82.2989 320.6 80.5748 321.878 79.3357C323.205 78.0426 324.754 77.3961 326.524 77.3961C328.293 77.3961 329.817 78.0426 331.095 79.3357C332.422 80.5748 333.086 82.2989 333.086 84.5079Z" fill="black"/>
<path d="M351.746 116.673C351.746 123.408 354.228 126.775 359.193 126.775C360.323 126.775 361.38 126.613 362.363 126.29C363.347 125.967 364.182 125.59 364.87 125.159V105.924C364.33 105.817 363.691 105.736 362.953 105.682C362.216 105.574 361.356 105.52 360.373 105.52C357.472 105.52 355.309 106.571 353.884 108.672C352.458 110.773 351.746 113.44 351.746 116.673ZM375.857 133.968C375.857 140.918 374.235 146.063 370.99 149.404C367.795 152.798 362.83 154.495 356.096 154.495C353.736 154.495 351.377 154.253 349.017 153.768C346.658 153.337 344.47 152.744 342.455 151.99L344.372 141.888C346.093 142.642 347.887 143.235 349.755 143.666C351.672 144.097 353.835 144.312 356.243 144.312C359.389 144.312 361.601 143.558 362.88 142.049C364.207 140.541 364.87 138.601 364.87 136.23V134.695C363.691 135.288 362.462 135.746 361.184 136.069C359.955 136.338 358.603 136.473 357.128 136.473C351.77 136.473 347.666 134.749 344.814 131.301C341.963 127.799 340.538 122.923 340.538 116.673C340.538 113.548 340.98 110.719 341.865 108.187C342.75 105.601 344.028 103.392 345.699 101.56C347.42 99.7284 349.509 98.3275 351.967 97.3577C354.425 96.3341 357.202 95.8222 360.299 95.8222C361.626 95.8222 362.978 95.903 364.354 96.0647C365.78 96.1724 367.181 96.3341 368.557 96.5496C369.934 96.7651 371.236 97.0345 372.465 97.3577C373.743 97.6271 374.874 97.9235 375.857 98.2467V133.968Z" fill="black"/>
<path d="M403.932 140.029C401.13 140.029 398.328 139.921 395.526 139.706C392.773 139.544 389.897 139.113 386.899 138.413V84.1038C389.258 83.6189 391.839 83.2687 394.641 83.0532C397.443 82.7838 400.048 82.6491 402.457 82.6491C405.701 82.6491 408.675 82.9185 411.379 83.4573C414.132 83.9422 416.491 84.8042 418.457 86.0434C420.424 87.2826 421.948 88.9259 423.029 90.9732C424.16 92.9667 424.725 95.4451 424.725 98.4084C424.725 102.88 422.759 106.409 418.826 108.995C422.07 110.342 424.283 112.174 425.462 114.491C426.642 116.808 427.232 119.421 427.232 122.33C427.232 128.203 425.266 132.621 421.333 135.584C417.45 138.547 411.649 140.029 403.932 140.029ZM398.107 114.895V129.361C398.942 129.469 399.852 129.55 400.835 129.604C401.818 129.657 402.899 129.684 404.079 129.684C407.52 129.684 410.297 129.146 412.411 128.068C414.525 126.99 415.582 124.997 415.582 122.088C415.582 119.501 414.697 117.67 412.927 116.592C411.158 115.461 408.626 114.895 405.333 114.895H398.107ZM398.107 105.278H403.71C407.25 105.278 409.781 104.793 411.305 103.823C412.829 102.799 413.591 101.183 413.591 98.9741C413.591 96.7112 412.804 95.1218 411.231 94.2059C409.658 93.29 407.348 92.832 404.3 92.832C403.317 92.832 402.26 92.859 401.13 92.9128C399.999 92.9128 398.991 92.9667 398.107 93.0745V105.278Z" fill="black"/>
<path d="M451.187 140.11C447.991 140.056 445.386 139.679 443.371 138.978C441.404 138.278 439.831 137.308 438.652 136.069C437.521 134.776 436.735 133.24 436.292 131.462C435.899 129.63 435.702 127.583 435.702 125.32V78.5275L446.689 76.5879V122.896C446.689 123.973 446.763 124.943 446.91 125.805C447.057 126.667 447.328 127.395 447.721 127.987C448.163 128.58 448.778 129.065 449.564 129.442C450.351 129.819 451.408 130.061 452.735 130.169L451.187 140.11Z" fill="black"/>
<path d="M492.14 137.847C490.272 138.439 487.863 138.978 484.914 139.463C481.964 140.002 478.867 140.271 475.623 140.271C472.329 140.271 469.577 139.786 467.365 138.817C465.202 137.847 463.481 136.5 462.203 134.776C460.925 132.998 460.016 130.897 459.475 128.472C458.934 126.048 458.664 123.381 458.664 120.471V96.792H469.65V119.017C469.65 122.896 470.117 125.697 471.051 127.421C471.985 129.146 473.73 130.008 476.287 130.008C477.073 130.008 477.909 129.981 478.794 129.927C479.678 129.819 480.465 129.711 481.153 129.604V96.792H492.14V137.847Z" fill="black"/>
<path d="M500.609 118.37C500.609 114.599 501.125 111.312 502.158 108.51C503.239 105.655 504.64 103.284 506.361 101.399C508.081 99.5128 510.047 98.0851 512.259 97.1153C514.521 96.1455 516.831 95.6606 519.191 95.6606C524.696 95.6606 529.047 97.5194 532.242 101.237C535.437 104.901 537.035 110.315 537.035 117.481C537.035 118.181 537.01 118.963 536.961 119.825C536.912 120.633 536.862 121.36 536.813 122.007H511.891C512.137 124.485 513.193 126.452 515.061 127.906C516.929 129.361 519.436 130.088 522.582 130.088C524.598 130.088 526.564 129.9 528.481 129.523C530.447 129.092 532.045 128.58 533.274 127.987L534.749 137.766C534.159 138.089 533.372 138.413 532.389 138.736C531.406 139.059 530.3 139.328 529.071 139.544C527.891 139.813 526.613 140.029 525.237 140.19C523.86 140.352 522.484 140.433 521.108 140.433C517.618 140.433 514.57 139.867 511.965 138.736C509.408 137.604 507.27 136.069 505.55 134.129C503.878 132.136 502.625 129.792 501.789 127.098C501.003 124.404 500.609 121.495 500.609 118.37ZM526.417 113.763C526.367 112.74 526.195 111.743 525.9 110.773C525.655 109.803 525.237 108.941 524.647 108.187C524.106 107.433 523.394 106.813 522.509 106.328C521.673 105.843 520.616 105.601 519.338 105.601C518.109 105.601 517.052 105.843 516.167 106.328C515.283 106.759 514.545 107.352 513.955 108.106C513.366 108.861 512.899 109.75 512.554 110.773C512.259 111.743 512.038 112.74 511.891 113.763H526.417Z" fill="black"/>
<path d="M563.283 140.029C560.481 140.029 557.679 139.921 554.877 139.706C552.124 139.544 549.249 139.113 546.25 138.413V84.1038C548.61 83.6189 551.19 83.2687 553.992 83.0532C556.794 82.7838 559.4 82.6491 561.808 82.6491C565.053 82.6491 568.027 82.9185 570.73 83.4573C573.483 83.9422 575.843 84.8042 577.809 86.0434C579.775 87.2826 581.299 88.9259 582.38 90.9732C583.511 92.9667 584.076 95.4451 584.076 98.4084C584.076 102.88 582.11 106.409 578.178 108.995C581.422 110.342 583.634 112.174 584.814 114.491C585.993 116.808 586.583 119.421 586.583 122.33C586.583 128.203 584.617 132.621 580.685 135.584C576.801 138.547 571.001 140.029 563.283 140.029ZM557.458 114.895V129.361C558.294 129.469 559.203 129.55 560.186 129.604C561.169 129.657 562.251 129.684 563.431 129.684C566.872 129.684 569.649 129.146 571.763 128.068C573.876 126.99 574.933 124.997 574.933 122.088C574.933 119.501 574.048 117.67 572.279 116.592C570.509 115.461 567.978 114.895 564.684 114.895H557.458ZM557.458 105.278H563.062C566.601 105.278 569.133 104.793 570.657 103.823C572.18 102.799 572.942 101.183 572.942 98.9741C572.942 96.7112 572.156 95.1218 570.583 94.2059C569.01 93.29 566.699 92.832 563.652 92.832C562.669 92.832 561.612 92.859 560.481 92.9128C559.351 92.9128 558.343 92.9667 557.458 93.0745V105.278Z" fill="black"/>
<path d="M628.161 137.847C626.293 138.439 623.884 138.978 620.935 139.463C617.985 140.002 614.888 140.271 611.644 140.271C608.351 140.271 605.598 139.786 603.386 138.817C601.223 137.847 599.502 136.5 598.224 134.776C596.946 132.998 596.037 130.897 595.496 128.472C594.955 126.048 594.685 123.381 594.685 120.471V96.792H605.672V119.017C605.672 122.896 606.139 125.697 607.073 127.421C608.006 129.146 609.752 130.008 612.308 130.008C613.094 130.008 613.93 129.981 614.815 129.927C615.7 129.819 616.486 129.711 617.174 129.604V96.792H628.161V137.847Z" fill="black"/>
<path d="M638.105 86.2051L649.092 84.2655V96.792H662.29V106.813H649.092V121.764C649.092 124.297 649.485 126.317 650.272 127.826C651.107 129.334 652.754 130.088 655.212 130.088C656.392 130.088 657.596 129.981 658.825 129.765C660.103 129.496 661.258 129.146 662.29 128.715L663.839 138.089C662.512 138.682 661.037 139.194 659.415 139.625C657.793 140.056 655.802 140.271 653.442 140.271C650.444 140.271 647.961 139.84 645.995 138.978C644.029 138.062 642.456 136.823 641.276 135.261C640.096 133.644 639.26 131.705 638.769 129.442C638.326 127.179 638.105 124.674 638.105 121.926V86.2051Z" fill="black"/>
<path d="M670.868 86.2051L681.855 84.2655V96.792H695.054V106.813H681.855V121.764C681.855 124.297 682.248 126.317 683.035 127.826C683.87 129.334 685.517 130.088 687.975 130.088C689.155 130.088 690.359 129.981 691.588 129.765C692.866 129.496 694.021 129.146 695.054 128.715L696.602 138.089C695.275 138.682 693.8 139.194 692.178 139.625C690.556 140.056 688.565 140.271 686.205 140.271C683.207 140.271 680.724 139.84 678.758 138.978C676.792 138.062 675.219 136.823 674.039 135.261C672.859 133.644 672.024 131.705 671.532 129.442C671.09 127.179 670.868 124.674 670.868 121.926V86.2051Z" fill="black"/>
<path d="M738.838 117.966C738.838 121.306 738.395 124.377 737.511 127.179C736.626 129.927 735.348 132.297 733.676 134.291C732.005 136.23 729.99 137.739 727.63 138.817C725.32 139.894 722.714 140.433 719.814 140.433C716.963 140.433 714.358 139.894 711.998 138.817C709.688 137.739 707.697 136.23 706.026 134.291C704.354 132.297 703.052 129.927 702.118 127.179C701.184 124.377 700.717 121.306 700.717 117.966C700.717 114.626 701.184 111.581 702.118 108.834C703.101 106.086 704.428 103.742 706.099 101.803C707.82 99.8631 709.835 98.3545 712.146 97.2769C714.505 96.1994 717.061 95.6606 719.814 95.6606C722.616 95.6606 725.172 96.1994 727.483 97.2769C729.842 98.3545 731.858 99.8631 733.529 101.803C735.2 103.742 736.503 106.086 737.437 108.834C738.371 111.581 738.838 114.626 738.838 117.966ZM727.63 117.966C727.63 114.248 726.942 111.339 725.565 109.238C724.238 107.083 722.321 106.005 719.814 106.005C717.307 106.005 715.365 107.083 713.989 109.238C712.613 111.339 711.924 114.248 711.924 117.966C711.924 121.684 712.613 124.647 713.989 126.856C715.365 129.011 717.307 130.088 719.814 130.088C722.321 130.088 724.238 129.011 725.565 126.856C726.942 124.647 727.63 121.684 727.63 117.966Z" fill="black"/>
<path d="M747.348 98.2467C749.216 97.6541 751.625 97.1153 754.574 96.6304C757.524 96.0916 760.621 95.8222 763.865 95.8222C767.159 95.8222 769.887 96.3071 772.05 97.2769C774.262 98.1928 776.007 99.5128 777.285 101.237C778.563 102.961 779.472 105.008 780.013 107.379C780.554 109.75 780.824 112.39 780.824 115.299V139.302H769.838V116.754C769.838 112.875 769.371 110.127 768.437 108.51C767.503 106.894 765.758 106.086 763.201 106.086C762.415 106.086 761.579 106.14 760.695 106.248C759.81 106.301 759.023 106.382 758.335 106.49V139.302H747.348V98.2467Z" fill="black"/>
<defs>
<clipPath id="clip0_892_101">
<rect width="133.376" height="132.891" fill="white" transform="translate(100.359 49.0547)"/>
</clipPath>
</defs>
</svg>
