<svg width="737" height="400" viewBox="0 0 737 400" fill="none" xmlns="http://www.w3.org/2000/svg">
<rect width="735.877" height="400" transform="translate(0.804688)" fill="white"/>
<g clip-path="url(#clip0_659_23011)">
<path d="M100.805 230.909L119.986 216.24C130.141 229.538 141.022 235.664 153.111 235.664C165.12 235.664 175.597 229.619 185.349 216.401L204.853 230.747C190.83 249.768 173.34 259.842 153.111 259.842C132.962 259.762 115.312 249.768 100.805 230.909Z" fill="black"/>
<path d="M153.03 166.996L118.857 196.414L103.061 178.118L153.11 135L202.757 178.118L186.88 196.333L153.03 166.996Z" fill="black"/>
<path d="M278.355 241.628C266.669 241.628 256.997 237.84 249.099 230.264C241.201 222.607 237.332 212.774 237.332 200.766C237.332 188.677 241.281 178.763 249.18 170.946C257.158 163.047 266.91 159.179 278.436 159.179C292.701 159.179 305.354 165.304 312.688 174.975L299.793 188.515C293.668 181.907 286.979 178.602 279.725 178.602C273.6 178.602 268.522 180.617 264.251 184.889C260.14 189.08 258.126 194.399 258.126 200.766C258.126 206.891 260.14 212.13 264.251 216.321C268.442 220.431 273.519 222.446 279.564 222.446C287.462 222.446 294.393 218.98 300.116 212.21L313.494 225.025C309.787 229.861 304.871 233.89 298.665 237.034C292.62 240.096 285.85 241.628 278.355 241.628ZM336.222 158.05V240.419H317.202V158.05C317.282 158.05 336.222 158.05 336.222 158.05ZM354.276 175.54C347.909 175.54 343.234 170.865 343.234 164.498C343.234 158.373 348.07 153.698 354.276 153.698C360.401 153.698 365.156 158.373 365.156 164.498C365.156 170.865 360.401 175.54 354.276 175.54ZM363.866 180.859V240.499H344.765V180.859H363.866ZM400.457 241.708C391.027 241.708 383.532 238.807 377.568 232.923C371.765 227.12 368.783 219.625 368.783 210.437C368.783 201.249 371.684 193.835 377.648 187.951C383.612 182.148 391.269 179.247 400.779 179.247C413.191 179.247 424.152 185.292 429.148 196.655L413.916 204.634C410.853 199.557 406.662 196.978 401.182 196.978C397.152 196.978 393.928 198.267 391.349 200.846C388.851 203.425 387.481 206.891 387.561 210.437C387.561 218.336 393.284 224.138 400.94 224.138C406.421 224.138 411.498 221.076 413.674 216.482L428.907 225.509C423.829 235.583 413.11 241.708 400.457 241.708ZM495.317 240.419H472.67L455.02 216.804L452.199 219.383V240.419H433.178V158.05H452.199V198.106L470.091 180.859H493.302L467.673 204.796L495.317 240.419ZM496.526 209.47V160.629H516.836V209.148C516.836 218.094 521.994 222.446 529.489 222.446C536.824 222.446 541.982 217.933 541.982 209.148V160.629H562.372V209.47C562.372 233.004 546.092 241.869 529.409 241.869C512.967 241.869 496.526 233.004 496.526 209.47ZM607.586 179.327C616.129 179.327 623.06 182.39 628.541 188.354C634.021 194.318 636.762 201.733 636.762 210.518C636.762 219.303 633.941 226.717 628.46 232.843C622.98 238.887 616.049 241.95 607.747 241.95C601.139 241.95 595.416 239.774 590.822 235.502V265H571.721V180.859H590.5V186.339C595.013 181.665 600.736 179.327 607.586 179.327ZM617.258 210.76C617.258 202.942 611.616 197.058 603.879 197.058C596.061 197.058 590.339 203.022 590.339 210.76C590.339 214.548 591.628 217.771 594.127 220.512C596.706 223.171 599.93 224.541 603.879 224.541C607.747 224.541 610.971 223.252 613.47 220.512C615.968 217.852 617.338 214.386 617.258 210.76Z" fill="black"/>
</g>
<defs>
<clipPath id="clip0_659_23011">
<rect width="535.877" height="130" fill="white" transform="translate(100.805 135)"/>
</clipPath>
</defs>
</svg>
