<svg width="737" height="231" viewBox="0 0 737 231" fill="none" xmlns="http://www.w3.org/2000/svg">
<g clip-path="url(#clip0_659_23011)">
<path d="M100.805 146.409L119.986 131.74C130.141 145.038 141.022 151.164 153.111 151.164C165.12 151.164 175.597 145.119 185.349 131.901L204.853 146.247C190.83 165.268 173.34 175.342 153.111 175.342C132.962 175.262 115.312 165.268 100.805 146.409Z" fill="black"/>
<path d="M153.03 82.4963L118.857 111.914L103.061 93.6184L153.11 50.5L202.757 93.6184L186.88 111.833L153.03 82.4963Z" fill="black"/>
<path d="M278.355 157.128C266.669 157.128 256.997 153.34 249.099 145.764C241.201 138.107 237.332 128.274 237.332 116.266C237.332 104.177 241.281 94.2633 249.18 86.4456C257.158 78.5473 266.91 74.6787 278.436 74.6787C292.701 74.6787 305.354 80.8039 312.688 90.4754L299.793 104.015C293.668 97.4065 286.979 94.1021 279.725 94.1021C273.6 94.1021 268.522 96.117 264.251 100.389C260.14 104.58 258.126 109.899 258.126 116.266C258.126 122.391 260.14 127.63 264.251 131.821C268.442 135.931 273.519 137.946 279.564 137.946C287.462 137.946 294.393 134.48 300.116 127.71L313.494 140.525C309.787 145.361 304.871 149.39 298.665 152.534C292.62 155.596 285.85 157.128 278.355 157.128ZM336.222 73.5504V155.919H317.202V73.5504C317.282 73.5504 336.222 73.5504 336.222 73.5504ZM354.276 91.0395C347.909 91.0395 343.234 86.365 343.234 79.998C343.234 73.8728 348.07 69.1982 354.276 69.1982C360.401 69.1982 365.156 73.8728 365.156 79.998C365.156 86.365 360.401 91.0395 354.276 91.0395ZM363.866 96.3588V155.999H344.765V96.3588H363.866ZM400.457 157.208C391.027 157.208 383.532 154.307 377.568 148.423C371.765 142.62 368.783 135.125 368.783 125.937C368.783 116.749 371.684 109.335 377.648 103.451C383.612 97.6483 391.269 94.7469 400.779 94.7469C413.191 94.7469 424.152 100.792 429.148 112.155L413.916 120.134C410.853 115.057 406.662 112.478 401.182 112.478C397.152 112.478 393.928 113.767 391.349 116.346C388.851 118.925 387.481 122.391 387.561 125.937C387.561 133.836 393.284 139.638 400.94 139.638C406.421 139.638 411.498 136.576 413.674 131.982L428.907 141.009C423.829 151.083 413.11 157.208 400.457 157.208ZM495.317 155.919H472.67L455.02 132.304L452.199 134.883V155.919H433.178V73.5504H452.199V113.606L470.091 96.3588H493.302L467.673 120.296L495.317 155.919ZM496.526 124.97V76.1294H516.836V124.648C516.836 133.594 521.994 137.946 529.489 137.946C536.824 137.946 541.982 133.433 541.982 124.648V76.1294H562.372V124.97C562.372 148.504 546.092 157.369 529.409 157.369C512.967 157.369 496.526 148.504 496.526 124.97ZM607.586 94.8275C616.129 94.8275 623.06 97.8901 628.541 103.854C634.021 109.818 636.762 117.233 636.762 126.018C636.762 134.803 633.941 142.217 628.46 148.343C622.98 154.387 616.049 157.45 607.747 157.45C601.139 157.45 595.416 155.274 590.822 151.002V180.5H571.721V96.3588H590.5V101.839C595.013 97.1648 600.736 94.8275 607.586 94.8275ZM617.258 126.26C617.258 118.442 611.616 112.558 603.879 112.558C596.061 112.558 590.339 118.522 590.339 126.26C590.339 130.048 591.628 133.271 594.127 136.012C596.706 138.671 599.93 140.041 603.879 140.041C607.747 140.041 610.971 138.752 613.47 136.012C615.968 133.352 617.338 129.886 617.258 126.26Z" fill="black"/>
</g>
<defs>
<clipPath id="clip0_659_23011">
<rect width="535.877" height="130" fill="white" transform="translate(100.805 50.5)"/>
</clipPath>
</defs>
</svg>
