<svg width="603" height="231" viewBox="0 0 603 231" fill="none" xmlns="http://www.w3.org/2000/svg">
<g clip-path="url(#clip0_658_22953)">
<path fill-rule="evenodd" clip-rule="evenodd" d="M172.046 178.53C172.046 180.728 173.819 182.5 176.016 182.5H230.824C233.022 182.5 234.807 180.715 234.67 178.53C232.697 147.031 207.503 121.836 176.003 119.864C173.819 119.726 172.033 121.524 172.033 123.709V178.518L172.046 178.53Z" fill="black"/>
<path fill-rule="evenodd" clip-rule="evenodd" d="M163.317 123.833C163.317 121.636 161.544 119.863 159.347 119.863H104.538C102.341 119.863 100.556 121.649 100.693 123.833C102.666 155.333 127.86 180.527 159.359 182.5C161.544 182.637 163.329 180.839 163.329 178.654V123.846L163.317 123.833Z" fill="black"/>
<path fill-rule="evenodd" clip-rule="evenodd" d="M163.317 107.168C163.317 109.365 161.544 111.138 159.347 111.138H104.538C102.341 111.138 100.556 109.353 100.693 107.168C102.653 75.6811 127.848 50.4741 159.347 48.5015C161.532 48.3642 163.317 50.162 163.317 52.3469V107.155V107.168Z" fill="black"/>
<path fill-rule="evenodd" clip-rule="evenodd" d="M172.046 52.4702C172.046 50.2728 173.819 48.5 176.016 48.5H230.824C233.022 48.5 234.807 50.2853 234.67 52.4702C232.697 83.9695 207.503 109.164 176.003 111.137C173.819 111.274 172.033 109.476 172.033 107.291V52.4702H172.046Z" fill="black"/>
<path d="M302.036 110.238C299.564 104.882 295.082 102.198 289.027 102.198C280.95 102.198 275.569 108.677 275.569 116.942C275.569 125.207 281.399 131.687 289.464 131.687C295.295 131.687 299.327 129.003 302.024 123.872H319.74C316.382 138.391 303.822 147.768 289.027 147.768C271.761 147.768 258.314 133.922 258.314 116.718C258.314 99.5136 271.985 85.8926 288.802 85.8926C304.046 85.8926 316.606 95.4934 319.74 110.238H302.024H302.036Z" fill="black"/>
<path d="M327.369 145.745V87.9025H343.737V94.1574H343.962C347.095 87.9025 351.814 86.1172 358.531 86.1172V103.534C348.219 103.534 344.86 107.554 344.86 114.033V145.97H327.369V145.745Z" fill="black"/>
<path d="M407.872 116.705C407.872 108.665 401.367 101.96 393.077 101.96C384.787 101.96 378.732 108.44 378.732 116.93C378.732 124.97 385.237 131.45 393.302 131.45C401.592 131.674 407.872 125.195 407.872 116.705ZM407.872 145.745V139.49H407.647C405.175 144.621 398.234 147.755 390.605 147.755C373.339 147.755 361.453 134.359 361.453 116.705C361.453 99.0514 374.013 85.8799 390.605 85.8799C397.784 85.8799 404.276 88.7889 407.647 93.9201H407.872V87.6652H425.363V145.508H407.872V145.732V145.745Z" fill="black"/>
<path d="M476.25 145.745V103.309H457.411V145.745H439.919V103.309H432.291V87.9029H439.919V86.567C439.919 74.7314 446.199 68.7012 462.567 68.7012H463.69V81.6605C458.534 81.6605 457.186 84.12 457.186 87.9154H476.026V68.7137H493.517V87.9154H502.93V103.322H493.517V145.758H476.25V145.745Z" fill="black"/>
</g>
<defs>
<clipPath id="clip0_658_22953">
<rect width="402.25" height="134" fill="white" transform="translate(100.682 48.5)"/>
</clipPath>
</defs>
</svg>
