<svg width="603" height="400" viewBox="0 0 603 400" fill="none" xmlns="http://www.w3.org/2000/svg">
<rect width="602.25" height="400" transform="translate(0.681641)" fill="white"/>
<g clip-path="url(#clip0_658_22953)">
<path fill-rule="evenodd" clip-rule="evenodd" d="M172.046 263.03C172.046 265.228 173.819 267 176.016 267H230.824C233.022 267 234.807 265.215 234.67 263.03C232.697 231.531 207.503 206.336 176.003 204.364C173.819 204.226 172.033 206.024 172.033 208.209V263.018L172.046 263.03Z" fill="black"/>
<path fill-rule="evenodd" clip-rule="evenodd" d="M163.317 208.333C163.317 206.136 161.544 204.363 159.347 204.363H104.538C102.341 204.363 100.556 206.149 100.693 208.333C102.666 239.833 127.86 265.027 159.359 267C161.544 267.137 163.329 265.339 163.329 263.154V208.346L163.317 208.333Z" fill="black"/>
<path fill-rule="evenodd" clip-rule="evenodd" d="M163.317 191.668C163.317 193.865 161.544 195.638 159.347 195.638H104.538C102.341 195.638 100.556 193.853 100.693 191.668C102.653 160.181 127.848 134.974 159.347 133.002C161.532 132.864 163.317 134.662 163.317 136.847V191.655V191.668Z" fill="black"/>
<path fill-rule="evenodd" clip-rule="evenodd" d="M172.046 136.97C172.046 134.773 173.819 133 176.016 133H230.824C233.022 133 234.807 134.785 234.67 136.97C232.697 168.469 207.503 193.664 176.003 195.637C173.819 195.774 172.033 193.976 172.033 191.791V136.97H172.046Z" fill="black"/>
<path d="M302.036 194.738C299.564 189.382 295.082 186.698 289.027 186.698C280.95 186.698 275.569 193.177 275.569 201.442C275.569 209.707 281.399 216.187 289.464 216.187C295.295 216.187 299.327 213.503 302.024 208.372H319.74C316.382 222.891 303.822 232.268 289.027 232.268C271.761 232.268 258.314 218.422 258.314 201.218C258.314 184.014 271.985 170.393 288.802 170.393C304.046 170.393 316.606 179.993 319.74 194.738H302.024H302.036Z" fill="black"/>
<path d="M327.369 230.245V172.403H343.737V178.657H343.962C347.095 172.403 351.814 170.617 358.531 170.617V188.034C348.219 188.034 344.86 192.054 344.86 198.533V230.47H327.369V230.245Z" fill="black"/>
<path d="M407.872 201.205C407.872 193.165 401.367 186.46 393.077 186.46C384.787 186.46 378.732 192.94 378.732 201.43C378.732 209.47 385.237 215.95 393.302 215.95C401.592 216.174 407.872 209.695 407.872 201.205ZM407.872 230.245V223.99H407.647C405.175 229.121 398.234 232.255 390.605 232.255C373.339 232.255 361.453 218.859 361.453 201.205C361.453 183.551 374.013 170.38 390.605 170.38C397.784 170.38 404.276 173.289 407.647 178.42H407.872V172.165H425.363V230.008H407.872V230.232V230.245Z" fill="black"/>
<path d="M476.25 230.245V187.809H457.411V230.245H439.919V187.809H432.291V172.403H439.919V171.067C439.919 159.231 446.199 153.201 462.567 153.201H463.69V166.16C458.534 166.16 457.186 168.62 457.186 172.415H476.026V153.214H493.517V172.415H502.93V187.822H493.517V230.258H476.25V230.245Z" fill="black"/>
</g>
<defs>
<clipPath id="clip0_658_22953">
<rect width="402.25" height="134" fill="white" transform="translate(100.682 133)"/>
</clipPath>
</defs>
</svg>
