<svg width="651" height="231" viewBox="0 0 651 231" fill="none" xmlns="http://www.w3.org/2000/svg">
<path d="M116.471 111.808C116.471 110.585 116.879 109.514 117.694 108.596C118.612 107.678 119.683 107.219 120.907 107.219H157.315C155.479 102.63 152.472 98.9075 148.289 96.0519C144.109 93.0945 139.417 91.6156 134.215 91.6156C129.932 91.6156 125.955 92.6355 122.283 94.6751C118.612 96.7147 115.605 99.5194 113.259 103.089C111.423 105.944 110.199 109.106 109.587 112.573C109.486 113.185 109.383 113.848 109.281 114.562C109.281 115.174 109.281 115.837 109.281 116.551C109.281 120.018 109.944 123.281 111.27 126.341C112.596 129.298 114.381 131.899 116.624 134.143C118.868 136.386 121.469 138.171 124.425 139.497C127.485 140.823 130.75 141.486 134.215 141.486C138.093 141.486 141.764 140.619 145.23 138.885C148.801 137.151 151.758 134.704 154.102 131.542C154.614 130.828 155.073 130.063 155.479 129.247C155.991 128.432 156.45 127.616 156.856 126.8C157.368 125.678 158.183 124.913 159.303 124.505C160.527 124.097 161.701 124.148 162.822 124.658C163.946 125.168 164.71 126.035 165.116 127.259C165.628 128.381 165.628 129.503 165.116 130.624C163.996 133.072 162.722 135.214 161.292 137.049C158.03 141.333 154.052 144.647 149.36 146.993C144.671 149.338 139.623 150.511 134.215 150.511C129.526 150.511 125.09 149.644 120.907 147.91C116.828 146.075 113.259 143.627 110.199 140.568C107.14 137.508 104.692 133.939 102.856 129.859C101.123 125.678 100.256 121.242 100.256 116.551C100.256 114.715 100.409 112.879 100.715 111.043C101.123 108.698 101.684 106.505 102.398 104.466C103.214 102.324 104.284 100.284 105.61 98.3465C108.772 93.3492 112.851 89.474 117.847 86.7204C122.948 83.9668 128.402 82.5901 134.215 82.5901C138.399 82.5901 142.376 83.3041 146.148 84.7317C149.922 86.1594 153.287 88.1481 156.244 90.6978C159.203 93.1454 161.701 96.154 163.74 99.7233C165.781 103.191 167.105 106.964 167.717 111.043C167.923 112.267 167.667 113.389 166.952 114.409C166.24 115.429 165.269 116.041 164.046 116.245C164.046 116.245 163.384 116.245 162.057 116.245C160.833 116.245 159.203 116.296 157.162 116.398C155.123 116.398 152.778 116.398 150.125 116.398C147.577 116.398 144.977 116.398 142.323 116.398H120.907C119.683 116.398 118.612 115.939 117.694 115.021C116.879 114.103 116.471 113.032 116.471 111.808ZM210.538 82.5901C214.313 82.5901 217.881 83.3041 221.247 84.7317C224.612 86.1594 227.519 88.1481 229.966 90.6978C232.517 93.2474 234.505 96.2049 235.932 99.5703C237.359 102.936 238.074 106.505 238.074 110.279V145.922C238.074 147.146 237.615 148.216 236.697 149.134C235.882 149.95 234.861 150.358 233.638 150.358C232.414 150.358 231.343 149.95 230.425 149.134C229.507 148.216 229.048 147.146 229.048 145.922V110.279C229.048 107.729 228.539 105.332 227.519 103.089C226.601 100.743 225.274 98.7545 223.541 97.1227C221.908 95.3891 219.973 94.0632 217.728 93.1454C215.484 92.1254 213.089 91.6156 210.538 91.6156C208.703 91.6156 206.867 91.8707 205.031 92.3805C203.807 92.7885 202.634 92.6864 201.513 92.0745C200.492 91.4626 199.78 90.5957 199.371 89.474C198.962 88.2502 199.065 87.1284 199.677 86.1085C200.289 84.9868 201.207 84.2219 202.431 83.8139C205.184 82.9981 207.888 82.5901 210.538 82.5901ZM187.286 82.743C188.613 82.743 189.684 83.202 190.499 84.1198C191.416 84.9356 191.875 85.9555 191.875 87.1793V146.075C191.875 147.299 191.416 148.369 190.499 149.287C189.684 150.103 188.613 150.511 187.286 150.511C186.062 150.511 184.991 150.103 184.074 149.287C183.259 148.369 182.85 147.299 182.85 146.075V87.1793C182.85 85.9555 183.259 84.9356 184.074 84.1198C184.991 83.202 186.062 82.743 187.286 82.743ZM312.393 93.7573C313.208 94.6751 313.617 95.7968 313.617 97.1227C313.617 98.3465 313.105 99.3664 312.087 100.182C311.372 100.896 310.405 101.253 309.181 101.253C307.854 101.253 306.733 100.794 305.815 99.8763C303.468 97.2248 300.664 95.1849 297.402 93.7573C294.239 92.3296 290.874 91.6156 287.305 91.6156C283.837 91.6156 280.624 92.2784 277.668 93.6043C276.238 94.2162 274.811 94.9811 273.385 95.8989C272.567 96.4087 271.702 96.6638 270.784 96.6638C269.354 96.6638 268.13 96.001 267.113 94.6751C266.398 93.5534 266.142 92.4314 266.348 91.3097C266.551 90.0859 267.213 89.1171 268.336 88.4031C269.254 87.7912 270.172 87.2302 271.09 86.7204C272.008 86.2106 273.026 85.7005 274.149 85.1906C278.433 83.457 282.816 82.5901 287.305 82.5901C292.098 82.5901 296.637 83.5588 300.92 85.4966C305.303 87.4344 309.128 90.1879 312.393 93.7573ZM287.305 141.486C288.529 141.486 289.547 141.944 290.365 142.862C291.283 143.678 291.742 144.749 291.742 146.075C291.742 147.299 291.283 148.369 290.365 149.287C289.547 150.103 288.529 150.511 287.305 150.511C282.613 150.511 278.177 149.644 273.996 147.91C269.916 146.075 266.348 143.627 263.288 140.568C260.229 137.508 257.781 133.939 255.945 129.859C254.21 125.678 253.345 121.242 253.345 116.551C253.345 111.451 254.466 106.505 256.71 101.712C257.322 100.59 258.187 99.8254 259.311 99.4173C260.535 99.0093 261.706 99.0605 262.829 99.5703C263.95 100.08 264.715 100.947 265.124 102.171C265.53 103.293 265.43 104.415 264.818 105.536C263.185 109.31 262.37 112.981 262.37 116.551C262.37 120.018 263.032 123.281 264.359 126.341C265.683 129.298 267.469 131.899 269.713 134.143C271.955 136.386 274.555 138.171 277.515 139.497C280.574 140.823 283.837 141.486 287.305 141.486ZM364.105 139.803C365.226 139.293 366.349 139.293 367.47 139.803C368.694 140.211 369.562 140.976 370.071 142.097C370.58 143.219 370.58 144.392 370.071 145.616C369.662 146.738 368.897 147.554 367.776 148.063C364.411 149.695 360.636 150.511 356.456 150.511C352.582 150.511 348.96 149.797 345.595 148.369C342.332 146.942 339.426 144.953 336.875 142.403C334.325 139.854 332.336 136.947 330.909 133.684C329.482 130.318 328.767 126.698 328.767 122.823V87.1793C328.767 85.9555 329.176 84.9356 329.991 84.1198C330.909 83.202 331.98 82.743 333.204 82.743C334.531 82.743 335.601 83.202 336.416 84.1198C337.334 84.9356 337.793 85.9555 337.793 87.1793V122.823C337.793 125.474 338.252 127.922 339.17 130.165C340.191 132.409 341.514 134.398 343.147 136.131C344.88 137.763 346.869 139.089 349.113 140.109C351.358 141.027 353.805 141.486 356.456 141.486C359.007 141.486 361.554 140.924 364.105 139.803ZM379.555 82.5901C380.779 82.5901 381.8 83.049 382.615 83.9668C383.533 84.7826 383.992 85.8534 383.992 87.1793V145.922C383.992 147.146 383.533 148.216 382.615 149.134C381.8 149.95 380.779 150.358 379.555 150.358C378.331 150.358 377.261 149.95 376.343 149.134C375.425 148.216 374.966 147.146 374.966 145.922V87.1793C374.966 85.8534 375.425 84.7826 376.343 83.9668C377.261 83.049 378.331 82.5901 379.555 82.5901ZM434.111 83.202C438.701 83.202 443.034 84.1198 447.114 85.9555C451.192 87.6891 454.763 90.0859 457.823 93.1454C460.882 96.2049 463.277 99.7742 465.012 103.854C466.848 107.933 467.766 112.267 467.766 116.857C467.766 121.446 466.848 125.78 465.012 129.859C463.277 133.939 460.882 137.508 457.823 140.568C454.763 143.627 451.192 146.075 447.114 147.91C443.034 149.644 438.701 150.511 434.111 150.511C427.889 150.511 422.076 148.879 416.672 145.616C415.651 145.004 414.99 144.137 414.684 143.015C414.378 141.791 414.581 140.619 415.296 139.497C415.907 138.375 416.772 137.712 417.896 137.508C419.12 137.202 420.291 137.355 421.415 137.967C425.186 140.415 429.419 141.638 434.111 141.638C437.477 141.638 440.636 140.976 443.596 139.65C446.655 138.324 449.306 136.539 451.551 134.296C453.792 132.052 455.528 129.451 456.752 126.494C458.076 123.434 458.74 120.222 458.74 116.857C458.74 113.491 458.076 110.329 456.752 107.372C455.528 104.313 453.792 101.661 451.551 99.4173C449.306 97.1736 446.655 95.44 443.596 94.2162C440.636 92.8903 437.477 92.2275 434.111 92.2275C430.746 92.2275 427.534 92.8903 424.474 94.2162C421.515 95.44 418.914 97.1736 416.672 99.4173C414.428 101.661 412.642 104.313 411.318 107.372C409.991 110.329 409.329 113.491 409.329 116.857V146.075C409.329 147.299 408.871 148.369 407.953 149.287C407.135 150.103 406.117 150.511 404.893 150.511C403.669 150.511 402.599 150.103 401.681 149.287C400.863 148.369 400.457 147.299 400.457 146.075V48.1707C400.457 46.9469 400.863 45.9269 401.681 45.1112C402.599 44.1933 403.669 43.7344 404.893 43.7344C406.117 43.7344 407.135 44.1933 407.953 45.1112C408.871 45.9269 409.329 46.9469 409.329 48.1707V94.0632C412.489 90.7998 416.16 88.1993 420.344 86.2615C424.627 84.2219 429.216 83.202 434.111 83.202ZM498.967 111.808C498.967 110.585 499.376 109.514 500.191 108.596C501.109 107.678 502.18 107.219 503.403 107.219H539.811C537.976 102.63 534.966 98.9075 530.786 96.0519C526.606 93.0945 521.913 91.6156 516.712 91.6156C512.429 91.6156 508.452 92.6355 504.78 94.6751C501.109 96.7147 498.099 99.5194 495.755 103.089C493.919 105.944 492.695 109.106 492.083 112.573C491.98 113.185 491.88 113.848 491.777 114.562C491.777 115.174 491.777 115.837 491.777 116.551C491.777 120.018 492.439 123.281 493.766 126.341C495.093 129.298 496.875 131.899 499.12 134.143C501.365 136.386 503.965 138.171 506.922 139.497C509.981 140.823 513.244 141.486 516.712 141.486C520.587 141.486 524.258 140.619 527.726 138.885C531.295 137.151 534.254 134.704 536.599 131.542C537.108 130.828 537.567 130.063 537.976 129.247C538.485 128.432 538.944 127.616 539.352 126.8C539.861 125.678 540.679 124.913 541.8 124.505C543.024 124.097 544.198 124.148 545.319 124.658C546.439 125.168 547.204 126.035 547.613 127.259C548.122 128.381 548.122 129.503 547.613 130.624C546.492 133.072 545.216 135.214 543.789 137.049C540.526 141.333 536.549 144.647 531.857 146.993C527.164 149.338 522.116 150.511 516.712 150.511C512.02 150.511 507.584 149.644 503.403 147.91C499.323 146.075 495.755 143.627 492.695 140.568C489.636 137.508 487.188 133.939 485.352 129.859C483.62 125.678 482.752 121.242 482.752 116.551C482.752 114.715 482.905 112.879 483.211 111.043C483.62 108.698 484.178 106.505 484.893 104.466C485.708 102.324 486.779 100.284 488.106 98.3465C491.268 93.3492 495.346 89.474 500.344 86.7204C505.442 83.9668 510.899 82.5901 516.712 82.5901C520.893 82.5901 524.87 83.3041 528.644 84.7317C532.419 86.1594 535.784 88.1481 538.741 90.6978C541.697 93.1454 544.198 96.154 546.236 99.7233C548.275 103.191 549.602 106.964 550.214 111.043C550.417 112.267 550.164 113.389 549.449 114.409C548.734 115.429 547.766 116.041 546.542 116.245C546.542 116.245 545.88 116.245 544.554 116.245C543.33 116.245 541.697 116.296 539.658 116.398C537.62 116.398 535.272 116.398 532.622 116.398C530.071 116.398 527.47 116.398 524.82 116.398H503.403C502.18 116.398 501.109 115.939 500.191 115.021C499.376 114.103 498.967 113.032 498.967 111.808Z" fill="black"/>
</svg>
