<svg width="651" height="400" viewBox="0 0 651 400" fill="none" xmlns="http://www.w3.org/2000/svg">
<rect width="650.464" height="400" transform="translate(0.00585938)" fill="white"/>
<path d="M116.44 196.308C116.44 195.085 116.848 194.014 117.663 193.096C118.581 192.178 119.652 191.719 120.875 191.719H157.283C155.448 187.13 152.441 183.408 148.258 180.552C144.078 177.594 139.385 176.116 134.184 176.116C129.901 176.116 125.924 177.136 122.252 179.175C118.581 181.215 115.573 184.019 113.228 187.589C111.392 190.444 110.168 193.606 109.556 197.073C109.454 197.685 109.352 198.348 109.25 199.062C109.25 199.674 109.25 200.337 109.25 201.051C109.25 204.518 109.913 207.781 111.239 210.841C112.565 213.798 114.35 216.399 116.593 218.643C118.837 220.886 121.437 222.671 124.394 223.997C127.453 225.323 130.719 225.986 134.184 225.986C138.062 225.986 141.733 225.119 145.198 223.385C148.77 221.651 151.726 219.204 154.071 216.042C154.583 215.328 155.042 214.563 155.448 213.747C155.96 212.932 156.419 212.116 156.825 211.3C157.336 210.178 158.151 209.413 159.272 209.005C160.496 208.597 161.67 208.648 162.791 209.158C163.914 209.668 164.679 210.535 165.085 211.759C165.597 212.881 165.597 214.003 165.085 215.124C163.964 217.572 162.691 219.714 161.261 221.549C157.998 225.833 154.021 229.147 149.329 231.493C144.639 233.838 139.591 235.011 134.184 235.011C129.495 235.011 125.059 234.144 120.875 232.41C116.797 230.575 113.228 228.127 110.168 225.068C107.109 222.008 104.661 218.439 102.825 214.359C101.092 210.178 100.225 205.742 100.225 201.051C100.225 199.215 100.378 197.379 100.684 195.543C101.092 193.198 101.653 191.005 102.366 188.966C103.182 186.824 104.253 184.784 105.579 182.847C108.74 177.849 112.82 173.974 117.816 171.22C122.917 168.467 128.371 167.09 134.184 167.09C138.367 167.09 142.345 167.804 146.116 169.232C149.891 170.659 153.256 172.648 156.213 175.198C159.172 177.645 161.67 180.654 163.708 184.223C165.75 187.691 167.074 191.464 167.686 195.543C167.892 196.767 167.636 197.889 166.921 198.909C166.209 199.929 165.238 200.541 164.014 200.745C164.014 200.745 163.352 200.745 162.026 200.745C160.802 200.745 159.172 200.796 157.13 200.898C155.092 200.898 152.747 200.898 150.094 200.898C147.546 200.898 144.945 200.898 142.292 200.898H120.875C119.652 200.898 118.581 200.439 117.663 199.521C116.848 198.603 116.44 197.532 116.44 196.308ZM210.507 167.09C214.281 167.09 217.85 167.804 221.215 169.232C224.581 170.659 227.487 172.648 229.935 175.198C232.485 177.747 234.474 180.705 235.901 184.07C237.328 187.436 238.043 191.005 238.043 194.779V230.422C238.043 231.646 237.584 232.716 236.666 233.634C235.851 234.45 234.83 234.858 233.606 234.858C232.383 234.858 231.312 234.45 230.394 233.634C229.476 232.716 229.017 231.646 229.017 230.422V194.779C229.017 192.229 228.508 189.832 227.487 187.589C226.569 185.243 225.243 183.255 223.51 181.623C221.877 179.889 219.941 178.563 217.697 177.645C215.452 176.625 213.058 176.116 210.507 176.116C208.671 176.116 206.836 176.371 205 176.88C203.776 177.289 202.602 177.186 201.482 176.575C200.461 175.963 199.749 175.096 199.34 173.974C198.931 172.75 199.034 171.628 199.646 170.608C200.258 169.487 201.176 168.722 202.399 168.314C205.153 167.498 207.856 167.09 210.507 167.09ZM187.255 167.243C188.582 167.243 189.652 167.702 190.467 168.62C191.385 169.436 191.844 170.456 191.844 171.679V230.575C191.844 231.799 191.385 232.869 190.467 233.787C189.652 234.603 188.582 235.011 187.255 235.011C186.031 235.011 184.96 234.603 184.042 233.787C183.227 232.869 182.819 231.799 182.819 230.575V171.679C182.819 170.456 183.227 169.436 184.042 168.62C184.96 167.702 186.031 167.243 187.255 167.243ZM312.362 178.257C313.177 179.175 313.586 180.297 313.586 181.623C313.586 182.847 313.074 183.866 312.056 184.682C311.341 185.396 310.373 185.753 309.15 185.753C307.823 185.753 306.702 185.294 305.784 184.376C303.436 181.725 300.633 179.685 297.37 178.257C294.208 176.83 290.843 176.116 287.274 176.116C283.806 176.116 280.593 176.778 277.637 178.104C276.207 178.716 274.78 179.481 273.353 180.399C272.536 180.909 271.671 181.164 270.753 181.164C269.323 181.164 268.099 180.501 267.081 179.175C266.367 178.053 266.111 176.931 266.316 175.81C266.519 174.586 267.181 173.617 268.305 172.903C269.223 172.291 270.141 171.73 271.059 171.22C271.977 170.711 272.994 170.2 274.118 169.691C278.402 167.957 282.785 167.09 287.274 167.09C292.066 167.09 296.606 168.059 300.889 169.997C305.272 171.934 309.097 174.688 312.362 178.257ZM287.274 225.986C288.498 225.986 289.516 226.444 290.334 227.362C291.251 228.178 291.71 229.249 291.71 230.575C291.71 231.799 291.251 232.869 290.334 233.787C289.516 234.603 288.498 235.011 287.274 235.011C282.582 235.011 278.146 234.144 273.965 232.41C269.885 230.575 266.316 228.127 263.257 225.068C260.197 222.008 257.75 218.439 255.914 214.359C254.178 210.178 253.314 205.742 253.314 201.051C253.314 195.951 254.434 191.005 256.679 186.212C257.291 185.09 258.156 184.325 259.28 183.917C260.503 183.509 261.674 183.56 262.798 184.07C263.919 184.58 264.684 185.447 265.093 186.671C265.499 187.793 265.399 188.915 264.787 190.036C263.154 193.81 262.339 197.481 262.339 201.051C262.339 204.518 263.001 207.781 264.328 210.841C265.652 213.798 267.437 216.399 269.682 218.643C271.924 220.886 274.524 222.671 277.484 223.997C280.543 225.323 283.806 225.986 287.274 225.986ZM364.074 224.303C365.194 223.793 366.318 223.793 367.439 224.303C368.663 224.711 369.531 225.476 370.04 226.597C370.548 227.719 370.548 228.892 370.04 230.116C369.631 231.238 368.866 232.054 367.745 232.563C364.379 234.195 360.605 235.011 356.425 235.011C352.55 235.011 348.929 234.297 345.563 232.869C342.301 231.442 339.395 229.453 336.844 226.903C334.293 224.354 332.305 221.447 330.878 218.184C329.451 214.818 328.736 211.198 328.736 207.323V171.679C328.736 170.456 329.145 169.436 329.96 168.62C330.878 167.702 331.949 167.243 333.173 167.243C334.499 167.243 335.57 167.702 336.385 168.62C337.303 169.436 337.762 170.456 337.762 171.679V207.323C337.762 209.974 338.221 212.422 339.139 214.665C340.159 216.909 341.483 218.898 343.116 220.631C344.849 222.263 346.837 223.589 349.082 224.609C351.327 225.527 353.774 225.986 356.425 225.986C358.975 225.986 361.523 225.425 364.074 224.303ZM379.524 167.09C380.748 167.09 381.769 167.549 382.583 168.467C383.501 169.283 383.96 170.353 383.96 171.679V230.422C383.96 231.646 383.501 232.716 382.583 233.634C381.769 234.45 380.748 234.858 379.524 234.858C378.3 234.858 377.229 234.45 376.312 233.634C375.394 232.716 374.935 231.646 374.935 230.422V171.679C374.935 170.353 375.394 169.283 376.312 168.467C377.229 167.549 378.3 167.09 379.524 167.09ZM434.08 167.702C438.669 167.702 443.003 168.62 447.083 170.456C451.16 172.189 454.732 174.586 457.791 177.645C460.851 180.705 463.246 184.274 464.981 188.354C466.817 192.433 467.735 196.767 467.735 201.357C467.735 205.946 466.817 210.28 464.981 214.359C463.246 218.439 460.851 222.008 457.791 225.068C454.732 228.127 451.16 230.575 447.083 232.41C443.003 234.144 438.669 235.011 434.08 235.011C427.858 235.011 422.045 233.379 416.641 230.116C415.62 229.504 414.958 228.637 414.652 227.515C414.346 226.291 414.549 225.119 415.264 223.997C415.876 222.875 416.741 222.212 417.865 222.008C419.089 221.702 420.26 221.855 421.383 222.467C425.155 224.915 429.388 226.138 434.08 226.138C437.446 226.138 440.605 225.476 443.565 224.15C446.624 222.824 449.275 221.039 451.519 218.796C453.761 216.552 455.497 213.951 456.721 210.994C458.044 207.934 458.709 204.722 458.709 201.357C458.709 197.991 458.044 194.829 456.721 191.872C455.497 188.813 453.761 186.161 451.519 183.917C449.275 181.674 446.624 179.94 443.565 178.716C440.605 177.39 437.446 176.728 434.08 176.728C430.715 176.728 427.502 177.39 424.443 178.716C421.483 179.94 418.883 181.674 416.641 183.917C414.396 186.161 412.611 188.813 411.287 191.872C409.96 194.829 409.298 197.991 409.298 201.357V230.575C409.298 231.799 408.839 232.869 407.921 233.787C407.104 234.603 406.086 235.011 404.862 235.011C403.638 235.011 402.567 234.603 401.649 233.787C400.832 232.869 400.426 231.799 400.426 230.575V132.671C400.426 131.447 400.832 130.427 401.649 129.611C402.567 128.693 403.638 128.234 404.862 128.234C406.086 128.234 407.104 128.693 407.921 129.611C408.839 130.427 409.298 131.447 409.298 132.671V178.563C412.458 175.3 416.129 172.699 420.312 170.761C424.596 168.722 429.185 167.702 434.08 167.702ZM498.936 196.308C498.936 195.085 499.345 194.014 500.16 193.096C501.077 192.178 502.148 191.719 503.372 191.719H539.78C537.944 187.13 534.935 183.408 530.755 180.552C526.574 177.594 521.882 176.116 516.681 176.116C512.398 176.116 508.42 177.136 504.749 179.175C501.077 181.215 498.068 184.019 495.723 187.589C493.888 190.444 492.664 193.606 492.052 197.073C491.949 197.685 491.849 198.348 491.746 199.062C491.746 199.674 491.746 200.337 491.746 201.051C491.746 204.518 492.408 207.781 493.735 210.841C495.061 213.798 496.844 216.399 499.089 218.643C501.333 220.886 503.934 222.671 506.891 223.997C509.95 225.323 513.213 225.986 516.681 225.986C520.555 225.986 524.227 225.119 527.695 223.385C531.264 221.651 534.223 219.204 536.568 216.042C537.077 215.328 537.536 214.563 537.944 213.747C538.453 212.932 538.912 212.116 539.321 211.3C539.83 210.178 540.648 209.413 541.769 209.005C542.993 208.597 544.166 208.648 545.287 209.158C546.408 209.668 547.173 210.535 547.582 211.759C548.091 212.881 548.091 214.003 547.582 215.124C546.461 217.572 545.184 219.714 543.758 221.549C540.495 225.833 536.518 229.147 531.825 231.493C527.133 233.838 522.085 235.011 516.681 235.011C511.989 235.011 507.552 234.144 503.372 232.41C499.292 230.575 495.723 228.127 492.664 225.068C489.604 222.008 487.157 218.439 485.321 214.359C483.588 210.178 482.72 205.742 482.72 201.051C482.72 199.215 482.873 197.379 483.179 195.543C483.588 193.198 484.147 191.005 484.862 188.966C485.677 186.824 486.748 184.784 488.075 182.847C491.237 177.849 495.314 173.974 500.313 171.22C505.411 168.467 510.868 167.09 516.681 167.09C520.861 167.09 524.839 167.804 528.613 169.232C532.387 170.659 535.753 172.648 538.709 175.198C541.666 177.645 544.166 180.654 546.205 184.223C548.244 187.691 549.571 191.464 550.182 195.543C550.385 196.767 550.132 197.889 549.418 198.909C548.703 199.929 547.735 200.541 546.511 200.745C546.511 200.745 545.849 200.745 544.522 200.745C543.299 200.745 541.666 200.796 539.627 200.898C537.589 200.898 535.241 200.898 532.59 200.898C530.04 200.898 527.439 200.898 524.789 200.898H503.372C502.148 200.898 501.077 200.439 500.16 199.521C499.345 198.603 498.936 197.532 498.936 196.308Z" fill="black"/>
</svg>
