<svg width="762" height="400" viewBox="0 0 762 400" fill="none" xmlns="http://www.w3.org/2000/svg">
<rect width="761.724" height="400" transform="translate(0.0214844)" fill="white"/>
<g clip-path="url(#clip0_658_22985)">
<path d="M249.645 171.704C247.607 170.864 245.428 170.416 243.223 170.385C237.661 170.385 234.88 173.404 234.88 179.442V185.424H247.726V198.213H234.88V241.627H217.592V198.213H208.152V185.424H217.592V178.454C217.592 172.051 219.678 166.891 223.851 162.976C228.023 159.06 233.695 157.103 240.865 157.103C244.377 157.103 247.304 157.469 249.645 158.202V171.704Z" fill="black"/>
<path d="M280.606 243C271.239 243 263.875 240.375 258.513 235.124C253.152 229.873 250.473 222.745 250.475 213.739C250.475 204.447 253.255 197.175 258.815 191.924C264.375 186.673 271.891 184.05 281.362 184.054C290.693 184.054 298.011 186.679 303.316 191.93C308.621 197.181 311.274 204.123 311.274 212.758C311.274 222.089 308.539 229.462 303.069 234.877C297.599 240.293 290.112 243 280.606 243ZM281.061 197.336C276.963 197.336 273.779 198.742 271.51 201.553C269.241 204.364 268.107 208.352 268.107 213.517C268.107 224.311 272.461 229.709 281.169 229.709C289.476 229.709 293.629 224.166 293.627 213.08C293.617 202.584 289.428 197.336 281.061 197.336Z" fill="black"/>
<path d="M354.705 201.067C352.619 199.931 350.185 199.364 347.404 199.366C343.638 199.366 340.692 200.747 338.567 203.51C336.443 206.273 335.382 210.032 335.384 214.787V241.626H318.041V185.423H335.384V195.854H335.604C338.349 188.242 343.288 184.436 350.422 184.436C352.254 184.436 353.678 184.655 354.705 185.095V201.067Z" fill="black"/>
<path d="M449.543 241.627H432.26V209.574C432.26 201.416 429.26 197.336 423.26 197.336C420.405 197.336 418.081 198.562 416.288 201.014C414.495 203.466 413.594 206.521 413.586 210.179V241.627H396.24V209.24C396.24 201.3 393.295 197.33 387.403 197.33C386.022 197.292 384.653 197.592 383.415 198.204C382.176 198.816 381.106 199.722 380.298 200.842C378.521 203.186 377.634 206.369 377.636 210.393V241.627H360.299V185.424H377.645V194.207H377.864C379.77 191.101 382.441 188.537 385.621 186.759C388.802 184.981 392.386 184.05 396.03 184.054C403.969 184.054 409.403 187.548 412.33 194.535C416.613 187.548 422.907 184.054 431.212 184.054C443.432 184.054 449.543 191.592 449.543 206.667V241.627Z" fill="black"/>
<path d="M467.55 176.532C464.623 176.532 462.226 175.664 460.361 173.927C459.463 173.124 458.748 172.138 458.264 171.034C457.781 169.931 457.541 168.737 457.56 167.532C457.56 164.932 458.493 162.81 460.361 161.165C462.228 159.521 464.625 158.697 467.55 158.695C470.514 158.695 472.924 159.519 474.779 161.165C476.634 162.812 477.559 164.934 477.553 167.532C477.553 170.165 476.628 172.323 474.779 174.008C472.93 175.693 470.52 176.534 467.55 176.532ZM476.113 241.626H458.764V185.423H476.11L476.113 241.626Z" fill="black"/>
<path d="M522.437 240.97C519.875 242.322 516.014 242.998 510.856 243C498.633 243 492.523 236.652 492.525 223.956V198.213H483.414V185.424H492.525V173.295L509.814 168.355V185.424H522.437V198.213H509.814V220.935C509.814 226.79 512.137 229.718 516.783 229.718C518.613 229.718 520.497 229.188 522.437 228.127V240.97Z" fill="black"/>
<path d="M538.742 176.532C535.814 176.532 533.418 175.664 531.552 173.927C530.654 173.124 529.939 172.138 529.456 171.034C528.972 169.931 528.732 168.737 528.751 167.532C528.751 164.932 529.685 162.81 531.552 161.165C533.42 159.521 535.816 158.697 538.742 158.695C541.705 158.695 544.115 159.519 545.97 161.165C547.826 162.812 548.749 164.934 548.741 167.532C548.741 170.165 547.818 172.323 545.97 174.008C544.123 175.693 541.713 176.534 538.742 176.532ZM547.317 241.626H529.971V185.423H547.317V241.626Z" fill="black"/>
<path d="M604.168 241.627H553.727V234.437L581.955 198.213H556.543V185.424H603.942V193.987L577.214 228.838H604.162L604.168 241.627Z" fill="black"/>
<path d="M661.743 218.465H625.082C625.666 226.628 630.806 230.708 640.503 230.706C646.685 230.706 652.119 229.242 656.803 226.314V238.829C651.609 241.61 644.858 243 636.551 243C627.477 243 620.434 240.484 615.422 235.453C610.411 230.421 607.901 223.405 607.893 214.405C607.893 205.074 610.603 197.683 616.025 192.231C621.446 186.78 628.106 184.054 636.003 184.054C644.199 184.054 650.539 186.486 655.02 191.352C659.502 196.217 661.743 202.822 661.743 211.167V218.465ZM645.662 207.818C645.662 199.77 642.406 195.745 635.895 195.743C633.112 195.743 630.702 196.896 628.666 199.201C626.63 201.506 625.395 204.378 624.961 207.818H645.662Z" fill="black"/>
<path d="M189.953 233.076H104.296C103.182 233.105 102.123 233.569 101.346 234.367C100.568 235.166 100.133 236.237 100.133 237.351C100.133 238.466 100.568 239.536 101.346 240.335C102.123 241.134 103.182 241.597 104.296 241.627H189.953C190.524 241.642 191.092 241.542 191.624 241.334C192.156 241.126 192.641 240.814 193.05 240.415C193.46 240.017 193.785 239.54 194.007 239.014C194.229 238.488 194.343 237.922 194.343 237.351C194.343 236.78 194.229 236.215 194.007 235.688C193.785 235.162 193.46 234.686 193.05 234.287C192.641 233.889 192.156 233.576 191.624 233.368C191.092 233.16 190.524 233.061 189.953 233.076Z" fill="black"/>
<path d="M189.951 215.64H104.295C103.16 215.64 102.072 216.09 101.27 216.892C100.468 217.694 100.018 218.782 100.018 219.917C100.018 221.051 100.468 222.139 101.27 222.941C102.072 223.743 103.16 224.194 104.295 224.194H189.951C191.086 224.194 192.173 223.743 192.976 222.941C193.778 222.139 194.228 221.051 194.228 219.917C194.228 218.782 193.778 217.694 192.976 216.892C192.173 216.09 191.086 215.64 189.951 215.64Z" fill="black"/>
<path d="M104.296 206.757H189.953C190.524 206.773 191.092 206.673 191.624 206.465C192.156 206.257 192.641 205.945 193.05 205.546C193.46 205.148 193.785 204.671 194.007 204.145C194.229 203.619 194.343 203.053 194.343 202.482C194.343 201.911 194.229 201.345 194.007 200.819C193.785 200.293 193.46 199.816 193.05 199.418C192.641 199.019 192.156 198.707 191.624 198.499C191.092 198.291 190.524 198.191 189.953 198.207H104.296C103.182 198.236 102.123 198.7 101.346 199.498C100.568 200.297 100.133 201.367 100.133 202.482C100.133 203.597 100.568 204.667 101.346 205.466C102.123 206.264 103.182 206.728 104.296 206.757Z" fill="black"/>
<path d="M108.852 191.595C108.852 191.51 108.852 191.429 108.852 191.342C108.858 185.057 111.16 178.992 115.324 174.286C119.489 169.58 125.23 166.558 131.467 165.788C137.704 165.018 144.007 166.553 149.191 170.105C154.375 173.656 158.084 178.98 159.618 185.074C162.09 183.536 164.922 182.671 167.832 182.565C167.832 182.565 167.832 182.547 167.832 182.538C168.133 182.52 168.434 182.481 168.735 182.481C171.303 182.483 173.833 183.098 176.115 184.275C178.398 185.451 180.366 187.155 181.858 189.245C182.417 189.986 182.915 190.772 183.346 191.595H192.433C190.713 185.77 186.902 180.785 181.733 177.597C176.564 174.409 170.399 173.241 164.422 174.318C160.667 167.742 154.844 162.591 147.858 159.668C140.873 156.745 133.117 156.213 125.797 158.155C118.478 160.098 112.006 164.405 107.389 170.407C102.771 176.409 100.268 183.769 100.268 191.342C100.268 191.429 100.268 191.51 100.268 191.595H108.852Z" fill="black"/>
</g>
<defs>
<clipPath id="clip0_658_22985">
<rect width="561.724" height="86" fill="white" transform="translate(100.021 157)"/>
</clipPath>
</defs>
</svg>
