<svg width="763" height="231" viewBox="0 0 763 231" fill="none" xmlns="http://www.w3.org/2000/svg">
<g clip-path="url(#clip0_658_22985)">
<path d="M250.59 87.2044C248.552 86.3638 246.373 85.9162 244.169 85.8852C238.607 85.8852 235.826 88.9042 235.826 94.9421V100.924H248.672V113.713H235.826V157.127H218.537V113.713H209.098V100.924H218.537V93.9542C218.537 87.5508 220.623 82.3914 224.796 78.4758C228.968 74.5603 234.64 72.6025 241.81 72.6025C245.322 72.6025 248.249 72.969 250.59 73.7019V87.2044Z" fill="black"/>
<path d="M281.551 158.5C272.184 158.5 264.82 155.875 259.459 150.624C254.098 145.373 251.418 138.245 251.42 129.239C251.42 119.947 254.2 112.675 259.76 107.424C265.32 102.173 272.836 99.5497 282.307 99.5537C291.638 99.5537 298.956 102.179 304.261 107.43C309.566 112.681 312.219 119.623 312.219 128.258C312.219 137.589 309.484 144.962 304.014 150.377C298.545 155.793 291.057 158.5 281.551 158.5ZM282.006 112.836C277.908 112.836 274.724 114.242 272.455 117.053C270.186 119.864 269.052 123.852 269.052 129.017C269.052 139.811 273.406 145.209 282.115 145.209C290.422 145.209 294.574 139.666 294.572 128.58C294.562 118.084 290.373 112.836 282.006 112.836Z" fill="black"/>
<path d="M355.651 116.567C353.564 115.431 351.131 114.864 348.35 114.866C344.583 114.866 341.637 116.247 339.513 119.01C337.388 121.773 336.327 125.532 336.329 130.287V157.126H318.986V100.923H336.329V111.354H336.549C339.294 103.742 344.233 99.9355 351.368 99.9355C353.199 99.9355 354.624 100.155 355.651 100.595V116.567Z" fill="black"/>
<path d="M450.488 157.127H433.205V125.074C433.205 116.916 430.206 112.836 424.206 112.836C421.35 112.836 419.026 114.062 417.233 116.514C415.44 118.966 414.539 122.021 414.531 125.679V157.127H397.186V124.74C397.186 116.8 394.24 112.83 388.349 112.83C386.968 112.792 385.598 113.092 384.36 113.704C383.121 114.316 382.052 115.222 381.243 116.342C379.466 118.686 378.579 121.869 378.581 125.893V157.127H361.244V100.924H378.59V109.707H378.81C380.715 106.601 383.386 104.037 386.567 102.259C389.747 100.481 393.331 99.5495 396.975 99.5537C404.914 99.5537 410.348 103.048 413.275 110.035C417.558 103.048 423.852 99.5537 432.157 99.5537C444.378 99.5537 450.488 107.092 450.488 122.167V157.127Z" fill="black"/>
<path d="M468.496 92.032C465.568 92.032 463.171 91.1636 461.306 89.4267C460.408 88.6241 459.693 87.6377 459.21 86.5344C458.726 85.4311 458.486 84.2367 458.505 83.0323C458.505 80.432 459.439 78.3096 461.306 76.6651C463.173 75.0206 465.57 74.1973 468.496 74.1953C471.459 74.1953 473.869 75.0186 475.724 76.6651C477.58 78.3116 478.504 80.434 478.498 83.0323C478.498 85.6648 477.574 87.8233 475.724 89.508C473.875 91.1927 471.465 92.034 468.496 92.032ZM477.059 157.126H459.71V100.923H477.056L477.059 157.126Z" fill="black"/>
<path d="M523.382 156.47C520.82 157.822 516.96 158.498 511.801 158.5C499.579 158.5 493.469 152.152 493.471 139.456V113.713H484.359V100.924H493.471V88.7951L510.759 83.8555V100.924H523.382V113.713H510.759V136.435C510.759 142.29 513.082 145.218 517.729 145.218C519.558 145.218 521.442 144.688 523.382 143.627V156.47Z" fill="black"/>
<path d="M539.687 92.032C536.759 92.032 534.363 91.1636 532.497 89.4267C531.599 88.6241 530.884 87.6377 530.401 86.5344C529.918 85.4311 529.677 84.2367 529.696 83.0323C529.696 80.432 530.63 78.3096 532.497 76.6651C534.365 75.0206 536.761 74.1973 539.687 74.1953C542.651 74.1953 545.06 75.0186 546.916 76.6651C548.771 78.3116 549.695 80.434 549.687 83.0323C549.687 85.6648 548.763 87.8233 546.916 89.508C545.068 91.1927 542.659 92.034 539.687 92.032ZM548.262 157.126H530.916V100.923H548.262V157.126Z" fill="black"/>
<path d="M605.113 157.127H554.672V149.937L582.9 113.713H557.488V100.924H604.887V109.487L578.159 144.338H605.107L605.113 157.127Z" fill="black"/>
<path d="M662.688 133.965H626.027C626.611 142.128 631.752 146.208 641.448 146.206C647.631 146.206 653.064 144.742 657.749 141.814V154.329C652.554 157.11 645.803 158.5 637.497 158.5C628.423 158.5 621.38 155.984 616.368 150.953C611.356 145.921 608.846 138.905 608.838 129.905C608.838 120.574 611.549 113.183 616.97 107.731C622.392 102.28 629.051 99.5537 636.948 99.5537C645.145 99.5537 651.484 101.986 655.966 106.852C660.447 111.717 662.688 118.322 662.688 126.667V133.965ZM646.608 123.318C646.608 115.27 643.352 111.245 636.84 111.243C634.057 111.243 631.647 112.396 629.611 114.701C627.575 117.006 626.34 119.878 625.907 123.318H646.608Z" fill="black"/>
<path d="M190.898 148.576H105.242C104.127 148.605 103.069 149.069 102.291 149.867C101.513 150.666 101.078 151.737 101.078 152.851C101.078 153.966 101.513 155.036 102.291 155.835C103.069 156.634 104.127 157.097 105.242 157.127H190.898C191.469 157.142 192.038 157.042 192.57 156.834C193.102 156.626 193.586 156.314 193.996 155.915C194.405 155.517 194.73 155.04 194.952 154.514C195.174 153.988 195.289 153.422 195.289 152.851C195.289 152.28 195.174 151.715 194.952 151.188C194.73 150.662 194.405 150.186 193.996 149.787C193.586 149.389 193.102 149.076 192.57 148.868C192.038 148.66 191.469 148.561 190.898 148.576Z" fill="black"/>
<path d="M190.897 131.14H105.24C104.106 131.14 103.018 131.59 102.216 132.392C101.413 133.194 100.963 134.282 100.963 135.417C100.963 136.551 101.413 137.639 102.216 138.441C103.018 139.243 104.106 139.694 105.24 139.694H190.897C192.031 139.694 193.119 139.243 193.921 138.441C194.723 137.639 195.174 136.551 195.174 135.417C195.174 134.282 194.723 133.194 193.921 132.392C193.119 131.59 192.031 131.14 190.897 131.14Z" fill="black"/>
<path d="M105.242 122.257H190.898C191.469 122.273 192.038 122.173 192.57 121.965C193.102 121.757 193.586 121.445 193.996 121.046C194.405 120.648 194.73 120.171 194.952 119.645C195.174 119.119 195.289 118.553 195.289 117.982C195.289 117.411 195.174 116.845 194.952 116.319C194.73 115.793 194.405 115.316 193.996 114.918C193.586 114.519 193.102 114.207 192.57 113.999C192.038 113.791 191.469 113.691 190.898 113.707H105.242C104.127 113.736 103.069 114.2 102.291 114.998C101.513 115.797 101.078 116.867 101.078 117.982C101.078 119.097 101.513 120.167 102.291 120.966C103.069 121.764 104.127 122.228 105.242 122.257Z" fill="black"/>
<path d="M109.797 107.095C109.797 107.01 109.797 106.929 109.797 106.842C109.803 100.557 112.105 94.492 116.27 89.786C120.435 85.0801 126.175 82.0579 132.412 81.2879C138.649 80.5178 144.952 82.053 150.137 85.6047C155.321 89.1564 159.029 94.4798 160.563 100.574C163.036 99.0362 165.867 98.1713 168.777 98.0649C168.777 98.0649 168.777 98.0468 168.777 98.0378C169.078 98.0197 169.379 97.9805 169.68 97.9805C172.248 97.9832 174.778 98.5984 177.061 99.7749C179.343 100.951 181.312 102.655 182.803 104.745C183.363 105.486 183.86 106.272 184.291 107.095H193.378C191.658 101.27 187.848 96.2855 182.678 93.0971C177.509 89.9088 171.345 88.7412 165.367 89.8182C161.613 83.242 155.789 78.0915 148.804 75.1683C141.818 72.2451 134.062 71.7132 126.743 73.6554C119.423 75.5976 112.951 79.9049 108.334 85.9069C103.717 91.909 101.213 99.2691 101.213 106.842C101.213 106.929 101.213 107.01 101.213 107.095H109.797Z" fill="black"/>
</g>
<defs>
<clipPath id="clip0_658_22985">
<rect width="561.724" height="86" fill="white" transform="translate(100.967 72.5)"/>
</clipPath>
</defs>
</svg>
