<svg width="729" height="231" viewBox="0 0 729 231" fill="none" xmlns="http://www.w3.org/2000/svg">
<path d="M540.061 91.2402V99.8162C535.006 93.2373 527.369 89.7129 517.849 89.7129C499.871 89.7129 486.357 104.046 486.357 123.547C486.357 143.519 499.752 158.204 517.849 158.204C527.369 158.204 535.006 154.444 540.061 147.748V156.559H553.456V91.2402H540.061ZM520.553 146.338C508.683 146.338 500.341 136.94 500.341 123.665C500.341 110.742 508.566 101.813 520.553 101.813C531.832 101.813 540.53 110.977 540.53 124.017C540.53 136.94 531.952 146.338 520.553 146.338Z" fill="black"/>
<path d="M477.438 122.255C477.438 102.871 464.393 89.7129 444.769 89.7129C424.556 89.7129 410.338 103.81 410.338 123.782C410.338 144.223 424.204 158.086 444.416 158.086C459.577 158.086 471.092 150.568 475.675 137.292H460.987C458.047 143.284 452.406 146.456 444.533 146.456C433.606 146.456 425.733 139.407 424.676 128.951H477.086C477.319 127.072 477.438 124.839 477.438 122.255ZM424.676 118.025C426.086 108.392 434.312 101.226 444.769 101.226C456.168 101.226 463.572 108.157 463.688 118.025H424.676Z" fill="black"/>
<path d="M567.314 156.559H581.065V119.788C581.065 108.745 588.116 101.696 599.046 101.696C609.15 101.696 614.439 107.805 614.439 119.788V156.676H628.186V117.908C628.186 100.521 618.081 89.7129 601.514 89.7129C592.699 89.7129 585.648 93.2373 581.065 99.4637V91.2402H567.314V156.559Z" fill="black"/>
<path d="M204.695 61.8709C189.301 57.2891 174.964 55.292 158.865 55.292C140.886 55.292 122.789 58.2288 111.743 66.2176C103.987 71.9742 100.932 77.9656 100.932 87.7165C100.932 112.035 120.321 150.568 140.533 167.133C147.819 173.124 155.575 175.709 166.151 175.709C195.294 175.709 235.366 154.798 245.942 134.474C249.585 127.542 251.465 119.436 251.465 111.447C251.583 87.0115 236.894 71.3867 204.695 61.8709ZM137.125 109.45C126.549 109.45 119.146 101.931 119.146 91.4759C119.146 81.0201 126.667 73.5015 137.125 73.5015C147.702 73.5015 155.105 81.0201 155.105 91.4759C155.105 102.049 147.702 109.45 137.125 109.45Z" fill="black"/>
<path d="M399.052 73.4854H385.303V156.544H399.052V73.4854Z" fill="black"/>
<path d="M331.26 158.435C355.702 158.435 373.799 140.108 373.799 115.437C373.799 113.792 373.799 111.678 373.564 109.446H326.442V121.664H359.11C357.112 136.583 346.654 145.629 331.26 145.629C313.868 145.629 302.234 133.177 302.234 114.967C302.234 96.6404 313.868 84.3049 331.26 84.3049C341.836 84.3049 350.179 88.8867 354.409 97.1102H370.744C364.516 81.1329 349.826 71.6172 331.26 71.6172C306.464 71.6172 287.545 90.4139 287.545 114.967C287.545 140.578 305.759 158.435 331.26 158.435Z" fill="black"/>
</svg>
