<svg width="729" height="400" viewBox="0 0 729 400" fill="none" xmlns="http://www.w3.org/2000/svg">
<rect width="727.255" height="400" transform="translate(0.931641)" fill="white"/>
<path d="M540.061 175.74V184.316C535.006 177.737 527.369 174.213 517.849 174.213C499.871 174.213 486.357 188.546 486.357 208.047C486.357 228.019 499.752 242.704 517.849 242.704C527.369 242.704 535.006 238.944 540.061 232.248V241.059H553.456V175.74H540.061ZM520.553 230.838C508.683 230.838 500.341 221.44 500.341 208.165C500.341 195.242 508.566 186.313 520.553 186.313C531.832 186.313 540.53 195.477 540.53 208.517C540.53 221.44 531.952 230.838 520.553 230.838Z" fill="black"/>
<path d="M477.438 206.755C477.438 187.371 464.393 174.213 444.769 174.213C424.556 174.213 410.338 188.31 410.338 208.282C410.338 228.723 424.204 242.586 444.416 242.586C459.577 242.586 471.092 235.068 475.675 221.792H460.987C458.047 227.784 452.406 230.956 444.533 230.956C433.606 230.956 425.733 223.907 424.676 213.451H477.086C477.319 211.572 477.438 209.339 477.438 206.755ZM424.676 202.525C426.086 192.892 434.312 185.726 444.769 185.726C456.168 185.726 463.572 192.657 463.688 202.525H424.676Z" fill="black"/>
<path d="M567.314 241.059H581.065V204.288C581.065 193.245 588.116 186.196 599.046 186.196C609.15 186.196 614.439 192.305 614.439 204.288V241.176H628.186V202.408C628.186 185.021 618.081 174.213 601.514 174.213C592.699 174.213 585.648 177.737 581.065 183.964V175.74H567.314V241.059Z" fill="black"/>
<path d="M204.695 146.371C189.301 141.789 174.964 139.792 158.865 139.792C140.886 139.792 122.789 142.729 111.743 150.718C103.987 156.474 100.932 162.466 100.932 172.216C100.932 196.535 120.321 235.068 140.533 251.633C147.819 257.624 155.575 260.209 166.151 260.209C195.294 260.209 235.366 239.298 245.942 218.974C249.585 212.042 251.465 203.936 251.465 195.947C251.583 171.512 236.894 155.887 204.695 146.371ZM137.125 193.95C126.549 193.95 119.146 186.431 119.146 175.976C119.146 165.52 126.667 158.002 137.125 158.002C147.702 158.002 155.105 165.52 155.105 175.976C155.105 186.549 147.702 193.95 137.125 193.95Z" fill="black"/>
<path d="M399.052 157.985H385.303V241.044H399.052V157.985Z" fill="black"/>
<path d="M331.26 242.935C355.702 242.935 373.799 224.608 373.799 199.937C373.799 198.292 373.799 196.178 373.564 193.946H326.442V206.164H359.11C357.112 221.083 346.654 230.129 331.26 230.129C313.868 230.129 302.234 217.677 302.234 199.467C302.234 181.14 313.868 168.805 331.26 168.805C341.836 168.805 350.179 173.387 354.409 181.61H370.744C364.516 165.633 349.826 156.117 331.26 156.117C306.464 156.117 287.545 174.914 287.545 199.467C287.545 225.078 305.759 242.935 331.26 242.935Z" fill="black"/>
</svg>
