<svg width="493" height="400" viewBox="0 0 493 400" fill="none" xmlns="http://www.w3.org/2000/svg">
<rect width="492.5" height="400" transform="translate(0.1875)" fill="white"/>
<path d="M247.511 237.77C244.525 235.505 241.45 233.161 233.456 231.019C225.462 228.877 221.601 229.363 217.908 229.838C216.85 229.969 215.767 230.093 214.613 230.171C211.002 232.713 208.529 236.888 207.999 241.444C207.69 244.042 209.378 246.512 211.931 247.196C212.188 247.265 212.453 247.308 212.744 247.358C215.452 247.669 217.693 247.247 219.465 246.617C219.864 249.46 221.16 252.875 224.694 255.674C225.263 256.13 225.898 256.439 226.621 256.632C227.343 256.825 228.048 256.876 228.768 256.765C233.221 256.134 236.058 253.799 237.825 251.536C239.044 252.969 240.781 254.429 243.275 255.539C243.519 255.66 243.777 255.729 244.061 255.805C246.614 256.489 249.31 255.194 250.341 252.79C252.135 248.572 252.106 243.727 250.25 239.72C249.238 239.062 248.388 238.419 247.511 237.77Z" fill="white"/>
<path d="M365.643 235.912C360.33 235.912 357.26 234.658 354.27 233.456C350.8 232.041 347.222 230.573 338.946 230.573C330.671 230.573 327.066 232.041 323.623 233.456C320.659 234.658 317.589 235.912 312.25 235.912C306.19 235.912 301.518 234.31 298.341 231.134C295.164 227.957 293.562 223.285 293.562 217.225C293.562 217.038 293.589 199.472 296.259 182.119C300.05 157.585 307.204 145.145 317.589 145.145C324.023 145.145 327.44 148.535 330.163 151.258C332.699 153.821 334.702 155.823 338.946 155.823C343.191 155.823 345.193 153.821 347.73 151.258C350.453 148.535 353.87 145.145 360.304 145.145C370.689 145.145 377.843 157.585 381.634 182.119C384.304 199.472 384.33 217.065 384.33 217.225C384.33 223.285 382.729 227.957 379.552 231.134C376.375 234.31 371.703 235.912 365.643 235.912Z" fill="black"/>
<path d="M256.82 241.331C251.688 239.956 249.047 237.95 246.47 236.015C243.484 233.75 240.409 231.406 232.415 229.264C224.421 227.122 220.56 227.608 216.867 228.083C213.694 228.477 210.403 228.894 205.246 227.512C199.392 225.944 195.294 223.187 193.048 219.296C190.802 215.405 190.464 210.478 192.032 204.625C196.115 189.385 205.724 173.331 217.73 161.734C230.521 149.38 243.927 143.907 254.525 146.747C265.124 149.586 273.997 161.029 278.897 178.124C283.49 194.196 283.791 212.877 279.707 228.117C278.139 233.971 275.382 238.069 271.491 240.315C267.6 242.562 262.673 242.9 256.82 241.331Z" fill="black"/>
<path d="M146.732 235.912C137.816 235.912 128.739 232.922 121.771 227.69C113.762 221.71 109.357 213.247 109.357 203.877C109.357 196.482 113.549 187.859 125.375 187.859C131.889 187.859 133.384 186.364 133.384 179.85V169.171C133.384 151.658 139.898 145.145 157.411 145.145C174.924 145.145 181.438 151.658 181.438 169.171V201.207C181.438 212.58 178.474 221.283 172.655 227.129C166.808 232.949 158.105 235.912 146.732 235.912Z" fill="black"/>
<path d="M227.53 192.622C226.241 192.277 223.662 191.586 221.935 198.033C220.207 204.479 222.786 205.17 224.075 205.516C225.364 205.861 227.943 206.552 229.671 200.105C231.398 193.659 228.819 192.968 227.53 192.622Z" fill="white"/>
<path d="M250.737 198.84C249.447 198.495 246.869 197.804 245.142 204.25C243.414 210.697 245.993 211.388 247.282 211.733C248.572 212.079 251.15 212.77 252.878 206.323C254.605 199.876 252.026 199.185 250.737 198.84Z" fill="white"/>
<path d="M244.661 175.102C243.372 174.756 240.793 174.065 239.065 180.512C237.338 186.959 239.917 187.65 241.206 187.995C242.495 188.341 245.074 189.032 246.802 182.585C248.529 176.138 245.95 175.447 244.661 175.102Z" fill="white"/>
<path d="M360.303 147.814C381.661 147.814 381.661 217.225 381.661 217.225C381.661 227.903 376.321 233.243 365.643 233.243C354.964 233.243 354.964 227.903 338.946 227.903C322.928 227.903 322.928 233.243 312.25 233.243C301.571 233.243 296.232 227.903 296.232 217.225C296.232 217.225 296.232 147.814 317.589 147.814C328.268 147.814 328.268 158.492 338.946 158.492C349.625 158.492 349.625 147.814 360.303 147.814ZM360.303 142.475C352.748 142.475 348.771 146.452 345.86 149.389C343.244 152.005 341.936 153.153 338.946 153.153C335.956 153.153 334.648 152.005 332.032 149.389C329.122 146.452 325.144 142.475 317.589 142.475C313.638 142.475 310.06 143.97 306.91 146.88C304.428 149.175 302.292 152.299 300.397 156.41C297.54 162.63 295.244 171.12 293.615 181.692C290.919 199.258 290.893 216.504 290.893 217.225C290.893 224.005 292.761 229.318 296.472 233.002C300.156 236.713 305.469 238.582 312.25 238.582C318.096 238.582 321.567 237.167 324.61 235.912C327.974 234.524 331.177 233.243 338.946 233.243C346.715 233.243 349.892 234.551 353.282 235.912C356.352 237.167 359.796 238.582 365.643 238.582C372.423 238.582 377.736 236.713 381.42 233.002C385.104 229.318 387 224.005 387 217.225C387 216.504 386.973 199.258 384.277 181.718C382.648 171.146 380.379 162.63 377.496 156.437C375.6 152.326 373.465 149.202 370.982 146.906C367.832 143.97 364.254 142.475 360.303 142.475Z" fill="black"/>
<path d="M285.368 203.123C285.184 194.423 283.869 185.613 281.6 177.681C279.245 169.45 275.858 162.185 271.787 156.645C267.038 150.231 261.506 146.123 255.342 144.472C249.179 142.821 242.334 143.612 235.041 146.798C228.745 149.561 222.179 154.159 216.024 160.11C210.093 165.845 204.549 172.817 200.04 180.259C195.305 188.028 191.701 196.321 189.58 204.238C187.825 210.788 188.255 216.403 190.885 220.922C193.484 225.46 198.132 228.64 204.681 230.395C205.764 230.685 206.758 230.896 207.707 231.067C205.955 233.583 204.798 236.562 204.435 239.67C203.967 243.58 206.508 247.301 210.324 248.324C210.711 248.428 211.131 248.512 211.538 248.539C213.394 248.732 215.098 248.663 216.572 248.422C217.569 251.509 219.447 254.195 222.119 256.293C222.988 256.968 223.939 257.444 224.996 257.727C226.053 258.011 227.14 258.081 228.205 257.924C231.567 257.443 234.537 256.055 236.944 253.881C238.126 254.833 239.542 255.738 241.245 256.498C241.618 256.654 242.023 256.79 242.41 256.894C246.226 257.916 250.287 255.964 251.838 252.344C253.077 249.471 253.565 246.312 253.305 243.257C254.213 243.584 255.179 243.898 256.262 244.188C262.812 245.943 268.427 245.513 272.946 242.882C277.477 240.31 280.657 235.662 282.412 229.112C284.533 221.196 285.559 212.212 285.368 203.123ZM246.925 250.254C246.399 251.495 245.049 252.101 243.785 251.762C243.656 251.728 243.527 251.693 243.405 251.633C237.768 249.155 236.822 244.534 236.822 244.534C236.822 244.534 234.936 251.574 227.432 252.659C227.062 252.698 226.706 252.686 226.371 252.596C226.036 252.506 225.695 252.332 225.42 252.12C219.464 247.429 221.35 240.389 221.35 240.389C221.35 240.389 218.221 243.917 212.1 243.244C211.964 243.236 211.835 243.201 211.706 243.166C210.443 242.828 209.576 241.628 209.741 240.291C210.206 236.491 212.196 233.293 214.665 231.301C215.598 231.219 216.481 231.124 217.312 231.015C220.92 230.545 224.346 230.136 231.85 232.147C239.354 234.157 242.084 236.243 245.007 238.436C245.697 238.953 246.381 239.495 247.156 240.007C248.298 242.966 248.448 246.738 246.925 250.254ZM257.637 239.057C247.322 236.293 248.704 231.135 233.232 226.99C217.76 222.844 216.378 228.001 206.063 225.238C195.748 222.474 191.973 215.934 194.737 205.62C203.028 174.676 233.331 144.102 253.961 149.629C274.59 155.157 285.546 196.786 277.255 227.73C274.491 238.045 267.951 241.82 257.637 239.057Z" fill="black"/>
<path d="M157.411 147.814C173.429 147.814 178.768 153.153 178.768 169.171V201.207C178.768 222.564 168.089 233.243 146.732 233.243C130.714 233.243 112.027 222.564 112.027 203.877C112.027 198.537 114.696 190.528 125.375 190.528C133.384 190.528 136.054 187.859 136.054 179.85V169.171C136.054 153.153 141.393 147.814 157.411 147.814ZM157.411 142.475C147.56 142.475 141.259 144.397 136.961 148.722C132.636 153.02 130.714 159.32 130.714 169.171V179.85C130.714 183.454 130.074 184.281 129.94 184.415C129.807 184.548 128.979 185.189 125.375 185.189C112.454 185.189 106.688 194.586 106.688 203.877C106.688 214.101 111.466 223.312 120.169 229.825C127.591 235.378 137.255 238.582 146.732 238.582C158.826 238.582 168.169 235.351 174.523 228.998C180.877 222.644 184.107 213.3 184.107 201.207V169.171C184.107 159.32 182.185 153.02 177.86 148.722C173.562 144.397 167.262 142.475 157.411 142.475Z" fill="black"/>
</svg>
