<svg width="493" height="231" viewBox="0 0 493 231" fill="none" xmlns="http://www.w3.org/2000/svg">
<path d="M365.643 151.412C360.33 151.412 357.26 150.158 354.27 148.956C350.8 147.541 347.222 146.073 338.946 146.073C330.671 146.073 327.066 147.541 323.623 148.956C320.659 150.158 317.589 151.412 312.25 151.412C306.19 151.412 301.518 149.81 298.341 146.634C295.164 143.457 293.562 138.785 293.562 132.725C293.562 132.538 293.589 114.972 296.259 97.619C300.05 73.0851 307.204 60.6445 317.589 60.6445C324.023 60.6445 327.44 64.035 330.163 66.758C332.699 69.3209 334.702 71.3231 338.946 71.3231C343.191 71.3231 345.193 69.3209 347.73 66.758C350.453 64.035 353.87 60.6445 360.304 60.6445C370.689 60.6445 377.843 73.0851 381.634 97.619C384.304 114.972 384.33 132.565 384.33 132.725C384.33 138.785 382.729 143.457 379.552 146.634C376.375 149.81 371.703 151.412 365.643 151.412Z" fill="black"/>
<path d="M146.732 151.412C137.816 151.412 128.739 148.422 121.771 143.19C113.762 137.21 109.357 128.747 109.357 119.377C109.357 111.982 113.549 103.359 125.375 103.359C131.889 103.359 133.384 101.864 133.384 95.3499V84.6714C133.384 67.1585 139.898 60.6445 157.411 60.6445C174.924 60.6445 181.438 67.1585 181.438 84.6714V116.707C181.438 128.08 178.474 136.783 172.655 142.629C166.808 148.449 158.105 151.412 146.732 151.412Z" fill="black"/>
<path d="M360.303 63.3139C381.661 63.3139 381.661 132.725 381.661 132.725C381.661 143.403 376.321 148.743 365.643 148.743C354.964 148.743 354.964 143.403 338.946 143.403C322.928 143.403 322.928 148.743 312.25 148.743C301.571 148.743 296.232 143.403 296.232 132.725C296.232 132.725 296.232 63.3139 317.589 63.3139C328.268 63.3139 328.268 73.9925 338.946 73.9925C349.625 73.9925 349.625 63.3139 360.303 63.3139ZM360.303 57.9746C352.748 57.9746 348.771 61.9524 345.86 64.889C343.244 67.5052 341.936 68.6532 338.946 68.6532C335.956 68.6532 334.648 67.5052 332.032 64.889C329.122 61.9524 325.144 57.9746 317.589 57.9746C313.638 57.9746 310.06 59.4696 306.91 62.3795C304.428 64.6754 302.292 67.7989 300.397 71.9102C297.54 78.1304 295.244 86.6198 293.615 97.1917C290.919 114.758 290.893 132.004 290.893 132.725C290.893 139.505 292.761 144.818 296.472 148.502C300.156 152.213 305.469 154.082 312.25 154.082C318.096 154.082 321.567 152.667 324.61 151.412C327.974 150.024 331.177 148.743 338.946 148.743C346.715 148.743 349.892 150.051 353.282 151.412C356.352 152.667 359.796 154.082 365.643 154.082C372.423 154.082 377.736 152.213 381.42 148.502C385.104 144.818 387 139.505 387 132.725C387 132.004 386.973 114.758 384.277 97.2184C382.648 86.6464 380.379 78.1304 377.496 71.9368C375.6 67.8256 373.465 64.7021 370.982 62.4062C367.832 59.4696 364.254 57.9746 360.303 57.9746Z" fill="black"/>
<path d="M285.368 118.623C285.184 109.923 283.869 101.113 281.6 93.1809C279.245 84.9496 275.858 77.685 271.787 72.1445C267.038 65.7314 261.506 61.6233 255.342 59.9719C249.179 58.3205 242.334 59.112 235.041 62.2984C228.745 65.0613 222.179 69.6587 216.024 75.61C210.093 81.3448 204.549 88.3166 200.04 95.7591C195.305 103.528 191.701 111.821 189.58 119.738C187.825 126.288 188.255 131.903 190.885 136.422C193.484 140.96 198.132 144.14 204.681 145.895C205.764 146.185 206.758 146.396 207.707 146.567C205.955 149.083 204.798 152.062 204.435 155.17C203.967 159.08 206.508 162.801 210.324 163.824C210.711 163.928 211.131 164.012 211.538 164.039C213.394 164.232 215.098 164.163 216.572 163.922C217.569 167.009 219.447 169.695 222.119 171.793C222.988 172.468 223.939 172.944 224.996 173.227C226.053 173.511 227.14 173.581 228.205 173.424C231.567 172.943 234.537 171.555 236.944 169.381C238.126 170.333 239.542 171.238 241.245 171.998C241.618 172.154 242.023 172.29 242.41 172.394C246.226 173.416 250.287 171.464 251.838 167.844C253.077 164.971 253.565 161.812 253.305 158.757C254.213 159.084 255.179 159.398 256.262 159.688C262.812 161.443 268.427 161.013 272.946 158.382C277.477 155.81 280.657 151.162 282.412 144.612C284.533 136.696 285.559 127.712 285.368 118.623ZM246.925 165.754C246.399 166.995 245.049 167.601 243.785 167.262C243.656 167.228 243.527 167.193 243.405 167.133C237.768 164.655 236.822 160.034 236.822 160.034C236.822 160.034 234.936 167.074 227.432 168.159C227.062 168.198 226.706 168.186 226.371 168.096C226.036 168.006 225.695 167.832 225.42 167.62C219.464 162.929 221.35 155.889 221.35 155.889C221.35 155.889 218.221 159.417 212.1 158.744C211.964 158.736 211.835 158.701 211.706 158.666C210.443 158.328 209.576 157.128 209.741 155.791C210.206 151.991 212.196 148.793 214.665 146.801C215.598 146.719 216.481 146.624 217.312 146.515C220.92 146.045 224.346 145.636 231.85 147.647C239.354 149.657 242.084 151.743 245.007 153.936C245.697 154.453 246.381 154.995 247.156 155.507C248.298 158.466 248.448 162.238 246.925 165.754ZM257.637 154.557C247.322 151.793 248.704 146.635 233.232 142.49C217.76 138.344 216.378 143.501 206.063 140.738C195.748 137.974 191.973 131.434 194.737 121.12C203.028 90.1756 233.331 59.6017 253.961 65.1293C274.59 70.6569 285.546 112.286 277.255 143.23C274.491 153.545 267.951 157.32 257.637 154.557Z" fill="black"/>
<path d="M157.411 63.3139C173.429 63.3139 178.768 68.6532 178.768 84.6711V116.707C178.768 138.064 168.089 148.743 146.732 148.743C130.714 148.743 112.027 138.064 112.027 119.377C112.027 114.037 114.696 106.028 125.375 106.028C133.384 106.028 136.054 103.359 136.054 95.3496V84.6711C136.054 68.6532 141.393 63.3139 157.411 63.3139ZM157.411 57.9746C147.56 57.9746 141.259 59.8968 136.961 64.2216C132.636 68.5197 130.714 74.8201 130.714 84.6711V95.3496C130.714 98.9535 130.074 99.7813 129.94 99.9146C129.807 100.048 128.979 100.689 125.375 100.689C112.454 100.689 106.688 110.086 106.688 119.377C106.688 129.601 111.466 138.812 120.169 145.325C127.591 150.878 137.255 154.082 146.732 154.082C158.826 154.082 168.169 150.851 174.523 144.498C180.877 138.144 184.107 128.8 184.107 116.707V84.6711C184.107 74.8201 182.185 68.5197 177.86 64.2216C173.562 59.8968 167.262 57.9746 157.411 57.9746Z" fill="black"/>
<path fill-rule="evenodd" clip-rule="evenodd" d="M246.544 151.571C249.098 153.488 251.737 155.469 256.82 156.831C262.673 158.4 267.6 158.062 271.491 155.815C275.382 153.569 278.139 149.471 279.707 143.617C283.791 128.377 283.49 109.696 278.897 93.6237C273.997 76.5294 265.124 65.0864 254.525 62.2466C243.927 59.4068 230.521 64.8799 217.73 77.2342C205.724 88.8309 196.115 104.885 192.032 120.125C190.464 125.978 190.802 130.905 193.048 134.796C195.294 138.687 199.392 141.444 205.246 143.012C210.379 144.387 213.663 143.98 216.822 143.589L216.867 143.583C220.56 143.108 224.421 142.622 232.415 144.764C240.385 146.9 243.466 149.237 246.444 151.495L246.47 151.515L246.544 151.571ZM221.935 113.533C223.662 107.086 226.241 107.777 227.53 108.122C228.819 108.468 231.398 109.159 229.671 115.605C227.943 122.052 225.364 121.361 224.075 121.016C222.786 120.67 220.207 119.979 221.935 113.533ZM250.737 114.34C249.447 113.995 246.869 113.304 245.142 119.75C243.414 126.197 245.993 126.888 247.282 127.233C248.572 127.579 251.15 128.27 252.878 121.823C254.605 115.376 252.026 114.685 250.737 114.34ZM239.065 96.012C240.793 89.5653 243.372 90.2563 244.661 90.6017C245.95 90.9472 248.529 91.6382 246.802 98.0849C245.074 104.532 242.495 103.841 241.206 103.495C239.917 103.15 237.338 102.459 239.065 96.012Z" fill="black"/>
</svg>
