<svg width="429" height="231" viewBox="0 0 429 231" fill="none" xmlns="http://www.w3.org/2000/svg">
<path d="M244.961 157.701H166.545V172.526H244.961V157.701Z" fill="black"/>
<path d="M197.783 140.191L195.295 137.782H189.122H187.924V152.513H210.039L201.101 143.619L197.783 140.191Z" fill="black"/>
<path d="M210.037 152.513H244.96V137.782H242.933H225.057L210.037 152.513Z" fill="black"/>
<path d="M242.934 132.872H244.961V118.141L230.033 132.872H242.934Z" fill="black"/>
<path d="M189.398 131.76L187.924 130.278L200.179 118.048H187.924V132.872H189.122H190.412L189.398 131.76Z" fill="black"/>
<path d="M245.053 177.436H166.545V192.26H245.053V177.436Z" fill="black"/>
<path d="M204.877 78.8574H166.545V93.5887H219.621L204.877 78.8574Z" fill="black"/>
<path d="M219.621 98.499H166.545V113.323H204.877L219.621 98.499Z" fill="black"/>
<path d="M161.661 39.2031H146.918V132.872H166.545V118.048H161.661V39.2031Z" fill="black"/>
<path d="M142.034 39.2031H127.291V152.513L166.545 152.606V137.782H142.034V39.2031Z" fill="black"/>
<path d="M187.923 118.048H166.545V132.872H187.923V118.048Z" fill="black"/>
<path d="M187.923 137.782H166.545V152.513H187.923V137.782Z" fill="black"/>
<path d="M302.092 61.81L292.233 51.9893L248.371 96.0902L292.233 140.191L302.092 130.37L267.998 96.0902L302.092 61.81Z" fill="black"/>
<path d="M245.053 99.5176L288.914 143.619L279.516 153.069L244.961 118.14V118.047V99.5176" fill="black"/>
<path d="M244.961 92.6621H245.053L288.914 48.5611L279.147 38.7402L245.053 73.0205L210.867 38.7402L201.1 48.5611L231.231 78.8574H244.961V92.6621Z" fill="black"/>
<path d="M197.783 51.9893L187.924 61.81L204.879 78.8575H224.506L197.783 51.9893Z" fill="black"/>
<path d="M244.961 92.7514L245.05 92.6621H244.961V92.7514Z" fill="white"/>
<path d="M244.961 99.5151H245.05L244.961 99.4258V99.5151Z" fill="white"/>
<path d="M244.962 78.8574H231.232L244.962 92.6622V78.8574Z" fill="black"/>
<path d="M206.905 137.782L201.1 143.619L210.038 152.513L225.058 137.782H206.905Z" fill="black"/>
<path d="M226.532 118.048L211.881 132.872H230.034L244.961 118.141V118.048H226.532Z" fill="black"/>
<path d="M245.054 99.5176H244.962L231.232 113.322H244.962V99.5176" fill="black"/>
<path d="M195.295 137.782L197.783 140.191L200.179 137.782H195.295Z" fill="black"/>
<path d="M219.806 118.048H200.179L187.924 130.278L190.412 132.872H205.063L219.806 118.048Z" fill="black"/>
<path d="M239.157 93.5887L231.878 86.2694L224.506 78.8574H204.879L219.622 93.5887H239.157Z" fill="black"/>
<path d="M239.157 98.499H219.622L204.879 113.323H224.506L239.157 98.499Z" fill="black"/>
<path d="M171.105 78.8574H166.545V192.26H171.105V78.8574Z" fill="#111111"/>
</svg>
