<svg width="429" height="400" viewBox="0 0 429 400" fill="none" xmlns="http://www.w3.org/2000/svg">
<rect width="428" height="400" transform="translate(0.746094)" fill="white"/>
<path d="M245.015 242.201H166.6V257.026H245.015V242.201Z" fill="black"/>
<path d="M197.838 224.691L195.35 222.282H189.176H187.979V237.013H210.093L201.155 228.119L197.838 224.691Z" fill="black"/>
<path d="M210.092 237.013H245.015V222.282H242.988H225.112L210.092 237.013Z" fill="black"/>
<path d="M242.988 217.372H245.016V202.641L230.088 217.372H242.988Z" fill="black"/>
<path d="M189.453 216.26L187.979 214.778L200.234 202.548H187.979V217.372H189.176H190.466L189.453 216.26Z" fill="black"/>
<path d="M245.107 261.936H166.6V276.76H245.107V261.936Z" fill="black"/>
<path d="M204.932 163.357H166.6V178.089H219.675L204.932 163.357Z" fill="black"/>
<path d="M219.675 182.999H166.6V197.823H204.932L219.675 182.999Z" fill="black"/>
<path d="M161.716 123.703H146.973V217.372H166.6V202.548H161.716V123.703Z" fill="black"/>
<path d="M142.089 123.703H127.346V237.013L166.6 237.106V222.282H142.089V123.703Z" fill="black"/>
<path d="M187.977 202.548H166.6V217.372H187.977V202.548Z" fill="black"/>
<path d="M187.977 222.282H166.6V237.013H187.977V222.282Z" fill="black"/>
<path d="M302.146 146.31L292.288 136.489L248.426 180.59L292.288 224.691L302.146 214.87L268.053 180.59L302.146 146.31Z" fill="black"/>
<path d="M245.108 184.018L288.969 228.119L279.57 237.569L245.016 202.64V202.547V184.018" fill="black"/>
<path d="M245.016 177.162H245.108L288.969 133.061L279.201 123.24L245.108 157.52L210.922 123.24L201.154 133.061L231.286 163.357H245.016V177.162Z" fill="black"/>
<path d="M197.838 136.489L187.979 146.31L204.933 163.358H224.56L197.838 136.489Z" fill="black"/>
<path d="M245.016 177.251L245.105 177.162H245.016V177.251Z" fill="white"/>
<path d="M245.016 184.015H245.105L245.016 183.926V184.015Z" fill="white"/>
<path d="M245.017 163.357H231.287L245.017 177.162V163.357Z" fill="black"/>
<path d="M206.959 222.282L201.154 228.119L210.093 237.013L225.112 222.282H206.959Z" fill="black"/>
<path d="M226.587 202.548L211.936 217.372H230.088L245.016 202.641V202.548H226.587Z" fill="black"/>
<path d="M245.109 184.018H245.017L231.287 197.822H245.017V184.018" fill="black"/>
<path d="M195.35 222.282L197.837 224.691L200.233 222.282H195.35Z" fill="black"/>
<path d="M219.861 202.548H200.234L187.979 214.778L190.466 217.372H205.118L219.861 202.548Z" fill="black"/>
<path d="M239.212 178.089L231.932 170.769L224.561 163.357H204.934L219.677 178.089H239.212Z" fill="black"/>
<path d="M239.212 182.999H219.677L204.934 197.823H224.561L239.212 182.999Z" fill="black"/>
<path d="M171.16 163.357H166.6V276.76H171.16V163.357Z" fill="#111111"/>
</svg>
