<svg width="912" height="400" viewBox="0 0 912 400" fill="none" xmlns="http://www.w3.org/2000/svg">
<rect width="911.508" height="400" transform="translate(0.470703)" fill="white"/>
<path d="M449.089 230.408C448.109 230.483 447.205 230.257 446.375 229.729C445.622 229.277 445.094 228.674 444.792 227.92C444.491 227.544 444.001 226.714 443.323 225.433C442.644 224.227 442.23 223.172 442.079 222.267C441.853 219.855 441.702 217.519 441.627 215.258C441.627 212.996 441.74 209.83 441.966 205.76C442.192 202.444 442.644 199.504 443.323 196.941C444.001 194.303 444.679 192.08 445.358 190.271C446.036 188.386 446.564 186.992 446.941 186.087C447.318 185.107 447.393 184.618 447.167 184.618C446.865 184.618 446.526 184.919 446.149 185.522C445.848 186.049 445.471 186.766 445.019 187.67C444.642 188.575 444.19 189.554 443.662 190.61C443.21 191.665 442.72 192.682 442.192 193.662C441.137 195.999 439.893 198.486 438.461 201.124C437.104 203.687 435.71 206.175 434.278 208.586C432.845 210.999 431.602 213.109 430.547 214.918C429.868 215.672 429.077 216.765 428.172 218.197C427.268 219.554 426.288 220.986 425.233 222.493C424.177 224.001 423.085 225.244 421.954 226.224C420.296 227.807 418.6 228.75 416.866 229.051C415.132 229.428 413.512 229.24 412.004 228.486C411.25 228.411 410.459 227.996 409.63 227.242C408.801 226.564 408.123 225.697 407.595 224.642C407.143 223.586 407.03 222.606 407.256 221.702C407.18 220.647 407.18 219.026 407.256 216.84C407.406 214.579 407.632 212.129 407.934 209.491C408.236 206.778 408.537 204.177 408.838 201.69C409.215 199.202 409.554 197.13 409.856 195.471C410.534 190.647 411.439 185.71 412.569 180.66C413.776 175.61 414.869 170.522 415.848 165.397C416.452 163.889 416.979 162.193 417.431 160.309C417.959 158.349 418.487 156.54 419.014 154.882C419.09 153.224 419.692 152.206 420.823 151.829C421.954 151.377 423.16 151.302 424.441 151.603C425.798 151.904 426.74 152.432 427.268 153.186C428.021 153.94 428.738 155.108 429.416 156.691C430.094 158.274 429.906 160.271 428.851 162.683C427.343 166.377 425.873 170.899 424.441 176.251C423.085 181.527 421.841 187.934 420.71 195.471C420.409 197.28 420.07 199.315 419.692 201.577C419.391 203.763 419.089 205.873 418.788 207.908C418.562 209.944 418.374 211.64 418.223 212.996C418.147 214.278 418.185 214.956 418.336 215.031C418.939 215.182 419.579 214.843 420.258 214.014C421.012 213.184 421.803 211.866 422.632 210.057C425.723 204.931 428.625 199.843 431.338 194.793C434.127 189.743 436.916 184.466 439.705 178.964C440.986 176.778 442.267 174.404 443.549 171.841C444.905 169.203 446.187 166.791 447.393 164.605C448.674 162.344 449.918 160.158 451.124 158.048C452.33 155.937 453.385 154.166 454.29 152.733C455.194 151.226 455.873 150.397 456.325 150.246C458.36 150.246 459.867 150.774 460.847 151.829C461.903 152.884 462.732 154.166 463.335 155.673C463.485 156.05 463.561 156.691 463.561 157.595C463.636 158.5 463.523 159.291 463.222 159.97C463.146 160.497 462.807 161.59 462.204 163.249C461.676 164.907 461.187 166.753 460.734 168.789C459.981 170.824 459.302 172.859 458.699 174.894C458.172 176.854 457.795 178.474 457.569 179.755C456.966 182.997 456.212 186.54 455.307 190.384C454.403 194.228 453.612 198.034 452.933 201.803C452.33 205.572 451.991 208.964 451.916 211.979C451.84 214.089 451.84 215.484 451.916 216.162C452.066 216.765 452.292 217.406 452.594 218.084C452.745 218.687 453.084 218.838 453.612 218.536C454.139 218.235 454.667 217.707 455.194 216.953C456.25 215.371 457.041 214.014 457.569 212.883C458.172 211.753 458.775 210.546 459.378 209.265C459.981 207.908 460.81 206.212 461.865 204.177C463.75 200.71 465.672 196.904 467.631 192.758C469.666 188.612 471.588 184.504 473.397 180.434C475.282 176.364 476.903 172.746 478.259 169.58C479.691 165.51 480.897 162.231 481.877 159.744C482.857 157.181 483.762 155.221 484.591 153.864C485.42 152.507 486.211 151.603 486.965 151.151C487.342 150.849 488.133 150.698 489.339 150.698C490.621 150.698 491.601 151 492.279 151.603C492.581 151.904 493.108 152.394 493.862 153.073C494.616 153.751 494.955 154.542 494.879 155.447C494.503 156.653 493.787 158.613 492.731 161.326C491.751 164.04 490.583 167.055 489.226 170.371C487.945 173.613 486.663 176.741 485.382 179.755C484.176 182.695 483.159 185.032 482.33 186.766C481.5 188.349 480.709 189.705 479.955 190.836C479.201 191.966 478.825 192.833 478.825 193.436C478.825 193.738 478.447 194.68 477.694 196.263C476.94 197.77 475.96 199.617 474.754 201.803C473.623 203.989 472.38 206.25 471.023 208.586C469.666 210.923 468.385 213.071 467.179 215.031C465.973 216.991 464.955 218.498 464.126 219.554C462.242 221.891 460.207 223.85 458.021 225.433C455.91 227.091 454.026 228.335 452.368 229.164C450.71 229.993 449.616 230.408 449.089 230.408ZM492.587 222.606C491.607 222.606 490.816 222.418 490.213 222.041C489.685 221.664 489.007 221.137 488.178 220.458C486.746 218.951 485.577 217.33 484.673 215.597C483.844 213.863 483.542 212.355 483.768 211.074C483.994 210.471 484.07 209.906 483.994 209.378C483.994 208.775 483.994 208.473 483.994 208.473C483.618 208.097 483.505 207.871 483.655 207.795C483.806 207.644 483.957 207.418 484.107 207.117C484.56 207.117 484.71 206.702 484.56 205.873C484.409 205.27 484.635 203.989 485.238 202.029C485.916 199.994 486.821 198.072 487.952 196.263C488.404 195.509 489.082 194.529 489.987 193.323C490.891 192.042 491.871 190.798 492.926 189.592C494.057 188.311 495.075 187.293 495.979 186.54C497.863 184.957 499.597 183.675 501.18 182.695C502.838 181.715 504.495 181.037 506.156 180.66C507.814 180.283 509.508 180.095 511.242 180.095C513.05 180.095 514.52 180.698 515.65 181.904C517.385 182.658 518.593 183.675 519.271 184.957C520.026 186.238 520.516 187.896 520.74 189.931C520.965 192.193 520.74 194.982 520.063 198.298C519.385 201.539 517.536 205.308 514.52 209.604C512.638 212.318 510.789 214.428 508.981 215.936C507.173 217.443 505.177 218.838 502.989 220.119C501.406 221.174 499.71 221.815 497.901 222.041C496.092 222.267 494.321 222.456 492.587 222.606ZM504.12 208.813C505.777 207.381 506.944 205.798 507.626 204.064C508.377 202.331 509.169 200.295 509.997 197.959C510.299 197.506 510.487 196.753 510.565 195.698C510.716 194.642 510.752 193.625 510.679 192.645C510.601 191.589 510.34 190.986 509.887 190.836C509.21 190.308 508.528 190.195 507.85 190.497C507.173 190.723 506.307 191.213 505.25 191.966C502.989 193.851 500.879 196.037 498.919 198.524C497.034 200.936 495.715 203.913 494.961 207.456C494.735 209.34 494.924 210.773 495.527 211.753C496.205 212.657 497.261 212.921 498.693 212.544C500.2 212.092 502.009 210.848 504.12 208.813ZM528.01 220.345C527.332 219.818 526.577 219.139 525.748 218.31C524.997 217.481 524.732 216.313 524.956 214.805C525.185 212.695 525.487 210.848 525.863 209.265C526.238 207.607 526.691 205.722 527.218 203.612C527.369 202.707 527.748 201.162 528.348 198.976C529.03 196.791 529.818 194.416 530.724 191.853C531.63 189.291 532.569 186.879 533.552 184.618C534.532 182.281 535.397 180.547 536.152 179.416C536.981 178.663 538.185 178.286 539.769 178.286C541.426 178.286 542.556 178.587 543.161 179.19C543.989 179.869 544.254 181.075 543.952 182.808C543.65 184.466 542.597 187.067 540.785 190.61C540.41 191.514 539.92 192.494 539.316 193.549C538.789 194.529 538.414 195.358 538.185 196.037C537.961 196.64 538.034 196.904 538.414 196.828C538.863 195.999 539.695 195.057 540.899 194.002C542.107 192.871 543.385 191.778 544.744 190.723C546.099 189.667 547.381 188.725 548.589 187.896C549.793 187.067 550.622 186.54 551.075 186.313C551.679 185.936 552.356 185.635 553.112 185.409C553.94 185.107 554.503 184.881 554.805 184.731C556.54 183.901 558.426 183.6 560.459 183.826C562.569 183.977 563.85 184.618 564.303 185.748C564.381 186.351 564.605 186.803 564.981 187.105C565.434 187.406 565.658 187.557 565.658 187.557C565.961 187.557 566.112 187.67 566.112 187.896C566.189 188.122 566.226 188.235 566.226 188.235C566.226 188.763 565.699 189.517 564.642 190.497C563.663 191.476 562.569 192.004 561.365 192.08C560.385 192.155 559.516 192.343 558.765 192.645C558.01 192.946 557.103 193.323 556.05 193.775C553.185 195.434 550.585 196.904 548.25 198.185C545.989 199.466 543.65 201.426 541.238 204.064C540.712 204.667 540.144 205.233 539.544 205.76C538.94 206.288 538.336 207.042 537.732 208.021C537.356 208.398 536.981 209.227 536.601 210.509C536.226 211.79 535.887 213.034 535.585 214.24C535.361 215.371 535.246 216.049 535.246 216.275C535.246 216.275 535.132 216.652 534.907 217.406C534.683 218.084 534.303 218.762 533.777 219.441C532.871 220.647 531.969 221.4 531.063 221.702C530.234 222.004 529.218 221.551 528.01 220.345ZM569.544 222.606C568.414 222.23 567.397 221.626 566.491 220.798C565.663 219.969 565.324 218.611 565.475 216.727C565.626 215.597 565.85 214.428 566.152 213.222C566.454 211.941 566.83 210.697 567.283 209.491C567.507 208.134 567.773 206.778 568.075 205.421C568.45 204.064 569.054 202.783 569.883 201.577C570.863 198.788 571.879 196.037 572.936 193.323C573.993 190.534 574.895 187.632 575.65 184.618C576.781 181.904 577.797 179.492 578.703 177.381C579.683 175.271 580.85 172.557 582.205 169.241C582.961 167.507 583.601 165.585 584.128 163.475C584.732 161.289 585.638 159.366 586.842 157.709C587.369 157.03 587.748 156.465 587.973 156.013C588.275 155.485 588.577 154.995 588.879 154.542C589.405 153.487 590.197 152.998 591.25 153.073C592.381 153.148 593.136 153.45 593.512 153.977C594.793 154.505 595.699 155.485 596.226 156.917C596.756 158.274 596.944 159.253 596.793 159.857C596.793 160.686 596.491 161.59 595.887 162.57C595.585 162.871 595.283 163.324 594.985 163.927C594.683 164.454 594.23 165.171 593.626 166.075C593.324 167.055 593.022 168.035 592.724 169.015C592.422 169.995 592.083 170.899 591.703 171.728C591.328 172.557 590.912 173.386 590.463 174.215C590.01 175.045 589.707 175.723 589.556 176.251C588.879 177.984 588.124 179.68 587.295 181.338C586.54 182.922 585.863 184.618 585.259 186.426C584.659 188.16 584.018 190.006 583.336 191.966C582.659 193.851 581.793 195.66 580.736 197.393C580.21 198.147 579.908 199.165 579.834 200.446C579.834 201.728 579.683 202.971 579.381 204.177C578.854 205.534 578.365 206.778 577.912 207.908C577.532 209.039 577.344 209.755 577.344 210.057C576.818 211.715 576.401 213.373 576.103 215.031C575.801 216.614 575.312 218.009 574.634 219.215C574.634 221.024 574.14 222.154 573.161 222.606C572.181 223.059 570.977 223.059 569.544 222.606ZM595.434 223.624C594.23 223.473 593.324 223.247 592.724 222.946C592.12 222.569 590.989 221.778 589.332 220.571C588.426 219.667 587.295 218.272 585.94 216.388C584.581 214.504 583.226 212.506 581.867 210.396C580.512 208.21 579.303 206.363 578.25 204.855L584.467 196.941C585.45 198.147 586.238 199.278 586.842 200.333C587.446 201.389 587.936 202.104 588.312 202.481C590.046 205.044 591.401 207.117 592.381 208.7C593.365 210.283 594.193 211.564 594.871 212.544C595.626 213.524 596.454 214.391 597.356 215.144C598.263 215.898 599.43 216.689 600.863 217.519C601.087 217.669 601.316 218.046 601.54 218.649C601.769 219.177 601.842 219.742 601.769 220.345C601.618 221.25 601.05 222.004 600.071 222.606C599.169 223.134 597.622 223.473 595.434 223.624ZM579.042 202.707C578.589 201.426 578.475 199.994 578.703 198.411C579.005 196.753 579.646 195.66 580.626 195.132C580.928 194.604 581.226 194.265 581.528 194.115C581.907 193.889 582.132 193.625 582.205 193.323C582.356 193.022 582.736 192.607 583.336 192.08C584.018 191.552 584.618 191.062 585.148 190.61C586.352 189.856 587.671 188.951 589.103 187.896C590.614 186.766 592.042 185.635 593.401 184.504C594.834 183.374 596.001 182.394 596.908 181.564C597.887 180.735 598.487 180.208 598.716 179.982C598.94 179.68 599.393 179.492 600.071 179.416C600.826 179.341 601.54 179.454 602.218 179.755C603.124 179.982 603.838 180.472 604.369 181.225C604.969 181.979 605.271 183.035 605.271 184.391C605.499 185.22 605.01 186.238 603.801 187.444C602.671 188.575 601.238 189.705 599.508 190.836C598.903 191.213 598.075 191.778 597.018 192.532C596.038 193.286 595.173 194.002 594.418 194.68C593.891 194.982 593.099 195.509 592.042 196.263C591.063 196.941 590.197 197.62 589.442 198.298C588.842 198.675 588.124 199.353 587.295 200.333C586.54 201.238 585.675 201.916 584.695 202.368C582.283 204.629 580.814 205.722 580.287 205.647C579.834 205.572 579.418 204.592 579.042 202.707ZM620.087 224.189C616.091 224.189 613.152 222.908 611.267 220.345C610.74 219.139 610.475 217.933 610.475 216.727C610.552 215.446 610.854 214.541 611.381 214.014C611.908 213.411 612.548 213.524 613.303 214.353C614.283 214.956 615.675 215.258 617.487 215.258C618.389 215.258 619.181 215.258 619.859 215.258C620.614 215.182 621.479 215.106 622.459 215.031C624.193 214.88 625.287 214.353 625.74 213.449C626.267 212.544 626.152 211.79 625.401 211.187H625.512C623.479 210.66 621.479 209.906 619.52 208.926C617.561 207.946 615.903 206.853 614.544 205.647C613.189 204.366 612.397 203.16 612.173 202.029C611.569 199.542 611.72 196.979 612.626 194.341C613.528 191.702 614.846 189.404 616.581 187.444C617.259 186.992 618.201 186.351 619.41 185.522C620.614 184.618 621.479 184.127 622.01 184.052V184.165C623.442 182.658 625.063 181.451 626.871 180.547C628.679 179.567 630.789 178.663 633.201 177.833L635.01 177.607C635.916 177.457 636.708 177.381 637.385 177.381C637.308 177.381 637.499 177.457 637.948 177.607C638.401 177.758 638.781 177.871 639.079 177.946C639.532 178.173 639.985 178.286 640.438 178.286C641.491 178.437 642.512 179.002 643.491 179.982C644.544 180.886 645.373 181.979 645.977 183.261C646.654 184.466 646.92 185.597 646.769 186.653C646.544 188.386 645.903 190.12 644.846 191.853C643.793 193.512 642.663 194.454 641.454 194.68C641.605 194.604 641.454 194.454 641.001 194.228C640.552 194.002 640.136 193.775 639.761 193.549L639.307 193.775C639.307 193.775 639.271 193.662 639.193 193.436C639.193 193.21 639.12 192.946 638.969 192.645C638.667 192.117 638.438 191.552 638.291 190.949C638.214 190.346 638.214 189.667 638.291 188.914C638.438 188.084 638.479 187.595 638.401 187.444C638.328 187.293 637.875 187.18 637.046 187.105C636.067 186.879 634.822 186.992 633.316 187.444C631.805 187.821 630.414 188.499 629.132 189.479C627.622 190.459 626.491 191.25 625.74 191.853C625.063 192.456 624.532 193.06 624.157 193.662C623.781 194.19 623.365 194.982 622.912 196.037C622.61 196.564 622.348 197.054 622.12 197.506C621.895 197.883 621.781 198.26 621.781 198.637C621.781 199.391 622.422 200.182 623.703 201.011C624.985 201.765 626.908 202.67 629.471 203.725C631.503 204.554 632.826 205.685 633.426 207.117C634.108 208.549 634.708 209.906 635.238 211.187C635.389 211.489 635.536 212.054 635.687 212.883C635.916 213.637 635.952 214.089 635.801 214.24C635.952 214.391 636.026 214.541 636.026 214.692V214.579C636.63 215.71 636.52 216.915 635.687 218.197C634.936 219.403 633.728 220.534 632.071 221.589C630.414 222.569 628.528 223.285 626.418 223.737H626.532C625.401 223.888 624.271 224.001 623.14 224.076C622.083 224.152 621.067 224.189 620.087 224.189ZM644.01 249.742C643.712 249.742 643.259 249.742 642.654 249.742C642.128 249.817 641.675 249.515 641.299 248.837C640.997 248.46 640.544 247.706 639.94 246.576C639.336 245.52 639.226 244.013 639.601 242.053C639.977 240.772 640.279 239.491 640.508 238.209C640.732 237.003 640.846 236.099 640.846 235.495C640.846 235.194 640.92 234.591 641.071 233.686C641.299 232.858 641.41 232.255 641.41 231.878C641.789 231.275 642.087 230.446 642.316 229.39C642.54 228.335 642.654 227.393 642.654 226.564C642.654 225.659 643.108 224.83 644.01 224.076C644.01 223.473 644.124 222.72 644.352 221.815C644.65 220.911 644.801 220.308 644.801 220.006C645.03 218.951 645.52 217.104 646.271 214.466C647.103 211.753 648.083 208.7 649.214 205.308C650.418 201.916 651.585 198.6 652.716 195.358C653.846 192.117 654.867 189.366 655.769 187.105C656.675 184.994 657.43 183.035 658.03 181.225C658.634 179.416 658.936 178.135 658.936 177.381C658.936 177.08 659.01 176.854 659.161 176.703C659.312 176.477 659.65 176.062 660.181 175.459C660.932 174.706 661.912 174.442 663.12 174.668C664.401 174.819 665.454 175.195 666.283 175.798C666.887 176.778 667.303 177.683 667.528 178.512C667.83 179.266 667.83 180.472 667.528 182.13C667.528 183.261 667.263 184.316 666.736 185.296C666.21 186.2 665.72 186.954 665.267 187.557C664.891 188.084 664.777 188.311 664.928 188.235C668.246 186.2 671.222 185.107 673.859 184.957C676.573 184.731 678.834 185.183 680.642 186.313C682.528 187.369 683.961 188.838 684.94 190.723C685.92 192.607 686.41 194.642 686.41 196.828C686.41 197.733 686.108 198.939 685.503 200.446C684.903 201.954 684.226 203.386 683.471 204.742C682.716 206.024 682.112 206.891 681.663 207.343C681.361 207.343 681.059 207.607 680.756 208.134C680.454 208.586 680.152 209.114 679.85 209.717C679.25 210.471 678.23 211.338 676.801 212.318C675.442 213.222 674.046 213.976 672.618 214.579C671.185 215.106 670.165 215.258 669.565 215.031C669.565 215.031 669.45 215.106 669.226 215.258C669.075 215.408 668.997 215.672 668.997 216.049C668.997 216.2 668.471 216.501 667.414 216.953C666.361 217.406 665.116 217.82 663.683 218.197C662.25 218.574 660.932 218.762 659.728 218.762C658.144 218.762 657.014 218.461 656.336 217.858C656.185 218.009 655.997 218.235 655.769 218.536C655.618 218.838 655.544 219.102 655.544 219.328C655.544 219.78 655.356 220.496 654.977 221.476C654.675 222.456 654.299 223.322 653.846 224.076C653.397 224.905 652.981 225.32 652.605 225.32C652.605 225.32 652.528 225.433 652.377 225.659C652.226 225.885 652.303 226.187 652.605 226.564C652.605 226.564 652.565 226.978 652.491 227.807C652.491 228.712 652.303 229.466 651.924 230.069C651.924 230.672 651.814 231.576 651.585 232.782C651.361 233.988 651.095 234.893 650.793 235.495C650.793 236.4 650.642 237.267 650.344 238.096C650.116 239.001 649.854 239.453 649.552 239.453C649.25 239.528 649.063 239.98 648.985 240.81C648.912 241.714 648.875 242.355 648.875 242.732C648.797 244.616 648.193 246.237 647.063 247.593C645.932 249.026 644.916 249.742 644.01 249.742ZM658.483 210.17C659.087 210.17 660.181 209.906 661.761 209.378C663.344 208.851 665.001 208.21 666.736 207.456C668.471 206.627 669.826 205.798 670.806 204.969C672.769 203.235 674.275 201.539 675.328 199.881C676.459 198.222 676.385 196.376 675.103 194.341C674.499 193.286 673.52 192.871 672.165 193.097C670.883 193.248 669.45 193.851 667.867 194.906C666.283 195.961 664.663 197.28 663.005 198.863C662.099 199.843 661.271 200.974 660.52 202.255C659.765 203.537 659.124 204.78 658.597 205.986C658.144 207.192 657.879 208.21 657.805 209.039C657.728 209.793 657.956 210.17 658.483 210.17ZM701.214 221.815C700.61 221.966 699.818 222.041 698.838 222.041C697.859 221.966 696.993 221.853 696.238 221.702C695.561 221.476 695.222 221.25 695.222 221.024C695.222 220.647 695.034 220.458 694.654 220.458C694.654 220.458 694.242 220.157 693.414 219.554C692.581 218.875 691.83 218.385 691.152 218.084C690.471 217.029 690.022 215.823 689.793 214.466C689.642 213.034 690.095 210.546 691.152 207.004C691.226 204.592 691.903 202.067 693.185 199.429C694.467 196.715 696.087 194.077 698.046 191.514C700.006 188.951 702.042 186.69 704.152 184.731C706.263 182.695 708.148 181.188 709.805 180.208C710.863 179.153 712.255 178.587 713.989 178.512C715.797 178.437 717.381 178.776 718.736 179.529C719.491 179.906 720.32 180.66 721.226 181.791C722.128 182.922 722.997 184.127 723.826 185.409C724.654 186.615 725.295 187.708 725.748 188.688C725.973 189.517 726.161 190.271 726.312 190.949C726.54 191.552 726.691 192.306 726.765 193.21C726.842 194.115 726.765 195.471 726.54 197.28C726.161 198.637 725.822 200.031 725.52 201.464C725.295 202.82 725.181 204.215 725.181 205.647C725.03 207.079 725.181 208.097 725.634 208.7C726.161 209.303 726.916 209.34 727.895 208.813C728.801 208.36 729.744 208.323 730.724 208.7C731.703 209.001 732.381 209.604 732.757 210.509C733.21 211.338 733.095 212.431 732.418 213.788C731.965 214.767 731.25 215.71 730.271 216.614C729.291 217.519 728.197 218.272 726.993 218.875C725.785 219.403 724.618 219.667 723.487 219.667C722.659 219.667 721.83 219.365 720.997 218.762C720.169 218.084 719.418 217.18 718.736 216.049C718.059 214.918 717.495 213.675 717.042 212.318L716.365 209.717L712.295 213.449C711.312 214.504 710.332 215.484 709.352 216.388C708.45 217.217 707.883 217.82 707.659 218.197C707.279 218.875 706.528 219.478 705.397 220.006C704.34 220.534 702.948 221.137 701.214 221.815ZM704.267 210.961C705.548 210.207 706.638 209.303 707.544 208.247C708.524 207.192 709.467 206.024 710.373 204.742C711.275 203.386 712.255 201.954 713.312 200.446C714.593 198.713 715.495 197.318 716.026 196.263C716.626 195.208 717.079 194.077 717.381 192.871C717.079 192.042 716.667 191.175 716.136 190.271C715.61 189.291 715.083 188.763 714.557 188.688C713.499 188.688 712.218 189.328 710.712 190.61C709.279 191.891 707.695 193.738 705.961 196.15C705.659 196.526 705.283 197.13 704.83 197.959C704.377 198.788 703.928 199.579 703.475 200.333C703.099 201.011 702.834 201.464 702.683 201.69C702.459 201.991 702.116 202.707 701.667 203.838C701.287 204.893 700.948 205.986 700.646 207.117C700.344 208.172 700.197 208.926 700.197 209.378C700.197 209.83 700.234 210.32 700.308 210.848C700.459 211.375 700.838 211.715 701.438 211.866C702.042 212.016 702.985 211.715 704.267 210.961ZM747.475 222.493C745.814 222.493 744.573 222.418 743.744 222.267C742.989 222.117 742.422 221.891 742.046 221.589C741.671 221.287 741.181 220.873 740.577 220.345C740.275 219.742 739.748 218.989 738.993 218.084C738.238 217.104 737.712 216.463 737.41 216.162C737.108 215.031 736.997 213.486 737.071 211.526C737.222 209.566 737.561 207.456 738.091 205.195C738.618 202.933 739.259 200.898 740.01 199.089C740.312 198.486 740.577 197.883 740.801 197.28C741.03 196.678 741.14 196.376 741.14 196.376C741.14 195.999 741.593 195.095 742.499 193.662C743.479 192.23 744.532 190.723 745.663 189.14C746.871 187.557 747.85 186.426 748.605 185.748C749.132 185.145 749.924 184.504 750.977 183.826C752.108 183.148 753.087 182.658 753.92 182.356C754.748 182.055 755.879 181.678 757.312 181.225C758.74 180.698 760.022 180.434 761.152 180.434C762.21 180.434 763.34 180.66 764.544 181.112C765.752 181.564 766.769 182.356 767.597 183.487C768.957 184.844 769.822 186.464 770.197 188.349C770.577 190.233 770.614 191.853 770.312 193.21C769.936 194.718 769.181 195.961 768.05 196.941C766.92 197.846 765.716 198.335 764.434 198.411C763.152 198.411 762.022 197.883 761.042 196.828C760.74 196.225 760.589 195.735 760.589 195.358C760.589 194.906 760.74 194.265 761.042 193.436C761.344 192.381 761.495 191.439 761.495 190.61C761.495 189.78 761.152 189.366 760.475 189.366C759.495 189.366 758.703 189.667 758.103 190.271C757.499 190.798 756.593 191.702 755.389 192.984C754.859 193.587 754.181 194.454 753.352 195.584C752.524 196.715 751.695 197.959 750.867 199.315C750.112 200.597 749.434 201.916 748.83 203.273C748.001 205.76 747.475 207.381 747.246 208.134C747.095 208.813 747.022 209.152 747.022 209.152C747.022 209.453 746.985 209.755 746.908 210.057C746.834 210.283 746.793 210.546 746.793 210.848C746.793 211.753 747.324 212.469 748.377 212.996C749.205 213.524 749.887 213.788 750.414 213.788C751.018 213.712 752.148 213.298 753.805 212.544C755.01 211.941 756.14 211.149 757.197 210.17C758.328 209.19 759.495 208.323 760.703 207.569C761.532 207.042 762.173 206.589 762.626 206.212C763.152 205.835 763.414 205.798 763.414 206.099C763.414 206.401 763.528 206.551 763.757 206.551C763.981 206.551 764.246 206.401 764.544 206.099C764.997 205.496 765.565 205.27 766.242 205.421C766.92 205.496 767.524 205.685 768.05 205.986C768.655 206.288 768.957 206.551 768.957 206.778C768.806 207.456 768.957 208.021 769.41 208.473C769.41 208.775 769.295 209.19 769.067 209.717C768.92 210.17 768.691 210.546 768.389 210.848C768.014 211.375 767.446 212.129 766.695 213.109C766.018 214.089 765.377 214.956 764.773 215.71C764.169 216.463 763.867 216.84 763.867 216.84C763.565 216.765 763.263 216.84 762.965 217.066C762.736 217.293 762.475 217.556 762.173 217.858C761.569 218.385 761.001 218.8 760.475 219.102C759.948 219.328 759.532 219.441 759.234 219.441C758.703 219.742 758.291 219.931 757.989 220.006C757.761 220.082 757.65 220.27 757.65 220.571C756.895 221.325 755.54 221.853 753.577 222.154C751.618 222.38 749.585 222.493 747.475 222.493ZM785.842 222.38C782.903 221.174 780.867 219.215 779.736 216.501C778.605 213.788 778.303 210.17 778.83 205.647C778.981 203.311 778.908 201.765 778.606 201.011C778.303 200.182 777.74 199.391 776.912 198.637C776.683 198.335 776.157 197.846 775.328 197.167C774.499 196.413 774.12 195.848 774.197 195.471C774.12 194.944 774.234 194.303 774.536 193.549C774.838 192.72 775.099 192.268 775.328 192.193C775.855 191.966 776.381 191.702 776.912 191.401C777.512 191.1 777.965 191.024 778.267 191.175C778.569 191.175 779.022 191.363 779.622 191.74C780.303 192.117 780.642 192.456 780.642 192.758C780.944 193.286 781.393 193.06 781.997 192.08C782.675 191.1 783.393 189.856 784.144 188.349C784.899 187.142 785.842 186.012 786.973 184.957C788.103 183.901 789.234 182.959 790.365 182.13C791.569 181.225 792.589 180.547 793.418 180.095C793.793 179.944 794.512 179.718 795.565 179.416C796.695 179.115 797.863 178.889 799.071 178.738C800.275 178.512 801.181 178.437 801.785 178.512C803.14 178.587 804.573 179.153 806.079 180.208C807.589 181.263 808.757 182.243 809.585 183.148C810.565 183.826 811.206 184.881 811.508 186.313C811.883 187.67 812.034 189.102 811.961 190.61C811.883 192.117 811.581 193.399 811.054 194.454C810.83 195.208 810.038 196.263 808.679 197.62C807.324 198.976 805.818 200.295 804.157 201.577C802.577 202.783 801.218 203.612 800.087 204.064C799.108 204.29 797.94 204.479 796.581 204.629C795.226 204.705 793.944 204.705 792.74 204.629C791.61 204.479 790.818 204.29 790.365 204.064C789.838 203.763 789.385 203.876 789.006 204.403C788.708 204.855 788.442 206.137 788.218 208.247C788.14 209.077 788.14 209.793 788.218 210.396C788.365 210.999 788.516 211.451 788.667 211.753C789.197 212.657 789.724 213.335 790.25 213.788C790.777 214.164 791.761 214.278 793.189 214.127C794.622 213.976 796.054 213.109 797.487 211.526C798.993 209.868 800.352 208.549 801.557 207.569C801.859 207.042 802.499 206.702 803.479 206.551C804.536 206.325 805.777 206.401 807.21 206.778C808.038 207.305 808.418 208.134 808.34 209.265C808.34 210.396 807.736 212.054 806.532 214.24C806.308 214.767 805.667 215.559 804.61 216.614C803.63 217.594 802.536 218.611 801.332 219.667C800.201 220.647 799.259 221.363 798.503 221.815C796.242 223.021 794.022 223.586 791.834 223.511C789.646 223.435 787.65 223.059 785.842 222.38ZM794.21 196.941C795.34 196.64 796.283 196.338 797.034 196.037C797.863 195.735 798.655 195.245 799.41 194.567C800.165 193.889 801.03 192.871 802.01 191.514C802.312 190.685 802.463 189.969 802.463 189.366C802.536 188.763 802.499 188.386 802.348 188.235C801.744 187.632 801.067 187.444 800.316 187.67C799.634 187.821 798.883 188.198 798.05 188.801C797.524 189.027 796.773 189.517 795.789 190.271C794.887 190.949 793.981 191.74 793.079 192.645C792.25 193.474 791.569 194.265 791.042 195.019C790.589 195.698 790.516 196.112 790.818 196.263C790.667 196.564 791.079 196.753 792.059 196.828C793.116 196.904 793.83 196.941 794.21 196.941Z" fill="black"/>
<path d="M100.471 225.052V164.235H112.716L135.491 194.44H129.777L151.899 164.235H164.144V225.052H151.491V178.195L156.553 179.337L133.124 209.542H131.491L108.879 179.337L113.124 178.195V225.052H100.471ZM187.826 226.031C184.616 226.031 181.84 225.514 179.5 224.48C177.16 223.446 175.364 221.977 174.112 220.072C172.861 218.113 172.235 215.8 172.235 213.133C172.235 210.63 172.806 208.426 173.949 206.521C175.092 204.562 176.833 202.929 179.173 201.623C181.568 200.317 184.534 199.392 188.071 198.848L201.704 196.644V205.623L190.275 207.664C188.534 207.991 187.201 208.562 186.275 209.378C185.35 210.14 184.888 211.256 184.888 212.725C184.888 214.086 185.405 215.147 186.439 215.909C187.473 216.671 188.752 217.052 190.275 217.052C192.289 217.052 194.058 216.616 195.581 215.746C197.106 214.875 198.275 213.705 199.092 212.235C199.963 210.711 200.398 209.052 200.398 207.256V195.664C200.398 193.977 199.718 192.562 198.357 191.419C197.051 190.276 195.255 189.705 192.969 189.705C190.793 189.705 188.861 190.303 187.173 191.501C185.541 192.698 184.344 194.276 183.581 196.235L173.786 191.582C174.657 189.079 176.044 186.929 177.949 185.133C179.854 183.337 182.139 181.95 184.806 180.97C187.473 179.991 190.384 179.501 193.541 179.501C197.296 179.501 200.616 180.181 203.5 181.542C206.384 182.902 208.616 184.807 210.194 187.256C211.826 189.65 212.643 192.453 212.643 195.664V225.052H201.214V217.868L203.99 217.378C202.684 219.337 201.241 220.97 199.663 222.276C198.085 223.528 196.316 224.453 194.357 225.052C192.398 225.705 190.221 226.031 187.826 226.031ZM242.295 225.542C236.908 225.542 232.717 224.099 229.724 221.215C226.785 218.276 225.316 214.195 225.316 208.97V191.093H217.806V180.48H218.214C220.499 180.48 222.241 179.909 223.438 178.766C224.69 177.623 225.316 175.909 225.316 173.623V170.358H237.561V180.48H248.01V191.093H237.561V208.154C237.561 209.677 237.833 210.956 238.377 211.991C238.921 212.97 239.765 213.705 240.908 214.195C242.05 214.684 243.466 214.929 245.153 214.929C245.533 214.929 245.969 214.902 246.459 214.848C246.948 214.793 247.466 214.739 248.01 214.684V225.052C247.193 225.16 246.268 225.269 245.234 225.378C244.2 225.487 243.221 225.542 242.295 225.542ZM255.185 225.052V180.48H267.43V225.052H255.185ZM255.185 176.48V164.235H267.43V176.48H255.185ZM276.39 225.052V163.256H288.635V225.052H276.39ZM318.575 226.031C314.221 226.031 310.33 224.997 306.902 222.929C303.473 220.861 300.752 218.058 298.739 214.521C296.779 210.984 295.8 207.065 295.8 202.766C295.8 198.412 296.806 194.494 298.82 191.011C300.834 187.473 303.555 184.671 306.984 182.603C310.412 180.535 314.249 179.501 318.494 179.501C321.759 179.501 324.643 180.126 327.147 181.378C329.704 182.575 331.718 184.29 333.188 186.521L331.31 188.97V163.256H343.555V225.052H332.126V216.889L333.269 219.419C331.745 221.596 329.677 223.256 327.065 224.399C324.453 225.487 321.623 226.031 318.575 226.031ZM320.045 215.011C322.276 215.011 324.235 214.494 325.922 213.46C327.609 212.426 328.915 210.984 329.841 209.133C330.82 207.283 331.31 205.16 331.31 202.766C331.31 200.371 330.82 198.249 329.841 196.399C328.915 194.548 327.609 193.106 325.922 192.072C324.235 191.038 322.276 190.521 320.045 190.521C317.813 190.521 315.8 191.065 314.004 192.154C312.262 193.188 310.902 194.63 309.922 196.48C308.943 198.276 308.453 200.371 308.453 202.766C308.453 205.16 308.943 207.283 309.922 209.133C310.902 210.984 312.262 212.426 314.004 213.46C315.8 214.494 317.813 215.011 320.045 215.011ZM366.318 226.031C363.107 226.031 360.332 225.514 357.992 224.48C355.652 223.446 353.856 221.977 352.604 220.072C351.352 218.113 350.726 215.8 350.726 213.133C350.726 210.63 351.298 208.426 352.441 206.521C353.584 204.562 355.325 202.929 357.665 201.623C360.06 200.317 363.026 199.392 366.563 198.848L380.196 196.644V205.623L368.767 207.664C367.026 207.991 365.693 208.562 364.767 209.378C363.842 210.14 363.379 211.256 363.379 212.725C363.379 214.086 363.897 215.147 364.93 215.909C365.964 216.671 367.244 217.052 368.767 217.052C370.781 217.052 372.55 216.616 374.073 215.746C375.597 214.875 376.767 213.705 377.584 212.235C378.454 210.711 378.89 209.052 378.89 207.256V195.664C378.89 193.977 378.209 192.562 376.849 191.419C375.543 190.276 373.747 189.705 371.461 189.705C369.284 189.705 367.352 190.303 365.665 191.501C364.033 192.698 362.835 194.276 362.073 196.235L352.277 191.582C353.148 189.079 354.536 186.929 356.441 185.133C358.346 183.337 360.631 181.95 363.298 180.97C365.964 179.991 368.876 179.501 372.033 179.501C375.788 179.501 379.107 180.181 381.992 181.542C384.876 182.902 387.107 184.807 388.686 187.256C390.318 189.65 391.135 192.453 391.135 195.664V225.052H379.706V217.868L382.481 217.378C381.175 219.337 379.733 220.97 378.155 222.276C376.577 223.528 374.808 224.453 372.849 225.052C370.89 225.705 368.713 226.031 366.318 226.031Z" fill="black"/>
</svg>
