<svg width="912" height="231" viewBox="0 0 912 231" fill="none" xmlns="http://www.w3.org/2000/svg">
<path d="M449.118 145.908C448.138 145.983 447.234 145.757 446.405 145.229C445.651 144.777 445.123 144.174 444.822 143.42C444.52 143.044 444.03 142.214 443.352 140.933C442.673 139.727 442.259 138.672 442.108 137.767C441.882 135.355 441.731 133.019 441.656 130.758C441.656 128.496 441.769 125.33 441.995 121.26C442.221 117.944 442.673 115.004 443.352 112.441C444.03 109.803 444.709 107.58 445.387 105.771C446.065 103.886 446.593 102.492 446.97 101.587C447.347 100.607 447.422 100.118 447.196 100.118C446.895 100.118 446.556 100.419 446.178 101.022C445.877 101.549 445.5 102.266 445.048 103.17C444.671 104.075 444.219 105.054 443.691 106.11C443.239 107.165 442.749 108.182 442.221 109.162C441.166 111.499 439.922 113.986 438.49 116.624C437.133 119.187 435.739 121.675 434.307 124.086C432.875 126.499 431.631 128.609 430.576 130.418C429.898 131.172 429.106 132.265 428.202 133.697C427.297 135.054 426.317 136.486 425.262 137.993C424.207 139.501 423.114 140.744 421.983 141.724C420.325 143.307 418.629 144.25 416.895 144.551C415.162 144.928 413.541 144.74 412.034 143.986C411.28 143.911 410.488 143.496 409.659 142.742C408.83 142.064 408.152 141.197 407.624 140.142C407.172 139.086 407.059 138.106 407.285 137.202C407.209 136.147 407.209 134.526 407.285 132.34C407.436 130.079 407.662 127.629 407.963 124.991C408.265 122.278 408.566 119.677 408.868 117.19C409.245 114.702 409.584 112.63 409.885 110.971C410.564 106.147 411.468 101.21 412.599 96.16C413.805 91.1102 414.898 86.022 415.878 80.8967C416.481 79.3889 417.008 77.693 417.46 75.8089C417.988 73.8489 418.516 72.04 419.043 70.3816C419.119 68.7236 419.722 67.7061 420.853 67.3289C421.983 66.8767 423.189 66.8016 424.471 67.1028C425.827 67.4045 426.769 67.9322 427.297 68.6857C428.051 69.4396 428.767 70.6077 429.445 72.191C430.124 73.7738 429.935 75.771 428.88 78.1832C427.372 81.8767 425.902 86.3992 424.471 91.7506C423.114 97.0269 421.87 103.434 420.74 110.971C420.438 112.78 420.099 114.815 419.722 117.077C419.42 119.263 419.119 121.373 418.817 123.408C418.591 125.444 418.403 127.14 418.252 128.496C418.177 129.778 418.214 130.456 418.365 130.531C418.968 130.682 419.609 130.343 420.287 129.514C421.041 128.684 421.832 127.366 422.662 125.557C425.752 120.431 428.654 115.343 431.367 110.293C434.156 105.243 436.945 99.9665 439.734 94.4641C441.016 92.2783 442.297 89.9041 443.578 87.3412C444.935 84.7032 446.216 82.291 447.422 80.1053C448.704 77.844 449.947 75.6579 451.153 73.5477C452.359 71.4371 453.415 69.6657 454.319 68.2334C455.224 66.7261 455.902 65.8971 456.354 65.7461C458.389 65.7461 459.897 66.2738 460.877 67.3289C461.932 68.3845 462.761 69.6657 463.364 71.173C463.515 71.5502 463.59 72.191 463.59 73.0955C463.666 74 463.553 74.7914 463.251 75.4698C463.176 75.9971 462.836 77.0902 462.234 78.7485C461.706 80.4069 461.216 82.2534 460.764 84.2885C460.01 86.3236 459.331 88.3587 458.729 90.3938C458.201 92.3538 457.824 93.9743 457.598 95.2555C456.995 98.4967 456.241 102.04 455.337 105.884C454.432 109.728 453.641 113.534 452.962 117.303C452.359 121.072 452.02 124.464 451.945 127.479C451.869 129.589 451.869 130.984 451.945 131.662C452.096 132.265 452.322 132.906 452.623 133.584C452.774 134.187 453.113 134.338 453.641 134.036C454.168 133.735 454.696 133.207 455.224 132.453C456.279 130.871 457.07 129.514 457.598 128.383C458.201 127.253 458.804 126.046 459.407 124.765C460.01 123.408 460.839 121.712 461.894 119.677C463.779 116.21 465.701 112.404 467.66 108.258C469.696 104.112 471.618 100.004 473.427 95.9338C475.311 91.8636 476.932 88.2457 478.289 85.08C479.72 81.0098 480.927 77.731 481.907 75.2436C482.886 72.6808 483.791 70.7208 484.62 69.364C485.449 68.0073 486.24 67.1028 486.994 66.6506C487.371 66.3494 488.162 66.1983 489.369 66.1983C490.65 66.1983 491.63 66.5 492.308 67.1028C492.61 67.4045 493.138 67.8943 493.891 68.5726C494.645 69.251 494.984 70.0424 494.909 70.9469C494.532 72.153 493.816 74.113 492.76 76.8265C491.78 79.54 490.612 82.5551 489.256 85.8714C487.974 89.1126 486.693 92.2408 485.411 95.2555C484.205 98.1951 483.188 100.532 482.359 102.266C481.529 103.849 480.738 105.205 479.985 106.336C479.231 107.466 478.854 108.333 478.854 108.936C478.854 109.238 478.477 110.18 477.723 111.763C476.969 113.27 475.989 115.117 474.783 117.303C473.653 119.489 472.409 121.75 471.052 124.086C469.696 126.423 468.414 128.571 467.208 130.531C466.002 132.491 464.985 133.998 464.156 135.054C462.271 137.391 460.236 139.35 458.05 140.933C455.94 142.591 454.055 143.835 452.397 144.664C450.739 145.493 449.646 145.908 449.118 145.908ZM492.616 138.106C491.637 138.106 490.845 137.918 490.242 137.541C489.715 137.164 489.036 136.637 488.207 135.958C486.775 134.451 485.607 132.83 484.702 131.097C483.873 129.363 483.571 127.855 483.798 126.574C484.024 125.971 484.099 125.406 484.024 124.878C484.024 124.275 484.024 123.973 484.024 123.973C483.647 123.597 483.534 123.371 483.685 123.295C483.835 123.144 483.986 122.918 484.137 122.617C484.589 122.617 484.74 122.202 484.589 121.373C484.438 120.77 484.665 119.489 485.267 117.529C485.946 115.494 486.85 113.572 487.981 111.763C488.433 111.009 489.111 110.029 490.016 108.823C490.92 107.542 491.9 106.298 492.956 105.092C494.086 103.811 495.104 102.793 496.009 102.04C497.893 100.457 499.627 99.1751 501.209 98.1951C502.867 97.2155 504.525 96.5371 506.186 96.16C507.843 95.7832 509.537 95.5947 511.271 95.5947C513.08 95.5947 514.549 96.1979 515.68 97.4036C517.414 98.1575 518.622 99.1751 519.3 100.457C520.055 101.738 520.545 103.396 520.769 105.431C520.994 107.693 520.769 110.482 520.092 113.798C519.414 117.039 517.565 120.808 514.549 125.104C512.667 127.818 510.818 129.928 509.01 131.436C507.202 132.943 505.206 134.338 503.018 135.619C501.436 136.674 499.74 137.315 497.931 137.541C496.122 137.767 494.35 137.956 492.616 138.106ZM504.149 124.313C505.806 122.881 506.974 121.298 507.655 119.564C508.406 117.831 509.198 115.795 510.027 113.459C510.329 113.006 510.516 112.253 510.594 111.198C510.745 110.142 510.782 109.125 510.708 108.145C510.631 107.089 510.369 106.486 509.916 106.336C509.239 105.808 508.557 105.695 507.88 105.997C507.202 106.223 506.337 106.713 505.28 107.466C503.018 109.351 500.908 111.537 498.948 114.024C497.064 116.436 495.745 119.413 494.991 122.956C494.765 124.84 494.953 126.273 495.556 127.253C496.235 128.157 497.29 128.421 498.722 128.044C500.229 127.592 502.038 126.348 504.149 124.313ZM528.039 135.845C527.361 135.318 526.606 134.639 525.778 133.81C525.027 132.981 524.761 131.813 524.986 130.305C525.214 128.195 525.516 126.348 525.892 124.765C526.267 123.107 526.72 121.222 527.247 119.112C527.398 118.207 527.778 116.662 528.378 114.476C529.059 112.291 529.847 109.916 530.753 107.353C531.659 104.791 532.598 102.379 533.582 100.118C534.561 97.7808 535.427 96.0469 536.182 94.9163C537.01 94.1628 538.214 93.7857 539.798 93.7857C541.455 93.7857 542.586 94.0873 543.19 94.6902C544.018 95.3685 544.284 96.5747 543.982 98.3081C543.68 99.9665 542.627 102.567 540.814 106.11C540.439 107.014 539.949 107.994 539.345 109.049C538.818 110.029 538.443 110.858 538.214 111.537C537.99 112.14 538.063 112.404 538.443 112.328C538.892 111.499 539.725 110.557 540.929 109.502C542.137 108.371 543.414 107.278 544.774 106.223C546.129 105.167 547.41 104.225 548.618 103.396C549.822 102.567 550.651 102.04 551.104 101.813C551.708 101.436 552.386 101.135 553.141 100.909C553.969 100.607 554.533 100.381 554.835 100.231C556.569 99.4012 558.455 99.1 560.488 99.3261C562.598 99.4767 563.88 100.118 564.333 101.248C564.41 101.851 564.635 102.303 565.01 102.605C565.463 102.906 565.688 103.057 565.688 103.057C565.99 103.057 566.141 103.17 566.141 103.396C566.218 103.622 566.255 103.735 566.255 103.735C566.255 104.263 565.729 105.017 564.671 105.997C563.692 106.976 562.598 107.504 561.394 107.58C560.414 107.655 559.545 107.843 558.794 108.145C558.039 108.446 557.133 108.823 556.08 109.275C553.214 110.934 550.614 112.404 548.28 113.685C546.018 114.966 543.68 116.926 541.267 119.564C540.741 120.167 540.174 120.733 539.574 121.26C538.969 121.788 538.365 122.542 537.761 123.521C537.386 123.898 537.01 124.727 536.631 126.009C536.255 127.29 535.916 128.534 535.614 129.74C535.39 130.871 535.276 131.549 535.276 131.775C535.276 131.775 535.161 132.152 534.937 132.906C534.712 133.584 534.333 134.262 533.806 134.941C532.9 136.147 531.998 136.9 531.092 137.202C530.263 137.504 529.247 137.051 528.039 135.845ZM569.574 138.106C568.443 137.73 567.427 137.126 566.52 136.298C565.692 135.469 565.353 134.111 565.504 132.227C565.655 131.097 565.88 129.928 566.182 128.722C566.484 127.441 566.859 126.197 567.312 124.991C567.537 123.634 567.802 122.278 568.104 120.921C568.48 119.564 569.084 118.283 569.912 117.077C570.892 114.288 571.908 111.537 572.965 108.823C574.023 106.034 574.925 103.132 575.68 100.118C576.81 97.4036 577.827 94.9918 578.733 92.8812C579.712 90.771 580.88 88.0571 582.235 84.7408C582.99 83.0073 583.631 81.0853 584.157 78.9747C584.761 76.7885 585.667 74.8665 586.871 73.2085C587.398 72.5302 587.778 71.9649 588.002 71.5126C588.304 70.9849 588.606 70.4947 588.908 70.0424C589.435 68.9873 590.227 68.4975 591.28 68.5726C592.41 68.6481 593.165 68.9498 593.541 69.4771C594.823 70.0049 595.729 70.9849 596.255 72.4171C596.786 73.7738 596.974 74.7534 596.823 75.3567C596.823 76.1857 596.52 77.0902 595.916 78.0702C595.614 78.3714 595.312 78.8236 595.014 79.4269C594.712 79.9543 594.259 80.6706 593.655 81.5751C593.353 82.5551 593.051 83.5347 592.753 84.5147C592.451 85.4947 592.112 86.3992 591.733 87.2281C591.357 88.0571 590.941 88.8865 590.492 89.7155C590.039 90.5449 589.737 91.2232 589.586 91.7506C588.908 93.4845 588.153 95.1804 587.325 96.8383C586.569 98.4216 585.892 100.118 585.288 101.926C584.688 103.66 584.047 105.506 583.365 107.466C582.688 109.351 581.822 111.16 580.765 112.893C580.239 113.647 579.937 114.665 579.863 115.946C579.863 117.228 579.712 118.471 579.41 119.677C578.884 121.034 578.394 122.278 577.941 123.408C577.561 124.539 577.374 125.255 577.374 125.557C576.847 127.215 576.431 128.873 576.133 130.531C575.831 132.114 575.341 133.509 574.663 134.715C574.663 136.524 574.169 137.654 573.19 138.106C572.21 138.559 571.006 138.559 569.574 138.106ZM595.463 139.124C594.259 138.973 593.353 138.747 592.753 138.446C592.149 138.069 591.018 137.278 589.361 136.071C588.455 135.167 587.325 133.772 585.969 131.888C584.61 130.004 583.255 128.006 581.896 125.896C580.541 123.71 579.333 121.863 578.28 120.355L584.496 112.441C585.48 113.647 586.267 114.778 586.871 115.833C587.476 116.889 587.965 117.604 588.341 117.981C590.076 120.544 591.431 122.617 592.41 124.2C593.394 125.783 594.223 127.064 594.9 128.044C595.655 129.024 596.484 129.891 597.386 130.644C598.292 131.398 599.459 132.189 600.892 133.019C601.116 133.169 601.345 133.546 601.569 134.149C601.798 134.677 601.871 135.242 601.798 135.845C601.647 136.75 601.08 137.504 600.1 138.106C599.198 138.634 597.651 138.973 595.463 139.124ZM579.072 118.207C578.618 116.926 578.504 115.494 578.733 113.911C579.035 112.253 579.676 111.16 580.655 110.632C580.957 110.104 581.255 109.765 581.557 109.615C581.937 109.389 582.161 109.125 582.235 108.823C582.386 108.522 582.765 108.107 583.365 107.58C584.047 107.052 584.647 106.562 585.178 106.11C586.382 105.356 587.7 104.451 589.133 103.396C590.643 102.266 592.071 101.135 593.431 100.004C594.863 98.8738 596.031 97.8938 596.937 97.0645C597.916 96.2355 598.516 95.7077 598.745 95.4816C598.969 95.1804 599.423 94.9918 600.1 94.9163C600.855 94.8412 601.569 94.9543 602.247 95.2555C603.153 95.4816 603.867 95.9718 604.398 96.7253C604.998 97.4791 605.3 98.5347 605.3 99.8914C605.529 100.72 605.039 101.738 603.831 102.944C602.7 104.075 601.267 105.205 599.537 106.336C598.933 106.713 598.104 107.278 597.047 108.032C596.067 108.786 595.202 109.502 594.447 110.18C593.92 110.482 593.129 111.009 592.071 111.763C591.092 112.441 590.227 113.12 589.471 113.798C588.871 114.175 588.153 114.853 587.325 115.833C586.569 116.738 585.704 117.416 584.725 117.868C582.312 120.129 580.843 121.222 580.316 121.147C579.863 121.072 579.447 120.092 579.072 118.207ZM620.116 139.689C616.12 139.689 613.182 138.408 611.296 135.845C610.769 134.639 610.504 133.433 610.504 132.227C610.582 130.946 610.884 130.041 611.41 129.514C611.937 128.911 612.578 129.024 613.333 129.853C614.312 130.456 615.704 130.758 617.516 130.758C618.418 130.758 619.21 130.758 619.888 130.758C620.643 130.682 621.508 130.606 622.488 130.531C624.223 130.38 625.316 129.853 625.769 128.949C626.296 128.044 626.182 127.29 625.431 126.687H625.541C623.508 126.16 621.508 125.406 619.549 124.426C617.59 123.446 615.933 122.353 614.574 121.147C613.218 119.866 612.427 118.66 612.202 117.529C611.598 115.042 611.749 112.479 612.655 109.841C613.557 107.202 614.876 104.904 616.61 102.944C617.288 102.492 618.231 101.851 619.439 101.022C620.643 100.118 621.508 99.6273 622.039 99.5522V99.6653C623.472 98.1575 625.092 96.9514 626.9 96.0469C628.708 95.0673 630.818 94.1628 633.231 93.3334L635.039 93.1073C635.945 92.9567 636.737 92.8812 637.414 92.8812C637.337 92.8812 637.529 92.9567 637.978 93.1073C638.431 93.2583 638.81 93.3714 639.108 93.4465C639.561 93.6726 640.014 93.7857 640.467 93.7857C641.52 93.9367 642.541 94.502 643.52 95.4816C644.574 96.3861 645.402 97.4792 646.006 98.7608C646.684 99.9665 646.949 101.097 646.798 102.153C646.574 103.886 645.933 105.62 644.876 107.353C643.823 109.012 642.692 109.954 641.484 110.18C641.635 110.104 641.484 109.954 641.031 109.728C640.582 109.502 640.165 109.275 639.79 109.049L639.337 109.275C639.337 109.275 639.3 109.162 639.223 108.936C639.223 108.71 639.149 108.446 638.998 108.145C638.696 107.617 638.467 107.052 638.32 106.449C638.243 105.846 638.243 105.167 638.32 104.414C638.467 103.584 638.508 103.095 638.431 102.944C638.357 102.793 637.904 102.68 637.076 102.605C636.096 102.379 634.851 102.492 633.345 102.944C631.835 103.321 630.443 103.999 629.161 104.979C627.651 105.959 626.52 106.75 625.769 107.353C625.092 107.956 624.561 108.56 624.186 109.162C623.81 109.69 623.394 110.482 622.941 111.537C622.639 112.064 622.378 112.554 622.149 113.006C621.925 113.383 621.81 113.76 621.81 114.137C621.81 114.891 622.451 115.682 623.733 116.511C625.014 117.265 626.937 118.17 629.5 119.225C631.533 120.054 632.855 121.185 633.455 122.617C634.137 124.049 634.737 125.406 635.267 126.687C635.418 126.989 635.565 127.554 635.716 128.383C635.945 129.137 635.982 129.589 635.831 129.74C635.982 129.891 636.055 130.041 636.055 130.192V130.079C636.659 131.21 636.549 132.415 635.716 133.697C634.965 134.903 633.757 136.034 632.1 137.089C630.443 138.069 628.557 138.785 626.447 139.237H626.561C625.431 139.388 624.3 139.501 623.169 139.576C622.112 139.652 621.096 139.689 620.116 139.689ZM644.039 165.242C643.741 165.242 643.288 165.242 642.684 165.242C642.157 165.317 641.704 165.015 641.329 164.337C641.027 163.96 640.574 163.206 639.969 162.076C639.365 161.02 639.255 159.513 639.631 157.553C640.006 156.272 640.308 154.991 640.537 153.709C640.761 152.503 640.876 151.599 640.876 150.995C640.876 150.694 640.949 150.091 641.1 149.186C641.329 148.358 641.439 147.755 641.439 147.378C641.818 146.775 642.116 145.946 642.345 144.89C642.569 143.835 642.684 142.893 642.684 142.064C642.684 141.159 643.137 140.33 644.039 139.576C644.039 138.973 644.153 138.22 644.382 137.315C644.68 136.411 644.831 135.808 644.831 135.506C645.059 134.451 645.549 132.604 646.3 129.966C647.133 127.253 648.112 124.2 649.243 120.808C650.447 117.416 651.614 114.1 652.745 110.858C653.876 107.617 654.896 104.866 655.798 102.605C656.704 100.494 657.459 98.5347 658.059 96.7253C658.663 94.9163 658.965 93.6351 658.965 92.8812C658.965 92.58 659.039 92.3538 659.19 92.2028C659.341 91.9767 659.68 91.5624 660.21 90.9591C660.961 90.2057 661.941 89.9416 663.149 90.1677C664.431 90.3187 665.484 90.6955 666.312 91.2983C666.916 92.2783 667.333 93.1828 667.557 94.0118C667.859 94.7657 667.859 95.9718 667.557 97.6298C667.557 98.7608 667.292 99.8159 666.765 100.796C666.239 101.7 665.749 102.454 665.296 103.057C664.92 103.584 664.806 103.811 664.957 103.735C668.276 101.7 671.251 100.607 673.888 100.457C676.602 100.231 678.863 100.683 680.672 101.813C682.557 102.869 683.99 104.338 684.969 106.223C685.949 108.107 686.439 110.142 686.439 112.328C686.439 113.233 686.137 114.439 685.533 115.946C684.933 117.454 684.255 118.886 683.5 120.242C682.745 121.524 682.141 122.391 681.692 122.843C681.39 122.843 681.088 123.107 680.786 123.634C680.484 124.086 680.182 124.614 679.88 125.217C679.28 125.971 678.259 126.838 676.831 127.818C675.472 128.722 674.076 129.476 672.647 130.079C671.214 130.606 670.194 130.758 669.594 130.531C669.594 130.531 669.48 130.606 669.255 130.758C669.104 130.908 669.027 131.172 669.027 131.549C669.027 131.7 668.5 132.001 667.443 132.453C666.39 132.906 665.145 133.32 663.712 133.697C662.28 134.074 660.961 134.262 659.757 134.262C658.174 134.262 657.043 133.961 656.365 133.358C656.214 133.509 656.027 133.735 655.798 134.036C655.647 134.338 655.574 134.602 655.574 134.828C655.574 135.28 655.386 135.996 655.006 136.976C654.704 137.956 654.329 138.822 653.876 139.576C653.427 140.405 653.01 140.82 652.635 140.82C652.635 140.82 652.557 140.933 652.406 141.159C652.255 141.385 652.333 141.687 652.635 142.064C652.635 142.064 652.594 142.478 652.521 143.307C652.521 144.212 652.333 144.966 651.953 145.569C651.953 146.172 651.843 147.076 651.614 148.282C651.39 149.488 651.125 150.393 650.823 150.995C650.823 151.9 650.672 152.767 650.374 153.596C650.145 154.501 649.884 154.953 649.582 154.953C649.28 155.028 649.092 155.48 649.014 156.31C648.941 157.214 648.904 157.855 648.904 158.232C648.827 160.116 648.223 161.737 647.092 163.093C645.961 164.526 644.945 165.242 644.039 165.242ZM658.512 125.67C659.116 125.67 660.21 125.406 661.79 124.878C663.374 124.351 665.031 123.71 666.765 122.956C668.5 122.127 669.855 121.298 670.835 120.469C672.798 118.735 674.304 117.039 675.357 115.381C676.488 113.722 676.414 111.876 675.133 109.841C674.529 108.786 673.549 108.371 672.194 108.597C670.912 108.748 669.48 109.351 667.896 110.406C666.312 111.461 664.692 112.78 663.035 114.363C662.129 115.343 661.3 116.474 660.549 117.755C659.794 119.037 659.153 120.28 658.627 121.486C658.174 122.692 657.908 123.71 657.835 124.539C657.757 125.293 657.986 125.67 658.512 125.67ZM701.243 137.315C700.639 137.466 699.847 137.541 698.867 137.541C697.888 137.466 697.023 137.353 696.267 137.202C695.59 136.976 695.251 136.75 695.251 136.524C695.251 136.147 695.063 135.958 694.684 135.958C694.684 135.958 694.272 135.657 693.443 135.054C692.61 134.375 691.859 133.885 691.182 133.584C690.5 132.529 690.051 131.323 689.823 129.966C689.672 128.534 690.125 126.046 691.182 122.504C691.255 120.092 691.933 117.567 693.214 114.929C694.496 112.215 696.116 109.577 698.076 107.014C700.035 104.451 702.072 102.19 704.182 100.231C706.292 98.1951 708.178 96.6877 709.835 95.7077C710.892 94.6526 712.284 94.0873 714.018 94.0118C715.827 93.9367 717.41 94.2759 718.765 95.0293C719.521 95.4065 720.349 96.16 721.255 97.2906C722.157 98.4216 723.027 99.6273 723.855 100.909C724.684 102.115 725.325 103.208 725.778 104.188C726.002 105.017 726.19 105.771 726.341 106.449C726.57 107.052 726.72 107.806 726.794 108.71C726.872 109.615 726.794 110.971 726.57 112.78C726.19 114.137 725.851 115.531 725.549 116.964C725.325 118.32 725.21 119.715 725.21 121.147C725.059 122.579 725.21 123.597 725.663 124.2C726.19 124.803 726.945 124.84 727.925 124.313C728.831 123.86 729.774 123.823 730.753 124.2C731.733 124.501 732.41 125.104 732.786 126.009C733.239 126.838 733.125 127.931 732.447 129.288C731.994 130.267 731.28 131.21 730.3 132.114C729.321 133.019 728.227 133.772 727.023 134.375C725.814 134.903 724.647 135.167 723.516 135.167C722.688 135.167 721.859 134.865 721.027 134.262C720.198 133.584 719.447 132.68 718.765 131.549C718.088 130.418 717.525 129.175 717.072 127.818L716.394 125.217L712.325 128.949C711.341 130.004 710.361 130.984 709.382 131.888C708.48 132.717 707.912 133.32 707.688 133.697C707.308 134.375 706.557 134.978 705.427 135.506C704.369 136.034 702.978 136.637 701.243 137.315ZM704.296 126.461C705.578 125.707 706.667 124.803 707.574 123.747C708.553 122.692 709.496 121.524 710.402 120.242C711.304 118.886 712.284 117.454 713.341 115.946C714.623 114.213 715.525 112.818 716.055 111.763C716.655 110.708 717.108 109.577 717.41 108.371C717.108 107.542 716.696 106.675 716.165 105.771C715.639 104.791 715.112 104.263 714.586 104.188C713.529 104.188 712.247 104.828 710.741 106.11C709.308 107.391 707.725 109.238 705.99 111.65C705.688 112.026 705.312 112.63 704.859 113.459C704.406 114.288 703.957 115.079 703.504 115.833C703.129 116.511 702.863 116.964 702.712 117.19C702.488 117.491 702.145 118.207 701.696 119.338C701.316 120.393 700.978 121.486 700.676 122.617C700.374 123.672 700.227 124.426 700.227 124.878C700.227 125.33 700.263 125.82 700.337 126.348C700.488 126.875 700.867 127.215 701.467 127.366C702.072 127.516 703.014 127.215 704.296 126.461ZM747.504 137.993C745.843 137.993 744.602 137.918 743.774 137.767C743.018 137.617 742.451 137.391 742.076 137.089C741.7 136.787 741.21 136.373 740.606 135.845C740.304 135.242 739.778 134.489 739.023 133.584C738.267 132.604 737.741 131.963 737.439 131.662C737.137 130.531 737.027 128.986 737.1 127.026C737.251 125.066 737.59 122.956 738.121 120.695C738.647 118.433 739.288 116.398 740.039 114.589C740.341 113.986 740.606 113.383 740.831 112.78C741.059 112.178 741.169 111.876 741.169 111.876C741.169 111.499 741.623 110.595 742.529 109.162C743.508 107.73 744.561 106.223 745.692 104.64C746.9 103.057 747.88 101.926 748.635 101.248C749.161 100.645 749.953 100.004 751.006 99.3261C752.137 98.6477 753.116 98.1575 753.949 97.8559C754.778 97.5547 755.908 97.1775 757.341 96.7253C758.77 96.1979 760.051 95.9338 761.182 95.9338C762.239 95.9338 763.369 96.16 764.574 96.6122C765.782 97.0645 766.798 97.8559 767.627 98.9869C768.986 100.344 769.851 101.964 770.227 103.849C770.606 105.733 770.643 107.353 770.341 108.71C769.965 110.218 769.21 111.461 768.08 112.441C766.949 113.346 765.745 113.835 764.463 113.911C763.182 113.911 762.051 113.383 761.072 112.328C760.77 111.725 760.618 111.235 760.618 110.858C760.618 110.406 760.77 109.765 761.072 108.936C761.374 107.881 761.525 106.939 761.525 106.11C761.525 105.28 761.182 104.866 760.504 104.866C759.525 104.866 758.733 105.167 758.133 105.771C757.529 106.298 756.623 107.202 755.418 108.484C754.888 109.087 754.21 109.954 753.382 111.084C752.553 112.215 751.725 113.459 750.896 114.815C750.141 116.097 749.463 117.416 748.859 118.773C748.031 121.26 747.504 122.881 747.276 123.634C747.125 124.313 747.051 124.652 747.051 124.652C747.051 124.953 747.014 125.255 746.937 125.557C746.863 125.783 746.823 126.046 746.823 126.348C746.823 127.253 747.353 127.969 748.406 128.496C749.235 129.024 749.916 129.288 750.443 129.288C751.047 129.212 752.178 128.798 753.835 128.044C755.039 127.441 756.17 126.649 757.227 125.67C758.357 124.69 759.525 123.823 760.733 123.069C761.561 122.542 762.202 122.089 762.655 121.712C763.182 121.335 763.443 121.298 763.443 121.599C763.443 121.901 763.557 122.051 763.786 122.051C764.01 122.051 764.276 121.901 764.574 121.599C765.027 120.996 765.594 120.77 766.272 120.921C766.949 120.996 767.553 121.185 768.08 121.486C768.684 121.788 768.986 122.051 768.986 122.278C768.835 122.956 768.986 123.521 769.439 123.973C769.439 124.275 769.325 124.69 769.096 125.217C768.949 125.67 768.72 126.046 768.418 126.348C768.043 126.875 767.476 127.629 766.725 128.609C766.047 129.589 765.406 130.456 764.802 131.21C764.198 131.963 763.896 132.34 763.896 132.34C763.594 132.265 763.292 132.34 762.994 132.566C762.765 132.793 762.504 133.056 762.202 133.358C761.598 133.885 761.031 134.3 760.504 134.602C759.978 134.828 759.561 134.941 759.263 134.941C758.733 135.242 758.321 135.431 758.018 135.506C757.79 135.582 757.68 135.77 757.68 136.071C756.925 136.825 755.569 137.353 753.606 137.654C751.647 137.88 749.614 137.993 747.504 137.993ZM785.872 137.88C782.933 136.674 780.896 134.715 779.765 132.001C778.635 129.288 778.333 125.67 778.859 121.147C779.01 118.811 778.937 117.265 778.635 116.511C778.333 115.682 777.769 114.891 776.941 114.137C776.712 113.835 776.186 113.346 775.357 112.667C774.529 111.913 774.149 111.348 774.227 110.971C774.149 110.444 774.263 109.803 774.565 109.049C774.867 108.22 775.129 107.768 775.357 107.693C775.884 107.466 776.41 107.202 776.941 106.901C777.541 106.6 777.994 106.524 778.296 106.675C778.598 106.675 779.051 106.863 779.651 107.24C780.333 107.617 780.672 107.956 780.672 108.258C780.974 108.786 781.423 108.56 782.027 107.58C782.704 106.6 783.423 105.356 784.174 103.849C784.929 102.642 785.872 101.512 787.002 100.457C788.133 99.4012 789.263 98.4591 790.394 97.6298C791.598 96.7253 792.618 96.0469 793.447 95.5947C793.823 95.444 794.541 95.2179 795.594 94.9163C796.725 94.6151 797.892 94.3889 799.1 94.2379C800.304 94.0118 801.21 93.9367 801.814 94.0118C803.17 94.0873 804.602 94.6526 806.108 95.7077C807.618 96.7632 808.786 97.7428 809.614 98.6477C810.594 99.3261 811.235 100.381 811.537 101.813C811.912 103.17 812.063 104.602 811.99 106.11C811.912 107.617 811.61 108.899 811.084 109.954C810.859 110.708 810.067 111.763 808.708 113.12C807.353 114.476 805.847 115.795 804.186 117.077C802.606 118.283 801.247 119.112 800.116 119.564C799.137 119.79 797.969 119.979 796.61 120.129C795.255 120.205 793.974 120.205 792.77 120.129C791.639 119.979 790.847 119.79 790.394 119.564C789.867 119.263 789.414 119.376 789.035 119.903C788.737 120.355 788.472 121.637 788.247 123.747C788.169 124.577 788.169 125.293 788.247 125.896C788.394 126.499 788.545 126.951 788.696 127.253C789.227 128.157 789.753 128.835 790.28 129.288C790.806 129.664 791.79 129.778 793.218 129.627C794.651 129.476 796.084 128.609 797.516 127.026C799.023 125.368 800.382 124.049 801.586 123.069C801.888 122.542 802.529 122.202 803.508 122.051C804.565 121.825 805.806 121.901 807.239 122.278C808.067 122.805 808.447 123.634 808.37 124.765C808.37 125.896 807.765 127.554 806.561 129.74C806.337 130.267 805.696 131.059 804.639 132.114C803.659 133.094 802.565 134.111 801.361 135.167C800.231 136.147 799.288 136.863 798.533 137.315C796.272 138.521 794.051 139.086 791.863 139.011C789.676 138.935 787.68 138.559 785.872 137.88ZM794.239 112.441C795.37 112.14 796.312 111.838 797.063 111.537C797.892 111.235 798.684 110.745 799.439 110.067C800.194 109.389 801.059 108.371 802.039 107.014C802.341 106.185 802.492 105.469 802.492 104.866C802.565 104.263 802.529 103.886 802.378 103.735C801.774 103.132 801.096 102.944 800.345 103.17C799.663 103.321 798.912 103.698 798.08 104.301C797.553 104.527 796.802 105.017 795.818 105.771C794.916 106.449 794.01 107.24 793.108 108.145C792.28 108.974 791.598 109.765 791.072 110.519C790.618 111.198 790.545 111.612 790.847 111.763C790.696 112.064 791.108 112.253 792.088 112.328C793.145 112.404 793.859 112.441 794.239 112.441Z" fill="black"/>
<path d="M100.5 140.552V79.7355H112.745L135.521 109.94H129.806L151.929 79.7355H164.174V140.552H151.521V93.6946L156.582 94.8375L133.153 125.042H131.52L108.908 94.8375L113.153 93.6946V140.552H100.5ZM187.856 141.531C184.645 141.531 181.87 141.014 179.529 139.98C177.189 138.946 175.393 137.477 174.141 135.572C172.89 133.613 172.264 131.3 172.264 128.633C172.264 126.13 172.835 123.926 173.978 122.021C175.121 120.062 176.863 118.429 179.203 117.123C181.597 115.817 184.563 114.892 188.101 114.348L201.733 112.144V121.123L190.305 123.164C188.563 123.491 187.23 124.062 186.305 124.878C185.38 125.64 184.917 126.756 184.917 128.225C184.917 129.586 185.434 130.647 186.468 131.409C187.502 132.171 188.781 132.552 190.305 132.552C192.319 132.552 194.087 132.116 195.611 131.246C197.135 130.375 198.305 129.205 199.121 127.735C199.992 126.211 200.427 124.552 200.427 122.756V111.164C200.427 109.477 199.747 108.062 198.386 106.919C197.08 105.776 195.284 105.205 192.999 105.205C190.822 105.205 188.89 105.803 187.203 107.001C185.57 108.198 184.373 109.776 183.611 111.735L173.815 107.082C174.686 104.579 176.074 102.429 177.978 100.633C179.883 98.8375 182.169 97.4497 184.835 96.4701C187.502 95.4906 190.414 95.0008 193.57 95.0008C197.325 95.0008 200.645 95.6808 203.529 97.0416C206.414 98.402 208.645 100.307 210.223 102.756C211.856 105.15 212.672 107.953 212.672 111.164V140.552H201.243V133.368L204.019 132.878C202.713 134.837 201.271 136.47 199.692 137.776C198.114 139.028 196.345 139.953 194.386 140.552C192.427 141.205 190.25 141.531 187.856 141.531ZM242.325 141.042C236.937 141.042 232.746 139.599 229.753 136.715C226.814 133.776 225.345 129.695 225.345 124.47V106.593H217.835V95.9803H218.243C220.529 95.9803 222.27 95.4089 223.468 94.2661C224.719 93.1232 225.345 91.4089 225.345 89.1232V85.8579H237.59V95.9803H248.039V106.593H237.59V123.654C237.59 125.177 237.862 126.456 238.406 127.491C238.95 128.47 239.794 129.205 240.937 129.695C242.08 130.184 243.495 130.429 245.182 130.429C245.563 130.429 245.998 130.402 246.488 130.348C246.978 130.293 247.495 130.239 248.039 130.184V140.552C247.223 140.66 246.297 140.769 245.263 140.878C244.23 140.987 243.25 141.042 242.325 141.042ZM255.214 140.552V95.9803H267.459V140.552H255.214ZM255.214 91.9803V79.7355H267.459V91.9803H255.214ZM276.42 140.552V78.7559H288.665V140.552H276.42ZM318.605 141.531C314.251 141.531 310.36 140.497 306.931 138.429C303.503 136.361 300.781 133.558 298.768 130.021C296.809 126.484 295.829 122.565 295.829 118.266C295.829 113.912 296.836 109.994 298.85 106.511C300.863 102.973 303.584 100.171 307.013 98.1028C310.441 96.0346 314.278 95.0008 318.523 95.0008C321.788 95.0008 324.672 95.6265 327.176 96.8783C329.734 98.0754 331.748 99.7897 333.217 102.021L331.339 104.47V78.7559H343.584V140.552H332.156V132.389L333.299 134.919C331.774 137.096 329.707 138.756 327.094 139.899C324.482 140.987 321.652 141.531 318.605 141.531ZM320.074 130.511C322.305 130.511 324.264 129.994 325.952 128.96C327.639 127.926 328.945 126.484 329.87 124.633C330.85 122.783 331.339 120.66 331.339 118.266C331.339 115.871 330.85 113.749 329.87 111.899C328.945 110.048 327.639 108.606 325.952 107.572C324.264 106.538 322.305 106.021 320.074 106.021C317.843 106.021 315.829 106.565 314.033 107.654C312.292 108.688 310.931 110.13 309.952 111.98C308.972 113.776 308.482 115.871 308.482 118.266C308.482 120.66 308.972 122.783 309.952 124.633C310.931 126.484 312.292 127.926 314.033 128.96C315.829 129.994 317.843 130.511 320.074 130.511ZM366.348 141.531C363.137 141.531 360.361 141.014 358.021 139.98C355.681 138.946 353.885 137.477 352.633 135.572C351.381 133.613 350.756 131.3 350.756 128.633C350.756 126.13 351.327 123.926 352.47 122.021C353.613 120.062 355.354 118.429 357.694 117.123C360.089 115.817 363.055 114.892 366.592 114.348L380.225 112.144V121.123L368.797 123.164C367.055 123.491 365.722 124.062 364.797 124.878C363.871 125.64 363.409 126.756 363.409 128.225C363.409 129.586 363.926 130.647 364.96 131.409C365.994 132.171 367.273 132.552 368.797 132.552C370.81 132.552 372.579 132.116 374.103 131.246C375.626 130.375 376.797 129.205 377.613 127.735C378.483 126.211 378.919 124.552 378.919 122.756V111.164C378.919 109.477 378.239 108.062 376.878 106.919C375.572 105.776 373.776 105.205 371.49 105.205C369.314 105.205 367.381 105.803 365.694 107.001C364.062 108.198 362.865 109.776 362.103 111.735L352.307 107.082C353.177 104.579 354.565 102.429 356.47 100.633C358.375 98.8375 360.661 97.4497 363.327 96.4701C365.994 95.4906 368.905 95.0008 372.062 95.0008C375.817 95.0008 379.137 95.6808 382.021 97.0416C384.905 98.402 387.137 100.307 388.715 102.756C390.348 105.15 391.164 107.953 391.164 111.164V140.552H379.735V133.368L382.511 132.878C381.205 134.837 379.763 136.47 378.184 137.776C376.606 139.028 374.837 139.953 372.878 140.552C370.919 141.205 368.742 141.531 366.348 141.531Z" fill="black"/>
</svg>
