<svg width="561" height="231" viewBox="0 0 561 231" fill="none" xmlns="http://www.w3.org/2000/svg">
<g clip-path="url(#clip0_658_22652)">
<path fill-rule="evenodd" clip-rule="evenodd" d="M136.688 139.492C156.57 139.492 172.688 123.374 172.688 103.492C172.688 83.6099 156.57 67.4922 136.688 67.4922C136.353 67.4922 136.02 67.4967 135.688 67.5058V67.4922H118.688H112.688H100.688V103.492V163.492H118.688V139.492H135.688V139.478C136.02 139.487 136.353 139.492 136.688 139.492ZM136.687 121.492C146.488 121.492 154.433 113.433 154.433 103.492C154.433 93.5512 146.488 85.4924 136.688 85.4922H118.688V121.492H136.687ZM226.688 91.4922H244.688V163.492H226.688V158.676C221.393 161.74 215.244 163.492 208.688 163.492C188.805 163.492 172.688 147.374 172.688 127.492C172.688 107.61 188.805 91.4924 208.688 91.4924C215.244 91.4924 221.393 93.2455 226.688 96.3086V91.4922ZM208.688 109.492C218.629 109.492 226.688 117.551 226.688 127.492C226.688 137.433 218.629 145.492 208.688 145.492C198.747 145.492 190.688 137.433 190.688 127.492C190.688 117.551 198.747 109.492 208.688 109.492ZM320.688 67.4922H302.688V96.3083C297.392 93.2453 291.244 91.4922 284.688 91.4922C264.805 91.4922 248.688 107.61 248.688 127.492C248.688 147.374 264.805 163.492 284.688 163.492C291.244 163.492 297.392 161.739 302.688 158.676V163.492H320.688V127.492V67.4922ZM302.688 127.584C302.638 137.483 294.598 145.492 284.688 145.492C274.746 145.492 266.688 137.433 266.688 127.492C266.688 117.551 274.746 109.492 284.688 109.492C294.598 109.492 302.638 117.501 302.688 127.399V127.584ZM345.688 67.4922H327.688V163.492H345.688V67.4922ZM422.338 133.544C420.51 144.213 413.924 154.018 403.813 159.17C385.316 168.594 363.638 161.551 355.01 144.618C345.585 126.12 352.629 104.442 371.126 95.0172C388.059 86.3894 409.737 93.4332 419.163 111.931C420.108 113.785 420.864 115.696 421.44 117.64L403.23 126.919L375.098 141.254C380.501 145.755 388.405 146.818 395.623 143.141C401.335 140.23 404.771 133.975 404.711 127.432L422.338 133.544ZM368.742 128.78L398.302 113.718C392.97 109.18 385.352 107.97 379.279 111.065C372.061 114.743 368.276 121.762 368.742 128.78ZM427.688 67.4922H445.68V97.4922H459.68V115.492H445.68V163.492H427.688V67.4922Z" fill="#111111"/>
</g>
<defs>
<clipPath id="clip0_658_22652">
<rect width="360" height="100" fill="white" transform="translate(100.688 65.5)"/>
</clipPath>
</defs>
</svg>
