<svg width="561" height="400" viewBox="0 0 561 400" fill="none" xmlns="http://www.w3.org/2000/svg">
<rect width="560" height="400" transform="translate(0.6875)" fill="white"/>
<g clip-path="url(#clip0_658_22652)">
<path fill-rule="evenodd" clip-rule="evenodd" d="M136.687 223.992C156.57 223.992 172.687 207.874 172.687 187.992C172.687 168.11 156.57 151.992 136.687 151.992C136.353 151.992 136.02 151.997 135.688 152.006V151.992H118.687H112.688H100.688V187.992V247.992H118.687V223.992H135.688V223.978C136.02 223.987 136.353 223.992 136.687 223.992ZM136.687 205.992C146.488 205.992 154.433 197.933 154.433 187.992C154.433 178.051 146.488 169.992 136.687 169.992H118.687V205.992H136.687ZM226.688 175.992H244.687V247.992H226.688V243.176C221.393 246.239 215.245 247.992 208.688 247.992C188.805 247.992 172.687 231.874 172.687 211.992C172.687 192.11 188.805 175.992 208.688 175.992C215.245 175.992 221.393 177.746 226.688 180.809V175.992ZM208.688 193.992C218.629 193.992 226.688 202.051 226.688 211.992C226.688 221.933 218.629 229.992 208.688 229.992C198.747 229.992 190.688 221.933 190.688 211.992C190.688 202.051 198.747 193.992 208.688 193.992ZM320.688 151.992H302.688V180.808C297.392 177.745 291.244 175.992 284.687 175.992C264.805 175.992 248.688 192.11 248.688 211.992C248.688 231.874 264.805 247.992 284.687 247.992C291.244 247.992 297.392 246.239 302.688 243.176V247.992H320.688V211.992V151.992ZM302.688 212.084C302.638 221.983 294.598 229.992 284.687 229.992C274.746 229.992 266.688 221.933 266.688 211.992C266.688 202.051 274.746 193.992 284.687 193.992C294.598 193.992 302.638 202.001 302.688 211.899V212.084ZM345.688 151.992H327.688V247.992H345.688V151.992ZM422.338 218.044C420.51 228.713 413.924 238.518 403.813 243.67C385.316 253.095 363.638 246.051 355.01 229.118C345.585 210.62 352.629 188.942 371.126 179.517C388.059 170.889 409.737 177.933 419.162 196.431C420.107 198.285 420.864 200.196 421.44 202.14L403.23 211.419L375.097 225.754C380.502 230.255 388.405 231.318 395.623 227.641C401.335 224.73 404.77 218.475 404.711 211.932L422.338 218.044ZM368.742 213.28L398.302 198.218C392.97 193.68 385.352 192.47 379.279 195.565C372.061 199.243 368.276 206.262 368.742 213.28ZM427.688 151.992H445.68V181.992H459.68V199.992H445.68V247.992H427.688V151.992Z" fill="#111111"/>
</g>
<defs>
<clipPath id="clip0_658_22652">
<rect width="360" height="100" fill="white" transform="translate(100.688 150)"/>
</clipPath>
</defs>
</svg>
