<svg width="388" height="400" viewBox="0 0 388 400" fill="none" xmlns="http://www.w3.org/2000/svg">
<rect width="387" height="400" transform="translate(0.470703)" fill="white"/>
<path fill-rule="evenodd" clip-rule="evenodd" d="M243.189 243.622C218.977 270.926 177.214 273.433 149.91 249.22C146.698 246.372 143.829 243.281 141.306 239.999L161.722 216.976C163.694 220.65 166.336 224.045 169.638 226.972C184.655 240.289 207.625 238.91 220.942 223.893C234.259 208.875 232.88 185.906 217.863 172.589C203.343 159.713 181.389 160.575 167.914 174.22L167.874 174.185L166.558 175.668L129.939 216.965C124.377 196.236 129.006 173.199 144.311 155.94C168.524 128.635 210.287 126.129 237.591 150.341C264.896 174.554 267.402 216.317 243.189 243.622Z" fill="black"/>
</svg>
