<svg width="388" height="231" viewBox="0 0 388 231" fill="none" xmlns="http://www.w3.org/2000/svg">
<path fill-rule="evenodd" clip-rule="evenodd" d="M243.219 159.122C219.007 186.426 177.243 188.933 149.939 164.72C146.727 161.872 143.858 158.781 141.336 155.499L161.751 132.476C163.723 136.15 166.366 139.545 169.667 142.472C184.684 155.789 207.654 154.41 220.971 139.393C234.288 124.375 232.909 101.406 217.892 88.0887C203.372 75.2133 181.418 76.0754 167.943 89.7202L167.903 89.6852L166.588 91.168L129.968 132.465C124.406 111.736 129.035 88.6993 144.34 71.4399C168.553 44.1352 210.316 41.6286 237.621 65.8412C264.925 90.0539 267.432 131.817 243.219 159.122Z" fill="black"/>
</svg>
