<svg width="652" height="400" viewBox="0 0 652 400" fill="none" xmlns="http://www.w3.org/2000/svg">
<rect width="650.5" height="400" transform="translate(0.691406)" fill="white"/>
<g clip-path="url(#clip0_659_23085)">
<path d="M153.691 245.05C128.811 245.05 108.641 224.88 108.641 200C108.641 175.12 128.811 154.95 153.691 154.95C178.572 154.95 198.741 175.12 198.741 200C198.741 224.88 178.572 245.05 153.691 245.05ZM153.691 253C182.962 253 206.691 229.271 206.691 200C206.691 170.729 182.962 147 153.691 147C124.42 147 100.691 170.729 100.691 200C100.691 229.271 124.42 253 153.691 253Z" fill="black"/>
<path d="M316.667 162.9C297.64 162.9 282.217 178.324 282.217 197.35C282.217 216.377 297.64 231.8 316.667 231.8C335.693 231.8 351.117 216.377 351.117 197.35C351.117 178.324 335.693 162.9 316.667 162.9ZM290.167 197.35C290.167 182.715 302.031 170.85 316.667 170.85C331.302 170.85 343.167 182.715 343.167 197.35C343.167 211.986 331.302 223.85 316.667 223.85C302.031 223.85 290.167 211.986 290.167 197.35Z" fill="black"/>
<path d="M275.591 164.225L275.094 164.225C269.235 164.224 265.745 164.224 262.754 164.758C248.629 167.281 237.572 178.338 235.049 192.462C234.515 195.454 234.515 198.944 234.516 204.803V231.8H242.466V205.3C242.466 198.797 242.482 196.067 242.875 193.86C244.812 183.013 253.304 174.522 264.151 172.584C266.358 172.19 269.088 172.175 275.591 172.175V164.225Z" fill="black"/>
<path d="M422.667 219.364V231.8H430.617V197.35C430.617 178.324 415.193 162.9 396.167 162.9C377.14 162.9 361.717 178.324 361.717 197.35C361.717 216.377 377.14 231.8 396.167 231.8C406.822 231.8 416.348 226.963 422.667 219.364ZM396.167 170.85C410.802 170.85 422.667 182.715 422.667 197.35C422.667 211.986 410.802 223.85 396.167 223.85C381.531 223.85 369.667 211.986 369.667 197.35C369.667 182.715 381.531 170.85 396.167 170.85Z" fill="black"/>
<path d="M474.343 172.175C463.366 172.175 454.468 181.073 454.468 192.05V231.8H446.518V192.05C446.518 176.682 458.975 164.225 474.343 164.225C484.464 164.225 493.323 169.629 498.193 177.709C503.062 169.629 511.921 164.225 522.043 164.225C537.41 164.225 549.868 176.682 549.868 192.05V231.8H541.918V192.05C541.918 181.073 533.019 172.175 522.043 172.175C511.066 172.175 502.168 181.073 502.168 192.05V231.8H494.218V192.05C494.218 181.073 485.319 172.175 474.343 172.175Z" fill="black"/>
<path d="M175.439 160.537C172.459 159.84 169.354 159.471 166.162 159.471C143.778 159.471 125.633 177.616 125.633 200C125.633 222.384 143.778 240.53 166.162 240.53C169.354 240.53 172.459 240.16 175.439 239.463C189.308 231.804 198.709 217.046 198.742 200.089C198.693 218.041 184.126 232.58 166.162 232.58C148.169 232.58 133.583 217.993 133.583 200C133.583 182.007 148.169 167.421 166.162 167.421C184.126 167.421 198.693 181.959 198.742 199.911C198.709 182.954 189.308 168.196 175.439 160.537Z" fill="black" fill-opacity="0.5"/>
<path d="M183.39 227.657C192.585 221.918 198.711 211.72 198.742 200.089V200.046C198.717 211.131 189.723 220.109 178.633 220.109C167.527 220.109 158.524 211.106 158.524 200C158.524 188.894 167.527 179.891 178.633 179.891C189.723 179.891 198.717 188.87 198.742 199.955V199.911C198.711 188.28 192.585 178.083 183.39 172.343C181.843 172.079 180.254 171.941 178.633 171.941C163.136 171.941 150.574 184.504 150.574 200C150.574 215.496 163.136 228.059 178.633 228.059C180.254 228.059 181.844 227.922 183.39 227.657Z" fill="black" fill-opacity="0.3"/>
</g>
<defs>
<clipPath id="clip0_659_23085">
<rect width="450.5" height="106" fill="white" transform="translate(100.691 147)"/>
</clipPath>
</defs>
</svg>
