<svg width="652" height="231" viewBox="0 0 652 231" fill="none" xmlns="http://www.w3.org/2000/svg">
<g clip-path="url(#clip0_659_23085)">
<path d="M153.691 160.55C128.811 160.55 108.641 140.38 108.641 115.5C108.641 90.6196 128.811 70.45 153.691 70.45C178.572 70.45 198.741 90.6196 198.741 115.5C198.741 140.38 178.572 160.55 153.691 160.55ZM153.691 168.5C182.962 168.5 206.691 144.771 206.691 115.5C206.691 86.2289 182.962 62.5 153.691 62.5C124.42 62.5 100.691 86.2289 100.691 115.5C100.691 144.771 124.42 168.5 153.691 168.5Z" fill="black"/>
<path d="M316.667 78.4004C297.64 78.4004 282.217 93.8242 282.217 112.85C282.217 131.877 297.64 147.3 316.667 147.3C335.693 147.3 351.117 131.877 351.117 112.85C351.117 93.8242 335.693 78.4004 316.667 78.4004ZM290.167 112.85C290.167 98.2149 302.031 86.3504 316.667 86.3504C331.302 86.3504 343.167 98.2149 343.167 112.85C343.167 127.486 331.302 139.35 316.667 139.35C302.031 139.35 290.167 127.486 290.167 112.85Z" fill="black"/>
<path d="M275.591 79.7247L275.094 79.7246C269.235 79.7243 265.745 79.724 262.754 80.2582C248.629 82.7806 237.572 93.8376 235.049 107.962C234.515 110.954 234.515 114.444 234.516 120.303V147.3H242.466V120.8C242.466 114.297 242.482 111.567 242.875 109.36C244.812 98.5128 253.304 90.0215 264.151 88.0844C266.358 87.6903 269.088 87.6747 275.591 87.6747V79.7247Z" fill="black"/>
<path d="M422.667 134.864V147.3H430.617V112.85C430.617 93.8242 415.193 78.4004 396.167 78.4004C377.14 78.4004 361.717 93.8242 361.717 112.85C361.717 131.877 377.14 147.3 396.167 147.3C406.822 147.3 416.348 142.463 422.667 134.864ZM396.167 86.3504C410.802 86.3504 422.667 98.2149 422.667 112.85C422.667 127.486 410.802 139.35 396.167 139.35C381.531 139.35 369.667 127.486 369.667 112.85C369.667 98.2149 381.531 86.3504 396.167 86.3504Z" fill="black"/>
<path d="M474.343 87.6746C463.366 87.6746 454.468 96.5729 454.468 107.55V147.3H446.518V107.55C446.518 92.1823 458.975 79.7246 474.343 79.7246C484.464 79.7246 493.323 85.129 498.193 93.2094C503.062 85.129 511.921 79.7246 522.043 79.7246C537.41 79.7246 549.868 92.1823 549.868 107.55V147.3H541.918V107.55C541.918 96.5729 533.019 87.6746 522.043 87.6746C511.066 87.6746 502.168 96.5729 502.168 107.55V147.3H494.218V107.55C494.218 96.5729 485.319 87.6746 474.343 87.6746Z" fill="black"/>
<path d="M175.439 76.0372C172.459 75.3396 169.354 74.9707 166.162 74.9707C143.778 74.9707 125.633 93.1163 125.633 115.5C125.633 137.884 143.778 156.03 166.162 156.03C169.354 156.03 172.459 155.66 175.439 154.963C189.308 147.304 198.709 132.546 198.742 115.589C198.693 133.541 184.126 148.08 166.162 148.08C148.169 148.08 133.583 133.493 133.583 115.5C133.583 97.507 148.169 82.9207 166.162 82.9207C184.126 82.9207 198.693 97.4588 198.742 115.411C198.709 98.4543 189.308 83.6964 175.439 76.0372Z" fill="black" fill-opacity="0.5"/>
<path d="M183.39 143.157C192.585 137.418 198.711 127.22 198.742 115.589V115.546C198.717 126.631 189.723 135.609 178.633 135.609C167.527 135.609 158.524 126.606 158.524 115.5C158.524 104.394 167.527 95.3914 178.633 95.3914C189.723 95.3914 198.717 104.37 198.742 115.455V115.411C198.711 103.78 192.585 93.5826 183.39 87.8429C181.843 87.5789 180.254 87.4414 178.633 87.4414C163.136 87.4414 150.574 100.004 150.574 115.5C150.574 130.996 163.136 143.559 178.633 143.559C180.254 143.559 181.844 143.422 183.39 143.157Z" fill="black" fill-opacity="0.3"/>
</g>
<defs>
<clipPath id="clip0_659_23085">
<rect width="450.5" height="106" fill="white" transform="translate(100.691 62.5)"/>
</clipPath>
</defs>
</svg>
