<?xml version="1.0" encoding="utf-8"?>
<!-- Generator: Adobe Illustrator 24.1.0, SVG Export Plug-In . SVG Version: 6.00 Build 0)  -->
<svg version="1.1" id="Layer_1" xmlns="http://www.w3.org/2000/svg" xmlns:xlink="http://www.w3.org/1999/xlink" x="0px" y="0px"
	 viewBox="0 0 40 50" style="enable-background:new 0 0 40 50;" xml:space="preserve">
<style type="text/css">
</style>
<g class="st0">
	<g>
		<path d="M16.5,2.2c-1.4,0-2.6,0.5-3.8,1.2c-0.2-0.9-0.1-1.7,0.4-2.5c0.2-0.4,0.7-0.4,1.1-0.1C15,1.3,15.7,1.8,16.5,2.2z"/>
		<path d="M6.5,10c-0.9,0.4-1.5,1.2-2.3,1.8C4,11,3.7,10.3,3.6,9.6s0.2-1,1-0.8C5.3,9.1,5.9,9.5,6.5,10z"/>
		<path d="M29.2,3.4c-0.8-0.3-1.6-0.5-2.5-0.8c0-0.1,0.1-0.1,0.1-0.2c0.6-0.5,1.2-1.6,1.9-1.3C29.6,1.5,29.1,2.6,29.2,3.4z"/>
		<path d="M36.2,11.9c-0.3-0.6-0.7-1.2-1-1.7c0.5-0.4,1-1.1,1.6-0.7c0.7,0.5-0.1,1.1-0.2,1.7C36.5,11.4,36.3,11.6,36.2,11.9z"/>
		<path d="M21.1,15.1c3.1,0.1,5.2,1.8,6.4,4.5c0.3,0.7,0.5,1.4,0.7,2.1c0.8,3.2-1.8,5.8-5,4.9c-1.4-0.4-2.7-0.6-4.1-0.3
			c-0.9,0.2-1.7,0.1-2.6-0.3c-3.3-1.3-4.1-4-2-6.9c1.3-1.7,2.7-3.2,4.9-3.9C20,15.2,20.5,15.1,21.1,15.1z"/>
		<path d="M15.6,15.6c0,1.9-1.6,3.5-3.5,3.5c-1.7,0-3.2-1.4-3.2-2.9c0-2.2,1.6-4,3.6-4C14.2,12.2,15.6,13.8,15.6,15.6z"/>
		<path d="M17.7,13.1c-2,0-3.2-1-3.2-2.8c0-2.6,0.9-3.8,3-3.8c2,0,3.5,1.4,3.5,3.3C21.1,11.9,19.9,13.1,17.7,13.1z"/>
		<path d="M27.8,10.6c0,1.8-1.2,3-3.1,3c-1.6,0-2.9-1.7-2.9-3.7c0-1.7,1.1-2.8,2.8-2.8C26.6,7.1,27.8,8.4,27.8,10.6z"/>
		<path d="M32.5,16c0,1.7-1.1,2.9-2.6,2.8c-1.6-0.1-3-1.5-2.9-3.2c0-1.7,1.1-2.7,2.8-2.7C31.6,13,32.6,14.1,32.5,16z"/>
	</g>
</g>
</svg>
