<svg width="181" height="180" viewBox="0 0 181 180" fill="none" xmlns="http://www.w3.org/2000/svg">
<g clip-path="url(#clip0_1094_102911)">
<path d="M0.501953 19.7802C0.501953 8.85591 8.98498 0 19.4493 0H161.555C172.019 0 180.502 8.85591 180.502 19.7802V160.22C180.502 171.144 172.019 180 161.555 180H19.4493C8.98498 180 0.501953 171.144 0.501953 160.22V19.7802Z" fill="white"/>
<path d="M105.359 51.4801C105.359 55.8302 103.873 59.5212 100.899 62.5531C97.9253 65.585 94.3052 67.1009 90.0387 67.1009C85.6428 67.1009 81.9581 65.585 78.9845 62.5531C76.0108 59.5212 74.524 55.8302 74.524 51.4801C74.524 47.1301 76.0108 43.4391 78.9845 40.4072C81.9581 37.3753 85.6428 35.8594 90.0387 35.8594C94.3052 35.8594 97.9253 37.3753 100.899 40.4072C103.873 43.4391 105.359 47.1301 105.359 51.4801ZM74.3301 106.224C74.3301 101.874 75.8169 98.1831 78.7905 95.1512C81.8935 91.9875 85.6428 90.4056 90.0387 90.4056C94.1759 90.4056 97.796 91.9875 100.899 95.1512C104.002 98.1831 105.812 101.61 106.329 105.433C107.363 112.552 106.07 119.604 102.45 126.59C98.9596 133.577 93.9173 138.916 87.3236 142.607C83.7035 144.716 80.7299 144.65 78.4027 142.409C76.2048 140.3 76.8512 137.795 80.342 134.895C82.2813 133.445 83.8974 131.6 85.1903 129.359C86.4832 127.118 87.3236 124.811 87.7115 122.438C87.8408 121.384 87.3882 120.856 86.3539 120.856C83.7682 120.724 81.1177 119.274 78.4027 116.506C75.6876 113.738 74.3301 110.311 74.3301 106.224Z" fill="black"/>
</g>
<defs>
<clipPath id="clip0_1094_102911">
<rect width="180" height="180" fill="white" transform="translate(0.501953)"/>
</clipPath>
</defs>
</svg>
