<svg width="513" height="512" viewBox="0 0 513 512" fill="none" xmlns="http://www.w3.org/2000/svg">
<g clip-path="url(#clip0_1053_2035)">
<path d="M0.501953 56.2637C0.501953 25.1901 24.6314 0 54.3967 0H458.607C488.372 0 512.502 25.1901 512.502 56.2637V455.736C512.502 486.81 488.372 512 458.607 512H54.3967C24.6315 512 0.501953 486.81 0.501953 455.736V56.2637Z" fill="white"/>
<path d="M298.763 146.432C298.763 158.806 294.534 169.305 286.076 177.929C277.617 186.553 267.32 190.865 255.184 190.865C242.68 190.865 232.199 186.553 223.741 177.929C215.283 169.305 211.054 158.806 211.054 146.432C211.054 134.059 215.283 123.56 223.741 114.936C232.199 106.312 242.68 102 255.184 102C267.32 102 277.617 106.312 286.076 114.936C294.534 123.56 298.763 134.059 298.763 146.432ZM210.502 302.149C210.502 289.775 214.731 279.276 223.189 270.652C232.016 261.653 242.68 257.154 255.184 257.154C266.952 257.154 277.249 261.653 286.076 270.652C294.902 279.276 300.05 289.025 301.521 299.899C304.463 320.147 300.786 340.207 290.489 360.08C280.559 379.952 266.217 395.138 247.461 405.637C237.164 411.636 228.706 411.449 222.086 405.074C215.834 399.075 217.673 391.951 227.603 383.702C233.119 379.577 237.716 374.328 241.393 367.954C245.071 361.579 247.461 355.018 248.565 348.268C248.932 345.269 247.645 343.769 244.703 343.769C237.348 343.394 229.809 339.269 222.086 331.395C214.363 323.521 210.502 313.772 210.502 302.149Z" fill="black"/>
</g>
<defs>
<clipPath id="clip0_1053_2035">
<rect width="512" height="512" fill="white" transform="translate(0.501953)"/>
</clipPath>
</defs>
</svg>
