<svg width="30" height="31" viewBox="0 0 30 31" fill="none" xmlns="http://www.w3.org/2000/svg">
  <g clip-path="url(#clip0_155_47932)">
    <path
      d="M0 3.7967C0 1.97598 1.41384 0.5 3.15789 0.5H26.8421C28.5862 0.5 30 1.97598 30 3.7967V27.2033C30 29.024 28.5862 30.5 26.8421 30.5H3.1579C1.41384 30.5 0 29.024 0 27.2033V3.7967Z"
      fill="black" />
    <path
      d="M17.4762 9.08002C17.4762 9.80504 17.2284 10.4202 16.7328 10.9255C16.2372 11.4308 15.6339 11.6835 14.9228 11.6835C14.1901 11.6835 13.576 11.4308 13.0804 10.9255C12.5848 10.4202 12.337 9.80504 12.337 9.08002C12.337 8.35501 12.5848 7.73985 13.0804 7.23453C13.576 6.72922 14.1901 6.47656 14.9228 6.47656C15.6339 6.47656 16.2372 6.72922 16.7328 7.23453C17.2284 7.73985 17.4762 8.35501 17.4762 9.08002ZM12.3047 18.204C12.3047 17.479 12.5525 16.8638 13.0481 16.3585C13.5653 15.8312 14.1901 15.5676 14.9228 15.5676C15.6123 15.5676 16.2157 15.8312 16.7328 16.3585C17.25 16.8638 17.5517 17.4351 17.6379 18.0722C17.8102 19.2586 17.5948 20.434 16.9914 21.5984C16.4096 22.7628 15.5692 23.6526 14.4703 24.2678C13.8669 24.6193 13.3713 24.6083 12.9835 24.2348C12.6171 23.8833 12.7249 23.4659 13.3067 22.9825C13.6299 22.7409 13.8992 22.4333 14.1147 22.0598C14.3302 21.6863 14.4703 21.3018 14.5349 20.9064C14.5565 20.7306 14.481 20.6427 14.3087 20.6427C13.8777 20.6207 13.436 20.3791 12.9835 19.9177C12.5309 19.4563 12.3047 18.8851 12.3047 18.204Z"
      fill="white" />
  </g>
  <defs>
    <clipPath id="clip0_155_47932">
      <rect width="30" height="30" fill="white" transform="translate(0 0.5)" />
    </clipPath>
  </defs>
</svg>