<svg width="1001" height="1000" viewBox="0 0 1001 1000" fill="none" xmlns="http://www.w3.org/2000/svg">
<path fill-rule="evenodd" clip-rule="evenodd" d="M0.745605 130C0.745605 58 58.7456 0 130.746 0H870.746C942.746 0 1000.75 58 1000.75 130V870C1000.75 942 942.746 1000 870.746 1000H130.746C58.7456 1000 0.745605 942 0.745605 870V130ZM590.746 300C590.746 350 550.746 390 500.746 390C450.746 390 410.746 350 410.746 300C410.746 250 450.746 210 500.746 210C550.746 210 590.746 250 590.746 300ZM470.746 810C513.746 810 554.746 751 569.746 719C588.746 678 599.746 605 580.746 562C567.746 532 537.746 510 497.746 510C449.746 510 410.746 549 410.746 597C410.746 640 441.746 674 481.746 681C483.746 681 485.746 684 485.746 686C481.746 711 470.746 743 453.746 759C432.746 779 438.746 810 470.746 810Z" fill="black" style="fill:black;fill-opacity:1;"/>
</svg>
