<svg width="1001" height="1001" viewBox="0 0 1001 1001" fill="none" xmlns="http://www.w3.org/2000/svg">
<path fill-rule="evenodd" clip-rule="evenodd" d="M0.745605 130.5C0.745605 58.5 58.7456 0.5 130.746 0.5H870.746C942.746 0.5 1000.75 58.5 1000.75 130.5V870.5C1000.75 942.5 942.746 1000.5 870.746 1000.5H130.746C58.7456 1000.5 0.745605 942.5 0.745605 870.5V130.5ZM590.746 300.5C590.746 350.5 550.746 390.5 500.746 390.5C450.746 390.5 410.746 350.5 410.746 300.5C410.746 250.5 450.746 210.5 500.746 210.5C550.746 210.5 590.746 250.5 590.746 300.5ZM470.746 810.5C513.746 810.5 554.746 751.5 569.746 719.5C588.746 678.5 599.746 605.5 580.746 562.5C567.746 532.5 537.746 510.5 497.746 510.5C449.746 510.5 410.746 549.5 410.746 597.5C410.746 640.5 441.746 674.5 481.746 681.5C483.746 681.5 485.746 684.5 485.746 686.5C481.746 711.5 470.746 743.5 453.746 759.5C432.746 779.5 438.746 810.5 470.746 810.5Z" fill="white" style="fill:white;fill-opacity:1;"/>
</svg>
