<svg width="15" height="15" viewBox="0 0 15 15" fill="none" xmlns="http://www.w3.org/2000/svg">
<path fill-rule="evenodd" clip-rule="evenodd" d="M2.14645 10.6464C1.95118 10.8417 1.95118 11.1583 2.14645 11.3536C2.34171 11.5488 2.65829 11.5488 2.85355 11.3536L6.85355 7.35355C7.04882 7.15829 7.04882 6.84171 6.85355 6.64645L2.85355 2.64645C2.65829 2.45118 2.34171 2.45118 2.14645 2.64645C1.95118 2.84171 1.95118 3.15829 2.14645 3.35355L5.79289 7L2.14645 10.6464ZM8.14645 10.6464C7.95118 10.8417 7.95118 11.1583 8.14645 11.3536C8.34171 11.5488 8.65829 11.5488 8.85355 11.3536L12.8536 7.35355C13.0488 7.15829 13.0488 6.84171 12.8536 6.64645L8.85355 2.64645C8.65829 2.45118 8.34171 2.45118 8.14645 2.64645C7.95118 2.84171 7.95118 3.15829 8.14645 3.35355L11.7929 7L8.14645 10.6464Z" fill="#2D2D2D"/>
</svg>
