<svg width="24" height="24" viewBox="0 0 24 24" fill="none" xmlns="http://www.w3.org/2000/svg">
<g clip-path="url(#clip0_30_29)">
<path fill-rule="evenodd" clip-rule="evenodd" d="M4 0C1.791 0 0 1.791 0 4V20C0 22.209 1.791 24 4 24H20C22.209 24 24 22.209 24 20V4C24 1.791 22.209 0 20 0H4ZM14.3989 5.5C15.6119 5.707 16.7929 6.074 17.9119 6.592C19.8369 9.426 20.7899 12.633 20.4219 16.325C19.1179 17.292 17.6619 18.028 16.1169 18.5C15.7729 18.032 15.4639 17.529 15.1969 17.001C15.7009 16.811 16.1869 16.576 16.6489 16.299C16.567 16.2396 16.4893 16.1765 16.4097 16.1119C16.3727 16.0818 16.3353 16.0515 16.2969 16.021C13.5309 17.313 10.4969 17.313 7.69694 16.021C7.58494 16.117 7.46394 16.212 7.34394 16.299C7.80694 16.576 8.29294 16.811 8.79594 17.001C8.53094 17.526 8.22394 18.027 7.87694 18.5C6.47594 18.067 5.04994 17.408 3.57194 16.325C3.27194 13.135 3.87194 9.903 6.09794 6.592C7.21694 6.071 8.39894 5.704 9.61294 5.5C9.75894 5.769 9.93894 6.133 10.0589 6.419C11.3499 6.228 12.6609 6.228 13.9509 6.419C14.0719 6.133 14.2429 5.769 14.3989 5.5ZM7.65294 12.641C7.65294 13.586 8.34094 14.357 9.18294 14.357C10.0339 14.357 10.7119 13.586 10.7119 12.641C10.7289 11.697 10.0329 10.925 9.18294 10.925C8.32394 10.925 7.65294 11.697 7.65294 12.641ZM13.2979 12.641C13.2979 13.586 13.9859 14.357 14.8279 14.357C15.6869 14.357 16.3569 13.586 16.3569 12.641C16.3749 11.697 15.6779 10.925 14.8279 10.925C13.9689 10.925 13.2979 11.697 13.2979 12.641Z" fill="#222222"/>
</g>
<defs>
<clipPath id="clip0_30_29">
<rect width="24" height="24" fill="white"/>
</clipPath>
</defs>
</svg>
