<svg width="15" height="15" viewBox="0 0 15 15" fill="none" xmlns="http://www.w3.org/2000/svg">
<path fill-rule="evenodd" clip-rule="evenodd" d="M11.1464 1.14645C11.3417 0.951184 11.6583 0.951184 11.8535 1.14645L13.8535 3.14645C14.0488 3.34171 14.0488 3.65829 13.8535 3.85355L9.91091 7.79618C9.83491 7.87218 9.74715 7.93543 9.65101 7.9835L5.72359 9.94721C5.53109 10.0435 5.29861 10.0057 5.14643 9.85355C4.99425 9.70137 4.95652 9.46889 5.05277 9.27639L7.01648 5.34897C7.06455 5.25283 7.1278 5.16507 7.2038 5.08907L11.1464 1.14645ZM11.5 2.20711L7.91091 5.79618L6.87266 7.87267L7.12731 8.12732L9.2038 7.08907L12.7929 3.5L11.5 2.20711ZM8.99998 2L7.99998 3H3.9C3.47171 3 3.18056 3.00039 2.95552 3.01877C2.73631 3.03668 2.62421 3.06915 2.54601 3.10899C2.35785 3.20487 2.20487 3.35785 2.10899 3.54601C2.06915 3.62421 2.03669 3.73631 2.01878 3.95552C2.00039 4.18056 2 4.47171 2 4.9V11.1C2 11.5283 2.00039 11.8194 2.01878 12.0445C2.03669 12.2637 2.06915 12.3758 2.10899 12.454C2.20487 12.6422 2.35785 12.7951 2.54601 12.891C2.62421 12.9309 2.73631 12.9633 2.95552 12.9812C3.18056 12.9996 3.47171 13 3.9 13H10.1C10.5283 13 10.8194 12.9996 11.0445 12.9812C11.2637 12.9633 11.3758 12.9309 11.454 12.891C11.6422 12.7951 11.7951 12.6422 11.891 12.454C11.9309 12.3758 11.9633 12.2637 11.9812 12.0445C11.9996 11.8194 12 11.5283 12 11.1V6.99998L13 5.99998V11.1V11.1207C13 11.5231 13 11.8553 12.9779 12.1259C12.9549 12.407 12.9057 12.6653 12.782 12.908C12.5903 13.2843 12.2843 13.5903 11.908 13.782C11.6653 13.9057 11.407 13.9549 11.1259 13.9779C10.8553 14 10.5231 14 10.1207 14H10.1H3.9H3.87934C3.47686 14 3.14468 14 2.87409 13.9779C2.59304 13.9549 2.33469 13.9057 2.09202 13.782C1.7157 13.5903 1.40973 13.2843 1.21799 12.908C1.09434 12.6653 1.04506 12.407 1.0221 12.1259C0.99999 11.8553 0.999995 11.5231 1 11.1207V11.1206V11.1V4.9V4.87935V4.87932V4.87931C0.999995 4.47685 0.99999 4.14468 1.0221 3.87409C1.04506 3.59304 1.09434 3.33469 1.21799 3.09202C1.40973 2.71569 1.7157 2.40973 2.09202 2.21799C2.33469 2.09434 2.59304 2.04506 2.87409 2.0221C3.14468 1.99999 3.47685 1.99999 3.87932 2H3.87935H3.9H8.99998Z" fill="black"/>
</svg>
