<svg width="564" height="420" viewBox="0 0 564 420" fill="none" xmlns="http://www.w3.org/2000/svg">
<g filter="url(#filter0_d_3501_6612)">
<rect x="60" y="69.0029" width="445" height="277" rx="17" fill="url(#paint0_linear_3501_6612)" fill-opacity="0.3" shape-rendering="crispEdges"/>
</g>
<g opacity="0.4">
<rect x="68" y="76.8555" width="427.858" height="258.212" rx="12" fill="white"/>
<path d="M95.4049 264.91C99.8273 264.026 105.048 257.897 108.53 255.355C117.238 248.997 126.682 243.996 136.145 238.87C147.477 232.732 159.306 228.53 171.005 223.33" stroke="#FEFEFE" stroke-width="2.835" stroke-linecap="round"/>
<rect x="205.277" y="245.54" width="66.6112" height="19.4595" rx="2.24532" fill="#F8F9FA"/>
<path d="M214.58 257.037V256.368H216.173C216.544 256.368 216.824 256.294 217.014 256.145C217.204 255.997 217.299 255.781 217.299 255.499V255.491C217.299 255.301 217.255 255.143 217.167 255.016C217.08 254.889 216.948 254.794 216.773 254.731C216.6 254.665 216.384 254.632 216.126 254.632H214.58V254.008H215.961C216.324 254.008 216.599 253.942 216.784 253.81C216.969 253.676 217.061 253.481 217.061 253.225V253.218C217.061 252.97 216.977 252.777 216.809 252.641C216.641 252.502 216.405 252.432 216.1 252.432H214.58V251.764H216.294C216.623 251.764 216.906 251.817 217.142 251.924C217.381 252.032 217.563 252.184 217.69 252.381C217.817 252.576 217.88 252.808 217.88 253.076V253.083C217.88 253.268 217.839 253.441 217.756 253.602C217.673 253.76 217.562 253.894 217.423 254.004C217.284 254.114 217.127 254.183 216.952 254.212V254.274C217.191 254.299 217.399 254.368 217.577 254.483C217.755 254.597 217.893 254.746 217.993 254.928C218.093 255.109 218.143 255.313 218.143 255.542V255.55C218.143 255.857 218.07 256.122 217.924 256.346C217.78 256.568 217.574 256.739 217.306 256.858C217.038 256.977 216.717 257.037 216.342 257.037H214.58ZM214.171 257.037V251.764H214.989V257.037H214.171ZM220.349 257.114C220.052 257.114 219.801 257.057 219.596 256.942C219.394 256.825 219.241 256.657 219.139 256.438C219.039 256.216 218.989 255.949 218.989 255.637V253.068H219.782V255.451C219.782 255.778 219.847 256.022 219.976 256.186C220.105 256.349 220.316 256.43 220.608 256.43C220.764 256.43 220.903 256.407 221.025 256.361C221.147 256.312 221.249 256.243 221.332 256.153C221.415 256.063 221.476 255.954 221.515 255.827C221.556 255.701 221.577 255.557 221.577 255.396V253.068H222.373V257.037H221.577V256.438H221.518C221.455 256.579 221.368 256.701 221.259 256.803C221.149 256.903 221.018 256.98 220.864 257.033C220.713 257.087 220.541 257.114 220.349 257.114ZM225.116 258.437C224.78 258.437 224.488 258.39 224.239 258.298C223.993 258.205 223.798 258.076 223.654 257.911C223.511 257.745 223.423 257.552 223.391 257.333L223.395 257.326H224.199L224.202 257.333C224.237 257.47 224.333 257.582 224.491 257.669C224.65 257.757 224.862 257.801 225.127 257.801C225.454 257.801 225.708 257.727 225.891 257.578C226.076 257.429 226.169 257.221 226.169 256.953V256.175H226.106C226.029 256.316 225.929 256.438 225.807 256.54C225.685 256.64 225.546 256.716 225.39 256.767C225.234 256.818 225.065 256.843 224.882 256.843C224.546 256.843 224.254 256.763 224.005 256.602C223.759 256.439 223.569 256.215 223.435 255.93C223.303 255.642 223.238 255.312 223.238 254.939V254.932C223.238 254.554 223.305 254.221 223.439 253.931C223.573 253.638 223.764 253.411 224.012 253.247C224.261 253.082 224.557 252.999 224.9 252.999C225.086 252.999 225.255 253.028 225.408 253.087C225.564 253.145 225.702 253.228 225.821 253.335C225.941 253.442 226.039 253.57 226.117 253.719H226.165V253.068H226.958V256.957C226.958 257.256 226.882 257.517 226.731 257.739C226.583 257.96 226.371 258.132 226.096 258.254C225.82 258.376 225.494 258.437 225.116 258.437ZM225.105 256.186C225.329 256.186 225.522 256.133 225.683 256.028C225.843 255.921 225.966 255.774 226.052 255.586C226.139 255.399 226.183 255.182 226.183 254.936V254.928C226.183 254.685 226.139 254.468 226.052 254.278C225.966 254.088 225.843 253.939 225.683 253.832C225.522 253.725 225.329 253.671 225.105 253.671C224.881 253.671 224.69 253.725 224.531 253.832C224.375 253.939 224.256 254.088 224.173 254.278C224.09 254.466 224.049 254.682 224.049 254.928V254.936C224.049 255.182 224.09 255.399 224.173 255.586C224.256 255.774 224.375 255.921 224.531 256.028C224.69 256.133 224.881 256.186 225.105 256.186ZM229.704 258.437C229.368 258.437 229.076 258.39 228.827 258.298C228.581 258.205 228.386 258.076 228.243 257.911C228.099 257.745 228.011 257.552 227.979 257.333L227.983 257.326H228.787L228.791 257.333C228.825 257.47 228.921 257.582 229.079 257.669C229.238 257.757 229.45 257.801 229.715 257.801C230.042 257.801 230.296 257.727 230.479 257.578C230.664 257.429 230.757 257.221 230.757 256.953V256.175H230.695C230.617 256.316 230.517 256.438 230.395 256.54C230.273 256.64 230.134 256.716 229.978 256.767C229.823 256.818 229.653 256.843 229.471 256.843C229.134 256.843 228.842 256.763 228.593 256.602C228.347 256.439 228.157 256.215 228.023 255.93C227.892 255.642 227.826 255.312 227.826 254.939V254.932C227.826 254.554 227.893 254.221 228.027 253.931C228.161 253.638 228.352 253.411 228.601 253.247C228.849 253.082 229.145 252.999 229.489 252.999C229.674 252.999 229.843 253.028 229.997 253.087C230.153 253.145 230.29 253.228 230.41 253.335C230.529 253.442 230.628 253.57 230.706 253.719H230.753V253.068H231.546V256.957C231.546 257.256 231.471 257.517 231.32 257.739C231.171 257.96 230.959 258.132 230.684 258.254C230.409 258.376 230.082 258.437 229.704 258.437ZM229.693 256.186C229.918 256.186 230.11 256.133 230.271 256.028C230.432 255.921 230.555 255.774 230.64 255.586C230.728 255.399 230.772 255.182 230.772 254.936V254.928C230.772 254.685 230.728 254.468 230.64 254.278C230.555 254.088 230.432 253.939 230.271 253.832C230.11 253.725 229.918 253.671 229.693 253.671C229.469 253.671 229.278 253.725 229.12 253.832C228.964 253.939 228.844 254.088 228.762 254.278C228.679 254.466 228.637 254.682 228.637 254.928V254.936C228.637 255.182 228.679 255.399 228.762 255.586C228.844 255.774 228.964 255.921 229.12 256.028C229.278 256.133 229.469 256.186 229.693 256.186ZM232.652 257.037V251.512H233.445V257.037H232.652ZM236.217 257.114C235.829 257.114 235.497 257.031 235.219 256.865C234.941 256.697 234.727 256.46 234.576 256.153C234.427 255.846 234.353 255.483 234.353 255.064V255.06C234.353 254.646 234.427 254.284 234.576 253.975C234.727 253.665 234.939 253.424 235.212 253.251C235.487 253.078 235.809 252.992 236.177 252.992C236.547 252.992 236.865 253.074 237.13 253.24C237.398 253.406 237.604 253.638 237.748 253.938C237.892 254.235 237.964 254.584 237.964 254.983V255.261H234.755V254.695H237.569L237.189 255.221V254.903C237.189 254.62 237.145 254.386 237.057 254.201C236.972 254.014 236.854 253.874 236.703 253.781C236.552 253.688 236.378 253.642 236.18 253.642C235.983 253.642 235.806 253.691 235.65 253.788C235.497 253.883 235.375 254.025 235.285 254.212C235.197 254.4 235.153 254.63 235.153 254.903V255.221C235.153 255.482 235.197 255.704 235.285 255.89C235.373 256.075 235.497 256.216 235.658 256.314C235.821 256.411 236.013 256.46 236.235 256.46C236.406 256.46 236.552 256.437 236.674 256.39C236.798 256.342 236.899 256.282 236.977 256.211C237.057 256.141 237.112 256.071 237.141 256.003L237.156 255.974H237.924L237.916 256.007C237.882 256.138 237.822 256.27 237.737 256.401C237.652 256.53 237.539 256.649 237.397 256.756C237.258 256.863 237.09 256.949 236.893 257.015C236.698 257.081 236.473 257.114 236.217 257.114ZM242.24 257.114C241.92 257.114 241.643 257.068 241.406 256.975C241.17 256.88 240.982 256.75 240.844 256.584C240.705 256.416 240.623 256.221 240.599 255.999V255.992H241.395V255.999C241.447 256.148 241.544 256.268 241.688 256.361C241.832 256.454 242.022 256.5 242.258 256.5C242.421 256.5 242.564 256.477 242.685 256.43C242.81 256.384 242.907 256.32 242.978 256.237C243.048 256.154 243.084 256.059 243.084 255.952V255.944C243.084 255.82 243.034 255.715 242.934 255.63C242.834 255.545 242.67 255.475 242.441 255.422L241.805 255.276C241.556 255.22 241.35 255.143 241.187 255.045C241.024 254.948 240.903 254.829 240.825 254.687C240.747 254.544 240.708 254.375 240.708 254.183V254.179C240.708 253.948 240.774 253.743 240.906 253.565C241.037 253.385 241.219 253.245 241.45 253.145C241.684 253.043 241.951 252.992 242.251 252.992C242.553 252.992 242.816 253.039 243.04 253.134C243.267 253.227 243.446 253.356 243.577 253.521C243.709 253.685 243.787 253.875 243.811 254.092V254.095H243.051V254.088C243.014 253.949 242.927 253.833 242.788 253.741C242.651 253.648 242.471 253.602 242.247 253.602C242.103 253.602 241.975 253.625 241.863 253.671C241.751 253.715 241.662 253.777 241.596 253.858C241.533 253.936 241.501 254.028 241.501 254.135V254.143C241.501 254.226 241.522 254.299 241.564 254.362C241.607 254.423 241.676 254.478 241.768 254.526C241.861 254.573 241.98 254.614 242.126 254.651L242.759 254.793C243.139 254.883 243.421 255.014 243.606 255.184C243.794 255.355 243.888 255.584 243.888 255.871V255.879C243.888 256.122 243.816 256.338 243.672 256.525C243.528 256.711 243.332 256.856 243.084 256.96C242.838 257.063 242.556 257.114 242.24 257.114ZM246.422 257.114C246.035 257.114 245.702 257.031 245.425 256.865C245.147 256.697 244.932 256.46 244.781 256.153C244.633 255.846 244.558 255.483 244.558 255.064V255.06C244.558 254.646 244.633 254.284 244.781 253.975C244.932 253.665 245.144 253.424 245.417 253.251C245.693 253.078 246.014 252.992 246.382 252.992C246.752 252.992 247.07 253.074 247.336 253.24C247.604 253.406 247.81 253.638 247.953 253.938C248.097 254.235 248.169 254.584 248.169 254.983V255.261H244.96V254.695H247.774L247.394 255.221V254.903C247.394 254.62 247.351 254.386 247.263 254.201C247.178 254.014 247.059 253.874 246.908 253.781C246.757 253.688 246.583 253.642 246.386 253.642C246.188 253.642 246.012 253.691 245.856 253.788C245.702 253.883 245.581 254.025 245.49 254.212C245.403 254.4 245.359 254.63 245.359 254.903V255.221C245.359 255.482 245.403 255.704 245.49 255.89C245.578 256.075 245.702 256.216 245.863 256.314C246.026 256.411 246.219 256.46 246.441 256.46C246.611 256.46 246.757 256.437 246.879 256.39C247.003 256.342 247.104 256.282 247.182 256.211C247.263 256.141 247.318 256.071 247.347 256.003L247.361 255.974H248.129L248.122 256.007C248.087 256.138 248.028 256.27 247.943 256.401C247.857 256.53 247.744 256.649 247.603 256.756C247.464 256.863 247.296 256.949 247.098 257.015C246.903 257.081 246.678 257.114 246.422 257.114ZM250.126 257.103C249.875 257.103 249.65 257.055 249.45 256.96C249.253 256.863 249.097 256.725 248.982 256.547C248.868 256.37 248.811 256.161 248.811 255.922V255.915C248.811 255.676 248.868 255.473 248.982 255.305C249.099 255.137 249.267 255.005 249.487 254.91C249.708 254.813 249.976 254.754 250.291 254.735L251.756 254.647V255.206L250.4 255.294C250.127 255.311 249.926 255.369 249.797 255.469C249.668 255.567 249.604 255.704 249.604 255.882V255.89C249.604 256.07 249.673 256.212 249.812 256.317C249.951 256.419 250.126 256.471 250.338 256.471C250.535 256.471 250.711 256.432 250.864 256.354C251.02 256.273 251.142 256.166 251.23 256.032C251.318 255.896 251.361 255.742 251.361 255.572V254.322C251.361 254.103 251.293 253.936 251.157 253.821C251.023 253.704 250.823 253.646 250.557 253.646C250.336 253.646 250.154 253.685 250.013 253.763C249.874 253.841 249.781 253.95 249.735 254.092L249.728 254.103H248.964L248.968 254.077C248.999 253.858 249.086 253.668 249.227 253.507C249.371 253.344 249.559 253.217 249.79 253.127C250.024 253.037 250.291 252.992 250.59 252.992C250.924 252.992 251.207 253.045 251.438 253.152C251.672 253.257 251.849 253.409 251.968 253.609C252.09 253.807 252.151 254.044 252.151 254.322V257.037H251.361V256.474H251.303C251.225 256.608 251.128 256.723 251.011 256.818C250.894 256.91 250.761 256.981 250.612 257.03C250.464 257.079 250.302 257.103 250.126 257.103ZM253.194 257.037V253.068H253.987V253.668H254.049C254.12 253.456 254.244 253.291 254.422 253.174C254.602 253.057 254.824 252.999 255.087 252.999C255.153 252.999 255.218 253.003 255.281 253.01C255.344 253.017 255.395 253.026 255.434 253.035V253.766C255.364 253.752 255.293 253.741 255.222 253.733C255.154 253.726 255.082 253.722 255.007 253.722C254.805 253.722 254.627 253.761 254.473 253.839C254.322 253.917 254.203 254.027 254.115 254.168C254.03 254.307 253.987 254.473 253.987 254.665V257.037H253.194ZM257.691 257.114C257.306 257.114 256.974 257.031 256.693 256.865C256.416 256.697 256.201 256.458 256.05 256.149C255.899 255.84 255.824 255.471 255.824 255.042V255.034C255.824 254.613 255.898 254.25 256.047 253.945C256.198 253.641 256.412 253.406 256.69 253.24C256.97 253.074 257.303 252.992 257.687 252.992C258.021 252.992 258.308 253.05 258.546 253.167C258.787 253.282 258.979 253.44 259.12 253.642C259.264 253.842 259.354 254.07 259.39 254.325L259.394 254.344H258.63L258.627 254.336C258.583 254.142 258.482 253.98 258.323 253.85C258.165 253.719 257.954 253.653 257.691 253.653C257.472 253.653 257.283 253.709 257.125 253.821C256.966 253.931 256.845 254.089 256.759 254.296C256.676 254.503 256.635 254.749 256.635 255.034V255.042C256.635 255.334 256.678 255.585 256.763 255.795C256.848 256.004 256.97 256.166 257.128 256.281C257.287 256.393 257.474 256.449 257.691 256.449C257.94 256.449 258.141 256.394 258.294 256.284C258.45 256.175 258.56 256.013 258.623 255.798L258.63 255.78L259.39 255.776L259.383 255.809C259.337 256.067 259.243 256.294 259.102 256.489C258.96 256.684 258.772 256.837 258.535 256.949C258.301 257.059 258.02 257.114 257.691 257.114ZM260.251 257.037V251.512H261.044V253.668H261.106C261.204 253.456 261.348 253.29 261.538 253.171C261.728 253.051 261.968 252.992 262.257 252.992C262.552 252.992 262.802 253.049 263.007 253.163C263.211 253.278 263.367 253.446 263.474 253.668C263.582 253.887 263.635 254.154 263.635 254.468V257.037H262.839V254.654C262.839 254.323 262.769 254.077 262.63 253.916C262.494 253.753 262.279 253.671 261.987 253.671C261.795 253.671 261.628 253.714 261.486 253.799C261.345 253.882 261.235 254.001 261.157 254.157C261.082 254.311 261.044 254.495 261.044 254.709V257.037H260.251Z" fill="#515151"/>
<rect x="278.624" y="245.54" width="75.5924" height="19.4595" rx="2.24532" fill="#F8F9FA"/>
<path d="M286.77 257.038V251.765H287.588V257.038H286.77ZM288.771 253.913L289.092 251.765H289.94L289.33 253.913H288.771ZM291.031 257.038V253.069H291.824V253.68H291.886C291.974 253.46 292.11 253.291 292.295 253.172C292.483 253.052 292.707 252.993 292.968 252.993C293.148 252.993 293.31 253.022 293.454 253.08C293.598 253.139 293.721 253.222 293.823 253.329C293.928 253.434 294.009 253.558 294.068 253.702H294.13C294.196 253.558 294.288 253.434 294.408 253.329C294.527 253.222 294.666 253.139 294.824 253.08C294.985 253.022 295.156 252.993 295.336 252.993C295.604 252.993 295.833 253.045 296.023 253.15C296.213 253.252 296.358 253.401 296.458 253.596C296.558 253.79 296.608 254.026 296.608 254.301V257.038H295.815V254.491C295.815 254.308 295.787 254.157 295.731 254.038C295.675 253.916 295.589 253.825 295.475 253.764C295.363 253.703 295.221 253.672 295.051 253.672C294.883 253.672 294.735 253.711 294.609 253.789C294.484 253.865 294.387 253.967 294.316 254.096C294.248 254.223 294.214 254.367 294.214 254.527V257.038H293.421V254.411C293.421 254.259 293.389 254.129 293.326 254.019C293.265 253.907 293.177 253.822 293.063 253.764C292.948 253.703 292.813 253.672 292.657 253.672C292.499 253.672 292.356 253.714 292.23 253.797C292.105 253.879 292.007 253.991 291.934 254.133C291.86 254.272 291.824 254.428 291.824 254.601V257.038H291.031ZM299.89 257.038V253.694H299.235V253.069H299.89V252.653C299.89 252.387 299.933 252.168 300.021 251.995C300.111 251.819 300.248 251.689 300.43 251.604C300.613 251.519 300.843 251.476 301.121 251.476C301.209 251.476 301.29 251.48 301.366 251.487C301.444 251.492 301.518 251.5 301.589 251.512V252.097C301.552 252.09 301.507 252.085 301.454 252.083C301.403 252.078 301.346 252.075 301.286 252.075C301.066 252.075 300.909 252.128 300.814 252.232C300.722 252.337 300.675 252.489 300.675 252.689V253.069H301.552V253.694H300.683V257.038H299.89ZM303.882 257.115C303.495 257.115 303.162 257.032 302.884 256.866C302.607 256.698 302.392 256.461 302.241 256.154C302.093 255.847 302.018 255.484 302.018 255.065V255.061C302.018 254.647 302.093 254.285 302.241 253.976C302.392 253.666 302.604 253.425 302.877 253.252C303.152 253.079 303.474 252.993 303.842 252.993C304.212 252.993 304.53 253.075 304.796 253.241C305.064 253.407 305.27 253.639 305.413 253.939C305.557 254.236 305.629 254.585 305.629 254.984V255.262H302.42V254.696H305.234L304.854 255.222V254.904C304.854 254.621 304.81 254.387 304.723 254.202C304.637 254.015 304.519 253.875 304.368 253.782C304.217 253.689 304.043 253.643 303.846 253.643C303.648 253.643 303.472 253.692 303.316 253.789C303.162 253.884 303.04 254.026 302.95 254.213C302.863 254.401 302.819 254.631 302.819 254.904V255.222C302.819 255.482 302.863 255.705 302.95 255.891C303.038 256.076 303.162 256.217 303.323 256.314C303.486 256.412 303.679 256.461 303.9 256.461C304.071 256.461 304.217 256.438 304.339 256.391C304.463 256.343 304.564 256.283 304.642 256.212C304.723 256.142 304.778 256.072 304.807 256.004L304.821 255.975H305.589L305.582 256.008C305.547 256.139 305.488 256.271 305.402 256.402C305.317 256.531 305.204 256.649 305.063 256.757C304.924 256.864 304.756 256.95 304.558 257.016C304.363 257.082 304.138 257.115 303.882 257.115ZM308.163 257.115C307.776 257.115 307.444 257.032 307.166 256.866C306.888 256.698 306.674 256.461 306.523 256.154C306.374 255.847 306.3 255.484 306.3 255.065V255.061C306.3 254.647 306.374 254.285 306.523 253.976C306.674 253.666 306.886 253.425 307.158 253.252C307.434 253.079 307.755 252.993 308.123 252.993C308.494 252.993 308.812 253.075 309.077 253.241C309.345 253.407 309.551 253.639 309.695 253.939C309.838 254.236 309.91 254.585 309.91 254.984V255.262H306.702V254.696H309.516L309.136 255.222V254.904C309.136 254.621 309.092 254.387 309.004 254.202C308.919 254.015 308.801 253.875 308.65 253.782C308.498 253.689 308.324 253.643 308.127 253.643C307.93 253.643 307.753 253.692 307.597 253.789C307.444 253.884 307.322 254.026 307.232 254.213C307.144 254.401 307.1 254.631 307.1 254.904V255.222C307.1 255.482 307.144 255.705 307.232 255.891C307.319 256.076 307.444 256.217 307.604 256.314C307.768 256.412 307.96 256.461 308.182 256.461C308.352 256.461 308.498 256.438 308.62 256.391C308.745 256.343 308.846 256.283 308.924 256.212C309.004 256.142 309.059 256.072 309.088 256.004L309.103 255.975H309.87L309.863 256.008C309.829 256.139 309.769 256.271 309.684 256.402C309.598 256.531 309.485 256.649 309.344 256.757C309.205 256.864 309.037 256.95 308.84 257.016C308.645 257.082 308.419 257.115 308.163 257.115ZM310.815 257.038V251.512H311.608V257.038H310.815ZM312.724 257.038V253.069H313.521V257.038H312.724ZM313.126 252.36C312.99 252.36 312.873 252.312 312.776 252.214C312.678 252.117 312.629 252 312.629 251.863C312.629 251.727 312.678 251.611 312.776 251.516C312.873 251.419 312.99 251.37 313.126 251.37C313.263 251.37 313.38 251.419 313.477 251.516C313.575 251.611 313.623 251.727 313.623 251.863C313.623 252 313.575 252.117 313.477 252.214C313.38 252.312 313.263 252.36 313.126 252.36ZM314.597 257.038V253.069H315.39V253.669H315.453C315.55 253.457 315.694 253.291 315.884 253.172C316.074 253.052 316.314 252.993 316.604 252.993C317.05 252.993 317.391 253.12 317.627 253.376C317.863 253.632 317.982 253.996 317.982 254.469V257.038H317.185V254.655C317.185 254.324 317.115 254.078 316.977 253.917C316.84 253.754 316.626 253.672 316.333 253.672C316.141 253.672 315.974 253.715 315.833 253.8C315.691 253.883 315.582 254.002 315.504 254.158C315.428 254.312 315.39 254.496 315.39 254.71V257.038H314.597ZM320.688 258.438C320.352 258.438 320.059 258.391 319.811 258.299C319.565 258.206 319.37 258.077 319.226 257.912C319.082 257.746 318.994 257.553 318.963 257.334L318.966 257.327H319.77L319.774 257.334C319.808 257.471 319.904 257.583 320.063 257.67C320.221 257.758 320.433 257.802 320.699 257.802C321.025 257.802 321.28 257.728 321.462 257.579C321.648 257.43 321.74 257.222 321.74 256.954V256.176H321.678C321.6 256.317 321.5 256.439 321.378 256.541C321.257 256.641 321.118 256.716 320.962 256.768C320.806 256.819 320.637 256.844 320.454 256.844C320.118 256.844 319.825 256.764 319.577 256.603C319.331 256.44 319.141 256.216 319.007 255.931C318.875 255.643 318.809 255.313 318.809 254.94V254.933C318.809 254.555 318.876 254.222 319.01 253.932C319.144 253.639 319.336 253.412 319.584 253.248C319.833 253.083 320.129 253 320.472 253C320.657 253 320.827 253.029 320.98 253.088C321.136 253.146 321.274 253.229 321.393 253.336C321.512 253.443 321.611 253.571 321.689 253.72H321.737V253.069H322.53V256.958C322.53 257.257 322.454 257.518 322.303 257.74C322.154 257.961 321.942 258.133 321.667 258.255C321.392 258.377 321.065 258.438 320.688 258.438ZM320.677 256.187C320.901 256.187 321.093 256.134 321.254 256.029C321.415 255.922 321.538 255.775 321.623 255.587C321.711 255.4 321.755 255.183 321.755 254.937V254.929C321.755 254.686 321.711 254.469 321.623 254.279C321.538 254.089 321.415 253.94 321.254 253.833C321.093 253.726 320.901 253.672 320.677 253.672C320.453 253.672 320.261 253.726 320.103 253.833C319.947 253.94 319.828 254.089 319.745 254.279C319.662 254.467 319.621 254.683 319.621 254.929V254.937C319.621 255.183 319.662 255.4 319.745 255.587C319.828 255.775 319.947 255.922 320.103 256.029C320.261 256.134 320.453 256.187 320.677 256.187ZM327.675 257.104C327.49 257.104 327.32 257.077 327.164 257.023C327.008 256.967 326.869 256.888 326.747 256.786C326.628 256.681 326.53 256.557 326.455 256.413H326.393V257.038H325.6V251.512H326.393V253.698H326.455C326.525 253.554 326.622 253.431 326.743 253.329C326.865 253.224 327.005 253.144 327.164 253.088C327.322 253.029 327.493 253 327.675 253C328.012 253 328.303 253.084 328.549 253.252C328.795 253.418 328.985 253.654 329.119 253.961C329.253 254.268 329.32 254.631 329.32 255.05V255.057C329.32 255.474 329.252 255.836 329.115 256.143C328.981 256.45 328.791 256.687 328.545 256.855C328.299 257.021 328.009 257.104 327.675 257.104ZM327.449 256.424C327.67 256.424 327.86 256.369 328.019 256.26C328.177 256.15 328.298 255.993 328.381 255.788C328.466 255.584 328.509 255.34 328.509 255.057V255.05C328.509 254.765 328.466 254.521 328.381 254.319C328.298 254.114 328.177 253.957 328.019 253.848C327.86 253.736 327.67 253.68 327.449 253.68C327.229 253.68 327.039 253.736 326.879 253.848C326.718 253.957 326.595 254.114 326.51 254.319C326.424 254.524 326.382 254.767 326.382 255.05V255.057C326.382 255.338 326.424 255.581 326.51 255.788C326.595 255.993 326.718 256.15 326.879 256.26C327.039 256.369 327.229 256.424 327.449 256.424ZM331.511 257.115C331.214 257.115 330.963 257.058 330.758 256.943C330.556 256.826 330.403 256.658 330.301 256.439C330.201 256.217 330.151 255.95 330.151 255.638V253.069H330.944V255.452C330.944 255.779 331.009 256.023 331.138 256.187C331.267 256.35 331.478 256.431 331.77 256.431C331.926 256.431 332.065 256.408 332.187 256.362C332.309 256.313 332.411 256.244 332.494 256.154C332.577 256.064 332.638 255.955 332.677 255.828C332.718 255.702 332.739 255.558 332.739 255.397V253.069H333.535V257.038H332.739V256.439H332.68C332.617 256.58 332.53 256.702 332.421 256.804C332.311 256.904 332.18 256.981 332.026 257.034C331.875 257.088 331.703 257.115 331.511 257.115ZM336.278 258.438C335.942 258.438 335.65 258.391 335.401 258.299C335.155 258.206 334.96 258.077 334.816 257.912C334.673 257.746 334.585 257.553 334.553 257.334L334.557 257.327H335.361L335.364 257.334C335.399 257.471 335.495 257.583 335.653 257.67C335.812 257.758 336.024 257.802 336.289 257.802C336.616 257.802 336.87 257.728 337.053 257.579C337.238 257.43 337.331 257.222 337.331 256.954V256.176H337.268C337.191 256.317 337.091 256.439 336.969 256.541C336.847 256.641 336.708 256.716 336.552 256.768C336.396 256.819 336.227 256.844 336.044 256.844C335.708 256.844 335.416 256.764 335.167 256.603C334.921 256.44 334.731 256.216 334.597 255.931C334.465 255.643 334.4 255.313 334.4 254.94V254.933C334.4 254.555 334.467 254.222 334.601 253.932C334.735 253.639 334.926 253.412 335.174 253.248C335.423 253.083 335.719 253 336.063 253C336.248 253 336.417 253.029 336.57 253.088C336.726 253.146 336.864 253.229 336.983 253.336C337.103 253.443 337.201 253.571 337.279 253.72H337.327V253.069H338.12V256.958C338.12 257.257 338.044 257.518 337.893 257.74C337.745 257.961 337.533 258.133 337.258 258.255C336.982 258.377 336.656 258.438 336.278 258.438ZM336.267 256.187C336.491 256.187 336.684 256.134 336.845 256.029C337.005 255.922 337.128 255.775 337.214 255.587C337.301 255.4 337.345 255.183 337.345 254.937V254.929C337.345 254.686 337.301 254.469 337.214 254.279C337.128 254.089 337.005 253.94 336.845 253.833C336.684 253.726 336.491 253.672 336.267 253.672C336.043 253.672 335.852 253.726 335.693 253.833C335.537 253.94 335.418 254.089 335.335 254.279C335.252 254.467 335.211 254.683 335.211 254.929V254.937C335.211 255.183 335.252 255.4 335.335 255.587C335.418 255.775 335.537 255.922 335.693 256.029C335.852 256.134 336.043 256.187 336.267 256.187ZM340.866 258.438C340.53 258.438 340.238 258.391 339.989 258.299C339.743 258.206 339.548 258.077 339.405 257.912C339.261 257.746 339.173 257.553 339.141 257.334L339.145 257.327H339.949L339.953 257.334C339.987 257.471 340.083 257.583 340.241 257.67C340.4 257.758 340.612 257.802 340.877 257.802C341.204 257.802 341.458 257.728 341.641 257.579C341.826 257.43 341.919 257.222 341.919 256.954V256.176H341.857C341.779 256.317 341.679 256.439 341.557 256.541C341.435 256.641 341.296 256.716 341.14 256.768C340.985 256.819 340.815 256.844 340.633 256.844C340.296 256.844 340.004 256.764 339.755 256.603C339.509 256.44 339.319 256.216 339.185 255.931C339.054 255.643 338.988 255.313 338.988 254.94V254.933C338.988 254.555 339.055 254.222 339.189 253.932C339.323 253.639 339.514 253.412 339.763 253.248C340.011 253.083 340.307 253 340.651 253C340.836 253 341.005 253.029 341.159 253.088C341.315 253.146 341.452 253.229 341.572 253.336C341.691 253.443 341.79 253.571 341.868 253.72H341.915V253.069H342.708V256.958C342.708 257.257 342.633 257.518 342.482 257.74C342.333 257.961 342.121 258.133 341.846 258.255C341.571 258.377 341.244 258.438 340.866 258.438ZM340.855 256.187C341.08 256.187 341.272 256.134 341.433 256.029C341.594 255.922 341.717 255.775 341.802 255.587C341.89 255.4 341.934 255.183 341.934 254.937V254.929C341.934 254.686 341.89 254.469 341.802 254.279C341.717 254.089 341.594 253.94 341.433 253.833C341.272 253.726 341.08 253.672 340.855 253.672C340.631 253.672 340.44 253.726 340.282 253.833C340.126 253.94 340.006 254.089 339.924 254.279C339.841 254.467 339.799 254.683 339.799 254.929V254.937C339.799 255.183 339.841 255.4 339.924 255.587C340.006 255.775 340.126 255.922 340.282 256.029C340.44 256.134 340.631 256.187 340.855 256.187ZM344.165 258.434C344.116 258.434 344.064 258.432 344.008 258.427C343.951 258.424 343.898 258.421 343.847 258.416V257.791C343.886 257.796 343.928 257.799 343.975 257.802C344.023 257.804 344.07 257.806 344.114 257.806C344.299 257.806 344.449 257.762 344.563 257.674C344.678 257.589 344.764 257.446 344.822 257.246L344.881 257.042L343.441 253.069H344.3L345.422 256.647L345.173 256.238H345.477L345.232 256.647L346.35 253.069H347.187L345.711 257.188C345.598 257.505 345.474 257.753 345.338 257.933C345.201 258.116 345.039 258.245 344.852 258.321C344.664 258.396 344.435 258.434 344.165 258.434Z" fill="#515151"/>
<rect x="127.065" y="205.502" width="305.363" height="24.6986" rx="12.3493" fill="white" stroke="#DCDCDC" stroke-width="0.748441"/>
<path d="M152.759 221.367L151.035 215.039H151.86L153.118 220.183H153.171L154.587 215.039H155.386L156.802 220.183H156.855L158.113 215.039H158.938L157.214 221.367H156.469L155.013 216.372H154.96L153.504 221.367H152.759ZM159.997 221.367V214.763H160.76V217.35H160.83C160.95 217.099 161.123 216.904 161.348 216.767C161.573 216.627 161.859 216.556 162.207 216.556C162.561 216.556 162.861 216.625 163.106 216.763C163.352 216.897 163.539 217.094 163.668 217.355C163.796 217.615 163.86 217.932 163.86 218.306V221.367H163.097V218.49C163.097 218.064 163.007 217.748 162.826 217.543C162.647 217.336 162.369 217.232 161.992 217.232C161.741 217.232 161.523 217.286 161.339 217.394C161.155 217.502 161.011 217.656 160.909 217.854C160.81 218.053 160.76 218.292 160.76 218.569V221.367H159.997ZM166.45 221.451C166.152 221.451 165.883 221.393 165.643 221.279C165.406 221.165 165.218 221.003 165.078 220.793C164.94 220.582 164.871 220.334 164.871 220.047V220.038C164.871 219.758 164.939 219.518 165.073 219.319C165.208 219.117 165.404 218.96 165.661 218.846C165.918 218.732 166.229 218.664 166.595 218.644L168.331 218.539V219.148L166.687 219.253C166.327 219.274 166.064 219.348 165.898 219.477C165.734 219.606 165.652 219.787 165.652 220.021V220.03C165.652 220.269 165.743 220.456 165.924 220.591C166.105 220.723 166.333 220.788 166.608 220.788C166.868 220.788 167.099 220.737 167.301 220.635C167.503 220.53 167.661 220.388 167.775 220.209C167.891 220.031 167.95 219.829 167.95 219.604V218.131C167.95 217.838 167.861 217.616 167.682 217.464C167.507 217.309 167.242 217.232 166.889 217.232C166.605 217.232 166.373 217.283 166.191 217.385C166.01 217.485 165.889 217.626 165.827 217.811L165.823 217.824H165.06L165.064 217.797C165.105 217.549 165.208 217.333 165.371 217.148C165.538 216.961 165.753 216.817 166.016 216.714C166.279 216.609 166.579 216.556 166.915 216.556C167.301 216.556 167.627 216.619 167.893 216.745C168.162 216.871 168.365 217.052 168.503 217.289C168.643 217.523 168.713 217.803 168.713 218.131V221.367H167.95V220.67H167.88C167.78 220.837 167.659 220.978 167.516 221.095C167.375 221.212 167.216 221.301 167.038 221.363C166.859 221.421 166.664 221.451 166.45 221.451ZM171.697 221.402C171.212 221.402 170.86 221.304 170.64 221.108C170.424 220.913 170.316 220.59 170.316 220.139V217.271H169.57V216.64H170.316V215.416H171.105V216.64H172.14V217.271H171.105V219.946C171.105 220.224 171.158 220.424 171.263 220.547C171.368 220.667 171.544 220.727 171.789 220.727C171.857 220.727 171.914 220.725 171.96 220.723C172.01 220.72 172.07 220.715 172.14 220.709V221.358C172.067 221.37 171.994 221.38 171.921 221.389C171.848 221.398 171.773 221.402 171.697 221.402ZM177.57 221.451C177.122 221.451 176.735 221.353 176.407 221.157C176.083 220.958 175.832 220.676 175.653 220.31C175.478 219.945 175.39 219.511 175.39 219.008V218.999C175.39 218.493 175.478 218.058 175.653 217.692C175.832 217.327 176.083 217.046 176.407 216.85C176.735 216.654 177.122 216.556 177.57 216.556C178.02 216.556 178.407 216.654 178.732 216.85C179.056 217.046 179.306 217.327 179.482 217.692C179.66 218.058 179.749 218.493 179.749 218.999V219.008C179.749 219.511 179.66 219.945 179.482 220.31C179.306 220.676 179.056 220.958 178.732 221.157C178.407 221.353 178.02 221.451 177.57 221.451ZM177.57 220.775C177.868 220.775 178.121 220.705 178.328 220.565C178.536 220.424 178.694 220.223 178.802 219.959C178.913 219.696 178.969 219.379 178.969 219.008V218.999C178.969 218.625 178.913 218.306 178.802 218.043C178.694 217.78 178.536 217.58 178.328 217.442C178.121 217.302 177.868 217.232 177.57 217.232C177.271 217.232 177.018 217.302 176.811 217.442C176.603 217.58 176.444 217.78 176.333 218.043C176.225 218.306 176.171 218.625 176.171 218.999V219.008C176.171 219.379 176.225 219.696 176.333 219.959C176.444 220.223 176.603 220.424 176.811 220.565C177.018 220.705 177.271 220.775 177.57 220.775ZM180.843 221.367V216.64H181.606V217.35H181.677C181.796 217.099 181.969 216.904 182.194 216.767C182.419 216.627 182.706 216.556 183.054 216.556C183.586 216.556 183.994 216.708 184.277 217.012C184.564 217.314 184.707 217.745 184.707 218.306V221.367H183.944V218.49C183.944 218.064 183.853 217.748 183.672 217.543C183.494 217.336 183.216 217.232 182.839 217.232C182.587 217.232 182.369 217.286 182.185 217.394C182.001 217.502 181.858 217.656 181.756 217.854C181.656 218.053 181.606 218.292 181.606 218.569V221.367H180.843ZM190.364 221.451C189.914 221.451 189.527 221.351 189.202 221.152C188.881 220.953 188.632 220.673 188.457 220.31C188.284 219.945 188.198 219.515 188.198 219.021V219.017C188.198 218.528 188.284 218.1 188.457 217.732C188.632 217.363 188.879 217.075 189.198 216.868C189.516 216.66 189.889 216.556 190.316 216.556C190.746 216.556 191.114 216.656 191.421 216.855C191.731 217.053 191.968 217.331 192.132 217.688C192.298 218.042 192.382 218.454 192.382 218.925V219.223H188.593V218.613H191.991L191.614 219.17V218.868C191.614 218.496 191.559 218.191 191.447 217.951C191.336 217.711 191.183 217.533 190.987 217.416C190.791 217.296 190.566 217.236 190.312 217.236C190.057 217.236 189.829 217.299 189.628 217.425C189.429 217.548 189.271 217.73 189.154 217.973C189.037 218.216 188.978 218.514 188.978 218.868V219.17C188.978 219.506 189.035 219.794 189.149 220.034C189.264 220.271 189.426 220.454 189.636 220.582C189.847 220.708 190.095 220.771 190.382 220.771C190.595 220.771 190.781 220.742 190.939 220.683C191.097 220.625 191.227 220.55 191.329 220.459C191.431 220.369 191.503 220.277 191.544 220.183L191.561 220.144H192.325L192.316 220.179C192.275 220.34 192.202 220.496 192.096 220.648C191.994 220.797 191.861 220.933 191.697 221.056C191.534 221.176 191.339 221.272 191.114 221.345C190.892 221.415 190.642 221.451 190.364 221.451ZM194.774 221.451C194.476 221.451 194.207 221.393 193.967 221.279C193.73 221.165 193.542 221.003 193.401 220.793C193.264 220.582 193.195 220.334 193.195 220.047V220.038C193.195 219.758 193.262 219.518 193.397 219.319C193.531 219.117 193.727 218.96 193.984 218.846C194.242 218.732 194.553 218.664 194.919 218.644L196.655 218.539V219.148L195.011 219.253C194.651 219.274 194.388 219.348 194.221 219.477C194.058 219.606 193.976 219.787 193.976 220.021V220.03C193.976 220.269 194.066 220.456 194.248 220.591C194.429 220.723 194.657 220.788 194.932 220.788C195.192 220.788 195.423 220.737 195.625 220.635C195.826 220.53 195.984 220.388 196.098 220.209C196.215 220.031 196.274 219.829 196.274 219.604V218.131C196.274 217.838 196.184 217.616 196.006 217.464C195.831 217.309 195.566 217.232 195.212 217.232C194.929 217.232 194.696 217.283 194.515 217.385C194.334 217.485 194.213 217.626 194.151 217.811L194.147 217.824H193.384L193.388 217.797C193.429 217.549 193.531 217.333 193.695 217.148C193.862 216.961 194.077 216.817 194.34 216.714C194.603 216.609 194.902 216.556 195.239 216.556C195.625 216.556 195.951 216.619 196.217 216.745C196.486 216.871 196.689 217.052 196.826 217.289C196.967 217.523 197.037 217.803 197.037 218.131V221.367H196.274V220.67H196.203C196.104 220.837 195.983 220.978 195.84 221.095C195.699 221.212 195.54 221.301 195.361 221.363C195.183 221.421 194.987 221.451 194.774 221.451ZM198.341 221.367V216.64H199.105V217.341H199.175C199.265 217.093 199.419 216.9 199.635 216.763C199.851 216.625 200.119 216.556 200.438 216.556C200.511 216.556 200.582 216.561 200.653 216.57C200.726 216.575 200.781 216.581 200.819 216.587V217.328C200.74 217.314 200.663 217.303 200.587 217.298C200.514 217.289 200.435 217.284 200.35 217.284C200.107 217.284 199.892 217.333 199.705 217.429C199.518 217.526 199.371 217.66 199.262 217.833C199.157 218.005 199.105 218.207 199.105 218.438V221.367H198.341ZM203.44 221.402C202.954 221.402 202.602 221.304 202.383 221.108C202.166 220.913 202.058 220.59 202.058 220.139V217.271H201.313V216.64H202.058V215.416H202.848V216.64H203.883V217.271H202.848V219.946C202.848 220.224 202.9 220.424 203.005 220.547C203.111 220.667 203.286 220.727 203.532 220.727C203.599 220.727 203.656 220.725 203.703 220.723C203.752 220.72 203.812 220.715 203.883 220.709V221.358C203.809 221.37 203.736 221.38 203.663 221.389C203.59 221.398 203.516 221.402 203.44 221.402ZM204.977 221.367V214.763H205.74V217.35H205.81C205.93 217.099 206.102 216.904 206.327 216.767C206.553 216.627 206.839 216.556 207.187 216.556C207.541 216.556 207.84 216.625 208.086 216.763C208.332 216.897 208.519 217.094 208.647 217.355C208.776 217.615 208.84 217.932 208.84 218.306V221.367H208.077V218.49C208.077 218.064 207.987 217.748 207.805 217.543C207.627 217.336 207.349 217.232 206.972 217.232C206.721 217.232 206.503 217.286 206.319 217.394C206.134 217.502 205.991 217.656 205.889 217.854C205.79 218.053 205.74 218.292 205.74 218.569V221.367H204.977ZM212.586 221.367V216.64H213.349V221.367H212.586ZM212.971 215.728C212.828 215.728 212.704 215.676 212.599 215.574C212.496 215.469 212.445 215.345 212.445 215.201C212.445 215.055 212.496 214.931 212.599 214.829C212.704 214.726 212.828 214.675 212.971 214.675C213.118 214.675 213.242 214.726 213.344 214.829C213.447 214.931 213.498 215.055 213.498 215.201C213.498 215.345 213.447 215.469 213.344 215.574C213.242 215.676 213.118 215.728 212.971 215.728ZM216.32 221.451C215.969 221.451 215.659 221.398 215.39 221.293C215.121 221.184 214.905 221.034 214.741 220.841C214.58 220.648 214.485 220.421 214.456 220.161H215.237C215.301 220.357 215.427 220.515 215.614 220.635C215.801 220.755 216.045 220.815 216.346 220.815C216.56 220.815 216.747 220.784 216.907 220.723C217.071 220.658 217.2 220.572 217.293 220.464C217.387 220.353 217.434 220.226 217.434 220.082V220.073C217.434 219.913 217.369 219.777 217.241 219.666C217.112 219.552 216.902 219.46 216.609 219.389L215.877 219.214C215.582 219.144 215.339 219.053 215.149 218.942C214.959 218.828 214.819 218.689 214.728 218.525C214.637 218.359 214.592 218.163 214.592 217.938V217.933C214.592 217.67 214.668 217.435 214.82 217.227C214.975 217.02 215.185 216.856 215.452 216.736C215.718 216.616 216.017 216.556 216.351 216.556C216.681 216.556 216.973 216.609 217.228 216.714C217.485 216.817 217.691 216.963 217.846 217.153C218.004 217.343 218.1 217.567 218.135 217.824H217.385C217.336 217.637 217.222 217.485 217.043 217.368C216.865 217.251 216.633 217.192 216.346 217.192C216.159 217.192 215.992 217.223 215.846 217.284C215.7 217.343 215.585 217.425 215.5 217.53C215.415 217.635 215.373 217.758 215.373 217.898V217.907C215.373 218.012 215.4 218.106 215.456 218.188C215.511 218.27 215.598 218.341 215.715 218.403C215.832 218.464 215.982 218.518 216.166 218.565L216.894 218.74C217.339 218.849 217.669 219.003 217.885 219.205C218.105 219.407 218.214 219.677 218.214 220.016V220.025C218.214 220.306 218.131 220.554 217.964 220.771C217.798 220.984 217.571 221.151 217.285 221.271C217.001 221.391 216.679 221.451 216.32 221.451ZM222.657 221.367L221.333 216.64H222.096L223.025 220.42H223.095L224.152 216.64H224.876L225.933 220.42H226.003L226.933 216.64H227.691L226.367 221.367H225.6L224.543 217.71H224.472L223.42 221.367H222.657ZM228.61 221.367V216.64H229.373V217.341H229.443C229.534 217.093 229.688 216.9 229.904 216.763C230.12 216.625 230.388 216.556 230.706 216.556C230.779 216.556 230.851 216.561 230.921 216.57C230.994 216.575 231.05 216.581 231.088 216.587V217.328C231.009 217.314 230.932 217.303 230.855 217.298C230.782 217.289 230.703 217.284 230.619 217.284C230.376 217.284 230.161 217.333 229.974 217.429C229.787 217.526 229.639 217.66 229.531 217.833C229.426 218.005 229.373 218.207 229.373 218.438V221.367H228.61ZM233.752 221.451C233.305 221.451 232.917 221.353 232.59 221.157C232.265 220.958 232.014 220.676 231.836 220.31C231.66 219.945 231.573 219.511 231.573 219.008V218.999C231.573 218.493 231.66 218.058 231.836 217.692C232.014 217.327 232.265 217.046 232.59 216.85C232.917 216.654 233.305 216.556 233.752 216.556C234.202 216.556 234.59 216.654 234.914 216.85C235.239 217.046 235.489 217.327 235.664 217.692C235.843 218.058 235.932 218.493 235.932 218.999V219.008C235.932 219.511 235.843 219.945 235.664 220.31C235.489 220.676 235.239 220.958 234.914 221.157C234.59 221.353 234.202 221.451 233.752 221.451ZM233.752 220.775C234.05 220.775 234.303 220.705 234.511 220.565C234.718 220.424 234.876 220.223 234.984 219.959C235.096 219.696 235.151 219.379 235.151 219.008V218.999C235.151 218.625 235.096 218.306 234.984 218.043C234.876 217.78 234.718 217.58 234.511 217.442C234.303 217.302 234.05 217.232 233.752 217.232C233.454 217.232 233.201 217.302 232.993 217.442C232.786 217.58 232.627 217.78 232.515 218.043C232.407 218.306 232.353 218.625 232.353 218.999V219.008C232.353 219.379 232.407 219.696 232.515 219.959C232.627 220.223 232.786 220.424 232.993 220.565C233.201 220.705 233.454 220.775 233.752 220.775ZM237.026 221.367V216.64H237.789V217.35H237.859C237.979 217.099 238.152 216.904 238.377 216.767C238.602 216.627 238.888 216.556 239.236 216.556C239.768 216.556 240.176 216.708 240.46 217.012C240.746 217.314 240.889 217.745 240.889 218.306V221.367H240.126V218.49C240.126 218.064 240.036 217.748 239.855 217.543C239.676 217.336 239.398 217.232 239.021 217.232C238.77 217.232 238.552 217.286 238.368 217.394C238.184 217.502 238.04 217.656 237.938 217.854C237.839 218.053 237.789 218.292 237.789 218.569V221.367H237.026ZM244.128 223.034C243.748 223.034 243.416 222.98 243.133 222.871C242.849 222.766 242.623 222.616 242.453 222.42C242.286 222.227 242.183 222.002 242.142 221.744L242.15 221.74H242.94L242.944 221.744C242.985 221.923 243.108 222.069 243.312 222.183C243.517 222.3 243.789 222.358 244.128 222.358C244.552 222.358 244.882 222.262 245.119 222.069C245.359 221.879 245.479 221.61 245.479 221.262V220.306H245.409C245.309 220.478 245.185 220.626 245.036 220.749C244.887 220.872 244.719 220.965 244.532 221.03C244.345 221.091 244.143 221.122 243.926 221.122C243.52 221.122 243.168 221.025 242.87 220.832C242.574 220.636 242.346 220.367 242.185 220.025C242.025 219.683 241.944 219.291 241.944 218.85V218.841C241.944 218.4 242.025 218.008 242.185 217.666C242.349 217.321 242.58 217.05 242.878 216.855C243.177 216.656 243.532 216.556 243.944 216.556C244.166 216.556 244.371 216.591 244.558 216.662C244.745 216.732 244.91 216.831 245.053 216.96C245.2 217.089 245.321 217.242 245.417 217.42H245.47V216.64H246.233V221.301C246.233 221.652 246.147 221.958 245.974 222.218C245.805 222.478 245.562 222.678 245.246 222.819C244.931 222.962 244.558 223.034 244.128 223.034ZM244.093 220.446C244.385 220.446 244.635 220.379 244.843 220.245C245.053 220.107 245.214 219.919 245.325 219.679C245.439 219.439 245.496 219.163 245.496 218.85V218.841C245.496 218.528 245.439 218.251 245.325 218.008C245.214 217.765 245.053 217.575 244.843 217.438C244.635 217.3 244.385 217.232 244.093 217.232C243.801 217.232 243.552 217.3 243.348 217.438C243.146 217.575 242.991 217.765 242.883 218.008C242.777 218.251 242.725 218.528 242.725 218.841V218.85C242.725 219.163 242.777 219.439 242.883 219.679C242.991 219.919 243.146 220.107 243.348 220.245C243.552 220.379 243.801 220.446 244.093 220.446ZM250.913 221.367L249.588 216.64H250.351L251.281 220.42H251.351L252.408 216.64H253.132L254.188 220.42H254.259L255.188 216.64H255.947L254.623 221.367H253.855L252.798 217.71H252.728L251.676 221.367H250.913ZM256.883 221.367V216.64H257.646V221.367H256.883ZM257.269 215.728C257.126 215.728 257.002 215.676 256.897 215.574C256.794 215.469 256.743 215.345 256.743 215.201C256.743 215.055 256.794 214.931 256.897 214.829C257.002 214.726 257.126 214.675 257.269 214.675C257.415 214.675 257.54 214.726 257.642 214.829C257.744 214.931 257.796 215.055 257.796 215.201C257.796 215.345 257.744 215.469 257.642 215.574C257.54 215.676 257.415 215.728 257.269 215.728ZM260.675 221.402C260.189 221.402 259.837 221.304 259.618 221.108C259.401 220.913 259.293 220.59 259.293 220.139V217.271H258.548V216.64H259.293V215.416H260.083V216.64H261.118V217.271H260.083V219.946C260.083 220.224 260.135 220.424 260.24 220.547C260.346 220.667 260.521 220.727 260.767 220.727C260.834 220.727 260.891 220.725 260.938 220.723C260.987 220.72 261.047 220.715 261.118 220.709V221.358C261.044 221.37 260.971 221.38 260.898 221.389C260.825 221.398 260.751 221.402 260.675 221.402ZM262.212 221.367V214.763H262.975V217.35H263.045C263.165 217.099 263.337 216.904 263.562 216.767C263.788 216.627 264.074 216.556 264.422 216.556C264.776 216.556 265.075 216.625 265.321 216.763C265.567 216.897 265.754 217.094 265.882 217.355C266.011 217.615 266.075 217.932 266.075 218.306V221.367H265.312V218.49C265.312 218.064 265.222 217.748 265.04 217.543C264.862 217.336 264.584 217.232 264.207 217.232C263.956 217.232 263.738 217.286 263.554 217.394C263.37 217.502 263.226 217.656 263.124 217.854C263.025 218.053 262.975 218.292 262.975 218.569V221.367H262.212ZM269.803 221.367V216.64H270.566V217.359H270.636C270.742 217.105 270.902 216.907 271.119 216.767C271.338 216.627 271.603 216.556 271.912 216.556C272.126 216.556 272.317 216.591 272.487 216.662C272.657 216.732 272.803 216.83 272.925 216.955C273.048 217.078 273.146 217.222 273.219 217.385H273.289C273.374 217.219 273.488 217.074 273.632 216.951C273.775 216.825 273.94 216.729 274.127 216.662C274.317 216.591 274.52 216.556 274.737 216.556C275.058 216.556 275.33 216.616 275.552 216.736C275.777 216.856 275.948 217.031 276.065 217.262C276.182 217.49 276.241 217.77 276.241 218.1V221.367H275.478V218.275C275.478 218.042 275.441 217.849 275.368 217.697C275.298 217.542 275.19 217.426 275.044 217.35C274.897 217.271 274.713 217.232 274.491 217.232C274.272 217.232 274.08 217.281 273.917 217.381C273.753 217.48 273.626 217.613 273.535 217.78C273.444 217.944 273.399 218.126 273.399 218.328V221.367H272.636V218.157C272.636 217.97 272.595 217.808 272.513 217.67C272.434 217.53 272.32 217.422 272.171 217.346C272.025 217.27 271.853 217.232 271.654 217.232C271.449 217.232 271.263 217.286 271.097 217.394C270.933 217.502 270.803 217.648 270.706 217.833C270.613 218.014 270.566 218.216 270.566 218.438V221.367H269.803ZM279.458 221.451C279.007 221.451 278.62 221.351 278.295 221.152C277.974 220.953 277.725 220.673 277.55 220.31C277.377 219.945 277.291 219.515 277.291 219.021V219.017C277.291 218.528 277.377 218.1 277.55 217.732C277.725 217.363 277.972 217.075 278.291 216.868C278.61 216.66 278.983 216.556 279.409 216.556C279.839 216.556 280.208 216.656 280.515 216.855C280.824 217.053 281.061 217.331 281.225 217.688C281.392 218.042 281.475 218.454 281.475 218.925V219.223H277.686V218.613H281.085L280.707 219.17V218.868C280.707 218.496 280.652 218.191 280.541 217.951C280.43 217.711 280.276 217.533 280.08 217.416C279.884 217.296 279.659 217.236 279.405 217.236C279.151 217.236 278.923 217.299 278.721 217.425C278.522 217.548 278.364 217.73 278.247 217.973C278.13 218.216 278.072 218.514 278.072 218.868V219.17C278.072 219.506 278.129 219.794 278.243 220.034C278.357 220.271 278.519 220.454 278.73 220.582C278.94 220.708 279.189 220.771 279.475 220.771C279.689 220.771 279.874 220.742 280.032 220.683C280.19 220.625 280.32 220.55 280.422 220.459C280.525 220.369 280.596 220.277 280.637 220.183L280.655 220.144H281.418L281.409 220.179C281.368 220.34 281.295 220.496 281.19 220.648C281.088 220.797 280.955 220.933 280.791 221.056C280.627 221.176 280.433 221.272 280.208 221.345C279.985 221.415 279.735 221.451 279.458 221.451ZM283.582 219.411V219.008C283.582 218.815 283.613 218.641 283.674 218.486C283.736 218.328 283.832 218.183 283.964 218.052C284.095 217.92 284.26 217.795 284.459 217.675C284.629 217.569 284.765 217.467 284.867 217.368C284.972 217.265 285.048 217.154 285.095 217.034C285.142 216.915 285.165 216.777 285.165 216.622V216.613C285.165 216.432 285.121 216.271 285.034 216.131C284.946 215.991 284.822 215.88 284.661 215.798C284.5 215.716 284.31 215.675 284.091 215.675C283.872 215.675 283.68 215.716 283.516 215.798C283.353 215.88 283.223 215.997 283.126 216.149C283.033 216.301 282.978 216.48 282.964 216.688L282.955 216.692L282.21 216.697V216.688C282.227 216.375 282.309 216.09 282.455 215.833C282.601 215.576 282.813 215.371 283.091 215.219C283.369 215.067 283.712 214.991 284.122 214.991C284.49 214.991 284.813 215.061 285.091 215.201C285.371 215.339 285.589 215.527 285.744 215.767C285.902 216.004 285.981 216.273 285.981 216.574V216.583C285.981 216.811 285.943 217.018 285.867 217.205C285.794 217.39 285.689 217.555 285.551 217.701C285.414 217.847 285.252 217.977 285.064 218.091C284.88 218.199 284.736 218.303 284.63 218.403C284.528 218.502 284.455 218.609 284.411 218.723C284.37 218.837 284.35 218.971 284.35 219.126V219.411H283.582ZM284.025 221.446C283.847 221.446 283.701 221.389 283.587 221.275C283.473 221.161 283.416 221.015 283.416 220.837C283.416 220.655 283.473 220.508 283.587 220.394C283.701 220.28 283.847 220.223 284.025 220.223C284.203 220.223 284.348 220.28 284.459 220.394C284.573 220.508 284.63 220.655 284.63 220.837C284.63 221.015 284.573 221.161 284.459 221.275C284.348 221.389 284.203 221.446 284.025 221.446Z" fill="#DCDCDC"/>
<rect x="150.641" y="211.865" width="0.74844" height="11.9751" fill="black"/>
<path d="M141.753 220.471C143.561 220.471 145.027 219.005 145.027 217.196C145.027 215.388 143.561 213.922 141.753 213.922C139.944 213.922 138.478 215.388 138.478 217.196C138.478 219.005 139.944 220.471 141.753 220.471Z" stroke="#C8C8C8" stroke-width="1.12266" stroke-linecap="round" stroke-linejoin="round"/>
<path d="M144.068 219.513L146.337 221.781" stroke="#C8C8C8" stroke-width="1.12266" stroke-linecap="round" stroke-linejoin="round"/>
<path d="M421.253 216.46C421.253 214.158 419.387 212.292 417.085 212.292C414.784 212.292 412.918 214.158 412.918 216.46V219.238C412.918 221.54 414.784 223.406 417.085 223.406C419.387 223.406 421.253 221.54 421.253 219.238V216.46Z" stroke="#4285F4" stroke-width="1.0104" stroke-linecap="round" stroke-linejoin="round"/>
<path fill-rule="evenodd" clip-rule="evenodd" d="M413.423 216.461C413.423 214.438 415.063 212.798 417.085 212.798C419.108 212.798 420.748 214.438 420.748 216.461V216.809H421.758V216.461C421.758 213.88 419.666 211.788 417.085 211.788C414.505 211.788 412.412 213.88 412.412 216.461V216.809H413.423V216.461Z" fill="#EA4335"/>
<path d="M421.253 218.313H422.642" stroke="#58A65C" stroke-width="1.0104" stroke-linecap="round" stroke-linejoin="round"/>
<path d="M411.528 218.313H412.917" stroke="#58A65C" stroke-width="1.0104" stroke-linecap="round" stroke-linejoin="round"/>
<path d="M411.528 220.166H413.021" stroke="#58A65C" stroke-width="1.0104" stroke-linecap="round" stroke-linejoin="round"/>
<path d="M411.528 216.459H422.643" stroke="#EA4335" stroke-width="1.0104" stroke-linecap="round" stroke-linejoin="round"/>
<path d="M417.085 218.313V223.408" stroke="#5284EC" stroke-width="1.0104" stroke-linecap="round" stroke-linejoin="round"/>
<path d="M421.15 220.166H422.643" stroke="#58A65C" stroke-width="1.0104" stroke-linecap="round" stroke-linejoin="round"/>
<path d="M421.253 211.829L419.792 213.291" stroke="#FBBC05" stroke-width="1.0104" stroke-linecap="round" stroke-linejoin="round"/>
<path d="M412.918 211.829L414.379 213.291" stroke="#FBBC05" stroke-width="1.0104" stroke-linecap="round" stroke-linejoin="round"/>
<g filter="url(#filter1_i_3501_6612)">
<path d="M339.857 178.99C336.603 180.262 333.472 180.232 330.463 178.899C327.454 177.567 325.261 175.254 323.886 171.96C322.523 168.696 322.415 165.585 323.563 162.628C324.699 159.641 326.863 157.523 330.056 156.275C333.339 154.992 336.377 155.008 339.169 156.324C341.979 157.598 344.157 160.086 345.703 163.788L345.84 164.243L328.444 171.043C329.38 173.118 330.809 174.526 332.73 175.267C334.652 176.007 336.576 176.001 338.504 175.247C341.155 174.211 342.698 172.116 343.133 168.963L347.568 169.263C347.329 171.459 346.533 173.414 345.182 175.129C343.861 176.832 342.086 178.119 339.857 178.99ZM327.373 167.597L340.07 162.634C339.328 161.194 338.185 160.217 336.638 159.703C335.11 159.148 333.397 159.241 331.499 159.983C329.933 160.595 328.772 161.592 328.017 162.972C327.292 164.34 327.077 165.882 327.373 167.597Z" fill="#EDEDED"/>
</g>
<path d="M320.902 146.002V179.763H316.416V146.002H320.902Z" fill="#34A853"/>
<path d="M301.294 176.557C303.503 176.557 305.306 175.787 306.703 174.246C308.165 172.706 308.896 170.694 308.896 168.211C308.896 165.79 308.165 163.794 306.703 162.223C305.274 160.651 303.471 159.865 301.294 159.865C299.15 159.865 297.346 160.651 295.884 162.223C294.422 163.794 293.691 165.79 293.691 168.211C293.691 170.663 294.422 172.659 295.884 174.199C297.346 175.771 299.15 176.557 301.294 176.557ZM301.148 190.702C299.816 190.702 298.565 190.529 297.395 190.184C296.226 189.869 295.153 189.414 294.179 188.816C293.237 188.219 292.424 187.512 291.742 186.694C291.06 185.877 290.54 184.966 290.183 183.96L294.422 182.262C294.91 183.614 295.755 184.698 296.957 185.516C298.159 186.333 299.556 186.742 301.148 186.742C303.584 186.742 305.485 186.034 306.849 184.62C308.214 183.205 308.896 181.256 308.896 178.773V176.557H308.701C307.857 177.783 306.703 178.757 305.241 179.48C303.812 180.172 302.252 180.518 300.563 180.518C297.444 180.518 294.764 179.339 292.522 176.981C290.313 174.561 289.208 171.637 289.208 168.211C289.208 164.785 290.313 161.877 292.522 159.488C294.764 157.099 297.444 155.904 300.563 155.904C302.252 155.904 303.812 156.266 305.241 156.989C306.703 157.68 307.857 158.639 308.701 159.865H308.896V156.659H313.185V178.773C313.185 182.482 312.096 185.39 309.92 187.496C307.71 189.634 304.786 190.702 301.148 190.702Z" fill="#4285F4"/>
<path d="M274.915 176.557C277.124 176.557 278.927 175.787 280.324 174.246C281.786 172.706 282.517 170.694 282.517 168.211C282.517 165.79 281.786 163.794 280.324 162.223C278.895 160.651 277.092 159.865 274.915 159.865C272.771 159.865 270.967 160.651 269.505 162.223C268.043 163.794 267.312 165.79 267.312 168.211C267.312 170.663 268.043 172.659 269.505 174.199C270.967 175.771 272.771 176.557 274.915 176.557ZM274.769 190.702C273.437 190.702 272.186 190.529 271.016 190.184C269.847 189.869 268.774 189.414 267.8 188.816C266.858 188.219 266.045 187.512 265.363 186.694C264.681 185.877 264.161 184.966 263.804 183.96L268.043 182.262C268.531 183.614 269.375 184.698 270.578 185.516C271.78 186.333 273.177 186.742 274.769 186.742C277.205 186.742 279.106 186.034 280.47 184.62C281.835 183.205 282.517 181.256 282.517 178.773V176.557H282.322C281.478 177.783 280.324 178.757 278.862 179.48C277.433 180.172 275.873 180.518 274.184 180.518C271.065 180.518 268.385 179.339 266.143 176.981C263.934 174.561 262.829 171.637 262.829 168.211C262.829 164.785 263.934 161.877 266.143 159.488C268.385 157.099 271.065 155.904 274.184 155.904C275.873 155.904 277.433 156.266 278.862 156.989C280.324 157.68 281.478 158.639 282.322 159.865H282.517V156.659H286.806V178.773C286.806 182.482 285.717 185.39 283.541 187.496C281.331 189.634 278.407 190.702 274.769 190.702Z" fill="#FBBC05"/>
<path d="M259.662 179.764H255.374V176.557H255.179C254.496 177.689 253.441 178.632 252.011 179.386C250.614 180.141 249.152 180.518 247.625 180.518C244.701 180.518 242.443 179.716 240.851 178.113C239.292 176.479 238.512 174.168 238.512 171.182V156.659H242.995V170.899C243.093 174.671 245.058 176.557 248.892 176.557C250.679 176.557 252.174 175.866 253.376 174.483C254.578 173.068 255.179 171.386 255.179 169.437V156.659H259.662V179.764Z" fill="#EA4335"/>
<path d="M212.013 179.763V146.002H224.635C227.396 146.002 229.768 146.882 231.75 148.642C233.732 150.371 234.723 152.556 234.723 155.197C234.723 158.529 233.147 160.871 229.995 162.222V162.411C231.782 162.977 233.212 163.967 234.284 165.381C235.356 166.764 235.892 168.352 235.892 170.144C235.892 172.91 234.853 175.205 232.773 177.028C230.759 178.851 228.274 179.763 225.317 179.763H212.013ZM216.496 150.151V160.478H224.635C226.227 160.478 227.559 159.959 228.631 158.922C229.703 157.853 230.239 156.643 230.239 155.291C230.239 153.971 229.719 152.776 228.68 151.707C227.64 150.67 226.357 150.151 224.83 150.151H216.496ZM216.496 164.533V175.613H225.512C227.136 175.613 228.517 175.063 229.654 173.963C230.759 172.863 231.311 171.558 231.311 170.049C231.311 168.572 230.743 167.283 229.606 166.183C228.468 165.083 227.039 164.533 225.317 164.533H216.496Z" fill="#4285F4"/>
<path d="M335.225 176.031C331.736 176.202 328.944 177.491 326.848 179.898C324.752 182.306 323.83 185.264 324.082 188.771C324.332 192.248 325.638 195.081 328 197.271C330.365 199.491 333.259 200.518 336.683 200.35C340.204 200.178 342.919 198.939 344.828 196.634C346.772 194.358 347.602 191.249 347.318 187.307L347.236 186.844L328.58 187.757C328.484 185.519 329.13 183.681 330.518 182.242C331.905 180.804 333.633 180.034 335.701 179.933C338.543 179.793 340.871 181.05 342.682 183.703L346.522 181.646C345.317 179.773 343.723 178.341 341.739 177.348C339.787 176.353 337.616 175.914 335.225 176.031ZM329.174 191.279L342.79 190.613C342.775 192.202 342.19 193.539 341.037 194.623C339.917 195.737 338.34 196.344 336.305 196.444C334.625 196.526 333.136 196.1 331.836 195.167C330.57 194.232 329.682 192.936 329.174 191.279Z" fill="#EA4335"/>
</g>
<path d="M350.525 155.636C339.813 157.486 329.035 158.42 318.438 162.398C309.623 165.706 295.912 171.252 291.357 184.984C288.472 193.684 291.906 199.414 296.626 203.726C309.348 215.344 324.741 218.721 339.874 219.598C349.613 220.163 361.827 222.307 371.294 215.665C379.84 209.669 377.299 196.918 373.577 188.11C362.553 162.019 340.366 150.361 319.98 147.387" stroke="#64AFFA" stroke-width="5" stroke-linecap="round"/>
<g filter="url(#filter2_b_3501_6612)">
<rect x="96.6399" y="299.001" width="371.52" height="72.36" rx="12.96" fill="url(#paint1_linear_3501_6612)"/>
<g filter="url(#filter3_d_3501_6612)">
<rect x="120.798" y="320.12" width="33.0265" height="33.0265" rx="16.5132" fill="#73E5BF"/>
<rect x="118.998" y="318.32" width="36.6265" height="36.6265" rx="18.3132" stroke="#FAFAFA" stroke-width="3.6"/>
</g>
<g clip-path="url(#clip0_3501_6612)">
<path d="M207.964 330.386L199.728 338.622L194.361 333.254L198.913 328.701L199.726 327.888L198.934 327.055L197.89 325.955L197.057 325.078L196.201 325.934L191.621 330.514L190.789 329.682L196.326 324.198L196.346 324.178L196.365 324.157C196.542 323.965 196.728 323.88 197.007 323.88C197.289 323.88 197.514 323.968 197.74 324.194L197.746 324.2L197.751 324.205L199.785 326.184L200.619 326.995L201.442 326.173L202.596 325.018C203.372 324.242 204.248 323.88 205.28 323.88C206.365 323.88 207.245 324.244 207.991 324.991C208.741 325.741 209.103 326.613 209.103 327.675C209.103 328.73 208.737 329.613 207.964 330.386ZM191.414 330.715C191.413 330.716 191.412 330.716 191.412 330.716C191.412 330.716 191.413 330.716 191.414 330.715ZM188.14 339.475L191.428 336.186L196.796 341.554L193.507 344.843C192.379 345.971 190.832 347.028 188.827 347.995C186.828 348.959 185.061 349.502 183.514 349.669C183.445 349.674 183.414 349.664 183.408 349.662L183.408 349.662C183.403 349.66 183.387 349.654 183.357 349.625C183.328 349.595 183.323 349.58 183.321 349.575L183.321 349.575C183.318 349.568 183.309 349.538 183.313 349.468C183.48 347.921 184.023 346.154 184.987 344.155C185.955 342.15 187.012 340.603 188.14 339.475Z" stroke="#1E2624" stroke-width="2.35903"/>
</g>
<rect x="244.648" y="323.658" width="25.9494" height="25.9494" stroke="#1E2624" stroke-width="2.35903" stroke-linejoin="round"/>
<circle cx="313.059" cy="336.633" r="12.9747" stroke="#1E2624" stroke-width="2.35903" stroke-linejoin="round"/>
<path d="M382.306 321.646C382.306 320.994 381.778 320.466 381.126 320.466L370.511 320.466C369.859 320.466 369.331 320.994 369.331 321.646C369.331 322.297 369.859 322.825 370.511 322.825H379.947V332.261C379.947 332.913 380.475 333.441 381.126 333.441C381.778 333.441 382.306 332.913 382.306 332.261L382.306 321.646ZM353.652 350.788L381.96 322.48L380.292 320.812L351.984 349.12L353.652 350.788Z" fill="#1E2624"/>
<path fill-rule="evenodd" clip-rule="evenodd" d="M412.139 329.999C410.915 329.999 409.927 329.012 409.927 327.788C409.927 326.564 410.915 325.576 412.139 325.576H426.883C428.106 325.576 429.094 326.564 429.094 327.788C429.094 329.012 428.106 329.999 426.883 329.999H421.722V345.481C421.722 346.704 420.734 347.692 419.511 347.692C418.287 347.692 417.299 346.704 417.299 345.481V329.999H412.139ZM426.883 332.948H435.729C436.953 332.948 437.941 333.936 437.941 335.16C437.941 336.384 436.953 337.372 435.729 337.372H433.517V345.481C433.517 346.705 432.53 347.692 431.306 347.692C430.082 347.692 429.094 346.705 429.094 345.481V337.372H426.883C425.659 337.372 424.671 336.384 424.671 335.16C424.671 333.936 425.659 332.948 426.883 332.948Z" fill="#1E2624"/>
<path d="M421.722 329.999V329.189H420.912V329.999H421.722ZM417.299 329.999H418.109V329.189H417.299V329.999ZM433.517 337.372V336.562H432.707V337.372H433.517ZM429.094 337.372H429.904V336.562H429.094V337.372ZM409.117 327.788C409.117 329.459 410.467 330.809 412.139 330.809V329.189C411.362 329.189 410.737 328.564 410.737 327.788H409.117ZM412.139 324.766C410.467 324.766 409.117 326.117 409.117 327.788H410.737C410.737 327.011 411.362 326.386 412.139 326.386V324.766ZM426.883 324.766H412.139V326.386H426.883V324.766ZM429.904 327.788C429.904 326.117 428.554 324.766 426.883 324.766V326.386C427.659 326.386 428.284 327.011 428.284 327.788H429.904ZM426.883 330.809C428.554 330.809 429.904 329.459 429.904 327.788H428.284C428.284 328.564 427.659 329.189 426.883 329.189V330.809ZM421.722 330.809H426.883V329.189H421.722V330.809ZM422.532 345.481V329.999H420.912V345.481H422.532ZM419.511 348.502C421.182 348.502 422.532 347.152 422.532 345.481H420.912C420.912 346.257 420.287 346.882 419.511 346.882V348.502ZM416.489 345.481C416.489 347.152 417.839 348.502 419.511 348.502V346.882C418.734 346.882 418.109 346.257 418.109 345.481H416.489ZM416.489 329.999V345.481H418.109V329.999H416.489ZM412.139 330.809H417.299V329.189H412.139V330.809ZM435.729 332.138H426.883V333.758H435.729V332.138ZM438.751 335.16C438.751 333.489 437.4 332.138 435.729 332.138V333.758C436.505 333.758 437.131 334.384 437.131 335.16H438.751ZM435.729 338.182C437.4 338.182 438.751 336.831 438.751 335.16H437.131C437.131 335.936 436.505 336.562 435.729 336.562V338.182ZM433.517 338.182H435.729V336.562H433.517V338.182ZM434.327 345.481V337.372H432.707V345.481H434.327ZM431.306 348.502C432.977 348.502 434.327 347.152 434.327 345.481H432.707C432.707 346.257 432.082 346.882 431.306 346.882V348.502ZM428.284 345.481C428.284 347.152 429.635 348.502 431.306 348.502V346.882C430.529 346.882 429.904 346.257 429.904 345.481H428.284ZM428.284 337.372V345.481H429.904V337.372H428.284ZM426.883 338.182H429.094V336.562H426.883V338.182ZM423.861 335.16C423.861 336.831 425.212 338.182 426.883 338.182V336.562C426.106 336.562 425.481 335.936 425.481 335.16H423.861ZM426.883 332.138C425.211 332.138 423.861 333.489 423.861 335.16H425.481C425.481 334.384 426.106 333.758 426.883 333.758V332.138Z" fill="#D6D4D8"/>
</g>
<path d="M101 216.114C114.269 221.448 128.879 224.142 142.614 227.992C155.626 231.639 168.478 235.771 181.429 239.617C188.091 241.595 196.855 242.968 202.707 246.587" stroke="#73E5BF" stroke-width="5" stroke-linecap="round"/>
<path d="M202.478 245.613C198.642 235.295 192.578 225.413 190.038 214.642" stroke="#73E5BF" stroke-width="5" stroke-linecap="round"/>
<path d="M202.248 244.64C193.623 249.463 185.542 255.389 177.291 260.798" stroke="#73E5BF" stroke-width="5" stroke-linecap="round"/>
<g filter="url(#filter4_b_3501_6612)">
<rect x="257.021" y="49.5928" width="112.061" height="49.614" rx="7.2" transform="rotate(-0.814523 257.021 49.5928)" fill="#A37AF5"/>
<rect x="254.993" y="47.6214" width="116.061" height="53.614" rx="9.2" transform="rotate(-0.814523 254.993 47.6214)" stroke="white" stroke-opacity="0.4" stroke-width="4" style="mix-blend-mode:overlay"/>
</g>
<path d="M278.491 81.0007L278.456 78.4817L282.385 78.4259C283.124 78.4154 283.686 78.2517 284.07 77.935C284.461 77.6181 284.653 77.1647 284.644 76.5747L284.644 76.5552C284.639 76.1792 284.543 75.8628 284.358 75.606C284.179 75.3427 283.917 75.1454 283.572 75.0141C283.226 74.8828 282.804 74.8207 282.304 74.8278L278.404 74.8833L278.373 72.695L282.011 72.6433C282.679 72.6338 283.192 72.4838 283.551 72.1934C283.91 71.9029 284.086 71.5081 284.079 71.0089L284.079 70.9894C284.072 70.4966 283.898 70.1133 283.556 69.8393C283.215 69.5588 282.74 69.4228 282.13 69.4315L278.328 69.4856L278.292 66.9667L283.048 66.899C283.981 66.8858 284.781 67.0171 285.446 67.2929C286.118 67.5623 286.633 67.957 286.99 68.4772C287.354 68.9908 287.541 69.6107 287.552 70.3369L287.552 70.3564C287.559 70.8621 287.449 71.3306 287.222 71.7618C286.995 72.1931 286.682 72.5542 286.284 72.8452C285.892 73.1296 285.444 73.3111 284.94 73.3896L284.942 73.5452C285.565 73.5688 286.125 73.7262 286.622 74.0174C287.125 74.3086 287.526 74.6985 287.825 75.1871C288.124 75.6692 288.277 76.2085 288.286 76.805L288.286 76.8245C288.298 77.6414 288.107 78.3575 287.713 78.9727C287.32 79.5814 286.759 80.0563 286.031 80.3974C285.31 80.7384 284.447 80.916 283.442 80.9303L278.491 81.0007ZM276.712 81.026L276.512 66.992L280.081 66.9412L280.281 80.9752L276.712 81.026ZM289.786 80.8401L289.633 70.0641L293.085 70.0151L293.238 80.791L289.786 80.8401ZM291.344 68.6682C290.845 68.6753 290.415 68.5096 290.053 68.171C289.692 67.826 289.507 67.4103 289.5 66.924C289.493 66.4248 289.666 66.0008 290.017 65.6521C290.369 65.3034 290.795 65.1255 291.294 65.1184C291.793 65.1113 292.22 65.2771 292.575 65.6157C292.937 65.9543 293.121 66.3732 293.128 66.8725C293.135 67.3587 292.963 67.7795 292.611 68.1347C292.266 68.4833 291.844 68.6611 291.344 68.6682ZM300.152 84.4573C299.095 84.4723 298.188 84.349 297.432 84.0874C296.683 83.8322 296.094 83.4676 295.666 82.9938C295.244 82.5264 294.99 81.9853 294.903 81.3704L294.893 81.3025L298.258 81.2547L298.278 81.303C298.353 81.5549 298.55 81.7596 298.87 81.9172C299.19 82.0812 299.632 82.1592 300.197 82.1512C300.858 82.1418 301.362 81.9855 301.707 81.6823C302.06 81.3854 302.232 80.9744 302.225 80.4492L302.198 78.5527L302.042 78.555C301.866 78.9336 301.627 79.2515 301.326 79.5087C301.025 79.7659 300.668 79.9655 300.255 80.1076C299.848 80.2431 299.392 80.3144 298.887 80.3216C297.998 80.3342 297.227 80.1312 296.572 79.7125C295.924 79.2937 295.423 78.7009 295.069 77.9343C294.714 77.1676 294.529 76.2591 294.514 75.2087L294.514 75.1893C294.498 74.0935 294.657 73.1412 294.989 72.3323C295.328 71.5234 295.818 70.8971 296.46 70.4535C297.102 70.0033 297.877 69.7718 298.785 69.7589C299.278 69.7519 299.729 69.8233 300.14 69.9731C300.557 70.1228 300.92 70.3414 301.229 70.6288C301.538 70.9098 301.786 71.2565 301.974 71.6688L302.1 71.667L302.075 69.8873L305.527 69.8382L305.675 80.2154C305.687 81.0582 305.467 81.7942 305.016 82.4232C304.571 83.0521 303.932 83.5443 303.101 83.8998C302.276 84.2552 301.293 84.4411 300.152 84.4573ZM300.135 77.7942C300.569 77.788 300.937 77.6757 301.239 77.4574C301.547 77.2326 301.779 76.9212 301.936 76.5234C302.098 76.119 302.176 75.651 302.169 75.1193L302.168 75.0999C302.161 74.5682 302.07 74.1058 301.896 73.7127C301.728 73.313 301.487 73.0084 301.173 72.7989C300.858 72.5829 300.487 72.4779 300.059 72.484C299.631 72.4901 299.263 72.6055 298.955 72.8304C298.653 73.0487 298.424 73.3568 298.268 73.7546C298.111 74.1524 298.037 74.6171 298.045 75.1488L298.045 75.1682C298.052 75.7064 298.14 76.1721 298.308 76.5653C298.476 76.9585 298.713 77.2631 299.021 77.4792C299.336 77.6953 299.707 77.8002 300.135 77.7942ZM312.584 84.2805C311.527 84.2956 310.621 84.1723 309.865 83.9106C309.115 83.6554 308.526 83.2909 308.098 82.8171C307.676 82.3497 307.422 81.8085 307.336 81.1937L307.325 81.1257L310.69 81.0779L310.71 81.1263C310.785 81.3781 310.983 81.5828 311.303 81.7404C311.623 81.9045 312.065 81.9825 312.629 81.9745C313.29 81.9651 313.794 81.8087 314.14 81.5055C314.492 81.2087 314.665 80.7977 314.657 80.2725L314.63 78.376L314.475 78.3782C314.298 78.7568 314.06 79.0748 313.759 79.332C313.458 79.5892 313.1 79.7888 312.687 79.9308C312.281 80.0663 311.825 80.1377 311.319 80.1449C310.431 80.1575 309.659 79.9544 309.005 79.5357C308.357 79.1169 307.856 78.5242 307.501 77.7575C307.146 76.9908 306.962 76.0823 306.947 75.032L306.946 75.0125C306.931 73.9168 307.089 72.9645 307.421 72.1556C307.76 71.3466 308.25 70.7203 308.893 70.2767C309.535 69.8266 310.31 69.5951 311.217 69.5822C311.71 69.5752 312.162 69.6466 312.573 69.7964C312.99 69.9461 313.353 70.1647 313.662 70.4521C313.97 70.733 314.218 71.0797 314.406 71.4921L314.532 71.4903L314.507 69.7105L317.96 69.6614L318.107 80.0386C318.119 80.8815 317.899 81.6174 317.448 82.2464C317.003 82.8753 316.365 83.3675 315.533 83.723C314.708 84.0785 313.725 84.2643 312.584 84.2805ZM312.567 77.6174C313.001 77.6112 313.369 77.499 313.671 77.2807C313.979 77.0558 314.211 76.7445 314.368 76.3467C314.531 75.9423 314.608 75.4743 314.601 74.9426L314.601 74.9231C314.593 74.3915 314.502 73.9291 314.328 73.536C314.16 73.1363 313.919 72.8317 313.605 72.6221C313.291 72.4061 312.919 72.3011 312.491 72.3072C312.064 72.3133 311.696 72.4288 311.387 72.6537C311.086 72.872 310.857 73.18 310.7 73.5778C310.544 73.9756 310.469 74.4404 310.477 74.972L310.477 74.9915C310.485 75.5296 310.572 75.9953 310.74 76.3885C310.908 76.7817 311.146 77.0864 311.454 77.3025C311.768 77.5185 312.139 77.6235 312.567 77.6174ZM324.937 80.5835C323.809 80.5996 322.833 80.3897 322.01 79.9539C321.193 79.5116 320.558 78.8721 320.105 78.0355C319.659 77.1988 319.427 76.2002 319.411 75.0396L319.411 75.0299C319.394 73.8693 319.597 72.8644 320.019 72.0154C320.442 71.1663 321.049 70.5092 321.84 70.044C322.631 69.5788 323.571 69.3385 324.66 69.323C325.743 69.3076 326.683 69.5179 327.48 69.9541C328.284 70.3836 328.906 71.0006 329.345 71.805C329.791 72.6093 330.022 73.5625 330.038 74.6648L330.052 75.6568L321.124 75.7837L321.095 73.7705L328.399 73.6667L326.821 75.6054L326.802 74.2438C326.794 73.7057 326.704 73.253 326.53 72.8859C326.362 72.5121 326.128 72.2333 325.827 72.0495C325.526 71.8593 325.175 71.767 324.773 71.7727C324.371 71.7784 324.019 71.8807 323.717 72.0795C323.421 72.2783 323.189 72.5669 323.019 72.9455C322.856 73.3175 322.778 73.7693 322.785 74.3009L322.805 75.682C322.812 76.2007 322.903 76.6469 323.077 77.0205C323.257 77.3876 323.508 77.6661 323.828 77.8561C324.149 78.0461 324.529 78.138 324.97 78.1317C325.353 78.1263 325.673 78.0634 325.931 77.943C326.188 77.8226 326.391 77.6868 326.538 77.5355C326.691 77.3777 326.793 77.2433 326.843 77.1323L326.862 77.0932L330.003 77.0388L329.985 77.1558C329.912 77.4875 329.768 77.8495 329.553 78.2417C329.345 78.6337 329.042 79.0044 328.645 79.3538C328.255 79.703 327.753 79.9923 327.14 80.2215C326.534 80.4506 325.799 80.5713 324.937 80.5835ZM331.492 80.2472L331.338 69.4712L334.791 69.4221L334.816 71.1825L334.972 71.1802C335.118 70.5621 335.413 70.0812 335.856 69.7377C336.298 69.3942 336.857 69.2177 337.531 69.2081C337.732 69.2052 337.927 69.2187 338.115 69.2484C338.304 69.2717 338.479 69.3081 338.642 69.3576L338.684 72.285C338.475 72.2232 338.254 72.1777 338.02 72.1486C337.787 72.1195 337.553 72.1066 337.319 72.1099C336.794 72.1174 336.345 72.2178 335.972 72.4112C335.605 72.598 335.326 72.8678 335.137 73.2207C334.947 73.5736 334.856 73.9996 334.863 74.4989L334.944 80.1981L331.492 80.2472ZM342.499 75.6063L342.474 75.2175C342.408 74.6802 342.417 74.2164 342.503 73.8261C342.588 73.4358 342.761 73.0896 343.023 72.7876C343.284 72.479 343.634 72.192 344.071 71.9264C344.508 71.6607 344.845 71.4257 345.082 71.2213C345.326 71.0168 345.491 70.8102 345.579 70.6014C345.674 70.3926 345.719 70.1487 345.715 69.8699L345.714 69.8505C345.711 69.5911 345.639 69.3652 345.501 69.1726C345.368 68.9734 345.184 68.8204 344.949 68.7135C344.714 68.6001 344.441 68.5456 344.13 68.5501C343.825 68.5544 343.554 68.6231 343.316 68.7562C343.084 68.8892 342.902 69.0734 342.769 69.3087C342.636 69.5441 342.569 69.8141 342.567 70.119L342.547 70.1387L339.396 70.1932L339.396 70.1543C339.39 69.3178 339.581 68.5823 339.968 67.9478C340.361 67.3131 340.924 66.8187 341.659 66.4646C342.399 66.1039 343.285 65.9162 344.316 65.9015C345.308 65.8874 346.169 66.0373 346.9 66.3512C347.637 66.6584 348.211 67.101 348.621 67.6788C349.038 68.2565 349.252 68.9344 349.263 69.7125L349.263 69.7319C349.27 70.2052 349.198 70.6375 349.048 71.0288C348.905 71.4199 348.68 71.7765 348.373 72.0987C348.073 72.4207 347.685 72.7245 347.209 73.0101C346.765 73.2694 346.421 73.5045 346.178 73.7155C345.941 73.9263 345.772 74.1427 345.672 74.3647C345.577 74.5865 345.533 74.8465 345.537 75.1448L345.543 75.563L342.499 75.6063ZM344.171 80.3587C343.575 80.3672 343.096 80.2151 342.735 79.9025C342.38 79.5898 342.199 79.1611 342.191 78.6165C342.183 78.0718 342.352 77.6382 342.698 77.3155C343.05 76.9927 343.524 76.8271 344.121 76.8186C344.724 76.81 345.203 76.9621 345.557 77.2748C345.912 77.5876 346.093 78.0162 346.101 78.5609C346.109 79.1055 345.94 79.5392 345.594 79.8618C345.249 80.1845 344.774 80.3501 344.171 80.3587Z" fill="#21192A"/>
<g filter="url(#filter5_b_3501_6612)">
<rect width="153.316" height="49.6137" rx="7.19998" transform="matrix(0.990723 -0.135893 0.135894 0.990723 42.7402 148.482)" fill="#73E5BF"/>
<rect x="-2.25324" y="-1.70966" width="157.316" height="53.6137" rx="9.19998" transform="matrix(0.990723 -0.135893 0.135894 0.990723 42.9517 148.16)" stroke="#E4DFEF" stroke-opacity="0.4" stroke-width="4" style="mix-blend-mode:overlay"/>
</g>
<rect x="-1.35186" y="-1.0259" width="8.39999" height="8.39997" rx="2.39999" transform="matrix(0.990734 -0.135817 0.135818 0.990734 40.841 145.91)" fill="#47B38F" stroke="white" stroke-width="2.39999"/>
<rect x="-1.35186" y="-1.0259" width="8.39999" height="8.39997" rx="2.39999" transform="matrix(0.990734 -0.135817 0.135818 0.990734 46.6025 193.215)" fill="#47B38F" stroke="white" stroke-width="2.39999"/>
<rect x="-1.35186" y="-1.0259" width="8.39999" height="8.39997" rx="2.39999" transform="matrix(0.990734 -0.135817 0.135818 0.990734 188.756 126.005)" fill="#47B38F" stroke="white" stroke-width="2.39999"/>
<rect x="-1.35186" y="-1.0259" width="8.39999" height="8.39997" rx="2.39999" transform="matrix(0.990734 -0.135817 0.135818 0.990734 194.517 173.309)" fill="#47B38F" stroke="white" stroke-width="2.39999"/>
<path d="M69.1565 177.411L67.2492 163.506L70.7857 163.021L72.3031 174.084L78.1716 173.279L78.5615 176.121L69.1565 177.411ZM80.0485 175.917L78.584 165.24L82.0049 164.771L83.4694 175.448L80.0485 175.917ZM80.1129 163.646C79.6182 163.714 79.1709 163.602 78.7708 163.31C78.3699 163.012 78.1364 162.622 78.0703 162.14C78.0025 161.645 78.1219 161.203 78.4285 160.814C78.7351 160.425 79.1358 160.197 79.6304 160.129C80.1251 160.061 80.5692 160.174 80.9629 160.467C81.3629 160.759 81.5968 161.152 81.6647 161.647C81.7308 162.129 81.6109 162.567 81.3052 162.963C81.005 163.351 80.6076 163.579 80.1129 163.646ZM85.3226 175.194L83.8581 164.517L87.279 164.048L87.5142 165.763L87.6684 165.742C87.8297 165.105 88.1467 164.577 88.6195 164.158C89.0978 163.733 89.7192 163.468 90.4837 163.363C91.6658 163.201 92.6136 163.431 93.3273 164.053C94.0401 164.668 94.4841 165.615 94.6595 166.894L95.6046 173.784L92.1837 174.253L91.3417 168.115C91.2545 167.479 91.0489 167.006 90.7251 166.697C90.4077 166.387 89.9631 166.271 89.3914 166.35C89.0188 166.401 88.7127 166.531 88.4731 166.741C88.2399 166.95 88.0738 167.218 87.9747 167.546C87.8748 167.867 87.8526 168.23 87.9081 168.635L88.7435 174.725L85.3226 175.194ZM97.4385 173.532L95.4413 158.972L98.8621 158.502L100.859 173.063L97.4385 173.532ZM104.145 172.612L100.723 168.634L102.883 166.129L108.115 172.068L104.145 172.612ZM100.216 170.019L99.6446 166.426L100.098 166.364L102.584 161.948L106.391 161.426L102.865 167.074L101.205 168.499L100.216 170.019ZM119.825 170.638C119.317 170.708 118.844 170.697 118.407 170.607C117.975 170.516 117.59 170.356 117.251 170.127C116.918 169.892 116.641 169.592 116.421 169.23L116.267 169.251L116.495 170.918L113.075 171.387L111.077 156.827L114.498 156.358L115.273 162.005L115.427 161.983C115.544 161.548 115.734 161.169 115.997 160.845C116.266 160.514 116.595 160.243 116.985 160.032C117.375 159.821 117.818 159.682 118.312 159.614C119.212 159.491 120.006 159.605 120.696 159.955C121.391 160.298 121.962 160.858 122.409 161.634C122.861 162.404 123.167 163.37 123.326 164.532L123.329 164.552C123.487 165.702 123.452 166.711 123.224 167.58C122.996 168.449 122.595 169.146 122.018 169.67C121.442 170.194 120.711 170.517 119.825 170.638ZM118.18 168.027C118.598 167.969 118.943 167.811 119.215 167.551C119.493 167.29 119.688 166.946 119.799 166.518C119.917 166.09 119.938 165.593 119.86 165.028L119.857 165.008C119.781 164.449 119.628 163.979 119.399 163.598C119.175 163.21 118.895 162.928 118.556 162.752C118.224 162.575 117.85 162.515 117.432 162.572C117.021 162.629 116.673 162.788 116.388 163.049C116.11 163.31 115.912 163.655 115.794 164.083C115.682 164.511 115.666 165.011 115.744 165.582L115.747 165.602C115.823 166.16 115.973 166.634 116.197 167.022C116.426 167.403 116.709 167.682 117.048 167.858C117.385 168.028 117.763 168.084 118.18 168.027ZM125.422 169.694L123.957 159.017L127.378 158.548L127.617 160.292L127.772 160.271C127.842 159.639 128.076 159.126 128.473 158.731C128.871 158.336 129.404 158.093 130.072 158.001C130.271 157.974 130.466 157.964 130.657 157.97C130.846 157.97 131.025 157.985 131.193 158.014L131.591 160.915C131.376 160.879 131.151 160.861 130.916 160.86C130.68 160.86 130.446 160.876 130.215 160.907C129.695 160.979 129.261 161.133 128.914 161.37C128.572 161.601 128.329 161.902 128.184 162.276C128.039 162.649 128 163.083 128.068 163.578L128.843 169.225L125.422 169.694ZM138.438 168.154C137.307 168.309 136.304 168.221 135.427 167.889C134.55 167.558 133.837 167.008 133.286 166.239C132.741 165.463 132.388 164.49 132.228 163.321L132.225 163.302C132.068 162.152 132.154 161.132 132.483 160.243C132.813 159.353 133.352 158.628 134.099 158.067C134.853 157.506 135.789 157.148 136.907 156.995C138.032 156.841 139.029 156.933 139.9 157.272C140.777 157.603 141.491 158.153 142.041 158.922C142.598 159.69 142.956 160.652 143.114 161.808L143.117 161.828C143.278 163.003 143.198 164.039 142.876 164.934C142.559 165.821 142.023 166.543 141.268 167.098C140.518 167.646 139.575 167.998 138.438 168.154ZM138.082 165.562C138.493 165.505 138.828 165.342 139.085 165.071C139.342 164.793 139.517 164.422 139.61 163.958C139.702 163.487 139.706 162.94 139.62 162.317L139.618 162.298C139.532 161.675 139.382 161.152 139.167 160.73C138.952 160.308 138.681 159.998 138.352 159.801C138.031 159.603 137.668 159.532 137.263 159.587C136.858 159.643 136.524 159.81 136.261 160.088C136.005 160.365 135.83 160.736 135.737 161.2C135.643 161.665 135.639 162.209 135.725 162.832L135.727 162.851C135.814 163.481 135.964 164.006 136.179 164.429C136.394 164.851 136.663 165.161 136.984 165.359C137.305 165.55 137.671 165.618 138.082 165.562ZM145.288 166.969L143.291 152.408L146.712 151.939L148.709 166.5L145.288 166.969ZM151.995 166.049L148.573 162.071L150.733 159.566L155.965 165.504L151.995 166.049ZM148.066 163.456L147.494 159.863L147.947 159.8L150.434 155.385L154.241 154.863L150.715 160.511L149.055 161.936L148.066 163.456ZM161.099 165.046C159.981 165.199 158.987 165.109 158.117 164.777C157.252 164.438 156.544 163.88 155.993 163.105C155.448 162.329 155.096 161.366 154.939 160.216L154.937 160.206C154.78 159.056 154.859 158.034 155.174 157.14C155.49 156.246 156.013 155.52 156.741 154.962C157.469 154.404 158.373 154.051 159.453 153.903C160.525 153.755 161.484 153.85 162.329 154.185C163.179 154.514 163.871 155.051 164.405 155.795C164.946 156.539 165.291 157.458 165.441 158.55L165.575 159.533L156.729 160.746L156.456 158.751L163.693 157.759L162.363 159.875L162.178 158.526C162.105 157.993 161.96 157.554 161.742 157.211C161.531 156.861 161.264 156.612 160.943 156.467C160.621 156.314 160.261 156.266 159.863 156.32C159.465 156.375 159.128 156.519 158.852 156.753C158.583 156.987 158.387 157.302 158.265 157.698C158.148 158.087 158.126 158.545 158.198 159.072L158.386 160.44C158.456 160.954 158.601 161.386 158.819 161.736C159.042 162.078 159.325 162.324 159.666 162.473C160.007 162.623 160.396 162.668 160.833 162.608C161.212 162.556 161.522 162.455 161.763 162.304C162.005 162.153 162.189 161.993 162.316 161.825C162.449 161.65 162.534 161.504 162.571 161.388L162.585 161.347L165.696 160.91L165.692 161.028C165.66 161.367 165.561 161.743 165.396 162.159C165.237 162.573 164.981 162.978 164.63 163.373C164.284 163.768 163.822 164.116 163.241 164.418C162.667 164.719 161.953 164.928 161.099 165.046ZM167.564 163.913L166.099 153.236L169.52 152.767L169.755 154.482L169.91 154.461C170.071 153.824 170.388 153.296 170.861 152.878C171.339 152.452 171.96 152.187 172.725 152.082C173.907 151.92 174.855 152.15 175.568 152.772C176.281 153.388 176.725 154.335 176.901 155.613L177.846 162.503L174.425 162.972L173.583 156.834C173.496 156.198 173.29 155.725 172.966 155.416C172.649 155.107 172.204 154.991 171.632 155.069C171.26 155.12 170.954 155.251 170.714 155.46C170.481 155.669 170.315 155.937 170.216 156.265C170.116 156.586 170.094 156.949 170.149 157.354L170.985 163.444L167.564 163.913Z" fill="#21192A"/>
<g filter="url(#filter6_b_3501_6612)">
<rect x="376.779" y="130.325" width="132.504" height="49.614" rx="7.2" transform="rotate(8.93453 376.779 130.325)" fill="#64AFFA"/>
<rect x="375.114" y="128.039" width="136.504" height="53.614" rx="9.2" transform="rotate(8.93453 375.114 128.039)" stroke="white" stroke-opacity="0.4" stroke-width="4" style="mix-blend-mode:overlay"/>
</g>
<path d="M384.822 164.365L387.001 150.5L396.427 151.982L395.982 154.816L390.082 153.889L389.585 157.05L394.947 157.893L394.522 160.593L389.161 159.75L388.348 164.919L384.822 164.365ZM395.74 166.081L397.414 155.435L400.825 155.971L399.151 166.618L395.74 166.081ZM399.337 154.349C398.844 154.272 398.448 154.035 398.149 153.641C397.851 153.239 397.74 152.798 397.815 152.318C397.893 151.825 398.134 151.436 398.54 151.152C398.946 150.868 399.395 150.764 399.888 150.842C400.382 150.92 400.775 151.155 401.067 151.549C401.366 151.944 401.477 152.388 401.399 152.881C401.324 153.362 401.083 153.747 400.676 154.038C400.277 154.323 399.83 154.427 399.337 154.349ZM400.269 166.793L404.283 162.049L401.933 156.146L405.805 156.754L406.837 160.333L407.001 160.359L409.091 157.271L412.771 157.849L408.733 162.62L411.107 168.497L407.389 167.913L406.19 164.327L406.036 164.303L403.814 167.351L400.269 166.793ZM420.932 170.111C419.561 169.895 418.608 169.506 418.073 168.943C417.539 168.373 417.357 167.55 417.526 166.474L418.34 161.295L416.764 161.047L417.159 158.539L418.735 158.787L419.118 156.346L422.548 156.886L422.165 159.326L424.24 159.653L423.846 162.16L421.771 161.834L421.067 166.312C421.002 166.722 421.057 167.042 421.231 167.273C421.405 167.497 421.71 167.644 422.146 167.712C422.332 167.741 422.483 167.762 422.599 167.774C422.723 167.78 422.843 167.789 422.959 167.801L422.577 170.232C422.393 170.235 422.154 170.227 421.862 170.208C421.575 170.195 421.265 170.163 420.932 170.111ZM424.116 170.542L426.399 156.024L429.81 156.56L428.931 162.152L429.085 162.177C429.423 161.613 429.882 161.196 430.463 160.926C431.043 160.656 431.715 160.582 432.477 160.701C433.259 160.824 433.89 161.088 434.371 161.491C434.86 161.89 435.195 162.412 435.376 163.057C435.563 163.704 435.589 164.453 435.455 165.305L434.378 172.156L430.967 171.62L431.927 165.518C432.027 164.878 431.967 164.363 431.746 163.973C431.526 163.578 431.128 163.335 430.551 163.244C430.186 163.187 429.859 163.224 429.569 163.355C429.285 163.488 429.049 163.697 428.86 163.982C428.671 164.261 428.545 164.606 428.481 165.016L427.528 171.079L424.116 170.542ZM436.149 172.434L437.823 161.788L441.234 162.324L439.56 172.97L436.149 172.434ZM439.746 160.702C439.253 160.624 438.857 160.388 438.558 159.993C438.26 159.592 438.149 159.151 438.225 158.671C438.302 158.178 438.544 157.789 438.949 157.505C439.355 157.221 439.805 157.117 440.298 157.195C440.791 157.272 441.184 157.508 441.476 157.902C441.775 158.297 441.886 158.741 441.809 159.234C441.733 159.715 441.492 160.1 441.085 160.391C440.686 160.676 440.24 160.78 439.746 160.702ZM445.925 174.217C444.874 174.052 444.009 173.772 443.33 173.376C442.657 172.981 442.16 172.506 441.841 171.951C441.522 171.388 441.377 170.785 441.407 170.14L441.417 170.072L444.723 170.592L444.742 170.654C444.792 170.964 444.94 171.233 445.186 171.462C445.433 171.691 445.806 171.845 446.305 171.924C446.606 171.971 446.871 171.977 447.1 171.94C447.336 171.899 447.526 171.82 447.669 171.705C447.813 171.583 447.899 171.429 447.928 171.244L447.93 171.234C447.969 170.984 447.901 170.77 447.726 170.591C447.551 170.407 447.231 170.228 446.766 170.057L444.979 169.401C444.315 169.153 443.772 168.851 443.349 168.495C442.932 168.141 442.638 167.737 442.466 167.283C442.301 166.831 442.261 166.335 442.345 165.797L442.347 165.788C442.459 165.077 442.744 164.495 443.202 164.042C443.668 163.583 444.275 163.272 445.023 163.107C445.772 162.936 446.624 162.925 447.578 163.075C448.603 163.237 449.437 163.525 450.081 163.941C450.732 164.352 451.194 164.835 451.468 165.39C451.741 165.945 451.839 166.515 451.76 167.1L451.751 167.158L448.638 166.668L448.629 166.598C448.616 166.347 448.495 166.098 448.264 165.852C448.034 165.605 447.685 165.445 447.217 165.372C446.935 165.328 446.683 165.327 446.459 165.371C446.243 165.409 446.063 165.489 445.919 165.611C445.782 165.734 445.698 165.891 445.668 166.083L445.666 166.093C445.641 166.253 445.657 166.4 445.715 166.534C445.78 166.662 445.902 166.786 446.08 166.906C446.265 167.021 446.522 167.14 446.851 167.264L448.637 167.929C449.711 168.321 450.467 168.791 450.906 169.339C451.351 169.888 451.511 170.563 451.385 171.364L451.384 171.373C451.269 172.104 450.96 172.708 450.459 173.187C449.963 173.667 449.324 173.997 448.541 174.176C447.764 174.355 446.892 174.369 445.925 174.217ZM455.681 179.089L457.904 164.945L461.315 165.481L461.051 167.163L461.205 167.187C461.439 166.823 461.725 166.527 462.063 166.298C462.401 166.069 462.787 165.913 463.22 165.83C463.66 165.748 464.129 165.746 464.629 165.825C465.519 165.965 466.244 166.302 466.803 166.836C467.369 167.372 467.757 168.076 467.968 168.949C468.186 169.817 468.204 170.828 468.023 171.981L468.02 172C467.837 173.159 467.512 174.122 467.044 174.889C466.583 175.65 466.001 176.198 465.298 176.534C464.603 176.865 463.807 176.96 462.91 176.819C462.423 176.742 461.984 176.594 461.592 176.375C461.206 176.157 460.881 175.883 460.618 175.552C460.362 175.217 460.179 174.837 460.069 174.413L459.915 174.388L459.092 179.625L455.681 179.089ZM462.078 173.842C462.501 173.909 462.88 173.857 463.216 173.686C463.557 173.517 463.843 173.243 464.073 172.866C464.304 172.482 464.463 172.012 464.551 171.454L464.554 171.435C464.643 170.872 464.635 170.375 464.532 169.945C464.43 169.509 464.242 169.161 463.968 168.901C463.701 168.636 463.356 168.47 462.933 168.404C462.523 168.339 462.144 168.391 461.796 168.56C461.456 168.723 461.167 168.993 460.931 169.369C460.701 169.746 460.541 170.22 460.451 170.79L460.45 170.8C460.361 171.364 460.371 171.864 460.48 172.301C460.589 172.732 460.78 173.08 461.054 173.346C461.327 173.613 461.669 173.778 462.078 173.842ZM468.619 177.539L470.902 163.02L474.313 163.557L472.03 178.075L468.619 177.539ZM473.715 178.34L474 176.524L480.034 171.151L480.058 170.998L475.119 170.221L475.513 167.713L484.459 169.12L484.131 171.205L478.601 176.381L478.577 176.535L483.352 177.285L482.958 179.793L473.715 178.34ZM486.188 175.614L487.351 166.276L490.992 166.848L489.234 176.093L486.188 175.614ZM486.951 180.716C486.356 180.623 485.906 180.391 485.603 180.022C485.307 179.654 485.201 179.201 485.285 178.662C485.37 178.124 485.61 177.726 486.005 177.466C486.407 177.208 486.905 177.125 487.501 177.219C488.097 177.312 488.543 177.543 488.84 177.912C489.136 178.28 489.242 178.733 489.158 179.271C489.073 179.809 488.833 180.208 488.438 180.468C488.043 180.727 487.547 180.81 486.951 180.716Z" fill="#21192A"/>
<defs>
<filter id="filter0_d_3501_6612" x="56" y="69.0029" width="453" height="285" filterUnits="userSpaceOnUse" color-interpolation-filters="sRGB">
<feFlood flood-opacity="0" result="BackgroundImageFix"/>
<feColorMatrix in="SourceAlpha" type="matrix" values="0 0 0 0 0 0 0 0 0 0 0 0 0 0 0 0 0 0 127 0" result="hardAlpha"/>
<feOffset dy="4"/>
<feGaussianBlur stdDeviation="2"/>
<feComposite in2="hardAlpha" operator="out"/>
<feColorMatrix type="matrix" values="0 0 0 0 0 0 0 0 0 0 0 0 0 0 0 0 0 0 0.25 0"/>
<feBlend mode="normal" in2="BackgroundImageFix" result="effect1_dropShadow_3501_6612"/>
<feBlend mode="normal" in="SourceGraphic" in2="effect1_dropShadow_3501_6612" result="shape"/>
</filter>
<filter id="filter1_i_3501_6612" x="322.776" y="155.324" width="24.7922" height="25.3461" filterUnits="userSpaceOnUse" color-interpolation-filters="sRGB">
<feFlood flood-opacity="0" result="BackgroundImageFix"/>
<feBlend mode="normal" in="SourceGraphic" in2="BackgroundImageFix" result="shape"/>
<feColorMatrix in="SourceAlpha" type="matrix" values="0 0 0 0 0 0 0 0 0 0 0 0 0 0 0 0 0 0 127 0" result="hardAlpha"/>
<feOffset dy="0.748441"/>
<feGaussianBlur stdDeviation="0.37422"/>
<feComposite in2="hardAlpha" operator="arithmetic" k2="-1" k3="1"/>
<feColorMatrix type="matrix" values="0 0 0 0 0 0 0 0 0 0 0 0 0 0 0 0 0 0 0.05 0"/>
<feBlend mode="normal" in2="shape" result="effect1_innerShadow_3501_6612"/>
</filter>
<filter id="filter2_b_3501_6612" x="70.7199" y="273.081" width="423.36" height="124.2" filterUnits="userSpaceOnUse" color-interpolation-filters="sRGB">
<feFlood flood-opacity="0" result="BackgroundImageFix"/>
<feGaussianBlur in="BackgroundImageFix" stdDeviation="12.96"/>
<feComposite in2="SourceAlpha" operator="in" result="effect1_backgroundBlur_3501_6612"/>
<feBlend mode="normal" in="SourceGraphic" in2="effect1_backgroundBlur_3501_6612" result="shape"/>
</filter>
<filter id="filter3_d_3501_6612" x="112.698" y="313.821" width="49.2264" height="49.2266" filterUnits="userSpaceOnUse" color-interpolation-filters="sRGB">
<feFlood flood-opacity="0" result="BackgroundImageFix"/>
<feColorMatrix in="SourceAlpha" type="matrix" values="0 0 0 0 0 0 0 0 0 0 0 0 0 0 0 0 0 0 127 0" result="hardAlpha"/>
<feOffset dy="1.8"/>
<feGaussianBlur stdDeviation="2.25"/>
<feComposite in2="hardAlpha" operator="out"/>
<feColorMatrix type="matrix" values="0 0 0 0 0 0 0 0 0 0 0 0 0 0 0 0 0 0 0.07 0"/>
<feBlend mode="normal" in2="BackgroundImageFix" result="effect1_dropShadow_3501_6612"/>
<feBlend mode="normal" in="SourceGraphic" in2="effect1_dropShadow_3501_6612" result="shape"/>
</filter>
<filter id="filter4_b_3501_6612" x="224.323" y="15.3016" width="178.152" height="116.599" filterUnits="userSpaceOnUse" color-interpolation-filters="sRGB">
<feFlood flood-opacity="0" result="BackgroundImageFix"/>
<feGaussianBlur in="BackgroundImageFix" stdDeviation="14.4"/>
<feComposite in2="SourceAlpha" operator="in" result="effect1_backgroundBlur_3501_6612"/>
<feBlend mode="normal" in="SourceGraphic" in2="effect1_backgroundBlur_3501_6612" result="shape"/>
</filter>
<filter id="filter5_b_3501_6612" x="10.8506" y="95.7587" width="222.415" height="133.767" filterUnits="userSpaceOnUse" color-interpolation-filters="sRGB">
<feFlood flood-opacity="0" result="BackgroundImageFix"/>
<feGaussianBlur in="BackgroundImageFix" stdDeviation="14.4"/>
<feComposite in2="SourceAlpha" operator="in" result="effect1_backgroundBlur_3501_6612"/>
<feBlend mode="normal" in="SourceGraphic" in2="effect1_backgroundBlur_3501_6612" result="shape"/>
</filter>
<filter id="filter6_b_3501_6612" x="337.303" y="98.5545" width="202.143" height="133.132" filterUnits="userSpaceOnUse" color-interpolation-filters="sRGB">
<feFlood flood-opacity="0" result="BackgroundImageFix"/>
<feGaussianBlur in="BackgroundImageFix" stdDeviation="14.4"/>
<feComposite in2="SourceAlpha" operator="in" result="effect1_backgroundBlur_3501_6612"/>
<feBlend mode="normal" in="SourceGraphic" in2="effect1_backgroundBlur_3501_6612" result="shape"/>
</filter>
<linearGradient id="paint0_linear_3501_6612" x1="179.696" y1="75.5635" x2="252.02" y2="370.486" gradientUnits="userSpaceOnUse">
<stop stop-color="#B192D3"/>
<stop offset="1" stop-color="#AA8ECA" stop-opacity="0.34"/>
</linearGradient>
<linearGradient id="paint1_linear_3501_6612" x1="192.124" y1="296.067" x2="440.755" y2="391.878" gradientUnits="userSpaceOnUse">
<stop stop-color="white" stop-opacity="0.89"/>
<stop offset="1" stop-color="white" stop-opacity="0.8"/>
</linearGradient>
<clipPath id="clip0_3501_6612">
<rect width="28.3084" height="28.3084" fill="white" transform="translate(182.133 322.7)"/>
</clipPath>
</defs>
</svg>
