<svg width="30" height="30" viewBox="0 0 30 30" fill="none" xmlns="http://www.w3.org/2000/svg">
<path fill-rule="evenodd" clip-rule="evenodd" d="M2.10742 15.2457C2.10742 7.93029 8.03771 2 15.3531 2C22.6684 2 28.5988 7.93029 28.5988 15.2457C28.5988 22.5609 22.6684 28.4913 15.3531 28.4913C8.03771 28.4913 2.10742 22.5609 2.10742 15.2457ZM15.3531 3.89999C9.08705 3.89999 4.00741 8.97963 4.00741 15.2457C4.00741 18.1898 5.12887 20.8721 6.96793 22.8885C8.73487 20.1283 11.8298 18.2959 15.3539 18.2959C18.8775 18.2959 21.972 20.1279 23.7392 22.8875C25.5776 20.8713 26.6988 18.1893 26.6988 15.2457C26.6988 8.97963 21.619 3.89999 15.3531 3.89999ZM22.317 24.2033C20.9212 21.8049 18.3248 20.1959 15.3539 20.1959C12.3826 20.1959 9.78587 21.8053 8.39029 24.2041C10.3124 25.7003 12.7287 26.5913 15.3531 26.5913C17.9779 26.5913 20.3946 25.6999 22.317 24.2033ZM10.6534 13.2556C10.6534 10.6599 12.7576 8.55565 15.3534 8.55565C17.9491 8.55565 20.0534 10.6599 20.0534 13.2556C20.0534 15.8514 17.9491 17.9556 15.3534 17.9556C12.7576 17.9556 10.6534 15.8514 10.6534 13.2556ZM15.3534 10.4556C13.807 10.4556 12.5534 11.7092 12.5534 13.2556C12.5534 14.802 13.807 16.0556 15.3534 16.0556C16.8998 16.0556 18.1534 14.802 18.1534 13.2556C18.1534 11.7092 16.8998 10.4556 15.3534 10.4556Z" fill="#2E2E2E" style="fill:#2E2E2E;fill:color(display-p3 0.1804 0.1804 0.1804);fill-opacity:1;"/>
</svg>
