<svg width="30" height="30" viewBox="0 0 30 30" fill="none" xmlns="http://www.w3.org/2000/svg">
<path d="M1.99976 13C1.99976 12.4477 2.44747 12 2.99976 12H26.9998C27.552 12 27.9998 12.4477 27.9998 13V17C27.9998 17.5523 27.552 18 26.9998 18H2.99976C2.44747 18 1.99976 17.5523 1.99976 17V13Z" fill="black"/>
<path d="M13.9998 3C13.9998 2.44772 14.4475 2 14.9998 2C15.552 2 15.9998 2.44772 15.9998 3V27C15.9998 27.5523 15.552 28 14.9998 28C14.4475 28 13.9998 27.5523 13.9998 27V3Z" fill="black"/>
</svg>
