
<svg width="30" height="30" viewBox="0 0 30 30" fill="none" xmlns="http://www.w3.org/2000/svg">
<g clip-path="url(#clip0_1485_27690)">
<path d="M21.9073 11.9872C21.6312 11.9872 21.4073 11.7634 21.4073 11.4872V10.1438C21.4073 9.86766 21.6312 9.6438 21.9073 9.6438H30.2183C30.4944 9.6438 30.7183 9.86766 30.7183 10.1438V11.4872C30.7183 11.7634 30.4944 11.9872 30.2183 11.9872H27.9961C27.7199 11.9872 27.4961 12.2111 27.4961 12.4872V19.8566C27.4961 20.1328 27.2722 20.3566 26.9961 20.3566H25.1296C24.8534 20.3566 24.6296 20.1328 24.6296 19.8566V12.4872C24.6296 12.2111 24.4057 11.9872 24.1296 11.9872H21.9073Z" fill="black" style="fill:black;fill-opacity:1;"/>
<path d="M14.1815 20.3566C13.9054 20.3566 13.6815 20.1328 13.6815 19.8566V10.1438C13.6815 9.86766 13.9054 9.6438 14.1815 9.6438H16.0899C16.366 9.6438 16.5899 9.86766 16.5899 10.1438V17.5132C16.5899 17.7893 16.8137 18.0132 17.0899 18.0132H20.421C20.6972 18.0132 20.921 18.237 20.921 18.5132V19.8566C20.921 20.1328 20.6972 20.3566 20.421 20.3566H14.1815Z" fill="black" style="fill:black;fill-opacity:1;"/>
<path d="M3.9641 20.0011C3.90038 20.2122 3.70592 20.3566 3.48544 20.3566H1.40983C1.06917 20.3566 0.828253 20.0234 0.935031 19.6999L4.14102 9.98708C4.20865 9.78219 4.40007 9.6438 4.61582 9.6438H7.86829C8.08405 9.6438 8.27547 9.78219 8.3431 9.98708L11.5491 19.6999C11.6559 20.0234 11.4149 20.3566 11.0743 20.3566H8.99868C8.77819 20.3566 8.58373 20.2122 8.52001 20.0011L6.296 12.6341C6.28882 12.6103 6.2669 12.594 6.24206 12.594V12.594C6.21721 12.594 6.1953 12.6103 6.18812 12.6341L3.9641 20.0011ZM3.27092 16.6301C3.27092 16.3539 3.49478 16.1301 3.77092 16.1301H8.67134C8.94749 16.1301 9.17134 16.3539 9.17134 16.6301V17.8061C9.17134 18.0823 8.94748 18.3061 8.67134 18.3061H3.77092C3.49478 18.3061 3.27092 18.0823 3.27092 17.8061V16.6301Z" fill="black" style="fill:black;fill-opacity:1;"/>
</g>
<defs>
<clipPath id="clip0_1485_27690">
<rect width="30" height="30" fill="white" style="fill:white;fill-opacity:1;" transform="translate(0.718262)"/>
</clipPath>
</defs>
</svg>
