<svg width="30" height="30" viewBox="0 0 30 30" fill="none" xmlns="http://www.w3.org/2000/svg">
<path d="M20.9592 12.489C20.6831 12.489 20.4592 12.2651 20.4592 11.989V11.0361C20.4592 10.76 20.6831 10.5361 20.9592 10.5361H27.7183C27.9945 10.5361 28.2183 10.76 28.2183 11.0361V11.989C28.2183 12.2651 27.9945 12.489 27.7183 12.489H26.0332C25.757 12.489 25.5332 12.7128 25.5332 12.989V18.9635C25.5332 19.2396 25.3093 19.4635 25.0332 19.4635H23.6444C23.3683 19.4635 23.1444 19.2396 23.1444 18.9635V12.989C23.1444 12.7128 22.9205 12.489 22.6444 12.489H20.9592Z" fill="black" style="fill:black;fill-opacity:1;"/>
<path d="M14.521 19.4635C14.2449 19.4635 14.021 19.2396 14.021 18.9635V11.0361C14.021 10.76 14.2449 10.5361 14.521 10.5361H15.9446C16.2208 10.5361 16.4446 10.76 16.4446 11.0361V17.0106C16.4446 17.2868 16.6685 17.5106 16.9446 17.5106H19.5539C19.8301 17.5106 20.0539 17.7345 20.0539 18.0106V18.9635C20.0539 19.2396 19.8301 19.4635 19.5539 19.4635H14.521Z" fill="black" style="fill:black;fill-opacity:1;"/>
<path d="M5.94102 19.108C5.87729 19.3191 5.68284 19.4635 5.46235 19.4635H3.90983C3.56917 19.4635 3.32825 19.1303 3.43503 18.8068L6.05167 10.8794C6.1193 10.6745 6.31072 10.5361 6.52648 10.5361H9.11637C9.33213 10.5361 9.52355 10.6745 9.59117 10.8794L12.2078 18.8068C12.3146 19.1303 12.0737 19.4635 11.733 19.4635H10.1805C9.96001 19.4635 9.76555 19.3191 9.70183 19.108L7.86637 13.028C7.86039 13.0082 7.84213 12.9946 7.82142 12.9946V12.9946C7.80072 12.9946 7.78246 13.0082 7.77647 13.028L5.94102 19.108ZM5.34548 16.4414C5.34548 16.1652 5.56934 15.9414 5.84548 15.9414H9.76249C10.0386 15.9414 10.2625 16.1652 10.2625 16.4414V17.2547C10.2625 17.5309 10.0386 17.7547 9.7625 17.7547H5.84548C5.56934 17.7547 5.34548 17.5309 5.34548 17.2547V16.4414Z" fill="black" style="fill:black;fill-opacity:1;"/>
</svg>
