<svg width="30" height="30" viewBox="0 0 30 30" fill="none" xmlns="http://www.w3.org/2000/svg">
<path d="M22.4069 11.5059C22.1307 11.5059 21.9069 11.2821 21.9069 11.0059V10.1357C21.9069 9.8596 22.1307 9.63574 22.4069 9.63574H30.2182C30.4943 9.63574 30.7182 9.8596 30.7182 10.1357V11.0059C30.7182 11.2821 30.4943 11.5059 30.2182 11.5059H27.9336C27.6575 11.5059 27.4336 11.7298 27.4336 12.0059V19.8644C27.4336 20.1406 27.2097 20.3644 26.9336 20.3644H25.6915C25.4153 20.3644 25.1915 20.1406 25.1915 19.8644V12.0059C25.1915 11.7298 24.9676 11.5059 24.6915 11.5059H22.4069Z" fill="black" style="fill:black;fill-opacity:1;"/>
<path d="M14.3101 20.3644C14.0339 20.3644 13.8101 20.1406 13.8101 19.8644V10.1357C13.8101 9.8596 14.0339 9.63574 14.3101 9.63574H15.5784C15.8545 9.63574 16.0784 9.8596 16.0784 10.1357V17.9942C16.0784 18.2704 16.3022 18.4942 16.5784 18.4942H20.1779C20.454 18.4942 20.6779 18.7181 20.6779 18.9942V19.8644C20.6779 20.1406 20.454 20.3644 20.1779 20.3644H14.3101Z" fill="black" style="fill:black;fill-opacity:1;"/>
<path d="M3.26132 20.0191C3.19432 20.225 3.00239 20.3644 2.78584 20.3644H1.41982C1.0763 20.3644 0.835096 20.026 0.947194 19.7013L4.30568 9.97258C4.37527 9.771 4.56505 9.63574 4.77831 9.63574H6.98859C7.20193 9.63574 7.39177 9.7711 7.46129 9.97279L10.815 19.7015C10.927 20.0261 10.6858 20.3644 10.3423 20.3644H8.9762C8.75955 20.3644 8.56754 20.2249 8.50064 20.0188L5.93839 12.1273C5.93067 12.1035 5.90852 12.0874 5.88352 12.0874V12.0874C5.85854 12.0874 5.83639 12.1035 5.82866 12.1273L3.26132 20.0191ZM2.99706 16.6473C2.99706 16.3712 3.22091 16.1473 3.49706 16.1473H8.23857C8.51472 16.1473 8.73857 16.3712 8.73857 16.6473V17.418C8.73857 17.6941 8.51472 17.918 8.23857 17.918H3.49706C3.22091 17.918 2.99706 17.6941 2.99706 17.418V16.6473Z" fill="black" style="fill:black;fill-opacity:1;"/>
</svg>
