<svg
   width="30"
   height="30"
   viewBox="0 0 30 30"
   fill="none"
   xmlns="http://www.w3.org/2000/svg">
  <path
     d="m 3.89224,14.5295 c 0,6.08846 4.4144,10.23586 9.37144,11.09426 0.56724,0.0982 0.94746,0.6376 0.84924,1.205 -0.09822,0.5672 -0.63768,0.9474 -1.20492,0.8492 C 7.08466,26.66956 1.8075,21.76136 1.8075,14.5295 1.807498,11.45614 3.20574,9.04086 4.8386,7.2035 6.0083,5.88732 7.3465,4.81866 8.42274,4 H 5.14992 c -0.55228,0 -1,-0.44772 -1,-1 0,-0.55228 0.44772,-1 1,-1 h 6 c 0.55228,0 1,0.44772 1,1 v 6 c 0,0.55228 -0.44772,1 -1,1 -0.55228,0 -1,-0.44772 -1,-1 V 5.30886 l -0.003,0.00228 -1.8e-4,1.4e-4 -2e-5,2e-5 h -2e-5 C 9.00374,6.17332 7.607,7.22672 6.3969,8.58836 4.96786,10.19638 3.89224,12.13904 3.89224,14.5295 Z m 22.21538,0.81288 c 0,-6.02412 -4.3208,-10.14722 -9.21412,-11.06584 -0.56582,-0.10622 -0.93838,-0.651 -0.83216,-1.21682 0.10622,-0.5658 0.651,-0.93836 1.2168,-0.83214 5.74848,1.0792 10.91408,5.96048 10.91408,13.1148 0,3.07334 -1.3982,5.48858 -3.031,7.32598 -1.1698,1.3162 -2.508,2.3848 -3.5842,3.2036 h 3.273 c 0.5522,0 1,0.4476 1,1 0,0.5522 -0.4478,1 -1,1 h -6.0001 c -0.55228,0 -1,-0.4478 -1,-1 v -6 c 0,-0.5524 0.44772,-1.00008 1,-1.00008 0.55228,0 1,0.44768 1,1.00008 v 3.691 l 0.0031,-0.0024 c 1.14296,-0.862 2.53976,-1.9154 3.74976,-3.277 1.4292,-1.60808 2.5048,-3.55072 2.5048,-5.94118 z"
     fill="currentColor"
     fill-rule="evenodd"
     clip-rule="evenodd" />
</svg>
