<svg width="30" height="30" viewBox="0 0 30 30" fill="none" xmlns="http://www.w3.org/2000/svg">
<path d="M15 8C15.5523 8 16 7.55228 16 7C16 6.44772 15.5523 6 15 6C14.4477 6 14 6.44772 14 7C14 7.55228 14.4477 8 15 8Z" fill="black"/>
<path d="M16 11C16 11.5523 15.5523 12 15 12C14.4477 12 14 11.5523 14 11C14 10.4477 14.4477 10 15 10C15.5523 10 16 10.4477 16 11Z" fill="black"/>
<path d="M15 16C15.5523 16 16 15.5523 16 15C16 14.4477 15.5523 14 15 14C14.4477 14 14 14.4477 14 15C14 15.5523 14.4477 16 15 16Z" fill="black"/>
<path d="M20 15C20 15.5523 19.5523 16 19 16C18.4477 16 18 15.5523 18 15C18 14.4477 18.4477 14 19 14C19.5523 14 20 14.4477 20 15Z" fill="black"/>
<path d="M23 16C23.5523 16 24 15.5523 24 15C24 14.4477 23.5523 14 23 14C22.4477 14 22 14.4477 22 15C22 15.5523 22.4477 16 23 16Z" fill="black"/>
<path fill-rule="evenodd" clip-rule="evenodd" d="M2 3.5C2 2.67157 2.67157 2 3.5 2H26.5C27.3284 2 28 2.67157 28 3.5V26.5C28 27.3284 27.3284 28 26.5 28H3.5C2.67157 28 2 27.3284 2 26.5V3.5ZM4 26V4H26V26H4Z" fill="black"/>
</svg>
