<svg
   width="30"
   height="30"
   viewBox="0 0 30 30"
   fill="none"
   xmlns="http://www.w3.org/2000/svg">
  <path
     d="m 9.633574,23.745643 c -0.7939894,0 -1.3628819,-0.175997 -1.7066573,-0.527993 C 7.5913012,22.857455 7.4235034,22.288663 7.4235034,21.511073 V 7.9805127 c 0,-0.7939894 0.1718977,-1.3628819 0.5156731,-1.7066773 0.3519754,-0.3519753 0.9167678,-0.527953 1.6943975,-0.527953 2.644685,0 6.301636,0 7.846835,0 2.217531,0 4.050706,1.9630339 4.050706,4.3691416 0,1.800796 -0.900388,3.267857 -2.701224,4.102786 2.324829,0.424974 3.628612,2.783663 3.628612,4.49046 0,2.062413 -1.054786,5.037373 -4.48046,5.037373 -0.999827,0 -5.702084,0 -8.344469,0 z m 6.547633,-7.993074 h -5.157752 v 5.255111 h 5.157752 c 1.042166,0 2.501346,-1.019787 2.501346,-2.664425 0,-1.644658 -1.45918,-2.590686 -2.501346,-2.590686 z M 11.023455,8.483906 v 4.653418 h 4.759317 c 0.718731,0 2.195271,-0.672751 2.195271,-2.391468 0,-1.7187372 -1.593719,-2.26195 -2.195271,-2.26195 z"
     fill="currentColor" />
</svg>
