<svg width="30" height="30" viewBox="0 0 30 30" fill="none" xmlns="http://www.w3.org/2000/svg">
<path d="M9.69079 24.0057C8.89653 24.0057 8.32745 23.8297 7.98356 23.4776C7.64783 23.1173 7.47998 22.5483 7.47998 21.7704V8.23537C7.47998 7.44112 7.65194 6.87204 7.99583 6.52813C8.34792 6.17604 8.9129 6 9.69079 6C12.3364 6 15.9945 6 17.5402 6C19.7585 6 21.5923 7.96369 21.5923 10.3706C21.5923 12.172 20.6916 13.6395 18.8902 14.4747C21.2158 14.8999 22.52 17.2593 22.52 18.9667C22.52 21.0298 21.4648 24.0057 18.038 24.0057C17.0379 24.0057 12.334 24.0057 9.69079 24.0057ZM16.2406 16.01H11.0811V21.2669H16.2406C17.2831 21.2669 18.7428 20.2467 18.7428 18.6016C18.7428 16.9564 17.2831 16.01 16.2406 16.01ZM11.0811 8.73893V13.3939H15.842C16.561 13.3939 18.038 12.7209 18.038 11.0016C18.038 9.28233 16.4438 8.73893 15.842 8.73893H11.0811Z" fill="black" style="fill:black;fill-opacity:1;"/>
</svg>
