<svg width="30" height="30" viewBox="0 0 30 30" fill="none" xmlns="http://www.w3.org/2000/svg">
<path d="M23.1025 4.00488C23.6067 4.05621 24 4.48232 24 5V27C24 27.3635 23.8023 27.6988 23.4844 27.875C23.1665 28.051 22.7778 28.0402 22.4697 27.8477L15 23.1787L7.53027 27.8477C7.22215 28.0402 6.8335 28.051 6.51562 27.875C6.19767 27.6988 6 27.3635 6 27V5L6.00488 4.89746C6.05621 4.39333 6.48232 4 7 4H23L23.1025 4.00488ZM8 25.1953L14.2051 21.3174L14.2979 21.2646C14.7369 21.0319 15.2631 21.0319 15.7021 21.2646L15.7949 21.3174L22 25.1953V6H8V25.1953Z" fill="black" style="fill:black;fill-opacity:1;"/>
</svg>
