<svg width="30" height="30" viewBox="0 0 30 30" fill="none" xmlns="http://www.w3.org/2000/svg">
<path d="M28.0001 12C28.0001 11.4477 27.5524 11 27.0001 11C26.4478 11 26.0001 11.4477 26.0001 12V26H12C11.4477 26 11 26.4477 11 27C11 27.5523 11.4477 28 12 28H26.9C27.4523 28 28.0001 27.4522 28.0001 26.8999V12Z" fill="black"/>
<path d="M2 18C2 18.5523 2.44769 19 2.99997 19C3.55225 19 4 18.5523 4 18L4 4L18 4C18.5523 4 19 3.55228 19 3C19 2.44772 18.5523 2 18 2L3.10007 2C2.54779 2 2 2.54781 2 3.10009L2 18Z" fill="black"/>
<rect x="1.58411" y="27.0018" width="35.9461" height="2" rx="1" transform="rotate(-45 1.58411 27.0018)" fill="black"/>
</svg>
