<svg
   width="30"
   height="30"
   viewBox="0 0 30 30"
   fill="none"
   xmlns="http://www.w3.org/2000/svg">
  <path
     d="m 3.5699153,10.309322 c 0.82842,0 1.5,-0.6715802 1.5,-1.5 0,-0.82842 -0.67158,-1.5 -1.5,-1.5 -0.82842,0 -1.5,0.67158 -1.5,1.5 0,0.8284198 0.67158,1.5 1.5,1.5 z m 5,-1.5 c 0,-0.55228 0.44772,-1 1,-1 H 27.569915 c 0.5522,0 1,0.44772 1,1 0,0.5522798 -0.4478,0.9999998 -1,0.9999998 H 9.5699153 c -0.55228,0 -1,-0.44772 -1,-0.9999998 z m 1,5 c -0.55228,0 -1,0.44772 -1,1 0,0.55228 0.44772,1 1,1 H 27.569915 c 0.5522,0 1,-0.44772 1,-1 0,-0.55228 -0.4478,-1 -1,-1 z m 0,6 c -0.55228,0 -1,0.4478 -1,1 0,0.5522 0.44772,1 1,1 H 27.569915 c 0.5522,0 1,-0.4478 1,-1 0,-0.5522 -0.4478,-1 -1,-1 z m -4.5,-5 c 0,0.82842 -0.67158,1.5 -1.5,1.5 -0.82842,0 -1.5,-0.67158 -1.5,-1.5 0,-0.82842 0.67158,-1.5 1.5,-1.5 0.82842,0 1.5,0.67158 1.5,1.5 z m -1.5,7.5 c 0.82842,0 1.5,-0.6716 1.5,-1.5 0,-0.8284 -0.67158,-1.5 -1.5,-1.5 -0.82842,0 -1.5,0.6716 -1.5,1.5 0,0.8284 0.67158,1.5 1.5,1.5 z"
     fill="currentColor"
     fill-rule="evenodd"
     clip-rule="evenodd" />
</svg>
