<svg width="30" height="30" viewBox="0 0 30 30" fill="none" xmlns="http://www.w3.org/2000/svg">
<path d="M14.9998 27.2949C21.7904 27.2949 27.2954 21.7899 27.2954 14.9993C27.2954 8.20858 21.7904 2.70361 14.9998 2.70361C8.20907 2.70361 2.7041 8.20858 2.7041 14.9993C2.7041 21.7899 8.20907 27.2949 14.9998 27.2949Z" stroke="black" stroke-width="2"/>
<path d="M20.7075 9.39489C21.1367 9.67551 21.2572 10.2509 20.9765 10.6801L14.6629 20.3363C14.5141 20.5639 14.273 20.7148 14.0033 20.7492C13.7336 20.7836 13.4624 20.6981 13.2612 20.5152L9.17587 16.8013C8.79644 16.4564 8.76848 15.8691 9.11342 15.4897C9.45835 15.1103 10.0456 15.0823 10.425 15.4273L13.7046 18.4087L19.4223 9.66389C19.7029 9.2347 20.2784 9.11426 20.7075 9.39489Z" fill="black"/>
</svg>
