<svg width="30" height="31" viewBox="0 0 30 31" fill="none" xmlns="http://www.w3.org/2000/svg">
<path fill-rule="evenodd" clip-rule="evenodd" d="M8 2V4H18V2H8ZM6 1.5C6 0.671573 6.67157 0 7.5 0H18.5C19.3284 0 20 0.671572 20 1.5V2H21C22.6569 2 24 3.34315 24 5V14H22V5C22 4.44772 21.5523 4 21 4H20V4.5C20 5.32843 19.3284 6 18.5 6H7.5C6.67157 6 6 5.32843 6 4.5V4H5C4.44771 4 4 4.44772 4 5V25C4 25.5523 4.44772 26 5 26H12V28H5C3.34315 28 2 26.6569 2 25V5C2 3.34314 3.34315 2 5 2H6V1.5Z" fill="black"/>
<path d="M27.5197 17.173C28.0099 17.4936 28.1475 18.1509 27.827 18.6411L20.6149 29.6713C20.445 29.9313 20.1696 30.1037 19.8615 30.143C19.5534 30.1823 19.2436 30.0846 19.0138 29.8757L14.3472 25.6333C13.9137 25.2393 13.8818 24.5685 14.2758 24.1351C14.6698 23.7017 15.3406 23.6697 15.774 24.0638L19.5203 27.4694L26.0516 17.4803C26.3721 16.9901 27.0294 16.8525 27.5197 17.173Z" fill="black"/>
</svg>
