<svg width="30" height="30" viewBox="0 0 30 30" fill="none" xmlns="http://www.w3.org/2000/svg">
<path fill-rule="evenodd" clip-rule="evenodd" d="M8 2V4H18V2H8ZM6 1.5C6 0.671573 6.67157 0 7.5 0H18.5C19.3284 0 20 0.671572 20 1.5V2H21C22.6569 2 24 3.34315 24 5V14H22V5C22 4.44772 21.5523 4 21 4H20V4.5C20 5.32843 19.3284 6 18.5 6H7.5C6.67157 6 6 5.32843 6 4.5V4H5C4.44771 4 4 4.44772 4 5V25C4 25.5523 4.44772 26 5 26H12V28H5C3.34315 28 2 26.6569 2 25V5C2 3.34314 3.34315 2 5 2H6V1.5Z" fill="black"/>
<path d="M28 29C28 29.5523 27.5523 30 27 30C26.4477 30 26 29.5523 26 29C26 28.4477 26.4477 28 27 28C27.5523 28 28 28.4477 28 29Z" fill="black"/>
<path d="M28 25C28 25.5523 27.5523 26 27 26C26.4477 26 26 25.5523 26 25C26 24.4477 26.4477 24 27 24C27.5523 24 28 24.4477 28 25Z" fill="black"/>
<path d="M28 21C28 21.5523 27.5523 22 27 22C26.4477 22 26 21.5523 26 21C26 20.4477 26.4477 20 27 20C27.5523 20 28 20.4477 28 21Z" fill="black"/>
<path d="M28 17C28 17.5523 27.5523 18 27 18C26.4477 18 26 17.5523 26 17C26 16.4477 26.4477 16 27 16C27.5523 16 28 16.4477 28 17Z" fill="black"/>
<path d="M24 17C24 17.5523 23.5523 18 23 18C22.4477 18 22 17.5523 22 17C22 16.4477 22.4477 16 23 16C23.5523 16 24 16.4477 24 17Z" fill="black"/>
<path d="M20 17C20 17.5523 19.5523 18 19 18C18.4477 18 18 17.5523 18 17C18 16.4477 18.4477 16 19 16C19.5523 16 20 16.4477 20 17Z" fill="black"/>
<path d="M16 17C16 17.5523 15.5523 18 15 18C14.4477 18 14 17.5523 14 17C14 16.4477 14.4477 16 15 16C15.5523 16 16 16.4477 16 17Z" fill="black"/>
<path d="M16 21C16 21.5523 15.5523 22 15 22C14.4477 22 14 21.5523 14 21C14 20.4477 14.4477 20 15 20C15.5523 20 16 20.4477 16 21Z" fill="black"/>
<path d="M16 25C16 25.5523 15.5523 26 15 26C14.4477 26 14 25.5523 14 25C14 24.4477 14.4477 24 15 24C15.5523 24 16 24.4477 16 25Z" fill="black"/>
<path d="M16 29C16 29.5523 15.5523 30 15 30C14.4477 30 14 29.5523 14 29C14 28.4477 14.4477 28 15 28C15.5523 28 16 28.4477 16 29Z" fill="black"/>
<path d="M20 29C20 29.5523 19.5523 30 19 30C18.4477 30 18 29.5523 18 29C18 28.4477 18.4477 28 19 28C19.5523 28 20 28.4477 20 29Z" fill="black"/>
<path d="M24 29C24 29.5523 23.5523 30 23 30C22.4477 30 22 29.5523 22 29C22 28.4477 22.4477 28 23 28C23.5523 28 24 28.4477 24 29Z" fill="black"/>
</svg>
