<svg width="30" height="30" viewBox="0 0 30 30" fill="none" xmlns="http://www.w3.org/2000/svg">
<path fill-rule="evenodd" clip-rule="evenodd" d="M19.9283 5.37163C20.1334 4.85885 19.884 4.2769 19.3713 4.07178C18.8585 3.86669 18.2765 4.11608 18.0714 4.62887L10.0716 24.6284C9.86647 25.1412 10.1159 25.7232 10.6287 25.9282C11.1414 26.1334 11.7234 25.884 11.9285 25.3712L19.9283 5.37163ZM7.70722 10.293C8.09775 10.6835 8.09775 11.3167 7.70722 11.7072L4.41441 15L7.70722 18.2928C8.09775 18.6834 8.09775 19.3165 7.70722 19.707C7.31671 20.0975 6.68356 20.0975 6.29305 19.707L2.29314 15.7071C1.90261 15.3166 1.90261 14.6834 2.29314 14.2929L6.29305 10.293C6.68356 9.90251 7.31671 9.90251 7.70722 10.293ZM22.2926 10.293C22.6832 9.90251 23.3164 9.90251 23.707 10.293L27.7069 14.2929C28.0973 14.6834 28.0973 15.3166 27.7069 15.7071L23.707 19.707C23.3164 20.0975 22.6832 20.0975 22.2926 19.707C21.9022 19.3165 21.9022 18.6834 22.2926 18.2928L25.5855 15L22.2926 11.7072C21.9022 11.3167 21.9022 10.6835 22.2926 10.293Z" fill="black" style="fill:black;fill-opacity:1;"/>
</svg>
