<svg
   width="30"
   height="30"
   viewBox="0 0 30 30"
   fill="none"
   xmlns="http://www.w3.org/2000/svg">
  <path
     d="m 20.055599,5.2443025 c 0.20512,-0.5128 -0.0443,-1.09476 -0.55708,-1.29988 -0.5128,-0.2051 -1.09476,0.0443 -1.29988,0.5571 L 10.198638,24.501482 c -0.2051197,0.5128 0.0443,1.0948 0.55708,1.2998 0.5128,0.2052 1.09476,-0.0442 1.29988,-0.557 z M 7.8342184,10.165802 c 0.39054,0.39052 0.39054,1.02368 0,1.4142 l -3.29288,3.2929 3.29288,3.2929 c 0.39054,0.39052 0.39054,1.02368 0,1.4142 -0.39052,0.39048 -1.02368,0.39048 -1.4142,0 l -4,-4 c -0.390532,-0.39052 -0.390532,-1.02368 0,-1.4142 l 4,-4 c 0.39052,-0.3905195 1.02368,-0.3905195 1.4142,0 z m 14.5857006,0 c 0.3906,-0.3905195 1.0238,-0.3905195 1.4144,0 l 4,4 c 0.3904,0.39052 0.3904,1.02368 0,1.4142 l -4,4 c -0.3906,0.39048 -1.0238,0.39048 -1.4144,0 -0.3904,-0.39052 -0.3904,-1.02368 0,-1.4142 l 3.293,-3.2929 -3.293,-3.2929 c -0.3904,-0.39052 -0.3904,-1.02368 0,-1.4142 z"
     fill="currentColor"
     fill-rule="evenodd"
     clip-rule="evenodd" />
</svg>
