<svg width="30" height="30" viewBox="0 0 30 30" fill="none" xmlns="http://www.w3.org/2000/svg">
<path fill-rule="evenodd" clip-rule="evenodd" d="M20.9307 15.1503C19.3421 15.1503 18.0143 15.418 16.9514 15.9318C16.4198 16.1888 15.7398 14.2757 17.3016 13.7831C18.4031 13.4358 19.6228 13.2753 20.9307 13.2753C23.2432 13.2753 25.285 13.7777 26.8776 14.9286C28.4868 16.0915 29.5363 17.8434 29.9826 20.1366C30.0815 20.6448 29.7496 21.137 29.2414 21.2359C28.7332 21.3348 28.241 21.0029 28.1421 20.4947C27.7707 18.5859 26.9392 17.2864 25.7795 16.4483C24.6032 15.5983 22.9879 15.1503 20.9307 15.1503ZM4.26066 20.0954C3.11824 20.8571 2.2808 22.029 1.84608 23.7321C1.71802 24.2338 1.20753 24.5367 0.705854 24.4086C0.204179 24.2806 -0.0987026 23.7701 0.0293489 23.2684C0.563742 21.1748 1.6454 19.5856 3.22056 18.5354C4.77865 17.4966 6.73554 17.0407 8.93898 17.0407C11.6829 17.0407 14.0472 17.7499 15.7227 19.4011C17.401 21.0551 18.2392 23.5069 18.2391 26.6753C18.2391 27.193 17.8194 27.6127 17.3016 27.6127C16.7839 27.6127 16.3641 27.193 16.3641 26.6752C16.3642 23.8226 15.6135 21.9259 14.4066 20.7366C13.197 19.5445 11.3798 18.9156 8.93898 18.9156C6.97933 18.9156 5.42014 19.3224 4.26066 20.0954Z" fill="black"/>
<path d="M14.0881 8.48072C14.9612 8.8509 15.7139 9.44986 16.2708 10.2024C16.0716 9.70492 15.962 9.16187 15.962 8.59322C15.962 6.20133 17.9011 4.26224 20.293 4.26224C22.6849 4.26224 24.624 6.20133 24.624 8.59322C24.624 10.9851 22.6849 12.9242 20.293 12.9242C18.9042 12.9242 17.668 12.2705 16.8755 11.2539C17.1498 11.8919 17.3018 12.5949 17.3018 13.3335C17.3018 13.5621 17.2872 13.7873 17.259 14.0082C18.156 14.5119 19.191 14.7992 20.293 14.7992C23.7205 14.7992 26.499 12.0206 26.499 8.59322C26.499 5.16582 23.7205 2.38727 20.293 2.38727C16.9031 2.38727 14.1481 5.10522 14.0881 8.48072Z" fill="black"/>
<path fill-rule="evenodd" clip-rule="evenodd" d="M5.82717 12.7097C5.82717 9.28227 8.60567 6.50372 12.0331 6.50372C15.4606 6.50372 18.2391 9.28227 18.2391 12.7097C18.2391 16.1371 15.4606 18.9156 12.0331 18.9156C8.60567 18.9156 5.82717 16.1371 5.82717 12.7097ZM12.0331 8.37869C9.6412 8.37869 7.70215 10.3178 7.70215 12.7097C7.70215 15.1016 9.6412 17.0406 12.0331 17.0406C14.4251 17.0406 16.3641 15.1016 16.3641 12.7097C16.3641 10.3178 14.4251 8.37869 12.0331 8.37869Z" fill="black"/>
</svg>
