<svg
   width="30"
   height="30"
   viewBox="0 0 30 30"
   fill="none"
   xmlns="http://www.w3.org/2000/svg">
  <path
     d="M 11.000001,4.0000008 H 9.7587008 c -0.80496,-2e-5 -1.46932,-2e-5 -2.01052,0.0442 -0.5621,0.04592 -1.0788,0.14448 -1.56414,0.39178 -0.75264,0.38348 -1.36458,0.99542 -1.74806,1.74806 -0.2473,0.48534 -0.34586,1.00204 -0.39178,1.56414 -0.04422,0.54118 -0.04422,1.20554 -0.0442,2.01048 v 4e-5 1.2413002 c 0,0.55228 0.44772,1 1,1 0.55228,0 1,-0.44772 1,-1 V 9.8000008 c 0,-0.85658 7.8e-4,-1.43888 0.03756,-1.88896 0.03582,-0.43842 0.10074,-0.66262 0.18042,-0.81902 0.19176,-0.37632 0.49772,-0.68228 0.87404,-0.87404 0.1564,-0.07968 0.3806,-0.1446 0.81902,-0.18042 0.45008,-0.03678 1.03238,-0.03756 1.88896,-0.03756 h 1.2000002 c 0.55228,0 1,-0.44772 1,-1 0,-0.55228 -0.44772,-1 -1,-1 z M 26.000001,19 c 0,-0.55228 -0.4478,-1 -1,-1 -0.5522,0 -1,0.44772 -1,1 v 1.2 c 0,0.8566 -8e-4,1.4388 -0.0376,1.889 -0.0358,0.4384 -0.1006,0.6626 -0.1804,0.819 -0.1918,0.3764 -0.4976,0.6822 -0.874,0.874 -0.1564,0.0798 -0.3806,0.1446 -0.819,0.1804 -0.4502,0.0368 -1.0324,0.0376 -1.889,0.0376 h -1.2 c -0.55228,0 -1,0.4478 -1,1 0,0.5522 0.44772,1 1,1 h 1.2412 c 0.805,0 1.4694,0 2.0106,-0.0442 0.5622,-0.046 1.0788,-0.1444 1.5642,-0.3918 0.7526,-0.3834 1.3646,-0.9954 1.748,-1.748 0.2474,-0.4854 0.3458,-1.002 0.3918,-1.5642 0.0442,-0.5412 0.0442,-1.2054 0.0442,-2.0104 v 0 0 -2e-4 z M 5.0000008,18 c 0.55228,0 1,0.44772 1,1 v 1.2 c 0,0.8566 7.8e-4,1.4388 0.03756,1.889 0.03582,0.4384 0.10074,0.6626 0.18042,0.819 0.19176,0.3764 0.49772,0.6822 0.87404,0.874 0.1564,0.0798 0.3806,0.1446 0.81902,0.1804 0.45008,0.0368 1.03238,0.0376 1.88896,0.0376 h 1.2000002 c 0.55228,0 1,0.4478 1,1 0,0.5522 -0.44772,1 -1,1 H 9.7587008 c -0.80496,0 -1.46932,0 -2.01052,-0.0442 -0.5621,-0.046 -1.0788,-0.1444 -1.56414,-0.3918 -0.75264,-0.3834 -1.36458,-0.9954 -1.74806,-1.748 -0.2473,-0.4854 -0.34586,-1.002 -0.39178,-1.5642 -0.04422,-0.5412 -0.04422,-1.2056 -0.0442,-2.0104 V 20.2412 20.2 19 c 0,-0.55228 0.44772,-1 1,-1 z M 20.200001,6.0000008 c 0.8566,0 1.4388,7.8e-4 1.889,0.03756 0.4384,0.03582 0.6626,0.10074 0.819,0.18042 0.3764,0.19176 0.6822,0.49772 0.874,0.87404 0.0798,0.1564 0.1446,0.3806 0.1804,0.81902 0.0368,0.45008 0.0376,1.03238 0.0376,1.88896 v 1.2000002 c 0,0.55228 0.4478,1 1,1 0.5522,0 1,-0.44772 1,-1 v -1.2413002 -2e-5 c 0,-0.80496 0,-1.46932 -0.0442,-2.0105 -0.046,-0.5621 -0.1444,-1.0788 -0.3918,-1.56414 -0.3834,-0.75264 -0.9954,-1.36458 -1.748,-1.74806 -0.4854,-0.2473 -1.002,-0.34586 -1.5642,-0.39178 -0.5412,-0.04422 -1.2056,-0.04422 -2.0106,-0.0442 h -0.0412 -1.2 c -0.55228,0 -1,0.44772 -1,1 0,0.55228 0.44772,1 1,1 z"
     fill="currentColor"
     fill-rule="evenodd"
     clip-rule="evenodd" />
</svg>
