<svg
   width="30"
   height="30"
   viewBox="0 0 30 30"
   fill="none"
   xmlns="http://www.w3.org/2000/svg"
   xmlns:svg="http://www.w3.org/2000/svg">
  <path
     d="m 7.0000002,1.2e-6 c 0.55228,0 1,0.4477164 1,1.0000004 v 5.000118 H 23 c 0.5522,0 1,0.44772 1,1 V 22.0002 L 29,22 c 0.5522,0 1,0.4476 1,1 0,0.5522 -0.4476,1 -1,1 l -5,2e-4 V 29 c 0,0.5522 -0.4478,1 -1,1 -0.5522,0 -1,-0.4478 -1,-1 V 24.0002 H 7.0000002 c -0.5522799,0 -0.9999999,-0.4478 -0.9999999,-1 V 8.0000996 l -5.000022,-1e-4 c -0.552284,0 -0.9999903,-0.44774 -0.9999791,-1.00002 1.13e-5,-0.55228 0.4477351,-0.99998 1.0000211,-0.99998 l 4.99998,1e-4 v -5.000098 c 0,-0.552284 0.44772,-1.0000004 0.9999999,-1.0000004 z m 1,8.0001184 V 22.0002 H 22 V 8.0001196 Z"
     fill="currentColor"
     fill-rule="evenodd"
     clip-rule="evenodd" />
</svg>
