<svg width="30" height="30" viewBox="0 0 30 30" fill="none" xmlns="http://www.w3.org/2000/svg">
<path d="M25.7071 5.70711C26.0976 5.31658 26.0976 4.68342 25.7071 4.29289C25.3166 3.90237 24.6834 3.90237 24.2929 4.29289L15 13.5858L5.70711 4.29289C5.31658 3.90237 4.68342 3.90237 4.29289 4.29289C3.90237 4.68342 3.90237 5.31658 4.29289 5.70711L13.5858 15L4.29289 24.2929C3.90237 24.6834 3.90237 25.3166 4.29289 25.7071C4.68342 26.0976 5.31658 26.0976 5.70711 25.7071L15 16.4142L24.2929 25.7071C24.6834 26.0976 25.3166 26.0976 25.7071 25.7071C26.0976 25.3166 26.0976 24.6834 25.7071 24.2929L16.4142 15L25.7071 5.70711Z" fill="black"/>
</svg>
