<svg width="30" height="30" viewBox="0 0 30 30" fill="none" xmlns="http://www.w3.org/2000/svg">
<path d="M23.5631 8.06315C24.0123 7.61405 24.0123 6.88591 23.5631 6.4368C23.114 5.9877 22.3859 5.9877 21.9368 6.4368L15 13.3736L8.06315 6.4368C7.61405 5.9877 6.88591 5.9877 6.4368 6.4368C5.9877 6.88591 5.9877 7.61405 6.4368 8.06315L13.3736 15L6.4368 21.9368C5.9877 22.3859 5.9877 23.114 6.4368 23.5631C6.88591 24.0123 7.61405 24.0123 8.06315 23.5631L15 16.6263L21.9368 23.5631C22.3859 24.0123 23.114 24.0123 23.5631 23.5631C24.0123 23.114 24.0123 22.3859 23.5631 21.9368L16.6263 15L23.5631 8.06315Z" fill="black"/>
</svg>
