<svg width="30" height="30" viewBox="0 0 30 30" fill="none" xmlns="http://www.w3.org/2000/svg">
<path d="M19.4422 11.8925C19.8106 11.524 19.8106 10.9264 19.4422 10.5579C19.0736 10.1894 18.4761 10.1894 18.1076 10.5579L15 13.6654L11.8925 10.5579C11.524 10.1894 10.9264 10.1894 10.5579 10.5579C10.1894 10.9264 10.1894 11.524 10.5579 11.8925L13.6654 15L10.5579 18.1075C10.1894 18.4761 10.1894 19.0736 10.5579 19.4421C10.9264 19.8107 11.524 19.8107 11.8925 19.4421L15 16.3346L18.1076 19.4421C18.4761 19.8107 19.0736 19.8107 19.4422 19.4421C19.8106 19.0736 19.8106 18.4761 19.4422 18.1075L16.3346 15L19.4422 11.8925Z" fill="black"/>
<path d="M14.9998 27.2949C21.7904 27.2949 27.2954 21.7899 27.2954 14.9993C27.2954 8.20858 21.7904 2.70361 14.9998 2.70361C8.20907 2.70361 2.7041 8.20858 2.7041 14.9993C2.7041 21.7899 8.20907 27.2949 14.9998 27.2949Z" stroke="black" stroke-width="2"/>
</svg>
