<svg width="30" height="30" viewBox="0 0 30 30" fill="none" xmlns="http://www.w3.org/2000/svg">
<path d="M7.25 15C7.25 16.2426 6.24264 17.25 5 17.25C3.75736 17.25 2.75 16.2426 2.75 15C2.75 13.7574 3.75736 12.75 5 12.75C6.24264 12.75 7.25 13.7574 7.25 15Z" fill="black"/>
<path d="M17.25 15C17.25 16.2426 16.2426 17.25 15 17.25C13.7574 17.25 12.75 16.2426 12.75 15C12.75 13.7574 13.7574 12.75 15 12.75C16.2426 12.75 17.25 13.7574 17.25 15Z" fill="black"/>
<path d="M27.25 15C27.25 16.2426 26.2426 17.25 25 17.25C23.7574 17.25 22.75 16.2426 22.75 15C22.75 13.7574 23.7574 12.75 25 12.75C26.2426 12.75 27.25 13.7574 27.25 15Z" fill="black"/>
</svg>
