<svg width="30" height="30" viewBox="0 0 30 30" fill="none" xmlns="http://www.w3.org/2000/svg">
<path d="M17.25 5C17.25 6.24264 16.2426 7.25 15 7.25C13.7574 7.25 12.75 6.24264 12.75 5C12.75 3.75736 13.7574 2.75 15 2.75C16.2426 2.75 17.25 3.75736 17.25 5Z" fill="black"/>
<path d="M17.25 15C17.25 16.2426 16.2426 17.25 15 17.25C13.7574 17.25 12.75 16.2426 12.75 15C12.75 13.7574 13.7574 12.75 15 12.75C16.2426 12.75 17.25 13.7574 17.25 15Z" fill="black"/>
<path d="M17.25 25C17.25 26.2426 16.2426 27.25 15 27.25C13.7574 27.25 12.75 26.2426 12.75 25C12.75 23.7574 13.7574 22.75 15 22.75C16.2426 22.75 17.25 23.7574 17.25 25Z" fill="black"/>
</svg>
