<svg width="30" height="30" viewBox="0 0 30 30" fill="none" xmlns="http://www.w3.org/2000/svg">
<path d="M15 9.48975C14.3167 9.48975 13.7292 9.24747 13.2375 8.76293C12.7458 8.27003 12.5 7.67688 12.5 6.98348C12.5 6.29843 12.7458 5.71364 13.2375 5.22909C13.7292 4.73619 14.3167 4.48975 15 4.48975C15.6833 4.48975 16.2708 4.73619 16.7625 5.22909C17.2542 5.71364 17.5 6.29843 17.5 6.98348C17.5 7.44296 17.3833 7.86485 17.15 8.24914C16.925 8.62508 16.625 8.92583 16.25 9.1514C15.875 9.37696 15.4583 9.48975 15 9.48975Z" fill="black" style="fill:black;fill-opacity:1;"/>
<path d="M15 17.5C14.3167 17.5 13.7292 17.2577 13.2375 16.7732C12.7458 16.2803 12.5 15.6871 12.5 14.9937C12.5 14.3087 12.7458 13.7239 13.2375 13.2393C13.7292 12.7464 14.3167 12.5 15 12.5C15.6833 12.5 16.2708 12.7464 16.7625 13.2393C17.2542 13.7239 17.5 14.3087 17.5 14.9937C17.5 15.4532 17.3833 15.8751 17.15 16.2594C16.925 16.6353 16.625 16.9361 16.25 17.1617C15.875 17.3872 15.4583 17.5 15 17.5Z" fill="black" style="fill:black;fill-opacity:1;"/>
<path d="M15 25.5103C14.3167 25.5103 13.7292 25.268 13.2375 24.7834C12.7458 24.2905 12.5 23.6974 12.5 23.004C12.5 22.319 12.7458 21.7342 13.2375 21.2496C13.7292 20.7567 14.3167 20.5103 15 20.5103C15.6833 20.5103 16.2708 20.7567 16.7625 21.2496C17.2542 21.7342 17.5 22.319 17.5 23.004C17.5 23.4635 17.3833 23.8854 17.15 24.2697C16.925 24.6456 16.625 24.9463 16.25 25.1719C15.875 25.3975 15.4583 25.5103 15 25.5103Z" fill="black" style="fill:black;fill-opacity:1;"/>
</svg>
