<svg width="30" height="30" viewBox="0 0 30 30" fill="none" xmlns="http://www.w3.org/2000/svg">
<path d="M6.98975 17.5C6.30641 17.5 5.71891 17.2577 5.22725 16.7732C4.73558 16.2803 4.48975 15.6871 4.48975 14.9937C4.48975 14.3087 4.73558 13.7239 5.22725 13.2393C5.71891 12.7464 6.30641 12.5 6.98975 12.5C7.67308 12.5 8.26058 12.7464 8.75225 13.2393C9.24391 13.7239 9.48975 14.3087 9.48975 14.9937C9.48975 15.4532 9.37308 15.8751 9.13975 16.2594C8.91475 16.6353 8.61475 16.9361 8.23975 17.1617C7.86475 17.3872 7.44808 17.5 6.98975 17.5Z" fill="black" style="fill:black;fill-opacity:1;"/>
<path d="M15 17.5C14.3167 17.5 13.7292 17.2577 13.2375 16.7732C12.7458 16.2803 12.5 15.6871 12.5 14.9937C12.5 14.3087 12.7458 13.7239 13.2375 13.2393C13.7292 12.7464 14.3167 12.5 15 12.5C15.6833 12.5 16.2708 12.7464 16.7625 13.2393C17.2542 13.7239 17.5 14.3087 17.5 14.9937C17.5 15.4532 17.3833 15.8751 17.15 16.2594C16.925 16.6353 16.625 16.9361 16.25 17.1617C15.875 17.3872 15.4583 17.5 15 17.5Z" fill="black" style="fill:black;fill-opacity:1;"/>
<path d="M23.0101 17.5C22.3268 17.5 21.7393 17.2577 21.2476 16.7732C20.756 16.2803 20.5101 15.6871 20.5101 14.9937C20.5101 14.3087 20.756 13.7239 21.2476 13.2393C21.7393 12.7464 22.3268 12.5 23.0101 12.5C23.6935 12.5 24.281 12.7464 24.7726 13.2393C25.2643 13.7239 25.5101 14.3087 25.5101 14.9937C25.5101 15.4532 25.3935 15.8751 25.1601 16.2594C24.9351 16.6353 24.6351 16.9361 24.2601 17.1617C23.8851 17.3872 23.4685 17.5 23.0101 17.5Z" fill="black" style="fill:black;fill-opacity:1;"/>
</svg>
