<svg width="30" height="30" viewBox="0 0 30 30" fill="none" xmlns="http://www.w3.org/2000/svg">
<path d="M14.7182 3C14.7182 2.44772 15.166 2 15.7182 2C16.2704 2.00013 16.7182 2.4478 16.7182 3V18.5859L21.5112 13.793C21.9017 13.4027 22.5348 13.4025 22.9253 13.793C23.3157 14.1834 23.3155 14.8165 22.9253 15.207L16.4253 21.707C16.0347 22.0976 15.4017 22.0976 15.0112 21.707L8.5112 15.207L8.44187 15.1318C8.12145 14.7391 8.14506 14.1591 8.5112 13.793C8.87734 13.4271 9.45641 13.4043 9.84909 13.7246L9.92527 13.793L14.7182 18.5859V3Z" fill="#2E2E2E" style="fill:#2E2E2E;fill:color(display-p3 0.1804 0.1804 0.1804);fill-opacity:1;"/>
<path d="M2.65332 22C2.65332 21.4477 3.10104 21 3.65332 21C4.171 21 4.59711 21.3933 4.64844 21.8975L4.65332 22V26H26.793V22C26.793 21.4477 27.2407 21 27.793 21C28.3451 21.0002 28.793 21.4478 28.793 22V27C28.7928 27.5521 28.345 27.9998 27.793 28H3.65332C3.38811 28 3.13383 27.8946 2.94629 27.707C2.75875 27.5195 2.65332 27.2652 2.65332 27V22Z" fill="black" style="fill:black;fill-opacity:1;"/>
</svg>
