<svg width="30" height="30" viewBox="0 0 30 30" fill="none" xmlns="http://www.w3.org/2000/svg">
<path d="M11 9.25C12.2426 9.25 13.25 8.24264 13.25 7C13.25 5.75736 12.2426 4.75 11 4.75C9.75736 4.75 8.75 5.75736 8.75 7C8.75 8.24264 9.75736 9.25 11 9.25Z" fill="black"/>
<path d="M19 9.25C20.2426 9.25 21.25 8.24264 21.25 7C21.25 5.75736 20.2426 4.75 19 4.75C17.7574 4.75 16.75 5.75736 16.75 7C16.75 8.24264 17.7574 9.25 19 9.25Z" fill="black"/>
<path d="M21.25 15C21.25 16.2426 20.2426 17.25 19 17.25C17.7574 17.25 16.75 16.2426 16.75 15C16.75 13.7574 17.7574 12.75 19 12.75C20.2426 12.75 21.25 13.7574 21.25 15Z" fill="black"/>
<path d="M11 17.25C12.2426 17.25 13.25 16.2426 13.25 15C13.25 13.7574 12.2426 12.75 11 12.75C9.75736 12.75 8.75 13.7574 8.75 15C8.75 16.2426 9.75736 17.25 11 17.25Z" fill="black"/>
<path d="M21.25 23C21.25 24.2426 20.2426 25.25 19 25.25C17.7574 25.25 16.75 24.2426 16.75 23C16.75 21.7574 17.7574 20.75 19 20.75C20.2426 20.75 21.25 21.7574 21.25 23Z" fill="black"/>
<path d="M11 25.25C12.2426 25.25 13.25 24.2426 13.25 23C13.25 21.7574 12.2426 20.75 11 20.75C9.75736 20.75 8.75 21.7574 8.75 23C8.75 24.2426 9.75736 25.25 11 25.25Z" fill="black"/>
</svg>
