<svg width="30" height="30" viewBox="0 0 30 30" fill="none" xmlns="http://www.w3.org/2000/svg">
<path fill-rule="evenodd" clip-rule="evenodd" d="M2 19.0001C2 20.6569 3.34315 22.0001 5 22.0001H8L8 20.0001H5C4.44772 20.0001 4 19.5524 4 19.0001L4 5.00009C4 4.44781 4.44772 4.00009 5 4.00009L19 4.00009C19.5523 4.00009 20 4.44781 20 5.00009V8.00001H11C9.34315 8.00001 8 9.34316 8 11V25C8 26.6569 9.34315 28 11 28H25C26.6569 28 28 26.6569 28 25V11C28 9.34316 26.6569 8.00001 25 8.00001H22V5.00009C22 3.34324 20.6569 2.00009 19 2.00009H5C3.34315 2.00009 2 3.34324 2 5.00009V19.0001ZM10 11C10 10.4477 10.4477 10 11 10H25C25.5523 10 26 10.4477 26 11V25C26 25.5523 25.5523 26 25 26H11C10.4477 26 10 25.5523 10 25V11Z" fill="black"/>
</svg>
