<svg width="30" height="30" viewBox="0 0 30 30" fill="none" xmlns="http://www.w3.org/2000/svg">
<path fill-rule="evenodd" clip-rule="evenodd" d="M22.1619 2.78118C22.5525 2.39065 23.1857 2.39065 23.5761 2.78118L27.5761 6.78118C27.9667 7.1717 27.9667 7.80486 27.5761 8.19538L19.6909 16.0806C19.5389 16.2326 19.3633 16.3591 19.1711 16.4553L11.3163 20.3827C10.9313 20.5753 10.4664 20.4997 10.162 20.1954C9.85764 19.891 9.78218 19.4261 9.97468 19.0411L13.9021 11.1862C13.9982 10.9939 14.1247 10.8184 14.2767 10.6664L22.1619 2.78118ZM22.8691 4.9025L15.691 12.0806L13.6145 16.2336L14.1238 16.7429L18.2767 14.6664L25.4549 7.48828L22.8691 4.9025ZM17.8691 4.48828L15.8691 6.48828H7.66914C6.81256 6.48828 6.23026 6.48906 5.78018 6.52582C5.34176 6.56164 5.11756 6.62658 4.96116 6.70626C4.58484 6.89802 4.27888 7.20398 4.08712 7.5803C4.00744 7.7367 3.94252 7.9609 3.9067 8.39932C3.86992 8.8494 3.86914 9.4317 3.86914 10.2883V22.6883C3.86914 23.5449 3.86992 24.1271 3.9067 24.5773C3.94252 25.0157 4.00744 25.2399 4.08712 25.3963C4.27888 25.7727 4.58484 26.0785 4.96116 26.2703C5.11756 26.3501 5.34176 26.4149 5.78018 26.4507C6.23026 26.4875 6.81256 26.4883 7.66914 26.4883H20.0691C20.9257 26.4883 21.5079 26.4875 21.9581 26.4507C22.3965 26.4149 22.6207 26.3501 22.7771 26.2703C23.1535 26.0785 23.4593 25.7727 23.6511 25.3963C23.7309 25.2399 23.7957 25.0157 23.8315 24.5773C23.8683 24.1271 23.8691 23.5449 23.8691 22.6883V14.4882L25.8691 12.4882V22.6883V22.7297C25.8691 23.5345 25.8691 24.1989 25.8249 24.7401C25.7789 25.3023 25.6805 25.8189 25.4331 26.3043C25.0497 27.0569 24.4377 27.6689 23.6851 28.0523C23.1997 28.2997 22.6831 28.3981 22.1209 28.4441C21.5797 28.4883 20.9153 28.4883 20.1105 28.4883H20.0691H7.66914H7.62782C6.82286 28.4883 6.1585 28.4883 5.61732 28.4441C5.05522 28.3981 4.53852 28.2997 4.05318 28.0523C3.30054 27.6689 2.6886 27.0569 2.30512 26.3043C2.05782 25.8189 1.95926 25.3023 1.91334 24.7401C1.86912 24.1989 1.86912 23.5345 1.86914 22.7297V22.6883V10.2883V10.247C1.86912 9.44206 1.86912 8.77764 1.91334 8.23646C1.95926 7.67436 2.05782 7.15766 2.30512 6.67232C2.6886 5.91966 3.30054 5.30774 4.05318 4.92426C4.53852 4.67696 5.05522 4.5784 5.61732 4.53248C6.1585 4.48826 6.82284 4.48826 7.62778 4.48828H7.66914H17.8691Z" fill="black" style="fill:black;fill-opacity:1;"/>
</svg>
