<svg width="30" height="30" viewBox="0 0 30 30" fill="none" xmlns="http://www.w3.org/2000/svg">
<path fill-rule="evenodd" clip-rule="evenodd" d="M7 4C6.44772 4 6 4.44772 6 5V25C6 25.5523 6.44772 26 7 26H23C23.5523 26 24 25.5523 24 25V12H17C16.4477 12 16 11.5523 16 11V4H7ZM18 5.41421L22.5858 10H18V5.41421ZM4 5C4 3.34315 5.34315 2 7 2H17C17.2652 2 17.5196 2.10536 17.7071 2.29289L25.7071 10.2929C25.8946 10.4804 26 10.7348 26 11V25C26 26.6569 24.6569 28 23 28H7C5.34315 28 4 26.6569 4 25V5Z" fill="black"/>
</svg>
