<svg width="30" height="30" viewBox="0 0 30 30" fill="none" xmlns="http://www.w3.org/2000/svg">
<path fill-rule="evenodd" clip-rule="evenodd" d="M26 4H8V5.99951H22C23.1046 5.99951 24 6.89494 24 7.99951V22H26V4ZM6 4V5.99951H4C2.89543 5.99951 2 6.89494 2 7.99951V25.9995C2 27.1041 2.89543 27.9995 4 27.9995H22C23.1046 27.9995 24 27.1041 24 25.9995V24H26C27.1046 24 28 23.1046 28 22V4C28 2.89543 27.1046 2 26 2H8C6.89543 2 6 2.89543 6 4ZM22 25.9995L4 26V8L22 7.99951V25.9995Z" fill="black"/>
<path fill-rule="evenodd" d="M4 8L22 7.99951L22 25.9995L4 26V8ZM5.6 10.5A0.9 0.9 0 1 1 7.4 10.5A0.9 0.9 0 1 1 5.6 10.5ZM9.1 10.5A0.9 0.9 0 1 1 10.9 10.5A0.9 0.9 0 1 1 9.1 10.5ZM12.6 10.5A0.9 0.9 0 1 1 14.4 10.5A0.9 0.9 0 1 1 12.6 10.5ZM16.1 10.5A0.9 0.9 0 1 1 17.9 10.5A0.9 0.9 0 1 1 16.1 10.5ZM19.6 10.5A0.9 0.9 0 1 1 21.4 10.5A0.9 0.9 0 1 1 19.6 10.5ZM5.6 13.5A0.9 0.9 0 1 1 7.4 13.5A0.9 0.9 0 1 1 5.6 13.5ZM9.1 13.5A0.9 0.9 0 1 1 10.9 13.5A0.9 0.9 0 1 1 9.1 13.5ZM12.6 13.5A0.9 0.9 0 1 1 14.4 13.5A0.9 0.9 0 1 1 12.6 13.5ZM16.1 13.5A0.9 0.9 0 1 1 17.9 13.5A0.9 0.9 0 1 1 16.1 13.5ZM19.6 13.5A0.9 0.9 0 1 1 21.4 13.5A0.9 0.9 0 1 1 19.6 13.5ZM5.6 16.5A0.9 0.9 0 1 1 7.4 16.5A0.9 0.9 0 1 1 5.6 16.5ZM9.1 16.5A0.9 0.9 0 1 1 10.9 16.5A0.9 0.9 0 1 1 9.1 16.5ZM12.6 16.5A0.9 0.9 0 1 1 14.4 16.5A0.9 0.9 0 1 1 12.6 16.5ZM16.1 16.5A0.9 0.9 0 1 1 17.9 16.5A0.9 0.9 0 1 1 16.1 16.5ZM19.6 16.5A0.9 0.9 0 1 1 21.4 16.5A0.9 0.9 0 1 1 19.6 16.5ZM5.6 19.5A0.9 0.9 0 1 1 7.4 19.5A0.9 0.9 0 1 1 5.6 19.5ZM9.1 19.5A0.9 0.9 0 1 1 10.9 19.5A0.9 0.9 0 1 1 9.1 19.5ZM12.6 19.5A0.9 0.9 0 1 1 14.4 19.5A0.9 0.9 0 1 1 12.6 19.5ZM16.1 19.5A0.9 0.9 0 1 1 17.9 19.5A0.9 0.9 0 1 1 16.1 19.5ZM19.6 19.5A0.9 0.9 0 1 1 21.4 19.5A0.9 0.9 0 1 1 19.6 19.5ZM5.6 22.5A0.9 0.9 0 1 1 7.4 22.5A0.9 0.9 0 1 1 5.6 22.5ZM9.1 22.5A0.9 0.9 0 1 1 10.9 22.5A0.9 0.9 0 1 1 9.1 22.5ZM12.6 22.5A0.9 0.9 0 1 1 14.4 22.5A0.9 0.9 0 1 1 12.6 22.5ZM16.1 22.5A0.9 0.9 0 1 1 17.9 22.5A0.9 0.9 0 1 1 16.1 22.5ZM19.6 22.5A0.9 0.9 0 1 1 21.4 22.5A0.9 0.9 0 1 1 19.6 22.5Z" fill="black" fill-opacity="0.68"/>
</svg>
