<svg width="30" height="30" viewBox="0 0 30 30" fill="none" xmlns="http://www.w3.org/2000/svg">
<path fill-rule="evenodd" clip-rule="evenodd" d="M26 4H8V5.99951H22C23.1046 5.99951 24 6.89494 24 7.99951V22H26V4ZM6 4V5.99951H4C2.89543 5.99951 2 6.89494 2 7.99951V25.9995C2 27.1041 2.89543 27.9995 4 27.9995H22C23.1046 27.9995 24 27.1041 24 25.9995V24H26C27.1046 24 28 23.1046 28 22V4C28 2.89543 27.1046 2 26 2H8C6.89543 2 6 2.89543 6 4ZM22 25.9995L4 26V8L22 7.99951V25.9995Z" fill="black"/>
<path fill-rule="evenodd" d="M4 8L22 7.99951L22 25.9995L4 26V8ZM4.375 10.375L6.625 8.625L6.625 9.375L4.375 11.125L4.375 10.375ZM8.375 10.375L10.625 8.625L10.625 9.375L8.375 11.125L8.375 10.375ZM12.375 10.375L14.625 8.625L14.625 9.375L12.375 11.125L12.375 10.375ZM16.375 10.375L18.625 8.625L18.625 9.375L16.375 11.125L16.375 10.375ZM20.375 10.375L22.625 8.625L22.625 9.375L20.375 11.125L20.375 10.375ZM2.375 14.375L4.625 12.625L4.625 13.375L2.375 15.125L2.375 14.375ZM6.375 14.375L8.625 12.625L8.625 13.375L6.375 15.125L6.375 14.375ZM10.375 14.375L12.625 12.625L12.625 13.375L10.375 15.125L10.375 14.375ZM14.375 14.375L16.625 12.625L16.625 13.375L14.375 15.125L14.375 14.375ZM18.375 14.375L20.625 12.625L20.625 13.375L18.375 15.125L18.375 14.375ZM2.375 18.375L4.625 16.625L4.625 17.375L2.375 19.125L2.375 18.375ZM6.375 18.375L8.625 16.625L8.625 17.375L6.375 19.125L6.375 18.375ZM10.375 18.375L12.625 16.625L12.625 17.375L10.375 19.125L10.375 18.375ZM14.375 18.375L16.625 16.625L16.625 17.375L14.375 19.125L14.375 18.375ZM18.375 18.375L20.625 16.625L20.625 17.375L18.375 19.125L18.375 18.375ZM2.375 22.375L4.625 20.625L4.625 21.375L2.375 23.125L2.375 22.375ZM6.375 22.375L8.625 20.625L8.625 21.375L6.375 23.125L6.375 22.375ZM10.375 22.375L12.625 20.625L12.625 21.375L10.375 23.125L10.375 22.375ZM14.375 22.375L16.625 20.625L16.625 21.375L14.375 23.125L14.375 22.375ZM18.375 22.375L20.625 20.625L20.625 21.375L18.375 23.125L18.375 22.375ZM2.375 26.375L4.625 24.625L4.625 25.375L2.375 27.125L2.375 26.375ZM6.375 26.375L8.625 24.625L8.625 25.375L6.375 27.125L6.375 26.375ZM10.375 26.375L12.625 24.625L12.625 25.375L10.375 27.125L10.375 26.375ZM14.375 26.375L16.625 24.625L16.625 25.375L14.375 27.125L14.375 26.375ZM18.375 26.375L20.625 24.625L20.625 25.375L18.375 27.125L18.375 26.375Z" fill="black" fill-opacity="0.68"/>
</svg>
