<svg width="30" height="30" viewBox="0 0 30 30" fill="none" xmlns="http://www.w3.org/2000/svg">
<path fill-rule="evenodd" clip-rule="evenodd" d="M26 4H8V5.99951H22C23.1046 5.99951 24 6.89494 24 7.99951V22H26V4ZM6 4V5.99951H4C2.89543 5.99951 2 6.89494 2 7.99951V25.9995C2 27.1041 2.89543 27.9995 4 27.9995H22C23.1046 27.9995 24 27.1041 24 25.9995V24H26C27.1046 24 28 23.1046 28 22V4C28 2.89543 27.1046 2 26 2H8C6.89543 2 6 2.89543 6 4ZM22 25.9995L4 26V8L22 7.99951V25.9995Z" fill="black"/>
<path d="M4 8L22 7.99951V25.9995L4 26V8Z" fill="black" fill-opacity="0.32"/>
</svg>
