<svg width="30" height="30" viewBox="0 0 30 30" fill="none" xmlns="http://www.w3.org/2000/svg">
<path fill-rule="evenodd" clip-rule="evenodd" d="M8 4H26V22H24V7.99951C24 6.89494 23.1046 5.99951 22 5.99951H8V4ZM6 5.99951V4C6 2.89543 6.89543 2 8 2H26C27.1046 2 28 2.89543 28 4V22C28 23.1046 27.1046 24 26 24H24V25.9995C24 27.1041 23.1046 27.9995 22 27.9995H4C2.89543 27.9995 2 27.1041 2 25.9995V7.99951C2 6.89494 2.89543 5.99951 4 5.99951H6ZM22 24V25.9995H4L4 7.99951H6V22C6 23.1046 6.89543 24 8 24H22ZM22 22H8L8 7.99951H22V22Z" fill="black"/>
</svg>
