<svg width="30" height="30" viewBox="0 0 30 30" fill="none" xmlns="http://www.w3.org/2000/svg">
<path fill-rule="evenodd" clip-rule="evenodd" d="M26 4H8V5.99951H22C23.1046 5.99951 24 6.89494 24 7.99951V22H26V4ZM6 4V5.99951H4C2.89543 5.99951 2 6.89494 2 7.99951V25.9995C2 27.1041 2.89543 27.9995 4 27.9995H22C23.1046 27.9995 24 27.1041 24 25.9995V24H26C27.1046 24 28 23.1046 28 22V4C28 2.89543 27.1046 2 26 2H8C6.89543 2 6 2.89543 6 4ZM22 25.9995L4 26V8L22 7.99951V25.9995Z" fill="black"/>
<path fill-rule="evenodd" d="M4 8L22 7.99951L22 25.9995L4 26V8ZM8.375 11L9.625 11L9.625 14L8.375 14L8.375 11ZM7.5 11.875L10.5 11.875L10.5 13.125L7.5 13.125L7.5 11.875ZM16.375 11L17.625 11L17.625 14L16.375 14L16.375 11ZM15.5 11.875L18.5 11.875L18.5 13.125L15.5 13.125L15.5 11.875ZM8.375 19L9.625 19L9.625 22L8.375 22L8.375 19ZM7.5 19.875L10.5 19.875L10.5 21.125L7.5 21.125L7.5 19.875ZM16.375 19L17.625 19L17.625 22L16.375 22L16.375 19ZM15.5 19.875L18.5 19.875L18.5 21.125L15.5 21.125L15.5 19.875Z" fill="black" fill-opacity="0.68"/>
</svg>
