<svg width="30" height="30" viewBox="0 0 30 30" fill="none" xmlns="http://www.w3.org/2000/svg">
<path fill-rule="evenodd" clip-rule="evenodd" d="M26 4H8V5.99951H22C23.1046 5.99951 24 6.89494 24 7.99951V22H26V4ZM6 4V5.99951H4C2.89543 5.99951 2 6.89494 2 7.99951V25.9995C2 27.1041 2.89543 27.9995 4 27.9995H22C23.1046 27.9995 24 27.1041 24 25.9995V24H26C27.1046 24 28 23.1046 28 22V4C28 2.89543 27.1046 2 26 2H8C6.89543 2 6 2.89543 6 4ZM22 25.9995L4 26V8L22 7.99951V25.9995Z" fill="black"/>
<path fill-rule="evenodd" d="M4 8L22 7.99951L22 25.9995L4 26V8ZM3.25 13.25L4 14L13 9L22 14L21.25 13.25L12.25 9.25L3.25 13.25ZM3.25 19.25L4 20L13 15L22 20L21.25 19.25L12.25 15.25L3.25 19.25ZM3.25 25.25L4 26L13 21L22 26L21.25 25.25L12.25 21.25L3.25 25.25Z" fill="black" fill-opacity="0.68"/>
</svg>
