<svg width="30" height="30" viewBox="0 0 30 30" fill="none" xmlns="http://www.w3.org/2000/svg">
<path d="M19 15C19 17.2091 17.2091 19 15 19C12.7909 19 11 17.2091 11 15C11 12.7909 12.7909 11 15 11C17.2091 11 19 12.7909 19 15Z" fill="black"/>
<path d="M26 15C26 16.7708 24.9234 18.4963 22.9306 19.8248C20.9448 21.1487 18.1438 22 15 22C11.8562 22 9.05522 21.1487 7.06942 19.8248C5.07663 18.4963 4 16.7708 4 15C4 13.2292 5.07663 11.5037 7.06942 10.1752C9.05522 8.85133 11.8562 8 15 8C18.1438 8 20.9448 8.85133 22.9306 10.1752C24.9234 11.5037 26 13.2292 26 15Z" stroke="black" stroke-width="2"/>
</svg>
