<svg width="30" height="30" viewBox="0 0 30 30" fill="none" xmlns="http://www.w3.org/2000/svg">
<mask id="path-1-inside-1_2338_126559" fill="white">
<path fill-rule="evenodd" clip-rule="evenodd" d="M23.3232 12.3709C26.7125 12.788 29.3367 15.6771 29.3367 19.1792C29.3367 22.9679 26.2653 26.0393 22.4766 26.0393H7.52351C3.73481 26.0393 0.663452 22.9679 0.663452 19.1792C0.663452 15.6772 3.28755 12.7881 6.67673 12.3709C6.78558 7.86748 10.4703 4.25024 15 4.25024C19.5296 4.25024 23.2143 7.86747 23.3232 12.3709Z"/>
</mask>
<path d="M23.3232 12.3709L21.3238 12.4192L21.3655 14.145L23.0789 14.3559L23.3232 12.3709ZM6.67673 12.3709L6.92109 14.3559L8.63443 14.145L8.67615 12.4192L6.67673 12.3709ZM23.0789 14.3559C25.478 14.6511 27.3367 16.6996 27.3367 19.1792H31.3367C31.3367 14.6546 27.9469 10.9248 23.5675 10.3858L23.0789 14.3559ZM27.3367 19.1792C27.3367 21.8634 25.1607 24.0393 22.4766 24.0393V28.0393C27.3699 28.0393 31.3367 24.0725 31.3367 19.1792H27.3367ZM22.4766 24.0393H7.52351V28.0393H22.4766V24.0393ZM7.52351 24.0393C4.83938 24.0393 2.66345 21.8634 2.66345 19.1792H-1.33655C-1.33655 24.0725 2.63024 28.0393 7.52351 28.0393V24.0393ZM2.66345 19.1792C2.66345 16.6997 4.52205 14.6512 6.92109 14.3559L6.43237 10.3859C2.05304 10.925 -1.33655 14.6547 -1.33655 19.1792H2.66345ZM8.67615 12.4192C8.75882 8.99859 11.5587 6.25024 15 6.25024V2.25024C9.38196 2.25024 4.81233 6.73637 4.67731 12.3226L8.67615 12.4192ZM15 6.25024C18.4412 6.25024 21.2411 8.99858 21.3238 12.4192L25.3226 12.3225C25.1875 6.73636 20.6179 2.25024 15 2.25024V6.25024Z" fill="black" mask="url(#path-1-inside-1_2338_126559)"/>
</svg>
