<svg
   width="30"
   height="30"
   viewBox="0 0 30 30"
   fill="none"
   xmlns="http://www.w3.org/2000/svg">
  <path
     d="m 17.440771,4.3544373 c -0.49706,0 -0.9,0.40294 -0.9,0.9 0,0.49706 0.40294,0.9 0.9,0.9 h 2.3913 v 8.1996797 h -9.8 V 6.1544373 h 2.4087 c 0.49706,0 0.9,-0.40294 0.9,-0.9 0,-0.49706 -0.40294,-0.9 -0.9,-0.9 H 5.4407707 c -0.49706,0 -0.9,0.40294 -0.9,0.9 0,0.49706 0.40294,0.9 0.9,0.9 h 2.3913 V 24.354437 h -2.3913 c -0.49706,0 -0.9,0.403 -0.9,0.9 0,0.497 0.40294,0.9 0.9,0.9 h 7.0000003 c 0.49706,0 0.9,-0.403 0.9,-0.9 0,-0.497 -0.40294,-0.9 -0.9,-0.9 h -2.4087 v -8.20032 h 9.8 v 8.20032 h -2.3913 c -0.49706,0 -0.9,0.403 -0.9,0.9 0,0.497 0.40294,0.9 0.9,0.9 h 6.99996 c 0.497,0 0.9,-0.403 0.9,-0.9 0,-0.497 -0.403,-0.9 -0.9,-0.9 h -2.4086 V 6.1544373 h 2.4086 c 0.497,0 0.9,-0.40294 0.9,-0.9 0,-0.49706 -0.403,-0.9 -0.9,-0.9 z"
     fill="currentColor"
     fill-rule="evenodd"
     clip-rule="evenodd" />
</svg>
