<svg width="30" height="30" viewBox="0 0 30 30" fill="none" xmlns="http://www.w3.org/2000/svg">
<g clip-path="url(#clip0_4572_193)">
<path fill-rule="evenodd" clip-rule="evenodd" d="M17.5086 4.10034C17.0116 4.10034 16.6086 4.50328 16.6086 5.00034C16.6086 5.4974 17.0116 5.90034 17.5086 5.90034H19.8999V14.1H10.0999V5.90034H12.5086C13.0057 5.90034 13.4086 5.4974 13.4086 5.00034C13.4086 4.50328 13.0057 4.10034 12.5086 4.10034H5.50864C5.01158 4.10034 4.60864 4.50328 4.60864 5.00034C4.60864 5.4974 5.01158 5.90034 5.50864 5.90034H7.89994V24.1003H5.50864C5.01158 24.1003 4.60864 24.5033 4.60864 25.0003C4.60864 25.4973 5.01158 25.9003 5.50864 25.9003H12.5086C13.0057 25.9003 13.4086 25.4973 13.4086 25.0003C13.4086 24.5033 13.0057 24.1003 12.5086 24.1003H10.0999V15.9H19.8999V24.1003H17.5086C17.0116 24.1003 16.6086 24.5033 16.6086 25.0003C16.6086 25.4973 17.0116 25.9003 17.5086 25.9003H24.5086C25.0056 25.9003 25.4086 25.4973 25.4086 25.0003C25.4086 24.5033 25.0056 24.1003 24.5086 24.1003H22.1V5.90034H24.5086C25.0056 5.90034 25.4086 5.4974 25.4086 5.00034C25.4086 4.50328 25.0056 4.10034 24.5086 4.10034H17.5086Z" fill="black" style="fill:black;fill-opacity:1;"/>
</g>
<defs>
<clipPath id="clip0_4572_193">
<rect width="30" height="30" fill="white" style="fill:white;fill-opacity:1;"/>
</clipPath>
</defs>
</svg>
