<svg
   width="30"
   height="30"
   viewBox="0 0 30 30"
   fill="none"
   xmlns="http://www.w3.org/2000/svg">
  <path
     d="m 14.134837,0.3322842 c 0.443045,-0.4430456 1.161337,-0.4430456 1.604382,0 l 6.302572,6.3025718 c 0.442945,0.4430456 0.442945,1.1613371 0,1.6043826 -0.442945,0.4430204 -1.161337,0.4430204 -1.604382,0 L 16.071491,3.8732959 V 26.126972 l 4.365918,-4.365918 c 0.443045,-0.442945 1.161437,-0.442945 1.604382,0 0.442945,0.442945 0.442945,1.161186 0,1.604383 l -6.302572,6.302572 c -0.212749,0.212774 -0.501306,0.332271 -0.802191,0.332271 -0.300885,0 -0.589442,-0.119497 -0.802191,-0.332271 L 7.8322653,23.365437 c -0.4430204,-0.443197 -0.4430204,-1.161438 0,-1.604383 0.4430456,-0.442945 1.1613371,-0.442945 1.6043827,0 l 4.365917,4.365918 V 3.8732959 L 9.436648,8.2392386 c -0.4430456,0.4430204 -1.1613371,0.4430204 -1.6043827,0 -0.4430204,-0.4430455 -0.4430204,-1.161337 0,-1.6043826 z"
     fill="currentColor"
     fill-rule="evenodd"
     clip-rule="evenodd"/>
</svg>
