<svg
   width="30"
   height="30"
   viewBox="0 0 30 30"
   fill="none"
   xmlns="http://www.w3.org/2000/svg">
  <path
     d="M 3.4615385,0 H 26.538462 C 28.450154,0 30,1.5497769 30,3.4615385 V 26.538462 C 30,28.450154 28.450154,30 26.538462,30 H 3.4615385 C 1.5497769,30 0,28.450154 0,26.538462 V 3.4615385 C 0,1.5497769 1.5497769,0 3.4615385,0 Z m 0,2.3076923 c -0.6372462,0 -1.1538462,0.5166 -1.1538462,1.1538462 V 16.992923 l 3.8810769,-3.881077 c 0.1991308,-0.19913 0.4705846,-0.308838 0.7521693,-0.303992 0.2815615,0.0048 0.5490923,0.123808 0.7412538,0.329677 l 8.1798467,8.7627 6.480576,-6.480692 c 0.405462,-0.405531 1.063154,-0.405531 1.468616,0 l 3.881077,3.881076 V 3.4615385 c 0,-0.6372462 -0.516693,-1.1538462 -1.153846,-1.1538462 z M 2.3076923,26.538462 v -6.608308 l 4.5897,-4.5897 8.1743767,8.7567 3.253916,3.595154 H 3.4615385 c -0.6372462,0 -1.1538462,-0.516693 -1.1538462,-1.153846 z M 26.538462,27.692308 H 21.126923 L 17.269292,23.43 l 5.807631,-5.807538 4.615385,4.615384 v 4.300616 c 0,0.637153 -0.516693,1.153846 -1.153846,1.153846 z m -13.5018,-17.307692 c 0,-1.084316 0.879023,-1.9633391 1.963338,-1.9633391 1.084316,0 1.963339,0.8790231 1.963339,1.9633391 0,1.084315 -0.879023,1.963338 -1.963339,1.963338 -1.084315,0 -1.963338,-0.879023 -1.963338,-1.963338 z M 15,6.3443538 c -2.231377,0 -4.040261,1.8088847 -4.040261,4.0402622 0,2.231376 1.808884,4.040261 4.040261,4.040261 2.231377,0 4.040262,-1.808885 4.040262,-4.040261 0,-2.2313775 -1.808885,-4.0402622 -4.040262,-4.0402622 z"
     fill="currentColor"
     fill-rule="evenodd"
     clip-rule="evenodd" />
</svg>
