<svg width="30" height="30" viewBox="0 0 30 30" fill="none" xmlns="http://www.w3.org/2000/svg">
<path fill-rule="evenodd" clip-rule="evenodd" d="M11.35 6.90002C11.35 6.40295 11.7529 6 12.25 6H21.2501C21.7473 6 22.1501 6.40295 22.1501 6.90002C22.1501 7.39709 21.7473 7.80003 21.2501 7.80003H18.012L14.462 22H17.7501C18.2472 22 18.6501 22.403 18.6501 22.9C18.6501 23.3972 18.2472 23.8 17.7501 23.8H8.74993C8.25286 23.8 7.84991 23.3972 7.84991 22.9C7.84991 22.403 8.25286 22 8.74993 22H11.9881L15.5381 7.80003H12.25C11.7529 7.80003 11.35 7.39709 11.35 6.90002Z" fill="black" style="fill:black;fill-opacity:1;"/>
</svg>
