<svg width="30" height="30" viewBox="0 0 30 30" fill="none" xmlns="http://www.w3.org/2000/svg">
<path fill-rule="evenodd" clip-rule="evenodd" d="M3.25 10.5C4.07842 10.5 4.75 9.82842 4.75 9C4.75 8.17158 4.07842 7.5 3.25 7.5C2.42158 7.5 1.75 8.17158 1.75 9C1.75 9.82842 2.42158 10.5 3.25 10.5ZM8.25 9C8.25 8.44772 8.69772 8 9.25 8H27.25C27.8022 8 28.25 8.44772 28.25 9C28.25 9.55228 27.8022 10 27.25 10H9.25C8.69772 10 8.25 9.55228 8.25 9ZM9.25 14C8.69772 14 8.25 14.4477 8.25 15C8.25 15.5523 8.69772 16 9.25 16H27.25C27.8022 16 28.25 15.5523 28.25 15C28.25 14.4477 27.8022 14 27.25 14H9.25ZM9.25 20C8.69772 20 8.25 20.4478 8.25 21C8.25 21.5522 8.69772 22 9.25 22H27.25C27.8022 22 28.25 21.5522 28.25 21C28.25 20.4478 27.8022 20 27.25 20H9.25ZM4.75 15C4.75 15.8284 4.07842 16.5 3.25 16.5C2.42158 16.5 1.75 15.8284 1.75 15C1.75 14.1716 2.42158 13.5 3.25 13.5C4.07842 13.5 4.75 14.1716 4.75 15ZM3.25 22.5C4.07842 22.5 4.75 21.8284 4.75 21C4.75 20.1716 4.07842 19.5 3.25 19.5C2.42158 19.5 1.75 20.1716 1.75 21C1.75 21.8284 2.42158 22.5 3.25 22.5Z" fill="black" style="fill:black;fill-opacity:1;"/>
</svg>
