<svg width="30" height="30" viewBox="0 0 30 30" fill="none" xmlns="http://www.w3.org/2000/svg">
<path d="M15.0004 26.4214V7.55527M15.0004 7.55527C15.0004 3.41159 22.0565 3.45694 23.9351 3.54244C24.1947 3.55425 24.39 3.76935 24.39 4.02916L24.3889 21.9503C24.3889 22.2431 24.1427 22.4756 23.8502 22.4635C21.855 22.3812 15.0008 22.3957 15.0008 26.48C15.0008 22.3956 8.1438 22.3812 6.14812 22.4635C5.8556 22.4756 5.60938 22.243 5.60939 21.9503L5.60975 4.02891C5.60976 3.7691 5.80506 3.55403 6.0646 3.54222C7.9433 3.45677 15.0004 3.41154 15.0004 7.55527Z" stroke="black" style="stroke:black;stroke-opacity:1;" stroke-width="2"/>
<path d="M6 5.52051H2.5C2.22386 5.52051 2 5.74437 2 6.02051V25.0256C2 25.3018 2.22386 25.5256 2.5 25.5256H27.5C27.7761 25.5256 28 25.3018 28 25.0256V6.02051C28 5.74437 27.7761 5.52051 27.5 5.52051H24" stroke="black" style="stroke:black;stroke-opacity:1;" stroke-width="2"/>
</svg>
