<svg width="30" height="30" viewBox="0 0 30 30" fill="none" xmlns="http://www.w3.org/2000/svg">
<path d="M2 1H12C12.5523 1 13 1.44772 13 2V12C13 12.5523 12.5523 13 12 13H2C1.44772 13 1 12.5523 1 12V2C1 1.44772 1.44772 1 2 1ZM2 17H12C12.5523 17 13 17.4477 13 18V28C13 28.5523 12.5523 29 12 29H2C1.44772 29 1 28.5523 1 28V18C1 17.4477 1.44772 17 2 17ZM18 1H28C28.5523 1 29 1.44772 29 2V12C29 12.5523 28.5523 13 28 13H18C17.4477 13 17 12.5523 17 12V2C17 1.44772 17.4477 1 18 1ZM18 17H28C28.5523 17 29 17.4477 29 18V28C29 28.5523 28.5523 29 28 29H18C17.4477 29 17 28.5523 17 28V18C17 17.4477 17.4477 17 18 17Z" stroke="black" stroke-width="2"/>
</svg>
