<svg width="30" height="30" viewBox="0 0 30 30" fill="none" xmlns="http://www.w3.org/2000/svg">
<path fill-rule="evenodd" clip-rule="evenodd" d="M7 4C6.44772 4 6 4.44772 6 5V25C6 25.5523 6.44771 26 7 26H23C23.5523 26 24 25.5523 24 25V9.41421L18.5858 4H7ZM4 5C4 3.34315 5.34315 2 7 2H18.5858C19.1162 2 19.6249 2.21071 20 2.58579L25.4142 8C25.7893 8.37507 26 8.88378 26 9.41421V25C26 26.6569 24.6569 28 23 28H7C5.34315 28 4 26.6569 4 25V5Z" fill="black"/>
<path fill-rule="evenodd" clip-rule="evenodd" d="M8 9C8 8.44772 8.44772 8 9 8H15C15.5523 8 16 8.44772 16 9C16 9.55228 15.5523 10 15 10H9C8.44772 10 8 9.55228 8 9ZM8 15C8 14.4477 8.44772 14 9 14H21C21.5523 14 22 14.4477 22 15C22 15.5523 21.5523 16 21 16H9C8.44772 16 8 15.5523 8 15ZM8 21C8 20.4477 8.44772 20 9 20H21C21.5523 20 22 20.4477 22 21C22 21.5523 21.5523 22 21 22H9C8.44772 22 8 21.5523 8 21Z" fill="black"/>
</svg>
