<svg width="30" height="30" viewBox="0 0 30 30" fill="none" xmlns="http://www.w3.org/2000/svg">
<circle cx="12.4077" cy="12.4077" r="9.40773" stroke="black" stroke-width="2"/>
<path d="M27.0801 25.2404C27.5881 25.7484 27.5881 26.5721 27.0801 27.0802V27.0802C26.572 27.5883 25.7483 27.5883 25.2402 27.0802L18.8888 20.7288C18.3861 20.2261 18.38 19.413 18.8752 18.9028V18.9028C19.3809 18.3817 20.2152 18.3755 20.7287 18.8889L27.0801 25.2404Z" fill="black"/>
<path d="M7.90771 12.4077C7.90771 14.893 9.92243 16.9077 12.4077 16.9077C14.893 16.9077 16.9077 14.893 16.9077 12.4077C16.9077 9.92243 14.893 7.90771 12.4077 7.90771" stroke="black" stroke-width="2" stroke-linecap="round"/>
<circle cx="9.21631" cy="9.15527" r="1" fill="black"/>
</svg>
