<svg width="30" height="30" viewBox="0 0 30 30" fill="none" xmlns="http://www.w3.org/2000/svg">
<path d="M14.4032 7.21699C14.239 7.34471 13.9998 7.22768 13.9998 7.01965V5.03056C10.0371 5.03059 7.63043 5.75799 6.17893 7.2095C4.7274 8.66103 4 11.0678 4 15.0306C4 15.5828 3.55228 16.0306 3 16.0306C2.44772 16.0306 2 15.5828 2 15.0306C2 10.9182 2.73503 7.82497 4.76472 5.79528C6.79436 3.76564 9.88751 3.03059 13.9998 3.03056V1.04197C13.9998 0.83393 14.239 0.716906 14.4032 0.844629L18.246 3.83347C18.3747 3.93356 18.3747 4.12806 18.246 4.22815L14.4032 7.21699Z" fill="black"/>
<path fill-rule="evenodd" clip-rule="evenodd" d="M26.5 9.03059C27.3284 9.03059 28 9.70217 28 10.5306V27.5306C28 28.359 27.3284 29.0306 26.5 29.0306H9.5C8.67157 29.0306 8 28.359 8 27.5306V10.5306C8 9.70217 8.67157 9.03059 9.5 9.03059H26.5ZM26 11.0306V27.0306H10V11.0306H26Z" fill="black"/>
</svg>
