<svg width="30" height="30" viewBox="0 0 30 30" fill="none" xmlns="http://www.w3.org/2000/svg">
<path d="M10.7502 13.7004C11.7167 13.7004 12.5002 12.9168 12.5002 11.9504C12.5002 10.9841 11.7167 10.2004 10.7502 10.2004C9.78375 10.2004 9.00024 10.9841 9.00024 11.9504C9.00024 12.9168 9.78375 13.7004 10.7502 13.7004Z" fill="black"/>
<path d="M19.2502 13.7004C20.2167 13.7004 21.0002 12.9168 21.0002 11.9504C21.0002 10.9841 20.2167 10.2004 19.2502 10.2004C18.2838 10.2004 17.5002 10.9841 17.5002 11.9504C17.5002 12.9168 18.2838 13.7004 19.2502 13.7004Z" fill="black"/>
<path d="M20.7453 19.0002C19.4803 20.8137 17.3787 22.0002 14.9999 22.0002C12.6212 22.0002 10.5196 20.8137 9.25464 19.0002M15 27.2957C21.7907 27.2957 27.2957 21.7907 27.2957 15C27.2957 8.20931 21.7907 2.70435 15 2.70435C8.20931 2.70435 2.70435 8.20931 2.70435 15C2.70435 21.7907 8.20931 27.2957 15 27.2957ZM10.7502 13.7004C11.7167 13.7004 12.5002 12.9168 12.5002 11.9504C12.5002 10.9841 11.7167 10.2004 10.7502 10.2004C9.78375 10.2004 9.00024 10.9841 9.00024 11.9504C9.00024 12.9168 9.78375 13.7004 10.7502 13.7004ZM19.2502 13.7004C20.2167 13.7004 21.0002 12.9168 21.0002 11.9504C21.0002 10.9841 20.2167 10.2004 19.2502 10.2004C18.2838 10.2004 17.5002 10.9841 17.5002 11.9504C17.5002 12.9168 18.2838 13.7004 19.2502 13.7004Z" stroke="black" stroke-width="2" stroke-linecap="round"/>
</svg>
