<svg width="30" height="30" viewBox="0 0 30 30" fill="none" xmlns="http://www.w3.org/2000/svg">
<path d="M11 15C11 17.2091 9.20914 19 7 19C4.79086 19 3 17.2091 3 15C3 12.7909 4.79086 11 7 11C9.20914 11 11 12.7909 11 15ZM27 7C27 9.20914 25.2091 11 23 11C20.7909 11 19 9.20914 19 7C19 4.79086 20.7909 3 23 3C25.2091 3 27 4.79086 27 7ZM27 23C27 25.2091 25.2091 27 23 27C20.7909 27 19 25.2091 19 23C19 20.7909 20.7909 19 23 19C25.2091 19 27 20.7909 27 23Z" stroke="black" stroke-width="2"/>
<path d="M19 21L11 16M19 9L11 14" stroke="black" stroke-width="2"/>
</svg>
