<svg width="30" height="30" viewBox="0 0 30 30" fill="none" xmlns="http://www.w3.org/2000/svg">
<path fill-rule="evenodd" clip-rule="evenodd" d="M15.5 3C15.5 2.81062 15.393 2.63749 15.2236 2.55279C15.0542 2.46809 14.8515 2.48637 14.7 2.6L6.83333 8.5H2C1.17157 8.5 0.5 9.17158 0.5 10V20C0.5 20.8284 1.17157 21.5 2 21.5H6.83333L14.7 27.4C14.8515 27.5136 15.0542 27.5319 15.2236 27.4472C15.393 27.3625 15.5 27.1894 15.5 27V3ZM7.3 9.4L14.5 4V26L7.3 20.6C7.21345 20.5351 7.10819 20.5 7 20.5H2C1.72386 20.5 1.5 20.2761 1.5 20V10C1.5 9.72386 1.72386 9.5 2 9.5H7C7.10819 9.5 7.21345 9.46491 7.3 9.4ZM19.833 10.3331C19.7107 10.1492 19.4624 10.0993 19.2784 10.2217C19.0945 10.344 19.0446 10.5923 19.167 10.7763C20.8637 13.3265 20.8637 16.6734 19.167 19.2236C19.0446 19.4076 19.0945 19.6559 19.2784 19.7782C19.4624 19.9006 19.7107 19.8507 19.833 19.6668C21.7084 16.8481 21.7084 13.1518 19.833 10.3331Z" fill="black"/>
</svg>
