<svg width="30" height="30" viewBox="0 0 30 30" fill="none" xmlns="http://www.w3.org/2000/svg">
<path fill-rule="evenodd" clip-rule="evenodd" d="M14.7197 2.55085C14.8912 2.63475 15 2.80904 15 3V27C15 27.191 14.8912 27.3653 14.7197 27.4492C14.5481 27.5331 14.3438 27.5119 14.193 27.3947L6.61416 21.5H2C1.17157 21.5 0.5 20.8284 0.5 20V10C0.5 9.17158 1.17157 8.5 2 8.5H6.61416L14.193 2.60533C14.3438 2.48809 14.5481 2.46694 14.7197 2.55085ZM14 4.02232L7.09268 9.39468C7.00492 9.46294 6.8969 9.5 6.78571 9.5H2C1.72386 9.5 1.5 9.72386 1.5 10V20C1.5 20.2761 1.72386 20.5 2 20.5H6.78571C6.8969 20.5 7.00492 20.5371 7.09268 20.6053L14 25.9777V4.02232ZM20.7783 8.0291C20.9622 7.90673 21.2105 7.95663 21.3329 8.14055C24.0892 12.2833 24.0892 17.7166 21.3329 21.8594C21.2105 22.0433 20.9622 22.0932 20.7783 21.9708C20.5944 21.8485 20.5445 21.6002 20.6669 21.4162C23.2445 17.5419 23.2445 12.458 20.6669 8.5837C20.5445 8.39977 20.5944 8.15147 20.7783 8.0291ZM25.0518 3.11946C24.9089 2.95092 24.6565 2.93007 24.488 3.07288C24.3194 3.2157 24.2986 3.4681 24.4414 3.63665C29.9863 10.1804 29.9863 19.8196 24.4414 26.3634C24.2986 26.5319 24.3194 26.7843 24.488 26.9271C24.6565 27.0699 24.9089 27.0491 25.0518 26.8805C30.8495 20.0384 30.8495 9.96162 25.0518 3.11946Z" fill="black"/>
</svg>
