<svg width="30" height="30" viewBox="0 0 30 30" fill="none" xmlns="http://www.w3.org/2000/svg">
<path fill-rule="evenodd" clip-rule="evenodd" d="M15.2236 2.55279C15.393 2.63749 15.5 2.81062 15.5 3V27C15.5 27.1894 15.393 27.3625 15.2236 27.4472C15.0542 27.5319 14.8515 27.5136 14.7 27.4L6.83333 21.5H2C1.17157 21.5 0.5 20.8284 0.5 20V10C0.5 9.17158 1.17157 8.5 2 8.5H6.83333L14.7 2.6C14.8515 2.48637 15.0542 2.46809 15.2236 2.55279ZM14.5 4L7.3 9.4C7.21345 9.46491 7.10819 9.5 7 9.5H2C1.72386 9.5 1.5 9.72386 1.5 10V20C1.5 20.2761 1.72386 20.5 2 20.5H7C7.10819 20.5 7.21345 20.5351 7.3 20.6L14.5 26V4ZM29.3536 10.6464C29.5488 10.8417 29.5488 11.1583 29.3536 11.3536L25.7071 15L29.3536 18.6464C29.5488 18.8417 29.5488 19.1583 29.3536 19.3535C29.1583 19.5488 28.8417 19.5488 28.6464 19.3535L25 15.7071L21.3536 19.3535C21.1583 19.5488 20.8417 19.5488 20.6464 19.3535C20.4512 19.1583 20.4512 18.8417 20.6464 18.6464L24.2929 15L20.6464 11.3536C20.4512 11.1583 20.4512 10.8417 20.6464 10.6464C20.8417 10.4512 21.1583 10.4512 21.3536 10.6464L25 14.2929L28.6464 10.6464C28.8417 10.4512 29.1583 10.4512 29.3536 10.6464Z" fill="black"/>
</svg>
