<svg width="30" height="30" viewBox="0 0 30 30" fill="none" xmlns="http://www.w3.org/2000/svg">
<path fill-rule="evenodd" clip-rule="evenodd" d="M15.5 3C15.5 2.81062 15.393 2.63749 15.2236 2.55279C15.0542 2.46809 14.8515 2.48637 14.7 2.6L6.83333 8.5H2C1.17157 8.5 0.5 9.17158 0.5 10V20C0.5 20.8284 1.17157 21.5 2 21.5H6.83333L14.7 27.4C14.8515 27.5136 15.0542 27.5319 15.2236 27.4472C15.393 27.3625 15.5 27.1894 15.5 27V3ZM7.3 9.4L14.5 4V26L7.3 20.6C7.21345 20.5351 7.10819 20.5 7 20.5H2C1.72386 20.5 1.5 20.2761 1.5 20V10C1.5 9.72386 1.72386 9.5 2 9.5H7C7.10819 9.5 7.21345 9.46491 7.3 9.4ZM21.3329 8.14055C21.2105 7.95663 20.9622 7.90673 20.7783 8.0291C20.5944 8.15147 20.5445 8.39977 20.6669 8.5837C23.2445 12.458 23.2445 17.5419 20.6669 21.4162C20.5445 21.6002 20.5944 21.8485 20.7783 21.9708C20.9622 22.0932 21.2105 22.0433 21.3329 21.8594C24.0892 17.7166 24.0892 12.2833 21.3329 8.14055Z" fill="black"/>
</svg>
