<svg width="30" height="30" viewBox="0 0 30 30" fill="none" xmlns="http://www.w3.org/2000/svg">
<path fill-rule="evenodd" clip-rule="evenodd" d="M14.6244 8.08966C8.94273 8.1985 3.90961 10.7717 0.702285 14.7107C0.294265 15.2118 0.414792 15.9436 0.934176 16.3281C1.47602 16.7292 2.23929 16.5967 2.66573 16.0746C5.14674 13.0369 8.88662 10.9431 13.159 10.4712L14.6244 8.08966ZM10.7965 14.3104C8.56283 15.0878 6.64316 16.4668 5.26375 18.2363C4.90281 18.6993 5.02791 19.3584 5.49977 19.7077C6.03113 20.101 6.78259 19.9442 7.19459 19.4272C7.56508 18.9623 7.98214 18.5316 8.43933 18.1411L10.7965 14.3104ZM20.3686 17.2713L21.5218 15.3972C22.7717 16.1511 23.8623 17.1153 24.7361 18.2362C25.0971 18.6992 24.972 19.3583 24.5001 19.7076C23.9687 20.1009 23.2173 19.9442 22.8053 19.4272C22.1334 18.584 21.3083 17.8534 20.3686 17.2713ZM17.4758 21.9723L18.5681 20.1972C19.2363 20.6457 19.8037 21.2169 20.2325 21.8754C20.4881 22.268 20.3515 22.7786 19.9749 23.0573C19.4173 23.4701 18.5976 23.1841 18.1651 22.6416C17.9663 22.3924 17.7346 22.1674 17.4758 21.9723ZM23.2505 12.5879L24.4704 10.6054C26.3357 11.6891 27.9725 13.0833 29.2976 14.7106C29.7056 15.2117 29.585 15.9436 29.0657 16.3281C28.5238 16.7292 27.7605 16.5967 27.3341 16.0746C26.2091 14.6972 24.8254 13.5139 23.2505 12.5879Z" fill="black"/>
<rect x="23.376" y="0.169067" width="3" height="33.372" rx="1.5" transform="rotate(31.6059 23.376 0.169067)" fill="black"/>
</svg>
