<svg width="30" height="30" viewBox="0 0 30 30" fill="none" xmlns="http://www.w3.org/2000/svg">
<path d="M0.702361 14.7107C0.294341 15.2118 0.414868 15.9437 0.934252 16.3281V16.3281C1.4761 16.7292 2.23937 16.5968 2.66581 16.0746C5.49739 12.6077 9.96877 10.3703 15 10.3703C20.0312 10.3703 24.5026 12.6077 27.3342 16.0746C27.7606 16.5967 28.5239 16.7292 29.0657 16.3281V16.3281C29.5851 15.9436 29.7057 15.2118 29.2976 14.7107C26.0198 10.6852 20.8351 8.08612 15 8.08612C9.1649 8.08612 3.98017 10.6852 0.702361 14.7107Z" fill="black"/>
<path d="M24.5002 19.7077C24.972 19.3584 25.0971 18.6993 24.7362 18.2362C22.5487 15.4302 19.0026 13.6062 15.0001 13.6062C10.9975 13.6062 7.45132 15.4302 5.26383 18.2363C4.90289 18.6993 5.02799 19.3584 5.49985 19.7077V19.7077C6.03121 20.1011 6.78267 19.9443 7.19466 19.4273C8.96644 17.2038 11.803 15.7634 15.0001 15.7634C18.1971 15.7634 21.0336 17.2038 22.8054 19.4272C23.2174 19.9442 23.9688 20.101 24.5002 19.7077V19.7077Z" fill="black"/>
<path d="M19.975 23.0574C20.3515 22.7786 20.4881 22.2681 20.2325 21.8755C19.1594 20.2272 17.2175 19.1262 15.0001 19.1262C12.7826 19.1262 10.8406 20.2273 9.76755 21.8756C9.51195 22.2682 9.64855 22.7787 10.0251 23.0575V23.0575C10.5827 23.4702 11.4024 23.1842 11.8349 22.6418C12.5536 21.7404 13.7038 21.1566 15.0001 21.1566C16.2963 21.1566 17.4465 21.7404 18.1652 22.6417C18.5977 23.1841 19.4174 23.4701 19.975 23.0574V23.0574Z" fill="black"/>
</svg>
