<svg width="30" height="30" viewBox="0 0 30 30" fill="none" xmlns="http://www.w3.org/2000/svg">
<path d="M1.99988 1C1.99988 0.447715 2.44759 0 2.99988 0H26.9999C27.5522 0 27.9999 0.447715 27.9999 1C27.9999 1.55228 27.5522 2 26.9999 2H2.99988C2.44759 2 1.99988 1.55228 1.99988 1Z" fill="black"/>
<path d="M12.0001 2.00001L18.0001 2.00001V28L26.9999 28C27.5522 28 27.9999 28.4477 27.9999 29C27.9999 29.5523 27.5522 30 26.9999 30H2.99988C2.44759 30 1.99988 29.5523 1.99988 29C1.99988 28.4477 2.44759 28 2.99988 28L12.0001 28V2.00001Z" fill="black"/>
</svg>
