<svg
   width="30"
   height="30"
   viewBox="0 0 30 30"
   fill="none"
   xmlns="http://www.w3.org/2000/svg">
  <path
     d="m 9.7458325,6.218644 c 0,-0.55228 -0.44772,-1 -0.9999998,-1 -0.55228,0 -1,0.44772 -1,1 v 7.70006 h -3.0001 c -0.44184,0 -0.8,0.35818 -0.8,0.8 0,0.44182 0.35816,0.8 0.8,0.8 h 3.0001 v 1.29994 c 0,3.866 3.1339993,7 6.9999993,7 3.866,0 6.99994,-3.134 6.99994,-7 v -1.29994 h 3 c 0.4418,0 0.8,-0.35818 0.8,-0.8 0,-0.44182 -0.3582,-0.8 -0.8,-0.8 h -3 v -7.70006 c 0,-0.55228 -0.4476,-1 -1,-1 -0.5522,0 -1,0.44772 -1,1 v 7.70006 H 9.7458325 Z m 0,9.30006 v 1.29994 c 0,2.76142 2.2385795,5 4.9999995,5 2.76142,0 4.99994,-2.23858 4.99994,-5 v -1.29994 z"
     fill="currentColor"
     fill-rule="evenodd"
     clip-rule="evenodd"/>
</svg>
