<svg width="30" height="30" viewBox="0 0 30 30" fill="none" xmlns="http://www.w3.org/2000/svg">
<path d="M7.5 24.5C8 24 9.3 23 10.5 23C11.3229 23 12.1927 23.1567 12.8195 23.309C13.2406 23.4113 13.6936 23.3064 14 23V23M7.5 24.5L6.5 23.5L5.5 22.5M7.5 24.5L6.5 25.5L3.5 24.5L5.5 22.5M7.5 24.5L5.5 22.5M5.5 22.5C6 22 7 20.7 7 19.5C7 18.6771 6.84326 17.8073 6.69101 17.1805C6.5887 16.7594 6.69357 16.3064 7 16V16M7 16L18.5858 4.41421C19.3668 3.63317 20.6332 3.63317 21.4142 4.41421L25.5858 8.58579C26.3668 9.36684 26.3668 10.6332 25.5858 11.4142L14 23M7 16L14 23" stroke="black" stroke-width="2" stroke-linecap="round" stroke-linejoin="round"/>
<path d="M3.5 24.5L5.5 22.5L7.5 24.5L6.5 25.5L3.5 24.5Z" fill="black"/>
</svg>
