<svg width="30" height="30" viewBox="0 0 30 30" fill="none" xmlns="http://www.w3.org/2000/svg">
<path d="M13.1024 25.123L26.6953 10.412C27.424 9.62334 27.3999 8.39987 26.6405 7.64054L23.3649 4.36488C22.6034 3.60337 21.3756 3.58158 20.5875 4.31559L5.98401 17.9175M13.1024 25.123L5.98401 17.9175M13.1024 25.123C12.6024 24.9563 11.3025 24.5374 10.1025 24.5374C8.90254 24.5374 7.60254 25.5374 7.10254 26.0374M5.98401 17.9175C6.15068 18.4175 6.60254 19.8374 6.60254 21.0374C6.60254 22.2374 5.60254 23.5374 5.10254 24.0374M7.10254 26.0374L6.10254 25.0374L5.10254 24.0374M7.10254 26.0374L6.10254 27.0374L2 27.1399L5.10254 24.0374" stroke="black" stroke-width="2" stroke-linecap="round" stroke-linejoin="round"/>
<path d="M2 26L4 24L6 26L5 27L2 26Z" fill="black"/>
</svg>
