<svg width="30" height="30" viewBox="0 0 30 30" fill="none" xmlns="http://www.w3.org/2000/svg">
<path d="M11.5087 24.0001C10.9564 24.0001 10.5087 24.4478 10.5087 25.0001C10.5087 25.5524 10.9564 26.0001 11.5087 26.0001V24.0001ZM18.5087 26.0001C19.061 26.0001 19.5087 25.5524 19.5087 25.0001C19.5087 24.4478 19.061 24.0001 18.5087 24.0001V26.0001ZM7.00001 5.00006V4.00006C6.44773 4.00006 6.00001 4.44777 6.00001 5.00006L7.00001 5.00006ZM23 5.00006L24 5.00006C24 4.44777 23.5523 4.00006 23 4.00006V5.00006ZM22 8.99999C22 9.55227 22.4477 9.99998 23 9.99998C23.5523 9.99998 24 9.55226 24 8.99998L22 8.99999ZM6 8.99998C6 9.55226 6.44771 9.99998 7 9.99998C7.55228 9.99998 8 9.55227 8 8.99999L6 8.99998ZM16 24.5V5.50004H14V24.5H16ZM11.5087 26.0001H18.5087V24.0001H11.5087V26.0001ZM7.00001 6.00006H23V4.00006H7.00001V6.00006ZM24 8.99998L24 5.00006L22 5.00006L22 8.99999L24 8.99998ZM8 8.99999L8.00001 5.00006L6.00001 5.00006L6 8.99998L8 8.99999Z" fill="black"/>
</svg>
