<svg
   width="30"
   height="30"
   viewBox="0 0 30 30"
   fill="none"
   xmlns="http://www.w3.org/2000/svg">
  <path
     d="M 20.686707,3.8901892 C 20.923384,3.2984969 20.635587,2.6270045 20.043922,2.3903276 19.45223,2.1536737 18.780737,2.4414426 18.54406,3.0331353 L 9.3132915,26.110013 c -0.236677,0.591692 0.051115,1.263231 0.6427846,1.499769 0.5916919,0.236769 1.2631839,-0.051 1.4998609,-0.642692 z M 6.5851144,9.568843 c 0.4506231,0.4506 0.4506231,1.18117 0,1.63177 l -3.799477,3.7995 3.799477,3.7995 c 0.4506231,0.4506 0.4506231,1.181169 0,1.631769 -0.4506,0.450554 -1.1811692,0.450554 -1.6317693,0 L 0.33796035,15.815997 c -0.4506138,-0.4506 -0.4506138,-1.181169 0,-1.631769 L 4.9533451,9.568843 c 0.4506001,-0.4505998 1.1811693,-0.4505998 1.6317693,0 z m 16.8296536,0 c 0.450693,-0.4505998 1.181308,-0.4505998 1.632,0 l 4.615385,4.615385 c 0.450462,0.4506 0.450462,1.181169 0,1.631769 l -4.615385,4.615385 c -0.450692,0.450554 -1.181307,0.450554 -1.632,0 -0.450461,-0.4506 -0.450461,-1.181169 0,-1.631769 l 3.799616,-3.7995 -3.799616,-3.7995 c -0.450461,-0.4506 -0.450461,-1.18117 0,-1.63177 z"
     fill="currentColor"
     fill-rule="evenodd"
     clip-rule="evenodd" />
</svg>
