<svg width="30" height="30" viewBox="0 0 30 30" fill="none" xmlns="http://www.w3.org/2000/svg">
<path fill-rule="evenodd" clip-rule="evenodd" d="M9.98661 6.9442C9.98661 6.42274 9.54048 6 8.99017 6C8.43985 6 7.99373 6.42274 7.99373 6.9442V16.9527C7.99373 20.603 11.1166 23.5621 14.9688 23.5621C18.8211 23.5621 21.9439 20.603 21.9439 16.9527V6.9442C21.9439 6.42274 21.4979 6 20.9475 6C20.3972 6 19.951 6.42274 19.951 6.9442V16.9527C19.951 19.56 17.7204 21.6737 14.9688 21.6737C12.2172 21.6737 9.98661 19.56 9.98661 16.9527V6.9442ZM6.99723 26.4893C6.55696 26.4893 6.20007 26.8273 6.20007 27.2446C6.20007 27.6618 6.55696 28 6.99723 28H22.9403C23.3806 28 23.7375 27.6618 23.7375 27.2446C23.7375 26.8273 23.3806 26.4893 22.9403 26.4893H6.99723Z" fill="black" style="fill:black;fill-opacity:1;"/>
</svg>
