<svg width="32" height="30" viewBox="0 0 32 30" fill="none" xmlns="http://www.w3.org/2000/svg">
<circle cx="16.3997" cy="21.3802" r="1.5" fill="black"/>
<path d="M15.0538 9.40049C15.0244 8.63672 15.6356 8.00153 16.3999 8.00153C17.1643 8.00153 17.7755 8.63672 17.7461 9.40049L17.4384 17.4023C17.4169 17.9603 16.9583 18.4015 16.3999 18.4015C15.8415 18.4015 15.383 17.9603 15.3615 17.4023L15.0538 9.40049Z" fill="black"/>
<path d="M29.9592 23.8499L16.5153 1.29299C16.2826 0.902566 15.7171 0.902566 15.4845 1.29299L2.04056 23.8499C1.80219 24.2498 2.09037 24.7571 2.55596 24.7571H29.4438C29.9094 24.7571 30.1976 24.2498 29.9592 23.8499Z" stroke="black" stroke-width="2"/>
</svg>
