<svg width="30" height="30" viewBox="0 0 30 30" fill="none" xmlns="http://www.w3.org/2000/svg">
<circle cx="15.3997" cy="19.4395" r="1.5" fill="black"/>
<path d="M14.0538 10.4595C14.0244 9.69574 14.6356 9.06055 15.3999 9.06055C16.1643 9.06055 16.7755 9.69574 16.7461 10.4595L16.4384 15.4613C16.4169 16.0193 15.9583 16.4606 15.3999 16.4606C14.8415 16.4606 14.383 16.0193 14.3615 15.4613L14.0538 10.4595Z" fill="black"/>
<path d="M28.4825 23.8578L15.52 1.33194C15.2892 0.93095 14.7106 0.930951 14.4799 1.33194L1.51747 23.8578C1.2873 24.2578 1.57602 24.7571 2.03752 24.7571H27.9625C28.424 24.7571 28.7127 24.2578 28.4825 23.8578Z" stroke="black" stroke-width="2"/>
</svg>
