<svg width="32" height="30" viewBox="0 0 32 30" fill="none" xmlns="http://www.w3.org/2000/svg">
<circle cx="16.3997" cy="19.4395" r="1.5" fill="black"/>
<path d="M15.0538 10.4595C15.0244 9.69574 15.6356 9.06055 16.3999 9.06055C17.1643 9.06055 17.7755 9.69574 17.7461 10.4595L17.4384 15.4613C17.4169 16.0193 16.9583 16.4606 16.3999 16.4606C15.8415 16.4606 15.383 16.0193 15.3615 15.4613L15.0538 10.4595Z" fill="black"/>
<path d="M29.9592 23.8499L16.5153 1.29299C16.2826 0.902566 15.7171 0.902566 15.4845 1.29299L2.04056 23.8499C1.80219 24.2498 2.09037 24.7571 2.55596 24.7571H29.4438C29.9094 24.7571 30.1976 24.2498 29.9592 23.8499Z" stroke="black" stroke-width="2"/>
</svg>
