<svg
   width="30"
   height="30"
   viewBox="0 0 30 30"
   fill="none"
   xmlns="http://www.w3.org/2000/svg">
  <path
     d="m 8.2391297,7.8322807 c 0.4430411,0.443016 0.4430411,1.1613254 0,1.6043414 L 3.8732566,13.802495 H 26.126605 L 21.760732,9.4366221 c -0.44294,-0.443016 -0.44294,-1.1613255 0,-1.6043414 0.443192,-0.443041 1.161426,-0.443041 1.604366,0 l 6.302508,6.3025073 c 0.443193,0.443016 0.443193,1.161326 0,1.604342 l -6.302508,6.302507 c -0.44294,0.44294 -1.161174,0.44294 -1.604366,0 -0.44294,-0.44294 -0.44294,-1.161325 0,-1.604341 l 4.365873,-4.365898 H 3.8732566 l 4.3658731,4.365898 c 0.4430411,0.443016 0.4430411,1.161401 0,1.604341 -0.4430159,0.44294 -1.1613253,0.44294 -1.6043411,0 L 0.33228083,15.73913 c -0.4430411,-0.443016 -0.4430411,-1.161326 0,-1.604342 L 6.6347886,7.8322807 c 0.4430158,-0.443041 1.1613252,-0.443041 1.6043411,0 z"
     fill="currentColor"
     fill-rule="evenodd"
     clip-rule="evenodd" />
</svg>
