<svg width="15" height="15" viewBox="0 0 15 15" fill="none" xmlns="http://www.w3.org/2000/svg">
<path fill-rule="evenodd" clip-rule="evenodd" d="M2.5 2.49538C2.77614 2.49538 3 2.71923 3 2.99538V5.49559H5.50021C5.77636 5.49559 6.00021 5.71945 6.00021 5.99559C6.00021 6.27173 5.77636 6.49559 5.50021 6.49559H2.5C2.22386 6.49559 2 6.27173 2 5.99559V2.99538C2 2.71923 2.22386 2.49538 2.5 2.49538Z" fill="black"/>
<path fill-rule="evenodd" clip-rule="evenodd" d="M7.30302 2.04877C8.37655 1.89773 9.47009 2.09968 10.4189 2.62417C11.3676 3.14867 12.1203 3.9673 12.5633 4.95673C13.0064 5.94616 13.1159 7.05278 12.8753 8.10985C12.6348 9.16693 12.0572 10.1172 11.2296 10.8175C10.4021 11.5177 9.36931 11.9301 8.287 11.9924C7.20469 12.0547 6.13145 11.7635 5.22899 11.1628C4.32653 10.5621 3.64374 9.68441 3.2835 8.66191C3.19174 8.40146 3.32849 8.11593 3.58894 8.02417C3.84939 7.93241 4.13492 8.06916 4.22668 8.32961C4.51488 9.14762 5.06112 9.84981 5.78309 10.3304C6.50507 10.811 7.36368 11.0439 8.22954 10.994C9.0954 10.9442 9.92161 10.6143 10.5837 10.0541C11.2458 9.49386 11.7078 8.73363 11.9003 7.88796C12.0927 7.04229 12.0051 6.15698 11.6507 5.36542C11.2962 4.57387 10.6941 3.91895 9.93506 3.49935C9.17602 3.07974 8.30118 2.91819 7.44235 3.03902C6.58351 3.15985 5.78721 3.55653 5.17342 4.16928L5.16255 4.17981L2.84239 6.35996C2.64115 6.54906 2.32472 6.53921 2.13562 6.33797C1.94653 6.13673 1.95637 5.8203 2.15761 5.63121L4.47241 3.4561C5.23889 2.69329 6.23206 2.19945 7.30302 2.04877Z" fill="black"/>
</svg>
