<svg xmlns="http://www.w3.org/2000/svg" direction="ltr" width="219.9193056487649" height="135.96346925231194" viewBox="-50.62325812523289 528.5694227046962 219.9193056487649 135.96346925231194" stroke-linecap="round" stroke-linejoin="round"><defs/><g transform="matrix(1, 0, 0, 1, 1.0199, 560.5694)" opacity="1"><g transform="scale(1)"><path d="M2.5393,0.9298 T1.5461,3.2707 -0.5563,8.2894 -2.9061,13.9844 -5.5764,20.1979 -8.5209,26.4428 -11.1439,31.5956 -13.3733,35.6254 -15.2558,38.9664 -16.7843,42.0873 -17.5514,43.793 A2.3968,2.3968 0 0 1 -21.7349,41.4526 T-20.6026,39.8773 -18.5918,36.9946 -16.6501,33.8401 -14.5487,29.9029 -12.1025,24.8112 -9.3916,18.6452 -6.989,12.4303 -4.9675,6.6538 -3.2926,1.499 -2.5393,-0.9298 A2.7042,2.7042 0 0 1 2.5393,0.9298 ZM-19.9149,40.2414 T-18.8445,40.0364 -15.5204,39.5162 -10.9511,38.8902 -5.5733,38.0885 1.9598,36.9736 10.13,35.8431 17.0547,34.9267 24.114,34.0188 27.9479,33.5207 A1.8155,1.8155 0 0 1 28.4321,37.1193 T24.603,37.6524 17.5758,38.6402 10.6952,39.666 2.6164,40.9404 -4.8414,42.2596 -10.1467,43.3423 -14.6117,44.3446 -18.1021,44.9421 -19.3714,45.0041 A2.3968,2.3968 0 0 1 -19.9149,40.2414 Z" stroke-linecap="round" fill="#f87777"/></g></g><g transform="matrix(1, 0, 0, 1, 16.0906, 572.6629)" opacity="1"><g transform="scale(1)"><path d="M2.6792,1.1211 T1.845,2.8912 -0.267,7.93 -3.291,16.0371 -6.9881,26.1798 -10.8006,36.6785 -13.9362,45.2754 -16.3292,51.399 -18.7572,57.3358 -20.0661,60.5514 A1.8351,1.8351 0 0 1 -23.4739,59.1886 T-22.2044,55.9572 -19.8928,50.0429 -17.6605,43.9551 -14.7078,35.3099 -11.1425,24.7425 -7.7738,14.4928 -5.1187,6.0615 -3.3543,0.7158 -2.6792,-1.1211 A2.9043,2.9043 0 0 1 2.6792,1.1211 Z" stroke-linecap="round" fill="#f87777"/></g></g><g transform="matrix(1, 0, 0, 1, 46.7392, 582.7775)" opacity="1"><g transform="scale(1)"><path d="M2.0365,2.057 T0.6053,3.3593 -1.9462,6.0104 -3.9966,8.7854 -5.8767,12.5568 -7.0827,16.6195 -7.341,20.2991 -7.027,24.3155 -6.0059,28.313 -4.5851,31.5456 -2.2835,34.0781 0.7431,34.941 3.2289,33.1882 5.8772,28.7407 8.1985,23.7511 9.2602,19.9534 9.5282,16.016 9.1489,12.4313 8.1549,9.1996 6.3503,5.8595 3.6894,2.7229 0.8808,0.3203 -1.9267,-1.7885 -3.4722,-2.9926 A2.0937,2.0937 0 0 1 -0.8878,-6.2874 T0.6498,-5.0732 3.5098,-2.7366 6.7035,0.128 9.9964,3.8658 12.2964,8.0072 13.4243,11.9312 13.8691,16.2363 13.7409,21.0353 12.7832,25.5016 11.3372,29.8596 9.673,33.6144 6.8295,37.2648 3.3045,39.9525 -0.7933,39.9684 -4.5761,38.4034 -6.7668,36.1244 -8.4343,33.2682 -10.0559,29.4628 -11.5007,24.8063 -12.1655,20.0729 -12.0688,15.4807 -11.2633,11.6851 -9.9637,8.8162 -8.2012,5.8256 -5.9245,2.4656 -3.355,-0.637 -2.0365,-2.057 A2.8945,2.8945 0 0 1 2.0365,2.057 Z" stroke-linecap="round" fill="#f87777"/></g></g><g transform="matrix(1, 0, 0, 1, 82.696, 561.6952)" opacity="1"><g transform="scale(1)"><path d="M2.5983,0.7493 T1.7733,3.149 -0.0426,8.2525 -2.0114,13.7178 -3.7243,18.4935 -5.104,22.3928 -6.1953,25.7692 -6.9537,29.2193 -7.2653,31.178 A2.5735,2.5735 0 0 1 -12.2738,29.9923 T-11.5243,27.9203 -10.2144,24.3929 -9.0003,21.04 -7.6761,17.1545 -6.1623,12.3558 -4.5382,6.8684 -3.1778,1.7211 -2.5983,-0.7493 A2.7042,2.7042 0 0 1 2.5983,0.7493 ZM-7.7074,29.0456 T-7.6178,29.1402 -7.5281,29.2348 A2.604,2.604 0 0 1 -11.7013,32.3503 T-11.7665,32.2375 -11.8317,32.1247 A2.5735,2.5735 0 0 1 -7.7074,29.0456 ZM-9.2733,28.2111 T-8.5825,28.253 -6.2612,28.3661 -0.9438,28.533 5.6392,28.6695 15.7608,28.5407 27.8441,28.2551 37.1648,28.01 44.5653,27.7833 51.0131,27.5568 54.5232,27.428 A1.8236,1.8236 0 0 1 54.6768,31.072 T51.1683,31.239 44.7144,31.5565 37.3031,31.9079 27.9796,32.3232 15.8663,32.8409 5.6917,33.2835 -1.0021,33.5651 -6.6873,33.6801 -9.2768,33.5134 -9.9562,33.374 A2.604,2.604 0 0 1 -9.2733,28.2111 Z" stroke-linecap="round" fill="#f87777"/></g></g><g transform="matrix(1, 0, 0, 1, 101.9126, 575.5965)" opacity="1"><g transform="scale(1)"><path d="M2.7914,0.5572 T2.1937,2.8135 0.5199,9.2953 -1.6958,18.1076 -3.9391,26.9541 -6.0047,34.6206 -7.6806,40.2857 -9.2219,45.2086 -10.0495,47.8733 A1.8491,1.8491 0 0 1 -13.5905,46.8067 T-12.8087,44.1282 -11.3918,39.2291 -9.8927,33.6239 -8.05,25.9796 -6.0929,17.1005 -4.2673,8.2748 -3.1057,1.7557 -2.7914,-0.5572 A2.8464,2.8464 0 0 1 2.7914,0.5572 Z" stroke-linecap="round" fill="#f87777"/></g></g></svg>