<svg width="316" height="50" viewBox="0 0 316 50" fill="none" xmlns="http://www.w3.org/2000/svg">
<path d="M2.30347 19.417H4.65961C5.45786 19.417 6.17707 19.8991 6.48001 20.6375L9.78881 28.6637C9.99228 29.1572 10.6915 29.1566 10.8942 28.6627L14.1868 20.6375C14.4897 19.8991 15.209 19.417 16.0072 19.417H18.3633C19.4499 19.417 20.3309 20.2974 20.3309 21.3838V35.3784C20.3309 36.4647 19.4499 37.3451 18.3633 37.3451H17.6852C16.5986 37.3451 15.7176 36.4647 15.7176 35.3784L15.7059 30.5359C15.7043 29.8773 14.7947 29.7052 14.5526 30.3176L12.3096 35.9907C12.0128 36.7414 11.2873 37.2346 10.4798 37.2346H10.1894C9.38056 37.2346 8.65407 36.7398 8.35819 35.9872L6.11469 30.2807C5.8735 29.6673 4.96249 29.8388 4.96091 30.498L4.94919 35.3784C4.94919 36.4647 4.06821 37.3451 2.98167 37.3451H2.30347C1.21693 37.3451 0.335938 36.4647 0.335938 35.3784V21.3838C0.335938 20.2974 1.21693 19.417 2.30347 19.417Z" fill="#18181B"/>
<path fill-rule="evenodd" clip-rule="evenodd" d="M28.6736 35.9669L29.2588 34.1127C29.3372 33.8643 29.5674 33.6953 29.8279 33.695L34.6304 33.6891C34.8907 33.6888 35.1212 33.8569 35.2004 34.1049L35.7956 35.968C36.0551 36.7885 36.8202 37.3451 37.6836 37.3451H38.576C39.9275 37.3451 40.8851 36.0265 40.451 34.7491L35.6951 20.7545C35.4232 19.9542 34.6681 19.417 33.8201 19.417H30.6496C29.8016 19.417 29.0465 19.9542 28.7745 20.7545L24.0186 34.7491C23.5845 36.0265 24.5422 37.3451 25.8937 37.3451H26.7852C27.6491 37.3451 28.4145 36.788 28.6736 35.9669ZM31.6471 26.5145C31.8243 25.9592 32.6104 25.9602 32.7862 26.516L33.6303 29.1852C33.7521 29.5704 33.4645 29.9629 33.0605 29.9629L31.3644 29.963C30.9597 29.963 30.672 29.5692 30.7951 29.1836L31.6471 26.5145Z" fill="#18181B"/>
<path fill-rule="evenodd" clip-rule="evenodd" d="M50.8443 37.3451C52.6522 37.3451 54.2283 36.9927 55.5637 36.2773C56.8992 35.556 57.9285 34.5185 58.6459 33.1708C59.3694 31.8221 59.7257 30.2195 59.7257 28.3726C59.7257 26.5314 59.3695 24.9344 58.6459 23.5914C57.9228 22.2437 56.8915 21.2094 55.5557 20.4936C54.2256 19.7722 52.6492 19.417 50.8358 19.417H46.1022C45.0137 19.417 44.1299 20.2968 44.1299 21.3838V35.3784C44.1299 36.4654 45.0137 37.3451 46.1022 37.3451H50.8443ZM53.0557 32.7841C52.4227 33.0915 51.636 33.2513 50.6856 33.2513C49.6822 33.2513 48.8688 32.4379 48.8688 31.4346V25.2826C48.8688 24.3122 49.6555 23.5255 50.6259 23.5255C51.5997 23.5255 52.4002 23.6884 53.0383 24.0011C53.6685 24.3022 54.1507 24.7962 54.4805 25.4959C54.8105 26.1909 54.9849 27.147 54.9849 28.3799C54.9849 29.6125 54.8109 30.5744 54.4801 31.2816C54.1557 31.9814 53.6807 32.4777 53.0557 32.7841Z" fill="#18181B"/>
<path d="M62.5471 35.3784V21.3838C62.5471 20.2974 63.4282 19.417 64.5148 19.417H73.2434C74.3294 19.417 75.21 20.2969 75.21 21.3825C75.21 22.4682 74.3294 23.3481 73.2434 23.3481H68.0185C67.6059 23.3481 67.2715 23.6825 67.2715 24.0951V25.66C67.2715 26.0726 67.6059 26.407 68.0185 26.407H72.6211C73.7083 26.407 74.5889 27.2911 74.5889 28.3768C74.5889 29.4626 73.7083 30.3466 72.6211 30.3466H68.0185C67.6059 30.3466 67.2715 30.6811 67.2715 31.0936V32.667C67.2715 33.0796 67.6059 33.414 68.0185 33.414H73.2434C74.3294 33.414 75.21 34.2939 75.21 35.3796C75.21 36.4653 74.3294 37.3451 73.2434 37.3451H64.5148C63.4282 37.3451 62.5471 36.4647 62.5471 35.3784Z" fill="#18181B"/>
<path d="M139.208 35.3784V21.3838C139.208 20.2972 140.089 19.417 141.177 19.417H141.966C143.053 19.417 143.935 20.2972 143.935 21.3838V24.913C143.935 25.7381 144.604 26.407 145.429 26.407H148.8C149.625 26.407 150.294 25.7381 150.294 24.913V21.3838C150.294 20.2972 151.176 19.417 152.263 19.417H153.044C154.131 19.417 155.013 20.2972 155.013 21.3838V35.3784C155.013 36.4649 154.131 37.3451 153.044 37.3451H152.263C151.176 37.3451 150.294 36.4649 150.294 35.3784V31.8406C150.294 31.0155 149.625 30.3466 148.8 30.3466H145.429C144.604 30.3466 143.935 31.0155 143.935 31.8406V35.3784C143.935 36.4649 143.053 37.3451 141.966 37.3451H141.177C140.089 37.3451 139.208 36.4649 139.208 35.3784Z" fill="#18181B"/>
<path d="M118.045 21.3838V35.3784C118.045 36.4635 117.17 37.3451 116.087 37.3451H115.302C114.219 37.3451 113.343 36.4635 113.343 35.3784V21.3838C113.343 20.2987 114.219 19.417 115.302 19.417H116.087C117.17 19.417 118.045 20.2987 118.045 21.3838Z" fill="#18181B"/>
<path d="M89.9594 35.9281L85.8767 21.9335C85.5093 20.6741 86.4564 19.417 87.7691 19.417H88.7826C89.7003 19.417 90.4971 20.0492 90.7032 20.9423L92.3298 27.9266C92.4712 28.5336 93.3308 28.5461 93.4897 27.9435L95.3514 20.8833C95.5794 20.0189 96.3625 19.417 97.2575 19.417H98.4148C99.3102 19.417 100.094 20.0194 100.321 20.8843L102.184 27.9664C102.343 28.5692 103.203 28.5571 103.344 27.95L104.978 20.9419C105.184 20.0489 105.981 19.417 106.899 19.417H107.905C109.217 19.417 110.164 20.6735 109.798 21.9326L105.722 35.9272C105.477 36.7677 104.705 37.3451 103.829 37.3451H102.33C101.458 37.3451 100.689 36.7734 100.44 35.9387L98.4167 29.1443C98.2473 28.5755 97.4421 28.5747 97.2716 29.1431L95.2327 35.9387C94.9841 36.7734 94.2153 37.3451 93.3434 37.3451H91.8518C90.9758 37.3451 90.2044 36.7681 89.9594 35.9281Z" fill="#18181B"/>
<path d="M122.947 19.417H134.286C135.374 19.417 136.258 20.2962 136.258 21.3825C136.258 22.4689 135.374 23.3481 134.286 23.3481H131.915C131.387 23.3481 130.959 23.7762 130.959 24.3043V35.3784C130.959 36.4654 130.075 37.3451 128.987 37.3451H128.255C127.167 37.3451 126.283 36.4654 126.283 35.3784V24.3043C126.283 23.7762 125.855 23.3481 125.327 23.3481H122.947C121.859 23.3481 120.976 22.4689 120.976 21.3825C120.976 20.2962 121.859 19.417 122.947 19.417Z" fill="#18181B"/>
<path d="M217.135 17.0776C217.135 16.0075 218.003 15.14 219.073 15.14H221.564C222.634 15.14 223.502 16.0075 223.502 17.0776V18.6738C223.502 19.0662 223.82 19.3842 224.212 19.3842H225.556C226.27 19.3842 226.848 19.9626 226.848 20.676V22.7058C226.848 23.4193 226.27 23.9976 225.556 23.9976H224.212C223.82 23.9976 223.502 24.3157 223.502 24.7081V31.402C223.502 31.6481 223.544 31.8557 223.628 32.0248C223.713 32.1863 223.844 32.3093 224.021 32.3939C224.197 32.4708 224.902 32.5092 225.179 32.5092C225.858 32.5092 226.256 32.755 226.396 33.4195L226.848 35.565C226.995 36.2626 226.58 36.95 225.886 37.1111C225.363 37.2341 224.501 37.3148 223.778 37.3533C222.318 37.4302 221.091 37.2802 220.099 36.9035C219.107 36.519 218.362 35.9154 217.862 35.0927C217.362 34.27 217.12 33.2397 217.135 32.0018V24.7081C217.135 24.3157 216.817 23.9976 216.425 23.9976H215.832C215.118 23.9976 214.54 23.4193 214.54 22.7058V20.676C214.54 19.9626 215.118 19.3842 215.832 19.3842H216.425C216.817 19.3842 217.135 19.0662 217.135 18.6738V17.0776Z" fill="#18181B"/>
<path d="M240.941 36.3814C239.887 35.7202 239.042 34.7168 238.403 33.3712C237.773 32.0256 237.458 30.3302 237.458 28.285C237.458 25.2662 238.232 21.7872 241.033 20.1309C243.22 18.8473 246.086 18.8414 248.06 20.5503C248.439 20.8783 249.452 20.5845 249.452 20.0833V15.4598C249.452 14.3897 250.32 13.5222 251.39 13.5222H253.881C254.951 13.5222 255.819 14.3897 255.819 15.4598V35.205C255.819 36.2751 254.951 37.1426 253.881 37.1426H250.712C250.042 37.1426 249.499 36.5993 249.499 35.929C249.499 35.5632 248.777 35.3441 248.527 35.6115C248.451 35.6929 248.375 35.7727 248.299 35.8509C246.399 37.8159 243.166 37.7682 240.941 36.3814ZM249.591 28.285C249.591 26.5279 248.958 24.0868 246.777 24.0868C244.587 24.0868 244.009 26.5374 244.009 28.285C244.009 29.5736 244.221 31.11 245.277 31.9872C247.731 33.9412 249.591 30.4527 249.591 28.285Z" fill="#18181B"/>
<path d="M260.072 37.1427C259.002 37.1427 258.135 36.2752 258.135 35.205V21.365C258.135 20.2949 259.002 19.4274 260.072 19.4274H263.249C263.839 19.4274 264.316 19.905 264.316 20.4943C264.316 21.0529 264.519 21.2288 264.902 21.2288C265.561 21.2288 265.699 19.1235 268.754 19.1967C270.698 19.1967 270.958 21.1383 270.958 22.1127C270.958 24.3374 270.251 24.5482 268.015 24.5482C266.017 24.5482 264.501 25.9142 264.501 27.9159V35.205C264.501 36.2752 263.633 37.1427 262.563 37.1427H260.072Z" fill="#18181B"/>
<path d="M276.29 37.3733C274.372 37.3733 272.355 36.8043 271.261 35.1128C270.769 34.3516 270.523 33.3828 270.523 32.2064C270.523 30.5961 271.073 29.0161 272.403 28.0313C273.726 27.052 275.416 26.7 277.028 26.5781C278.058 26.4982 281.134 26.5633 281.134 25.0095C281.134 23.3847 278.804 23.2023 277.755 23.9369C276.295 24.95 276.402 25.1479 274.145 25.1479C271.46 25.1479 272.276 21.212 274.929 19.981C276.105 19.4274 277.574 19.1506 279.335 19.1506C281.409 19.1506 283.627 19.5642 285.321 20.8345C286.028 21.3573 286.566 21.9724 286.935 22.6798C287.312 23.3795 287.5 24.1407 287.5 24.9634V35.1589C287.5 36.229 286.633 37.0965 285.563 37.0965H282.737C282.081 37.0965 281.549 36.5647 281.549 35.9087C281.549 35.5688 281.014 35.4063 280.778 35.6506C279.587 36.8815 277.966 37.3733 276.29 37.3733ZM280.776 32.1948C281.163 31.6541 281.212 30.9769 281.203 30.3078C281.197 29.8488 280.712 29.532 280.27 29.6558C279.736 29.8051 279.189 29.9091 278.643 29.992C277.935 30.1025 277.133 30.3579 276.74 31.0069C276.375 31.6217 276.448 32.5204 277.04 32.9676C278.162 33.8155 280.013 33.2638 280.776 32.1948Z" fill="#18181B"/>
<path d="M233.392 13.2461C234.475 13.2461 235.353 14.1237 235.353 15.2063V35.1819C235.353 36.2645 234.475 37.1422 233.392 37.1422H230.872C229.789 37.1422 228.912 36.2645 228.912 35.1819V15.2063C228.912 14.1237 229.789 13.2461 230.872 13.2461H233.392Z" fill="#18181B"/>
<path d="M294.379 37.1425C293.49 37.1425 292.715 36.5374 292.499 35.6749L289.04 21.8348C288.734 20.6119 289.659 19.4272 290.919 19.4272H293.197C294.129 19.4272 294.928 20.0908 295.101 21.0068L296.31 27.4368C296.426 28.0581 297.311 28.0726 297.448 27.4554L298.895 20.9445C299.092 20.058 299.878 19.4272 300.786 19.4272H303.875C304.776 19.4272 305.558 20.0482 305.762 20.9256L307.267 27.3921C307.41 28.0068 308.292 27.9849 308.405 27.3638L309.553 21.0197C309.72 20.0977 310.523 19.4272 311.459 19.4272H313.726C314.986 19.4272 315.911 20.6119 315.605 21.8348L312.145 35.6749C311.93 36.5374 311.155 37.1425 310.266 37.1425H306.38C305.509 37.1425 304.745 36.5608 304.513 35.7208L302.849 29.6961C302.691 29.125 301.88 29.1284 301.727 29.7008L300.123 35.7051C299.897 36.5528 299.129 37.1425 298.252 37.1425H294.379Z" fill="#18181B"/>
<path fill-rule="evenodd" clip-rule="evenodd" d="M170.893 12.0751C170.893 9.52009 172.951 7.46191 175.506 7.46191H201.765C204.32 7.46191 206.378 9.52009 206.378 12.0751V38.3346C206.378 40.8895 204.32 42.9477 201.765 42.9477H175.506C172.951 42.9477 170.893 40.8895 170.893 38.3346V12.0751ZM191.829 18.1077C191.829 19.8819 190.41 21.3014 188.635 21.3014C186.861 21.3014 185.442 19.8819 185.442 18.1077C185.442 16.3334 186.861 14.9139 188.635 14.9139C190.41 14.9139 191.829 16.3334 191.829 18.1077ZM187.571 36.2054C189.097 36.2054 190.552 34.1117 191.084 32.9762C191.758 31.5213 192.149 28.9308 191.474 27.4049C191.013 26.3404 189.948 25.5597 188.529 25.5597C186.826 25.5597 185.442 26.9436 185.442 28.6469C185.442 30.1728 186.542 31.3793 187.961 31.6277C188.032 31.6277 188.103 31.7342 188.103 31.8052C187.961 32.6923 187.571 33.8279 186.968 34.3956C186.222 35.1053 186.435 36.2054 187.571 36.2054Z" fill="#18181B"/>
</svg>
