<svg width="4081" height="1001" viewBox="0 0 4081 1001" fill="none" xmlns="http://www.w3.org/2000/svg">
<path d="M1303.69 271.472C1303.69 241.316 1328.13 216.869 1358.29 216.869H1428.49C1458.65 216.869 1483.09 241.316 1483.09 271.472V316.454C1483.09 327.511 1492.06 336.475 1503.12 336.475H1541C1561.11 336.475 1577.4 352.772 1577.4 372.876V430.079C1577.4 450.183 1561.11 466.48 1541 466.48H1503.12C1492.06 466.48 1483.09 475.444 1483.09 486.501V675.14C1483.09 682.073 1484.29 687.924 1486.67 692.69C1489.05 697.241 1492.74 700.707 1497.72 703.091C1502.7 705.258 1522.56 706.341 1530.37 706.341C1549.5 706.341 1560.72 713.265 1564.67 731.992L1577.4 792.454C1581.54 812.11 1569.85 831.484 1550.28 836.022C1535.55 839.489 1511.26 841.764 1490.9 842.847C1449.73 845.014 1415.17 840.789 1387.22 830.172C1359.26 819.338 1338.25 802.329 1324.16 779.144C1310.08 755.96 1303.25 726.925 1303.69 692.04V486.501C1303.69 475.444 1294.72 466.48 1283.67 466.48H1266.96C1246.85 466.48 1230.56 450.183 1230.56 430.079V372.876C1230.56 352.772 1246.85 336.475 1266.96 336.475H1283.67C1294.72 336.475 1303.69 327.511 1303.69 316.454V271.472Z" fill="white" style="fill:white;fill-opacity:1;"/>
<path d="M1974.54 815.46C1944.85 796.826 1921.02 768.55 1903.03 730.631C1885.27 692.713 1876.38 644.936 1876.38 587.3C1876.38 502.229 1898.19 404.192 1977.14 357.515C2038.76 321.344 2119.52 321.177 2175.17 369.334C2185.85 378.577 2214.4 370.299 2214.4 356.176V225.884C2214.4 195.728 2238.84 171.281 2269 171.281H2339.2C2369.36 171.281 2393.81 195.728 2393.81 225.884V782.308C2393.81 812.464 2369.36 836.911 2339.2 836.911H2249.9C2231.01 836.911 2215.7 821.599 2215.7 802.711C2215.7 792.402 2195.36 786.228 2188.33 793.763C2186.18 796.058 2184.03 798.307 2181.9 800.509C2128.34 855.884 2037.25 854.541 1974.54 815.46ZM2218.3 587.3C2218.3 537.786 2200.48 468.995 2138.99 468.995C2077.29 468.995 2060.99 538.051 2060.99 587.3C2060.99 623.613 2066.97 666.911 2096.74 691.63C2165.89 746.695 2218.3 648.386 2218.3 587.3Z" fill="white" style="fill:white;fill-opacity:1;"/>
<path d="M2513.66 836.912C2483.51 836.912 2459.06 812.465 2459.06 782.309V392.292C2459.06 362.136 2483.51 337.69 2513.66 337.69H2603.2C2619.81 337.69 2633.27 351.151 2633.27 367.756C2633.27 383.497 2638.97 388.454 2649.77 388.454C2668.35 388.454 2672.24 329.127 2758.31 331.189C2813.1 331.189 2820.44 385.906 2820.44 413.363C2820.44 476.057 2800.52 481.996 2737.51 481.996C2681.18 481.996 2638.47 520.492 2638.47 576.9V782.309C2638.47 812.465 2614.02 836.912 2583.87 836.912H2513.66Z" fill="white" style="fill:white;fill-opacity:1;"/>
<path d="M2970.68 843.413C2916.63 843.413 2859.79 827.376 2828.98 779.71C2815.11 758.259 2808.18 730.958 2808.18 697.806C2808.18 652.427 2823.66 607.904 2861.15 580.151C2898.44 552.553 2946.07 542.634 2991.49 539.199C3020.52 536.948 3107.19 538.781 3107.19 494.997C3107.19 449.21 3041.54 444.068 3011.96 464.771C2970.82 493.32 2973.83 498.897 2910.23 498.897C2834.58 498.897 2857.58 387.982 2932.33 353.291C2965.48 337.69 3006.87 329.89 3056.49 329.89C3114.93 329.89 3177.44 341.547 3225.17 377.342C3245.1 392.076 3260.27 409.41 3270.67 429.344C3281.29 449.062 3286.6 470.513 3286.6 493.697V781.01C3286.6 811.166 3262.15 835.612 3232 835.612H3152.37C3133.88 835.612 3118.89 820.625 3118.89 802.138C3118.89 792.56 3103.8 787.98 3097.15 794.864C3063.59 829.554 3017.92 843.413 2970.68 843.413ZM3097.11 697.481C3108 682.243 3109.4 663.16 3109.14 644.305C3108.96 631.368 3095.3 622.442 3082.84 625.929C3067.81 630.138 3052.39 633.07 3036.99 635.404C3017.05 638.518 2994.44 645.715 2983.36 664.005C2973.07 681.33 2975.13 706.654 2991.81 719.257C3023.43 743.151 3075.6 727.606 3097.11 697.481Z" fill="white" style="fill:white;fill-opacity:1;"/>
<path d="M1761.82 163.5C1792.33 163.5 1817.06 188.232 1817.06 218.74V781.658C1817.06 812.166 1792.33 836.898 1761.82 836.898H1690.8C1660.29 836.898 1635.56 812.166 1635.56 781.658V218.74C1635.56 188.232 1660.29 163.5 1690.8 163.5H1761.82Z" fill="white" style="fill:white;fill-opacity:1;"/>
<path d="M3480.44 836.909C3455.39 836.909 3433.55 819.857 3427.47 795.549L3329.98 405.532C3321.37 371.07 3347.43 337.687 3382.95 337.687H3447.12C3473.38 337.687 3495.92 356.386 3500.78 382.199L3534.84 563.397C3538.14 580.907 3563.06 581.316 3566.93 563.923L3607.7 380.444C3613.25 355.461 3635.4 337.687 3660.99 337.687H3748.03C3773.42 337.687 3795.45 355.184 3801.21 379.911L3843.62 562.138C3847.65 579.462 3872.52 578.845 3875.69 561.342L3908.05 382.562C3912.75 356.58 3935.37 337.687 3961.77 337.687H4025.63C4061.15 337.687 4087.21 371.07 4078.6 405.532L3981.11 795.549C3975.03 819.857 3953.19 836.909 3928.14 836.909H3818.64C3794.09 836.909 3772.56 820.515 3766.02 796.843L3719.13 627.067C3714.69 610.971 3691.83 611.067 3687.52 627.2L3642.32 796.401C3635.94 820.29 3614.3 836.909 3589.57 836.909H3480.44Z" fill="white" style="fill:white;fill-opacity:1;"/>
<path fill-rule="evenodd" clip-rule="evenodd" d="M0.557373 130.5C0.557373 58.5 58.5574 0.5 130.557 0.5H870.557C942.557 0.5 1000.56 58.5 1000.56 130.5V870.5C1000.56 942.5 942.557 1000.5 870.557 1000.5H130.557C58.5574 1000.5 0.557373 942.5 0.557373 870.5V130.5ZM590.557 300.5C590.557 350.5 550.557 390.5 500.557 390.5C450.557 390.5 410.557 350.5 410.557 300.5C410.557 250.5 450.557 210.5 500.557 210.5C550.557 210.5 590.557 250.5 590.557 300.5ZM470.557 810.5C513.557 810.5 554.557 751.5 569.557 719.5C588.557 678.5 599.557 605.5 580.557 562.5C567.557 532.5 537.557 510.5 497.557 510.5C449.557 510.5 410.557 549.5 410.557 597.5C410.557 640.5 441.557 674.5 481.557 681.5C483.557 681.5 485.557 684.5 485.557 686.5C481.557 711.5 470.557 743.5 453.557 759.5C432.557 779.5 438.557 810.5 470.557 810.5Z" fill="white" style="fill:white;fill-opacity:1;"/>
</svg>
