<svg xmlns="http://www.w3.org/2000/svg" direction="ltr" width="94.61402735103559" height="94.61402735103559" viewBox="-945.2744791224986 637.023212418803 94.61402735103559 94.61402735103559" stroke-linecap="round" stroke-linejoin="round" data-color-mode="light" class="tl-container tl-theme__force-sRGB tl-theme__light" style="background-color: transparent;"><defs><clipPath id="_export_7_r188__shape_c1xhxmeVvT95lGP9aSw4b"><path d="M-33.90353181792443,-58.800527166902384L60.71049553311116,-58.800527166902384L60.71049553311116,35.813500184133204L-33.90353181792443,35.813500184133204Z"/></clipPath><clipPath id="_export_7_r188__shape_EdVrYR68WFTnyDNmum88d"><path d="M-58.523163014897705,-65.2664350077057L36.090864336137884,-65.2664350077057L36.090864336137884,29.347592343329893L-58.523163014897705,29.347592343329893Z"/></clipPath><clipPath id="_export_7_r188__shape_AGytKcmSmUktgkp4IkSiD"><path d="M-34.573149067057784,-39.30027643394499L60.040878283977804,-39.30027643394499L60.040878283977804,55.3137509170906L-34.573149067057784,55.3137509170906Z"/></clipPath><clipPath id="_export_7_r188__shape_clVVIFEWn5BGR9MRPZHEt"><path d="M-60.04087828397769,-39.30027643394499L34.5731490670579,-39.30027643394499L34.5731490670579,55.3137509170906L-60.04087828397769,55.3137509170906Z"/></clipPath><clipPath id="_export_7_r188__shape_o5Dm9IMW2Da2o4EBUQZN2"><path d="M-36.28045588589089,-38.358710573709004L58.3335714651447,-38.358710573709004L58.3335714651447,56.255316777326584L-36.28045588589089,56.255316777326584Z"/></clipPath><clipPath id="_export_7_r188__shape_Dn7Tho6vrOZ2YoYjFjb3A"><path d="M-34.35298370522855,-16.243116164211074L60.261043645807035,-16.243116164211074L60.261043645807035,78.37091118682451L-34.35298370522855,78.37091118682451Z"/></clipPath><clipPath id="_export_7_r188__shape_MP27q2D8ly2XgG2Yi7sT0"><path d="M-42.390423317502155,-27.713954906396566L52.223604033533434,-27.713954906396566L52.223604033533434,66.90007244463902L-42.390423317502155,66.90007244463902Z"/></clipPath><clipPath id="_export_7_r188__shape_DKBrkouEs-0RApglJkjfG"><path d="M-54.905850239146275,-25.701237029457616L39.70817711188931,-25.701237029457616L39.70817711188931,68.91279032157797L-54.905850239146275,68.91279032157797Z"/></clipPath><clipPath id="_export_7_r188__shape_Yc59-bgyG9D6iGcQweqrF"><path d="M-40.31571207679701,-69.1544521385689L54.298315274238576,-69.1544521385689L54.298315274238576,25.45957521246669L-40.31571207679701,25.45957521246669Z"/></clipPath><clipPath id="_export_7_r188__shape_lFDrRpSS9otnmITgfwsBu"><path d="M-53.81606703158468,-69.44901250665293L40.79796031945091,-69.44901250665293L40.79796031945091,25.165014844382654L-53.81606703158468,25.165014844382654Z"/></clipPath><clipPath id="_export_7_r188__shape_BMq2xaGH7URi4DtT8vnCe"><path d="M-60.27964165493688,-47.8535323485404L34.33438569609871,-47.8535323485404L34.33438569609871,46.76049500249519L-60.27964165493688,46.76049500249519Z"/></clipPath><clipPath id="_export_7_r188__shape_gLLAoFGJ2cJK1nh17LDXT"><path d="M-34.863395733569405,-45.740591866846216L59.75063161746618,-45.740591866846216L59.75063161746618,48.87343548418937L-34.863395733569405,48.87343548418937Z"/></clipPath><clipPath id="_export_7_r188__shape_SrrtrfoYardM6UXX5zzM3"><path d="M-45.244975941343,-32.91565951296957L49.36905140969259,-32.91565951296957L49.36905140969259,61.69836783806602L-45.244975941343,61.69836783806602Z"/></clipPath><clipPath id="_export_7_r188__shape_SCCuJ9I69d5i_M1CibdwF"><path d="M-36.20545704059373,-21.43289818121025L58.40857031044186,-21.43289818121025L58.40857031044186,73.18112916982534L-36.20545704059373,73.18112916982534Z"/></clipPath></defs><g transform="matrix(1, 0, 0, 1, -911.3709, 695.8237)" opacity="1" clip-path="url(#_export_7_r188__shape_c1xhxmeVvT95lGP9aSw4b)"><g transform="scale(1)"><path d="M0.2274,2.2861 T-0.4605,2.3639 -1.7903,3.181 -2.778,4.8144 -3.1017,7.154 -2.0365,7.7488 -0.9934,6.8981 A2.5541,2.5541 0 0 1 2.8334,10.2819 T2.3239,10.8974 0.972,12.2009 -0.8294,13.2714 -2.9439,13.6907 -5.0172,13.4937 -6.6951,12.2327 -7.6616,10.2409 -8.0161,7.5309 -7.9532,4.7881 -7.2941,2.7942 -6.2945,0.9933 -5.0127,-0.4914 -3.121,-1.6522 -1.0935,-2.2093 -0.2274,-2.2861 A2.2973,2.2973 0 0 1 0.2274,2.2861 Z" stroke-linecap="round" fill="#1d1d1d"/></g></g><g transform="matrix(1, 0, 0, 1, -886.7513, 702.2896)" opacity="1" clip-path="url(#_export_7_r188__shape_EdVrYR68WFTnyDNmum88d)"><g transform="scale(1)"><path d="M1.584,-1.7921 T2.2096,-1.2449 3.8209,-0.4692 5.8337,-0.2596 6.8546,-1.2153 7.1234,-3.0638 7.4521,-4.5751 7.5059,-5.1746 A2.5987,2.5987 0 0 1 12.6941,-4.8654 T12.4532,-3.3971 11.8994,-0.9313 11.2207,1.0798 10.3013,2.8766 8.8534,4.1573 6.7721,4.7153 4.5981,4.7368 2.4824,4.3964 0.4754,3.4712 -0.9936,2.3198 -1.584,1.7921 A2.3918,2.3918 0 0 1 1.584,-1.7921 Z" stroke-linecap="round" fill="#1d1d1d"/></g></g><g transform="matrix(1, 0, 0, 1, -910.7013, 676.3235)" opacity="1" clip-path="url(#_export_7_r188__shape_AGytKcmSmUktgkp4IkSiD)"><g transform="scale(1)"><path d="M-1.3876,1.8427 T-1.9457,1.4119 -3.5866,0.2256 -5.5636,-1.1139 -7.4805,-2.1949 -9.4601,-3.1537 -11.5067,-4.0658 -13.5225,-4.7886 -15.4885,-5.1297 -17.4538,-5.0117 -19.0975,-4.1689 -19.9032,-2.5664 -19.4443,-0.7892 -18.2448,0.7363 -16.8045,2.0376 -15.1282,3.2034 -13.7031,4.64 -13.501,6.674 -14.7229,8.309 -16.6732,9.0127 -18.7094,9.594 -20.2817,10.7323 -20.9821,12.576 -20.542,14.4781 -19.1808,15.7626 -17.4129,16.6749 -15.4269,17.27 -13.2613,17.4011 -11.09,17.3953 -9.0061,17.1338 -6.912,16.6783 -4.7734,16.1958 -2.7713,15.6452 -1.3036,15.1585 -0.752,14.9448 A2.6297,2.6297 0 0 1 1.132,19.8552 T0.3328,20.1597 -1.3621,20.7264 -3.2314,21.2493 -5.2693,21.7061 -7.2923,22.1349 -9.2619,22.5283 -11.4228,22.6917 -13.7089,22.6948 -15.7826,22.6437 -17.8875,22.1934 -20.1145,21.2725 -22.178,20.178 -23.9659,18.8949 -25.3022,17.3065 -26.1193,15.4289 -26.3927,13.2971 -26.2738,11.2122 -25.711,9.4015 -24.688,7.7328 -23.4215,6.2755 -21.724,5.1314 -19.7913,4.3628 -17.9552,3.9299 -17.6525,4.6145 -17.9869,6.6161 -18.5411,7.2186 -20.2365,5.9881 -21.9117,4.4681 -23.4012,2.7057 -24.5643,0.6603 -25.1336,-1.6373 -25.0627,-3.8439 -24.4313,-5.7515 -23.2356,-7.3622 -21.7737,-8.6639 -20.0192,-9.6359 -17.9174,-10.1516 -15.8557,-10.2204 -13.7843,-9.9703 -11.755,-9.4487 -9.8567,-8.7283 -7.7734,-7.7734 -5.7955,-6.7679 -3.9445,-5.6818 -2.1753,-4.4635 -0.568,-3.2744 0.8194,-2.26 1.3876,-1.8427 A2.3068,2.3068 0 0 1 -1.3876,1.8427 Z" stroke-linecap="round" fill="#1d1d1d"/></g></g><g transform="matrix(1, 0, 0, 1, -885.2336, 676.3235)" opacity="1" clip-path="url(#_export_7_r188__shape_clVVIFEWn5BGR9MRPZHEt)"><g transform="scale(1)"><path d="M-1.3876,-1.8427 T-0.8194,-2.26 0.568,-3.2744 2.1753,-4.4635 3.9445,-5.6818 5.7955,-6.7679 7.7734,-7.7734 9.8567,-8.7283 11.755,-9.4487 13.7843,-9.9703 15.8557,-10.2204 17.9174,-10.1516 20.0192,-9.6359 21.7737,-8.6639 23.2356,-7.3622 24.4313,-5.7515 25.0627,-3.8439 25.1336,-1.6373 24.5643,0.6603 23.4012,2.7057 21.9117,4.4681 20.2365,5.9881 18.5411,7.2186 17.9869,6.6161 17.6525,4.6145 17.9552,3.9299 19.7913,4.3628 21.724,5.1314 23.4215,6.2755 24.688,7.7328 25.711,9.4015 26.2738,11.2122 26.3927,13.2971 26.1193,15.4289 25.3022,17.3065 23.9659,18.8949 22.178,20.178 20.1145,21.2725 17.8875,22.1934 15.7826,22.6437 13.7089,22.6948 11.4228,22.6917 9.2619,22.5283 7.2923,22.1349 5.2693,21.7061 3.2314,21.2493 1.3621,20.7264 -0.3328,20.1597 -1.132,19.8552 A2.6297,2.6297 0 0 1 0.752,14.9448 T1.3036,15.1585 2.7713,15.6452 4.7734,16.1958 6.912,16.6783 9.0061,17.1338 11.09,17.3953 13.2613,17.4011 15.4269,17.27 17.4129,16.6749 19.1808,15.7626 20.542,14.4781 20.9821,12.576 20.2817,10.7323 18.7094,9.594 16.6732,9.0127 14.7229,8.309 13.501,6.674 13.7031,4.64 15.1282,3.2034 16.8045,2.0376 18.2448,0.7363 19.4443,-0.7892 19.9032,-2.5664 19.0975,-4.1689 17.4538,-5.0117 15.4885,-5.1297 13.5225,-4.7886 11.5067,-4.0658 9.4601,-3.1537 7.4805,-2.1949 5.5636,-1.1139 3.5866,0.2256 1.9457,1.4119 1.3876,1.8427 A2.3068,2.3068 0 0 1 -1.3876,-1.8427 Z" stroke-linecap="round" fill="#1d1d1d"/></g></g><g transform="matrix(1, 0, 0, 1, -908.994, 675.3819)" opacity="1" clip-path="url(#_export_7_r188__shape_o5Dm9IMW2Da2o4EBUQZN2)"><path fill="#fcfffe" d="M 5.5859 0 L 16.7578 0 Q 22.3438 0 22.3438 7 L 22.3438 23.8203 Q 22.3438 30.8203 16.7578 30.8203 L 5.5859 30.8203 Q 0 30.8203 0 23.8203 L 0 7 Q 0 0 5.5859 0"/><path stroke-width="3.5" d="M 6.2532 -0.3838 L 15.6683 -0.2563 Q 21.2543 -0.2563 21.2543 6.7437 L 22.354 23.812 Q 22.354 30.812 16.768 30.812 L 4.9206 31.6294 Q -0.6653 31.6294 -0.6653 24.6294 L 0.6673 6.6162 Q 0.6673 -0.3838 6.2532 -0.3838 M 5.6486 -0.1718 L 15.8338 -0.5235 Q 21.4197 -0.5235 21.4197 6.4765 L 21.8114 24.0002 Q 21.8114 31.0002 16.2255 31.0002 L 6.6479 30.3747 Q 1.062 30.3747 1.062 23.3747 L 0.0627 6.8282 Q 0.0627 -0.1718 5.6486 -0.1718" fill="none" stroke="#1d1d1d"/></g><g transform="matrix(1, 0, 0, 1, -910.9215, 653.2663)" opacity="1" clip-path="url(#_export_7_r188__shape_Dn7Tho6vrOZ2YoYjFjb3A)"><path fill="#fcfffe" d="M 0 14.0126 C 0 6.2736 6.2736 0 14.0126 0 C 21.7515 0 28.0251 6.2736 28.0251 14.0126 C 28.0251 21.7515 21.7515 28.0251 14.0126 28.0251 C 6.2736 28.0251 0 21.7515 0 14.0126"/><path stroke-width="3.5" d="M -0.3886 15.0981 C -0.7188 7.4199 5.5548 1.1463 13.2937 1.1463 C 22.3999 -0.0779 28.6736 6.1957 28.6736 13.9347 C 28.8254 22.2218 22.5518 28.4954 14.8129 28.4954 C 5.8851 29.1107 -0.3886 22.837 -0.3886 15.0981 M -0.9248 14.7404 C -0.8406 7.0819 5.433 0.8082 13.1719 0.8082 C 20.6183 0.2539 26.892 6.5276 26.892 14.2665 C 27.0435 20.9152 20.7698 27.1889 13.0309 27.1889 C 5.3488 28.753 -0.9248 22.4793 -0.9248 14.7404" fill="none" stroke="#1d1d1d"/></g><g transform="matrix(1, 0, 0, 1, -902.8841, 664.7372)" opacity="1" clip-path="url(#_export_7_r188__shape_MP27q2D8ly2XgG2Yi7sT0)"><g transform="scale(1)"><path d="M 0 0 m -2.3690901504812856, 0 a 2.3690901504812856,2.3690901504812856 0 1,1 4.738180300962571,0 a 2.3690901504812856,2.3690901504812856 0 1,1 -4.738180300962571,0" stroke-linecap="round" fill="#1d1d1d"/></g></g><g transform="matrix(1, 0, 0, 1, -890.3686, 662.7244)" opacity="1" clip-path="url(#_export_7_r188__shape_DKBrkouEs-0RApglJkjfG)"><g transform="scale(1)"><path d="M 0 0 m -2.378839331622426, 0 a 2.378839331622426,2.378839331622426 0 1,1 4.757678663244852,0 a 2.378839331622426,2.378839331622426 0 1,1 -4.757678663244852,0" stroke-linecap="round" fill="#1d1d1d"/></g></g><g transform="matrix(1, 0, 0, 1, -904.9588, 706.1777)" opacity="1" clip-path="url(#_export_7_r188__shape_Yc59-bgyG9D6iGcQweqrF)"><g transform="scale(1)"><path d="M2.2969,0 T2.2849,0.7547 2.2814,2.5364 2.3111,4.6411 2.2529,6.7842 1.8647,8.9575 1.1598,10.951 0.238,12.8359 -0.8779,14.7288 -2.008,16.4002 -3.1759,18.0905 -3.8041,19.0033 A2.5227,2.5227 0 0 1 -7.9559,16.1367 T-7.5689,15.5749 -6.5299,14.1376 -5.1862,12.2594 -4.0376,10.4386 -3.1443,8.6512 -2.5202,6.7003 -2.3111,4.6411 -2.2814,2.5364 -2.2849,0.7547 -2.2969,0 A2.2969,2.2969 0 0 1 2.2969,0 Z" stroke-linecap="round" fill="#1d1d1d"/></g></g><g transform="matrix(1, 0, 0, 1, -891.4584, 706.4722)" opacity="1" clip-path="url(#_export_7_r188__shape_lFDrRpSS9otnmITgfwsBu)"><g transform="scale(1)"><path d="M2.38,0 T2.3894,0.6035 2.4282,2.2334 2.4118,4.3259 2.2292,6.385 1.8242,8.3866 1.2139,10.2712 0.3808,12.1325 -0.5989,13.9594 -1.5762,15.6821 -2.4598,17.2049 -2.855,17.8466 A2.5889,2.5889 0 0 1 -7.265,15.1334 T-6.7233,14.1941 -5.6234,12.3587 -4.5774,10.5445 -3.6467,8.6168 -2.9428,6.5252 -2.5696,4.3516 -2.4282,2.2334 -2.3894,0.6035 -2.38,0 A2.38,2.38 0 0 1 2.38,0 Z" stroke-linecap="round" fill="#1d1d1d"/></g></g><g transform="matrix(1, 0, 0, 1, -884.9948, 684.8767)" opacity="1" clip-path="url(#_export_7_r188__shape_BMq2xaGH7URi4DtT8vnCe)"><g transform="scale(1)"><path d="M0,-2.3849 T0.7047,-2.3927 2.3511,-2.4218 4.187,-2.9436 5.7635,-4.0925 7.0763,-5.6108 8.2386,-7.1851 8.7704,-7.8896 A2.5737,2.5737 0 0 1 12.8496,-4.7504 T12.216,-3.8893 10.8705,-2.1205 9.4113,-0.5225 7.9137,0.7407 6.2673,1.7461 4.3319,2.3108 2.3511,2.4218 0.7047,2.3927 0,2.3849 A2.3849,2.3849 0 0 1 0,-2.3849 Z" stroke-linecap="round" fill="#1d1d1d"/></g></g><g transform="matrix(1, 0, 0, 1, -910.4111, 682.7638)" opacity="1" clip-path="url(#_export_7_r188__shape_gLLAoFGJ2cJK1nh17LDXT)"><g transform="scale(1)"><path d="M0,2.3601 T-0.6534,2.3703 -2.3828,2.4727 -4.3618,2.9196 -6.1044,3.7938 -7.7214,4.9219 -8.7937,5.8974 -9.0887,6.2641 A2.5409,2.5409 0 0 1 -12.9113,2.9159 T-11.7824,1.8382 -9.7826,0.1699 -8.0072,-0.8881 -6.1723,-1.702 -4.2683,-2.2242 -2.3008,-2.3902 -0.6534,-2.3703 0,-2.3601 A2.3601,2.3601 0 0 1 0,2.3601 Z" stroke-linecap="round" fill="#1d1d1d"/></g></g><g transform="matrix(1, 0, 0, 1, -900.0295, 669.9389)" opacity="1" clip-path="url(#_export_7_r188__shape_SrrtrfoYardM6UXX5zzM3)"><g transform="scale(1)"><path d="M2.2715,-0.6219 T2.4566,0.0322 3.3556,1.2844 4.7485,1.1644 6.0862,-0.7762 6.7448,-1.9988 A2.519,2.519 0 0 1 11.3952,-0.0612 T10.8816,1.0679 9.7651,2.9972 8.4268,4.5391 6.6403,5.9214 4.2504,6.5832 1.9915,6.2136 0.2553,5.1045 -1.1966,3.3283 -2.0518,1.4461 -2.2715,0.6219 A2.3551,2.3551 0 0 1 2.2715,-0.6219 Z" stroke-linecap="round" fill="#1d1d1d"/></g></g><g transform="matrix(1, 0, 0, 1, -909.069, 658.4561)" opacity="1" clip-path="url(#_export_7_r188__shape_SCCuJ9I69d5i_M1CibdwF)"><g transform="scale(1)"><path d="M-2.0079,-1.1184 T-1.7177,-1.638 -0.877,-3.0218 0.4253,-4.876 1.8666,-6.6828 3.2089,-8.1723 4.756,-9.6953 6.4409,-11.2304 8.0117,-12.5674 9.593,-13.8063 11.2207,-14.9072 13.1638,-15.7247 15.2628,-15.3978 16.8766,-13.9076 18.2166,-12.19 19.5241,-10.5512 20.6835,-8.9376 21.8211,-7.2622 23.2548,-4.969 24.1114,-3.519 A2.6312,2.6312 0 0 1 19.3486,-1.281 T18.7255,-2.3323 17.5859,-4.159 16.5499,-5.7401 15.4852,-7.3106 14.3389,-8.8128 13.1643,-10.5119 13.7482,-11.3332 14.0449,-10.7231 12.3165,-9.6392 10.6658,-8.3748 9.1679,-7.1151 7.6655,-5.7776 6.0313,-4.1822 4.5595,-2.5757 3.2602,-0.8791 2.2968,0.5983 2.0079,1.1184 A2.2984,2.2984 0 0 1 -2.0079,-1.1184 Z" stroke-linecap="round" fill="#1d1d1d"/></g></g></svg>