<svg xmlns="http://www.w3.org/2000/svg" direction="ltr" width="94.61402735103559" height="94.61402735103559" viewBox="-823.5120951743393 636.6109225977551 94.61402735103559 94.61402735103559" stroke-linecap="round" stroke-linejoin="round" data-color-mode="light" class="tl-container tl-theme__force-sRGB tl-theme__light" style="background-color: transparent;"><defs><clipPath id="_export_6_r17a__shape_LOP9B7KaWSDjtRtJRJ_BQ"><path d="M-34.15791566908172,-58.800527166902384L60.45611168195387,-58.800527166902384L60.45611168195387,35.813500184133204L-34.15791566908172,35.813500184133204Z"/></clipPath><clipPath id="_export_6_r17a__shape_lMCUiMz-GE_qMUcRjMgcW"><path d="M-58.523163014897705,-64.51297654209463L36.090864336137884,-64.51297654209463L36.090864336137884,30.101050808940954L-58.523163014897705,30.101050808940954Z"/></clipPath><clipPath id="_export_6_r17a__shape_ah8qK-sbKnBHj9fdn-dO2"><path d="M-34.631870027401305,-33.403534735312064L59.98215732363428,-33.403534735312064L59.98215732363428,61.210492615723524L-34.631870027401305,61.210492615723524Z"/></clipPath><clipPath id="_export_6_r17a__shape_kW0qWkqdNaQPOMBsP8OJZ"><path d="M-59.961312891190914,-32.1422929789743L34.652714459844674,-32.1422929789743L34.652714459844674,62.47173437206129L-59.961312891190914,62.47173437206129Z"/></clipPath><clipPath id="_export_6_r17a__shape_JJsc3cSFPGkyyfR8DaLBs"><path d="M-36.28045588589089,-38.35871057370889L58.3335714651447,-38.35871057370889L58.3335714651447,56.2553167773267L-36.28045588589089,56.2553167773267Z"/></clipPath><clipPath id="_export_6_r17a__shape_K7h7Soz3f1ZYi3r3PIu5M"><path d="M-34.35298370522855,-16.243116164211074L60.261043645807035,-16.243116164211074L60.261043645807035,78.37091118682451L-34.35298370522855,78.37091118682451Z"/></clipPath><clipPath id="_export_6_r17a__shape_EX0lFdzKSFPveo9hLDznT"><path d="M-42.390423317502155,-27.713954906396566L52.223604033533434,-27.713954906396566L52.223604033533434,66.90007244463902L-42.390423317502155,66.90007244463902Z"/></clipPath><clipPath id="_export_6_r17a__shape_VYcrPQy1iUtbChsIvVuuI"><path d="M-54.905850239146275,-25.701237029457502L39.70817711188931,-25.701237029457502L39.70817711188931,68.91279032157809L-54.905850239146275,68.91279032157809Z"/></clipPath><clipPath id="_export_6_r17a__shape_AiMpOsYZJ6GPkDebr7sVA"><path d="M-40.31571207679701,-69.1544521385689L54.298315274238576,-69.1544521385689L54.298315274238576,25.45957521246669L-40.31571207679701,25.45957521246669Z"/></clipPath><clipPath id="_export_6_r17a__shape_V3-pdmw8fzsOGfm2FOeFH"><path d="M-53.81606703158468,-69.44901250665305L40.79796031945091,-69.44901250665305L40.79796031945091,25.16501484438254L-53.81606703158468,25.16501484438254Z"/></clipPath><clipPath id="_export_6_r17a__shape_IZ_-9j75QsU_okv3K6Fng"><path d="M-60.27964165493688,-47.8535323485404L34.33438569609871,-47.8535323485404L34.33438569609871,46.76049500249519L-60.27964165493688,46.76049500249519Z"/></clipPath><clipPath id="_export_6_r17a__shape_A7QdNnnAxmEgrZVMR17-i"><path d="M-34.863395733569405,-45.7405918668461L59.75063161746618,-45.7405918668461L59.75063161746618,48.873435484189486L-34.863395733569405,48.873435484189486Z"/></clipPath><clipPath id="_export_6_r17a__shape_mvccB9XR8dR0XnW_aLNr2"><path d="M-45.244975941343,-32.91565951296957L49.36905140969259,-32.91565951296957L49.36905140969259,61.69836783806602L-45.244975941343,61.69836783806602Z"/></clipPath><clipPath id="_export_6_r17a__shape_SaZRvEesDz2G6u-3ZYeSy"><path d="M-36.20545704059373,-21.43289818121025L58.40857031044186,-21.43289818121025L58.40857031044186,73.18112916982534L-36.20545704059373,73.18112916982534Z"/></clipPath></defs><g transform="matrix(1, 0, 0, 1, -789.3542, 695.4114)" opacity="1" clip-path="url(#_export_6_r17a__shape_LOP9B7KaWSDjtRtJRJ_BQ)"><g transform="scale(1)"><path d="M0.414,2.3156 T-0.1464,2.425 -1.0835,3.4519 -1.4874,5.7814 -1.4663,6.4525 -1.418,5.7117 A2.5641,2.5641 0 0 1 2.758,8.6883 T2.1482,9.4966 0.6782,10.9214 -1.1724,11.7552 -3.1221,11.8646 -5.0006,10.8829 -6.1625,8.9028 -6.5379,6.8227 -6.5455,4.7381 -6.0891,2.6718 -5.2766,0.8802 -4.1417,-0.6342 -2.6419,-1.6997 -1.1048,-2.2013 -0.414,-2.3156 A2.3523,2.3523 0 0 1 0.414,2.3156 Z" stroke-linecap="round" fill="#1d1d1d"/></g></g><g transform="matrix(1, 0, 0, 1, -764.9889, 701.1239)" opacity="1" clip-path="url(#_export_6_r17a__shape_lMCUiMz-GE_qMUcRjMgcW)"><g transform="scale(1)"><path d="M1.758,-1.6157 T2.2115,-1.1338 3.625,-0.6219 4.3484,-1.5122 4.2669,-3.4452 4.422,-4.458 A2.5849,2.5849 0 0 1 9.578,-4.082 T9.4418,-2.9801 9.0569,-0.9276 8.4973,1.0151 7.5289,2.866 6.0039,4.0698 4.0305,4.3993 1.9696,4.1996 0.0818,3.3206 -1.3044,2.1207 -1.758,1.6157 A2.3877,2.3877 0 0 1 1.758,-1.6157 Z" stroke-linecap="round" fill="#1d1d1d"/></g></g><g transform="matrix(1, 0, 0, 1, -788.8802, 670.0145)" opacity="1" clip-path="url(#_export_6_r17a__shape_ah8qK-sbKnBHj9fdn-dO2)"><g transform="scale(1)"><path d="M-1.891,1.3417 T-2.2752,0.7883 -3.4126,-0.7451 -4.7856,-2.4884 -6.1032,-3.8886 -7.6362,-5.2701 -9.3218,-6.61 -11.1301,-7.3277 -12.3838,-6.5599 -12.8475,-4.5726 -12.959,-2.4194 -12.5969,-0.3829 -11.901,1.4871 -10.9496,3.2562 -9.7719,4.8992 -8.7123,6.5794 -8.7182,8.6665 -10.1783,10.3588 -11.9857,11.5086 -13.147,13.1015 -13.6286,15.1418 -13.7423,17.2665 -13.5216,19.2218 -12.6559,20.9759 -11.2944,22.4915 -9.632,23.2236 -7.7242,23.1501 -5.7683,22.6115 -3.9278,21.8084 -2.2104,20.8574 -1.3368,20.3094 A2.653,2.653 0 0 1 1.5968,24.7306 T0.1045,25.6353 -2.2734,26.9114 -4.1111,27.6775 -6.0782,28.3418 -8.0494,28.6108 -9.9891,28.5909 -11.8775,28.3253 -13.637,27.4259 -15.2761,26.0407 -16.6906,24.5583 -17.7664,22.9858 -18.538,21.083 -18.9663,19.013 -19.0659,16.9153 -18.9979,14.821 -18.6443,12.8391 -18.017,10.9687 -17.2094,9.2687 -15.9586,7.7331 -14.2277,6.8987 -13.2621,7.8346 -13.8394,8.1597 -15.0189,6.5559 -16.1452,4.6479 -17.1253,2.4846 -17.8514,0.1594 -18.1837,-2.0551 -18.1911,-4.0746 -17.9152,-6.1063 -17.2821,-7.974 -16.3583,-9.6352 -14.9936,-11.1809 -13.1169,-12.2282 -11.0375,-12.4853 -9.0239,-12.0821 -7.1047,-11.1224 -5.3377,-9.799 -3.7087,-8.3056 -2.1621,-6.7151 -0.7264,-4.9454 0.5346,-3.2048 1.4955,-1.8872 1.891,-1.3417 A2.3186,2.3186 0 0 1 -1.891,1.3417 Z" stroke-linecap="round" fill="#1d1d1d"/></g></g><g transform="matrix(1, 0, 0, 1, -763.5508, 668.7532)" opacity="1" clip-path="url(#_export_6_r17a__shape_kW0qWkqdNaQPOMBsP8OJZ)"><g transform="scale(1)"><path d="M-2.0231,-1.1561 T-1.689,-1.7273 -0.8832,-3.1039 0.1696,-4.9203 1.3751,-6.7734 2.6746,-8.4402 4.0489,-10.0094 5.5463,-11.4101 7.279,-12.4757 9.1846,-12.9624 11.0969,-12.7431 12.7907,-11.7399 14.1051,-10.0076 14.9922,-8.1099 15.5021,-6.2475 15.7173,-4.2339 15.7145,-2.1974 15.4473,0.0234 14.8442,2.3979 14.0358,4.6215 13.1095,6.5812 12.1068,8.2764 11.3923,7.8365 12.2269,7.1392 13.9342,8.4446 15.0373,10.2135 15.751,12.1693 16.2267,14.2004 16.4378,16.3134 16.4517,18.3598 16.3315,20.351 15.9502,22.3092 15.2672,24.1511 14.2438,25.8369 13.0171,27.3728 11.4458,28.8244 9.4568,29.7125 7.4651,29.8716 5.4272,29.6705 3.4814,28.9989 1.6725,28.0533 -0.5401,26.6187 -1.806,25.6634 A2.6632,2.6632 0 0 1 1.586,21.5566 T2.2319,22.0664 3.7255,23.0744 5.5415,24.0584 7.5522,24.4622 9.2863,23.5671 10.412,21.8749 10.9946,19.9493 11.1391,17.7796 11.0225,15.5853 10.6318,13.5846 9.7348,11.9399 8.1842,10.6309 6.922,8.7777 7.1369,6.5177 8.1956,4.6728 9.1333,2.8586 9.8637,0.9154 10.3504,-1.0363 10.5315,-3.0531 10.3768,-5.1327 9.8561,-7.0979 8.6905,-7.4559 7.203,-6.1687 5.7555,-4.5632 4.4713,-2.8806 3.3075,-1.0409 2.3456,0.5782 2.0231,1.1561 A2.3301,2.3301 0 0 1 -2.0231,-1.1561 Z" stroke-linecap="round" fill="#1d1d1d"/></g></g><g transform="matrix(1, 0, 0, 1, -787.2316, 674.9696)" opacity="1" clip-path="url(#_export_6_r17a__shape_JJsc3cSFPGkyyfR8DaLBs)"><path fill="#fcfffe" d="M 5.5859 0 L 16.7578 0 Q 22.3438 0 22.3438 7 L 22.3438 23.8203 Q 22.3438 30.8203 16.7578 30.8203 L 5.5859 30.8203 Q 0 30.8203 0 23.8203 L 0 7 Q 0 0 5.5859 0"/><path stroke-width="3.5" d="M 4.6927 -0.6072 L 17.7007 0.6256 Q 23.2866 0.6256 23.2866 7.6256 L 21.9376 24.7946 Q 21.9376 31.7946 16.3517 31.7946 L 4.6804 30.7517 Q -0.9055 30.7517 -0.9055 23.7517 L -0.8932 6.3928 Q -0.8932 -0.6072 4.6927 -0.6072 M 5.1651 -1.1153 L 17.8295 0.8913 Q 23.4155 0.8913 23.4155 7.8913 L 22.5623 22.7111 Q 22.5623 29.7111 16.9763 29.7111 L 6.453 31.8377 Q 0.8671 31.8377 0.8671 24.8377 L -0.4208 5.8847 Q -0.4208 -1.1153 5.1651 -1.1153" fill="none" stroke="#1d1d1d"/></g><g transform="matrix(1, 0, 0, 1, -789.1591, 652.854)" opacity="1" clip-path="url(#_export_6_r17a__shape_K7h7Soz3f1ZYi3r3PIu5M)"><path fill="#fcfffe" d="M 0 14.0126 C 0 6.2736 6.2736 0 14.0126 0 C 21.7515 0 28.0251 6.2736 28.0251 14.0126 C 28.0251 21.7515 21.7515 28.0251 14.0126 28.0251 C 6.2736 28.0251 0 21.7515 0 14.0126"/><path stroke-width="3.5" d="M -0.2012 13.0624 C -0.3628 6.0125 5.9108 -0.2611 13.6497 -0.2611 C 22.8774 0.216 29.1511 6.4896 29.1511 14.2286 C 28.6406 22.7543 22.367 29.028 14.6281 29.028 C 6.0725 27.0749 -0.2012 20.8013 -0.2012 13.0624 M -0.8182 13.2787 C -0.4846 5.747 5.7891 -0.5267 13.528 -0.5267 C 21.1591 -0.0446 27.4327 6.229 27.4327 13.968 C 26.8585 21.6957 20.5849 27.9693 12.846 27.9693 C 5.4555 27.2913 -0.8182 21.0177 -0.8182 13.2787" fill="none" stroke="#1d1d1d"/></g><g transform="matrix(1, 0, 0, 1, -781.1217, 664.3249)" opacity="1" clip-path="url(#_export_6_r17a__shape_EX0lFdzKSFPveo9hLDznT)"><g transform="scale(1)"><path d="M 0 0 m -1.914482130656828, 0 a 1.914482130656828,1.914482130656828 0 1,1 3.828964261313656,0 a 1.914482130656828,1.914482130656828 0 1,1 -3.828964261313656,0" stroke-linecap="round" fill="#1d1d1d"/></g></g><g transform="matrix(1, 0, 0, 1, -768.6062, 662.3122)" opacity="1" clip-path="url(#_export_6_r17a__shape_VYcrPQy1iUtbChsIvVuuI)"><g transform="scale(1)"><path d="M 0 0 m -2.113960219977122, 0 a 2.113960219977122,2.113960219977122 0 1,1 4.227920439954244,0 a 2.113960219977122,2.113960219977122 0 1,1 -4.227920439954244,0" stroke-linecap="round" fill="#1d1d1d"/></g></g><g transform="matrix(1, 0, 0, 1, -783.1964, 705.7654)" opacity="1" clip-path="url(#_export_6_r17a__shape_AiMpOsYZJ6GPkDebr7sVA)"><g transform="scale(1)"><path d="M2.2969,0 T2.2849,0.7547 2.2814,2.5364 2.3111,4.6411 2.2529,6.7842 1.8647,8.9575 1.1598,10.951 0.238,12.8359 -0.8779,14.7288 -2.008,16.4002 -3.1759,18.0905 -3.8041,19.0033 A2.5227,2.5227 0 0 1 -7.9559,16.1367 T-7.5689,15.5749 -6.5299,14.1376 -5.1862,12.2594 -4.0376,10.4386 -3.1443,8.6512 -2.5202,6.7003 -2.3111,4.6411 -2.2814,2.5364 -2.2849,0.7547 -2.2969,0 A2.2969,2.2969 0 0 1 2.2969,0 Z" stroke-linecap="round" fill="#1d1d1d"/></g></g><g transform="matrix(1, 0, 0, 1, -769.696, 706.0599)" opacity="1" clip-path="url(#_export_6_r17a__shape_V3-pdmw8fzsOGfm2FOeFH)"><g transform="scale(1)"><path d="M2.38,0 T2.3894,0.6035 2.4282,2.2334 2.4118,4.3259 2.2292,6.385 1.8242,8.3866 1.2139,10.2712 0.3808,12.1325 -0.5989,13.9594 -1.5762,15.6821 -2.4598,17.2049 -2.855,17.8466 A2.5889,2.5889 0 0 1 -7.265,15.1334 T-6.7233,14.1941 -5.6234,12.3587 -4.5774,10.5445 -3.6467,8.6168 -2.9428,6.5252 -2.5696,4.3516 -2.4282,2.2334 -2.3894,0.6035 -2.38,0 A2.38,2.38 0 0 1 2.38,0 Z" stroke-linecap="round" fill="#1d1d1d"/></g></g><g transform="matrix(1, 0, 0, 1, -763.2325, 684.4645)" opacity="1" clip-path="url(#_export_6_r17a__shape_IZ_-9j75QsU_okv3K6Fng)"><g transform="scale(1)"><path d="M0,-2.3849 T0.7047,-2.3927 2.3511,-2.4218 4.187,-2.9436 5.7635,-4.0925 7.0763,-5.6108 8.2386,-7.1851 8.7704,-7.8896 A2.5737,2.5737 0 0 1 12.8496,-4.7504 T12.216,-3.8893 10.8705,-2.1205 9.4113,-0.5225 7.9137,0.7407 6.2673,1.7461 4.3319,2.3108 2.3511,2.4218 0.7047,2.3927 0,2.3849 A2.3849,2.3849 0 0 1 0,-2.3849 Z" stroke-linecap="round" fill="#1d1d1d"/></g></g><g transform="matrix(1, 0, 0, 1, -788.6487, 682.3515)" opacity="1" clip-path="url(#_export_6_r17a__shape_A7QdNnnAxmEgrZVMR17-i)"><g transform="scale(1)"><path d="M0,2.3601 T-0.6534,2.3703 -2.3828,2.4727 -4.3618,2.9196 -6.1044,3.7938 -7.7214,4.9219 -8.7937,5.8974 -9.0887,6.2641 A2.5409,2.5409 0 0 1 -12.9113,2.9159 T-11.7824,1.8382 -9.7826,0.1699 -8.0072,-0.8881 -6.1723,-1.702 -4.2683,-2.2242 -2.3008,-2.3902 -0.6534,-2.3703 0,-2.3601 A2.3601,2.3601 0 0 1 0,2.3601 Z" stroke-linecap="round" fill="#1d1d1d"/></g></g><g transform="matrix(1, 0, 0, 1, -778.2671, 669.5266)" opacity="1" clip-path="url(#_export_6_r17a__shape_mvccB9XR8dR0XnW_aLNr2)"><g transform="scale(1)"><path d="M2.2715,-0.6219 T2.4566,0.0322 3.3556,1.2844 4.7485,1.1644 6.0862,-0.7762 6.7448,-1.9988 A2.519,2.519 0 0 1 11.3952,-0.0612 T10.8816,1.0679 9.7651,2.9972 8.4268,4.5391 6.6403,5.9214 4.2504,6.5832 1.9915,6.2136 0.2553,5.1045 -1.1966,3.3283 -2.0518,1.4461 -2.2715,0.6219 A2.3551,2.3551 0 0 1 2.2715,-0.6219 Z" stroke-linecap="round" fill="#1d1d1d"/></g></g><g transform="matrix(1, 0, 0, 1, -787.3066, 658.0438)" opacity="1" clip-path="url(#_export_6_r17a__shape_SaZRvEesDz2G6u-3ZYeSy)"><g transform="scale(1)"><path d="M-2.0079,-1.1184 T-1.7177,-1.638 -0.877,-3.0218 0.4253,-4.876 1.8666,-6.6828 3.2089,-8.1723 4.756,-9.6953 6.4409,-11.2304 8.0117,-12.5674 9.593,-13.8063 11.2207,-14.9072 13.1638,-15.7247 15.2628,-15.3978 16.8766,-13.9076 18.2166,-12.19 19.5241,-10.5512 20.6835,-8.9376 21.8211,-7.2622 23.2548,-4.969 24.1114,-3.519 A2.6312,2.6312 0 0 1 19.3486,-1.281 T18.7255,-2.3323 17.5859,-4.159 16.5499,-5.7401 15.4852,-7.3106 14.3389,-8.8128 13.1643,-10.5119 13.7482,-11.3332 14.0449,-10.7231 12.3165,-9.6392 10.6658,-8.3748 9.1679,-7.1151 7.6655,-5.7776 6.0313,-4.1822 4.5595,-2.5757 3.2602,-0.8791 2.2968,0.5983 2.0079,1.1184 A2.2984,2.2984 0 0 1 -2.0079,-1.1184 Z" stroke-linecap="round" fill="#1d1d1d"/></g></g></svg>