<svg xmlns="http://www.w3.org/2000/svg" width="15" height="15" fill="none"><path fill="#2E2E2E" d="M6.792 4.694a.5.5 0 0 1 .665-.084l.04.031 2.321 2 .04.038a.5.5 0 0 1-.04.72l-2.321 2a.5.5 0 0 1-.653-.758l1.302-1.12H1a.5.5 0 1 1 0-1h7.146L6.844 5.398l-.037-.035a.5.5 0 0 1-.016-.67m5.5 9.807h-6.29a.5.5 0 0 1 0-1h6.29c.488 0 .763-.125.922-.29.162-.168.287-.464.287-.982V2.776h1v9.452c0 .663-.16 1.253-.567 1.676-.411.426-.99.596-1.642.596m0-12.996h-6.29a.5.5 0 0 1 0-1h6.29l.122.002c.601.02 1.134.195 1.52.594.407.423.567 1.013.567 1.676h-1c0-.518-.125-.814-.287-.982-.139-.144-.367-.258-.749-.284z" style="fill:#2e2e2e;fill:color(display-p3 .1804 .1804 .1804);fill-opacity:1"/></svg>