<svg xmlns="http://www.w3.org/2000/svg" width="15" height="15" fill="none"><path fill="#2E2E2E" d="M12.143 12.607V14H2.857v-1.393zm.464-.464V2.857a.464.464 0 0 0-.464-.464H2.857a.464.464 0 0 0-.464.464v9.286c0 .256.208.464.464.464V14l-.095-.002a1.857 1.857 0 0 1-1.76-1.76L1 12.143V2.857c0-.994.78-1.805 1.762-1.855L2.857 1h9.286l.095.002c.982.05 1.762.861 1.762 1.855v9.286l-.002.095a1.857 1.857 0 0 1-1.76 1.76l-.095.002v-1.393a.464.464 0 0 0 .464-.464" style="fill:#2e2e2e;fill:color(display-p3 .1804 .1804 .1804);fill-opacity:1"/><path fill="#2E2E2E" d="M5 1h1.5v13H5z" style="fill:#2e2e2e;fill:color(display-p3 .1804 .1804 .1804);fill-opacity:1"/></svg>