<svg xmlns="http://www.w3.org/2000/svg" width="15" height="15" fill="none"><g clip-path="url(#a)"><path fill="#000" d="M7.499.877a6.623 6.623 0 1 1 0 13.246A6.623 6.623 0 0 1 7.5.877m0 .95a5.674 5.674 0 1 0 0 11.347 5.674 5.674 0 0 0 0-11.347m0 7.923a.75.75 0 1 1 0 1.5.75.75 0 0 1 0-1.5m0-5.924c1.435 0 2.55 1.103 2.55 2.424 0 1.104-.73 1.64-1.265 1.965-.3.182-.48.272-.635.392a.5.5 0 0 0-.1.097.55.55 0 0 1-1.099-.003c0-.468.282-.773.525-.962.22-.172.54-.341.74-.463.465-.283.735-.535.735-1.026 0-.677-.585-1.324-1.45-1.325s-1.45.648-1.45 1.325a.55.55 0 0 1-1.1 0c0-1.322 1.115-2.424 2.55-2.424"/></g><defs><clipPath id="a"><path fill="#fff" d="M0 0h15v15H0z"/></clipPath></defs></svg>