<svg xmlns="http://www.w3.org/2000/svg" width="15" height="15" fill="none"><g clip-path="url(#a)"><path fill="#000" d="M7.428.666a.3.3 0 0 1 .554 0L9.618 4.6a.3.3 0 0 0 .254.184l4.247.34a.3.3 0 0 1 .171.528l-3.236 2.772a.3.3 0 0 0-.097.297l.99 4.145a.3.3 0 0 1-.45.326L7.862 10.97a.3.3 0 0 0-.312 0l-3.637 2.222a.3.3 0 0 1-.448-.326l.989-4.145a.3.3 0 0 0-.097-.297L1.12 5.652a.3.3 0 0 1 .171-.527l4.248-.34a.3.3 0 0 0 .253-.185z"/></g><defs><clipPath id="a"><path fill="#fff" d="M.205 0h15v15h-15z"/></clipPath></defs></svg>