<svg width="15" height="15" viewBox="0 0 15 15" fill="none" xmlns="http://www.w3.org/2000/svg">
<path d="M7.50019 13.4478V4.01711M7.50019 4.01711C7.50019 2.08922 10.5566 1.97537 11.7373 2.00331C11.997 2.00945 12.195 2.22451 12.195 2.48433L12.1945 10.9407C12.1945 11.2334 11.9451 11.4663 11.6524 11.4616C10.4173 11.4415 7.50042 11.5935 7.50042 13.4771C7.50042 11.5934 4.58217 11.4415 3.34678 11.4616C3.05405 11.4663 2.80469 11.2334 2.8047 10.9407L2.80487 2.48419C2.80488 2.22438 3.00287 2.00934 3.26261 2.0032C4.44333 1.97529 7.50019 2.08919 7.50019 4.01711Z" stroke="black"/>
<path d="M3 3H1.5C1.22386 3 1 3.22386 1 3.5V12.5C1 12.7761 1.22386 13 1.5 13H13.5C13.7761 13 14 12.7761 14 12.5V3.5C14 3.22386 13.7761 3 13.5 3H12" stroke="black"/>
</svg>
