<svg xmlns="http://www.w3.org/2000/svg" width="15" height="15" fill="none"><g fill="#000" fill-rule="evenodd" clip-path="url(#a)" clip-rule="evenodd"><path d="M11.646.646a.5.5 0 0 1 .707 0l2 2a.5.5 0 0 1 0 .708l-3.942 3.942a1 1 0 0 1-.26.188L6.224 9.447a.5.5 0 0 1-.671-.67l1.964-3.928a1 1 0 0 1 .187-.26zM12 1.707l-3.59 3.59-1.037 2.076.254.254L9.704 6.59 13.293 3z"/><path d="M12.53.47a.75.75 0 0 0-1.06 0zm0 0 2 2a.75.75 0 0 1 0 1.06l-3.942 3.943a1.3 1.3 0 0 1-.325.234L6.335 9.671A.75.75 0 0 1 5.33 8.665l1.964-3.928q.091-.181.234-.325L11.47.47M6.224 9.447l3.927-1.963a1 1 0 0 0 .26-.188l3.943-3.942a.5.5 0 0 0 0-.708l-2-2a.5.5 0 0 0-.708 0L7.704 4.59a1 1 0 0 0-.187.26L5.553 8.776a.5.5 0 0 0 .67.671m2.392-4.003-.939 1.879 1.879-.94L12.939 3 12 2.06zm-.205-.148L7.373 7.373l.254.254L9.704 6.59 13.293 3 12 1.707z"/><path d="M7.5 1.5h-5a2 2 0 0 0-2 2v9a2 2 0 0 0 2 2h9a2 2 0 0 0 2-2v-5H12v5a.5.5 0 0 1-.5.5h-9a.5.5 0 0 1-.5-.5v-9a.5.5 0 0 1 .5-.5h5z"/></g><defs><clipPath id="a"><path fill="#fff" d="M0 0h15v15H0z"/></clipPath></defs></svg>