<svg xmlns="http://www.w3.org/2000/svg" width="15" height="15" fill="none"><path fill="#000" stroke="#000" stroke-width=".25" d="M10.915 8.298c.22.217.488.327.795.327q.308 0 .566-.153.251-.151.403-.404a1.1 1.1 0 0 0 .159-.57q-.001-.464-.333-.791a1.1 1.1 0 0 0-.795-.332 1.1 1.1 0 0 0-.795.332c-.22.217-.332.483-.332.79q0 .468.332.8Zm-4.005 0c.22.217.488.327.795.327q.308 0 .565-.153.252-.151.404-.404a1.1 1.1 0 0 0 .158-.57q0-.464-.333-.791a1.1 1.1 0 0 0-.794-.332 1.1 1.1 0 0 0-.795.332c-.22.217-.333.483-.333.79q0 .468.333.8Zm-4.005 0c.22.217.488.327.795.327q.309 0 .565-.153.252-.151.404-.404a1.1 1.1 0 0 0 .158-.57q-.001-.464-.332-.791a1.1 1.1 0 0 0-.795-.332 1.1 1.1 0 0 0-.795.332c-.22.217-.333.483-.333.79q0 .468.333.8Z"/></svg>