<svg xmlns="http://www.w3.org/2000/svg" width="15" height="15" fill="none"><g clip-path="url(#a)"><path fill="#000" fill-rule="evenodd" d="M7.284 1.197a.6.6 0 0 1 .842 0l6.75 6.64a.6.6 0 0 1-.842.856l-.829-.816v5.598a.5.5 0 0 1-.5.5h-10a.5.5 0 0 1-.5-.5V7.877l-.83.816a.6.6 0 1 1-.84-.856zm.421 1.27 4.5 4.426v6.082h-2v-3.5a.5.5 0 0 0-.5-.5h-3a.5.5 0 0 0-.5.5v3.5h-3V6.893zm-.5 10.508h2v-3h-2z" clip-rule="evenodd"/></g><defs><clipPath id="a"><path fill="#fff" d="M.205 0h15v15h-15z"/></clipPath></defs></svg>