<svg xmlns="http://www.w3.org/2000/svg" width="15" height="15" fill="none"><path fill="#000" fill-rule="evenodd" d="M8.717 3.005c.676-.46 1.532-.468 2.167-.051.144.095.298.245.71.657s.563.566.657.71c.418.636.409 1.49-.051 2.167-.105.154-.267.32-.694.747l-.619.619a.5.5 0 0 0 .707.707l.619-.619.043-.043c.37-.37.606-.606.771-.849.675-.994.71-2.288.06-3.278-.159-.241-.39-.472-.741-.824l-.045-.044-.044-.045c-.352-.351-.583-.582-.824-.74-.99-.651-2.284-.616-3.278.059-.243.165-.48.402-.849.771l-.043.043-.619.619a.5.5 0 1 0 .708.707L7.97 3.7c.427-.427.593-.589.747-.694m-4.194 4.14a.5.5 0 0 0-.707-.707l-.619.62-.043.042c-.37.37-.606.606-.77.85-.676.993-.711 2.287-.06 3.277.158.241.389.472.74.824l.045.044.045.045c.35.351.582.582.823.741.99.65 2.284.615 3.278-.06.243-.165.48-.402.85-.771l.042-.043.619-.619a.5.5 0 1 0-.707-.707l-.619.619c-.427.427-.593.59-.747.694-.676.46-1.531.468-2.167.051-.144-.095-.298-.245-.71-.657s-.562-.566-.657-.71c-.417-.635-.408-1.49.051-2.167.105-.154.267-.32.694-.747zm5.304-1.06a.5.5 0 1 0-.707-.708L5.584 8.914a.5.5 0 1 0 .707.707z" clip-rule="evenodd"/></svg>