<svg xmlns="http://www.w3.org/2000/svg" width="15" height="15" fill="none"><path fill="#000" fill-rule="evenodd" d="M8.858 3.212c.597-.405 1.342-.408 1.889-.049.117.077.25.204.67.625.421.42.548.553.625.67.36.547.357 1.293-.049 1.89-.088.13-.229.275-.664.71l-.619.62a.75.75 0 1 0 1.061 1.06l.619-.619.056-.056c.356-.356.61-.609.788-.872.73-1.074.77-2.477.062-3.556-.173-.263-.422-.512-.76-.85l-.058-.058-.057-.057c-.338-.339-.587-.587-.85-.76-1.08-.709-2.483-.668-3.556.061-.264.18-.516.432-.873.789l-.056.056-.618.618a.75.75 0 0 0 1.06 1.061l.62-.619c.434-.435.58-.576.71-.664M4.7 7.324a.75.75 0 1 0-1.06-1.061l-.62.619-.055.056c-.357.356-.61.609-.789.872-.729 1.073-.77 2.477-.062 3.555.173.264.422.513.76.85l.058.058.058.058c.338.338.586.587.85.76 1.079.709 2.482.667 3.556-.062.263-.179.516-.432.872-.788l.056-.056.619-.619a.75.75 0 0 0-1.061-1.06l-.619.618c-.435.435-.58.576-.71.664-.597.406-1.343.409-1.89.05-.117-.078-.25-.205-.67-.625s-.548-.554-.625-.671c-.359-.547-.356-1.292.05-1.89.087-.129.228-.275.663-.71zm5.304-1.062a.75.75 0 1 0-1.061-1.06L5.407 8.737a.75.75 0 0 0 1.061 1.061z" clip-rule="evenodd"/></svg>