<svg xmlns="http://www.w3.org/2000/svg" width="15" height="15" fill="none"><path fill="#2E2E2E" d="M12 12v1.5H3V12zm0-9H3v10.5l-.077-.002a1.5 1.5 0 0 1-1.421-1.42L1.5 12V3a1.5 1.5 0 0 1 1.423-1.498L3 1.5h9A1.5 1.5 0 0 1 13.5 3v9l-.002.077A1.5 1.5 0 0 1 12 13.5z" style="fill:#2e2e2e;fill:color(display-p3 .1804 .1804 .1804);fill-opacity:1"/><path fill="#2E2E2E" d="M3.833 6.89a.75.75 0 0 1 .999.114l.048.06 2.307 3.23.042.065a.75.75 0 0 1-1.215.868l-.048-.06L3.66 7.935l-.042-.065a.75.75 0 0 1 .216-.981" style="fill:#2e2e2e;fill:color(display-p3 .1804 .1804 .1804);fill-opacity:1"/><path fill="#2E2E2E" d="M11.137 3.638a.75.75 0 0 0-.992.163l-.045.062-4.154 6.462a.75.75 0 0 0 1.262.811l4.154-6.461.038-.067a.75.75 0 0 0-.264-.97" style="fill:#2e2e2e;fill:color(display-p3 .1804 .1804 .1804);fill-opacity:1"/></svg>