<svg xmlns="http://www.w3.org/2000/svg" width="15" height="15" fill="none"><g fill="#000" stroke="#000" stroke-width=".25" clip-path="url(#a)"><path d="M9.037 6.034a3.23 3.23 0 0 0-1.48-2.073 1.975 1.975 0 1 1 1.48 2.073ZM9.525.895a3.226 3.226 0 0 0-3.17 2.634A3.225 3.225 0 1 0 9.056 7.31q.23.033.468.034a3.225 3.225 0 0 0 0-6.45ZM3.91 6.72a1.975 1.975 0 1 1 3.95 0 1.975 1.975 0 0 1-3.95 0Z"/><path stroke-linecap="round" d="M8.609 7.436q.44-.09.916-.091c2.31 0 4.055 1.65 4.055 3.535a.625.625 0 1 0 1.25 0c0-2.71-2.447-4.785-5.305-4.785q-.6.001-1.164.115a.625.625 0 1 0 .248 1.226ZM1.83 13.48c0-1.886 1.745-3.535 4.055-3.535s4.055 1.65 4.055 3.535a.625.625 0 1 0 1.25 0c0-2.71-2.447-4.785-5.305-4.785S.58 10.77.58 13.48a.625.625 0 1 0 1.25 0Z"/></g><defs><clipPath id="a"><path fill="#fff" d="M.205 0h15v15h-15z"/></clipPath></defs></svg>