<svg xmlns="http://www.w3.org/2000/svg" width="15" height="15" fill="none"><g fill="#000" fill-rule="evenodd" clip-path="url(#a)" clip-rule="evenodd"><path d="M2.705 11a1.5 1.5 0 0 1-1.5-1.5v-7a1.5 1.5 0 0 1 1.5-1.5h7a1.5 1.5 0 0 1 1.5 1.5V4h1.5a1.5 1.5 0 0 1 1.5 1.5v7a1.5 1.5 0 0 1-1.5 1.5h-7a1.5 1.5 0 0 1-1.5-1.5v-7a1.5 1.5 0 0 1 1.5-1.5h4.5V2.5a.5.5 0 0 0-.5-.5h-7a.5.5 0 0 0-.5.5v7a.5.5 0 0 0 .5.5h1.5v1zm3-6a.5.5 0 0 0-.5.5v7a.5.5 0 0 0 .5.5h7a.5.5 0 0 0 .5-.5v-7a.5.5 0 0 0-.5-.5z"/><path d="M2.705 11a1.5 1.5 0 0 1-1.5-1.5v-7a1.5 1.5 0 0 1 1.5-1.5h7a1.5 1.5 0 0 1 1.5 1.5V4h1.5a1.5 1.5 0 0 1 1.5 1.5v7a1.5 1.5 0 0 1-1.5 1.5h-7a1.5 1.5 0 0 1-1.5-1.5V11zm1.25.25h-1.25A1.75 1.75 0 0 1 .955 9.5v-7c0-.966.784-1.75 1.75-1.75h7c.967 0 1.75.784 1.75 1.75v1.25h1.25c.967 0 1.75.783 1.75 1.75v7a1.75 1.75 0 0 1-1.75 1.75h-7a1.75 1.75 0 0 1-1.75-1.75zm.25-1.25V5.5a1.5 1.5 0 0 1 1.5-1.5h4.5V2.5a.5.5 0 0 0-.5-.5h-7a.5.5 0 0 0-.5.5v7a.5.5 0 0 0 .5.5zm-.25-.25h-1.25a.25.25 0 0 1-.25-.25v-7a.25.25 0 0 1 .25-.25h7a.25.25 0 0 1 .25.25v1.25h-4.25a1.75 1.75 0 0 0-1.75 1.75zm1.75-4.5a.25.25 0 0 0-.25.25v7c0 .138.112.25.25.25h7a.25.25 0 0 0 .25-.25v-7a.25.25 0 0 0-.25-.25zm-.5.25a.5.5 0 0 1 .5-.5h7a.5.5 0 0 1 .5.5v7a.5.5 0 0 1-.5.5h-7a.5.5 0 0 1-.5-.5z"/></g><defs><clipPath id="a"><path fill="#fff" d="M.205 0h15v15h-15z"/></clipPath></defs></svg>