<svg xmlns="http://www.w3.org/2000/svg" width="15" height="15" fill="none"><path fill="#2E2E2E" fill-rule="evenodd" d="M9.261 1.497c1.072-.266 2.248-.247 2.73-.225a.74.74 0 0 1 .704.743v.245h1.055a.75.75 0 0 1 .75.75v9.503a.75.75 0 0 1-.75.75H1.25a.75.75 0 0 1-.75-.75V3.01a.75.75 0 0 1 .75-.75h1.055v-.245l.003-.072a.74.74 0 0 1 .702-.671l.211-.008c.562-.015 1.58 0 2.518.232.535.133 1.088.347 1.516.705q.132.11.245.238.113-.128.246-.238c.427-.358.98-.572 1.515-.705m3.433 9.479-.004.08a.76.76 0 0 1-.786.675c-.486-.02-1.533-.025-2.441.208a3.3 3.3 0 0 0-.833.324h4.87V3.26h-.805zM1.5 3.26v9.003h4.87a3.3 3.3 0 0 0-.833-.324c-.795-.204-1.696-.225-2.235-.214l-.207.006a.76.76 0 0 1-.786-.675l-.004-.08V3.26zm1.805-.997v8.462c.584-.011 1.574.013 2.48.246.419.107.847.265 1.215.505V3.778a1 1 0 0 0-.386-.81c-.263-.22-.651-.386-1.116-.501-.785-.195-1.664-.215-2.193-.204m8.39 0c-.53-.01-1.408.009-2.193.204-.464.115-.852.281-1.115.501a1 1 0 0 0-.38.682L8 3.778v7.698c.368-.24.796-.398 1.214-.505.907-.233 1.896-.257 2.48-.246z" clip-rule="evenodd" style="fill:#2e2e2e;fill:color(display-p3 .1804 .1804 .1804);fill-opacity:1"/></svg>