<svg xmlns="http://www.w3.org/2000/svg" width="15" height="15" fill="none"><path stroke="#000" stroke-linecap="round" stroke-linejoin="round" d="m3.749 9.31.938-1.687c.101-.188.256-.347.448-.46.192-.112.412-.174.639-.18h6.725m0 0c.191 0 .38.04.551.119s.322.191.439.332c.117.14.198.304.236.478.039.174.034.353-.014.526l-1.1 3.489c-.069.25-.227.473-.447.631a1.3 1.3 0 0 1-.771.241H2.499a1.3 1.3 0 0 1-.884-.34 1.12 1.12 0 0 1-.366-.823v-7.56c0-.309.132-.605.366-.823.235-.218.553-.34.884-.34h2.438c.209-.002.415.045.6.136.184.092.34.225.456.387l.506.698c.114.16.269.293.451.384s.386.14.593.14h3.706c.332 0 .65.122.884.34s.366.514.366.822z"/></svg>