<svg xmlns="http://www.w3.org/2000/svg" width="15" height="15" fill="none"><path fill="#2E2E2E" d="M8.054 2.5H2.52v10h9.98V6.965H14V12.5l-.002.077A1.5 1.5 0 0 1 12.5 14H2.52l-.077-.002a1.5 1.5 0 0 1-1.42-1.42L1.02 12.5v-10a1.5 1.5 0 0 1 1.423-1.498L2.521 1h5.533z" style="fill:#2e2e2e;fill:color(display-p3 .1804 .1804 .1804);fill-opacity:1"/><path fill="#2E2E2E" fill-rule="evenodd" d="M12.455.25c.2 0 .391.08.532.222l1.636 1.65a.75.75 0 0 1 0 1.056l-3.872 3.904a1 1 0 0 1-.227.17l-.086.043-2.82 1.218a.75.75 0 0 1-.987-.982l1.208-2.843.042-.085a1 1 0 0 1 .169-.228L11.922.472l.055-.05a.75.75 0 0 1 .477-.172M9.182 5.363l-.437 1.03 1.01-.437 3.28-3.307-.58-.584z" clip-rule="evenodd" style="fill:#2e2e2e;fill:color(display-p3 .1804 .1804 .1804);fill-opacity:1"/></svg>