<svg xmlns="http://www.w3.org/2000/svg" width="15" height="15" fill="none"><path fill="#000" fill-rule="evenodd" d="M3.005 1h-.05c-.229 0-.426 0-.6.041A1.5 1.5 0 0 0 1.247 2.15c-.042.174-.042.371-.042.6v2.5c0 .229 0 .426.042.6a1.5 1.5 0 0 0 1.108 1.11c.174.041.371.041.6.041h2.5c.229 0 .426 0 .6-.041a1.5 1.5 0 0 0 1.109-1.11c.042-.174.041-.371.041-.6v-2.5c0-.229 0-.426-.041-.6a1.5 1.5 0 0 0-1.109-1.11C5.881 1 5.684 1 5.455 1zm-.417 1.014c.043-.01.11-.014.417-.014h2.4c.308 0 .374.003.417.014a.5.5 0 0 1 .37.37c.01.042.013.108.013.416v2.4c0 .308-.003.374-.014.417a.5.5 0 0 1-.37.37c-.042.01-.108.013-.416.013h-2.4c-.308 0-.374-.003-.417-.014a.5.5 0 0 1-.369-.37c-.01-.042-.014-.108-.014-.416V2.8c0-.308.004-.374.014-.417a.5.5 0 0 1 .37-.37M10.005 1h-.05c-.229 0-.426 0-.6.041A1.5 1.5 0 0 0 8.247 2.15c-.042.174-.042.371-.042.6v2.5c0 .229 0 .426.042.6a1.5 1.5 0 0 0 1.108 1.11c.174.041.371.041.6.041h2.5c.229 0 .426 0 .6-.041a1.5 1.5 0 0 0 1.109-1.109c.042-.174.041-.371.041-.6v-2.5c0-.229 0-.426-.041-.6a1.5 1.5 0 0 0-1.109-1.109C12.881 1 12.684 1 12.455 1zm-.417 1.014c.043-.01.11-.014.417-.014h2.4c.308 0 .374.003.417.014a.5.5 0 0 1 .37.37c.01.042.013.108.013.416v2.4c0 .308-.003.374-.014.417a.5.5 0 0 1-.37.37c-.042.01-.108.013-.416.013h-2.4c-.308 0-.374-.003-.417-.014a.5.5 0 0 1-.369-.37c-.01-.042-.014-.108-.014-.416V2.8c0-.308.004-.374.014-.417a.5.5 0 0 1 .37-.37M2.955 8h2.5c.229 0 .426 0 .6.041A1.5 1.5 0 0 1 7.164 9.15c.042.174.041.371.041.6v2.5c0 .229 0 .426-.041.6a1.5 1.5 0 0 1-1.109 1.109c-.174.041-.371.041-.6.041h-2.5c-.229 0-.426 0-.6-.041a1.5 1.5 0 0 1-1.108-1.109c-.042-.174-.042-.371-.042-.6v-2.5c0-.229 0-.426.042-.6a1.5 1.5 0 0 1 1.108-1.11c.174-.04.371-.04.6-.04m.05 1c-.308 0-.374.003-.417.014a.5.5 0 0 0-.369.37c-.01.042-.014.108-.014.416v2.4c0 .308.004.374.014.417a.5.5 0 0 0 .37.37c.042.01.108.013.416.013h2.4c.308 0 .374-.004.417-.014a.5.5 0 0 0 .37-.37c.01-.042.013-.108.013-.416V9.8c0-.308-.003-.374-.014-.417a.5.5 0 0 0-.37-.37C5.78 9.004 5.714 9 5.406 9zm7-1h-.05c-.229 0-.426 0-.6.041A1.5 1.5 0 0 0 8.247 9.15c-.042.174-.042.371-.042.6v2.5c0 .229 0 .426.042.6a1.5 1.5 0 0 0 1.108 1.109c.174.041.371.041.6.041h2.5c.229 0 .426 0 .6-.041a1.5 1.5 0 0 0 1.109-1.109c.042-.174.041-.371.041-.6v-2.5c0-.229 0-.426-.041-.6a1.5 1.5 0 0 0-1.109-1.109C12.881 8 12.684 8 12.455 8zm-.417 1.014c.043-.01.11-.014.417-.014h2.4c.308 0 .374.003.417.014a.5.5 0 0 1 .37.37c.01.042.013.108.013.416v2.4c0 .308-.003.374-.014.417a.5.5 0 0 1-.37.37c-.042.01-.108.013-.416.013h-2.4c-.308 0-.374-.004-.417-.014a.5.5 0 0 1-.369-.37c-.01-.042-.014-.108-.014-.416V9.8c0-.308.004-.374.014-.417a.5.5 0 0 1 .37-.37" clip-rule="evenodd"/></svg>