<svg xmlns="http://www.w3.org/2000/svg" width="15" height="15" fill="none"><g clip-path="url(#a)"><path fill="#000" fill-rule="evenodd" d="M.879 7.5a6.623 6.623 0 1 1 13.246 0 6.623 6.623 0 0 1-13.246 0m6.623-5.673a5.673 5.673 0 0 0-4.193 9.494 4.97 4.97 0 0 1 4.193-2.296 4.97 4.97 0 0 1 4.193 2.296 5.673 5.673 0 0 0-4.193-9.494m3.482 10.152a4.02 4.02 0 0 0-3.482-2.004 4.02 4.02 0 0 0-3.482 2.004 5.65 5.65 0 0 0 3.482 1.194c1.312 0 2.52-.446 3.482-1.194M5.152 6.505a2.35 2.35 0 1 1 4.7 0 2.35 2.35 0 0 1-4.7 0m2.35-1.4a1.4 1.4 0 1 0 0 2.8 1.4 1.4 0 0 0 0-2.8" clip-rule="evenodd" style="fill:#000;fill-opacity:1"/></g><defs><clipPath id="a"><path fill="#fff" d="M0 0h15v15H0z" style="fill:#fff;fill-opacity:1"/></clipPath></defs></svg>