<svg xmlns="http://www.w3.org/2000/svg" width="15" height="15" fill="none"><path fill="#2E2E2E" d="M9.222 1.585a2.959 2.959 0 1 1-.519 5.872A2.959 2.959 0 1 1 6.297 4.09a2.96 2.96 0 0 1 2.925-2.505m-3.443 3.46a1.96 1.96 0 1 0 0 3.918 1.96 1.96 0 0 0 0-3.919m3.443-2.46a1.96 1.96 0 0 0-1.957 1.86 2.96 2.96 0 0 1 1.416 1.982q.258.075.54.076a1.959 1.959 0 1 0 0-3.918" style="fill:#2e2e2e;fill:color(display-p3 .1804 .1804 .1804);fill-opacity:1"/><path fill="#2E2E2E" d="M13.148 10.937c0-1.843-1.701-3.434-3.926-3.434q-.459 0-.886.088l-.05.007a.5.5 0 0 1-.147-.987l.264-.047q.4-.06.819-.061c2.663 0 4.926 1.932 4.926 4.434a.5.5 0 0 1-1 0m-3.443 2.459c0-1.843-1.7-3.434-3.926-3.434s-3.926 1.591-3.926 3.434a.5.5 0 1 1-1 0c0-2.502 2.263-4.434 4.926-4.434s4.926 1.931 4.926 4.434a.5.5 0 0 1-1 0" style="fill:#2e2e2e;fill:color(display-p3 .1804 .1804 .1804);fill-opacity:1"/></svg>