<svg xmlns="http://www.w3.org/2000/svg" width="15" height="15" fill="none"><path fill="#000" fill-rule="evenodd" d="M6.926.897c.359-.863 1.58-.863 1.939 0l1.53 3.68 3.974.319c.931.075 1.309 1.236.6 1.844L11.94 9.333l.925 3.878c.217.908-.772 1.626-1.569 1.14l-3.402-2.078-3.401 2.078c-.797.486-1.786-.232-1.57-1.14l.926-3.878L.822 6.74c-.709-.608-.331-1.77.6-1.844l3.973-.319zm.97 1.575L6.674 5.407a1.05 1.05 0 0 1-.886.644l-3.17.254 2.415 2.068c.3.256.43.658.339 1.041l-.738 3.093 2.713-1.658a1.05 1.05 0 0 1 1.095 0l2.713 1.658-.738-3.093a1.05 1.05 0 0 1 .339-1.041l2.414-2.068-3.169-.254a1.05 1.05 0 0 1-.886-.644z" clip-rule="evenodd"/></svg>