<svg xmlns="http://www.w3.org/2000/svg" width="15" height="15" fill="none"><g fill="#000" fill-rule="evenodd" clip-path="url(#a)" clip-rule="evenodd"><path d="M11.852.646a.5.5 0 0 1 .707 0l2 2a.5.5 0 0 1 0 .708l-3.943 3.942a1 1 0 0 1-.26.188L6.43 9.447a.5.5 0 0 1-.671-.67l1.964-3.928a1 1 0 0 1 .187-.26zm.353 1.061-3.589 3.59-1.038 2.076.254.254L9.91 6.59 13.498 3z"/><path d="M7.705 1.5h-5a2 2 0 0 0-2 2v9a2 2 0 0 0 2 2h9a2 2 0 0 0 2-2v-5h-1v5a1 1 0 0 1-1 1h-9a1 1 0 0 1-1-1v-9a1 1 0 0 1 1-1h5z"/></g><defs><clipPath id="a"><path fill="#fff" d="M.205 0h15v15h-15z"/></clipPath></defs></svg>