<svg xmlns="http://www.w3.org/2000/svg" width="15" height="15" fill="none"><path fill="#000" fill-rule="evenodd" d="M1.082 7.5a6.623 6.623 0 1 1 13.246 0 6.623 6.623 0 0 1-13.246 0m6.623-5.673a5.673 5.673 0 1 0 0 11.346 5.673 5.673 0 0 0 0-11.346m.75 8.673a.75.75 0 1 1-1.5 0 .75.75 0 0 1 1.5 0m-2.2-4.25c0-.678.585-1.325 1.45-1.325s1.45.647 1.45 1.325c0 .491-.27.742-.736 1.025l-.176.104c-.183.106-.4.232-.564.36-.242.188-.524.493-.524.961a.55.55 0 0 0 1.1.004.4.4 0 0 1 .1-.098c.102-.079.215-.144.366-.232q.116-.067.27-.159c.534-.325 1.264-.861 1.264-1.965 0-1.322-1.115-2.425-2.55-2.425s-2.55 1.103-2.55 2.425a.55.55 0 1 0 1.1 0" clip-rule="evenodd"/></svg>