<svg xmlns="http://www.w3.org/2000/svg" width="15" height="15" fill="none"><path fill="#2E2E2E" d="M7.5 1.5a.47.47 0 0 1 .5-.48 6.5 6.5 0 0 1 1.977 12.49.47.47 0 0 1-.623-.303.537.537 0 0 1 .313-.65A5.501 5.501 0 0 0 8 2.021a.537.537 0 0 1-.499-.523M7.5 13.5a.47.47 0 0 1-.499.48A6.5 6.5 0 0 1 5.023 1.49a.47.47 0 0 1 .623.303.537.537 0 0 1-.313.65A5.501 5.501 0 0 0 7 12.979a.537.537 0 0 1 .499.523" style="fill:#2e2e2e;fill:color(display-p3 .1804 .1804 .1804);fill-opacity:1"/><path fill="#2E2E2E" d="M2.75 2a.5.5 0 0 1 0-1H5.5a.5.5 0 0 1 .5.5V4a.5.5 0 1 1-1 0V2zm9.5 11a.5.5 0 1 1 0 1H9.5a.5.5 0 0 1-.5-.5V11a.5.5 0 0 1 1 0v2z" style="fill:#2e2e2e;fill:color(display-p3 .1804 .1804 .1804);fill-opacity:1"/></svg>