<svg xmlns="http://www.w3.org/2000/svg" width="15" height="15" fill="none"><path fill="#2E2E2E" d="M6.5 11.505q0-.411.29-.707a.97.97 0 0 1 .712-.295q.411 0 .702.295a.97.97 0 0 1 .296.707q0 .411-.296.707a.95.95 0 0 1-.702.296.96.96 0 0 1-.506-.14q-.225-.135-.36-.362a.96.96 0 0 1-.136-.5m0-4.006q0-.411.29-.707a.97.97 0 0 1 .712-.295q.411 0 .702.295A.97.97 0 0 1 8.5 7.5q0 .411-.296.707a.95.95 0 0 1-.702.296.96.96 0 0 1-.506-.14q-.225-.136-.36-.362a.96.96 0 0 1-.136-.5m0-4.006q0-.411.29-.707a.97.97 0 0 1 .712-.296q.411 0 .702.296a.97.97 0 0 1 .296.707q0 .411-.296.707a.95.95 0 0 1-.702.295.96.96 0 0 1-.506-.14q-.225-.135-.36-.36a.96.96 0 0 1-.136-.502" style="fill:#2e2e2e;fill:color(display-p3 .1804 .1804 .1804);fill-opacity:1"/></svg>