<svg xmlns="http://www.w3.org/2000/svg" width="15" height="15" fill="none"><g clip-path="url(#a)"><path fill="#000" fill-rule="evenodd" d="M.205 1.95A1.95 1.95 0 0 1 2.155 0h11.1a1.95 1.95 0 0 1 1.95 1.95v11.1a1.95 1.95 0 0 1-1.95 1.95h-11.1a1.95 1.95 0 0 1-1.95-1.95zm8.85 2.55a1.35 1.35 0 1 1-2.7 0 1.35 1.35 0 0 1 2.7 0m-1.793 7.65c.635.002 1.246-.88 1.475-1.372.281-.606.457-1.696.175-2.342-.198-.452-.652-.786-1.25-.786-.722 0-1.307.586-1.307 1.31 0 .2.046.387.127.553.075.154.174.314.274.476.315.508.637 1.03.244 1.398-.318.3-.218.761.262.763" clip-rule="evenodd"/></g><defs><clipPath id="a"><path fill="#fff" d="M.205 0h15v15h-15z"/></clipPath></defs></svg>