<svg xmlns="http://www.w3.org/2000/svg" width="15" height="15" fill="none"><g stroke="#000" stroke-linecap="round" stroke-linejoin="round"><path d="M7.61 2.5h-.22a1 1 0 0 0-1 1v.09a1 1 0 0 1-.5.865l-.215.125a1 1 0 0 1-1 0L4.6 4.54a1 1 0 0 0-1.365.365l-.11.19A1 1 0 0 0 3.49 6.46l.075.05a1 1 0 0 1 .5.86v.255a1 1 0 0 1-.5.87l-.075.045a1 1 0 0 0-.365 1.365l.11.19a1 1 0 0 0 1.365.365l.075-.04a1 1 0 0 1 1 0l.215.125a1 1 0 0 1 .5.865v.09a1 1 0 0 0 1 1h.22a1 1 0 0 0 1-1v-.09a1 1 0 0 1 .5-.865l.215-.125a1 1 0 0 1 1 0l.075.04a1 1 0 0 0 1.365-.365l.11-.195a1 1 0 0 0-.365-1.365l-.075-.04a1 1 0 0 1-.5-.87v-.25a1 1 0 0 1 .5-.87l.075-.045a1 1 0 0 0 .365-1.365l-.11-.19A1 1 0 0 0 10.4 4.54l-.075.04a1 1 0 0 1-1 0l-.215-.125a1 1 0 0 1-.5-.865V3.5a1 1 0 0 0-1-1"/><path d="M7.5 9a1.5 1.5 0 1 0 0-3 1.5 1.5 0 0 0 0 3"/></g></svg>