<svg xmlns="http://www.w3.org/2000/svg" width="15" height="15" fill="none"><path fill="#2E2E2E" d="M13 3.5a1.5 1.5 0 0 0-1.423-1.498L11.5 2H4c-.431 0-.953.18-1.366.487C2.217 2.797 2 3.166 2 3.5v5c0 .334.217.703.634 1.013C3.047 9.82 3.57 10 4 10h4l.05.002a.5.5 0 0 1 .304.144l2.146 2.147V10.5a.5.5 0 0 1 .5-.5c.731 0 1.23-.199 1.539-.464.303-.262.461-.62.461-1.036zm1 5c0 .689-.271 1.33-.808 1.793-.43.371-1.006.605-1.692.68V13.5a.5.5 0 0 1-.854.354L7.794 11H4c-.674 0-1.401-.267-1.962-.685C1.48 9.902 1 9.27 1 8.5v-5c0-.77.481-1.402 1.038-1.815C2.598 1.267 3.326 1 4 1h7.5l.128.003A2.5 2.5 0 0 1 14 3.5z" style="fill:#2e2e2e;fill:color(display-p3 .1804 .1804 .1804);fill-opacity:1"/></svg>