<svg xmlns="http://www.w3.org/2000/svg" width="15" height="15" fill="none"><path fill="#2E2E2E" d="M5 4.5a.5.5 0 0 1 0 1H3.5c-.423 0-.648.105-.771.229-.124.123-.229.348-.229.771v5.52c0 .423.105.649.229.772.123.123.348.229.771.229h8l.15-.005c.327-.022.514-.116.621-.224.124-.123.229-.349.229-.771V6.5c0-.423-.105-.648-.229-.771-.123-.124-.348-.229-.771-.229H10a.5.5 0 0 1 0-1h1.5c.577 0 1.102.145 1.479.521.376.377.521.902.521 1.479v5.52c0 .578-.145 1.102-.521 1.479-.33.33-.773.482-1.265.515l-.214.007h-8c-.577 0-1.102-.145-1.479-.522-.376-.377-.521-.902-.521-1.479V6.5c0-.577.145-1.102.521-1.479.377-.376.902-.521 1.479-.521zM7.5.02a.5.5 0 0 1 .336.13l.037.038 2 2.25a.5.5 0 0 1-.747.665L8 1.835V8.75a.5.5 0 0 1-1 0V1.835L5.873 3.103a.5.5 0 0 1-.747-.666l2-2.25.037-.037A.5.5 0 0 1 7.5.02" style="fill:#2e2e2e;fill:color(display-p3 .1804 .1804 .1804);fill-opacity:1"/></svg>