<svg xmlns="http://www.w3.org/2000/svg" width="15" height="15" fill="none"><g clip-path="url(#a)"><path fill="#000" fill-rule="evenodd" d="M7.427 4.03A2.1 2.1 0 1 1 8.93 6.135 3.1 3.1 0 0 0 7.427 4.03m-.97-.357a3.1 3.1 0 1 1 2.496 3.494 3.1 3.1 0 1 1-2.496-3.494M3.785 6.72a2.1 2.1 0 1 1 4.2 0 2.1 2.1 0 0 1-4.2 0" clip-rule="evenodd"/><path stroke="#000" stroke-linecap="round" d="M14.205 10.88c0-2.298-2.095-4.16-4.68-4.16q-.537.001-1.04.103m2.08 6.657c0-2.298-2.095-4.16-4.68-4.16s-4.68 1.862-4.68 4.16"/></g><defs><clipPath id="a"><path fill="#fff" d="M.205 0h15v15h-15z"/></clipPath></defs></svg>