<svg xmlns="http://www.w3.org/2000/svg" width="15" height="15" fill="none"><path stroke="#000" stroke-linecap="round" stroke-linejoin="round" stroke-width="1.5" d="M7.5 7.07v3.606M5.625 8.873h3.75m3.125 4.902a1.2 1.2 0 0 0 .884-.398c.234-.254.366-.6.366-.96V5.634c0-.36-.132-.705-.366-.96a1.2 1.2 0 0 0-.884-.397H7.563a1.17 1.17 0 0 1-.6-.16 1.3 1.3 0 0 1-.457-.45L6 2.85a1.3 1.3 0 0 0-.45-.448 1.2 1.2 0 0 0-.594-.163H2.5a1.2 1.2 0 0 0-.884.398 1.42 1.42 0 0 0-.366.96v8.82c0 .36.132.705.366.96.235.254.552.397.884.397z"/></svg>