<svg xmlns="http://www.w3.org/2000/svg" width="15" height="15" fill="none"><g clip-path="url(#a)"><path fill="#000" fill-rule="evenodd" d="M0 1.95A1.95 1.95 0 0 1 1.95 0h11.1A1.95 1.95 0 0 1 15 1.95v11.1A1.95 1.95 0 0 1 13.05 15H1.95A1.95 1.95 0 0 1 0 13.05zM8.85 4.5a1.35 1.35 0 1 1-2.7 0 1.35 1.35 0 0 1 2.7 0m-1.793 7.65c.635.002 1.246-.88 1.475-1.372.281-.606.457-1.696.175-2.342-.198-.452-.652-.786-1.251-.786-.721 0-1.306.586-1.306 1.31 0 .2.046.387.127.553.075.154.174.314.274.476.315.508.637 1.03.244 1.398-.318.3-.218.761.262.763" clip-rule="evenodd"/></g><defs><clipPath id="a"><path fill="#fff" d="M0 0h15v15H0z"/></clipPath></defs></svg>