<svg width="64" height="64" viewBox="0 0 64 64" fill="none" xmlns="http://www.w3.org/2000/svg">
<g clip-path="url(#clip0_173_7)">
<path d="M13.7334 2.56445C16.761 2.2563 19.7975 3.06251 22.2725 4.83203C24.7476 6.60183 26.4917 9.21378 27.1777 12.1768C27.8638 15.1398 27.4453 18.2513 26 20.9277C25.116 22.5648 24.5561 23.3709 24.0381 23.9248C23.53 24.4681 22.9662 24.8757 21.8291 25.6074C19.3188 27.2225 16.1943 27.8108 13.126 27.3457C10.1169 26.8896 7.37721 25.3519 5.42188 23.0215C3.46667 20.691 2.42937 17.7277 2.50391 14.6875C2.57845 11.6471 3.75983 8.73788 5.82715 6.50586C7.89431 4.27403 10.7057 2.87268 13.7334 2.56445Z" stroke="black" stroke-width="5"/>
<path d="M17.5285 14.9872C17.5285 16.3902 16.3964 17.5277 15 17.5277C13.6036 17.5277 12.4716 16.3902 12.4716 14.9872C12.4716 13.5841 13.6036 12.4467 15 12.4467C16.3964 12.4467 17.5285 13.5841 17.5285 14.9872Z" fill="black"/>
<path d="M47.7334 36.5645C50.761 36.2563 53.7975 37.0625 56.2725 38.832C58.7476 40.6018 60.4917 43.2138 61.1777 46.1768C61.8638 49.1398 61.4453 52.2513 60 54.9277C59.116 56.5648 58.5561 57.3709 58.0381 57.9248C57.53 58.4681 56.9662 58.8757 55.8291 59.6074C53.3188 61.2225 50.1943 61.8108 47.126 61.3457C44.1169 60.8896 41.3772 59.3519 39.4219 57.0215C37.4667 54.691 36.4294 51.7277 36.5039 48.6875C36.5785 45.6471 37.7598 42.7379 39.8271 40.5059C41.8943 38.274 44.7057 36.8727 47.7334 36.5645Z" stroke="black" stroke-width="5"/>
<path d="M51.5285 48.9871C51.5285 50.3901 50.3965 51.5275 49.0001 51.5275C47.6036 51.5275 46.4716 50.3901 46.4716 48.9871C46.4716 47.584 47.6036 46.4466 49.0001 46.4466C50.3965 46.4466 51.5285 47.584 51.5285 48.9871Z" fill="black"/>
<path d="M27.5135 22.7068L42.1434 37.3367L37.9008 41.5794L23.2708 26.9495L27.5135 22.7068Z" fill="black"/>
</g>
<defs>
<clipPath id="clip0_173_7">
<rect width="64" height="64" fill="white"/>
</clipPath>
</defs>
</svg>
