<svg width="64" height="64" viewBox="0 0 64 64" fill="none" xmlns="http://www.w3.org/2000/svg">
<g clip-path="url(#clip0_158_54)">
<path d="M21.6696 3.63715C26.2712 2.79465 31.0215 3.38385 35.2761 5.32562C39.5307 7.2675 43.0842 10.4684 45.4528 14.4946C47.8215 18.5209 48.8908 23.1777 48.5134 27.8315C48.2476 31.1084 48.085 33.451 48.0944 35.2065C48.1041 36.9924 48.2985 37.8505 48.5222 38.3198C48.6824 38.6559 48.9295 38.9574 49.7009 39.3432C50.5857 39.7857 51.8316 40.1822 53.8395 40.808C55.537 41.337 57.0675 42.2995 58.279 43.6C59.4904 44.9005 60.3412 46.4941 60.7458 48.2241C61.1503 49.9542 61.0949 51.7603 60.5847 53.4623C60.0743 55.1644 59.1268 56.7034 57.8376 57.9272C56.5485 59.1508 54.9617 60.0168 53.235 60.4409C51.5085 60.8648 49.701 60.8323 47.9909 60.3461C46.2808 59.8599 44.7269 58.9369 43.4831 57.6674C42.3168 56.477 41.4605 55.0206 40.989 53.4262L40.9001 53.1059C40.425 51.2824 40.1339 50.2047 39.7741 49.4457C39.4846 48.8351 39.2511 48.6455 38.9294 48.5024C38.4444 48.2866 37.5285 48.0988 35.6559 48.1078C33.8236 48.1167 31.364 48.3056 27.9548 48.6303C23.2975 49.0738 18.6155 48.0785 14.5446 45.7778C10.4737 43.477 7.21034 39.9822 5.19891 35.767C3.18741 31.5516 2.52555 26.8201 3.30438 22.2162C4.08324 17.6127 6.26477 13.361 9.55048 10.0375C12.8363 6.71402 17.0679 4.47971 21.6696 3.63715Z" stroke="black" stroke-width="5"/>
</g>
<defs>
<clipPath id="clip0_158_54">
<rect width="64" height="64" fill="white"/>
</clipPath>
</defs>
</svg>
