<svg width="64" height="64" viewBox="0 0 64 64" fill="none" xmlns="http://www.w3.org/2000/svg">
<path d="M28.4797 5.03503C35.0851 4.3659 41.7092 6.11773 47.1066 9.95886C52.5035 13.7998 56.3041 19.4651 57.799 25.8905C59.2939 32.3161 58.3815 39.0645 55.2316 44.87C53.4456 48.1618 52.2165 49.9714 50.9728 51.2948C49.7389 52.6079 48.3929 53.5508 46.1271 55.0018C40.5949 58.5447 33.7781 59.7969 27.1545 58.7977C20.5901 57.8075 14.6165 54.4695 10.3537 49.413C6.0911 44.3567 3.82995 37.9288 3.99237 31.3358C4.15488 24.743 6.72989 18.4334 11.2365 13.5907C15.7434 8.74775 21.8745 5.70426 28.4797 5.03503Z" stroke="black" stroke-width="5"/>
<path d="M34.7526 33.1254C34.7526 35.0639 33.1811 36.6354 31.2426 36.6354C29.3041 36.6354 27.7326 35.0639 27.7326 33.1254C27.7326 31.1868 29.3041 29.6154 31.2426 29.6154C33.1811 29.6154 34.7526 31.1868 34.7526 33.1254Z" fill="black"/>
</svg>
