<svg width="1601" height="1600" viewBox="0 0 1601 1600" fill="none" xmlns="http://www.w3.org/2000/svg">
<path d="M208.219 416C323.094 416 416.219 322.875 416.219 208C416.219 93.1248 323.094 0 208.219 0C93.3435 0 0.21875 93.1248 0.21875 208C0.21875 322.875 93.3435 416 208.219 416Z" fill="black"/>
<path d="M1392.22 416C1507.09 416 1600.22 322.875 1600.22 208C1600.22 93.1248 1507.09 0 1392.22 0C1277.34 0 1184.22 93.1248 1184.22 208C1184.22 322.875 1277.34 416 1392.22 416Z" fill="black"/>
<path d="M416.219 1392C416.219 1506.88 323.094 1600 208.219 1600C93.3435 1600 0.21875 1506.88 0.21875 1392C0.21875 1277.12 93.3435 1184 208.219 1184C323.094 1184 416.219 1277.12 416.219 1392Z" fill="black"/>
<path d="M1392.22 1600C1507.09 1600 1600.22 1506.88 1600.22 1392C1600.22 1277.12 1507.09 1184 1392.22 1184C1277.34 1184 1184.22 1277.12 1184.22 1392C1184.22 1506.88 1277.34 1600 1392.22 1600Z" fill="black"/>
<path fill-rule="evenodd" clip-rule="evenodd" d="M208.219 0L0.21875 208V1392L208.219 1600H1392.22L1600.22 1392V208L1392.22 0H208.219ZM944.219 480C944.219 559.529 879.748 624 800.219 624C720.69 624 656.219 559.529 656.219 480C656.219 400.471 720.69 336 800.219 336C879.748 336 944.219 400.471 944.219 480ZM752.918 1296C820.648 1296.24 885.864 1202.21 910.258 1149.7C940.309 1085.01 959.064 968.723 928.921 899.836C907.805 851.578 859.427 816 795.531 816C718.591 816 656.219 878.557 656.219 955.726C656.219 1024.84 707.496 1079.6 772.368 1089.69C775.094 1090.11 777.063 1092.58 776.681 1095.31C771.123 1135.12 753.569 1187.83 725.055 1214.63C691.09 1246.55 701.712 1295.82 752.918 1296Z" fill="black"/>
</svg>
