<svg display="block" role="presentation" viewBox="0 0 61 20" xmlns="http://www.w3.org/2000/svg"><g d="M 5.586 9.9 L 5.586 7.165 L 1.738 7.165 C 0.782 7.165 0 7.948 0 8.906 L 0 14.377 C 0 15.334 0.782 16.117 1.738 16.117 L 11.669 16.117 C 12.625 16.117 13.407 15.334 13.407 14.377 L 13.407 11.641 L 7.324 11.641 C 6.368 11.641 5.586 10.858 5.586 9.9 Z M 17.253 2.689 L 7.323 2.689 C 6.367 2.689 5.585 3.472 5.585 4.43 L 5.585 7.165 L 11.667 7.165 C 12.623 7.165 13.405 7.948 13.405 8.906 L 13.405 11.641 L 16.012 11.641 C 16.446 12.201 16.782 12.773 16.943 13.196 C 16.993 13.332 17.179 13.332 17.241 13.208 C 17.489 12.723 17.601 12.126 17.638 11.592 C 18.408 11.418 18.979 10.721 18.979 9.9 L 18.979 4.43 C 18.991 3.46 18.209 2.689 17.253 2.689 Z M 41.279 0 L 38.502 0 L 38.502 15.727 L 41.279 15.727 Z M 59.648 4.492 L 56.871 4.492 L 56.871 15.726 L 59.648 15.726 Z M 59.648 0 L 56.871 0 L 56.871 2.746 L 59.648 2.746 Z M 33.995 4.494 L 33.995 5.68 C 33.692 5.393 33.364 5.143 33.011 4.931 C 32.165 4.419 31.18 4.132 30.145 4.132 C 26.976 4.132 24.401 6.816 24.401 10.123 C 24.401 13.431 26.976 16.115 30.145 16.115 C 31.193 16.115 32.165 15.828 33.011 15.316 C 33.364 15.104 33.692 14.842 33.995 14.567 L 33.995 15.753 L 36.52 15.753 L 36.52 4.494 Z M 33.995 10.585 C 33.768 12.258 32.392 13.544 30.726 13.544 C 28.908 13.544 27.431 12.008 27.431 10.111 C 27.431 8.214 28.908 6.678 30.726 6.678 C 32.392 6.678 33.768 7.964 33.995 9.637 C 34.02 9.786 34.02 9.949 34.02 10.111 C 34.02 10.273 34.008 10.423 33.995 10.585 Z M 52.364 4.494 L 52.364 5.68 C 52.061 5.393 51.733 5.143 51.379 4.931 C 50.533 4.419 49.549 4.132 48.513 4.132 C 45.345 4.132 42.77 6.816 42.77 10.123 C 42.77 13.431 45.332 16.115 48.513 16.115 C 49.561 16.115 50.533 15.828 51.379 15.316 C 51.733 15.104 52.061 14.842 52.364 14.567 L 52.364 15.753 L 54.888 15.753 L 54.888 4.494 Z M 52.364 10.585 C 52.149 12.258 50.76 13.544 49.094 13.544 C 47.276 13.544 45.799 12.008 45.799 10.111 C 45.799 8.214 47.276 6.678 49.094 6.678 C 50.76 6.678 52.136 7.964 52.364 9.637 C 52.389 9.786 52.389 9.949 52.389 10.111 C 52.389 10.273 52.389 10.423 52.364 10.585 Z" fill="transparent" height="16.11732653339327px" id="gQH4E56ud" transform="translate(0.679 1.555)" width="59.64781225172773px"><path d="M 5.586 2.735 L 5.586 0 L 1.738 0 C 0.782 0 0 0.783 0 1.741 L 0 7.212 C 0 8.169 0.782 8.953 1.738 8.953 L 11.669 8.953 C 12.625 8.953 13.407 8.169 13.407 7.212 L 13.407 4.476 L 7.324 4.476 C 6.368 4.476 5.586 3.693 5.586 2.735 Z" fill="var(--1ckecfm, var(--token-fa32c9e5-8e93-4909-b6e0-a0c163ffe0ac, rgb(0, 0, 0)))" height="8.952510153846152px" id="Vp2F5pqss" transform="translate(0 7.165)" width="13.40652838461532px"/><path d="M 11.669 0 L 1.738 0 C 0.782 0 0 0.783 0 1.741 L 0 4.476 L 6.083 4.476 C 7.038 4.476 7.821 5.26 7.821 6.217 L 7.821 8.953 L 10.427 8.953 C 10.862 9.512 11.197 10.084 11.358 10.507 C 11.408 10.644 11.594 10.644 11.656 10.519 C 11.904 10.034 12.016 9.437 12.054 8.903 C 12.823 8.729 13.394 8.032 13.394 7.212 L 13.394 1.741 C 13.407 0.771 12.624 0 11.669 0 Z" fill="var(--1ckecfm, var(--token-fa32c9e5-8e93-4909-b6e0-a0c163ffe0ac, rgb(0, 0, 0)))" height="10.6109722779514px" id="rTgSuZLKG" transform="translate(5.585 2.689)" width="13.394262403001488px"/><path d="M 2.777 0 L 0 0 L 0 15.727 L 2.777 15.727 Z" fill="var(--1ckecfm, var(--token-fa32c9e5-8e93-4909-b6e0-a0c163ffe0ac, rgb(0, 0, 0)))" height="15.727207692307694px" id="h6cBlbg5U" transform="translate(38.502 0)" width="2.777283076923034px"/><path d="M 2.777 0 L 0 0 L 0 11.234 L 2.777 11.234 Z" fill="var(--1ckecfm, var(--token-fa32c9e5-8e93-4909-b6e0-a0c163ffe0ac, rgb(0, 0, 0)))" height="11.23374123076923px" id="dZ7oqjK6x" transform="translate(56.871 4.492)" width="2.777283076923041px"/><path d="M 2.777 0 L 0 0 L 0 2.746 L 2.777 2.746 Z" fill="var(--1ckecfm, var(--token-fa32c9e5-8e93-4909-b6e0-a0c163ffe0ac, rgb(0, 0, 0)))" height="2.746022923076923px" id="SElF_9xfs" transform="translate(56.871 0)" width="2.777283076923041px"/><path d="M 9.594 0.362 L 9.594 1.548 C 9.291 1.261 8.963 1.011 8.609 0.799 C 7.764 0.287 6.779 0 5.744 0 C 2.575 0 0 2.684 0 5.991 C 0 9.299 2.575 11.983 5.744 11.983 C 6.792 11.983 7.764 11.696 8.609 11.184 C 8.963 10.972 9.291 10.709 9.594 10.435 L 9.594 11.621 L 12.119 11.621 L 12.119 0.362 Z M 9.594 6.453 C 9.367 8.126 7.991 9.411 6.324 9.411 C 4.507 9.411 3.03 7.876 3.03 5.979 C 3.03 4.082 4.507 2.546 6.324 2.546 C 7.991 2.546 9.367 3.832 9.594 5.505 C 9.619 5.654 9.619 5.817 9.619 5.979 C 9.619 6.141 9.607 6.291 9.594 6.453 Z" fill="var(--1ckecfm, var(--token-fa32c9e5-8e93-4909-b6e0-a0c163ffe0ac, rgb(0, 0, 0)))" height="11.982671072796604px" id="lNRjwmWFE" transform="translate(24.401 4.132)" width="12.118729223433192px"/><path d="M 9.594 0.362 L 9.594 1.548 C 9.291 1.261 8.963 1.011 8.609 0.799 C 7.764 0.287 6.779 0 5.744 0 C 2.575 0 0 2.684 0 5.991 C 0 9.299 2.563 11.983 5.744 11.983 C 6.792 11.983 7.764 11.696 8.609 11.184 C 8.963 10.972 9.291 10.709 9.594 10.435 L 9.594 11.621 L 12.119 11.621 L 12.119 0.362 Z M 9.594 6.453 C 9.379 8.126 7.991 9.411 6.324 9.411 C 4.507 9.411 3.03 7.876 3.03 5.979 C 3.03 4.082 4.507 2.546 6.324 2.546 C 7.991 2.546 9.367 3.832 9.594 5.505 C 9.619 5.654 9.619 5.817 9.619 5.979 C 9.619 6.141 9.619 6.291 9.594 6.453 Z" fill="var(--1ckecfm, var(--token-fa32c9e5-8e93-4909-b6e0-a0c163ffe0ac, rgb(0, 0, 0)))" height="11.982671072796604px" id="tLxUDIlUi" transform="translate(42.77 4.132)" width="12.11882312093892px"/></g></svg>