<svg display="block" role="presentation" viewBox="0 0 61 20" xmlns="http://www.w3.org/2000/svg"><path d="M 13.754 11.576 C 10.281 12.252 8.077 10.572 7.336 9.271 C 6.383 7.688 6.838 6.104 8.14 5.501 C 9.052 5.079 10.089 4.928 11.235 4.814 C 10.089 5.157 9.417 5.717 9.126 6.949 C 8.702 8.743 11.455 10.326 13.467 9.271 C 15.479 8.215 16.221 5.472 14.209 3.889 C 12.61 2.631 9.628 2.521 7.113 3.889 C 5.419 4.768 2.721 6.395 2.636 8.253 C 2.552 10.11 5.313 11.452 6.902 11.381 C 4.395 11.909 0 10.863 0 7.908 C 0 3.687 7.537 -1.282 13.467 0.301 C 18.335 1.6 18.586 5.613 18.233 7.477 C 18.021 8.849 17.228 10.901 13.754 11.576 Z" fill="var(--1ckecfm, var(--token-fa32c9e5-8e93-4909-b6e0-a0c163ffe0ac, rgb(0, 0, 0)))" height="11.730760556072726px" id="l0v5hr6uh" transform="translate(0 4.135)" width="18.341371102825093px"/><path d="M 0 8.649 L 3.267 0 L 5.726 0 L 8.957 8.649 L 6.45 8.649 L 4.051 1.3 L 4.918 1.3 L 2.459 8.649 Z M 2.122 7.191 L 2.122 5.296 L 6.92 5.296 L 6.92 7.191 Z" fill="var(--1ckecfm, var(--token-fa32c9e5-8e93-4909-b6e0-a0c163ffe0ac, rgb(0, 0, 0)))" height="8.648873241720931px" id="aeGE8fON2" transform="translate(20.175 5.885)" width="8.956970192307676px"/><path d="M 1.953 5.199 L 1.953 3.523 L 3.412 3.523 C 3.741 3.523 3.99 3.442 4.159 3.28 C 4.336 3.118 4.424 2.903 4.424 2.636 C 4.424 2.369 4.336 2.154 4.159 1.992 C 3.99 1.83 3.741 1.749 3.412 1.749 L 1.953 1.749 L 1.953 0 L 3.797 0 C 4.392 0 4.914 0.109 5.364 0.328 C 5.815 0.547 6.168 0.85 6.425 1.239 C 6.683 1.628 6.811 2.081 6.811 2.6 C 6.811 3.118 6.679 3.571 6.413 3.96 C 6.156 4.349 5.795 4.652 5.328 4.871 C 4.862 5.09 4.312 5.199 3.677 5.199 Z M 0 8.649 L 0 0 L 2.411 0 L 2.411 8.649 Z M 4.629 8.649 L 2.291 4.956 L 4.46 4.482 L 7.366 8.649 Z" fill="var(--1ckecfm, var(--token-fa32c9e5-8e93-4909-b6e0-a0c163ffe0ac, rgb(0, 0, 0)))" height="8.64887352071909px" id="coH4_skR7" transform="translate(31.204 5.885)" width="7.3657497550964735px"/><path d="M 0 8.649 L 0 0 L 2.411 0 L 2.411 8.649 Z" fill="var(--1ckecfm, var(--token-fa32c9e5-8e93-4909-b6e0-a0c163ffe0ac, rgb(0, 0, 0)))" height="8.648873269230767px" id="Yi1pQeALq" transform="translate(40.649 5.885)" width="2.4109076923077026px"/><path d="M 0 8.649 L 0 0 L 2.411 0 L 2.411 8.649 Z M 1.953 8.649 L 1.953 6.632 L 6.558 6.632 L 6.558 8.649 Z M 1.953 5.223 L 1.953 3.255 L 6.112 3.255 L 6.112 5.223 Z M 1.953 2.016 L 1.953 0 L 6.486 0 L 6.486 2.016 Z" fill="var(--1ckecfm, var(--token-fa32c9e5-8e93-4909-b6e0-a0c163ffe0ac, rgb(0, 0, 0)))" height="8.648873487384503px" id="ODiDBukx8" transform="translate(45.749 5.885)" width="6.558144205929722px"/><path d="M 3.412 8.94 C 2.68 8.94 2.041 8.835 1.495 8.625 C 0.956 8.406 0.458 8.062 0 7.592 L 1.507 6.074 C 1.82 6.373 2.15 6.604 2.495 6.766 C 2.841 6.92 3.211 6.997 3.605 6.997 C 3.934 6.997 4.183 6.948 4.352 6.851 C 4.521 6.746 4.605 6.604 4.605 6.426 C 4.605 6.248 4.533 6.102 4.388 5.989 C 4.243 5.867 4.05 5.762 3.81 5.673 C 3.576 5.576 3.315 5.478 3.026 5.381 C 2.745 5.284 2.463 5.167 2.182 5.029 C 1.901 4.891 1.64 4.725 1.398 4.531 C 1.165 4.328 0.977 4.081 0.832 3.79 C 0.687 3.49 0.615 3.126 0.615 2.697 C 0.615 2.138 0.748 1.656 1.013 1.251 C 1.278 0.846 1.652 0.539 2.134 0.328 C 2.616 0.109 3.183 0 3.834 0 C 4.477 0 5.071 0.105 5.618 0.316 C 6.173 0.518 6.63 0.81 6.992 1.19 L 5.473 2.709 C 5.208 2.45 4.943 2.259 4.677 2.138 C 4.412 2.008 4.123 1.944 3.81 1.944 C 3.56 1.944 3.359 1.984 3.207 2.065 C 3.062 2.146 2.99 2.267 2.99 2.429 C 2.99 2.6 3.062 2.741 3.207 2.855 C 3.351 2.96 3.54 3.057 3.773 3.146 C 4.014 3.235 4.276 3.328 4.557 3.426 C 4.846 3.523 5.131 3.64 5.413 3.778 C 5.694 3.907 5.951 4.077 6.184 4.288 C 6.425 4.49 6.618 4.746 6.763 5.053 C 6.907 5.361 6.98 5.734 6.98 6.171 C 6.98 7.054 6.666 7.738 6.039 8.224 C 5.421 8.702 4.545 8.94 3.412 8.94 Z" fill="var(--1ckecfm, var(--token-fa32c9e5-8e93-4909-b6e0-a0c163ffe0ac, rgb(0, 0, 0)))" height="8.940400480769231px" id="r7a1k18bi" transform="translate(53.988 5.739)" width="6.9919490384614775px"/></svg>