<svg display="block" role="presentation" viewBox="0 0 97 20" xmlns="http://www.w3.org/2000/svg"><path d="M 52.842 0 C 49.402 0 47.62 2.125 47.62 4.986 C 47.62 7.858 49.402 9.994 52.842 9.994 C 56.294 9.994 58.076 7.858 58.076 4.986 C 58.08 2.125 56.294 0 52.842 0 Z M 82.664 0 C 79.754 0 78.294 1.161 78.294 3.218 C 78.294 4.89 79.264 5.677 81.271 5.892 L 83.504 6.13 C 84.356 6.227 84.744 6.555 84.744 6.986 C 84.744 7.473 84.176 7.909 82.805 7.909 C 81.22 7.909 80.583 7.507 80.475 6.697 L 78.158 6.697 C 78.265 8.884 79.681 10 82.72 10 C 85.495 10 87.046 8.776 87.046 6.934 C 87.046 5.331 86.126 4.368 84.39 4.17 L 82.19 3.92 C 80.905 3.779 80.583 3.456 80.583 3.02 C 80.583 2.532 81.243 2.096 82.534 2.096 C 83.775 2.096 84.424 2.561 84.542 3.258 L 86.905 3.258 C 86.787 1.247 85.111 0 82.664 0 Z M 28.694 0.227 L 28.694 6.38 C 28.694 9.122 31.13 9.977 33.171 9.977 C 35.201 9.977 37.627 9.122 37.627 6.38 L 37.627 0.227 L 35.213 0.227 L 35.213 6.102 L 35.224 6.102 C 35.224 7.337 34.469 7.836 33.178 7.836 C 31.926 7.836 31.108 7.315 31.108 6.102 L 31.108 0.227 Z M 8.442 0.26 L 0 5.529 L 0 9.762 L 0.073 9.762 L 8.538 4.47 L 12.931 4.47 C 13.075 4.47 13.191 4.586 13.191 4.73 C 13.198 4.821 13.149 4.906 13.067 4.946 L 8.91 7.45 C 8.64 7.614 8.543 7.937 8.543 8.18 L 8.537 9.762 L 13.822 9.762 L 13.822 0.589 C 13.822 0.5 13.786 0.415 13.723 0.353 C 13.659 0.291 13.573 0.258 13.484 0.261 L 8.442 0.261 Z M 21.645 0.26 L 18.018 9.761 L 20.511 9.761 L 21.142 7.981 L 25.192 7.981 L 25.812 9.761 L 28.389 9.761 L 24.718 0.261 L 21.645 0.261 Z M 38.732 0.26 L 38.732 2.316 L 41.783 2.316 L 41.783 9.761 L 44.191 9.761 L 44.191 2.317 L 47.231 2.317 L 47.231 0.261 L 38.732 0.261 Z M 59.389 0.26 L 59.389 9.761 L 63.811 9.761 C 67.201 9.761 68.136 8.491 68.136 4.939 C 68.136 1.602 67.24 0.259 63.811 0.259 L 59.39 0.259 Z M 69.485 0.26 L 69.485 9.761 L 77.098 9.761 L 77.098 7.705 L 71.898 7.705 L 71.898 5.983 L 76.083 5.983 L 76.083 3.92 L 71.898 3.92 L 71.898 2.317 L 77.098 2.317 L 77.098 0.261 L 69.485 0.261 Z M 88.275 0.26 L 88.286 9.761 L 90.689 9.761 L 90.689 6.153 L 93.949 9.763 L 97 9.763 L 92.6 5.07 L 97 0.261 L 94.13 0.261 L 90.69 4.119 L 90.69 0.26 Z M 52.842 2.136 C 54.642 2.136 55.606 3.241 55.606 4.986 C 55.611 6.77 54.641 7.858 52.842 7.858 C 51.06 7.858 50.079 6.765 50.079 4.986 C 50.079 3.241 51.06 2.136 52.842 2.136 Z M 23.184 2.238 L 24.486 5.96 L 21.858 5.96 Z M 61.798 2.318 L 63.715 2.318 C 65.226 2.318 65.677 2.731 65.677 4.94 C 65.677 6.957 65.17 7.705 63.715 7.705 L 61.798 7.705 L 61.798 2.317 Z" fill="var(--1ckecfm, var(--token-fa32c9e5-8e93-4909-b6e0-a0c163ffe0ac, rgb(0, 0, 0)))" height="10px" id="LkFTvS0PG" transform="translate(0 5)" width="97.0000015258789px"/></svg>