<svg display="block" role="presentation" viewBox="0 0 48 20" xmlns="http://www.w3.org/2000/svg"><g d="M 13.119 1.724 C 13.119 0.742 13.904 0 14.908 0 C 15.934 0 16.72 0.742 16.72 1.724 C 16.72 2.707 15.934 3.449 14.908 3.449 C 13.904 3.449 13.119 2.707 13.119 1.724 Z M 13.359 4.371 L 16.502 4.371 L 16.502 15.787 L 13.359 15.787 Z M 26.608 9.785 L 26.608 9.632 C 26.608 7.689 25.582 6.511 23.858 6.511 C 22.09 6.511 21.107 7.776 21.107 9.654 L 21.107 9.828 C 21.107 11.727 22.22 12.906 23.792 12.906 C 25.451 12.906 26.608 11.727 26.608 9.785 Z M 17.964 16.027 L 21.107 16.027 C 21.304 17.032 22.024 17.686 23.639 17.686 C 25.56 17.686 26.521 16.682 26.521 14.892 L 26.521 13.168 C 25.888 14.281 24.534 15.285 22.853 15.285 C 20.081 15.285 17.877 13.212 17.877 9.828 L 17.877 9.675 C 17.877 6.401 20.06 4.11 22.897 4.11 C 24.752 4.11 25.866 4.917 26.521 6.074 L 26.521 4.371 L 29.664 4.371 L 29.664 14.892 C 29.642 18.276 27.394 20 23.639 20 C 19.95 20 18.27 18.385 17.964 16.027 Z M 37.216 7.645 C 38.94 7.645 39.857 6.816 39.857 5.266 L 39.857 5.179 C 39.857 3.52 38.897 2.865 37.216 2.865 L 35.426 2.865 L 35.426 7.645 Z M 31.912 0.181 L 37.303 0.181 C 41.101 0.181 43.262 1.861 43.262 5.157 L 43.262 5.244 C 43.262 8.541 40.97 10.112 37.412 10.112 L 35.426 10.112 L 35.426 15.787 L 31.912 15.787 Z M 44.31 1.724 C 44.31 0.742 45.096 0 46.1 0 C 47.125 0 47.911 0.742 47.911 1.724 C 47.911 2.707 47.125 3.449 46.1 3.449 C 45.096 3.449 44.31 2.707 44.31 1.724 Z M 44.55 4.371 L 47.693 4.371 L 47.693 15.787 L 44.55 15.787 Z M 11.306 4.24 L 11.306 4.327 C 11.306 5.964 10.521 7.165 8.775 7.667 C 9.195 7.753 9.575 7.87 9.914 8.023 L 0 14.353 L 0 6.925 L 9.481 0.871 C 10.689 1.534 11.306 2.666 11.306 4.24 Z M 9.481 0.871 L 0 6.925 L 0 0.18 L 6.133 0.18 C 7.526 0.18 8.645 0.413 9.481 0.871 Z M 11.896 11.334 L 11.896 11.422 C 11.896 14.281 10.019 15.786 6.417 15.786 L 0 15.786 L 0 14.353 L 9.914 8.023 C 11.21 8.601 11.896 9.672 11.896 11.334 Z" fill="transparent" height="20px" id="c_gn9HJKw" transform="translate(0 -0.07)" width="47.91144199454902px"><path d="M 0 1.724 C 0 0.742 0.786 0 1.79 0 C 2.816 0 3.602 0.742 3.602 1.724 C 3.602 2.707 2.816 3.449 1.79 3.449 C 0.786 3.449 0 2.707 0 1.724 Z" fill="var(--1ckecfm, var(--token-fa32c9e5-8e93-4909-b6e0-a0c163ffe0ac, rgb(0, 0, 0)))" height="3.448506648093781px" id="bjiRhnBP6" transform="translate(13.119 0)" width="3.601527637529216px"/><path d="M 0 0 L 3.143 0 L 3.143 11.416 L 0 11.416 Z" fill="var(--1ckecfm, var(--token-fa32c9e5-8e93-4909-b6e0-a0c163ffe0ac, rgb(0, 0, 0)))" height="11.415800398265608px" id="ZfsJ7_La9" transform="translate(13.359 4.371)" width="3.1432108083199637px"/><path d="M 8.731 5.675 L 8.731 5.522 C 8.731 3.579 7.705 2.401 5.981 2.401 C 4.213 2.401 3.23 3.667 3.23 5.544 L 3.23 5.719 C 3.23 7.618 4.344 8.797 5.915 8.797 C 7.574 8.797 8.731 7.618 8.731 5.675 Z M 0.087 11.918 L 3.23 11.918 C 3.427 12.922 4.147 13.577 5.763 13.577 C 7.683 13.577 8.644 12.572 8.644 10.783 L 8.644 9.058 C 8.011 10.171 6.657 11.176 4.977 11.176 C 2.205 11.176 0 9.102 0 5.719 L 0 5.566 C 0 2.292 2.183 0 5.02 0 C 6.876 0 7.989 0.807 8.644 1.965 L 8.644 0.262 L 11.787 0.262 L 11.787 10.783 C 11.765 14.166 9.517 15.89 5.763 15.89 C 2.074 15.89 0.393 14.275 0.087 11.918 Z" fill="var(--1ckecfm, var(--token-fa32c9e5-8e93-4909-b6e0-a0c163ffe0ac, rgb(0, 0, 0)))" height="15.890394133632247px" id="d8Z6Lk9S6" transform="translate(17.877 4.11)" width="11.786923843204477px"/><path d="M 5.304 7.465 C 7.028 7.465 7.945 6.636 7.945 5.086 L 7.945 4.998 C 7.945 3.339 6.985 2.685 5.304 2.685 L 3.514 2.685 L 3.514 7.465 Z M 0 0 L 5.391 0 C 9.189 0 11.35 1.681 11.35 4.977 L 11.35 5.064 C 11.35 8.36 9.058 9.932 5.501 9.932 L 3.514 9.932 L 3.514 15.607 L 0 15.607 Z" fill="var(--1ckecfm, var(--token-fa32c9e5-8e93-4909-b6e0-a0c163ffe0ac, rgb(0, 0, 0)))" height="15.60676059242907px" id="Xbt2iYfc7" transform="translate(31.912 0.181)" width="11.350431526355834px"/><path d="M 0 1.724 C 0 0.742 0.786 0 1.79 0 C 2.816 0 3.602 0.742 3.602 1.724 C 3.602 2.707 2.816 3.449 1.79 3.449 C 0.786 3.449 0 2.707 0 1.724 Z" fill="var(--1ckecfm, var(--token-fa32c9e5-8e93-4909-b6e0-a0c163ffe0ac, rgb(0, 0, 0)))" height="3.448514694022532px" id="WH_z9oUBa" transform="translate(44.31 0)" width="3.6017610558283195px"/><path d="M 0 0 L 3.143 0 L 3.143 11.416 L 0 11.416 Z" fill="var(--1ckecfm, var(--token-fa32c9e5-8e93-4909-b6e0-a0c163ffe0ac, rgb(0, 0, 0)))" height="11.415800398265608px" id="MlOmBpbT7" transform="translate(44.55 4.371)" width="3.142977390021315px"/><path d="M 11.306 3.369 L 11.306 3.456 C 11.306 5.093 10.521 6.294 8.775 6.796 C 9.195 6.882 9.575 6.999 9.914 7.151 L 0 13.481 L 0 6.054 L 9.481 0 C 10.689 0.663 11.306 1.794 11.306 3.369 Z" fill="var(--1ckecfm, var(--token-fa32c9e5-8e93-4909-b6e0-a0c163ffe0ac, rgb(0, 0, 0)))" height="13.481419292032939px" id="BPhvUXSkL" transform="translate(0 0.871)" width="11.306478938138753px"/><path d="M 9.481 0.692 L 0 6.746 L 0 0 L 6.133 0 C 7.526 0 8.645 0.233 9.481 0.692 Z" fill="var(--1ckecfm, var(--token-fa32c9e5-8e93-4909-b6e0-a0c163ffe0ac, rgb(0, 0, 0)))" height="6.74559509100519px" id="W3jIzMEKb" transform="translate(0 0.18)" width="9.480762703257824px"/><path d="M 11.896 3.311 L 11.896 3.399 C 11.896 6.258 10.019 7.764 6.417 7.764 L 0 7.764 L 0 6.33 L 9.914 0 C 11.21 0.578 11.896 1.65 11.896 3.311 Z" fill="var(--1ckecfm, var(--token-fa32c9e5-8e93-4909-b6e0-a0c163ffe0ac, rgb(0, 0, 0)))" height="7.763761040929111px" id="SnaQ7O_tk" transform="translate(0 8.023)" width="11.896046876624496px"/></g></svg>