<svg display="block" role="presentation" viewBox="0 0 84 20" xmlns="http://www.w3.org/2000/svg"><g d="M 17.725 10.33 C 17.212 10.33 16.74 10.244 16.308 10.07 C 15.885 9.902 15.503 9.651 15.183 9.331 C 14.862 9.008 14.612 8.623 14.447 8.201 C 14.276 7.765 14.19 7.284 14.19 6.759 C 14.19 6.248 14.281 5.776 14.463 5.343 C 14.636 4.922 14.893 4.54 15.217 4.217 C 15.543 3.896 15.93 3.644 16.357 3.474 C 16.795 3.297 17.274 3.209 17.794 3.209 C 18.117 3.209 18.436 3.252 18.747 3.336 C 19.055 3.42 19.349 3.548 19.619 3.716 C 19.889 3.882 20.12 4.081 20.315 4.311 L 19.303 5.481 C 19.171 5.341 19.026 5.214 18.869 5.103 C 18.553 4.878 18.173 4.759 17.783 4.763 C 17.531 4.762 17.281 4.81 17.048 4.906 C 16.818 5 16.616 5.136 16.444 5.309 C 16.267 5.491 16.129 5.707 16.04 5.943 C 15.942 6.193 15.894 6.471 15.894 6.78 C 15.894 7.081 15.942 7.355 16.04 7.601 C 16.132 7.837 16.271 8.053 16.45 8.236 C 16.629 8.415 16.846 8.553 17.087 8.639 C 17.354 8.734 17.636 8.78 17.92 8.777 C 18.128 8.777 18.326 8.747 18.514 8.688 C 18.698 8.631 18.873 8.551 19.035 8.448 C 19.19 8.349 19.332 8.231 19.458 8.098 L 20.256 9.377 C 20.094 9.56 19.879 9.724 19.609 9.868 C 19.34 10.013 19.041 10.126 18.713 10.207 C 18.39 10.289 18.058 10.331 17.725 10.331 Z M 26.832 8.914 L 26.346 10.232 L 24.71 10.232 L 27.408 3.346 L 28.81 3.346 L 31.488 10.232 L 29.813 10.232 L 29.328 8.914 Z M 28.863 7.655 L 28.528 6.74 C 28.472 6.593 28.42 6.446 28.371 6.297 C 28.32 6.14 28.267 5.977 28.215 5.81 L 28.088 5.395 C 28.044 5.534 28.001 5.673 27.957 5.81 C 27.909 5.964 27.855 6.118 27.796 6.272 C 27.739 6.426 27.683 6.586 27.631 6.75 L 27.297 7.655 Z M 36.525 10.232 L 36.525 3.346 L 39.378 3.346 C 39.878 3.346 40.335 3.429 40.751 3.597 C 41.157 3.758 41.523 4.001 41.828 4.31 C 42.133 4.623 42.37 4.995 42.524 5.402 C 42.686 5.822 42.768 6.284 42.768 6.789 C 42.768 7.294 42.686 7.758 42.524 8.18 C 42.372 8.589 42.134 8.961 41.828 9.273 C 41.522 9.58 41.156 9.821 40.751 9.982 C 40.335 10.148 39.878 10.232 39.378 10.232 Z M 38.18 4.821 L 38.18 8.757 L 39.33 8.757 C 39.602 8.757 39.845 8.709 40.06 8.614 C 40.27 8.521 40.458 8.385 40.61 8.215 C 40.762 8.045 40.881 7.839 40.965 7.595 C 41.05 7.353 41.092 7.084 41.092 6.789 C 41.092 6.494 41.05 6.225 40.965 5.982 C 40.89 5.755 40.769 5.544 40.61 5.362 C 40.458 5.192 40.27 5.057 40.06 4.964 C 39.845 4.869 39.602 4.821 39.33 4.821 Z M 51.096 10.252 C 50.622 10.252 50.187 10.167 49.791 9.996 C 49.398 9.827 49.046 9.578 48.759 9.263 C 48.46 8.935 48.23 8.553 48.082 8.137 C 47.922 7.704 47.843 7.228 47.843 6.71 C 47.843 6.219 47.929 5.761 48.102 5.338 C 48.267 4.925 48.51 4.547 48.817 4.222 C 49.116 3.905 49.477 3.651 49.878 3.474 C 50.289 3.295 50.734 3.205 51.183 3.209 C 51.515 3.209 51.837 3.259 52.15 3.361 C 52.457 3.456 52.747 3.599 53.009 3.784 C 53.27 3.964 53.472 4.169 53.641 4.399 L 52.933 5.136 C 52.761 4.96 52.572 4.8 52.369 4.659 C 52.187 4.537 51.99 4.44 51.783 4.369 C 51.59 4.305 51.387 4.271 51.183 4.27 C 50.881 4.269 50.581 4.329 50.304 4.447 C 50.027 4.566 49.777 4.74 49.572 4.96 C 49.362 5.184 49.199 5.446 49.09 5.732 C 48.97 6.044 48.911 6.376 48.914 6.71 C 48.914 7.084 48.972 7.424 49.085 7.728 C 49.189 8.019 49.354 8.285 49.567 8.51 C 49.776 8.728 50.03 8.898 50.313 9.007 C 50.601 9.122 50.92 9.18 51.271 9.18 C 51.485 9.18 51.696 9.15 51.904 9.091 C 52.112 9.032 52.31 8.947 52.487 8.835 C 52.668 8.725 52.835 8.593 52.984 8.442 L 53.514 9.307 C 53.362 9.484 53.161 9.645 52.9 9.789 C 52.647 9.933 52.36 10.047 52.046 10.128 C 51.736 10.21 51.416 10.251 51.096 10.252 Z M 59.662 7.232 L 59.662 10.153 L 58.609 10.153 L 58.609 3.267 L 59.662 3.267 L 59.662 6.208 L 63.056 6.208 L 63.056 3.267 L 64.109 3.267 L 64.109 10.153 L 63.056 10.153 L 63.056 7.232 Z M 70.694 8.442 L 70.046 10.153 L 68.976 10.153 L 71.612 3.267 L 72.682 3.267 L 75.301 10.153 L 74.189 10.153 L 73.541 8.442 Z M 73.162 7.419 L 72.623 6.001 C 72.606 5.957 72.572 5.845 72.513 5.667 C 72.463 5.49 72.396 5.294 72.328 5.078 C 72.257 4.881 72.193 4.683 72.134 4.483 C 72.126 4.476 72.126 4.469 72.126 4.462 C 72.117 4.489 72.109 4.517 72.092 4.546 C 72.042 4.717 71.983 4.897 71.924 5.087 C 71.856 5.278 71.797 5.457 71.738 5.623 L 71.595 6.041 L 71.073 7.419 Z M 80.977 10.153 L 80.977 4.291 L 79.065 4.291 L 79.065 3.268 L 84 3.268 L 84 4.291 L 82.03 4.291 L 82.03 10.154 Z M 5.397 0 L 5.397 3.938 L 3.468 5.031 L 3.468 8.969 L 5.397 10.063 L 5.397 14 L 0 10.94 L 0.007 3.057 Z M 3.468 5.031 L 5.397 3.937 L 8.869 5.906 L 6.94 7 L 6.94 7 L 6.94 7 Z M 6.94 7 L 6.94 7 L 3.468 8.969 L 5.397 10.062 L 8.869 8.094 L 6.94 7 Z M 5.397 0 L 5.397 3.938 L 8.869 5.906 L 8.869 1.969 Z M 5.397 10.062 L 5.397 14 L 8.869 12.031 L 8.869 8.094 Z" fill="transparent" height="14px" id="RZwhBH0vP" transform="translate(0 2.875)" width="84.00000478969605px"><path d="M 3.535 7.122 C 3.022 7.122 2.55 7.035 2.118 6.861 C 1.696 6.694 1.313 6.442 0.993 6.123 C 0.672 5.8 0.422 5.415 0.258 4.992 C 0.086 4.556 0 4.076 0 3.551 C 0 3.04 0.091 2.568 0.273 2.135 C 0.446 1.714 0.703 1.331 1.027 1.009 C 1.353 0.688 1.74 0.435 2.167 0.266 C 2.605 0.089 3.084 0 3.604 0 C 3.927 0 4.246 0.043 4.558 0.128 C 4.865 0.211 5.159 0.339 5.429 0.507 C 5.699 0.674 5.93 0.872 6.125 1.102 L 5.113 2.272 C 4.981 2.132 4.836 2.006 4.679 1.894 C 4.363 1.67 3.983 1.551 3.594 1.555 C 3.341 1.553 3.091 1.602 2.858 1.698 C 2.628 1.792 2.426 1.927 2.254 2.101 C 2.077 2.283 1.94 2.498 1.85 2.735 C 1.752 2.984 1.705 3.263 1.705 3.571 C 1.705 3.872 1.752 4.147 1.85 4.392 C 1.942 4.629 2.081 4.845 2.26 5.027 C 2.439 5.207 2.657 5.344 2.897 5.43 C 3.164 5.525 3.446 5.572 3.73 5.568 C 3.938 5.568 4.136 5.538 4.324 5.48 C 4.508 5.423 4.683 5.342 4.845 5.239 C 5 5.14 5.142 5.023 5.268 4.889 L 6.067 6.168 C 5.904 6.352 5.689 6.516 5.419 6.659 C 5.15 6.804 4.852 6.917 4.523 6.999 C 4.201 7.081 3.869 7.122 3.535 7.122 Z M 12.643 5.706 L 12.156 7.023 L 10.52 7.023 L 13.218 0.137 L 14.62 0.137 L 17.298 7.023 L 15.623 7.023 L 15.138 5.706 Z M 14.674 4.446 L 14.338 3.531 C 14.283 3.385 14.23 3.237 14.181 3.089 C 14.13 2.931 14.078 2.769 14.025 2.602 L 13.898 2.186 C 13.854 2.325 13.812 2.464 13.768 2.602 C 13.719 2.756 13.666 2.91 13.607 3.064 C 13.549 3.218 13.493 3.377 13.442 3.541 L 13.107 4.446 Z M 22.335 7.023 L 22.335 0.137 L 25.188 0.137 C 25.688 0.137 26.146 0.221 26.562 0.389 C 26.967 0.549 27.334 0.792 27.638 1.102 C 27.943 1.415 28.18 1.787 28.334 2.194 C 28.496 2.613 28.578 3.076 28.578 3.581 C 28.578 4.085 28.496 4.549 28.334 4.972 C 28.182 5.38 27.945 5.752 27.638 6.064 C 27.332 6.371 26.966 6.612 26.562 6.773 C 26.146 6.94 25.688 7.023 25.188 7.023 Z M 23.99 1.613 L 23.99 5.548 L 25.14 5.548 C 25.412 5.548 25.656 5.5 25.87 5.405 C 26.08 5.313 26.268 5.177 26.42 5.007 C 26.573 4.836 26.691 4.63 26.776 4.387 C 26.86 4.145 26.902 3.875 26.902 3.58 C 26.902 3.285 26.86 3.016 26.776 2.774 C 26.7 2.546 26.579 2.335 26.42 2.154 C 26.268 1.984 26.08 1.848 25.87 1.756 C 25.656 1.66 25.412 1.613 25.14 1.613 Z M 36.906 7.043 C 36.432 7.043 35.997 6.958 35.601 6.787 C 35.208 6.619 34.856 6.369 34.569 6.055 C 34.271 5.727 34.041 5.344 33.892 4.929 C 33.733 4.495 33.653 4.02 33.653 3.502 C 33.653 3.01 33.739 2.552 33.912 2.129 C 34.077 1.717 34.32 1.338 34.627 1.014 C 34.926 0.697 35.287 0.442 35.689 0.266 C 36.1 0.087 36.544 -0.004 36.993 0 C 37.325 0 37.648 0.05 37.96 0.152 C 38.267 0.248 38.557 0.39 38.819 0.575 C 39.08 0.756 39.282 0.96 39.451 1.191 L 38.743 1.928 C 38.572 1.751 38.382 1.591 38.179 1.451 C 37.998 1.329 37.801 1.231 37.593 1.161 C 37.4 1.096 37.197 1.063 36.993 1.062 C 36.691 1.06 36.391 1.12 36.114 1.239 C 35.837 1.358 35.587 1.532 35.382 1.751 C 35.173 1.975 35.009 2.238 34.9 2.523 C 34.781 2.836 34.721 3.168 34.725 3.502 C 34.725 3.875 34.782 4.215 34.895 4.52 C 35 4.81 35.164 5.077 35.377 5.302 C 35.586 5.519 35.84 5.689 36.123 5.799 C 36.411 5.913 36.731 5.971 37.081 5.971 C 37.296 5.971 37.506 5.941 37.714 5.883 C 37.922 5.823 38.12 5.738 38.297 5.627 C 38.478 5.516 38.645 5.384 38.794 5.233 L 39.324 6.099 C 39.173 6.276 38.971 6.437 38.71 6.58 C 38.457 6.725 38.171 6.838 37.856 6.92 C 37.546 7.001 37.227 7.043 36.906 7.043 Z M 45.472 4.023 L 45.472 6.945 L 44.419 6.945 L 44.419 0.059 L 45.472 0.059 L 45.472 3 L 48.866 3 L 48.866 0.059 L 49.919 0.059 L 49.919 6.945 L 48.866 6.945 L 48.866 4.023 Z M 56.504 5.233 L 55.856 6.945 L 54.786 6.945 L 57.423 0.059 L 58.492 0.059 L 61.111 6.945 L 59.999 6.945 L 59.351 5.233 Z M 58.972 4.21 L 58.433 2.793 C 58.417 2.748 58.382 2.636 58.324 2.459 C 58.273 2.282 58.206 2.085 58.138 1.869 C 58.067 1.673 58.003 1.474 57.945 1.274 C 57.936 1.267 57.936 1.26 57.936 1.253 C 57.928 1.281 57.919 1.309 57.902 1.338 C 57.852 1.508 57.793 1.689 57.734 1.879 C 57.667 2.069 57.608 2.248 57.548 2.415 L 57.405 2.833 L 56.883 4.21 Z M 66.787 6.945 L 66.787 1.082 L 64.875 1.082 L 64.875 0.059 L 69.81 0.059 L 69.81 1.083 L 67.84 1.083 L 67.84 6.945 Z" fill="var(--1ckecfm, var(--token-fa32c9e5-8e93-4909-b6e0-a0c163ffe0ac, rgb(0, 0, 0)))" height="7.122139441452939px" id="ar4ol3Puh" transform="translate(14.19 3.209)" width="69.81021597133667px"/><path d="M 5.397 0 L 5.397 3.938 L 3.468 5.031 L 3.468 8.969 L 5.397 10.063 L 5.397 14 L 0 10.94 L 0.007 3.057 Z" fill="var(--1ckecfm, var(--token-fa32c9e5-8e93-4909-b6e0-a0c163ffe0ac, rgb(0, 0, 0)))" height="14px" id="VmobKGjsX" width="5.396553831353685px"/><path d="M 0 1.094 L 1.929 0 L 5.401 1.969 L 3.472 3.062 L 3.472 3.062 L 3.472 3.062 Z M 3.472 3.063 L 3.472 3.062 L 0 5.031 L 1.929 6.125 L 5.401 4.156 L 3.472 3.062 Z" fill="var(--1ckecfm, var(--token-fa32c9e5-8e93-4909-b6e0-a0c163ffe0ac, rgb(0, 0, 0)))" height="6.124999761581422px" id="G6OBc0qeJ" transform="translate(3.468 3.937)" width="5.401023555156826px"/><path d="M 0 0 L 0 3.937 L 3.472 5.906 L 3.472 1.969 Z M 0 10.062 L 0 14 L 3.472 12.031 L 3.472 8.094 Z" fill="var(--1ckecfm, var(--token-fa32c9e5-8e93-4909-b6e0-a0c163ffe0ac, rgb(0, 0, 0)))" height="14px" id="GD5bBtuVL" transform="translate(5.397 0)" width="3.472099278866608px"/></g></svg>