<svg display="block" role="presentation" viewBox="0 0 82 20" xmlns="http://www.w3.org/2000/svg"><g d="M 0 14.753 L 2.936 12.491 C 4.496 14.538 6.154 15.482 7.999 15.482 C 9.834 15.482 11.444 14.55 12.934 12.518 L 15.912 14.726 C 13.763 17.655 11.092 19.203 7.999 19.203 C 4.916 19.203 2.219 17.665 0 14.753 Z M 7.989 4.921 L 2.763 9.45 L 0.347 6.633 L 8 0 L 15.593 6.638 L 13.166 9.445 Z M 38.783 2.883 C 39.726 2.883 40.453 3.597 40.453 4.545 C 40.453 5.524 39.726 6.24 38.783 6.24 L 38.783 6.239 C 37.809 6.239 37.099 5.524 37.099 4.545 C 37.099 3.597 37.842 2.883 38.783 2.883 Z M 36.028 3.547 L 36.028 16.227 L 33.12 16.227 L 33.12 3.547 Z M 27.172 16.41 C 25.388 16.41 23.901 15.829 22.695 14.665 C 21.489 13.486 20.894 11.974 20.894 10.129 C 20.894 8.268 21.505 6.739 22.711 5.542 C 23.934 4.329 25.421 3.732 27.19 3.732 C 29.371 3.732 31.304 4.678 32.428 6.158 L 30.46 8.235 C 29.518 7.22 28.493 6.706 27.387 6.706 C 26.445 6.706 25.668 7.021 25.023 7.669 C 24.395 8.318 24.082 9.133 24.082 10.113 C 24.082 11.06 24.395 11.858 25.023 12.506 C 25.668 13.137 26.445 13.452 27.37 13.452 C 28.576 13.452 29.634 12.92 30.51 11.874 L 32.559 13.852 C 31.997 14.6 31.237 15.215 30.295 15.696 C 29.353 16.178 28.312 16.41 27.172 16.41 Z M 40.254 7.053 L 40.254 16.227 L 37.329 16.227 L 37.329 7.053 Z M 41.012 11.624 C 41.012 10.211 41.459 9.065 42.367 8.167 C 43.276 7.269 44.449 6.821 45.903 6.821 C 47.803 6.821 49.473 7.752 50.249 9.497 L 47.919 10.727 C 47.457 9.946 46.812 9.546 45.97 9.546 C 45.358 9.546 44.862 9.746 44.465 10.145 C 44.085 10.541 43.877 11.073 43.887 11.624 C 43.887 12.837 44.762 13.734 45.936 13.734 C 46.779 13.734 47.556 13.269 47.886 12.555 L 50.217 13.95 C 49.423 15.479 47.787 16.427 45.854 16.427 C 44.416 16.427 43.259 15.978 42.351 15.08 C 41.459 14.183 41.012 13.036 41.012 11.624 Z M 60.359 16.227 L 56.888 16.227 L 54.193 12.587 L 53.764 12.987 L 53.764 16.227 L 50.858 16.227 L 50.858 3.547 L 53.765 3.547 L 53.765 9.712 L 56.508 7.053 L 60.061 7.053 L 56.146 10.743 Z M 63.661 3.946 L 63.661 11.408 C 63.661 12.787 64.454 13.452 65.595 13.452 C 66.718 13.452 67.511 12.754 67.511 11.408 L 67.511 3.946 L 70.635 3.946 L 70.635 11.458 C 70.635 15.08 68.139 16.443 65.595 16.443 C 63.066 16.443 60.554 15.08 60.554 11.458 L 60.554 3.946 Z M 77.538 6.821 C 78.845 6.821 79.903 7.287 80.745 8.217 C 81.587 9.131 82 10.278 82 11.624 C 82 12.971 81.571 14.117 80.729 15.064 C 79.885 15.994 78.828 16.46 77.556 16.46 C 76.547 16.46 75.671 16.128 74.961 15.463 L 74.961 20 L 72.036 20 L 72.036 7.053 L 74.912 7.053 L 74.912 7.902 C 75.622 7.186 76.498 6.821 77.538 6.821 Z M 74.912 11.657 C 74.912 12.239 75.109 12.738 75.49 13.153 C 75.886 13.569 76.382 13.768 76.977 13.768 C 77.572 13.768 78.067 13.569 78.447 13.153 C 78.826 12.749 79.034 12.213 79.027 11.657 L 79.026 11.657 C 79.026 10.461 78.168 9.547 76.977 9.547 C 75.787 9.547 74.912 10.461 74.912 11.657 Z" fill="transparent" height="20px" id="fBcDzyIvT" width="82.00000111114684px"><path d="M 0 2.262 L 2.936 0 C 4.496 2.048 6.154 2.991 7.999 2.991 C 9.834 2.991 11.444 2.059 12.934 0.027 L 15.912 2.235 C 13.763 5.164 11.092 6.712 7.999 6.712 C 4.916 6.712 2.219 5.174 0 2.262 Z" fill="var(--1ckecfm, var(--token-fa32c9e5-8e93-4909-b6e0-a0c163ffe0ac, rgb(0, 0, 0)))" height="6.712024806771238px" id="tkN1REViZ" transform="translate(0 12.491)" width="15.912162556331623px"/><path d="M 7.642 4.921 L 2.416 9.45 L 0 6.633 L 7.653 0 L 15.246 6.638 L 12.819 9.445 Z" fill="var(--1ckecfm, var(--token-fa32c9e5-8e93-4909-b6e0-a0c163ffe0ac, rgb(0, 0, 0)))" height="9.450474727935521px" id="R1BBKjRQu" transform="translate(0.347 0)" width="15.246248147348695px"/><path d="M 17.889 0 C 18.831 0 19.559 0.714 19.559 1.662 C 19.559 2.642 18.831 3.357 17.889 3.357 L 17.889 3.356 C 16.915 3.356 16.205 2.642 16.205 1.662 C 16.205 0.714 16.948 0 17.889 0 Z M 15.133 0.665 L 15.133 13.345 L 12.225 13.345 L 12.225 0.665 Z M 6.278 13.528 C 4.493 13.528 3.006 12.946 1.8 11.783 C 0.594 10.603 0 9.091 0 7.246 C 0 5.386 0.61 3.857 1.816 2.66 C 3.04 1.447 4.527 0.849 6.296 0.849 C 8.477 0.849 10.41 1.795 11.534 3.275 L 9.566 5.352 C 8.624 4.338 7.599 3.823 6.493 3.823 C 5.551 3.823 4.774 4.138 4.129 4.787 C 3.501 5.435 3.188 6.25 3.188 7.23 C 3.188 8.177 3.501 8.975 4.129 9.624 C 4.774 10.255 5.551 10.57 6.476 10.57 C 7.682 10.57 8.74 10.038 9.615 8.991 L 11.665 10.969 C 11.103 11.717 10.343 12.332 9.401 12.813 C 8.459 13.296 7.418 13.528 6.278 13.528 Z M 19.36 4.171 L 19.36 13.344 L 16.435 13.344 L 16.435 4.171 Z M 20.118 8.741 C 20.118 7.328 20.564 6.182 21.473 5.284 C 22.382 4.386 23.555 3.939 25.009 3.939 C 26.909 3.939 28.579 4.869 29.355 6.614 L 27.025 7.844 C 26.563 7.063 25.918 6.664 25.075 6.664 C 24.464 6.664 23.968 6.863 23.571 7.263 C 23.19 7.658 22.982 8.19 22.993 8.741 C 22.993 9.954 23.868 10.852 25.042 10.852 C 25.884 10.852 26.661 10.387 26.992 9.672 L 29.323 11.068 C 28.528 12.597 26.893 13.544 24.96 13.544 C 23.522 13.544 22.365 13.095 21.457 12.197 C 20.564 11.301 20.118 10.154 20.118 8.741 Z M 39.465 13.345 L 35.994 13.345 L 33.299 9.705 L 32.87 10.104 L 32.87 13.345 L 29.963 13.345 L 29.963 0.665 L 32.871 0.665 L 32.871 6.83 L 35.614 4.171 L 39.167 4.171 L 35.252 7.86 Z M 42.767 1.063 L 42.767 8.525 C 42.767 9.904 43.56 10.569 44.7 10.569 C 45.824 10.569 46.617 9.871 46.617 8.525 L 46.617 1.063 L 49.741 1.063 L 49.741 8.575 C 49.741 12.198 47.244 13.561 44.7 13.561 C 42.172 13.561 39.66 12.198 39.66 8.575 L 39.66 1.063 Z M 56.644 3.939 C 57.95 3.939 59.008 4.404 59.851 5.334 C 60.693 6.248 61.106 7.395 61.106 8.741 C 61.106 10.088 60.677 11.234 59.835 12.181 C 58.991 13.111 57.934 13.578 56.662 13.578 C 55.653 13.578 54.777 13.245 54.067 12.581 L 54.067 17.117 L 51.142 17.117 L 51.142 4.171 L 54.018 4.171 L 54.018 5.019 C 54.728 4.303 55.604 3.939 56.644 3.939 Z M 54.018 8.775 C 54.018 9.356 54.215 9.855 54.596 10.27 C 54.992 10.686 55.487 10.886 56.083 10.886 C 56.677 10.886 57.173 10.686 57.553 10.27 C 57.932 9.866 58.14 9.33 58.133 8.775 L 58.131 8.775 C 58.131 7.578 57.273 6.664 56.083 6.664 C 54.893 6.664 54.018 7.578 54.018 8.775 Z" fill="var(--1ckecfm, var(--token-fa32c9e5-8e93-4909-b6e0-a0c163ffe0ac, rgb(0, 0, 0)))" height="17.117300057775424px" id="s52WOnXyY" transform="translate(20.894 2.883)" width="61.10577122223083px"/></g></svg>