<svg display="block" role="presentation" viewBox="0 0 56 20" xmlns="http://www.w3.org/2000/svg"><g d="M 9.934 19.406 C 9.934 19.734 10.181 19.999 10.487 19.999 L 18.118 19.999 C 18.423 19.999 18.672 19.733 18.653 19.406 C 18.378 14.706 14.871 10.946 10.485 10.651 C 10.181 10.631 9.933 10.899 9.933 11.225 L 9.933 19.405 Z M 8.719 11.244 C 8.719 10.916 8.473 10.651 8.167 10.651 L 0.536 10.651 C 0.23 10.651 -0.018 10.918 0.001 11.244 C 0.276 15.945 3.783 19.705 8.168 19.999 C 8.473 20.019 8.721 19.751 8.721 19.425 L 8.721 11.246 Z M 8.719 8.756 C 8.719 9.084 8.473 9.349 8.167 9.349 L 0.536 9.349 C 0.23 9.349 -0.018 9.082 0.001 8.756 C 0.274 4.057 3.781 0.295 8.167 0.001 C 8.471 -0.019 8.719 0.249 8.719 0.575 Z M 9.934 0.594 C 9.934 0.266 10.181 0.001 10.487 0.001 L 18.118 0.001 C 18.423 0.001 18.672 0.268 18.653 0.594 C 18.378 5.294 14.871 9.054 10.485 9.349 C 10.181 9.369 9.933 9.101 9.933 8.775 L 9.933 0.594 Z M 28.032 9.215 C 27.688 8.415 27.064 8.015 26.221 8.015 C 25.096 8.015 24.347 8.982 24.347 10.215 C 24.347 11.449 25.159 12.416 26.281 12.416 C 27.093 12.416 27.655 12.015 28.03 11.249 L 30.496 11.249 C 30.029 13.416 28.28 14.816 26.221 14.816 C 23.817 14.816 21.945 12.749 21.945 10.182 C 21.945 7.614 23.848 5.581 26.189 5.581 C 28.312 5.581 30.06 7.014 30.496 9.215 L 28.03 9.215 Z M 31.558 5.881 L 33.837 5.881 L 33.837 6.815 L 33.868 6.815 C 34.305 5.881 34.962 5.615 35.897 5.615 L 35.897 8.214 C 34.461 8.214 33.994 8.814 33.994 9.781 L 33.994 14.547 L 31.558 14.547 Z M 42.766 10.18 C 42.766 8.98 41.86 7.979 40.706 7.979 C 39.552 7.979 38.709 8.946 38.709 10.213 C 38.709 11.413 39.615 12.38 40.738 12.38 C 41.892 12.414 42.766 11.447 42.766 10.18 Z M 42.766 14.514 L 42.766 13.58 L 42.735 13.58 C 42.39 14.346 41.424 14.814 40.362 14.814 C 37.958 14.814 36.304 12.814 36.304 10.18 C 36.304 7.545 38.052 5.58 40.362 5.58 C 41.361 5.58 42.265 6.014 42.735 6.779 L 42.766 6.779 L 42.766 5.846 L 45.201 5.846 L 45.201 14.478 L 42.766 14.478 Z M 52.286 8.181 L 49.663 8.181 L 49.663 14.514 L 47.228 14.514 L 47.228 8.181 L 46.166 8.181 L 46.166 5.881 L 47.228 5.881 L 47.228 5.682 C 47.228 3.916 48.102 3.016 50.381 3.016 L 50.537 3.016 L 50.537 4.95 C 49.819 4.95 49.632 5.317 49.632 5.883 L 52.254 5.883 L 52.254 3.018 L 54.689 3.018 L 54.689 5.883 L 56 5.883 L 56 8.182 L 54.689 8.182 L 54.689 14.516 L 52.286 14.516 Z" fill="transparent" height="19.9999994642032px" id="ZwDLOvTym" width="55.999994886635704px"><path d="M 0.002 8.756 C 0.002 9.084 0.249 9.349 0.554 9.349 L 8.185 9.349 C 8.491 9.349 8.739 9.082 8.72 8.756 C 8.446 4.055 4.938 0.295 0.553 0.001 C 0.249 -0.019 0 0.249 0 0.575 L 0 8.754 Z" fill="var(--1ckecfm, var(--token-fa32c9e5-8e93-4909-b6e0-a0c163ffe0ac, rgb(0, 0, 0)))" height="9.348798634442256px" id="KseovdTLk" transform="translate(9.933 10.65)" width="8.721249985428075px"/><path d="M 8.719 0.593 C 8.719 0.265 8.473 0 8.167 0 L 0.536 0 C 0.23 0 -0.018 0.266 0.001 0.593 C 0.276 5.293 3.783 9.053 8.168 9.348 C 8.473 9.368 8.721 9.1 8.721 8.774 L 8.721 0.594 Z" fill="var(--1ckecfm, var(--token-fa32c9e5-8e93-4909-b6e0-a0c163ffe0ac, rgb(0, 0, 0)))" height="9.348800123382883px" id="gDntWRW6v" transform="translate(0 10.651)" width="8.721218060182878px"/><path d="M 8.719 8.756 C 8.719 9.084 8.473 9.349 8.167 9.349 L 0.536 9.349 C 0.23 9.349 -0.018 9.082 0.001 8.756 C 0.274 4.057 3.781 0.295 8.167 0.001 C 8.471 -0.019 8.719 0.249 8.719 0.575 Z" fill="var(--1ckecfm, var(--token-fa32c9e5-8e93-4909-b6e0-a0c163ffe0ac, rgb(0, 0, 0)))" height="9.348823015543283px" id="YF0pcEhXa" transform="translate(0 0)" width="8.719479726903273px"/><path d="M 0.002 0.593 C 0.002 0.265 0.249 0 0.554 0 L 8.185 0 C 8.491 0 8.739 0.266 8.72 0.593 C 8.446 5.293 4.938 9.053 0.553 9.348 C 0.249 9.368 0 9.1 0 8.774 L 0 0.593 Z" fill="var(--1ckecfm, var(--token-fa32c9e5-8e93-4909-b6e0-a0c163ffe0ac, rgb(0, 0, 0)))" height="9.348822208218756px" id="LHJsaLsp1" transform="translate(9.933 0.001)" width="8.721249985428075px"/><path d="M 6.087 3.633 C 5.743 2.834 5.119 2.433 4.276 2.433 C 3.151 2.433 2.402 3.4 2.402 4.634 C 2.402 5.867 3.214 6.834 4.337 6.834 C 5.148 6.834 5.71 6.434 6.085 5.668 L 8.552 5.668 C 8.084 7.835 6.335 9.234 4.276 9.234 C 1.872 9.234 0 7.168 0 4.6 C 0 2.033 1.903 0 4.244 0 C 6.367 0 8.115 1.433 8.552 3.633 L 6.085 3.633 Z" fill="var(--1ckecfm, var(--token-fa32c9e5-8e93-4909-b6e0-a0c163ffe0ac, rgb(0, 0, 0)))" height="9.234110382498848px" id="tP6LBvOng" transform="translate(21.945 5.581)" width="8.551549735831827px"/><path d="M 0 0.266 L 2.279 0.266 L 2.279 1.2 L 2.31 1.2 C 2.746 0.266 3.403 0 4.338 0 L 4.338 2.599 C 2.903 2.599 2.435 3.199 2.435 4.166 L 2.435 8.932 L 0 8.932 Z" fill="var(--1ckecfm, var(--token-fa32c9e5-8e93-4909-b6e0-a0c163ffe0ac, rgb(0, 0, 0)))" height="8.932197543039px" id="d8JmocwVN" transform="translate(31.558 5.615)" width="4.338366532649047px"/><path d="M 6.462 4.6 C 6.462 3.4 5.557 2.4 4.403 2.4 C 3.249 2.4 2.406 3.367 2.406 4.634 C 2.406 5.834 3.311 6.801 4.434 6.801 C 5.588 6.834 6.462 5.867 6.462 4.6 Z M 6.462 8.934 L 6.462 8.001 L 6.431 8.001 C 6.087 8.766 5.12 9.234 4.059 9.234 C 1.655 9.234 0 7.235 0 4.6 C 0 1.966 1.749 0 4.059 0 C 5.058 0 5.962 0.434 6.431 1.2 L 6.462 1.2 L 6.462 0.266 L 8.897 0.266 L 8.897 8.899 L 6.462 8.899 Z" fill="var(--1ckecfm, var(--token-fa32c9e5-8e93-4909-b6e0-a0c163ffe0ac, rgb(0, 0, 0)))" height="9.234097888875583px" id="tRqhBHHGL" transform="translate(36.304 5.58)" width="8.897466382923767px"/><path d="M 6.12 5.165 L 3.497 5.165 L 3.497 11.498 L 1.062 11.498 L 1.062 5.165 L 0 5.165 L 0 2.866 L 1.062 2.866 L 1.062 2.666 C 1.062 0.9 1.936 0 4.215 0 L 4.371 0 L 4.371 1.934 C 3.654 1.934 3.466 2.301 3.466 2.867 L 6.089 2.867 L 6.089 0.002 L 8.524 0.002 L 8.524 2.867 L 9.834 2.867 L 9.834 5.167 L 8.524 5.167 L 8.524 11.5 L 6.12 11.5 Z" fill="var(--1ckecfm, var(--token-fa32c9e5-8e93-4909-b6e0-a0c163ffe0ac, rgb(0, 0, 0)))" height="11.499737929888298px" id="O8e_oSJ5R" transform="translate(46.166 3.016)" width="9.834299696206017px"/></g></svg>