<svg display="block" role="presentation" viewBox="0 0 61 20" xmlns="http://www.w3.org/2000/svg"><path d="M 0 6.847 C 0 4.861 0 2.875 0 0.89 C 0 0.701 0.015 0.518 0.125 0.355 C 0.286 0.116 0.517 0.014 0.796 0.001 C 0.832 0 0.869 0 0.905 0 C 3.33 0 5.754 0 8.179 0 C 9.008 0 9.799 0.163 10.531 0.56 C 11.564 1.12 12.311 1.942 12.753 3.036 C 13.01 3.672 13.129 4.335 13.087 5.019 C 12.995 6.523 12.35 7.741 11.148 8.656 C 11.026 8.748 10.896 8.83 10.768 8.915 C 10.525 9.075 10.484 9.321 10.663 9.552 C 11.397 10.495 12.133 11.437 12.863 12.383 C 12.946 12.491 13.022 12.615 13.06 12.745 C 13.191 13.198 12.871 13.665 12.4 13.695 C 12.036 13.718 11.669 13.703 11.304 13.705 C 11.158 13.706 11.011 13.7 10.865 13.706 C 10.563 13.717 10.329 13.595 10.146 13.359 C 9.774 12.879 9.401 12.402 9.028 11.923 C 7.967 10.559 6.91 9.191 5.843 7.832 C 5.524 7.426 5.634 6.923 5.976 6.682 C 6.126 6.576 6.295 6.539 6.474 6.539 C 7.074 6.538 7.673 6.544 8.273 6.536 C 9.052 6.527 9.601 6.156 9.906 5.445 C 10.294 4.543 9.771 3.433 8.83 3.158 C 8.634 3.101 8.421 3.073 8.216 3.072 C 6.783 3.065 5.349 3.078 3.916 3.063 C 3.386 3.057 3.051 3.413 3.052 3.927 C 3.058 6.893 3.056 9.858 3.052 12.824 C 3.052 12.97 3.035 13.128 2.979 13.26 C 2.858 13.543 2.624 13.696 2.315 13.7 C 1.763 13.705 1.211 13.706 0.659 13.69 C 0.334 13.68 0.035 13.361 0.011 13.035 C 0.004 12.948 0.002 12.86 0.002 12.772 C 0.001 10.797 0.002 8.823 0.002 6.848 Z" fill="var(--1ckecfm, var(--token-fa32c9e5-8e93-4909-b6e0-a0c163ffe0ac, rgb(0, 0, 0)))" height="13.707883239704472px" id="vTa02NHzD" transform="translate(18.553 3.145)" width="13.095131868305952px"/><path d="M 0.003 9.692 C 0.003 8.694 -0.006 7.695 0.006 6.697 C 0.02 5.51 0.34 4.403 0.943 3.383 C 1.72 2.07 2.817 1.114 4.224 0.524 C 5.216 0.108 6.256 -0.07 7.331 0.025 C 9.883 0.253 11.753 1.519 12.963 3.767 C 13.254 4.308 13.455 4.886 13.56 5.488 C 13.639 5.94 13.693 6.402 13.697 6.86 C 13.711 8.864 13.703 10.868 13.703 12.872 C 13.703 13.267 13.508 13.547 13.152 13.666 C 13.088 13.687 13.016 13.697 12.947 13.697 C 12.432 13.699 11.916 13.702 11.4 13.698 C 10.977 13.694 10.647 13.37 10.637 12.901 C 10.635 12.842 10.636 12.783 10.636 12.725 C 10.635 10.747 10.66 8.767 10.626 6.79 C 10.599 5.241 9.834 4.116 8.454 3.425 C 7.791 3.093 7.079 2.991 6.342 3.1 C 5.092 3.286 4.155 3.936 3.53 5.028 C 3.197 5.611 3.056 6.249 3.057 6.919 C 3.058 8.883 3.059 10.847 3.053 12.811 C 3.053 12.964 3.032 13.13 2.971 13.268 C 2.849 13.545 2.614 13.692 2.31 13.695 C 1.765 13.7 1.22 13.703 0.676 13.686 C 0.316 13.675 0.012 13.345 0.005 12.983 C -0.003 12.522 0.002 12.061 0.001 11.6 C 0.001 10.964 0.001 10.328 0.001 9.691 L 0.003 9.691 Z" fill="var(--1ckecfm, var(--token-fa32c9e5-8e93-4909-b6e0-a0c163ffe0ac, rgb(0, 0, 0)))" height="13.699849569649096px" id="s93kfimiN" transform="translate(32.695 3.145)" width="13.705414409004671px"/><path d="M 9.588 13.699 C 8.605 13.699 7.621 13.708 6.637 13.696 C 5.596 13.684 4.613 13.42 3.695 12.935 C 2.191 12.139 1.114 10.949 0.48 9.366 C 0.11 8.443 -0.045 7.481 0.011 6.491 C 0.093 5.054 0.575 3.761 1.467 2.626 C 2.197 1.697 3.109 1.002 4.198 0.541 C 4.755 0.305 5.333 0.134 5.936 0.074 C 6.343 0.034 6.752 0.006 7.16 0.004 C 9.047 -0.003 10.934 0.001 12.821 0.001 C 13.006 0.001 13.187 0.023 13.346 0.128 C 13.575 0.28 13.699 0.498 13.702 0.772 C 13.708 1.28 13.709 1.788 13.702 2.296 C 13.696 2.733 13.362 3.06 12.922 3.066 C 12.487 3.072 12.052 3.067 11.616 3.067 C 10.044 3.067 8.472 3.071 6.9 3.066 C 6.365 3.065 5.852 3.159 5.364 3.374 C 4.338 3.826 3.634 4.585 3.264 5.645 C 3.039 6.287 2.992 6.951 3.139 7.611 C 3.431 8.916 4.199 9.842 5.432 10.367 C 5.904 10.568 6.404 10.651 6.918 10.651 C 8.9 10.649 10.882 10.651 12.864 10.648 C 13.11 10.648 13.324 10.712 13.495 10.896 C 13.625 11.035 13.699 11.201 13.701 11.39 C 13.706 11.913 13.71 12.436 13.701 12.959 C 13.694 13.355 13.394 13.661 12.999 13.696 C 12.926 13.703 12.853 13.705 12.78 13.705 C 11.716 13.705 10.652 13.705 9.588 13.705 C 9.588 13.702 9.588 13.7 9.588 13.698 Z" fill="var(--1ckecfm, var(--token-fa32c9e5-8e93-4909-b6e0-a0c163ffe0ac, rgb(0, 0, 0)))" height="13.705131210986272px" id="vg9QEhuNu" transform="translate(47.134 3.145)" width="13.706837476312234px"/><path d="M 4.121 13.706 C 3.035 13.706 1.949 13.704 0.863 13.706 C 0.607 13.707 0.379 13.647 0.203 13.447 C 0.077 13.304 0.008 13.137 0.006 12.948 C 0.002 12.436 0.001 11.924 0.006 11.412 C 0.01 10.996 0.352 10.645 0.823 10.647 C 2.809 10.654 4.795 10.649 6.78 10.651 C 7.317 10.651 7.836 10.561 8.327 10.346 C 9.324 9.912 10.021 9.187 10.409 8.168 C 10.63 7.585 10.698 6.982 10.615 6.368 C 10.494 5.476 10.105 4.715 9.448 4.095 C 9.013 3.685 8.507 3.394 7.934 3.224 C 7.621 3.132 7.302 3.07 6.974 3.069 C 4.941 3.068 2.908 3.069 0.875 3.064 C 0.733 3.064 0.58 3.039 0.45 2.983 C 0.17 2.864 0.018 2.629 0.01 2.33 C -0.003 1.8 -0.003 1.27 0.009 0.739 C 0.019 0.321 0.348 0.027 0.801 0.003 C 0.844 0 0.888 0.001 0.932 0.001 C 2.863 0.001 4.794 -0.003 6.724 0.005 C 7.121 0.006 7.523 0.029 7.915 0.089 C 9.001 0.254 9.993 0.664 10.882 1.314 C 12.007 2.137 12.815 3.204 13.294 4.511 C 13.653 5.49 13.781 6.502 13.67 7.541 C 13.474 9.373 12.669 10.888 11.275 12.087 C 10.537 12.722 9.693 13.166 8.756 13.437 C 8.105 13.626 7.441 13.706 6.765 13.706 C 5.883 13.704 5.003 13.706 4.121 13.706 Z" fill="var(--1ckecfm, var(--token-fa32c9e5-8e93-4909-b6e0-a0c163ffe0ac, rgb(0, 0, 0)))" height="13.706427299588546px" id="zDXRgUOJa" transform="translate(0 3.145)" width="13.7085117037675px"/><path d="M 0.001 6.863 C 0.001 4.859 0.001 2.856 0.001 0.852 C 0.001 0.464 0.177 0.181 0.507 0.06 C 0.612 0.022 0.729 0.006 0.84 0.005 C 1.304 -0.002 1.769 -0.001 2.233 0.003 C 2.61 0.005 2.89 0.183 3.008 0.503 C 3.048 0.61 3.066 0.731 3.066 0.846 C 3.069 4.853 3.069 8.86 3.068 12.867 C 3.068 13.271 2.873 13.552 2.514 13.671 C 2.463 13.688 2.407 13.697 2.353 13.697 C 1.809 13.699 1.264 13.702 0.72 13.697 C 0.367 13.694 0.019 13.388 0.002 12.938 C -0.001 12.887 0 12.835 0 12.784 C 0 10.81 0 8.836 0 6.861 Z" fill="var(--1ckecfm, var(--token-fa32c9e5-8e93-4909-b6e0-a0c163ffe0ac, rgb(0, 0, 0)))" height="13.699850322154925px" id="jloXelDcg" transform="translate(14.447 3.145)" width="3.0684371842766125px"/><path d="M 1.527 0 C 2.371 -0.003 3.055 0.675 3.061 1.52 C 3.067 2.36 2.383 3.05 1.54 3.053 C 0.694 3.056 0.004 2.378 0 1.539 C -0.004 0.69 0.677 0.004 1.527 0 Z" fill="var(--1ckecfm, var(--token-fa32c9e5-8e93-4909-b6e0-a0c163ffe0ac, rgb(0, 0, 0)))" height="3.052714517878234px" id="AM67FD7lO" transform="translate(0.008 8.473)" width="3.06110403088677px"/><path d="M 1.526 3.053 C 0.683 3.051 -0.001 2.366 0 1.524 C 0.001 0.684 0.689 -0.001 1.532 0 C 2.377 0.001 3.059 0.68 3.063 1.524 C 3.066 2.368 2.377 3.055 1.526 3.053 Z" fill="var(--1ckecfm, var(--token-fa32c9e5-8e93-4909-b6e0-a0c163ffe0ac, rgb(0, 0, 0)))" height="3.05272531689636px" id="sbB9eeLXG" transform="translate(38.011 8.473)" width="3.0628280375089147px"/></svg>