<svg display="block" role="presentation" viewBox="0 0 72 20" xmlns="http://www.w3.org/2000/svg"><g d="M 60.559 6.61 L 58.68 6.61 L 58.68 15.871 L 60.559 15.871 Z M 39.132 10.408 C 39.315 9.037 40.457 8.019 41.932 8.019 C 43.407 8.019 44.474 8.963 44.474 10.408 Z M 41.896 16.037 C 43.96 16.037 45.507 14.962 46.133 13.092 L 44.143 13.092 C 43.757 13.981 43.001 14.444 41.932 14.444 C 40.348 14.444 39.26 13.425 39.132 11.944 L 46.317 11.944 C 46.372 11.592 46.372 11.333 46.372 11.017 C 46.372 8.277 44.622 6.443 41.969 6.443 C 39.149 6.443 37.215 8.425 37.215 11.221 C 37.215 14.017 39.093 16.037 41.894 16.037 Z M 67.174 14.408 C 65.46 14.408 64.262 13.111 64.262 11.24 C 64.262 9.369 65.46 8.073 67.174 8.073 C 68.887 8.073 70.085 9.369 70.085 11.24 C 70.085 13.111 68.887 14.408 67.174 14.408 Z M 67.174 16.037 C 69.974 16.037 72 13.981 72 11.24 C 72 8.5 69.974 6.444 67.174 6.444 C 64.373 6.444 62.347 8.481 62.347 11.24 C 62.347 14 64.392 16.037 67.174 16.037 Z M 48.122 15.871 L 50.001 15.871 L 50.001 10.611 C 50.001 9.056 50.978 8.075 52.488 8.075 C 53.907 8.075 54.644 8.927 54.644 10.611 L 54.644 15.871 L 56.522 15.871 L 56.522 10.388 C 56.522 7.981 55.141 6.444 52.802 6.444 C 51.604 6.444 50.627 6.925 50.001 7.796 L 50.001 6.611 L 48.122 6.611 L 48.122 15.873 Z M 29.938 16.075 C 33.347 16.075 35.834 13.556 35.834 10.092 C 35.834 9.852 35.834 9.611 35.797 9.296 L 29.276 9.296 L 29.276 10.925 L 33.882 10.925 C 33.624 13.073 32.113 14.388 29.94 14.388 C 27.489 14.388 25.85 12.629 25.85 10.037 C 25.85 7.444 27.489 5.685 29.94 5.685 C 31.451 5.685 32.648 6.333 33.238 7.537 L 35.411 7.537 C 34.544 5.314 32.518 3.998 29.94 3.998 C 26.514 3.998 23.878 6.629 23.878 10.037 C 23.878 13.444 26.403 16.075 29.94 16.075 Z M 59.619 5.387 C 60.356 5.387 60.872 4.868 60.872 4.146 C 60.872 3.425 60.356 2.906 59.619 2.906 C 58.883 2.906 58.366 3.425 58.366 4.146 C 58.366 4.868 58.883 5.387 59.619 5.387 Z M 9.948 18.185 C 5.527 18.185 2.045 14.592 2.045 9.998 C 2.045 5.404 5.527 1.812 9.948 1.812 C 14.368 1.812 17.85 5.404 17.85 9.998 C 17.85 14.592 14.368 18.185 9.948 18.185 Z M 9.948 20 C 15.53 20 19.895 15.611 19.895 10 C 19.895 4.389 15.53 0 9.948 0 C 4.365 0 0 4.389 0 10 C 0 15.611 4.365 20 9.948 20 Z M 9.218 11.801 L 7.88 10.594 C 10.892 7.218 14.471 4.505 18.517 2.535 L 19.301 4.162 C 15.465 6.03 12.074 8.601 9.218 11.801 Z M 4.14 19.402 L 2.522 18.615 C 3.52 16.542 4.733 14.561 6.126 12.723 L 7.556 13.819 C 6.235 15.559 5.086 17.439 4.14 19.402 Z M 5.44 10.321 L 4.043 9.183 C 5.487 7.394 7.116 5.742 8.89 4.274 L 10.034 5.669 C 8.353 7.061 6.809 8.627 5.442 10.322 Z" fill="transparent" height="20px" id="x_tj9hQAu" width="72.00000425977657px"><path d="M 1.879 0 L 0 0 L 0 9.261 L 1.879 9.261 Z" fill="var(--1ckecfm, var(--token-fa32c9e5-8e93-4909-b6e0-a0c163ffe0ac, rgb(0, 0, 0)))" height="9.26136256811959px" id="QQS2IZrme" transform="translate(58.68 6.61)" width="1.8785794024918232px"/><path d="M 1.917 3.965 C 2.1 2.594 3.242 1.577 4.717 1.577 C 6.192 1.577 7.26 2.521 7.26 3.965 Z M 4.681 9.594 C 6.745 9.594 8.293 8.519 8.918 6.65 L 6.929 6.65 C 6.542 7.538 5.787 8.002 4.717 8.002 C 3.133 8.002 2.045 6.983 1.917 5.502 L 9.102 5.502 C 9.157 5.15 9.157 4.89 9.157 4.575 C 9.157 1.834 7.407 0 4.754 0 C 1.934 0 0 1.983 0 4.779 C 0 7.575 1.879 9.594 4.679 9.594 Z" fill="var(--1ckecfm, var(--token-fa32c9e5-8e93-4909-b6e0-a0c163ffe0ac, rgb(0, 0, 0)))" height="9.594112500000005px" id="BoZhA8KbF" transform="translate(37.215 6.443)" width="9.157283207798969px"/><path d="M 4.826 7.963 C 3.113 7.963 1.915 6.667 1.915 4.796 C 1.915 2.925 3.113 1.629 4.826 1.629 C 6.54 1.629 7.738 2.925 7.738 4.796 C 7.738 6.667 6.54 7.963 4.826 7.963 Z M 4.826 9.592 C 7.627 9.592 9.653 7.537 9.653 4.796 C 9.653 2.056 7.627 0 4.826 0 C 2.026 0 0 2.037 0 4.796 C 0 7.556 2.045 9.592 4.826 9.592 Z" fill="var(--1ckecfm, var(--token-fa32c9e5-8e93-4909-b6e0-a0c163ffe0ac, rgb(0, 0, 0)))" height="9.592375000000006px" id="ppd4BZKKh" transform="translate(62.347 6.444)" width="9.652965990733605px"/><path d="M 0 9.427 L 1.879 9.427 L 1.879 4.167 C 1.879 2.612 2.856 1.631 4.365 1.631 C 5.785 1.631 6.521 2.483 6.521 4.167 L 6.521 9.427 L 8.4 9.427 L 8.4 3.944 C 8.4 1.537 7.019 0 4.679 0 C 3.482 0 2.504 0.481 1.879 1.352 L 1.879 0.167 L 0 0.167 L 0 9.429 Z" fill="var(--1ckecfm, var(--token-fa32c9e5-8e93-4909-b6e0-a0c163ffe0ac, rgb(0, 0, 0)))" height="9.428624999999998px" id="YbNKhULAv" transform="translate(48.122 6.444)" width="8.39991765340767px"/><path d="M 6.06 12.077 C 9.469 12.077 11.956 9.557 11.956 6.094 C 11.956 5.854 11.956 5.613 11.92 5.298 L 5.398 5.298 L 5.398 6.927 L 10.005 6.927 C 9.746 9.075 8.235 10.39 6.062 10.39 C 3.612 10.39 1.972 8.631 1.972 6.038 C 1.972 3.446 3.612 1.686 6.062 1.686 C 7.573 1.686 8.771 2.334 9.36 3.538 L 11.533 3.538 C 10.667 1.315 8.641 0 6.062 0 C 2.636 0 0 2.631 0 6.038 C 0 9.446 2.525 12.077 6.062 12.077 Z" fill="var(--1ckecfm, var(--token-fa32c9e5-8e93-4909-b6e0-a0c163ffe0ac, rgb(0, 0, 0)))" height="12.076612409173876px" id="YNwljSmPg" transform="translate(23.878 3.998)" width="11.956097138188397px"/><path d="M 1.253 2.481 C 1.99 2.481 2.506 1.962 2.506 1.24 C 2.506 0.519 1.99 0 1.253 0 C 0.516 0 0 0.519 0 1.24 C 0 1.962 0.516 2.481 1.253 2.481 Z" fill="var(--1ckecfm, var(--token-fa32c9e5-8e93-4909-b6e0-a0c163ffe0ac, rgb(0, 0, 0)))" height="2.480837576634543px" id="qR3ssPOO_" transform="translate(58.366 2.906)" width="2.50597253671458px"/><path d="M 9.948 18.185 C 5.527 18.185 2.045 14.592 2.045 9.998 C 2.045 5.404 5.527 1.812 9.948 1.812 C 14.368 1.812 17.85 5.404 17.85 9.998 C 17.85 14.592 14.368 18.185 9.948 18.185 Z M 9.948 20 C 15.53 20 19.895 15.611 19.895 10 C 19.895 4.389 15.53 0 9.948 0 C 4.365 0 0 4.389 0 10 C 0 15.611 4.365 20 9.948 20 Z" fill="var(--1ckecfm, var(--token-fa32c9e5-8e93-4909-b6e0-a0c163ffe0ac, rgb(0, 0, 0)))" height="20px" id="kGH91n4c7" transform="translate(0 0)" width="19.895090631052426px"/><path d="M 1.338 9.267 L 0 8.059 C 3.012 4.683 6.591 1.97 10.637 0 L 11.421 1.627 C 7.585 3.495 4.194 6.066 1.338 9.267 Z" fill="var(--1ckecfm, var(--token-fa32c9e5-8e93-4909-b6e0-a0c163ffe0ac, rgb(0, 0, 0)))" height="9.266562592448022px" id="NaBiBFgcW" transform="translate(7.88 2.535)" width="11.420553663643318px"/><path d="M 1.619 6.68 L 0 5.892 C 0.998 3.819 2.211 1.838 3.605 0 L 5.034 1.096 C 3.714 2.836 2.565 4.716 1.619 6.68 Z" fill="var(--1ckecfm, var(--token-fa32c9e5-8e93-4909-b6e0-a0c163ffe0ac, rgb(0, 0, 0)))" height="6.679500000000004px" id="ul_vVK_fj" transform="translate(2.522 12.723)" width="5.034426453842684px"/><path d="M 1.397 6.047 L 0 4.909 C 1.444 3.12 3.073 1.469 4.847 0 L 5.991 1.395 C 4.31 2.787 2.766 4.354 1.399 6.049 Z" fill="var(--1ckecfm, var(--token-fa32c9e5-8e93-4909-b6e0-a0c163ffe0ac, rgb(0, 0, 0)))" height="6.048775px" id="yqOPJiofC" transform="translate(4.043 4.274)" width="5.991045811111121px"/></g></svg>