<svg display="block" role="presentation" viewBox="0 0 61 20" xmlns="http://www.w3.org/2000/svg"><path d="M 26.104 10.525 C 26.104 13.402 23.844 15.523 21.071 15.523 C 18.297 15.523 16.037 13.402 16.037 10.525 C 16.037 7.627 18.297 5.527 21.071 5.527 C 23.844 5.527 26.104 7.627 26.104 10.525 Z M 23.901 10.525 C 23.901 8.727 22.591 7.497 21.071 7.497 C 19.551 7.497 18.241 8.727 18.241 10.525 C 18.241 12.305 19.551 13.553 21.071 13.553 C 22.591 13.553 23.901 12.303 23.901 10.525 Z M 36.963 10.525 C 36.963 13.402 34.703 15.523 31.93 15.523 C 29.156 15.523 26.896 13.402 26.896 10.525 C 26.896 7.63 29.156 5.527 31.93 5.527 C 34.703 5.527 36.963 7.627 36.963 10.525 Z M 34.76 10.525 C 34.76 8.727 33.45 7.497 31.93 7.497 C 30.41 7.497 29.1 8.727 29.1 10.525 C 29.1 12.305 30.41 13.553 31.93 13.553 C 33.45 13.553 34.76 12.303 34.76 10.525 Z M 47.37 5.829 L 47.37 14.802 C 47.37 18.493 45.184 20 42.601 20 C 40.169 20 38.705 18.38 38.153 17.055 L 40.072 16.26 C 40.413 17.073 41.25 18.033 42.599 18.033 C 44.252 18.033 45.277 17.017 45.277 15.104 L 45.277 14.385 L 45.2 14.385 C 44.707 14.991 43.757 15.52 42.558 15.52 C 40.049 15.52 37.751 13.344 37.751 10.543 C 37.751 7.722 40.049 5.527 42.558 5.527 C 43.755 5.527 44.705 6.057 45.2 6.645 L 45.277 6.645 L 45.277 5.831 L 47.37 5.831 Z M 45.433 10.543 C 45.433 8.783 44.255 7.497 42.755 7.497 C 41.235 7.497 39.961 8.783 39.961 10.543 C 39.961 12.285 41.235 13.553 42.755 13.553 C 44.255 13.553 45.433 12.285 45.433 10.543 Z M 50.82 0.57 L 50.82 15.216 L 48.671 15.216 L 48.671 0.57 Z M 59.195 12.17 L 60.905 13.306 C 60.353 14.119 59.023 15.52 56.724 15.52 C 53.874 15.52 51.745 13.326 51.745 10.523 C 51.745 7.551 53.892 5.525 56.478 5.525 C 59.082 5.525 60.355 7.589 60.772 8.704 L 61 9.272 L 54.292 12.039 C 54.806 13.042 55.605 13.553 56.724 13.553 C 57.846 13.553 58.625 13.004 59.195 12.17 Z M 53.93 10.372 L 58.414 8.517 C 58.168 7.893 57.426 7.458 56.552 7.458 C 55.432 7.458 53.874 8.443 53.93 10.372 Z M 7.902 9.225 L 7.902 7.105 L 15.076 7.105 C 15.146 7.474 15.182 7.911 15.182 8.384 C 15.182 9.975 14.745 11.942 13.338 13.344 C 11.97 14.763 10.221 15.52 7.904 15.52 C 3.611 15.52 0 12.037 0 7.76 C 0 3.484 3.611 0 7.904 0 C 10.28 0 11.972 0.928 13.243 2.138 L 11.741 3.635 C 10.83 2.783 9.594 2.12 7.902 2.12 C 4.767 2.12 2.314 4.637 2.314 7.76 C 2.314 10.883 4.767 13.4 7.902 13.4 C 9.936 13.4 11.094 12.587 11.836 11.848 C 12.438 11.248 12.834 10.392 12.99 9.223 Z" fill="var(--1ckecfm, var(--token-fa32c9e5-8e93-4909-b6e0-a0c163ffe0ac, rgb(0, 0, 0)))" height="19.999999875101242px" id="DnIQ798hp" width="61.00000152184907px"/></svg>