<svg display="block" role="presentation" viewBox="0 0 114 20" xmlns="http://www.w3.org/2000/svg"><g d="M 114.103 3.517 L 110.615 3.517 L 108.406 9.904 L 106.216 3.517 L 102.651 3.517 L 106.293 12.973 L 107.127 12.973 L 106.945 13.456 L 106.922 13.512 C 106.72 13.984 106.579 14.144 106.389 14.334 C 106.187 14.517 105.833 14.627 105.376 14.627 L 103.191 14.627 L 103.191 17.617 L 105.893 17.617 C 106.94 17.617 107.748 17.465 108.391 16.988 C 109.032 16.514 109.508 15.706 109.874 14.691 L 114.103 3.518 Z M 51.637 3.53 L 48.652 3.53 L 48.652 0 L 45.454 0 L 45.454 3.53 L 41.21 3.53 L 39.601 9.743 L 37.898 3.607 L 35.202 3.607 L 33.479 9.743 L 31.871 3.531 L 28.5 3.531 L 31.581 13.505 L 35.108 13.505 L 36.522 8.404 L 37.994 13.505 L 41.541 13.505 L 43.678 6.357 L 45.455 6.357 L 45.455 10.25 C 45.455 12.513 46.444 13.492 48.731 13.492 L 51.637 13.492 L 51.637 10.633 L 48.654 10.633 L 48.654 6.357 L 51.637 6.357 L 51.637 3.531 L 51.637 3.531 Z M 58.657 3.132 C 57.417 3.132 56.468 3.613 55.848 4.533 L 55.848 0 L 52.613 0 L 52.613 13.491 L 55.848 13.491 L 55.848 8.121 C 55.848 6.835 56.449 6.069 57.514 6.069 C 58.579 6.069 59.005 6.644 59.005 7.986 L 59.005 13.491 L 62.241 13.491 L 62.241 7.43 C 62.241 4.61 60.943 3.133 58.657 3.133 Z M 97.786 3.007 C 97.557 3.007 97.331 3.02 97.11 3.044 L 97.037 3.054 C 96.988 3.06 96.94 3.066 96.892 3.074 C 96.053 3.199 95.252 3.511 94.548 3.986 L 92.128 3.392 L 92.125 3.392 L 92.125 17.49 L 95.325 17.49 L 95.325 13.097 C 95.876 13.355 96.483 13.538 97.128 13.615 C 97.342 13.64 97.562 13.653 97.785 13.653 C 100.962 13.653 103.21 11.409 103.21 8.321 C 103.21 5.232 100.962 3.007 97.785 3.007 Z M 95.248 8.321 C 95.248 7.02 96.174 6.062 97.463 6.002 C 97.506 6 97.547 6 97.59 6 C 98.947 6 99.935 6.978 99.935 8.321 C 99.935 9.663 98.947 10.661 97.59 10.661 C 97.549 10.661 97.507 10.66 97.466 10.658 C 96.175 10.598 95.248 9.621 95.248 8.321 Z M 68.168 3.007 C 67.096 3.007 66.131 3.273 65.327 3.747 C 63.792 4.652 62.84 6.321 62.84 8.36 C 62.84 10.593 63.901 12.351 65.765 13.163 C 66.494 13.481 67.346 13.654 68.305 13.654 C 70.32 13.654 72.084 12.772 73.091 11.352 L 70.514 9.587 C 70.106 10.526 69.506 11.063 68.363 11.063 C 68.149 11.063 67.946 11.045 67.756 11.007 C 66.931 10.842 66.351 10.302 66.194 9.242 L 73.207 9.242 C 73.246 8.877 73.265 8.531 73.265 8.205 C 73.265 5.078 71.25 3.007 68.17 3.007 Z M 66.211 7.267 C 66.385 6.447 66.843 5.885 67.478 5.656 C 67.688 5.58 67.92 5.54 68.167 5.54 C 69.214 5.54 69.833 6.23 69.911 7.267 Z M 10.773 3.383 L 8.295 3.977 C 7.574 3.462 6.736 3.139 5.857 3.038 C 5.643 3.012 5.427 3 5.211 3 C 2.229 3 0 5.129 0 8.045 C 0 10.961 2.208 13.071 5.114 13.071 C 5.228 13.071 5.344 13.067 5.46 13.061 C 6.269 13.016 7.106 12.818 7.734 12.499 C 7.772 12.667 7.791 12.844 7.791 13.03 C 7.791 14.225 6.968 15.041 5.805 15.14 C 5.726 15.147 5.646 15.15 5.567 15.149 C 4.772 15.149 4.13 14.795 3.726 14.224 L 3.721 14.215 C 3.707 14.197 3.694 14.178 3.682 14.158 C 3.575 13.972 3.493 13.771 3.44 13.562 L 3.438 13.562 L 0.361 14.345 C 0.418 14.588 0.505 14.831 0.558 14.969 C 0.604 15.097 0.656 15.216 0.738 15.361 C 1.567 17.004 3.444 17.873 5.566 17.873 C 6.038 17.873 6.489 17.828 6.915 17.74 C 9.214 17.266 10.777 15.548 10.777 13.029 L 10.777 3.385 L 10.775 3.385 L 10.773 3.384 Z M 5.447 10.254 C 4.169 10.254 3.238 9.333 3.238 8.068 C 3.238 6.803 4.168 5.882 5.448 5.882 C 5.527 5.882 5.605 5.885 5.681 5.892 C 6.838 5.996 7.654 6.864 7.654 8.068 C 7.654 9.273 6.781 10.197 5.564 10.251 C 5.526 10.253 5.487 10.254 5.448 10.254 Z M 91.071 3.391 L 88.382 4.061 C 87.529 3.391 86.463 3.007 85.243 3.007 C 84.76 3.007 84.3 3.061 83.866 3.165 C 81.519 3.723 79.934 5.717 79.934 8.339 C 79.934 11.156 81.715 13.23 84.228 13.595 C 84.487 13.633 84.756 13.652 85.03 13.652 C 85.854 13.652 87.164 13.511 88.146 12.702 L 88.155 12.695 C 88.903 13.487 90.011 13.827 91.073 13.589 Z M 83.228 8.339 C 83.228 7.122 84.054 6.206 85.22 6.044 C 85.34 6.027 85.464 6.019 85.591 6.019 C 86.947 6.019 87.935 6.997 87.935 8.339 C 87.935 9.68 86.947 10.66 85.591 10.66 C 85.507 10.66 85.424 10.655 85.342 10.649 C 84.114 10.537 83.229 9.598 83.229 8.339 Z M 24.681 3.186 C 24.212 3.078 23.732 3.023 23.251 3.024 C 20.075 3.024 17.672 5.288 17.672 8.357 C 17.672 11.426 20.075 13.67 23.251 13.67 C 23.45 13.67 23.647 13.661 23.84 13.643 C 26.723 13.384 28.852 11.216 28.852 8.357 C 28.852 5.784 27.128 3.757 24.681 3.185 Z M 20.927 8.358 C 20.927 7.035 21.916 6.056 23.252 6.056 C 23.378 6.056 23.5 6.065 23.619 6.081 C 24.768 6.243 25.596 7.158 25.596 8.358 C 25.596 9.681 24.608 10.659 23.252 10.66 C 21.916 10.66 20.928 9.682 20.928 8.358 Z M 15.877 6.052 C 17.352 6.052 18.549 4.868 18.549 3.408 L 11.833 3.408 L 11.833 13.382 L 15.031 13.382 L 15.035 5.918 C 15.307 6.007 15.591 6.053 15.877 6.053 Z M 78.707 5.998 C 79.925 5.751 80.841 4.686 80.841 3.408 L 74.126 3.408 L 74.126 13.382 L 77.323 13.382 L 77.326 5.918 C 77.772 6.064 78.247 6.092 78.707 5.999 Z" fill="transparent" height="17.873401208222162px" id="WdtWepTFU" transform="translate(0 1)" width="114.10288901194099px"><path d="M 85.603 3.517 L 82.115 3.517 L 79.906 9.904 L 77.716 3.517 L 74.151 3.517 L 77.793 12.973 L 78.627 12.973 L 78.445 13.456 L 78.422 13.512 C 78.22 13.984 78.079 14.144 77.889 14.334 C 77.687 14.517 77.333 14.627 76.876 14.627 L 74.691 14.627 L 74.691 17.617 L 77.393 17.617 C 78.44 17.617 79.248 17.465 79.891 16.988 C 80.532 16.514 81.008 15.706 81.374 14.691 L 85.603 3.518 Z M 23.137 3.53 L 20.152 3.53 L 20.152 0 L 16.954 0 L 16.954 3.53 L 12.71 3.53 L 11.101 9.743 L 9.398 3.607 L 6.702 3.607 L 4.979 9.743 L 3.371 3.531 L 0 3.531 L 3.081 13.505 L 6.608 13.505 L 8.022 8.404 L 9.494 13.505 L 13.041 13.505 L 15.178 6.357 L 16.955 6.357 L 16.955 10.25 C 16.955 12.513 17.944 13.492 20.231 13.492 L 23.137 13.492 L 23.137 10.633 L 20.154 10.633 L 20.154 6.357 L 23.137 6.357 L 23.137 3.531 L 23.137 3.531 Z M 30.157 3.132 C 28.917 3.132 27.968 3.613 27.348 4.533 L 27.348 0 L 24.113 0 L 24.113 13.491 L 27.348 13.491 L 27.348 8.121 C 27.348 6.835 27.949 6.069 29.014 6.069 C 30.079 6.069 30.505 6.644 30.505 7.986 L 30.505 13.491 L 33.741 13.491 L 33.741 7.43 C 33.741 4.61 32.443 3.133 30.157 3.133 Z" fill="var(--1ckecfm, var(--token-fa32c9e5-8e93-4909-b6e0-a0c163ffe0ac, rgb(0, 0, 0)))" height="17.616599993133544px" id="UUlBPFxsp" transform="translate(28.5 0)" width="85.60288901194099px"/><path d="M 97.786 0.007 C 97.557 0.007 97.331 0.02 97.11 0.044 L 97.037 0.054 C 96.988 0.06 96.94 0.066 96.892 0.074 C 96.053 0.199 95.252 0.511 94.548 0.986 L 92.128 0.392 L 92.125 0.392 L 92.125 14.49 L 95.325 14.49 L 95.325 10.097 C 95.876 10.355 96.483 10.538 97.128 10.615 C 97.342 10.64 97.562 10.653 97.785 10.653 C 100.962 10.653 103.21 8.409 103.21 5.321 C 103.21 2.232 100.962 0.007 97.785 0.007 Z M 95.248 5.321 C 95.248 4.02 96.174 3.062 97.463 3.002 C 97.506 3 97.547 3 97.59 3 C 98.947 3 99.935 3.978 99.935 5.321 C 99.935 6.663 98.947 7.661 97.59 7.661 C 97.549 7.661 97.507 7.66 97.466 7.658 C 96.175 7.598 95.248 6.621 95.248 5.321 Z M 68.168 0.007 C 67.096 0.007 66.131 0.273 65.327 0.747 C 63.792 1.652 62.84 3.321 62.84 5.36 C 62.84 7.593 63.901 9.351 65.765 10.163 C 66.494 10.481 67.346 10.654 68.305 10.654 C 70.32 10.654 72.084 9.772 73.091 8.352 L 70.514 6.587 C 70.106 7.526 69.506 8.063 68.363 8.063 C 68.149 8.063 67.946 8.045 67.756 8.007 C 66.931 7.842 66.351 7.302 66.194 6.242 L 73.207 6.242 C 73.246 5.877 73.265 5.531 73.265 5.205 C 73.265 2.078 71.25 0.007 68.17 0.007 Z M 66.211 4.267 C 66.385 3.447 66.843 2.885 67.478 2.656 C 67.688 2.58 67.92 2.54 68.167 2.54 C 69.214 2.54 69.833 3.23 69.911 4.267 Z M 10.773 0.383 L 8.295 0.977 C 7.574 0.462 6.736 0.139 5.857 0.038 C 5.643 0.012 5.427 0 5.211 0 C 2.229 0 0 2.129 0 5.045 C 0 7.961 2.208 10.071 5.114 10.071 C 5.228 10.071 5.344 10.067 5.46 10.061 C 6.269 10.016 7.106 9.818 7.734 9.499 C 7.772 9.667 7.791 9.844 7.791 10.03 C 7.791 11.225 6.968 12.041 5.805 12.14 C 5.726 12.147 5.646 12.15 5.567 12.149 C 4.772 12.149 4.13 11.795 3.726 11.224 L 3.721 11.215 C 3.707 11.197 3.694 11.178 3.682 11.158 C 3.575 10.972 3.493 10.771 3.44 10.562 L 3.438 10.562 L 0.361 11.345 C 0.418 11.588 0.505 11.831 0.558 11.969 C 0.604 12.097 0.656 12.216 0.738 12.361 C 1.567 14.004 3.444 14.873 5.566 14.873 C 6.038 14.873 6.489 14.828 6.915 14.74 C 9.214 14.266 10.777 12.548 10.777 10.029 L 10.777 0.385 L 10.775 0.385 L 10.773 0.384 Z M 5.447 7.254 C 4.169 7.254 3.238 6.333 3.238 5.068 C 3.238 3.803 4.168 2.882 5.448 2.882 C 5.527 2.882 5.605 2.885 5.681 2.892 C 6.838 2.996 7.654 3.864 7.654 5.068 C 7.654 6.273 6.781 7.197 5.564 7.251 C 5.526 7.253 5.487 7.254 5.448 7.254 Z M 91.071 0.391 L 88.382 1.061 C 87.529 0.391 86.463 0.007 85.243 0.007 C 84.76 0.007 84.3 0.061 83.866 0.165 C 81.519 0.723 79.934 2.717 79.934 5.339 C 79.934 8.156 81.715 10.23 84.228 10.595 C 84.487 10.633 84.756 10.652 85.03 10.652 C 85.854 10.652 87.164 10.511 88.146 9.702 L 88.155 9.695 C 88.903 10.487 90.011 10.827 91.073 10.589 Z M 83.228 5.339 C 83.228 4.122 84.054 3.206 85.22 3.044 C 85.34 3.027 85.464 3.019 85.591 3.019 C 86.947 3.019 87.935 3.997 87.935 5.339 C 87.935 6.68 86.947 7.66 85.591 7.66 C 85.507 7.66 85.424 7.655 85.342 7.649 C 84.114 7.537 83.229 6.598 83.229 5.339 Z M 24.681 0.186 C 24.212 0.078 23.732 0.023 23.251 0.024 C 20.075 0.024 17.672 2.288 17.672 5.357 C 17.672 8.426 20.075 10.67 23.251 10.67 C 23.45 10.67 23.647 10.661 23.84 10.643 C 26.723 10.384 28.852 8.216 28.852 5.357 C 28.852 2.784 27.128 0.757 24.681 0.185 Z M 20.927 5.358 C 20.927 4.035 21.916 3.056 23.252 3.056 C 23.378 3.056 23.5 3.065 23.619 3.081 C 24.768 3.243 25.596 4.158 25.596 5.358 C 25.596 6.681 24.608 7.659 23.252 7.66 C 21.916 7.66 20.928 6.682 20.928 5.358 Z M 15.877 3.052 C 17.352 3.052 18.549 1.868 18.549 0.408 L 11.833 0.408 L 11.833 10.382 L 15.031 10.382 L 15.035 2.918 C 15.307 3.007 15.591 3.053 15.877 3.053 Z M 78.707 2.998 C 79.925 2.751 80.841 1.686 80.841 0.408 L 74.126 0.408 L 74.126 10.382 L 77.323 10.382 L 77.326 2.918 C 77.772 3.064 78.247 3.092 78.707 2.999 Z" fill="var(--1ckecfm, var(--token-fa32c9e5-8e93-4909-b6e0-a0c163ffe0ac, rgb(0, 0, 0)))" height="14.873401208222162px" id="BO4N3vkqP" transform="translate(0 3)" width="103.20997636424681px"/></g></svg>