<svg display="block" role="presentation" viewBox="0 0 49 20" xmlns="http://www.w3.org/2000/svg"><g d="M 44.334 0 C 45.024 0 45.649 0.259 46.2 0.767 C 46.634 1.164 47.008 1.705 47.339 2.417 C 47.843 3.489 48.239 4.964 48.524 6.794 C 48.995 9.829 49 12.814 49 12.94 C 49 14.114 48.669 15.034 48.025 15.671 C 47.381 16.314 46.452 16.637 45.267 16.637 C 44.245 16.637 43.642 16.392 43.106 16.175 C 42.513 15.94 41.958 15.713 40.6 15.713 C 39.242 15.713 38.682 15.935 38.094 16.175 C 37.562 16.392 36.955 16.637 35.933 16.637 C 34.748 16.637 33.819 16.314 33.175 15.671 C 32.527 15.034 32.2 14.114 32.2 12.94 C 32.2 12.814 32.205 9.829 32.676 6.789 C 32.961 4.959 33.362 3.489 33.861 2.413 C 34.192 1.701 34.566 1.16 35 0.763 C 35.551 0.259 36.176 0 36.866 0 C 38.187 0 38.883 0.689 39.391 1.197 C 39.849 1.65 40.077 1.849 40.6 1.849 C 41.122 1.849 41.351 1.65 41.809 1.197 C 42.317 0.689 43.013 0 44.334 0 Z M 22.437 0.749 C 23.712 0.197 24.908 0.06 25.986 0.346 C 27.063 0.632 28.03 1.343 28.86 2.453 C 29.572 3.412 30.164 4.67 30.576 6.095 C 30.972 7.468 31.202 8.993 31.234 10.499 C 31.268 12.073 31.088 13.628 30.718 14.998 C 30.411 16.132 29.855 16.937 29.063 17.382 C 28.273 17.837 27.291 17.912 26.146 17.608 C 25.957 17.558 25.788 17.503 25.63 17.447 C 25.675 17.976 25.59 18.522 25.373 19.02 C 25.102 19.646 24.392 19.984 23.725 19.807 C 23.657 19.789 23.587 19.766 23.521 19.739 C 23.224 19.607 22.976 19.451 22.77 19.286 C 22.349 19.662 21.83 19.903 21.242 19.986 C 21.056 20.013 20.866 20.001 20.681 19.952 C 20.496 19.903 20.33 19.82 20.178 19.703 C 19.711 19.34 19.383 18.875 19.208 18.341 C 18.951 18.382 18.653 18.395 18.328 18.361 C 18.257 18.357 18.184 18.342 18.117 18.324 C 17.449 18.147 17.005 17.503 17.087 16.826 C 17.15 16.288 17.353 15.772 17.659 15.337 C 17.493 15.307 17.319 15.27 17.13 15.22 C 15.985 14.916 15.173 14.366 14.718 13.581 C 14.258 12.798 14.183 11.826 14.49 10.692 C 14.861 9.322 15.491 7.886 16.318 6.541 C 17.107 5.253 18.076 4.046 19.113 3.053 C 20.189 2.023 21.336 1.227 22.437 0.749 Z M 21.879 15.523 C 20.567 15.175 19.968 15.246 19.338 15.328 C 19.192 15.347 19.038 15.363 18.875 15.377 C 18.443 15.722 18.096 16.275 18.014 16.933 C 17.986 17.165 18.137 17.372 18.358 17.431 C 18.38 17.437 18.403 17.443 18.427 17.445 C 19.497 17.561 20.044 16.95 20.044 16.95 C 20.044 16.95 19.714 18.169 20.755 18.981 C 20.803 19.017 20.863 19.048 20.922 19.063 C 20.98 19.079 21.042 19.081 21.107 19.074 C 22.419 18.886 22.749 17.668 22.749 17.668 C 22.749 17.668 22.914 18.468 23.899 18.897 C 23.92 18.907 23.943 18.913 23.965 18.919 C 24.186 18.978 24.423 18.873 24.514 18.658 C 24.781 18.049 24.754 17.396 24.554 16.884 C 24.419 16.796 24.299 16.702 24.179 16.612 C 23.668 16.233 23.191 15.871 21.879 15.523 Z M 25.181 9.758 C 24.955 9.698 24.505 9.578 24.203 10.694 C 23.901 11.81 24.351 11.93 24.577 11.99 C 24.802 12.05 25.253 12.169 25.555 11.053 C 25.857 9.937 25.406 9.817 25.181 9.758 Z M 21.124 8.681 C 20.898 8.621 20.447 8.502 20.145 9.618 C 19.844 10.734 20.295 10.853 20.52 10.913 C 20.745 10.973 21.196 11.092 21.498 9.977 C 21.8 8.861 21.349 8.741 21.124 8.681 Z M 24.118 5.648 C 23.893 5.589 23.442 5.469 23.14 6.585 C 22.838 7.701 23.289 7.82 23.515 7.88 C 23.74 7.94 24.191 8.059 24.493 6.943 C 24.795 5.828 24.344 5.708 24.118 5.648 Z M 8.867 0 C 10.589 0 11.69 0.333 12.441 1.081 C 13.197 1.825 13.533 2.916 13.533 4.622 L 13.533 10.167 C 13.533 12.261 12.968 13.879 11.858 14.978 C 10.747 16.078 9.114 16.637 7 16.637 C 5.343 16.637 3.654 16.083 2.357 15.121 C 0.836 13.994 0 12.4 0 10.63 C 0 9.022 1.008 7.395 3.267 7.395 C 3.897 7.395 4.041 7.283 4.064 7.26 C 4.088 7.237 4.2 7.094 4.2 6.47 L 4.2 4.622 C 4.2 2.916 4.536 1.825 5.292 1.081 C 6.044 0.333 7.145 0 8.867 0 Z" fill="transparent" height="20px" id="LGTtS19EC" width="48.99999889357855px"><path d="M 12.134 0 C 12.824 0 13.449 0.259 14 0.767 C 14.434 1.164 14.808 1.705 15.139 2.417 C 15.643 3.489 16.039 4.964 16.324 6.794 C 16.795 9.829 16.8 12.814 16.8 12.94 C 16.8 14.114 16.469 15.034 15.825 15.671 C 15.181 16.314 14.252 16.637 13.067 16.637 C 12.045 16.637 11.442 16.392 10.906 16.175 C 10.313 15.94 9.758 15.713 8.4 15.713 C 7.042 15.713 6.482 15.935 5.894 16.175 C 5.362 16.392 4.755 16.637 3.733 16.637 C 2.548 16.637 1.619 16.314 0.975 15.671 C 0.327 15.034 0 14.114 0 12.94 C 0 12.814 0.005 9.829 0.476 6.789 C 0.761 4.959 1.162 3.489 1.661 2.413 C 1.992 1.701 2.366 1.16 2.8 0.763 C 3.351 0.259 3.976 0 4.666 0 C 5.987 0 6.683 0.689 7.191 1.197 C 7.649 1.65 7.877 1.849 8.4 1.849 C 8.922 1.849 9.151 1.65 9.609 1.197 C 10.117 0.689 10.813 0 12.134 0 Z" fill="var(--1ckecfm, var(--token-fa32c9e5-8e93-4909-b6e0-a0c163ffe0ac, rgb(0, 0, 0)))" height="16.637226124459968px" id="fGZWL1HVF" transform="translate(32.2 0)" width="16.799963798363706px"/><path d="M 8.131 0.548 C 9.406 -0.004 10.603 -0.141 11.681 0.145 C 12.758 0.431 13.725 1.142 14.555 2.252 C 15.267 3.211 15.859 4.469 16.27 5.894 C 16.667 7.267 16.897 8.793 16.929 10.299 C 16.962 11.872 16.783 13.427 16.412 14.797 C 16.106 15.931 15.549 16.736 14.757 17.181 C 13.967 17.637 12.986 17.711 11.841 17.407 C 11.652 17.357 11.483 17.303 11.324 17.246 C 11.37 17.775 11.285 18.322 11.068 18.819 C 10.797 19.446 10.087 19.784 9.42 19.607 C 9.352 19.589 9.281 19.565 9.216 19.538 C 8.918 19.407 8.671 19.25 8.464 19.085 C 8.044 19.462 7.524 19.702 6.936 19.785 C 6.75 19.812 6.56 19.8 6.375 19.751 C 6.191 19.702 6.025 19.62 5.873 19.503 C 5.406 19.14 5.077 18.674 4.903 18.14 C 4.645 18.182 4.347 18.194 4.023 18.16 C 3.952 18.156 3.879 18.141 3.811 18.123 C 3.144 17.946 2.7 17.302 2.781 16.625 C 2.845 16.087 3.047 15.571 3.354 15.136 C 3.188 15.106 3.014 15.07 2.825 15.019 C 1.68 14.716 0.867 14.165 0.413 13.38 C -0.047 12.598 -0.122 11.625 0.184 10.492 C 0.555 9.121 1.185 7.685 2.013 6.341 C 2.801 5.052 3.771 3.845 4.808 2.852 C 5.883 1.822 7.031 1.026 8.131 0.548 Z M 7.574 15.323 C 6.262 14.975 5.663 15.046 5.032 15.127 C 4.887 15.146 4.733 15.162 4.57 15.177 C 4.138 15.521 3.791 16.075 3.709 16.733 C 3.68 16.964 3.832 17.172 4.052 17.23 C 4.075 17.236 4.098 17.243 4.121 17.244 C 5.191 17.361 5.739 16.75 5.739 16.75 C 5.739 16.75 5.409 17.968 6.45 18.78 C 6.498 18.817 6.558 18.847 6.616 18.863 C 6.675 18.878 6.737 18.88 6.802 18.874 C 8.113 18.686 8.443 17.467 8.443 17.467 C 8.443 17.467 8.608 18.267 9.594 18.696 C 9.615 18.707 9.637 18.713 9.66 18.719 C 9.881 18.777 10.117 18.672 10.209 18.457 C 10.475 17.849 10.449 17.196 10.249 16.684 C 10.114 16.595 9.994 16.501 9.874 16.412 C 9.363 16.032 8.885 15.671 7.574 15.323 Z M 10.876 9.557 C 10.65 9.497 10.199 9.378 9.897 10.494 C 9.595 11.61 10.046 11.729 10.271 11.789 C 10.497 11.849 10.948 11.968 11.249 10.853 C 11.551 9.737 11.101 9.617 10.876 9.557 Z M 6.818 8.481 C 6.593 8.421 6.142 8.302 5.84 9.417 C 5.538 10.533 5.989 10.653 6.215 10.712 C 6.44 10.772 6.891 10.892 7.193 9.776 C 7.495 8.66 7.044 8.54 6.818 8.481 Z M 9.813 5.448 C 9.588 5.388 9.137 5.268 8.835 6.384 C 8.533 7.5 8.984 7.62 9.209 7.68 C 9.435 7.739 9.886 7.858 10.188 6.743 C 10.489 5.627 10.038 5.508 9.813 5.448 Z" fill="var(--1ckecfm, var(--token-fa32c9e5-8e93-4909-b6e0-a0c163ffe0ac, rgb(0, 0, 0)))" height="19.7993410229683px" id="iAp6W10H_" transform="translate(14.305 0.201)" width="16.93283608866028px"/><path d="M 8.867 0 C 10.589 0 11.69 0.333 12.441 1.081 C 13.197 1.825 13.533 2.916 13.533 4.622 L 13.533 10.167 C 13.533 12.261 12.968 13.879 11.858 14.978 C 10.747 16.078 9.114 16.637 7 16.637 C 5.343 16.637 3.654 16.083 2.357 15.121 C 0.836 13.994 0 12.4 0 10.63 C 0 9.022 1.008 7.395 3.267 7.395 C 3.897 7.395 4.041 7.283 4.064 7.26 C 4.088 7.237 4.2 7.094 4.2 6.47 L 4.2 4.622 C 4.2 2.916 4.536 1.825 5.292 1.081 C 6.044 0.333 7.145 0 8.867 0 Z" fill="var(--1ckecfm, var(--token-fa32c9e5-8e93-4909-b6e0-a0c163ffe0ac, rgb(0, 0, 0)))" height="16.637226124459968px" id="Hls0kox5E" width="13.533297190847179px"/></g></svg>