<svg display="block" role="presentation" viewBox="0 0 57 20" xmlns="http://www.w3.org/2000/svg"><path d="M 2.504 17.192 C 2.797 16.976 2.837 16.942 2.837 16.214 L 2.837 10.745 C 2.837 10.011 2.785 9.973 2.523 9.782 L 2.518 9.779 L 0 7.971 L 6.727 7.971 L 7.579 7.345 C 7.686 7.266 7.713 7.232 7.713 7.232 C 7.726 7.22 7.753 7.118 7.753 6.731 L 7.753 2.388 C 7.753 2.001 7.726 1.899 7.713 1.876 C 7.713 1.876 7.686 1.853 7.593 1.785 L 5.088 0 L 15.452 0 L 14.133 0.944 L 37.418 0.944 L 36.113 0.011 L 43.04 0.011 C 44.785 0.011 46.05 0.364 47.009 1.114 C 48.102 1.956 48.715 3.218 48.715 4.662 C 48.715 6.004 48.168 7.175 47.183 8.005 L 47.422 8.005 C 49.047 8.005 50.127 8.289 51.019 8.937 L 51.045 8.949 C 51.912 9.62 52.391 10.586 52.391 11.689 C 52.391 12.871 51.912 13.804 51.059 14.35 L 51.845 15.487 C 52.738 16.786 53.156 17.061 53.211 17.097 L 53.214 17.099 L 53.215 17.099 L 53.217 17.101 L 57 19 L 38.777 19 L 40.229 17.92 L 16.251 17.92 L 17.903 19 L 0.08 19 Z M 42.547 6.254 L 42.547 2.82 L 43.119 2.82 C 43.679 2.82 43.999 2.922 44.252 3.184 C 44.545 3.491 44.692 3.934 44.692 4.537 C 44.692 5.117 44.545 5.572 44.252 5.879 C 43.999 6.14 43.679 6.242 43.119 6.254 Z M 31.517 12.326 L 31.157 12.326 L 31.157 10.62 L 31.517 10.62 C 32.276 10.62 32.583 10.87 32.583 11.473 C 32.583 12.076 32.276 12.326 31.517 12.326 Z M 47.889 11.768 C 47.889 12.007 47.795 12.235 47.609 12.382 C 47.396 12.564 47.142 12.633 46.623 12.633 L 46.09 12.633 L 46.09 10.916 L 46.623 10.916 C 47.489 10.916 47.902 11.189 47.889 11.768 Z M 7.26 10.734 C 7.26 9.733 7.406 9.426 8.006 8.983 L 3.224 8.983 C 3.823 9.415 3.969 9.745 3.969 10.734 L 3.969 16.203 C 3.969 17.204 3.823 17.511 3.224 17.954 L 8.006 17.954 C 7.38 17.511 7.26 17.181 7.26 16.203 L 7.26 13.542 L 9.325 17.045 L 9.565 17.408 L 9.711 17.647 L 9.831 17.943 L 14.293 17.943 C 13.681 17.545 13.414 17.306 12.841 16.465 L 10.39 12.849 L 11.909 10.973 C 12.628 10.051 13.254 9.449 13.654 9.142 L 13.84 8.994 L 9.325 8.994 C 9.431 9.142 9.484 9.245 9.484 9.392 C 9.484 9.665 9.365 9.938 9.085 10.336 L 7.26 12.86 Z M 42.8 10.734 L 42.8 16.192 C 42.8 17.192 42.653 17.499 42.054 17.943 L 46.836 17.943 C 46.21 17.499 46.09 17.17 46.09 16.192 L 46.09 14.145 L 47.635 16.419 C 48.188 17.222 48.294 17.431 48.477 17.79 L 48.555 17.943 L 52.684 17.943 C 52.258 17.727 51.658 17.079 50.886 15.964 L 49.393 13.815 C 50.606 13.69 51.272 12.906 51.272 11.643 C 51.272 10.825 50.939 10.131 50.326 9.665 C 49.66 9.188 48.861 8.983 47.502 8.983 L 42.054 8.983 C 42.653 9.415 42.8 9.745 42.8 10.734 Z M 39.936 6.72 C 39.936 7.505 39.829 7.755 39.35 8.107 L 42.973 8.107 C 44.558 8.107 45.291 7.937 46.064 7.402 C 46.969 6.765 47.462 5.777 47.462 4.605 C 47.462 3.468 46.996 2.468 46.143 1.82 C 45.398 1.251 44.412 0.989 42.973 0.989 L 39.337 0.989 C 39.803 1.331 39.923 1.592 39.936 2.376 Z M 31.597 1.922 C 32.01 2.217 32.103 2.445 32.103 3.127 L 32.103 6.913 C 32.103 7.596 32.023 7.812 31.597 8.119 L 34.901 8.119 C 34.488 7.823 34.394 7.596 34.394 6.913 L 34.394 5.31 L 36.392 8.119 L 39.19 8.119 C 38.777 7.812 38.684 7.596 38.684 6.913 L 38.684 3.127 C 38.684 2.445 38.777 2.229 39.19 1.922 L 35.886 1.922 C 36.299 2.229 36.392 2.445 36.392 3.127 L 36.392 4.867 L 34.275 1.922 Z M 26.775 6.902 C 26.775 7.584 26.682 7.8 26.269 8.107 L 31.397 8.107 L 31.663 6.276 C 31.37 6.561 31.251 6.595 30.505 6.595 L 29.066 6.595 L 29.066 5.72 L 30.345 5.72 C 30.718 5.72 30.904 5.799 31.144 6.049 L 31.144 3.934 C 30.931 4.185 30.771 4.253 30.278 4.253 L 29.066 4.253 L 29.066 3.434 L 30.438 3.434 C 30.957 3.434 31.091 3.479 31.397 3.73 L 31.144 1.922 L 26.269 1.922 C 26.682 2.217 26.775 2.445 26.775 3.127 Z M 19.875 5.06 C 19.875 6.993 21.42 8.244 23.805 8.244 C 24.511 8.244 24.91 8.175 25.683 7.959 L 25.733 7.944 C 25.915 7.889 25.955 7.877 26.175 7.846 C 25.962 7.618 25.923 7.448 25.923 6.788 L 25.923 4.355 L 23.205 4.355 L 23.112 5.753 C 23.258 5.685 23.312 5.674 23.644 5.674 L 23.805 5.674 L 23.805 6.572 C 22.752 6.538 22.139 5.981 22.139 5.037 C 22.139 4.025 22.845 3.411 24.004 3.411 C 24.75 3.411 25.323 3.604 25.723 3.98 L 25.63 1.717 C 25.376 1.853 25.27 1.876 25.083 1.876 C 25.003 1.876 24.897 1.865 24.79 1.853 C 24.311 1.808 24.084 1.797 23.751 1.797 C 21.433 1.797 19.888 3.093 19.875 5.06 Z M 14.493 1.922 C 14.906 2.217 15 2.445 15 3.127 L 15 6.902 C 15 7.584 14.906 7.8 14.493 8.107 L 19.621 8.107 L 19.888 6.276 C 19.595 6.561 19.475 6.595 18.729 6.595 L 17.277 6.595 L 17.277 5.72 L 18.556 5.72 C 18.929 5.72 19.116 5.799 19.355 6.049 L 19.355 3.934 C 19.142 4.185 18.982 4.253 18.489 4.253 L 17.277 4.253 L 17.277 3.434 L 18.649 3.434 C 19.169 3.434 19.302 3.479 19.609 3.73 L 19.355 1.922 Z M 8.885 6.72 C 8.885 7.505 8.779 7.755 8.299 8.107 L 14.107 8.107 L 14.52 5.777 C 14.147 6.14 13.694 6.254 12.735 6.254 L 11.522 6.254 L 11.522 2.365 C 11.522 1.592 11.629 1.319 12.109 0.978 L 8.299 0.978 C 8.779 1.319 8.898 1.581 8.885 2.365 Z M 19.249 14.964 L 17.411 14.964 L 17.411 13.849 L 19.049 13.849 C 19.515 13.849 19.755 13.94 20.061 14.259 L 20.061 11.564 C 19.795 11.882 19.595 11.962 18.969 11.962 L 17.424 11.962 L 17.424 10.916 L 19.169 10.916 C 19.821 10.916 20.008 10.973 20.394 11.291 L 20.075 8.983 L 13.867 8.983 C 14.4 9.358 14.52 9.642 14.52 10.518 L 14.52 15.328 C 14.52 16.203 14.4 16.476 13.867 16.862 L 20.394 16.862 L 20.714 14.566 C 20.354 14.918 20.195 14.964 19.249 14.964 Z M 26.175 14.964 L 24.337 14.964 L 24.337 13.849 L 25.976 13.849 C 26.442 13.849 26.682 13.94 26.988 14.259 L 26.988 11.564 C 26.722 11.882 26.522 11.962 25.896 11.962 L 24.35 11.962 L 24.35 10.916 L 26.096 10.916 C 26.748 10.916 26.935 10.973 27.321 11.291 L 27.001 8.983 L 20.794 8.983 C 21.326 9.358 21.446 9.642 21.446 10.518 L 21.446 15.328 C 21.446 16.203 21.326 16.476 20.794 16.862 L 27.321 16.862 L 27.641 14.566 C 27.281 14.918 27.121 14.964 26.175 14.964 Z M 35.447 11.439 C 35.447 10.711 35.127 10.063 34.514 9.631 C 33.928 9.199 33.102 8.983 31.957 8.983 L 27.681 8.983 C 28.214 9.358 28.334 9.654 28.334 10.518 L 28.334 15.328 C 28.334 16.192 28.214 16.476 27.681 16.862 L 32.09 16.862 C 31.317 16.476 31.157 16.192 31.157 15.328 L 31.157 13.963 L 32.103 13.963 C 33.262 13.963 33.928 13.793 34.528 13.315 C 35.114 12.86 35.447 12.178 35.447 11.439 Z M 35.287 16.897 L 41.787 16.897 L 42.134 14.566 C 41.774 14.918 41.614 14.964 40.668 14.964 L 38.83 14.964 L 38.83 13.849 L 40.469 13.849 C 40.935 13.849 41.175 13.94 41.481 14.259 L 41.481 11.564 C 41.215 11.882 41.015 11.962 40.389 11.962 L 38.844 11.962 L 38.844 10.916 L 40.588 10.916 C 41.241 10.916 41.428 10.973 41.814 11.291 L 41.495 8.983 L 35.287 8.983 C 35.82 9.358 35.94 9.642 35.94 10.518 L 35.94 15.328 C 35.94 16.203 35.82 16.476 35.287 16.862 Z" fill="var(--1ckecfm, var(--token-fa32c9e5-8e93-4909-b6e0-a0c163ffe0ac, rgb(0, 0, 0)))" height="19px" id="HAo74W8wk" transform="translate(0 0.27)" width="57px"/></svg>