<svg display="block" role="presentation" viewBox="0 0 105 20" xmlns="http://www.w3.org/2000/svg"><path d="M 6.131 12.084 C 5.988 12.095 5.856 12.061 5.735 11.982 C 5.624 11.913 5.547 11.823 5.503 11.709 C 5.459 11.652 5.388 11.527 5.288 11.334 C 5.189 11.152 5.129 10.993 5.107 10.857 C 5.074 10.493 5.052 10.141 5.04 9.8 C 5.04 9.459 5.057 8.982 5.09 8.368 C 5.123 7.868 5.189 7.425 5.288 7.039 C 5.388 6.641 5.487 6.306 5.586 6.033 C 5.685 5.749 5.762 5.539 5.817 5.403 C 5.872 5.255 5.883 5.181 5.85 5.181 C 5.806 5.181 5.757 5.227 5.702 5.318 C 5.657 5.397 5.602 5.505 5.536 5.641 C 5.481 5.778 5.415 5.925 5.338 6.085 C 5.272 6.244 5.2 6.397 5.123 6.545 C 4.969 6.897 4.787 7.272 4.578 7.67 C 4.379 8.056 4.176 8.431 3.966 8.794 C 3.757 9.158 3.575 9.476 3.421 9.749 C 3.322 9.863 3.206 10.027 3.074 10.243 C 2.942 10.448 2.798 10.664 2.644 10.891 C 2.49 11.118 2.33 11.306 2.165 11.453 C 1.923 11.692 1.675 11.834 1.421 11.879 C 1.168 11.936 0.931 11.908 0.711 11.794 C 0.6 11.783 0.485 11.72 0.364 11.607 C 0.242 11.504 0.143 11.374 0.066 11.215 C 0 11.056 -0.017 10.908 0.017 10.772 C 0.006 10.612 0.006 10.368 0.017 10.039 C 0.039 9.698 0.072 9.329 0.116 8.931 C 0.16 8.522 0.204 8.13 0.248 7.755 C 0.303 7.38 0.353 7.067 0.397 6.817 C 0.496 6.09 0.628 5.346 0.793 4.585 C 0.97 3.823 1.129 3.056 1.273 2.284 C 1.361 2.057 1.438 1.801 1.504 1.517 C 1.581 1.221 1.658 0.949 1.735 0.699 C 1.746 0.449 1.834 0.295 2 0.239 C 2.165 0.17 2.341 0.159 2.529 0.205 C 2.727 0.25 2.865 0.33 2.942 0.443 C 3.052 0.557 3.157 0.733 3.256 0.972 C 3.355 1.21 3.327 1.511 3.173 1.875 C 2.953 2.432 2.738 3.113 2.529 3.92 C 2.33 4.715 2.148 5.681 1.983 6.817 C 1.939 7.09 1.89 7.397 1.834 7.738 C 1.79 8.067 1.746 8.385 1.702 8.692 C 1.669 8.999 1.642 9.255 1.62 9.459 C 1.609 9.652 1.614 9.755 1.636 9.766 C 1.724 9.789 1.818 9.738 1.917 9.613 C 2.027 9.488 2.143 9.289 2.264 9.016 C 2.716 8.243 3.14 7.476 3.537 6.715 C 3.944 5.954 4.352 5.159 4.76 4.329 C 4.947 4 5.134 3.642 5.321 3.255 C 5.52 2.858 5.707 2.494 5.883 2.165 C 6.071 1.824 6.252 1.494 6.429 1.176 C 6.605 0.858 6.759 0.591 6.891 0.375 C 7.024 0.148 7.123 0.023 7.189 0 C 7.486 0 7.707 0.08 7.85 0.239 C 8.004 0.398 8.125 0.591 8.214 0.818 C 8.236 0.875 8.247 0.972 8.247 1.108 C 8.258 1.244 8.241 1.364 8.197 1.466 C 8.186 1.545 8.136 1.71 8.048 1.96 C 7.971 2.21 7.9 2.488 7.833 2.795 C 7.723 3.102 7.624 3.409 7.536 3.715 C 7.459 4.011 7.404 4.255 7.371 4.448 C 7.283 4.937 7.172 5.471 7.04 6.05 C 6.908 6.63 6.792 7.204 6.693 7.772 C 6.605 8.34 6.555 8.851 6.544 9.306 C 6.533 9.624 6.533 9.834 6.544 9.936 C 6.566 10.027 6.599 10.124 6.644 10.226 C 6.666 10.317 6.715 10.34 6.792 10.294 C 6.869 10.249 6.947 10.169 7.024 10.056 C 7.178 9.817 7.294 9.613 7.371 9.442 C 7.459 9.272 7.547 9.09 7.635 8.897 C 7.723 8.692 7.844 8.437 7.999 8.13 C 8.274 7.607 8.555 7.033 8.842 6.408 C 9.139 5.783 9.42 5.164 9.684 4.551 C 9.96 3.937 10.197 3.392 10.395 2.914 C 10.604 2.301 10.781 1.807 10.924 1.432 C 11.067 1.045 11.199 0.75 11.32 0.545 C 11.442 0.341 11.557 0.205 11.668 0.136 C 11.723 0.091 11.838 0.068 12.015 0.068 C 12.202 0.068 12.345 0.114 12.444 0.205 C 12.488 0.25 12.566 0.324 12.676 0.426 C 12.786 0.528 12.835 0.648 12.824 0.784 C 12.769 0.966 12.665 1.261 12.51 1.67 C 12.367 2.079 12.196 2.534 11.998 3.034 C 11.811 3.522 11.623 3.994 11.436 4.448 C 11.26 4.891 11.111 5.244 10.99 5.505 C 10.869 5.744 10.753 5.948 10.643 6.119 C 10.533 6.289 10.478 6.42 10.478 6.511 C 10.478 6.556 10.423 6.698 10.312 6.937 C 10.202 7.164 10.059 7.442 9.883 7.772 C 9.717 8.101 9.536 8.442 9.337 8.794 C 9.139 9.147 8.952 9.47 8.775 9.766 C 8.599 10.061 8.45 10.289 8.329 10.448 C 8.054 10.8 7.756 11.095 7.437 11.334 C 7.128 11.584 6.853 11.771 6.611 11.896 C 6.368 12.021 6.208 12.084 6.131 12.084 Z M 12.489 10.908 C 12.346 10.908 12.23 10.879 12.142 10.823 C 12.065 10.766 11.966 10.686 11.845 10.584 C 11.636 10.357 11.465 10.112 11.332 9.851 C 11.211 9.59 11.167 9.363 11.2 9.169 C 11.233 9.079 11.244 8.993 11.233 8.914 C 11.233 8.823 11.233 8.777 11.233 8.777 C 11.178 8.721 11.162 8.687 11.184 8.675 C 11.206 8.652 11.228 8.618 11.25 8.573 C 11.316 8.573 11.338 8.51 11.316 8.385 C 11.294 8.295 11.327 8.101 11.415 7.806 C 11.514 7.499 11.647 7.209 11.812 6.937 C 11.878 6.823 11.977 6.675 12.109 6.494 C 12.241 6.3 12.385 6.113 12.539 5.931 C 12.704 5.738 12.853 5.585 12.985 5.471 C 13.261 5.232 13.514 5.039 13.745 4.891 C 13.988 4.744 14.23 4.642 14.473 4.585 C 14.715 4.528 14.962 4.499 15.216 4.499 C 15.48 4.499 15.695 4.59 15.86 4.772 C 16.114 4.886 16.291 5.039 16.39 5.232 C 16.5 5.426 16.572 5.676 16.604 5.982 C 16.637 6.323 16.604 6.744 16.505 7.243 C 16.406 7.732 16.136 8.3 15.695 8.948 C 15.42 9.357 15.15 9.675 14.886 9.902 C 14.621 10.13 14.33 10.34 14.01 10.533 C 13.778 10.692 13.53 10.789 13.266 10.823 C 13.002 10.857 12.743 10.885 12.489 10.908 Z M 14.175 8.829 C 14.417 8.613 14.588 8.374 14.688 8.113 C 14.797 7.851 14.913 7.545 15.034 7.192 C 15.078 7.124 15.106 7.011 15.117 6.852 C 15.139 6.692 15.145 6.539 15.134 6.391 C 15.122 6.232 15.084 6.141 15.018 6.119 C 14.919 6.039 14.819 6.022 14.72 6.068 C 14.621 6.102 14.495 6.175 14.34 6.289 C 14.01 6.573 13.701 6.903 13.415 7.278 C 13.139 7.641 12.947 8.09 12.836 8.624 C 12.803 8.908 12.831 9.124 12.919 9.272 C 13.018 9.408 13.172 9.448 13.382 9.391 C 13.602 9.323 13.866 9.135 14.175 8.829 Z M 17.667 10.567 C 17.568 10.487 17.458 10.385 17.336 10.26 C 17.227 10.135 17.188 9.959 17.221 9.732 C 17.254 9.414 17.298 9.135 17.353 8.897 C 17.408 8.647 17.474 8.363 17.551 8.045 C 17.573 7.908 17.629 7.675 17.716 7.346 C 17.816 7.016 17.931 6.658 18.064 6.272 C 18.196 5.886 18.333 5.522 18.477 5.181 C 18.62 4.829 18.747 4.568 18.857 4.397 C 18.978 4.284 19.154 4.227 19.386 4.227 C 19.628 4.227 19.793 4.272 19.882 4.363 C 20.003 4.465 20.041 4.647 19.997 4.909 C 19.953 5.159 19.799 5.55 19.534 6.085 C 19.479 6.221 19.408 6.369 19.32 6.528 C 19.243 6.675 19.188 6.8 19.154 6.903 C 19.121 6.994 19.132 7.033 19.188 7.022 C 19.253 6.897 19.375 6.755 19.551 6.596 C 19.728 6.425 19.914 6.261 20.113 6.102 C 20.311 5.942 20.498 5.8 20.675 5.676 C 20.851 5.55 20.972 5.471 21.038 5.437 C 21.127 5.38 21.226 5.335 21.336 5.301 C 21.457 5.255 21.539 5.221 21.584 5.198 C 21.837 5.073 22.113 5.028 22.41 5.062 C 22.718 5.085 22.906 5.181 22.972 5.352 C 22.983 5.443 23.016 5.511 23.071 5.556 C 23.137 5.602 23.17 5.624 23.17 5.624 C 23.214 5.624 23.236 5.641 23.236 5.676 C 23.248 5.71 23.253 5.727 23.253 5.727 C 23.253 5.806 23.176 5.92 23.021 6.068 C 22.878 6.215 22.718 6.295 22.542 6.306 C 22.399 6.318 22.272 6.346 22.162 6.391 C 22.052 6.437 21.92 6.494 21.766 6.562 C 21.347 6.812 20.967 7.033 20.626 7.226 C 20.295 7.42 19.953 7.715 19.601 8.113 C 19.524 8.204 19.441 8.289 19.353 8.368 C 19.265 8.448 19.176 8.562 19.088 8.709 C 19.033 8.766 18.978 8.891 18.923 9.084 C 18.868 9.277 18.818 9.465 18.774 9.647 C 18.741 9.817 18.725 9.919 18.725 9.953 C 18.725 9.953 18.708 10.01 18.675 10.124 C 18.642 10.226 18.587 10.328 18.51 10.431 C 18.378 10.612 18.246 10.726 18.113 10.772 C 17.992 10.817 17.844 10.749 17.667 10.567 Z M 23.738 10.908 C 23.573 10.851 23.424 10.76 23.292 10.635 C 23.171 10.51 23.121 10.306 23.143 10.022 C 23.165 9.851 23.198 9.675 23.242 9.493 C 23.286 9.3 23.341 9.113 23.407 8.931 C 23.44 8.726 23.479 8.522 23.523 8.317 C 23.578 8.113 23.666 7.92 23.788 7.738 C 23.931 7.317 24.079 6.903 24.234 6.494 C 24.388 6.073 24.52 5.636 24.631 5.181 C 24.796 4.772 24.944 4.409 25.077 4.09 C 25.22 3.772 25.391 3.363 25.589 2.863 C 25.699 2.602 25.793 2.312 25.87 1.994 C 25.958 1.665 26.09 1.375 26.266 1.125 C 26.343 1.023 26.399 0.937 26.432 0.869 C 26.476 0.79 26.52 0.716 26.564 0.648 C 26.641 0.489 26.757 0.415 26.911 0.426 C 27.076 0.437 27.186 0.483 27.241 0.562 C 27.429 0.642 27.561 0.79 27.638 1.006 C 27.716 1.21 27.743 1.358 27.721 1.449 C 27.721 1.574 27.677 1.71 27.589 1.858 C 27.544 1.903 27.5 1.971 27.457 2.062 C 27.413 2.142 27.346 2.25 27.258 2.386 C 27.214 2.534 27.17 2.682 27.126 2.829 C 27.082 2.977 27.032 3.113 26.977 3.238 C 26.922 3.363 26.861 3.488 26.796 3.613 C 26.729 3.738 26.685 3.841 26.663 3.92 C 26.564 4.181 26.454 4.437 26.333 4.687 C 26.222 4.926 26.123 5.181 26.035 5.454 C 25.947 5.715 25.854 5.994 25.754 6.289 C 25.655 6.573 25.528 6.846 25.374 7.107 C 25.297 7.221 25.253 7.374 25.242 7.567 C 25.242 7.761 25.22 7.948 25.176 8.13 C 25.099 8.334 25.027 8.522 24.961 8.692 C 24.906 8.863 24.878 8.971 24.878 9.016 C 24.801 9.266 24.74 9.516 24.697 9.766 C 24.653 10.005 24.581 10.215 24.482 10.397 C 24.482 10.669 24.41 10.84 24.267 10.908 C 24.123 10.976 23.947 10.976 23.738 10.908 Z M 27.522 11.061 C 27.346 11.039 27.214 11.004 27.126 10.959 C 27.038 10.902 26.873 10.783 26.63 10.601 C 26.498 10.465 26.333 10.255 26.135 9.971 C 25.936 9.686 25.738 9.385 25.539 9.067 C 25.341 8.738 25.164 8.459 25.011 8.232 L 25.919 7.039 C 26.063 7.221 26.178 7.391 26.266 7.55 C 26.355 7.709 26.426 7.817 26.481 7.874 C 26.735 8.26 26.933 8.573 27.076 8.811 C 27.22 9.05 27.341 9.243 27.44 9.391 C 27.55 9.539 27.671 9.669 27.803 9.783 C 27.936 9.897 28.106 10.016 28.316 10.141 C 28.348 10.164 28.382 10.22 28.414 10.311 C 28.448 10.391 28.459 10.476 28.448 10.567 C 28.426 10.703 28.343 10.817 28.2 10.908 C 28.068 10.987 27.842 11.039 27.522 11.061 Z M 25.126 7.908 C 25.06 7.715 25.043 7.499 25.077 7.261 C 25.121 7.011 25.215 6.846 25.358 6.766 C 25.402 6.687 25.445 6.636 25.49 6.613 C 25.545 6.579 25.578 6.539 25.589 6.494 C 25.611 6.448 25.666 6.386 25.754 6.306 C 25.854 6.227 25.941 6.153 26.019 6.085 C 26.195 5.971 26.388 5.835 26.597 5.676 C 26.818 5.505 27.027 5.335 27.225 5.164 C 27.435 4.994 27.605 4.846 27.738 4.721 C 27.881 4.596 27.969 4.517 28.002 4.482 C 28.035 4.437 28.101 4.409 28.2 4.397 C 28.31 4.386 28.414 4.403 28.514 4.448 C 28.646 4.482 28.75 4.556 28.828 4.67 C 28.916 4.784 28.96 4.943 28.96 5.147 C 28.993 5.272 28.922 5.426 28.745 5.607 C 28.58 5.778 28.371 5.948 28.118 6.119 C 28.03 6.175 27.908 6.261 27.754 6.374 C 27.611 6.488 27.484 6.596 27.374 6.698 C 27.297 6.744 27.181 6.823 27.027 6.937 C 26.883 7.039 26.757 7.141 26.646 7.243 C 26.559 7.3 26.454 7.403 26.333 7.55 C 26.222 7.687 26.096 7.789 25.953 7.857 C 25.6 8.198 25.385 8.363 25.308 8.351 C 25.242 8.34 25.181 8.192 25.126 7.908 Z M 31.126 11.146 C 30.542 11.146 30.112 10.953 29.836 10.567 C 29.76 10.385 29.721 10.203 29.721 10.022 C 29.732 9.828 29.777 9.692 29.853 9.613 C 29.93 9.522 30.024 9.539 30.134 9.664 C 30.278 9.755 30.481 9.8 30.746 9.8 C 30.878 9.8 30.993 9.8 31.092 9.8 C 31.203 9.789 31.329 9.777 31.472 9.766 C 31.726 9.743 31.886 9.664 31.952 9.527 C 32.029 9.391 32.012 9.277 31.902 9.186 L 31.919 9.186 C 31.622 9.107 31.329 8.993 31.043 8.846 C 30.756 8.698 30.514 8.533 30.315 8.351 C 30.118 8.158 30.002 7.976 29.969 7.806 C 29.881 7.431 29.903 7.045 30.035 6.647 C 30.167 6.249 30.36 5.903 30.614 5.607 C 30.713 5.539 30.85 5.443 31.027 5.318 C 31.203 5.181 31.329 5.107 31.407 5.096 L 31.407 5.113 C 31.616 4.886 31.853 4.704 32.118 4.568 C 32.382 4.42 32.69 4.284 33.043 4.159 L 33.307 4.125 C 33.44 4.102 33.555 4.09 33.654 4.09 C 33.643 4.09 33.671 4.102 33.736 4.125 C 33.803 4.147 33.859 4.164 33.901 4.176 C 33.968 4.21 34.035 4.227 34.101 4.227 C 34.254 4.25 34.403 4.335 34.547 4.482 C 34.701 4.619 34.821 4.784 34.91 4.977 C 35.009 5.159 35.048 5.329 35.026 5.488 C 34.993 5.749 34.899 6.011 34.745 6.272 C 34.591 6.522 34.426 6.664 34.249 6.698 C 34.271 6.687 34.249 6.664 34.183 6.63 C 34.117 6.596 34.056 6.562 34.001 6.528 L 33.935 6.562 C 33.935 6.562 33.93 6.545 33.918 6.511 C 33.918 6.477 33.908 6.437 33.885 6.391 C 33.842 6.312 33.808 6.227 33.787 6.136 C 33.776 6.045 33.776 5.942 33.787 5.829 C 33.808 5.704 33.814 5.63 33.803 5.607 C 33.792 5.585 33.725 5.568 33.605 5.556 C 33.461 5.522 33.28 5.539 33.059 5.607 C 32.839 5.664 32.635 5.766 32.448 5.914 C 32.227 6.062 32.062 6.181 31.952 6.272 C 31.853 6.363 31.776 6.454 31.72 6.545 C 31.666 6.624 31.605 6.744 31.539 6.903 C 31.494 6.982 31.456 7.056 31.423 7.124 C 31.39 7.181 31.374 7.238 31.374 7.295 C 31.374 7.408 31.467 7.528 31.654 7.653 C 31.842 7.766 32.123 7.903 32.497 8.062 C 32.795 8.187 32.988 8.357 33.075 8.573 C 33.175 8.789 33.263 8.993 33.34 9.186 C 33.363 9.232 33.384 9.317 33.406 9.442 C 33.44 9.556 33.445 9.624 33.423 9.647 C 33.445 9.669 33.456 9.692 33.456 9.715 L 33.456 9.698 C 33.544 9.868 33.528 10.05 33.406 10.243 C 33.296 10.425 33.12 10.595 32.878 10.754 C 32.635 10.902 32.36 11.01 32.051 11.078 L 32.068 11.078 C 31.902 11.101 31.737 11.118 31.572 11.129 C 31.417 11.141 31.269 11.146 31.126 11.146 Z M 34.622 14.998 C 34.579 14.998 34.513 14.998 34.424 14.998 C 34.347 15.01 34.281 14.964 34.227 14.862 C 34.182 14.805 34.116 14.692 34.028 14.521 C 33.939 14.362 33.923 14.135 33.978 13.839 C 34.033 13.646 34.077 13.453 34.111 13.26 C 34.144 13.078 34.16 12.942 34.16 12.851 C 34.16 12.805 34.171 12.714 34.193 12.578 C 34.227 12.453 34.243 12.362 34.243 12.305 C 34.298 12.215 34.341 12.09 34.375 11.93 C 34.408 11.771 34.424 11.629 34.424 11.504 C 34.424 11.368 34.491 11.243 34.622 11.129 C 34.622 11.039 34.639 10.925 34.672 10.789 C 34.716 10.652 34.739 10.561 34.739 10.516 C 34.772 10.357 34.843 10.078 34.953 9.681 C 35.074 9.272 35.218 8.811 35.383 8.3 C 35.559 7.789 35.73 7.289 35.895 6.8 C 36.061 6.312 36.21 5.897 36.341 5.556 C 36.474 5.238 36.584 4.943 36.672 4.67 C 36.76 4.397 36.805 4.204 36.805 4.09 C 36.805 4.045 36.815 4.011 36.837 3.988 C 36.859 3.954 36.909 3.892 36.986 3.801 C 37.096 3.687 37.239 3.647 37.415 3.681 C 37.603 3.704 37.757 3.761 37.878 3.852 C 37.967 4 38.027 4.136 38.06 4.261 C 38.104 4.375 38.104 4.556 38.06 4.806 C 38.06 4.977 38.021 5.136 37.944 5.284 C 37.867 5.42 37.796 5.533 37.73 5.624 C 37.674 5.704 37.658 5.738 37.68 5.727 C 38.165 5.42 38.6 5.255 38.986 5.232 C 39.382 5.198 39.713 5.266 39.977 5.437 C 40.252 5.596 40.462 5.818 40.605 6.102 C 40.748 6.386 40.82 6.692 40.82 7.022 C 40.82 7.158 40.776 7.34 40.687 7.567 C 40.6 7.795 40.501 8.01 40.391 8.215 C 40.28 8.408 40.192 8.539 40.126 8.607 C 40.082 8.607 40.038 8.647 39.994 8.726 C 39.95 8.794 39.906 8.874 39.861 8.965 C 39.774 9.079 39.624 9.209 39.415 9.357 C 39.217 9.493 39.013 9.607 38.804 9.698 C 38.595 9.777 38.445 9.8 38.358 9.766 C 38.358 9.766 38.341 9.777 38.309 9.8 C 38.286 9.823 38.275 9.863 38.275 9.919 C 38.275 9.942 38.198 9.988 38.043 10.056 C 37.89 10.124 37.708 10.186 37.498 10.243 C 37.289 10.3 37.096 10.328 36.92 10.328 C 36.688 10.328 36.523 10.283 36.424 10.192 C 36.402 10.215 36.375 10.249 36.341 10.294 C 36.32 10.34 36.309 10.379 36.309 10.414 C 36.309 10.482 36.281 10.59 36.226 10.737 C 36.181 10.885 36.127 11.016 36.061 11.129 C 35.994 11.254 35.934 11.317 35.879 11.317 C 35.879 11.317 35.868 11.334 35.845 11.368 C 35.824 11.402 35.834 11.448 35.879 11.504 C 35.879 11.504 35.873 11.567 35.862 11.692 C 35.862 11.828 35.834 11.942 35.779 12.033 C 35.779 12.124 35.763 12.26 35.73 12.442 C 35.697 12.624 35.658 12.76 35.614 12.851 C 35.614 12.987 35.592 13.118 35.549 13.243 C 35.515 13.379 35.477 13.447 35.433 13.447 C 35.389 13.459 35.361 13.527 35.349 13.652 C 35.339 13.788 35.333 13.885 35.333 13.942 C 35.322 14.226 35.234 14.47 35.069 14.675 C 34.904 14.89 34.755 14.998 34.622 14.998 Z M 36.738 9.033 C 36.826 9.033 36.986 8.993 37.217 8.914 C 37.449 8.834 37.691 8.738 37.944 8.624 C 38.198 8.499 38.396 8.374 38.539 8.249 C 38.826 7.988 39.047 7.732 39.2 7.482 C 39.365 7.232 39.355 6.954 39.167 6.647 C 39.079 6.488 38.936 6.425 38.738 6.46 C 38.551 6.482 38.341 6.573 38.11 6.732 C 37.878 6.891 37.642 7.09 37.399 7.329 C 37.266 7.476 37.146 7.647 37.036 7.84 C 36.925 8.033 36.831 8.221 36.754 8.402 C 36.688 8.584 36.65 8.738 36.639 8.863 C 36.628 8.976 36.661 9.033 36.738 9.033 Z M 42.984 10.789 C 42.896 10.811 42.78 10.823 42.637 10.823 C 42.494 10.811 42.367 10.794 42.257 10.772 C 42.158 10.737 42.108 10.703 42.108 10.669 C 42.108 10.612 42.081 10.584 42.025 10.584 C 42.025 10.584 41.965 10.539 41.844 10.448 C 41.722 10.345 41.612 10.272 41.513 10.226 C 41.414 10.067 41.348 9.885 41.315 9.681 C 41.292 9.465 41.359 9.09 41.513 8.556 C 41.524 8.192 41.623 7.812 41.81 7.414 C 41.998 7.005 42.235 6.607 42.521 6.221 C 42.807 5.835 43.105 5.494 43.414 5.198 C 43.722 4.891 43.998 4.664 44.24 4.517 C 44.394 4.357 44.598 4.272 44.851 4.261 C 45.115 4.25 45.347 4.301 45.545 4.414 C 45.656 4.471 45.777 4.585 45.909 4.755 C 46.041 4.926 46.168 5.107 46.289 5.301 C 46.41 5.482 46.504 5.647 46.57 5.795 C 46.603 5.92 46.63 6.033 46.652 6.136 C 46.686 6.227 46.708 6.34 46.719 6.477 C 46.73 6.613 46.719 6.817 46.686 7.09 C 46.63 7.295 46.581 7.505 46.536 7.721 C 46.504 7.925 46.487 8.135 46.487 8.351 C 46.465 8.567 46.487 8.721 46.553 8.811 C 46.63 8.902 46.741 8.908 46.884 8.829 C 47.016 8.76 47.154 8.755 47.297 8.811 C 47.44 8.857 47.539 8.948 47.595 9.084 C 47.661 9.209 47.644 9.374 47.545 9.578 C 47.479 9.726 47.374 9.868 47.231 10.005 C 47.088 10.141 46.928 10.254 46.752 10.345 C 46.576 10.425 46.405 10.465 46.24 10.465 C 46.118 10.465 45.998 10.419 45.875 10.328 C 45.755 10.226 45.645 10.09 45.545 9.919 C 45.446 9.749 45.363 9.561 45.297 9.357 L 45.198 8.965 L 44.603 9.527 C 44.46 9.686 44.317 9.834 44.174 9.971 C 44.042 10.095 43.958 10.186 43.926 10.243 C 43.87 10.345 43.761 10.436 43.596 10.516 C 43.441 10.595 43.238 10.686 42.984 10.789 Z M 43.43 9.152 C 43.617 9.039 43.777 8.902 43.909 8.743 C 44.052 8.584 44.19 8.408 44.323 8.215 C 44.454 8.01 44.598 7.795 44.753 7.567 C 44.939 7.306 45.071 7.096 45.149 6.937 C 45.237 6.778 45.303 6.607 45.347 6.425 C 45.303 6.3 45.243 6.17 45.165 6.033 C 45.088 5.886 45.011 5.806 44.934 5.795 C 44.779 5.795 44.593 5.891 44.372 6.085 C 44.163 6.278 43.932 6.556 43.678 6.92 C 43.633 6.976 43.579 7.067 43.513 7.192 C 43.446 7.317 43.381 7.437 43.314 7.55 C 43.26 7.653 43.221 7.721 43.198 7.755 C 43.166 7.8 43.116 7.908 43.05 8.079 C 42.995 8.238 42.945 8.402 42.901 8.573 C 42.857 8.732 42.836 8.846 42.836 8.914 C 42.836 8.982 42.841 9.056 42.852 9.135 C 42.873 9.215 42.929 9.266 43.017 9.289 C 43.105 9.311 43.243 9.266 43.43 9.152 Z M 49.746 10.891 C 49.503 10.891 49.322 10.879 49.2 10.857 C 49.09 10.834 49.007 10.8 48.952 10.754 C 48.898 10.709 48.826 10.647 48.738 10.567 C 48.693 10.476 48.616 10.362 48.506 10.226 C 48.396 10.078 48.319 9.982 48.275 9.936 C 48.23 9.766 48.214 9.533 48.225 9.238 C 48.247 8.942 48.296 8.624 48.374 8.283 C 48.451 7.942 48.545 7.636 48.655 7.363 C 48.699 7.272 48.738 7.181 48.771 7.09 C 48.804 6.999 48.82 6.954 48.82 6.954 C 48.82 6.897 48.886 6.761 49.019 6.545 C 49.162 6.329 49.316 6.102 49.481 5.863 C 49.658 5.624 49.801 5.454 49.911 5.352 C 49.988 5.261 50.104 5.164 50.258 5.062 C 50.423 4.96 50.566 4.886 50.688 4.84 C 50.809 4.795 50.974 4.738 51.184 4.67 C 51.392 4.59 51.58 4.551 51.745 4.551 C 51.9 4.551 52.065 4.585 52.241 4.653 C 52.418 4.721 52.566 4.84 52.687 5.011 C 52.886 5.215 53.013 5.46 53.067 5.744 C 53.122 6.028 53.128 6.272 53.084 6.477 C 53.029 6.704 52.919 6.891 52.754 7.039 C 52.588 7.175 52.412 7.249 52.225 7.261 C 52.037 7.261 51.872 7.181 51.729 7.022 C 51.685 6.931 51.663 6.857 51.663 6.8 C 51.663 6.732 51.685 6.636 51.729 6.511 C 51.773 6.352 51.795 6.21 51.795 6.085 C 51.795 5.96 51.745 5.897 51.646 5.897 C 51.503 5.897 51.387 5.942 51.299 6.033 C 51.211 6.113 51.079 6.249 50.903 6.442 C 50.825 6.533 50.726 6.664 50.605 6.834 C 50.484 7.005 50.362 7.192 50.242 7.397 C 50.131 7.59 50.032 7.789 49.944 7.993 C 49.823 8.368 49.746 8.613 49.712 8.726 C 49.691 8.829 49.68 8.88 49.68 8.88 C 49.68 8.925 49.675 8.971 49.663 9.016 C 49.652 9.05 49.646 9.09 49.646 9.135 C 49.646 9.272 49.724 9.38 49.877 9.459 C 49.999 9.539 50.099 9.578 50.176 9.578 C 50.264 9.567 50.429 9.505 50.671 9.391 C 50.847 9.3 51.013 9.181 51.167 9.033 C 51.332 8.885 51.503 8.755 51.68 8.641 C 51.8 8.562 51.894 8.493 51.96 8.437 C 52.037 8.38 52.076 8.374 52.076 8.42 C 52.076 8.465 52.093 8.488 52.126 8.488 C 52.159 8.488 52.197 8.465 52.241 8.42 C 52.307 8.329 52.39 8.295 52.489 8.317 C 52.588 8.329 52.677 8.357 52.754 8.402 C 52.842 8.448 52.886 8.488 52.886 8.522 C 52.863 8.624 52.886 8.709 52.952 8.777 C 52.952 8.823 52.935 8.885 52.902 8.965 C 52.88 9.033 52.847 9.09 52.803 9.135 C 52.748 9.215 52.665 9.329 52.555 9.476 C 52.456 9.624 52.362 9.755 52.274 9.868 C 52.186 9.982 52.142 10.039 52.142 10.039 C 52.098 10.027 52.053 10.039 52.01 10.073 C 51.976 10.107 51.938 10.147 51.894 10.192 C 51.806 10.272 51.723 10.334 51.646 10.379 C 51.569 10.414 51.508 10.431 51.465 10.431 C 51.387 10.476 51.327 10.505 51.282 10.516 C 51.249 10.527 51.233 10.556 51.233 10.601 C 51.123 10.715 50.925 10.794 50.638 10.84 C 50.352 10.874 50.054 10.891 49.746 10.891 Z M 55.354 10.874 C 54.924 10.692 54.627 10.397 54.461 9.988 C 54.296 9.578 54.252 9.033 54.329 8.351 C 54.351 7.999 54.34 7.766 54.296 7.653 C 54.252 7.528 54.17 7.408 54.049 7.295 C 54.015 7.249 53.938 7.175 53.817 7.073 C 53.696 6.959 53.64 6.874 53.652 6.817 C 53.64 6.738 53.657 6.641 53.701 6.528 C 53.746 6.403 53.783 6.335 53.817 6.323 C 53.894 6.289 53.971 6.249 54.049 6.204 C 54.136 6.158 54.202 6.147 54.247 6.17 C 54.291 6.17 54.357 6.198 54.444 6.255 C 54.544 6.312 54.594 6.363 54.594 6.408 C 54.638 6.488 54.703 6.454 54.792 6.306 C 54.891 6.158 54.996 5.971 55.106 5.744 C 55.216 5.562 55.354 5.391 55.519 5.232 C 55.684 5.073 55.85 4.931 56.015 4.806 C 56.191 4.67 56.34 4.568 56.461 4.499 C 56.516 4.477 56.621 4.443 56.775 4.397 C 56.94 4.352 57.111 4.318 57.287 4.295 C 57.463 4.261 57.596 4.25 57.684 4.261 C 57.882 4.272 58.092 4.357 58.312 4.517 C 58.533 4.676 58.703 4.823 58.825 4.96 C 58.968 5.062 59.061 5.221 59.105 5.437 C 59.161 5.641 59.182 5.857 59.172 6.085 C 59.161 6.312 59.116 6.505 59.039 6.664 C 59.006 6.778 58.891 6.937 58.692 7.141 C 58.494 7.346 58.273 7.545 58.031 7.738 C 57.8 7.92 57.601 8.045 57.436 8.113 C 57.293 8.147 57.122 8.175 56.924 8.198 C 56.726 8.209 56.538 8.209 56.362 8.198 C 56.197 8.175 56.082 8.147 56.015 8.113 C 55.938 8.067 55.872 8.084 55.816 8.164 C 55.772 8.232 55.734 8.425 55.701 8.743 C 55.69 8.868 55.69 8.976 55.701 9.067 C 55.723 9.158 55.745 9.226 55.767 9.272 C 55.844 9.408 55.922 9.51 55.999 9.578 C 56.075 9.635 56.219 9.652 56.428 9.63 C 56.637 9.607 56.847 9.476 57.056 9.238 C 57.276 8.988 57.475 8.789 57.651 8.641 C 57.695 8.562 57.789 8.51 57.932 8.488 C 58.086 8.454 58.268 8.465 58.477 8.522 C 58.598 8.601 58.654 8.726 58.642 8.897 C 58.642 9.067 58.554 9.317 58.378 9.647 C 58.345 9.726 58.252 9.845 58.097 10.005 C 57.954 10.152 57.794 10.306 57.618 10.465 C 57.453 10.612 57.315 10.72 57.204 10.789 C 56.874 10.97 56.55 11.056 56.23 11.044 C 55.91 11.033 55.618 10.976 55.354 10.874 Z M 56.577 7.039 C 56.743 6.994 56.88 6.948 56.99 6.903 C 57.111 6.857 57.227 6.783 57.337 6.681 C 57.447 6.579 57.574 6.425 57.717 6.221 C 57.761 6.096 57.783 5.988 57.783 5.897 C 57.794 5.806 57.789 5.749 57.767 5.727 C 57.679 5.636 57.58 5.607 57.47 5.641 C 57.37 5.664 57.26 5.721 57.138 5.812 C 57.061 5.846 56.952 5.92 56.808 6.033 C 56.676 6.136 56.543 6.255 56.412 6.391 C 56.291 6.516 56.191 6.636 56.114 6.749 C 56.048 6.852 56.037 6.914 56.081 6.937 C 56.059 6.982 56.119 7.011 56.263 7.022 C 56.417 7.033 56.521 7.039 56.577 7.039 Z" fill="var(--1ckecfm, var(--token-fa32c9e5-8e93-4909-b6e0-a0c163ffe0ac, rgb(0, 0, 0)))" height="15px" id="HGWKXBnO0" transform="translate(45.327 2.501)" width="59.17426235925441px"/><path d="M 0 9.315 L 0 0.148 L 1.79 0.148 L 5.119 4.701 L 4.284 4.701 L 7.517 0.148 L 9.307 0.148 L 9.307 9.315 L 7.458 9.315 L 7.458 2.252 L 8.197 2.424 L 4.773 6.977 L 4.534 6.977 L 1.229 2.424 L 1.849 2.252 L 1.849 9.315 Z M 12.769 9.463 C 12.299 9.463 11.894 9.385 11.552 9.229 C 11.21 9.073 10.947 8.852 10.764 8.565 C 10.581 8.269 10.49 7.921 10.49 7.519 C 10.49 7.141 10.573 6.809 10.74 6.522 C 10.907 6.227 11.162 5.981 11.504 5.784 C 11.854 5.587 12.287 5.447 12.804 5.365 L 14.797 5.033 L 14.797 6.387 L 13.127 6.694 C 12.872 6.743 12.677 6.83 12.542 6.953 C 12.407 7.067 12.339 7.236 12.339 7.457 C 12.339 7.662 12.415 7.822 12.566 7.937 C 12.717 8.052 12.904 8.109 13.127 8.109 C 13.421 8.109 13.68 8.044 13.902 7.913 C 14.125 7.781 14.296 7.605 14.415 7.383 C 14.543 7.154 14.606 6.903 14.606 6.633 L 14.606 4.885 C 14.606 4.631 14.507 4.418 14.308 4.245 C 14.117 4.073 13.854 3.987 13.52 3.987 C 13.202 3.987 12.92 4.077 12.673 4.258 C 12.435 4.438 12.26 4.676 12.148 4.971 L 10.716 4.27 C 10.844 3.893 11.046 3.569 11.325 3.298 C 11.603 3.027 11.937 2.818 12.327 2.67 C 12.717 2.523 13.143 2.449 13.604 2.449 C 14.153 2.449 14.638 2.551 15.06 2.756 C 15.481 2.962 15.807 3.249 16.038 3.618 C 16.277 3.979 16.396 4.401 16.396 4.885 L 16.396 9.315 L 14.725 9.315 L 14.725 8.232 L 15.131 8.159 C 14.94 8.454 14.729 8.7 14.499 8.897 C 14.268 9.086 14.01 9.225 13.723 9.315 C 13.437 9.414 13.119 9.463 12.769 9.463 Z M 20.73 9.389 C 19.943 9.389 19.33 9.172 18.893 8.737 C 18.463 8.294 18.248 7.679 18.248 6.891 L 18.248 4.196 L 17.151 4.196 L 17.151 2.596 L 17.21 2.596 C 17.544 2.596 17.799 2.51 17.974 2.338 C 18.157 2.166 18.248 1.907 18.248 1.563 L 18.248 1.071 L 20.038 1.071 L 20.038 2.596 L 21.566 2.596 L 21.566 4.196 L 20.038 4.196 L 20.038 6.768 C 20.038 6.998 20.078 7.191 20.158 7.346 C 20.237 7.494 20.36 7.605 20.527 7.679 C 20.695 7.753 20.901 7.789 21.148 7.789 C 21.204 7.789 21.267 7.785 21.339 7.777 C 21.41 7.769 21.486 7.761 21.566 7.753 L 21.566 9.315 C 21.446 9.332 21.311 9.348 21.16 9.365 C 21.009 9.381 20.866 9.389 20.73 9.389 Z M 22.614 9.315 L 22.614 2.596 L 24.404 2.596 L 24.404 9.315 Z M 22.614 1.994 L 22.614 0.148 L 24.404 0.148 L 24.404 1.994 Z M 25.714 9.315 L 25.714 0 L 27.504 0 L 27.504 9.315 Z M 31.88 9.463 C 31.244 9.463 30.675 9.307 30.174 8.995 C 29.673 8.684 29.275 8.261 28.981 7.728 C 28.694 7.195 28.551 6.604 28.551 5.956 C 28.551 5.3 28.698 4.709 28.992 4.184 C 29.287 3.651 29.684 3.228 30.186 2.916 C 30.687 2.605 31.248 2.449 31.868 2.449 C 32.345 2.449 32.767 2.543 33.133 2.732 C 33.507 2.912 33.801 3.171 34.016 3.507 L 33.741 3.876 L 33.741 0 L 35.531 0 L 35.531 9.315 L 33.861 9.315 L 33.861 8.085 L 34.028 8.466 C 33.805 8.794 33.503 9.045 33.121 9.217 C 32.739 9.381 32.325 9.463 31.88 9.463 Z M 32.095 7.802 C 32.421 7.802 32.707 7.724 32.954 7.568 C 33.2 7.412 33.391 7.195 33.527 6.916 C 33.67 6.637 33.741 6.317 33.741 5.956 C 33.741 5.595 33.67 5.275 33.527 4.996 C 33.391 4.717 33.2 4.5 32.954 4.344 C 32.707 4.188 32.421 4.11 32.095 4.11 C 31.769 4.11 31.474 4.192 31.212 4.356 C 30.957 4.512 30.758 4.729 30.615 5.008 C 30.472 5.279 30.4 5.595 30.4 5.956 C 30.4 6.317 30.472 6.637 30.615 6.916 C 30.758 7.195 30.957 7.412 31.212 7.568 C 31.474 7.724 31.769 7.802 32.095 7.802 Z M 38.859 9.463 C 38.389 9.463 37.984 9.385 37.641 9.229 C 37.299 9.073 37.037 8.852 36.854 8.565 C 36.671 8.269 36.58 7.921 36.58 7.519 C 36.58 7.141 36.663 6.809 36.83 6.522 C 36.997 6.227 37.252 5.981 37.594 5.784 C 37.944 5.587 38.377 5.447 38.894 5.365 L 40.887 5.033 L 40.887 6.387 L 39.216 6.694 C 38.962 6.743 38.767 6.83 38.632 6.953 C 38.497 7.067 38.429 7.236 38.429 7.457 C 38.429 7.662 38.505 7.822 38.656 7.937 C 38.807 8.052 38.994 8.109 39.216 8.109 C 39.511 8.109 39.769 8.044 39.992 7.913 C 40.215 7.781 40.386 7.605 40.505 7.383 C 40.632 7.154 40.696 6.903 40.696 6.633 L 40.696 4.885 C 40.696 4.631 40.597 4.418 40.398 4.245 C 40.207 4.073 39.944 3.987 39.61 3.987 C 39.292 3.987 39.01 4.077 38.763 4.258 C 38.524 4.438 38.349 4.676 38.238 4.971 L 36.806 4.27 C 36.933 3.893 37.136 3.569 37.415 3.298 C 37.693 3.027 38.027 2.818 38.417 2.67 C 38.807 2.523 39.232 2.449 39.694 2.449 C 40.243 2.449 40.728 2.551 41.149 2.756 C 41.571 2.962 41.897 3.249 42.128 3.618 C 42.367 3.979 42.486 4.401 42.486 4.885 L 42.486 9.315 L 40.815 9.315 L 40.815 8.232 L 41.221 8.159 C 41.03 8.454 40.819 8.7 40.589 8.897 C 40.358 9.086 40.099 9.225 39.813 9.315 C 39.527 9.414 39.209 9.463 38.859 9.463 Z" fill="var(--1ckecfm, var(--token-fa32c9e5-8e93-4909-b6e0-a0c163ffe0ac, rgb(0, 0, 0)))" height="9.462988947523298px" id="UdTYlwGEn" transform="translate(0.501 4.462)" width="42.48592580356171px"/></svg>