<svg display="block" role="presentation" viewBox="0 0 98 20" xmlns="http://www.w3.org/2000/svg"><path d="M 79.162 13.988 C 82.091 13.988 83.673 11.521 83.673 8.761 C 83.673 6 82.15 3.569 79.139 3.569 C 77.769 3.569 76.554 4.149 76.034 5.004 L 76.034 0.162 L 73.398 0.162 L 73.398 13.777 L 76.034 13.777 L 76.034 12.327 C 76.565 13.292 77.684 13.988 79.162 13.988 Z M 78.494 11.533 C 76.878 11.533 75.917 10.241 75.917 8.655 C 75.917 7.069 76.96 5.789 78.518 5.789 C 80.24 5.789 81.095 7.187 81.095 8.655 C 81.095 10.124 80.099 11.533 78.494 11.533 Z M 88.839 13.777 L 91.51 13.777 L 91.51 8.737 C 91.51 7.234 92.037 6.036 93.525 6.036 C 95.013 6.036 95.329 7.246 95.329 8.655 L 95.329 13.777 L 98 13.777 L 98 7.833 C 98 5.284 96.723 3.569 94.45 3.569 C 93.138 3.569 91.862 4.127 91.44 5.63 L 91.44 4.144 L 88.839 4.144 Z M 84.567 2.944 L 87.652 2.944 L 87.652 0 L 84.567 0 Z M 84.768 13.777 L 87.451 13.777 L 87.451 4.144 L 84.768 4.144 Z M 67.834 13.988 C 70.763 13.988 72.344 11.521 72.344 8.761 C 72.344 6 70.821 3.569 67.81 3.569 C 66.44 3.569 65.225 4.149 64.706 5.004 L 64.706 0.162 L 62.07 0.162 L 62.07 13.777 L 64.706 13.777 L 64.706 12.327 C 65.237 13.292 66.356 13.988 67.834 13.988 Z M 67.166 11.533 C 65.549 11.533 64.589 10.241 64.589 8.655 C 64.589 7.069 65.631 5.789 67.189 5.789 C 68.912 5.789 69.767 7.187 69.767 8.655 C 69.767 10.124 68.771 11.533 67.166 11.533 Z M 55.767 11.49 C 54.087 11.49 53.164 10.244 53.164 8.714 C 53.164 7.077 54.193 5.938 55.767 5.938 C 57.494 5.938 58.441 7.255 58.441 8.714 C 58.441 10.173 57.459 11.49 55.767 11.49 Z M 55.767 14 C 58.942 14 60.969 11.803 60.969 8.784 C 60.969 5.765 58.872 3.522 55.767 3.522 C 52.663 3.522 50.636 5.754 50.636 8.784 C 50.636 11.815 52.733 14 55.767 14 Z M 35.114 13.871 L 37.738 13.871 L 37.738 4.506 L 41.077 13.33 L 43.584 13.33 L 46.923 4.506 L 46.923 13.871 L 49.547 13.871 L 49.547 0.162 L 46.138 0.162 L 42.33 10.523 L 38.535 0.162 L 35.114 0.162 Z M 10.31 13.871 L 18.054 13.871 L 21.214 10.489 L 21.214 13.871 L 29.751 13.871 L 29.751 5.773 L 24.955 5.773 L 24.955 0.165 L 17.698 0.165 L 14.435 3.575 L 14.435 0.165 L 6.059 0.165 L 0 6.579 L 0 13.867 L 6.971 13.871 L 10.31 10.298 Z" fill="var(--1ckecfm, var(--token-fa32c9e5-8e93-4909-b6e0-a0c163ffe0ac, rgb(0, 0, 0)))" height="14.000000175501505px" id="q5uIRlr9M" transform="translate(0 3)" width="98.00000052083331px"/></svg>