<svg display="block" role="presentation" viewBox="0 0 61 20" xmlns="http://www.w3.org/2000/svg"><path d="M 5.947 11.998 L 5.947 12 L 3.059 12 L 3.059 16 L 0 16 L 0 0 L 5.947 0 L 5.947 0.002 C 6.004 0.001 6.06 0 6.117 0 C 9.496 0 12.234 2.686 12.234 6 C 12.234 9.314 9.496 12 6.117 12 C 6.06 12 6.004 11.999 5.947 11.998 Z M 6.117 9 C 7.782 9 9.133 7.657 9.133 6 C 9.133 4.343 7.783 3 6.117 3 L 3.059 3 L 3.059 9 Z M 21.41 4 L 24.468 4 L 24.468 16 L 21.41 16 L 21.41 15.197 C 20.51 15.708 19.466 16 18.351 16 C 14.973 16 12.234 13.314 12.234 10 C 12.234 6.686 14.973 4 18.351 4 C 19.466 4 20.51 4.292 21.41 4.803 Z M 15.293 10 C 15.293 11.657 16.662 13 18.351 13 C 20.041 13 21.41 11.657 21.41 10 C 21.41 8.343 20.041 7 18.351 7 C 16.662 7 15.293 8.343 15.293 10 Z M 37.382 16 L 34.324 16 L 34.324 15.197 C 33.424 15.708 32.379 16 31.265 16 C 27.887 16 25.148 13.314 25.148 10 C 25.148 6.686 27.887 4 31.265 4 C 32.379 4 33.424 4.292 34.324 4.803 L 34.324 0 L 37.382 0 Z M 34.324 9.985 C 34.315 8.335 32.949 7 31.265 7 C 29.576 7 28.207 8.343 28.207 10 C 28.207 11.657 29.576 13 31.265 13 C 32.949 13 34.315 11.665 34.324 10.015 Z M 41.63 16 L 38.572 16 L 38.572 0 L 41.63 0 Z M 54.655 11.009 C 54.344 12.787 53.225 14.421 51.507 15.279 C 48.364 16.85 44.681 15.676 43.215 12.854 C 41.613 9.771 42.81 6.158 45.953 4.587 C 48.83 3.15 52.514 4.323 54.115 7.406 C 54.276 7.715 54.404 8.034 54.502 8.358 L 46.628 12.294 C 47.546 13.044 48.889 13.221 50.116 12.608 C 51.086 12.123 51.67 11.08 51.66 9.99 Z M 45.548 10.215 L 50.571 7.704 C 49.665 6.948 48.37 6.746 47.338 7.262 C 46.112 7.875 45.469 9.045 45.548 10.215 Z M 55.564 0 L 58.621 0 L 58.621 5 L 61 5 L 61 8 L 58.621 8 L 58.621 16 L 55.564 16 Z" fill="var(--1ckecfm, var(--token-fa32c9e5-8e93-4909-b6e0-a0c163ffe0ac, rgb(0, 0, 0)))" height="16px" id="FJCTY7JU5" transform="translate(0 2)" width="60.999998568609044px"/></svg>