<svg display="block" role="presentation" viewBox="0 0 87 20" xmlns="http://www.w3.org/2000/svg"><g d="M 19.302 1.921 L 16.484 1.921 C 16.2 1.921 15.974 2.148 15.974 2.431 L 15.974 11.323 C 15.974 11.606 16.2 11.832 16.484 11.832 L 17.39 11.832 C 17.673 11.832 17.9 11.606 17.9 11.323 L 17.9 8.76 L 19.302 8.76 C 21.654 8.76 23.098 7.401 23.098 5.348 C 23.098 3.295 21.654 1.921 19.302 1.921 Z M 19.302 6.976 L 17.9 6.976 L 17.9 3.705 L 19.302 3.705 C 20.464 3.705 21.144 4.3 21.144 5.348 C 21.144 6.381 20.464 6.976 19.302 6.976 Z M 27.659 4.484 C 25.506 4.484 23.878 6.141 23.878 8.25 C 23.878 10.346 25.506 12.017 27.659 12.017 C 29.826 12.017 31.455 10.346 31.455 8.25 C 31.455 6.141 29.826 4.484 27.659 4.484 Z M 27.659 10.289 C 26.469 10.289 25.719 9.369 25.719 8.25 C 25.719 7.132 26.469 6.211 27.659 6.211 C 28.863 6.211 29.614 7.132 29.614 8.25 C 29.614 9.369 28.863 10.289 27.659 10.289 Z M 32.868 2.431 L 32.868 11.323 C 32.868 11.606 33.094 11.832 33.378 11.832 L 34.171 11.832 C 34.44 11.832 34.666 11.606 34.666 11.323 L 34.666 2.431 C 34.666 2.148 34.44 1.921 34.171 1.921 L 33.378 1.921 C 33.094 1.921 32.868 2.148 32.868 2.431 Z M 36.509 2.431 L 36.509 11.323 C 36.509 11.606 36.735 11.832 37.019 11.832 L 37.812 11.832 C 38.081 11.832 38.308 11.606 38.308 11.323 L 38.308 2.431 C 38.308 2.148 38.081 1.921 37.812 1.921 L 37.019 1.921 C 36.735 1.921 36.509 2.148 36.509 2.431 Z M 40.66 11.832 L 41.439 11.832 C 41.722 11.832 41.949 11.606 41.949 11.323 L 41.949 5.164 C 41.949 4.88 41.722 4.654 41.439 4.654 L 40.66 4.654 C 40.377 4.654 40.15 4.88 40.15 5.164 L 40.15 11.323 C 40.15 11.606 40.377 11.832 40.66 11.832 Z M 41.042 3.606 C 41.58 3.606 42.005 3.167 42.005 2.643 C 42.005 2.119 41.58 1.68 41.042 1.68 C 40.518 1.68 40.093 2.119 40.093 2.643 C 40.093 3.167 40.518 3.606 41.042 3.606 Z M 47.672 4.484 C 46.624 4.484 45.972 4.951 45.576 5.532 L 45.576 5.164 C 45.576 4.88 45.349 4.654 45.08 4.654 L 44.287 4.654 C 44.018 4.654 43.791 4.88 43.791 5.164 L 43.791 11.323 C 43.791 11.606 44.018 11.832 44.287 11.832 L 45.08 11.832 C 45.349 11.832 45.576 11.606 45.576 11.323 L 45.576 7.84 C 45.576 7.004 46.043 6.226 47.105 6.226 C 48.125 6.226 48.508 6.919 48.508 7.84 L 48.508 11.323 C 48.508 11.606 48.734 11.832 49.018 11.832 L 49.797 11.832 C 50.08 11.832 50.307 11.606 50.307 11.323 L 50.307 7.472 C 50.307 5.942 49.485 4.484 47.672 4.484 Z M 57.517 5.164 L 57.517 5.503 C 57.064 4.909 56.341 4.484 55.222 4.484 C 52.999 4.484 51.724 6.367 51.724 8.25 C 51.724 10.119 52.999 12.002 55.222 12.002 C 56.341 12.002 57.064 11.578 57.517 10.983 L 57.517 11.323 C 57.517 11.606 57.744 11.832 58.027 11.832 L 58.806 11.832 C 59.089 11.832 59.316 11.606 59.316 11.323 L 59.316 5.164 C 59.316 4.88 59.089 4.654 58.806 4.654 L 58.027 4.654 C 57.744 4.654 57.517 4.88 57.517 5.164 Z M 55.506 10.289 C 54.274 10.289 53.565 9.341 53.565 8.25 C 53.565 7.146 54.274 6.211 55.506 6.211 C 56.738 6.211 57.446 7.132 57.446 8.25 C 57.446 9.355 56.738 10.289 55.506 10.289 Z M 64.651 5.801 L 64.651 5.164 C 64.651 4.88 64.425 4.654 64.142 4.654 L 63.122 4.654 L 63.122 3.663 C 63.122 3.38 62.895 3.153 62.612 3.153 L 61.819 3.153 C 61.535 3.153 61.323 3.38 61.323 3.663 L 61.323 4.654 L 60.671 4.654 C 60.402 4.654 60.176 4.88 60.176 5.164 L 60.176 5.801 C 60.176 6.07 60.402 6.296 60.671 6.296 L 61.323 6.296 L 61.323 9.213 C 61.323 10.7 62.059 11.932 63.901 11.932 C 64.071 11.932 64.198 11.932 64.326 11.917 C 64.51 11.889 64.651 11.733 64.651 11.535 L 64.651 10.601 C 64.651 10.388 64.467 10.218 64.255 10.218 L 64.227 10.218 C 63.235 10.218 63.122 9.737 63.122 8.916 L 63.122 6.296 L 64.142 6.296 C 64.425 6.296 64.651 6.07 64.651 5.801 Z M 66.788 11.832 L 67.567 11.832 C 67.85 11.832 68.077 11.606 68.077 11.323 L 68.077 5.164 C 68.077 4.88 67.85 4.654 67.567 4.654 L 66.788 4.654 C 66.505 4.654 66.278 4.88 66.278 5.164 L 66.278 11.323 C 66.278 11.606 66.505 11.832 66.788 11.832 Z M 67.17 3.606 C 67.708 3.606 68.133 3.167 68.133 2.643 C 68.133 2.119 67.708 1.68 67.17 1.68 C 66.646 1.68 66.221 2.119 66.221 2.643 C 66.221 3.167 66.646 3.606 67.17 3.606 Z M 73.276 4.484 C 71.123 4.484 69.494 6.141 69.494 8.25 C 69.494 10.346 71.123 12.017 73.276 12.017 C 75.443 12.017 77.072 10.346 77.072 8.25 C 77.072 6.141 75.443 4.484 73.276 4.484 Z M 73.276 10.289 C 72.086 10.289 71.335 9.369 71.335 8.25 C 71.335 7.132 72.086 6.211 73.276 6.211 C 74.48 6.211 75.231 7.132 75.231 8.25 C 75.231 9.369 74.48 10.289 73.276 10.289 Z M 82.365 4.484 C 81.317 4.484 80.665 4.951 80.269 5.532 L 80.269 5.164 C 80.269 4.88 80.042 4.654 79.773 4.654 L 78.98 4.654 C 78.711 4.654 78.484 4.88 78.484 5.164 L 78.484 11.323 C 78.484 11.606 78.711 11.832 78.98 11.832 L 79.773 11.832 C 80.042 11.832 80.269 11.606 80.269 11.323 L 80.269 7.84 C 80.269 7.004 80.736 6.226 81.798 6.226 C 82.819 6.226 83.201 6.919 83.201 7.84 L 83.201 11.323 C 83.201 11.606 83.427 11.832 83.711 11.832 L 84.49 11.832 C 84.773 11.832 85 11.606 85 11.323 L 85 7.472 C 85 5.942 84.179 4.484 82.365 4.484 Z M 6.03 9.527 C 5.462 10.167 4.617 10.617 3.77 10.731 C 3.757 11.33 3.94 11.993 4.299 12.541 C 4.658 13.089 5.193 13.521 5.748 13.748 C 6.298 13.986 6.981 14.067 7.624 13.941 C 8.266 13.815 8.869 13.483 9.288 13.055 C 9.716 12.636 10.049 12.033 10.175 11.391 C 10.301 10.748 10.22 10.065 9.982 9.516 C 9.754 8.961 9.322 8.426 8.774 8.067 C 8.226 7.708 7.563 7.526 6.964 7.539 C 6.912 7.902 6.804 8.261 6.649 8.594 C 6.978 8.469 7.442 8.615 7.64 8.906 C 7.867 9.176 7.882 9.661 7.673 9.945 C 7.493 10.248 7.04 10.423 6.703 10.319 C 6.357 10.249 6.043 9.879 6.03 9.527 Z M 4.474 6.028 C 3.835 5.461 3.384 4.616 3.27 3.769 C 2.671 3.756 2.007 3.938 1.46 4.297 C 0.912 4.656 0.479 5.191 0.252 5.746 C 0.014 6.295 -0.067 6.978 0.059 7.621 C 0.185 8.263 0.517 8.866 0.945 9.285 C 1.365 9.713 1.967 10.045 2.61 10.171 C 3.253 10.297 3.936 10.216 4.486 9.978 C 5.041 9.751 5.576 9.319 5.935 8.771 C 6.294 8.223 6.477 7.56 6.463 6.961 C 6.1 6.909 5.741 6.802 5.408 6.646 C 5.533 6.976 5.387 7.439 5.096 7.637 C 4.826 7.864 4.34 7.88 4.057 7.67 C 3.753 7.49 3.579 7.038 3.683 6.701 C 3.752 6.355 4.122 6.041 4.474 6.028 Z M 7.975 4.473 C 8.542 3.833 9.387 3.383 10.235 3.269 C 10.248 2.67 10.065 2.007 9.706 1.459 C 9.347 0.911 8.812 0.479 8.257 0.252 C 7.707 0.014 7.024 -0.067 6.381 0.059 C 5.739 0.185 5.136 0.517 4.717 0.945 C 4.289 1.364 3.956 1.967 3.83 2.609 C 3.704 3.252 3.785 3.935 4.023 4.485 C 4.251 5.039 4.683 5.574 5.231 5.933 C 5.779 6.292 6.442 6.474 7.041 6.461 C 7.093 6.098 7.201 5.739 7.356 5.406 C 7.026 5.531 6.563 5.385 6.365 5.094 C 6.138 4.824 6.123 4.339 6.332 4.055 C 6.512 3.752 6.965 3.577 7.302 3.681 C 7.648 3.751 7.962 4.121 7.975 4.473 Z M 9.53 7.972 C 10.17 8.539 10.621 9.384 10.735 10.231 C 11.334 10.244 11.998 10.062 12.545 9.703 C 13.093 9.344 13.526 8.809 13.753 8.254 C 13.991 7.705 14.072 7.022 13.946 6.379 C 13.82 5.737 13.487 5.134 13.059 4.715 C 12.64 4.287 12.038 3.955 11.395 3.829 C 10.752 3.703 10.069 3.784 9.519 4.022 C 8.964 4.249 8.429 4.681 8.07 5.229 C 7.711 5.777 7.528 6.44 7.541 7.039 C 7.905 7.091 8.264 7.198 8.597 7.354 C 8.472 7.024 8.618 6.561 8.909 6.363 C 9.179 6.136 9.665 6.12 9.948 6.33 C 10.251 6.51 10.426 6.962 10.322 7.299 C 10.253 7.645 9.883 7.959 9.53 7.972 Z" fill="transparent" height="14.000000164918568px" id="kiF7qXb3H" transform="translate(1 3)" width="85.00000087621856px"><path d="M 3.328 0.241 L 0.51 0.241 C 0.227 0.241 0 0.467 0 0.75 L 0 9.642 C 0 9.925 0.227 10.152 0.51 10.152 L 1.416 10.152 C 1.7 10.152 1.926 9.925 1.926 9.642 L 1.926 7.079 L 3.328 7.079 C 5.68 7.079 7.124 5.72 7.124 3.667 C 7.124 1.614 5.68 0.241 3.328 0.241 Z M 3.328 5.295 L 1.926 5.295 L 1.926 2.025 L 3.328 2.025 C 4.49 2.025 5.17 2.619 5.17 3.667 C 5.17 4.701 4.49 5.295 3.328 5.295 Z M 11.685 2.803 C 9.533 2.803 7.904 4.46 7.904 6.57 C 7.904 8.665 9.533 10.336 11.685 10.336 C 13.852 10.336 15.481 8.665 15.481 6.57 C 15.481 4.46 13.852 2.803 11.685 2.803 Z M 11.685 8.609 C 10.496 8.609 9.745 7.688 9.745 6.57 C 9.745 5.451 10.496 4.531 11.685 4.531 C 12.889 4.531 13.64 5.451 13.64 6.57 C 13.64 7.688 12.889 8.609 11.685 8.609 Z M 16.894 0.75 L 16.894 9.642 C 16.894 9.925 17.12 10.152 17.404 10.152 L 18.197 10.152 C 18.466 10.152 18.693 9.925 18.693 9.642 L 18.693 0.75 C 18.693 0.467 18.466 0.241 18.197 0.241 L 17.404 0.241 C 17.12 0.241 16.894 0.467 16.894 0.75 Z M 20.535 0.75 L 20.535 9.642 C 20.535 9.925 20.762 10.152 21.045 10.152 L 21.838 10.152 C 22.107 10.152 22.334 9.925 22.334 9.642 L 22.334 0.75 C 22.334 0.467 22.107 0.241 21.838 0.241 L 21.045 0.241 C 20.762 0.241 20.535 0.467 20.535 0.75 Z M 24.686 10.152 L 25.465 10.152 C 25.748 10.152 25.975 9.925 25.975 9.642 L 25.975 3.483 C 25.975 3.2 25.748 2.973 25.465 2.973 L 24.686 2.973 C 24.403 2.973 24.176 3.2 24.176 3.483 L 24.176 9.642 C 24.176 9.925 24.403 10.152 24.686 10.152 Z M 25.068 1.926 C 25.607 1.926 26.031 1.487 26.031 0.963 C 26.031 0.439 25.607 0 25.068 0 C 24.544 0 24.119 0.439 24.119 0.963 C 24.119 1.487 24.544 1.926 25.068 1.926 Z M 31.698 2.803 C 30.65 2.803 29.999 3.271 29.602 3.851 L 29.602 3.483 C 29.602 3.2 29.375 2.973 29.106 2.973 L 28.313 2.973 C 28.044 2.973 27.817 3.2 27.817 3.483 L 27.817 9.642 C 27.817 9.925 28.044 10.152 28.313 10.152 L 29.106 10.152 C 29.375 10.152 29.602 9.925 29.602 9.642 L 29.602 6.159 C 29.602 5.324 30.069 4.545 31.132 4.545 C 32.151 4.545 32.534 5.239 32.534 6.159 L 32.534 9.642 C 32.534 9.925 32.76 10.152 33.044 10.152 L 33.823 10.152 C 34.106 10.152 34.333 9.925 34.333 9.642 L 34.333 5.791 C 34.333 4.262 33.511 2.803 31.698 2.803 Z M 41.543 3.483 L 41.543 3.823 C 41.09 3.228 40.368 2.803 39.249 2.803 C 37.025 2.803 35.75 4.687 35.75 6.57 C 35.75 8.439 37.025 10.322 39.249 10.322 C 40.368 10.322 41.09 9.897 41.543 9.302 L 41.543 9.642 C 41.543 9.925 41.77 10.152 42.053 10.152 L 42.832 10.152 C 43.115 10.152 43.342 9.925 43.342 9.642 L 43.342 3.483 C 43.342 3.2 43.115 2.973 42.832 2.973 L 42.053 2.973 C 41.77 2.973 41.543 3.2 41.543 3.483 Z M 39.532 8.609 C 38.3 8.609 37.591 7.66 37.591 6.57 C 37.591 5.465 38.3 4.531 39.532 4.531 C 40.764 4.531 41.472 5.451 41.472 6.57 C 41.472 7.674 40.764 8.609 39.532 8.609 Z M 48.678 4.12 L 48.678 3.483 C 48.678 3.2 48.451 2.973 48.168 2.973 L 47.148 2.973 L 47.148 1.982 C 47.148 1.699 46.921 1.473 46.638 1.473 L 45.845 1.473 C 45.561 1.473 45.349 1.699 45.349 1.982 L 45.349 2.973 L 44.698 2.973 C 44.428 2.973 44.202 3.2 44.202 3.483 L 44.202 4.12 C 44.202 4.389 44.428 4.616 44.698 4.616 L 45.349 4.616 L 45.349 7.533 C 45.349 9.019 46.086 10.251 47.927 10.251 C 48.097 10.251 48.224 10.251 48.352 10.237 C 48.536 10.209 48.678 10.053 48.678 9.855 L 48.678 8.92 C 48.678 8.708 48.493 8.538 48.281 8.538 L 48.253 8.538 C 47.261 8.538 47.148 8.056 47.148 7.235 L 47.148 4.616 L 48.168 4.616 C 48.451 4.616 48.678 4.389 48.678 4.12 Z M 50.814 10.152 L 51.593 10.152 C 51.876 10.152 52.103 9.925 52.103 9.642 L 52.103 3.483 C 52.103 3.2 51.876 2.973 51.593 2.973 L 50.814 2.973 C 50.531 2.973 50.304 3.2 50.304 3.483 L 50.304 9.642 C 50.304 9.925 50.531 10.152 50.814 10.152 Z M 51.196 1.926 C 51.735 1.926 52.16 1.487 52.16 0.963 C 52.16 0.439 51.735 0 51.196 0 C 50.672 0 50.247 0.439 50.247 0.963 C 50.247 1.487 50.672 1.926 51.196 1.926 Z M 57.302 2.803 C 55.149 2.803 53.52 4.46 53.52 6.57 C 53.52 8.665 55.149 10.336 57.302 10.336 C 59.469 10.336 61.098 8.665 61.098 6.57 C 61.098 4.46 59.469 2.803 57.302 2.803 Z M 57.302 8.609 C 56.112 8.609 55.362 7.688 55.362 6.57 C 55.362 5.451 56.112 4.531 57.302 4.531 C 58.506 4.531 59.257 5.451 59.257 6.57 C 59.257 7.688 58.506 8.609 57.302 8.609 Z M 66.391 2.803 C 65.344 2.803 64.692 3.271 64.295 3.851 L 64.295 3.483 C 64.295 3.2 64.068 2.973 63.8 2.973 L 63.006 2.973 C 62.737 2.973 62.51 3.2 62.51 3.483 L 62.51 9.642 C 62.51 9.925 62.737 10.152 63.006 10.152 L 63.8 10.152 C 64.068 10.152 64.295 9.925 64.295 9.642 L 64.295 6.159 C 64.295 5.324 64.762 4.545 65.825 4.545 C 66.845 4.545 67.227 5.239 67.227 6.159 L 67.227 9.642 C 67.227 9.925 67.453 10.152 67.737 10.152 L 68.516 10.152 C 68.799 10.152 69.026 9.925 69.026 9.642 L 69.026 5.791 C 69.026 4.262 68.205 2.803 66.391 2.803 Z" fill="var(--1ckecfm, var(--token-fa32c9e5-8e93-4909-b6e0-a0c163ffe0ac, rgb(0, 0, 0)))" height="10.336047691199479px" id="zJl8I2xqc" transform="translate(15.974 1.68)" width="69.02614108923126px"/><path d="M 2.26 1.989 C 1.693 2.628 0.848 3.079 0.001 3.193 C -0.013 3.792 0.17 4.455 0.529 5.003 C 0.888 5.551 1.423 5.983 1.978 6.21 C 2.528 6.448 3.211 6.529 3.854 6.403 C 4.497 6.277 5.099 5.945 5.519 5.517 C 5.947 5.097 6.279 4.495 6.405 3.853 C 6.531 3.21 6.45 2.527 6.212 1.977 C 5.985 1.423 5.552 0.888 5.005 0.529 C 4.457 0.17 3.793 -0.013 3.194 0.001 C 3.142 0.364 3.035 0.723 2.879 1.056 C 3.209 0.931 3.672 1.077 3.871 1.368 C 4.098 1.638 4.113 2.123 3.903 2.407 C 3.724 2.71 3.271 2.885 2.934 2.78 C 2.588 2.711 2.273 2.341 2.26 1.989 Z" fill="var(--1ckecfm, var(--token-fa32c9e5-8e93-4909-b6e0-a0c163ffe0ac, rgb(0, 0, 0)))" height="6.461889908723498px" id="ra3mD3N3F" transform="translate(3.77 7.538)" width="6.464131984386399px"/><path d="M 4.474 2.259 C 3.835 1.692 3.384 0.848 3.27 0.001 C 2.671 -0.013 2.007 0.17 1.46 0.529 C 0.912 0.888 0.479 1.423 0.252 1.977 C 0.014 2.527 -0.067 3.21 0.059 3.853 C 0.185 4.495 0.517 5.097 0.945 5.517 C 1.365 5.945 1.967 6.277 2.61 6.403 C 3.253 6.529 3.936 6.448 4.486 6.21 C 5.041 5.983 5.576 5.55 5.935 5.003 C 6.294 4.455 6.477 3.792 6.463 3.193 C 6.1 3.141 5.741 3.034 5.408 2.878 C 5.533 3.208 5.387 3.671 5.096 3.869 C 4.826 4.096 4.34 4.111 4.057 3.902 C 3.753 3.722 3.579 3.269 3.683 2.933 C 3.752 2.587 4.122 2.272 4.474 2.259 Z" fill="var(--1ckecfm, var(--token-fa32c9e5-8e93-4909-b6e0-a0c163ffe0ac, rgb(0, 0, 0)))" height="6.461884253182644px" id="l0yvCZREW" transform="translate(0 3.768)" width="6.464162849311645px"/><path d="M 4.204 4.473 C 4.771 3.833 5.616 3.383 6.463 3.269 C 6.477 2.67 6.294 2.007 5.935 1.459 C 5.576 0.911 5.041 0.479 4.486 0.252 C 3.936 0.014 3.253 -0.067 2.61 0.059 C 1.967 0.185 1.365 0.517 0.945 0.945 C 0.517 1.364 0.185 1.967 0.059 2.609 C -0.067 3.252 0.014 3.935 0.252 4.485 C 0.479 5.039 0.912 5.574 1.46 5.933 C 2.007 6.292 2.671 6.474 3.27 6.461 C 3.322 6.098 3.429 5.739 3.585 5.406 C 3.255 5.531 2.792 5.385 2.594 5.094 C 2.367 4.824 2.351 4.339 2.561 4.055 C 2.741 3.752 3.194 3.577 3.531 3.681 C 3.876 3.751 4.191 4.121 4.204 4.473 Z" fill="var(--1ckecfm, var(--token-fa32c9e5-8e93-4909-b6e0-a0c163ffe0ac, rgb(0, 0, 0)))" height="6.46188901534818px" id="R2pH3LAwP" transform="translate(3.771 0)" width="6.464134147944655px"/><path d="M 1.99 4.203 C 2.629 4.77 3.08 5.614 3.194 6.461 C 3.793 6.474 4.457 6.292 5.005 5.933 C 5.553 5.574 5.985 5.039 6.212 4.485 C 6.45 3.935 6.531 3.252 6.405 2.609 C 6.279 1.967 5.947 1.364 5.519 0.945 C 5.099 0.517 4.497 0.185 3.854 0.059 C 3.211 -0.067 2.528 0.014 1.978 0.252 C 1.423 0.479 0.888 0.911 0.529 1.459 C 0.17 2.007 -0.013 2.67 0.001 3.269 C 0.364 3.321 0.724 3.428 1.056 3.584 C 0.931 3.254 1.077 2.791 1.369 2.593 C 1.638 2.366 2.124 2.35 2.407 2.56 C 2.711 2.74 2.886 3.193 2.781 3.529 C 2.712 3.875 2.342 4.189 1.99 4.203 Z" fill="var(--1ckecfm, var(--token-fa32c9e5-8e93-4909-b6e0-a0c163ffe0ac, rgb(0, 0, 0)))" height="6.461860308447075px" id="TeB_OTwES" transform="translate(7.541 3.77)" width="6.46418032620253px"/></g></svg>