<svg width="3001" height="1000" viewBox="0 0 3001 1000" fill="none" xmlns="http://www.w3.org/2000/svg">
<path d="M2499.49 804.811C2488.95 804.811 2479.67 797.864 2476.69 787.743L2414.23 575.698C2409.73 560.45 2421.15 545.164 2437.03 545.164H2464.77C2475.87 545.164 2485.49 552.85 2487.96 563.684L2512.44 671.4C2514.51 680.493 2527.36 680.721 2529.75 671.708L2558.58 562.864C2561.35 552.429 2570.78 545.164 2581.56 545.164H2606.74C2617.54 545.164 2626.99 552.457 2629.73 562.919L2658 670.658C2660.36 679.659 2673.18 679.487 2675.3 670.426L2700.3 563.538C2702.82 552.775 2712.41 545.164 2723.45 545.164H2751.32C2767.2 545.164 2778.61 560.45 2774.12 575.698L2711.65 787.743C2708.67 797.864 2699.39 804.811 2688.85 804.811H2656.73C2646.33 804.811 2637.14 798.048 2634.04 788.114L2601.96 685.421C2599.33 677.024 2587.44 677.09 2584.91 685.516L2554.18 787.862C2551.16 797.923 2541.91 804.811 2531.41 804.811H2499.49Z" fill="black"/>
<path d="M1765.87 804.811H1690.06C1676.97 804.811 1666.35 794.155 1666.35 781.01V568.965C1666.35 555.82 1676.97 545.164 1690.06 545.164H1764.86C1791.47 545.164 1814.45 550.362 1833.82 560.758C1853.26 571.07 1868.25 585.945 1878.78 605.385C1889.38 624.74 1894.69 647.941 1894.69 674.988C1894.69 702.034 1889.43 725.277 1878.9 744.717C1868.38 764.072 1853.47 778.948 1834.19 789.344C1814.91 799.655 1792.14 804.811 1765.87 804.811ZM1736.57 721.169C1736.57 734.314 1747.19 744.97 1760.28 744.97H1763.35C1776.14 744.97 1787.05 742.9 1796.05 738.758C1805.15 734.617 1812.05 727.475 1816.77 717.332C1821.57 707.19 1823.96 693.075 1823.96 674.988C1823.96 656.9 1821.52 642.785 1816.64 632.643C1811.84 622.5 1804.77 615.358 1795.42 611.217C1786.16 607.075 1774.8 605.005 1761.32 605.005H1760.28C1747.19 605.005 1736.57 615.661 1736.57 628.806V721.169Z" fill="black"/>
<path d="M1484.29 804.811C1471.17 804.811 1460.53 794.155 1460.53 781.01V568.965C1460.53 555.82 1471.17 545.164 1484.29 545.164H1507.14C1520.26 545.164 1530.9 555.82 1530.9 568.965V724.212C1530.9 737.357 1541.53 748.013 1554.66 748.013H1611.93C1625.05 748.013 1635.68 758.669 1635.68 771.814V781.01C1635.68 794.155 1625.05 804.811 1611.93 804.811H1484.29Z" fill="black"/>
<path d="M1227.89 601.962C1214.75 601.962 1204.11 591.306 1204.11 578.161V568.965C1204.11 555.82 1214.75 545.164 1227.89 545.164H1405.78C1418.91 545.164 1429.55 555.82 1429.55 568.965V578.161C1429.55 591.306 1418.91 601.962 1405.78 601.962H1366.39C1358.19 601.962 1351.53 608.622 1351.53 616.837V781.01C1351.53 794.155 1340.89 804.811 1327.76 804.811H1305.91C1292.77 804.811 1282.13 794.155 1282.13 781.01V616.837C1282.13 608.622 1275.47 601.962 1267.27 601.962H1227.89Z" fill="black"/>
<path fill-rule="evenodd" clip-rule="evenodd" d="M2246.49 787.889C2243.46 797.936 2234.22 804.811 2223.74 804.811H2198.31C2182.12 804.811 2170.67 788.949 2175.75 773.55L2245.62 561.505C2248.84 551.752 2257.93 545.164 2268.19 545.164H2330.02C2340.27 545.164 2349.37 551.752 2352.58 561.505L2422.46 773.55C2427.53 788.949 2416.09 804.811 2399.9 804.811H2374.47C2363.99 804.811 2354.75 797.936 2351.72 787.889L2345.03 765.689C2343.14 759.409 2337.36 755.113 2330.81 755.113H2267.4C2260.85 755.113 2255.07 759.409 2253.18 765.689L2246.49 787.889ZM2322.61 690.944L2308.49 642.508C2306.02 634.057 2294.13 633.906 2291.45 642.291L2275.98 690.727C2274.14 696.486 2278.43 702.372 2284.47 702.372H2314.06C2320 702.372 2324.28 696.657 2322.61 690.944Z" fill="black"/>
<path d="M1963.03 804.811C1949.91 804.811 1939.27 794.155 1939.27 781.01V568.965C1939.27 555.82 1949.91 545.164 1963.03 545.164H2051.17C2070.41 545.164 2087.24 548.672 2101.67 555.687C2116.1 562.702 2127.33 572.802 2135.34 585.987C2143.36 599.173 2147.37 614.978 2147.37 633.403C2147.37 651.998 2143.23 667.676 2134.96 680.439C2127.32 692.352 2116.78 701.54 2103.33 708.003C2086.36 716.162 2067.33 719.107 2048.64 719.107H2005.56C1929 719.107 2009.65 583.267 2009.65 634.401V642.396C2009.65 654.514 2019.46 664.338 2031.56 664.338C2039.67 664.338 2047.85 663.993 2055.6 661.295C2061.5 659.182 2066.02 655.844 2069.14 651.28C2072.35 646.715 2073.95 640.757 2073.95 633.403C2073.95 625.966 2072.35 619.922 2069.14 615.274C2066.02 610.541 2061.5 607.075 2055.6 604.878C2048.54 602.112 2040.93 601.455 2033.41 601.455C2020.29 601.455 2009.65 612.111 2009.65 625.256V672.966C2009.65 684.791 2020.79 688.969 2029.55 693.718C2041.86 700.389 2037.13 719.107 2023.14 719.107C2015.69 719.107 2009.65 725.155 2009.65 732.615V781.01C2009.65 794.155 1999.01 804.811 1985.88 804.811H1963.03ZM2097.92 698.053L2103.33 708.003L2136.84 769.625C2145.47 785.485 2134.01 804.811 2115.97 804.811H2093.7C2084.97 804.811 2076.94 800.013 2072.79 792.315L2037.74 727.275C2035.03 722.243 2029.78 719.107 2024.07 719.107C1981.84 719.107 2064.69 636.952 2097.92 698.053Z" fill="black"/>
<path d="M2647.72 385.681V239.319C2647.72 227.956 2656.94 218.75 2668.31 218.75H2676.57C2687.94 218.75 2697.16 227.956 2697.16 239.319V276.647C2697.16 285.042 2703.98 291.855 2712.39 291.855H2748.43C2756.85 291.855 2763.66 285.042 2763.66 276.647V239.319C2763.66 227.956 2772.89 218.75 2784.26 218.75H2792.42C2803.79 218.75 2813.02 227.956 2813.02 239.319V385.681C2813.02 397.044 2803.79 406.25 2792.42 406.25H2784.26C2772.89 406.25 2763.66 397.044 2763.66 385.681V348.265C2763.66 339.869 2756.85 333.057 2748.43 333.057H2712.39C2703.98 333.057 2697.16 339.869 2697.16 348.265V385.681C2697.16 397.044 2687.94 406.25 2676.57 406.25H2668.31C2656.94 406.25 2647.72 397.044 2647.72 385.681Z" fill="black"/>
<path d="M2426.39 239.319V385.681C2426.39 397.029 2417.23 406.25 2405.9 406.25H2397.7C2386.37 406.25 2377.21 397.029 2377.21 385.681V239.319C2377.21 227.971 2386.37 218.75 2397.7 218.75H2405.9C2417.23 218.75 2426.39 227.971 2426.39 239.319Z" fill="black"/>
<path d="M2132.66 391.43L2089.96 245.069C2086.12 231.898 2096.02 218.75 2109.75 218.75H2120.35C2129.95 218.75 2138.28 225.361 2140.44 234.702L2162.96 332.282C2162.99 332.384 2163.13 332.386 2163.16 332.285L2189.05 234.085C2191.43 225.045 2199.62 218.75 2208.98 218.75H2221.09C2230.45 218.75 2238.65 225.05 2241.03 234.096L2266.93 332.547C2266.96 332.648 2267.1 332.645 2267.12 332.544L2289.73 234.698C2291.89 225.359 2300.22 218.75 2309.82 218.75H2320.34C2334.07 218.75 2343.97 231.891 2340.14 245.06L2297.51 391.421C2294.95 400.21 2286.88 406.25 2277.71 406.25H2262.03C2252.91 406.25 2244.87 400.27 2242.27 391.541L2215.14 300.43C2215.11 300.335 2214.97 300.335 2214.94 300.43L2187.81 391.541C2185.21 400.27 2177.17 406.25 2168.05 406.25H2152.45C2143.29 406.25 2135.22 400.215 2132.66 391.43Z" fill="black"/>
<path d="M935.805 49.8047H1004.8V968.994H935.805V49.8047Z" fill="black"/>
<path d="M594.805 300.453C594.805 350.159 554.51 390.453 504.805 390.453C455.099 390.453 414.805 350.159 414.805 300.453C414.805 250.747 455.099 210.453 504.805 210.453C554.51 210.453 594.805 250.747 594.805 300.453Z" fill="black"/>
<path d="M573.579 719.014C558.333 751.836 517.573 810.604 475.241 810.453C443.238 810.338 436.599 779.549 457.827 759.597C475.209 743.26 486.074 711.522 489.823 686.878C490.238 684.15 488.267 681.681 485.55 681.199C445.884 674.159 414.805 640.322 414.805 597.782C414.805 549.551 453.787 510.453 501.875 510.453C541.81 510.453 572.046 532.69 585.243 562.85C604.083 605.905 592.361 678.583 573.579 719.014Z" fill="black"/>
<path d="M2477.66 218.75H2596.25C2607.63 218.75 2616.87 227.945 2616.87 239.307C2616.87 250.668 2607.63 259.863 2596.25 259.863H2576.72C2568.28 259.863 2561.45 266.68 2561.45 275.071V385.681C2561.45 397.049 2552.21 406.25 2540.83 406.25H2533.18C2521.79 406.25 2512.55 397.049 2512.55 385.681V275.071C2512.55 266.68 2505.72 259.863 2497.28 259.863H2477.66C2466.29 259.863 2457.05 250.668 2457.05 239.307C2457.05 227.945 2466.29 218.75 2477.66 218.75Z" fill="black"/>
<path d="M1208.58 218.75H1233.22C1241.57 218.75 1249.09 223.792 1252.26 231.514L1292.47 329.515C1292.5 329.598 1292.62 329.598 1292.65 329.515L1332.86 231.514C1336.03 223.792 1343.55 218.75 1351.9 218.75H1376.54C1387.9 218.75 1397.12 227.958 1397.12 239.319V385.681C1397.12 397.042 1387.9 406.25 1376.54 406.25H1369.45C1358.08 406.25 1348.87 397.042 1348.87 385.681V302.459C1348.87 302.349 1348.72 302.32 1348.67 302.422L1313.23 392.085C1310.12 399.936 1302.53 405.094 1294.09 405.094H1291.05C1282.59 405.094 1274.99 399.919 1271.9 392.048L1236.44 301.855C1236.4 301.752 1236.25 301.781 1236.25 301.892V385.681C1236.25 397.042 1227.03 406.25 1215.67 406.25H1208.58C1197.21 406.25 1188 397.042 1188 385.681V239.319C1188 227.958 1197.21 218.75 1208.58 218.75Z" fill="black"/>
<path fill-rule="evenodd" clip-rule="evenodd" d="M1484.37 391.836L1491.86 368.078C1491.88 368.036 1491.92 368.008 1491.96 368.008H1551.24C1551.28 368.008 1551.32 368.036 1551.33 368.078L1558.85 391.848C1561.57 400.429 1569.57 406.25 1578.6 406.25H1587.93C1602.06 406.25 1612.08 392.459 1607.54 379.099L1557.8 232.738C1554.96 224.368 1547.06 218.75 1538.19 218.75H1505.03C1496.16 218.75 1488.27 224.368 1485.42 232.738L1435.68 379.099C1431.14 392.459 1441.16 406.25 1455.29 406.25H1464.62C1473.65 406.25 1481.66 400.423 1484.37 391.836ZM1521.45 274.228L1538.78 329.051C1538.8 329.116 1538.76 329.182 1538.69 329.182H1504.05C1503.98 329.182 1503.93 329.116 1503.96 329.051L1521.26 274.228C1521.29 274.134 1521.42 274.134 1521.45 274.228Z" fill="black"/>
<path fill-rule="evenodd" clip-rule="evenodd" d="M2875.5 62.5H125.5C90.9822 62.5 63 90.4822 63 125V875C63 909.518 90.9822 937.5 125.5 937.5H2875.5C2910.02 937.5 2938 909.518 2938 875V125C2938 90.4822 2910.02 62.5 2875.5 62.5ZM125.5 0C56.4644 0 0.5 55.9644 0.5 125V875C0.5 944.036 56.4645 1000 125.5 1000H2875.5C2944.54 1000 3000.5 944.036 3000.5 875V125C3000.5 55.9644 2944.54 0 2875.5 0H125.5Z" fill="black"/>
<path fill-rule="evenodd" clip-rule="evenodd" d="M1716.23 406.25C1735.14 406.25 1751.62 402.564 1765.59 395.082C1779.55 387.538 1790.32 376.688 1797.82 362.593C1805.39 348.488 1809.11 331.727 1809.11 312.411C1809.11 293.155 1805.39 276.454 1797.82 262.407C1790.26 248.313 1779.47 237.495 1765.5 230.01C1751.59 222.465 1735.11 218.75 1716.14 218.75H1666.63C1655.25 218.75 1646.01 227.951 1646.01 239.319V385.681C1646.01 397.049 1655.25 406.25 1666.63 406.25H1716.23ZM1739.36 358.549C1732.74 361.764 1724.51 363.435 1714.57 363.435H1710.83C1702.39 363.435 1695.57 356.618 1695.57 348.227V276.927C1695.57 268.536 1702.39 261.719 1710.83 261.719H1713.94C1724.13 261.719 1732.5 263.422 1739.17 266.693C1745.77 269.842 1750.81 275.008 1754.26 282.326C1757.71 289.595 1759.53 299.594 1759.53 312.488C1759.53 325.379 1757.71 335.439 1754.25 342.835C1750.86 350.154 1745.89 355.344 1739.36 358.549Z" fill="black"/>
<path d="M1838.63 385.681V239.319C1838.63 227.958 1847.85 218.75 1859.21 218.75H1950.5C1961.86 218.75 1971.07 227.952 1971.07 239.307C1971.07 250.661 1961.86 259.863 1950.5 259.863H1903.26C1894.85 259.863 1888.04 266.673 1888.04 275.071V276.647C1888.04 285.044 1894.85 291.854 1903.26 291.854H1943.99C1955.36 291.854 1964.57 301.1 1964.57 312.456C1964.57 323.811 1955.36 333.057 1943.99 333.057H1903.26C1894.85 333.057 1888.04 339.867 1888.04 348.265V349.929C1888.04 358.327 1894.85 365.137 1903.26 365.137H1950.5C1961.86 365.137 1971.07 374.339 1971.07 385.693C1971.07 397.048 1961.86 406.25 1950.5 406.25H1859.21C1847.85 406.25 1838.63 397.042 1838.63 385.681Z" fill="black"/>
</svg>
