<svg width="96" height="33" viewBox="0 0 96 33" fill="none" xmlns="http://www.w3.org/2000/svg">
<path fill-rule="evenodd" clip-rule="evenodd" d="M90.784 2.91898H4.35948C3.24389 2.91898 2.132 3.91 2.132 5.39477V28.199C2.132 29.6838 3.24389 30.6748 4.35948 30.6748H90.784C91.8996 30.6748 93.024 29.6838 93.024 28.199V5.39477C93.024 3.91 91.8996 2.91898 90.784 2.91898ZM4.35948 0.796875C1.95181 0.796875 0 2.85542 0 5.39477V28.199C0 30.7383 1.95181 32.7969 4.35948 32.7969H90.784C93.1917 32.7969 95.136 30.7383 95.136 28.199V5.39477C95.136 2.85542 93.1917 0.796875 90.784 0.796875H4.35948Z" fill="black"/>
<path d="M78.4992 26.5509C78.1619 26.5509 77.8649 26.3286 77.7695 26.0047L75.7706 19.2193C75.6269 18.7313 75.9922 18.2422 76.5003 18.2422H77.3882C77.7433 18.2422 78.0512 18.4882 78.13 18.8348L78.9135 22.2818C78.9796 22.5727 79.391 22.58 79.4674 22.2916L80.3901 18.8086C80.4785 18.4747 80.7804 18.2422 81.1254 18.2422H81.9309C82.2767 18.2422 82.5789 18.4756 82.6667 18.8103L83.5713 22.258C83.6468 22.546 84.0571 22.5405 84.125 22.2506L84.925 18.8302C85.0056 18.4857 85.3124 18.2422 85.6658 18.2422H86.5575C87.0656 18.2422 87.4309 18.7313 87.2872 19.2193L85.2883 26.0047C85.1929 26.3286 84.8959 26.5509 84.5586 26.5509H83.5307C83.198 26.5509 82.9039 26.3345 82.8046 26.0166L81.778 22.7304C81.6941 22.4617 81.3135 22.4638 81.2325 22.7334L80.2491 26.0085C80.1524 26.3305 79.8564 26.5509 79.5206 26.5509H78.4992Z" fill="black"/>
<path d="M55.0233 26.5509H52.5974C52.1784 26.5509 51.8387 26.2099 51.8387 25.7893V19.0038C51.8387 18.5832 52.1784 18.2422 52.5974 18.2422H54.9909C55.8423 18.2422 56.5778 18.4085 57.1975 18.7412C57.8198 19.0712 58.2994 19.5472 58.6362 20.1693C58.9757 20.7886 59.1454 21.531 59.1454 22.3965C59.1454 23.262 58.977 24.0058 58.6402 24.6279C58.3034 25.2472 57.8266 25.7233 57.2096 26.0559C56.5926 26.3859 55.8638 26.5509 55.0233 26.5509ZM54.0857 23.8744C54.0857 24.295 54.4253 24.636 54.8444 24.636H54.9424C55.3519 24.636 55.7008 24.5697 55.9891 24.4372C56.2801 24.3047 56.501 24.0761 56.6519 23.7516C56.8055 23.427 56.8823 22.9753 56.8823 22.3965C56.8823 21.8177 56.8041 21.3661 56.6479 21.0415C56.4943 20.7169 56.268 20.4884 55.9689 20.3559C55.6726 20.2233 55.3088 20.1571 54.8778 20.1571H54.8444C54.4253 20.1571 54.0857 20.4981 54.0857 20.9187V23.8744Z" fill="black"/>
<path d="M46.0127 26.5509C45.5928 26.5509 45.2524 26.2099 45.2524 25.7893V19.0038C45.2524 18.5832 45.5928 18.2422 46.0127 18.2422H46.7438C47.1637 18.2422 47.5041 18.5832 47.5041 19.0038V23.9717C47.5041 24.3924 47.8445 24.7334 48.2643 24.7334H50.097C50.5169 24.7334 50.8573 25.0744 50.8573 25.495V25.7893C50.8573 26.2099 50.5169 26.5509 50.097 26.5509H46.0127Z" fill="black"/>
<path d="M37.8077 20.0597C37.3875 20.0597 37.0469 19.7187 37.0469 19.2981V19.0038C37.0469 18.5832 37.3875 18.2422 37.8077 18.2422H43.5002C43.9204 18.2422 44.2611 18.5832 44.2611 19.0038V19.2981C44.2611 19.7187 43.9204 20.0597 43.5002 20.0597H42.24C41.9774 20.0597 41.7645 20.2728 41.7645 20.5357V25.7893C41.7645 26.2099 41.4238 26.5509 41.0036 26.5509H40.3043C39.8841 26.5509 39.5435 26.2099 39.5435 25.7893V20.5357C39.5435 20.2728 39.3306 20.0597 39.0679 20.0597H37.8077Z" fill="black"/>
<path fill-rule="evenodd" clip-rule="evenodd" d="M70.403 26.0094C70.3061 26.3309 70.0104 26.5509 69.6751 26.5509H68.8613C68.3433 26.5509 67.9769 26.0433 68.1393 25.5505L70.3753 18.7651C70.4781 18.453 70.7692 18.2422 71.0973 18.2422H73.076C73.4041 18.2422 73.6952 18.453 73.7981 18.7651L76.0341 25.5505C76.1965 26.0433 75.8301 26.5509 75.312 26.5509H74.4983C74.163 26.5509 73.8673 26.3309 73.7704 26.0094L73.5563 25.299C73.4957 25.098 73.3109 24.9605 73.1013 24.9605H71.072C70.8625 24.9605 70.6776 25.098 70.6171 25.299L70.403 26.0094ZM72.839 22.9071L72.387 21.3572C72.3081 21.0868 71.9274 21.0819 71.8417 21.3503L71.3467 22.9002C71.2879 23.0845 71.4252 23.2728 71.6183 23.2728H72.5653C72.7554 23.2728 72.8923 23.09 72.839 22.9071Z" fill="black"/>
<path d="M61.3324 26.5509C60.9124 26.5509 60.572 26.2099 60.572 25.7893V19.0038C60.572 18.5832 60.9124 18.2422 61.3324 18.2422H64.1527C64.7684 18.2422 65.3072 18.3544 65.7689 18.5789C66.2307 18.8034 66.5899 19.1266 66.8464 19.5485C67.1029 19.9705 67.2312 20.4762 67.2312 21.0658C67.2312 21.6609 67.0989 22.1626 66.8342 22.571C66.5898 22.9522 66.2523 23.2462 65.822 23.453C65.2787 23.7141 64.6701 23.8084 64.0717 23.8084H62.6934C60.2434 23.8084 62.8241 19.4615 62.8241 21.0978V21.3536C62.8241 21.7414 63.138 22.0558 63.5251 22.0558C63.7849 22.0558 64.0467 22.0447 64.2945 21.9584C64.4835 21.8908 64.628 21.7839 64.7279 21.6379C64.8305 21.4918 64.8818 21.3012 64.8818 21.0658C64.8818 20.8278 64.8305 20.6345 64.7279 20.4857C64.628 20.3342 64.4835 20.2233 64.2945 20.153C64.0687 20.0645 63.825 20.0435 63.5846 20.0435C63.1646 20.0435 62.8241 20.3845 62.8241 20.8051V22.3319C62.8241 22.7103 63.1806 22.8439 63.4611 22.9959C63.855 23.2094 63.7036 23.8084 63.2557 23.8084C63.0173 23.8084 62.8241 24.0019 62.8241 24.2406V25.7893C62.8241 26.2099 62.4837 26.5509 62.0637 26.5509H61.3324ZM65.6488 23.1346L65.822 23.453L66.8943 25.4249C67.1703 25.9325 66.8036 26.5509 66.2265 26.5509H65.5138C65.2343 26.5509 64.9773 26.3973 64.8446 26.151L63.723 24.0697C63.6362 23.9087 63.4683 23.8084 63.2856 23.8084C61.9342 23.8084 64.5855 21.1794 65.6488 23.1346Z" fill="black"/>
<path d="M18.885 10.4034C18.885 11.994 17.5956 13.2834 16.005 13.2834C14.4144 13.2834 13.125 11.994 13.125 10.4034C13.125 8.81286 14.4144 7.52344 16.005 7.52344C17.5956 7.52344 18.885 8.81286 18.885 10.4034Z" fill="black"/>
<path d="M18.2058 23.7974C17.7179 24.8477 16.4136 26.7283 15.059 26.7234C14.0349 26.7198 13.8224 25.7345 14.5017 25.096C15.0579 24.5733 15.4056 23.5576 15.5256 22.769C15.5389 22.6817 15.4758 22.6027 15.3889 22.5873C14.1195 22.362 13.125 21.2792 13.125 19.918C13.125 18.3746 14.3724 17.1234 15.9112 17.1234C17.1892 17.1234 18.1567 17.835 18.579 18.8001C19.1819 20.1779 18.8068 22.5036 18.2058 23.7974Z" fill="black"/>
<path d="M57.6269 13.9466C57.3163 13.9466 57.0646 13.695 57.0646 13.3847V8.7868C57.0646 8.47643 57.3163 8.22484 57.6269 8.22484H60.4946C60.8049 8.22484 61.0565 8.47626 61.0565 8.7864C61.0565 9.09654 60.8049 9.34796 60.4946 9.34796H59.0106C58.7001 9.34796 58.4484 9.59956 58.4484 9.90992V9.95941C58.4484 10.2698 58.7001 10.5214 59.0106 10.5214H60.2902C60.6007 10.5214 60.8524 10.774 60.8524 11.0843C60.8524 11.3947 60.6007 11.6473 60.2902 11.6473H59.0106C58.7001 11.6473 58.4484 11.8989 58.4484 12.2093V12.2615C58.4484 12.5719 58.7001 12.8235 59.0106 12.8235H60.4946C60.8049 12.8235 61.0565 13.0749 61.0565 13.3851C61.0565 13.6952 60.8049 13.9466 60.4946 13.9466H57.6269Z" fill="black"/>
<path d="M53.1297 13.9466H51.5717C51.2603 13.9466 51.0079 13.695 51.0079 13.3847V8.7868C51.0079 8.47643 51.2603 8.22484 51.5717 8.22484H53.1269C53.7117 8.22484 54.2153 8.33938 54.6376 8.56848C55.0618 8.79571 55.3888 9.12352 55.6186 9.55191C55.8485 9.97844 55.9634 10.4888 55.9634 11.0829C55.9634 11.679 55.8485 12.1912 55.6186 12.6195C55.3907 13.0479 55.0646 13.3767 54.6404 13.6058C54.2163 13.833 53.7127 13.9466 53.1297 13.9466ZM52.3953 12.2057C52.3953 12.516 52.6477 12.7676 52.9591 12.7676H53.0764C53.3978 12.7676 53.6697 12.7136 53.8921 12.6056C54.1163 12.4957 54.2854 12.3178 54.3994 12.072C54.5152 11.8242 54.5732 11.4946 54.5732 11.0829C54.5732 10.6713 54.5152 10.3435 54.3994 10.0995C54.2835 9.85364 54.1126 9.6767 53.8865 9.56867C53.6622 9.45878 53.3857 9.40384 53.0568 9.40384H52.9591C52.6477 9.40384 52.3953 9.65543 52.3953 9.9658V12.2057Z" fill="black"/>
<path d="M45.7657 13.5527C45.6917 13.7871 45.473 13.9466 45.2256 13.9466H44.9327C44.5454 13.9466 44.2726 13.5693 44.3963 13.205L45.9589 8.60714C46.0365 8.37867 46.2523 8.22484 46.4952 8.22484H47.5368C47.7797 8.22484 47.9955 8.37867 48.0731 8.60714L49.6357 13.205C49.7594 13.5693 49.4866 13.9466 49.0993 13.9466H48.8062C48.5589 13.9466 48.3402 13.7872 48.2662 13.553L47.0438 9.68778C47.0398 9.67509 47.028 9.66646 47.0146 9.66646C47.0012 9.66646 46.9894 9.6751 46.9853 9.68779L45.7657 13.5527ZM45.4416 12.22C45.4416 11.9299 45.6784 11.6948 45.9706 11.6948H48.0417C48.3339 11.6948 48.5707 11.9299 48.5707 12.22C48.5707 12.5101 48.3339 12.7453 48.0417 12.7453H45.9706C45.6784 12.7453 45.4416 12.5101 45.4416 12.22Z" fill="black"/>
<path d="M36.6233 8.7868C36.6233 8.47643 36.875 8.22484 37.1855 8.22484H37.9596C38.1877 8.22484 38.3932 8.36261 38.4798 8.57357L39.7774 11.7364C39.7851 11.7552 39.8034 11.7674 39.8237 11.7674C39.844 11.7674 39.8623 11.7552 39.87 11.7364L41.1676 8.57357C41.2542 8.36261 41.4597 8.22484 41.6878 8.22484H42.4619C42.7724 8.22484 43.0241 8.47643 43.0241 8.7868V13.3847C43.0241 13.695 42.7724 13.9466 42.4619 13.9466H42.2391C41.9286 13.9466 41.6768 13.695 41.6768 13.3847V10.4602C41.6768 10.4446 41.6642 10.432 41.6486 10.432C41.637 10.432 41.6265 10.4391 41.6223 10.4498L40.3946 13.5549C40.3098 13.7694 40.1025 13.9103 39.8718 13.9103H39.7764C39.5452 13.9103 39.3376 13.7689 39.2531 13.5539L38.0251 10.4303C38.0208 10.4195 38.0104 10.4124 37.9988 10.4124C37.9832 10.4124 37.9705 10.4251 37.9705 10.4407V13.3847C37.9705 13.695 37.7188 13.9466 37.4083 13.9466H37.1855C36.875 13.9466 36.6233 13.695 36.6233 13.3847V8.7868Z" fill="black"/>
<path d="M82.712 13.9466C82.4012 13.9466 82.1493 13.695 82.1493 13.3847V8.7868C82.1493 8.47643 82.4012 8.22484 82.712 8.22484H82.9714C83.2822 8.22484 83.5341 8.47643 83.5341 8.7868V9.95941C83.5341 10.2698 83.786 10.5214 84.0968 10.5214H85.229C85.5397 10.5214 85.7917 10.2698 85.7917 9.95941V8.7868C85.7917 8.47643 86.0436 8.22484 86.3544 8.22484H86.6109C86.9217 8.22484 87.1736 8.47643 87.1736 8.7868V13.3847C87.1736 13.695 86.9217 13.9466 86.6109 13.9466H86.3544C86.0436 13.9466 85.7917 13.695 85.7917 13.3847V12.2092C85.7917 11.8989 85.5397 11.6473 85.229 11.6473H84.0968C83.786 11.6473 83.5341 11.8989 83.5341 12.2093V13.3847C83.5341 13.695 83.2822 13.9466 82.9714 13.9466H82.712Z" fill="black"/>
<path d="M76.7249 9.34796C76.4137 9.34796 76.1615 9.09654 76.1615 8.7864C76.1615 8.47626 76.4137 8.22484 76.7249 8.22484H80.4503C80.7614 8.22484 81.0137 8.47626 81.0137 8.7864C81.0137 9.09654 80.7614 9.34796 80.4503 9.34796H79.8368C79.5254 9.34796 79.2729 9.59956 79.2729 9.90992V13.3847C79.2729 13.695 79.0205 13.9466 78.7091 13.9466H78.4688C78.1574 13.9466 77.905 13.695 77.905 13.3847V9.90992C77.905 9.59956 77.6526 9.34796 77.3412 9.34796H76.7249Z" fill="black"/>
<path d="M74.4665 8.22484C74.7754 8.22484 75.0258 8.47643 75.0258 8.7868V13.3847C75.0258 13.695 74.7754 13.9466 74.4665 13.9466H74.2087C73.8997 13.9466 73.6493 13.695 73.6493 13.3847V8.7868C73.6493 8.47643 73.8997 8.22484 74.2087 8.22484H74.4665Z" fill="black"/>
<path d="M66.5037 13.9466C66.2532 13.9466 66.0328 13.7816 65.9628 13.5417L64.6215 8.94382C64.5166 8.58424 64.787 8.22484 65.1624 8.22484H65.4954C65.7578 8.22484 65.9854 8.40559 66.0443 8.6607L66.8037 11.9507C66.8069 11.9644 66.8192 11.9742 66.8333 11.9742C66.8471 11.9742 66.8592 11.9649 66.8627 11.9516L67.7349 8.64384C67.8 8.39694 68.0238 8.22484 68.2797 8.22484H68.66C68.916 8.22484 69.1399 8.39709 69.2049 8.64414L70.0772 11.9599C70.0807 11.9733 70.0928 11.9826 70.1066 11.9826C70.1208 11.9826 70.1331 11.9728 70.1362 11.9591L70.8983 8.66058C70.9573 8.40553 71.1849 8.22484 71.4473 8.22484H71.7779C72.1532 8.22484 72.4236 8.58405 72.3189 8.94358L70.9798 13.5414C70.9099 13.7815 70.6894 13.9466 70.4388 13.9466H69.9462C69.6968 13.9466 69.4771 13.7831 69.4061 13.5447L68.4988 10.4981C68.495 10.4854 68.4833 10.4767 68.47 10.4767C68.4567 10.4767 68.445 10.4854 68.4412 10.4981L67.5338 13.5447C67.4628 13.7831 67.2431 13.9466 66.9938 13.9466H66.5037Z" fill="black"/>
<path fill-rule="evenodd" clip-rule="evenodd" d="M54.6802 13.68C54.2415 13.915 53.7236 14.0308 53.1297 14.0308H51.5717C51.2141 14.0308 50.9237 13.7418 50.9237 13.3847V8.7868C50.9237 8.42967 51.2141 8.14062 51.5717 8.14062H53.1269C53.7227 8.14062 54.2406 8.25733 54.6776 8.49435C55.1164 8.7295 55.4553 9.06932 55.6928 9.5121C55.6929 9.51214 55.6928 9.51205 55.6928 9.5121C55.9306 9.95335 56.0476 10.478 56.0476 11.0829C56.0476 11.6897 55.9306 12.2163 55.6928 12.6594C55.6928 12.6594 55.6929 12.6593 55.6928 12.6594C55.4571 13.1022 55.119 13.443 54.6802 13.68ZM54.6404 13.6058C54.2163 13.833 53.7127 13.9466 53.1297 13.9466H51.5717C51.2603 13.9466 51.0079 13.695 51.0079 13.3847V8.7868C51.0079 8.47643 51.2603 8.22484 51.5717 8.22484H53.1269C53.7117 8.22484 54.2153 8.33938 54.6376 8.56848M54.3994 12.072C54.2854 12.3178 54.1163 12.4957 53.8921 12.6056C53.6697 12.7136 53.3978 12.7676 53.0764 12.7676H52.9591C52.6477 12.7676 52.3953 12.516 52.3953 12.2057V9.9658C52.3953 9.65543 52.6477 9.40384 52.9591 9.40384H53.0568C53.3857 9.40384 53.6622 9.45878 53.8865 9.56867C54.1126 9.6767 54.2835 9.85364 54.3994 10.0995C54.5152 10.3435 54.5732 10.6713 54.5732 11.0829C54.5732 11.4946 54.5152 11.8242 54.3994 12.072ZM53.8551 12.5299C53.6472 12.6309 53.3887 12.6834 53.0764 12.6834H52.9591C52.694 12.6834 52.4795 12.4693 52.4795 12.2057V9.9658C52.4795 9.7022 52.694 9.48805 52.9591 9.48805H53.0568C53.3767 9.48805 53.6398 9.54155 53.8494 9.64429C54.0565 9.74323 54.2149 9.90551 54.3232 10.1354C54.4316 10.3638 54.4889 10.6779 54.4889 11.0829C54.4889 11.4879 54.4318 11.8039 54.3231 12.0363C54.2165 12.2662 54.0604 12.4292 53.8551 12.5299ZM56.9804 13.3847V8.7868C56.9804 8.42988 57.2699 8.14062 57.6269 8.14062H60.4946C60.8514 8.14062 61.1407 8.4297 61.1407 8.7864C61.1407 9.14309 60.8514 9.43217 60.4946 9.43217H59.0106C58.7466 9.43217 58.5326 9.64611 58.5326 9.90992V9.95941C58.5326 10.2232 58.7466 10.4372 59.0106 10.4372H60.2902C60.6474 10.4372 60.9367 10.7276 60.9367 11.0843C60.9367 11.4411 60.6474 11.7315 60.2902 11.7315H59.0106C58.7466 11.7315 58.5326 11.9454 58.5326 12.2093V12.2615C58.5326 12.5253 58.7466 12.7393 59.0106 12.7393H60.4946C60.8514 12.7393 61.1407 13.0284 61.1407 13.3851C61.1407 13.7418 60.8514 14.0308 60.4946 14.0308H57.6269C57.2699 14.0308 56.9804 13.7416 56.9804 13.3847ZM45.7657 13.5527C45.6917 13.7871 45.473 13.9466 45.2256 13.9466H44.9327C44.5454 13.9466 44.2726 13.5693 44.3963 13.205L45.9589 8.60714C46.0365 8.37867 46.2523 8.22484 46.4952 8.22484H47.5368C47.7797 8.22484 47.9955 8.37867 48.0731 8.60714L49.6357 13.205C49.7594 13.5693 49.4866 13.9466 49.0993 13.9466H48.8062C48.5589 13.9466 48.3402 13.7872 48.2662 13.553L48.0107 12.7453H46.0205L45.7657 13.5527ZM46.0822 12.8295L45.846 13.578C45.7609 13.8478 45.5094 14.0308 45.2256 14.0308H44.9327C44.4886 14.0308 44.174 13.5976 44.3166 13.1779L45.8791 8.58004C45.9685 8.31712 46.2166 8.14062 46.4952 8.14062H47.5368C47.8154 8.14062 48.0635 8.31712 48.1529 8.58004L49.7154 13.1779C49.858 13.5976 49.5434 14.0308 49.0993 14.0308H48.8062C48.5225 14.0308 48.2711 13.848 48.1859 13.5784L47.949 12.8295H46.0822ZM47.0438 9.68778C47.0398 9.67509 47.028 9.66646 47.0146 9.66646C47.0012 9.66646 46.9894 9.6751 46.9853 9.68779L46.352 11.6948H47.6785L47.0438 9.68778ZM47.5636 11.6106L47.0147 9.87475L46.4669 11.6106H47.5636ZM37.1855 8.14062H37.9596C38.2218 8.14062 38.4581 8.29902 38.5577 8.54161L39.8237 11.6273L41.0897 8.54161C41.1892 8.29902 41.4255 8.14062 41.6878 8.14062H42.4619C42.8189 8.14062 43.1083 8.42989 43.1083 8.7868V13.3847C43.1083 13.7416 42.8188 14.0308 42.4619 14.0308H42.2391C41.8821 14.0308 41.5926 13.7416 41.5926 13.3847V10.7538L40.473 13.5858C40.3754 13.8325 40.1371 13.9945 39.8718 13.9945H39.7764C39.5106 13.9945 39.2719 13.8319 39.1747 13.5847L38.0547 10.7359V13.3847C38.0547 13.7416 37.7653 14.0308 37.4083 14.0308H37.1855C36.8285 14.0308 36.5391 13.7416 36.5391 13.3847V8.7868C36.5391 8.42989 36.8285 8.14062 37.1855 8.14062ZM37.9705 13.3847C37.9705 13.695 37.7188 13.9466 37.4083 13.9466H37.1855C36.875 13.9466 36.6233 13.695 36.6233 13.3847V8.7868C36.6233 8.47643 36.875 8.22484 37.1855 8.22484H37.9596C38.1877 8.22484 38.3932 8.36261 38.4798 8.57357L39.7774 11.7364C39.7851 11.7552 39.8034 11.7674 39.8237 11.7674C39.844 11.7674 39.8623 11.7552 39.87 11.7364L41.1676 8.57357C41.2542 8.36261 41.4597 8.22484 41.6878 8.22484H42.4619C42.7724 8.22484 43.0241 8.47643 43.0241 8.7868V13.3847C43.0241 13.695 42.7724 13.9466 42.4619 13.9466H42.2391C41.9286 13.9466 41.6768 13.695 41.6768 13.3847V10.4602C41.6768 10.4446 41.6642 10.432 41.6486 10.432C41.637 10.432 41.6265 10.4391 41.6223 10.4498L40.3946 13.5549C40.3098 13.7694 40.1025 13.9103 39.8718 13.9103H39.7764C39.5452 13.9103 39.3376 13.7689 39.2531 13.5539L38.0251 10.4303C38.0208 10.4195 38.0104 10.4124 37.9988 10.4124C37.9832 10.4124 37.9705 10.4251 37.9705 10.4407V13.3847ZM82.0651 13.3847V8.7868C82.0651 8.42982 82.3548 8.14062 82.712 8.14062H82.9714C83.3286 8.14062 83.6183 8.42982 83.6183 8.7868V9.95941C83.6183 10.2232 83.8324 10.4372 84.0968 10.4372H85.229C85.4933 10.4372 85.7075 10.2232 85.7075 9.95941V8.7868C85.7075 8.42982 85.9972 8.14062 86.3544 8.14062H86.6109C86.9681 8.14062 87.2578 8.42982 87.2578 8.7868V13.3847C87.2578 13.7416 86.9681 14.0308 86.6109 14.0308H86.3544C85.9972 14.0308 85.7075 13.7416 85.7075 13.3847V12.2092C85.7075 11.9455 85.4933 11.7315 85.229 11.7315H84.0968C83.8324 11.7315 83.6183 11.9455 83.6183 12.2093V13.3847C83.6183 13.7416 83.3286 14.0308 82.9714 14.0308H82.712C82.3548 14.0308 82.0651 13.7416 82.0651 13.3847ZM76.7249 8.14062H80.4503C80.8077 8.14062 81.0979 8.42948 81.0979 8.7864C81.0979 9.14331 80.8077 9.43217 80.4503 9.43217H79.8368C79.5716 9.43217 79.3572 9.64633 79.3572 9.90992V13.3847C79.3572 13.7418 79.0668 14.0308 78.7091 14.0308H78.4688C78.1112 14.0308 77.8208 13.7418 77.8208 13.3847V9.90992C77.8208 9.64633 77.6063 9.43217 77.3412 9.43217H76.7249C76.3675 9.43217 76.0773 9.14331 76.0773 8.7864C76.0773 8.42948 76.3675 8.14062 76.7249 8.14062ZM75.11 8.7868V13.3847C75.11 13.7412 74.8223 14.0308 74.4665 14.0308H74.2087C73.8529 14.0308 73.5651 13.7412 73.5651 13.3847V8.7868C73.5651 8.4303 73.8529 8.14062 74.2087 8.14062H74.4665C74.8223 8.14062 75.11 8.4303 75.11 8.7868ZM65.882 13.5653L64.5406 8.96741C64.4199 8.55365 64.7311 8.14062 65.1624 8.14062H65.4954C65.7969 8.14062 66.0586 8.34832 66.1264 8.64176L66.8368 11.7196L67.6535 8.62237C67.7284 8.33837 67.9857 8.14062 68.2797 8.14062H68.66C68.9541 8.14062 69.2115 8.33854 69.2863 8.62271L70.1032 11.7278L70.8163 8.64163C70.8841 8.34825 71.1459 8.14062 71.4473 8.14062H71.7779C72.2091 8.14062 72.5202 8.55344 72.3997 8.96713L71.0607 13.565C70.9802 13.8411 70.7267 14.0308 70.4388 14.0308H69.9462C69.6597 14.0308 69.4071 13.843 69.3254 13.5687L68.47 10.6965L67.6145 13.5687C67.5328 13.843 67.2803 14.0308 66.9938 14.0308H66.5037C66.2159 14.0308 65.9625 13.8412 65.882 13.5653ZM67.5338 13.5447C67.4628 13.7831 67.2431 13.9466 66.9938 13.9466H66.5037C66.2532 13.9466 66.0328 13.7816 65.9628 13.5417L64.6215 8.94382C64.5166 8.58424 64.787 8.22484 65.1624 8.22484H65.4954C65.7578 8.22484 65.9854 8.40559 66.0443 8.6607L66.8037 11.9507C66.8069 11.9644 66.8192 11.9742 66.8333 11.9742C66.8471 11.9742 66.8592 11.9649 66.8627 11.9516L67.7349 8.64384C67.8 8.39694 68.0238 8.22484 68.2797 8.22484H68.66C68.916 8.22484 69.1399 8.39709 69.2049 8.64414L70.0772 11.9599C70.0807 11.9733 70.0928 11.9826 70.1066 11.9826C70.1208 11.9826 70.1331 11.9728 70.1362 11.9591L70.8983 8.66058C70.9573 8.40553 71.1849 8.22484 71.4473 8.22484H71.7779C72.1532 8.22484 72.4236 8.58405 72.3189 8.94358L70.9798 13.5414C70.9099 13.7815 70.6894 13.9466 70.4388 13.9466H69.9462C69.6968 13.9466 69.4771 13.7831 69.4061 13.5447L68.4988 10.4981C68.495 10.4854 68.4833 10.4767 68.47 10.4767C68.4567 10.4767 68.445 10.4854 68.4412 10.4981L67.5338 13.5447ZM57.0646 13.3847C57.0646 13.695 57.3163 13.9466 57.6269 13.9466H60.4946C60.8049 13.9466 61.0565 13.6952 61.0565 13.3851C61.0565 13.0749 60.8049 12.8235 60.4946 12.8235H59.0106C58.7001 12.8235 58.4484 12.5719 58.4484 12.2615V12.2093C58.4484 11.8989 58.7001 11.6473 59.0106 11.6473H60.2902C60.6007 11.6473 60.8524 11.3947 60.8524 11.0843C60.8524 10.774 60.6007 10.5214 60.2902 10.5214H59.0106C58.7001 10.5214 58.4484 10.2698 58.4484 9.95941V9.90992C58.4484 9.59956 58.7001 9.34796 59.0106 9.34796H60.4946C60.8049 9.34796 61.0565 9.09654 61.0565 8.7864C61.0565 8.47626 60.8049 8.22484 60.4946 8.22484H57.6269C57.3163 8.22484 57.0646 8.47643 57.0646 8.7868V13.3847ZM82.712 13.9466C82.4012 13.9466 82.1493 13.695 82.1493 13.3847V8.7868C82.1493 8.47643 82.4012 8.22484 82.712 8.22484H82.9714C83.2822 8.22484 83.5341 8.47643 83.5341 8.7868V9.95941C83.5341 10.2698 83.786 10.5214 84.0968 10.5214H85.229C85.5397 10.5214 85.7917 10.2698 85.7917 9.95941V8.7868C85.7917 8.47643 86.0436 8.22484 86.3544 8.22484H86.6109C86.9217 8.22484 87.1736 8.47643 87.1736 8.7868V13.3847C87.1736 13.695 86.9217 13.9466 86.6109 13.9466H86.3544C86.0436 13.9466 85.7917 13.695 85.7917 13.3847V12.2092C85.7917 11.8989 85.5397 11.6473 85.229 11.6473H84.0968C83.786 11.6473 83.5341 11.8989 83.5341 12.2093V13.3847C83.5341 13.695 83.2822 13.9466 82.9714 13.9466H82.712ZM76.1615 8.7864C76.1615 9.09654 76.4137 9.34796 76.7249 9.34796H77.3412C77.6526 9.34796 77.905 9.59956 77.905 9.90992V13.3847C77.905 13.695 78.1574 13.9466 78.4688 13.9466H78.7091C79.0205 13.9466 79.2729 13.695 79.2729 13.3847V9.90992C79.2729 9.59956 79.5254 9.34796 79.8368 9.34796H80.4503C80.7614 9.34796 81.0137 9.09654 81.0137 8.7864C81.0137 8.47626 80.7614 8.22484 80.4503 8.22484H76.7249C76.4137 8.22484 76.1615 8.47626 76.1615 8.7864ZM74.4665 8.22484C74.7754 8.22484 75.0258 8.47643 75.0258 8.7868V13.3847C75.0258 13.695 74.7754 13.9466 74.4665 13.9466H74.2087C73.8997 13.9466 73.6493 13.695 73.6493 13.3847V8.7868C73.6493 8.47643 73.8997 8.22484 74.2087 8.22484H74.4665Z" fill="black"/>
<path d="M29.7891 2.65625H31.9971V30.8803H29.7891V2.65625Z" fill="black"/>
</svg>
