<svg width="1000" height="1000" viewBox="0 0 1000 1000" fill="none" xmlns="http://www.w3.org/2000/svg">
<path d="M590.156 300.449C590.156 350.155 549.862 390.449 500.156 390.449C450.451 390.449 410.156 350.155 410.156 300.449C410.156 250.744 450.451 210.449 500.156 210.449C549.862 210.449 590.156 250.744 590.156 300.449Z" fill="black"/>
<path d="M568.931 719.011C553.684 751.832 512.925 810.6 470.593 810.449C438.589 810.334 431.951 779.545 453.179 759.593C470.56 743.256 481.425 711.518 485.174 686.874C485.589 684.146 483.618 681.677 480.902 681.195C441.236 674.155 410.156 640.318 410.156 597.778C410.156 549.548 449.139 510.449 497.226 510.449C537.162 510.449 567.398 532.686 580.595 562.846C599.434 605.901 587.712 678.579 568.931 719.011Z" fill="black"/>
<path fill-rule="evenodd" clip-rule="evenodd" d="M874.902 68.75H125C93.934 68.75 68.75 93.934 68.75 125V875C68.75 906.066 93.934 931.25 125 931.25H874.902C905.968 931.25 931.152 906.066 931.152 875V125C931.152 93.934 905.968 68.75 874.902 68.75ZM125 0C55.9644 0 0 55.9644 0 125V875C0 944.036 55.9645 1000 125 1000H874.902C943.938 1000 999.902 944.036 999.902 875V125C999.902 55.9644 943.938 0 874.902 0L125 0Z" fill="black"/>
</svg>
