<svg width="560" height="1872" viewBox="0 0 560 1872" fill="none" xmlns="http://www.w3.org/2000/svg">
<path d="M150 1445.89C150 1435.35 156.947 1426.06 167.068 1423.08L379.113 1360.62C394.361 1356.13 409.647 1367.54 409.647 1383.42V1411.17C409.647 1422.26 401.96 1431.88 391.127 1434.35L283.41 1458.83C274.318 1460.9 274.09 1473.76 283.103 1476.14L391.947 1504.98C402.382 1507.74 409.647 1517.17 409.647 1527.96V1553.13C409.647 1563.93 402.354 1573.38 391.892 1576.12L284.153 1604.39C275.152 1606.75 275.324 1619.57 284.385 1621.69L391.273 1646.69C402.036 1649.21 409.647 1658.8 409.647 1669.84V1697.71C409.647 1713.59 394.361 1725 379.113 1720.51L167.068 1658.05C156.947 1655.06 150 1645.78 150 1635.24L150 1603.12C150 1592.73 156.763 1583.53 166.696 1580.43L269.39 1548.35C277.787 1545.73 277.721 1533.83 269.295 1531.3L166.949 1500.57C156.888 1497.55 150 1488.3 150 1477.8L150 1445.89Z" fill="black"/>
<path d="M150 712.266L150 636.458C150 623.364 160.656 612.749 173.801 612.749H385.846C398.991 612.749 409.647 623.364 409.647 636.458V711.255C409.647 737.861 404.449 760.846 394.053 780.21C383.741 799.659 368.866 814.645 349.426 825.17C330.071 835.778 306.87 841.082 279.824 841.082C252.777 841.082 229.534 835.82 210.094 825.296C190.739 814.772 175.863 799.87 165.467 780.589C155.156 761.309 150 738.534 150 712.266ZM233.641 682.966C220.497 682.966 209.84 693.581 209.84 706.675V709.74C209.84 722.537 211.911 733.44 216.053 742.449C220.194 751.542 227.336 758.446 237.479 763.161C247.621 767.96 261.736 770.359 279.824 770.359C297.911 770.359 312.026 767.918 322.168 763.035C332.311 758.236 339.453 751.163 343.594 741.818C347.736 732.557 349.806 721.19 349.806 707.719V706.675C349.806 693.581 339.15 682.966 326.005 682.966H233.641Z" fill="black"/>
<path d="M150 430.685C150 417.564 160.656 406.927 173.801 406.927H385.846C398.991 406.927 409.647 417.564 409.647 430.685V453.533C409.647 466.654 398.991 477.291 385.846 477.291H230.599C217.454 477.291 206.798 487.928 206.798 501.05L206.798 558.32C206.798 571.442 196.142 582.079 182.997 582.079H173.801C160.656 582.079 150 571.442 150 558.32L150 430.685Z" fill="black"/>
<path d="M352.849 174.281C352.849 161.149 363.505 150.504 376.65 150.504L385.846 150.504C398.991 150.504 409.647 161.149 409.647 174.281V352.17C409.647 365.302 398.991 375.947 385.846 375.947H376.65C363.505 375.947 352.849 365.302 352.849 352.17V312.789C352.849 304.582 346.189 297.929 337.974 297.929L173.801 297.929C160.656 297.929 150 287.283 150 274.152L150 252.3C150 239.168 160.656 228.522 173.801 228.522L337.974 228.522C346.189 228.522 352.849 221.869 352.849 213.662V174.281Z" fill="black"/>
<path fill-rule="evenodd" clip-rule="evenodd" d="M166.922 1192.88C156.875 1189.85 150 1180.61 150 1170.13L150 1144.71C150 1128.52 165.862 1117.07 181.261 1122.14L393.306 1192.02C403.059 1195.23 409.647 1204.33 409.647 1214.58V1276.42C409.647 1286.67 403.059 1295.77 393.306 1298.98L181.261 1368.85C165.862 1373.93 150 1362.48 150 1346.29L150 1320.86C150 1310.38 156.875 1301.14 166.922 1298.11L189.122 1291.42C195.402 1289.53 199.698 1283.75 199.698 1277.21L199.698 1213.79C199.698 1207.24 195.402 1201.47 189.122 1199.57L166.922 1192.88ZM263.867 1269.01L312.303 1254.88C320.754 1252.42 320.905 1240.52 312.52 1237.84L264.084 1222.37C258.325 1220.54 252.439 1224.83 252.439 1230.86V1260.45C252.439 1266.4 258.154 1270.67 263.867 1269.01Z" fill="black"/>
<path d="M150 909.427C150 896.302 160.656 885.663 173.801 885.663H385.846C398.991 885.663 409.647 896.302 409.647 909.427V997.562C409.647 1016.8 406.139 1033.64 399.124 1048.07C392.109 1062.5 382.009 1073.72 368.824 1081.74C355.638 1089.76 339.833 1093.76 321.408 1093.76C302.813 1093.76 287.134 1089.63 274.372 1081.36C262.459 1073.72 253.271 1063.17 246.808 1049.73C238.649 1032.75 235.704 1013.73 235.704 995.03V951.958C235.704 875.396 371.544 956.043 320.41 956.043H312.414C300.296 956.043 290.473 965.851 290.473 977.95C290.473 986.068 290.818 994.248 293.516 1001.99C295.629 1007.9 298.967 1012.41 303.531 1015.54C308.096 1018.74 314.054 1020.35 321.408 1020.35C328.845 1020.35 334.889 1018.74 339.537 1015.54C344.27 1012.41 347.736 1007.9 349.933 1001.99C352.699 994.935 353.356 987.32 353.356 979.806C353.356 966.682 342.7 956.043 329.555 956.043H281.845C270.02 956.043 265.842 967.182 261.093 975.947C254.422 988.259 235.704 983.527 235.704 969.53C235.704 962.081 229.656 956.043 222.196 956.043H173.801C160.656 956.043 150 945.403 150 932.279L150 909.427ZM256.758 1044.31L246.808 1049.73L185.186 1083.24C169.326 1091.86 150 1080.4 150 1062.37L150 1040.09C150 1031.36 154.798 1023.33 162.496 1019.18L227.536 984.133C232.568 981.421 235.704 976.173 235.704 970.464C235.704 928.232 317.858 1011.09 256.758 1044.31Z" fill="black"/>
</svg>
