<svg width="3000" height="1000" viewBox="0 0 3000 1000" fill="none" xmlns="http://www.w3.org/2000/svg">
<path d="M590.156 300.449C590.156 350.155 549.862 390.449 500.156 390.449C450.451 390.449 410.156 350.155 410.156 300.449C410.156 250.744 450.451 210.449 500.156 210.449C549.862 210.449 590.156 250.744 590.156 300.449Z" fill="black"/>
<path d="M568.931 719.011C553.684 751.832 512.925 810.6 470.593 810.449C438.589 810.334 431.951 779.545 453.179 759.593C470.56 743.256 481.425 711.518 485.174 686.874C485.589 684.146 483.618 681.677 480.902 681.195C441.236 674.155 410.156 640.318 410.156 597.778C410.156 549.548 449.139 510.449 497.226 510.449C537.162 510.449 567.398 532.686 580.595 562.846C599.434 605.901 587.712 678.579 568.931 719.011Z" fill="black"/>
<path d="M2612.79 385.681V239.319C2612.79 227.956 2622.01 218.75 2633.38 218.75H2641.64C2653.01 218.75 2662.23 227.956 2662.23 239.319V276.23C2662.23 284.859 2669.23 291.855 2677.86 291.855H2713.11C2721.74 291.855 2728.74 284.859 2728.74 276.23V239.319C2728.74 227.956 2737.96 218.75 2749.33 218.75H2757.5C2768.87 218.75 2778.09 227.956 2778.09 239.319V385.681C2778.09 397.044 2768.87 406.25 2757.5 406.25H2749.33C2737.96 406.25 2728.74 397.044 2728.74 385.681V348.682C2728.74 340.052 2721.74 333.057 2713.11 333.057H2677.86C2669.23 333.057 2662.23 340.052 2662.23 348.682V385.681C2662.23 397.044 2653.01 406.25 2641.64 406.25H2633.38C2622.01 406.25 2612.79 397.044 2612.79 385.681Z" fill="black"/>
<path d="M2391.47 239.319V385.681C2391.47 397.029 2382.31 406.25 2370.98 406.25H2362.78C2351.45 406.25 2342.29 397.029 2342.29 385.681V239.319C2342.29 227.971 2351.45 218.75 2362.78 218.75H2370.98C2382.31 218.75 2391.47 227.971 2391.47 239.319Z" fill="black"/>
<path d="M2097.73 391.43L2055.04 245.069C2051.19 231.898 2061.1 218.75 2074.83 218.75H2085.43C2095.02 218.75 2103.36 225.361 2105.51 234.702L2122.52 307.747C2124 314.095 2132.99 314.225 2134.66 307.923L2154.13 234.085C2156.51 225.045 2164.7 218.75 2174.06 218.75H2186.16C2195.53 218.75 2203.72 225.05 2206.1 234.096L2225.59 308.163C2227.25 314.468 2236.24 314.341 2237.72 307.992L2254.81 234.698C2256.96 225.359 2265.3 218.75 2274.89 218.75H2285.42C2299.14 218.75 2309.05 231.891 2305.21 245.06L2262.58 391.421C2260.02 400.21 2251.95 406.25 2242.79 406.25H2227.11C2217.99 406.25 2209.95 400.27 2207.35 391.541L2186.18 320.482C2184.41 314.534 2175.99 314.525 2174.21 320.47L2152.88 391.541C2150.28 400.27 2142.24 406.25 2133.12 406.25H2117.53C2108.36 406.25 2100.3 400.215 2097.73 391.43Z" fill="black"/>
<path d="M2442.73 218.75H2561.32C2572.7 218.75 2581.94 227.945 2581.94 239.307C2581.94 250.668 2572.7 259.863 2561.32 259.863H2536.53C2531 259.863 2526.53 264.34 2526.53 269.863V385.681C2526.53 397.049 2517.28 406.25 2505.9 406.25H2498.25C2486.86 406.25 2477.62 397.049 2477.62 385.681V269.863C2477.62 264.34 2473.14 259.863 2467.62 259.863H2442.73C2431.36 259.863 2422.12 250.668 2422.12 239.307C2422.12 227.945 2431.36 218.75 2442.73 218.75Z" fill="black"/>
<path d="M1173.65 218.75H1198.29C1206.64 218.75 1214.17 223.792 1217.33 231.514L1251.94 315.456C1254.07 320.617 1261.38 320.611 1263.5 315.446L1297.93 231.514C1301.1 223.792 1308.62 218.75 1316.97 218.75H1341.61C1352.98 218.75 1362.19 227.958 1362.19 239.319V385.681C1362.19 397.042 1352.98 406.25 1341.61 406.25H1334.52C1323.16 406.25 1313.94 397.042 1313.94 385.681L1313.82 335.036C1313.81 328.148 1304.29 326.348 1301.76 332.753L1278.3 392.085C1275.2 399.936 1267.61 405.094 1259.16 405.094H1256.13C1247.67 405.094 1240.07 399.919 1236.98 392.048L1213.51 332.368C1210.99 325.952 1201.46 327.745 1201.45 334.639L1201.32 385.681C1201.32 397.042 1192.11 406.25 1180.75 406.25H1173.65C1162.29 406.25 1153.08 397.042 1153.08 385.681V239.319C1153.08 227.958 1162.29 218.75 1173.65 218.75Z" fill="black"/>
<path fill-rule="evenodd" clip-rule="evenodd" d="M1449.44 391.836L1455.56 372.444C1456.38 369.846 1458.79 368.079 1461.52 368.075L1511.74 368.014C1514.46 368.01 1516.88 369.769 1517.7 372.362L1523.93 391.848C1526.64 400.429 1534.64 406.25 1543.67 406.25H1553.01C1567.14 406.25 1577.16 392.459 1572.62 379.099L1522.88 232.738C1520.03 224.368 1512.14 218.75 1503.27 218.75H1470.11C1461.24 218.75 1453.34 224.368 1450.5 232.738L1400.76 379.099C1396.22 392.459 1406.24 406.25 1420.37 406.25H1429.69C1438.73 406.25 1446.73 400.423 1449.44 391.836ZM1480.54 292.978C1482.39 287.171 1490.62 287.182 1492.45 292.994L1501.28 320.91C1502.56 324.938 1499.55 329.044 1495.32 329.044L1477.58 329.044C1473.35 329.044 1470.34 324.925 1471.63 320.893L1480.54 292.978Z" fill="black"/>
<path fill-rule="evenodd" clip-rule="evenodd" d="M1681.31 406.25C1700.22 406.25 1716.7 402.564 1730.67 395.082C1744.64 387.538 1755.4 376.688 1762.91 362.593C1770.47 348.488 1774.2 331.727 1774.2 312.411C1774.2 293.155 1770.47 276.454 1762.91 262.407C1755.34 248.313 1744.56 237.495 1730.59 230.01C1716.68 222.465 1700.19 218.75 1681.22 218.75H1631.72C1620.34 218.75 1611.09 227.951 1611.09 239.319V385.681C1611.09 397.049 1620.34 406.25 1631.72 406.25H1681.31ZM1704.44 358.549C1697.82 361.764 1689.59 363.435 1679.65 363.435C1669.16 363.435 1660.65 354.928 1660.65 344.435V280.095C1660.65 269.946 1668.88 261.719 1679.03 261.719C1689.21 261.719 1697.59 263.422 1704.26 266.693C1710.85 269.842 1715.89 275.008 1719.34 282.326C1722.79 289.595 1724.62 299.594 1724.62 312.488C1724.62 325.379 1722.8 335.439 1719.34 342.835C1715.95 350.154 1710.98 355.344 1704.44 358.549Z" fill="black"/>
<path d="M1803.71 385.681V239.319C1803.71 227.958 1812.92 218.75 1824.29 218.75H1915.57C1926.93 218.75 1936.14 227.952 1936.14 239.307C1936.14 250.661 1926.93 259.863 1915.57 259.863H1860.93C1856.61 259.863 1853.12 263.361 1853.12 267.676V284.042C1853.12 288.357 1856.61 291.854 1860.93 291.854H1909.06C1920.43 291.854 1929.64 301.1 1929.64 312.456C1929.64 323.811 1920.43 333.057 1909.06 333.057H1860.93C1856.61 333.057 1853.12 336.554 1853.12 340.869V357.324C1853.12 361.639 1856.61 365.137 1860.93 365.137H1915.57C1926.93 365.137 1936.14 374.339 1936.14 385.693C1936.14 397.048 1926.93 406.25 1915.57 406.25H1824.29C1812.92 406.25 1803.71 397.042 1803.71 385.681Z" fill="black"/>
<path fill-rule="evenodd" clip-rule="evenodd" d="M2875 68.75H125C93.934 68.75 68.75 93.934 68.75 125V875C68.75 906.066 93.934 931.25 125 931.25H2875C2906.07 931.25 2931.25 906.066 2931.25 875V125C2931.25 93.934 2906.07 68.75 2875 68.75ZM125 0C55.9644 0 0 55.9644 0 125V875C0 944.036 55.9645 1000 125 1000H2875C2944.04 1000 3000 944.036 3000 875V125C3000 55.9644 2944.04 0 2875 0H125Z" fill="black"/>
<path d="M2475.56 804.813C2465.02 804.813 2455.74 797.866 2452.75 787.745L2390.29 575.7C2385.8 560.452 2397.21 545.166 2413.09 545.166H2440.84C2451.94 545.166 2461.56 552.852 2464.02 563.686L2488.5 671.402C2490.57 680.495 2503.43 680.723 2505.82 671.71L2534.65 562.866C2537.41 552.431 2546.84 545.166 2557.63 545.166H2582.8C2593.6 545.166 2603.05 552.459 2605.79 562.921L2634.06 670.66C2636.42 679.661 2649.24 679.489 2651.36 670.428L2676.37 563.54C2678.88 552.777 2688.47 545.166 2699.51 545.166H2727.38C2743.26 545.166 2754.67 560.452 2750.18 575.7L2687.72 787.745C2684.74 797.866 2675.45 804.813 2664.91 804.813H2632.79C2622.4 804.813 2613.21 798.05 2610.1 788.117L2578.02 685.423C2575.4 677.026 2563.51 677.092 2560.98 685.518L2530.24 787.864C2527.22 797.925 2517.97 804.813 2507.48 804.813H2475.56Z" fill="black"/>
<path d="M1741.94 804.813H1666.13C1653.04 804.813 1642.42 794.157 1642.42 781.012V568.967C1642.42 555.822 1653.04 545.166 1666.13 545.166H1740.93C1767.53 545.166 1790.52 550.364 1809.88 560.76C1829.33 571.072 1844.32 585.947 1854.84 605.387C1865.45 624.742 1870.75 647.943 1870.75 674.989C1870.75 702.036 1865.49 725.279 1854.97 744.719C1844.44 764.074 1829.54 778.95 1810.26 789.346C1790.98 799.657 1768.21 804.813 1741.94 804.813ZM1712.64 721.171C1712.64 734.316 1723.25 744.972 1736.35 744.972H1739.41C1752.21 744.972 1763.11 742.902 1772.12 738.76C1781.21 734.619 1788.12 727.477 1792.83 717.334C1797.63 707.192 1800.03 693.077 1800.03 674.989C1800.03 656.902 1797.59 642.787 1792.71 632.645C1787.91 622.502 1780.84 615.36 1771.49 611.219C1762.23 607.077 1750.86 605.007 1737.39 605.007H1736.35C1723.25 605.007 1712.64 615.663 1712.64 628.808V721.171Z" fill="black"/>
<path d="M1460.36 804.813C1447.24 804.813 1436.6 794.157 1436.6 781.012V568.967C1436.6 555.822 1447.24 545.166 1460.36 545.166H1483.2C1496.33 545.166 1506.96 555.822 1506.96 568.967V724.214C1506.96 737.359 1517.6 748.015 1530.72 748.015H1587.99C1601.11 748.015 1611.75 758.671 1611.75 771.816V781.012C1611.75 794.157 1601.11 804.813 1587.99 804.813H1460.36Z" fill="black"/>
<path d="M1203.95 601.964C1190.82 601.964 1180.18 591.308 1180.18 578.163V568.967C1180.18 555.822 1190.82 545.166 1203.95 545.166H1381.84C1394.97 545.166 1405.62 555.822 1405.62 568.967V578.163C1405.62 591.308 1394.97 601.964 1381.84 601.964H1342.46C1334.25 601.964 1327.6 608.624 1327.6 616.839V781.012C1327.6 794.157 1316.96 804.813 1303.82 804.813H1281.97C1268.84 804.813 1258.19 794.157 1258.19 781.012V616.839C1258.19 608.624 1251.54 601.964 1243.33 601.964H1203.95Z" fill="black"/>
<path fill-rule="evenodd" clip-rule="evenodd" d="M2222.55 787.891C2219.53 797.938 2210.28 804.813 2199.81 804.813H2174.38C2158.19 804.813 2146.74 788.951 2151.81 773.552L2221.69 561.507C2224.9 551.754 2234 545.166 2244.25 545.166H2306.09C2316.34 545.166 2325.44 551.754 2328.65 561.507L2398.52 773.552C2403.6 788.951 2392.15 804.813 2375.96 804.813H2350.53C2340.05 804.813 2330.81 797.938 2327.79 787.891L2321.09 765.691C2319.2 759.411 2313.43 755.115 2306.88 755.115H2243.46C2236.91 755.115 2231.14 759.411 2229.24 765.691L2222.55 787.891ZM2298.68 690.946L2284.55 642.51C2282.09 634.059 2270.19 633.908 2267.51 642.293L2252.05 690.729C2250.21 696.488 2254.5 702.374 2260.53 702.374H2290.13C2296.07 702.374 2300.35 696.659 2298.68 690.946Z" fill="black"/>
<path d="M1939.1 804.813C1925.97 804.813 1915.33 794.157 1915.33 781.012V568.967C1915.33 555.822 1925.97 545.166 1939.1 545.166H2027.23C2046.47 545.166 2063.31 548.674 2077.74 555.689C2092.17 562.704 2103.39 572.804 2111.41 585.989C2119.43 599.175 2123.44 614.98 2123.44 633.405C2123.44 652 2119.3 667.678 2111.03 680.441C2103.39 692.354 2092.85 701.542 2079.4 708.005C2062.42 716.164 2043.4 719.109 2024.7 719.109H1981.63C1905.07 719.109 1985.71 583.269 1985.71 634.403V642.399C1985.71 654.516 1995.52 664.34 2007.62 664.34C2015.74 664.34 2023.92 663.995 2031.66 661.297C2037.57 659.184 2042.09 655.846 2045.21 651.282C2048.41 646.717 2050.02 640.759 2050.02 633.405C2050.02 625.968 2048.41 619.924 2045.21 615.276C2042.09 610.543 2037.57 607.077 2031.66 604.88C2024.61 602.114 2016.99 601.457 2009.48 601.457C1996.35 601.457 1985.71 612.113 1985.71 625.258V672.968C1985.71 684.793 1996.85 688.971 2005.62 693.72C2017.93 700.391 2013.2 719.109 1999.2 719.109C1991.75 719.109 1985.71 725.157 1985.71 732.617V781.012C1985.71 794.157 1975.08 804.813 1961.95 804.813H1939.1ZM2073.99 698.055L2079.4 708.005L2112.91 769.627C2121.53 785.487 2110.07 804.813 2092.04 804.813H2069.77C2061.03 804.813 2053 800.015 2048.85 792.317L2013.8 727.277C2011.09 722.245 2005.84 719.109 2000.14 719.109C1957.9 719.109 2040.76 636.955 2073.99 698.055Z" fill="black"/>
<path d="M931.152 0H999.902V1000H931.152V0Z" fill="black"/>
</svg>
