<svg width="400" height="1601" viewBox="0 0 400 1601" fill="none" xmlns="http://www.w3.org/2000/svg">
<path d="M72 1319.8C72 1309.07 79.0711 1299.62 89.3723 1296.58L305.195 1232.96C320.714 1228.39 336.273 1240.01 336.273 1256.18V1284.44C336.273 1295.75 328.449 1305.54 317.423 1308.05L207.787 1332.99C198.533 1335.09 198.3 1348.19 207.474 1350.62L318.258 1379.99C328.878 1382.8 336.273 1392.41 336.273 1403.39V1429.03C336.273 1440.03 328.85 1449.65 318.202 1452.44L208.543 1481.23C199.381 1483.64 199.557 1496.7 208.779 1498.86L317.571 1524.32C328.526 1526.88 336.273 1536.65 336.273 1547.89V1576.28C336.273 1592.45 320.714 1604.07 305.195 1599.5L89.3723 1535.88C79.0711 1532.84 72 1523.39 72 1512.66L72 1479.94C72 1469.35 78.8832 1459.99 88.9938 1456.83L193.517 1424.16C202.064 1421.49 201.996 1409.37 193.421 1406.8L89.2509 1375.5C79.0107 1372.42 72 1363 72 1352.31L72 1319.8Z" fill="black"/>
<path d="M72 572.638L72 495.43C72 482.094 82.8458 471.283 96.2249 471.283H312.048C325.427 471.283 336.273 482.094 336.273 495.43V571.609C336.273 598.706 330.982 622.115 320.401 641.837C309.906 661.645 294.765 676.908 274.979 687.627C255.279 698.431 231.665 703.833 204.136 703.833C176.608 703.833 152.951 698.474 133.165 687.755C113.465 677.037 98.324 661.859 87.7428 642.223C77.2476 622.586 72 599.391 72 572.638ZM157.132 542.798C143.753 542.798 132.907 553.608 132.907 566.944V570.066C132.907 583.099 135.014 594.204 139.23 603.379C143.445 612.639 150.714 619.671 161.037 624.473C171.36 629.361 185.727 631.804 204.136 631.804C222.546 631.804 236.912 629.318 247.236 624.344C257.559 619.457 264.828 612.254 269.043 602.736C273.258 593.303 275.366 581.727 275.366 568.008V566.944C275.366 553.608 264.52 542.798 251.141 542.798H157.132Z" fill="black"/>
<path d="M72.0001 285.858C72.0001 272.495 82.8458 261.661 96.2249 261.661H312.048C325.427 261.661 336.273 272.495 336.273 285.858V309.128C336.273 322.492 325.427 333.325 312.048 333.325H154.035C140.656 333.325 129.81 344.159 129.81 357.522L129.81 415.85C129.81 429.214 118.964 440.047 105.585 440.047H96.2249C82.8458 440.047 72 429.214 72 415.85L72.0001 285.858Z" fill="black"/>
<path d="M278.463 24.72C278.463 11.3458 289.309 0.503906 302.688 0.503906L312.048 0.503907C325.427 0.503907 336.273 11.3458 336.273 24.72V205.894C336.273 219.268 325.427 230.11 312.048 230.11H302.688C289.309 230.11 278.463 219.268 278.463 205.894V165.786C278.463 157.427 271.684 150.651 263.322 150.651L96.2249 150.651C82.8458 150.651 72.0001 139.809 72.0001 126.435L72.0001 104.179C72.0001 90.8049 82.8458 79.963 96.2249 79.963L263.322 79.963C271.684 79.963 278.463 73.1869 278.463 64.828V24.72Z" fill="black"/>
<path fill-rule="evenodd" clip-rule="evenodd" d="M89.2239 1062.13C78.9972 1059.04 72 1049.63 72 1038.96L72 1013.06C72 996.574 88.1448 984.913 103.818 990.081L319.641 1061.25C329.567 1064.52 336.273 1073.78 336.273 1084.23V1147.2C336.273 1157.65 329.567 1166.91 319.641 1170.18L103.818 1241.35C88.1448 1246.51 72 1234.86 72 1218.37L72 1192.47C72 1181.8 78.9972 1172.39 89.2239 1169.3L111.819 1162.49C118.21 1160.56 122.584 1154.68 122.584 1148.01L122.584 1083.42C122.584 1076.75 118.21 1070.87 111.819 1068.94L89.2239 1062.13ZM187.896 1139.66L237.195 1125.27C245.796 1122.76 245.95 1110.65 237.415 1107.92L188.116 1092.17C182.255 1090.29 176.264 1094.66 176.264 1100.81V1130.95C176.264 1137 182.081 1141.36 187.896 1139.66Z" fill="black"/>
<path d="M72 773.439C72 760.072 82.8458 749.236 96.2249 749.236H312.048C325.427 749.236 336.273 760.072 336.273 773.439V863.201C336.273 882.797 332.703 899.944 325.562 914.64C318.422 929.337 308.142 940.768 294.722 948.933C281.302 957.098 265.215 961.181 246.461 961.181C227.536 961.181 211.578 956.969 198.588 948.546C186.463 940.765 177.111 930.025 170.532 916.328C162.229 899.039 159.231 879.667 159.231 860.623V816.756C159.231 738.78 297.491 820.916 245.446 820.916H237.308C224.974 820.916 214.976 830.905 214.976 843.227C214.976 851.496 215.327 859.827 218.073 867.714C220.223 873.73 223.621 878.328 228.267 881.508C232.912 884.774 238.977 886.407 246.461 886.407C254.032 886.407 260.182 884.774 264.914 881.508C269.731 878.328 273.259 873.73 275.495 867.714C278.31 860.526 278.979 852.77 278.979 845.118C278.979 831.752 268.133 820.916 254.754 820.916H206.194C194.158 820.916 189.906 832.261 185.072 841.188C178.282 853.727 159.231 848.908 159.231 834.652C159.231 827.066 153.075 820.916 145.482 820.916H96.2249C82.8458 820.916 72 810.08 72 796.714L72 773.439ZM180.66 910.817L170.532 916.328L107.812 950.459C91.6699 959.243 72 947.569 72 929.205L72 906.52C72 897.625 76.8839 889.446 84.7189 885.221L150.918 849.525C156.039 846.763 159.231 841.418 159.231 835.604C159.231 792.592 242.849 876.975 180.66 910.817Z" fill="black"/>
</svg>
