<svg width="141" height="32" viewBox="0 0 141 32" fill="none" xmlns="http://www.w3.org/2000/svg">
<path fill-rule="evenodd" clip-rule="evenodd" d="M0 4.16C0 1.8625 1.8625 0 4.16 0H27.84C30.1375 0 32 1.8625 32 4.16V27.84C32 30.1375 30.1375 32 27.84 32H4.16C1.8625 32 0 30.1375 0 27.84V4.16ZM18.88 9.6C18.88 11.1906 17.5906 12.48 16 12.48C14.4094 12.48 13.12 11.1906 13.12 9.6C13.12 8.00942 14.4094 6.72 16 6.72C17.5906 6.72 18.88 8.00942 18.88 9.6ZM15.054 25.92C16.4086 25.9248 17.7129 24.0442 18.2008 22.994C18.8018 21.7002 19.1769 19.3745 18.574 17.9967C18.1517 17.0316 17.1842 16.32 15.9062 16.32C14.3674 16.32 13.12 17.5711 13.12 19.1145C13.12 20.4758 14.1145 21.5586 15.3839 21.7839C15.4708 21.7993 15.5339 21.8783 15.5206 21.9656C15.4006 22.7542 15.0529 23.7698 14.4967 24.2926C13.8174 24.9311 14.0299 25.9163 15.054 25.92Z" fill="black"/>
<path d="M119.715 27.5561C118.834 27.5561 118.066 26.9567 117.853 26.1024L114.426 12.3939C114.123 11.1826 115.039 10.0092 116.288 10.0092H118.543C119.467 10.0092 120.259 10.6665 120.43 11.5737L121.627 17.9426C121.743 18.558 122.619 18.5724 122.755 17.9611L124.188 11.5121C124.383 10.634 125.162 10.0092 126.062 10.0092H129.122C130.014 10.0092 130.788 10.6242 130.991 11.4933L132.482 17.8983C132.623 18.5072 133.498 18.4855 133.609 17.8703L134.746 11.5865C134.912 10.6733 135.707 10.0092 136.635 10.0092H138.88C140.128 10.0092 141.045 11.1826 140.742 12.3939L137.315 26.1024C137.101 26.9567 136.333 27.5561 135.453 27.5561H131.604C130.74 27.5561 129.983 26.9798 129.754 26.1478L128.105 20.1805C127.949 19.6147 127.146 19.6181 126.994 20.1851L125.405 26.1323C125.181 26.972 124.42 27.5561 123.551 27.5561H119.715Z" fill="black"/>
<path d="M101.185 27.8302C100.065 27.8302 99.0753 27.6474 98.2147 27.2818C97.3618 26.9086 96.6916 26.3451 96.2042 25.5911C95.7167 24.8371 95.473 23.8775 95.473 22.7123C95.473 21.7527 95.6368 20.934 95.9643 20.2562C96.2917 19.5708 96.7487 19.011 97.3351 18.5769C97.9215 18.1428 98.6032 17.8115 99.38 17.583C100.164 17.3546 101.01 17.2061 101.916 17.1375C102.898 17.0614 103.687 16.97 104.281 16.8633C104.882 16.7491 105.317 16.593 105.583 16.395C105.85 16.1893 105.983 15.919 105.983 15.5839V15.5382C105.983 15.0812 105.808 14.7309 105.457 14.4872C105.107 14.2435 104.658 14.1216 104.109 14.1216C103.508 14.1216 103.017 14.2549 102.636 14.5215C101.19 15.525 101.296 15.721 99.0601 15.721C96.4012 15.721 97.2093 11.8225 99.8369 10.6031C101.002 10.0548 102.457 9.78062 104.201 9.78062C105.457 9.78062 106.585 9.92913 107.582 10.2261C108.58 10.5155 109.429 10.923 110.13 11.4485C110.83 11.9664 111.363 12.5756 111.729 13.2763C112.102 13.9693 112.289 14.7233 112.289 15.5382V25.6368C112.289 26.6967 111.43 27.556 110.37 27.556H107.571C106.921 27.556 106.394 27.0292 106.394 26.3794C106.394 26.0428 105.864 25.8818 105.63 26.1237C104.98 26.7952 104.134 27.3107 103.275 27.556C102.643 27.7388 101.947 27.8302 101.185 27.8302ZM103.241 23.8547C103.721 23.8547 104.17 23.7557 104.589 23.5577C105.016 23.3597 105.362 23.0741 105.629 22.7009C106.011 22.1653 106.061 21.4946 106.051 20.8318C106.045 20.3771 105.565 20.0634 105.127 20.1859C104.599 20.3339 104.057 20.4369 103.515 20.519C103.028 20.5951 102.628 20.7208 102.316 20.8959C102.011 21.0635 101.783 21.2729 101.63 21.5242C101.486 21.7679 101.413 22.0421 101.413 22.3468C101.413 22.8342 101.585 23.2073 101.927 23.4663C102.27 23.7252 102.708 23.8547 103.241 23.8547Z" fill="black"/>
<path d="M85.0832 27.556C84.0232 27.556 83.164 26.6967 83.164 25.6368V11.9283C83.164 10.8683 84.0232 10.0091 85.0832 10.0091H88.2303C88.814 10.0091 89.2871 10.4822 89.2871 11.0659C89.2871 11.4071 90.0895 11.5899 90.3055 11.3258C90.5237 11.0589 90.7563 10.8294 90.9892 10.6374C91.6899 10.0662 92.5086 9.78062 93.4454 9.78062C95.3711 9.78062 95.6292 11.7038 95.6292 12.6689C95.6292 14.8725 94.929 15.0812 92.7142 15.0812C92.0974 15.0812 91.5414 15.2221 91.0464 15.5039C90.5589 15.7781 90.1743 16.1665 89.8926 16.6691C89.6108 17.1642 89.4699 17.7468 89.4699 18.417V25.6368C89.4699 26.6967 88.6106 27.556 87.5507 27.556H85.0832Z" fill="black"/>
<path d="M68.7814 27.7843C67.5324 27.7843 66.3824 27.4568 65.3314 26.8019C64.2881 26.1469 63.4503 25.1531 62.8182 23.8203C62.1937 22.4875 61.8815 20.8082 61.8815 18.7824C61.8815 16.6652 62.2089 14.944 62.8639 13.6189C63.5265 12.2937 64.3794 11.3227 65.4228 10.7058C66.4738 10.0889 67.5781 9.78049 68.7357 9.78049C70.0716 9.78049 71.3891 10.2609 72.3832 11.1212C72.7586 11.4461 73.7622 11.1552 73.7622 10.6587V6.0792C73.7622 5.01926 74.6214 4.16 75.6814 4.16H78.1489C79.2088 4.16 80.0681 5.01926 80.0681 6.0792V25.6367C80.0681 26.6966 79.2088 27.5559 78.1489 27.5559H75.0099C74.346 27.5559 73.8078 27.0177 73.8078 26.3538C73.8078 25.9914 73.0931 25.7744 72.8458 26.0393C72.7704 26.1199 72.6947 26.199 72.6198 26.2764C72.1704 26.741 71.6221 27.1103 70.9748 27.3845C70.335 27.6511 69.6039 27.7843 68.7814 27.7843ZM71.1118 22.9407C71.6907 22.9407 72.1857 22.7731 72.5969 22.438C73.0158 22.0953 73.3357 21.6155 73.5565 20.9986C73.785 20.3741 73.8992 19.6354 73.8992 18.7824C73.8992 17.9142 73.785 17.1717 73.5565 16.5548C73.3357 15.9303 73.0158 15.4543 72.5969 15.1268C72.1857 14.7917 71.6907 14.6242 71.1118 14.6242C70.533 14.6242 70.038 14.7917 69.6268 15.1268C69.2231 15.4543 68.9109 15.9303 68.69 16.5548C68.4768 17.1717 68.3701 17.9142 68.3701 18.7824C68.3701 19.6506 68.4768 20.397 68.69 21.0215C68.9109 21.6383 69.2231 22.1143 69.6268 22.4494C70.038 22.7769 70.533 22.9407 71.1118 22.9407Z" fill="black"/>
<path d="M57.2977 4.16C58.3576 4.16 59.2169 5.01926 59.2169 6.0792V25.6366C59.2169 26.6966 58.3576 27.5559 57.2977 27.5559H54.8302C53.7702 27.5559 52.911 26.6966 52.911 25.6367V6.0792C52.911 5.01926 53.7702 4.16 54.8302 4.16H57.2977Z" fill="black"/>
<path d="M40.639 7.7243C40.639 6.66435 41.4983 5.8051 42.5582 5.8051H45.0257C46.0857 5.8051 46.9449 6.66435 46.9449 7.7243V9.30533C46.9449 9.69398 47.26 10.009 47.6486 10.009H48.4726C49.1793 10.009 49.7521 10.5819 49.7521 11.2885V13.2991C49.7521 14.0057 49.1793 14.5785 48.4726 14.5785H47.6486C47.26 14.5785 46.9449 14.8936 46.9449 15.2822V21.9126C46.9449 22.1563 46.9868 22.3619 47.0706 22.5295C47.1544 22.6894 47.2838 22.8113 47.459 22.895C47.6342 22.9712 47.8588 23.0093 48.133 23.0093C48.8056 23.0093 49.4367 23.2526 49.5753 23.9108L50.023 26.036C50.1686 26.7269 49.7576 27.4079 49.0697 27.5673C48.5519 27.6892 47.935 27.7692 47.2191 27.8072C45.7721 27.8834 44.5574 27.7349 43.5749 27.3617C42.5925 26.9809 41.8537 26.3831 41.3587 25.5682C40.8637 24.7533 40.6238 23.7328 40.639 22.5066V15.2822C40.639 14.8936 40.324 14.5785 39.9353 14.5785H39.6795C38.9728 14.5785 38.4 14.0057 38.4 13.2991V11.2885C38.4 10.5819 38.9728 10.009 39.6795 10.009H39.9353C40.324 10.009 40.639 9.69398 40.639 9.30533V7.7243Z" fill="black"/>
</svg>
