<svg width="21" height="32" viewBox="0 0 21 32" fill="none" xmlns="http://www.w3.org/2000/svg">
<path fill-rule="evenodd" clip-rule="evenodd" d="M0 2.64799C0 1.18555 1.18555 0 2.648 0H17.7212C19.1836 0 20.3692 1.18555 20.3692 2.64799V17.7212C20.3692 19.1836 19.1836 20.3692 17.7212 20.3692H2.648C1.18555 20.3692 0 19.1836 0 17.7212V2.64799ZM12.0178 6.11076C12.0178 7.12322 11.1971 7.94398 10.1846 7.94398C9.17213 7.94398 8.35137 7.12322 8.35137 6.11076C8.35137 5.09829 9.17213 4.27753 10.1846 4.27753C11.1971 4.27753 12.0178 5.09829 12.0178 6.11076ZM9.58242 16.499C10.4447 16.5021 11.2749 15.3051 11.5855 14.6365C11.968 13.813 12.2068 12.3326 11.8231 11.4556C11.5542 10.8412 10.9384 10.3883 10.1249 10.3883C9.14541 10.3883 8.35137 11.1847 8.35137 12.1671C8.35137 13.0336 8.98443 13.7228 9.7924 13.8662C9.84773 13.8761 9.88788 13.9264 9.87943 13.9819C9.80306 14.4839 9.58175 15.1304 9.22771 15.4631C8.7953 15.8696 8.93053 16.4967 9.58242 16.499Z" fill="black"/>
<path d="M15.247 31.9137C14.7452 31.9137 14.3384 31.5069 14.3384 31.0051V25.4524C14.3384 24.9506 14.7452 24.5438 15.247 24.5438H15.4307C15.9325 24.5438 16.3392 24.9506 16.3392 25.4524V27.4564C16.3392 27.4934 16.3693 27.5234 16.4063 27.5234C16.4275 27.5234 16.4475 27.5134 16.4601 27.4964L18.3842 24.9101C18.5557 24.6796 18.826 24.5438 19.1132 24.5438H19.1587C19.9097 24.5438 20.3364 25.4033 19.8825 26.0016L18.8767 27.3271C18.6489 27.6274 18.6301 28.0371 18.8294 28.3569L20.1804 30.5246C20.5576 31.1297 20.1224 31.9137 19.4093 31.9137H19.1716C18.8522 31.9137 18.5563 31.746 18.3921 31.472L17.4558 29.9087C17.2378 29.5447 16.7214 29.5151 16.4633 29.8519C16.3828 29.9568 16.3392 30.0853 16.3392 30.2175V31.0051C16.3392 31.5069 15.9325 31.9137 15.4307 31.9137H15.247Z" fill="black"/>
<path d="M9.74217 31.9137H7.81507C7.31329 31.9137 6.90651 31.5069 6.90651 31.0051V25.4524C6.90651 24.9506 7.31329 24.5438 7.81508 24.5438H9.71338C10.4715 24.5438 11.1264 24.6914 11.6782 24.9865C12.2324 25.2791 12.6594 25.7014 12.9593 26.2532C13.2616 26.8025 13.4127 27.4611 13.4127 28.2288C13.4127 28.9965 13.2628 29.6562 12.9629 30.208C12.663 30.7573 12.2384 31.1796 11.689 31.4747C11.1396 31.7673 10.4907 31.9137 9.74217 31.9137ZM8.90731 29.4523C8.90731 29.8736 9.24887 30.2152 9.6702 30.2152C10.0349 30.2152 10.3455 30.1564 10.6022 30.0388C10.8613 29.9213 11.058 29.7186 11.1924 29.4307C11.3291 29.1428 11.3975 28.7422 11.3975 28.2288C11.3975 27.7154 11.3279 27.3147 11.1888 27.0268C11.052 26.739 10.8505 26.5362 10.5842 26.4187C10.3203 26.3011 9.99647 26.2424 9.61262 26.2424C9.22309 26.2424 8.90731 26.5581 8.90731 26.9477V29.4523Z" fill="black"/>
<path d="M4.77075 26.8469C4.409 26.8469 4.13786 26.5175 3.8603 26.2855C3.70196 26.1511 3.46086 26.084 3.13699 26.084C2.93067 26.084 2.76154 26.1092 2.62959 26.1595C2.50004 26.2075 2.40408 26.2735 2.3417 26.3575C2.27933 26.4414 2.24694 26.5374 2.24454 26.6453C2.23975 26.7341 2.25534 26.8145 2.29132 26.8864C2.32971 26.956 2.38969 27.0196 2.47125 27.0772C2.55282 27.1323 2.65718 27.1827 2.78433 27.2283C2.91148 27.2739 3.06262 27.3147 3.23774 27.3507L3.8423 27.4802C4.25014 27.5666 4.5992 27.6805 4.88948 27.8221C5.17977 27.9636 5.41727 28.1304 5.602 28.3223C5.78672 28.5118 5.92227 28.7253 6.00863 28.9628C6.0974 29.2003 6.14298 29.4594 6.14538 29.7401C6.14298 30.2247 6.02183 30.6349 5.78192 30.9708C5.54202 31.3067 5.19896 31.5622 4.75274 31.7373C4.30892 31.9124 3.77513 32 3.15138 32C2.51084 32 1.95186 31.9052 1.47445 31.7157C0.999443 31.5262 0.629991 31.2347 0.366097 30.8413C0.245715 30.659 0.152788 30.4534 0.0873166 30.2244C-0.0509949 29.7406 0.379195 29.3227 0.882363 29.3227H1.27008C1.6066 29.3227 1.85479 29.6099 2.03943 29.8912C2.14019 30.0448 2.28173 30.1611 2.46406 30.2403C2.64878 30.3195 2.86829 30.3591 3.12259 30.3591C3.33611 30.3591 3.51483 30.3327 3.65878 30.2799C3.80272 30.2271 3.91188 30.1539 3.98625 30.0604C4.06062 29.9668 4.099 29.8601 4.1014 29.7401C4.099 29.6274 4.06181 29.529 3.98984 29.445C3.92027 29.3587 3.80512 29.2819 3.64438 29.2147C3.48365 29.1451 3.26653 29.0804 2.99304 29.0204L2.25894 28.8621C1.6064 28.7205 1.09181 28.4842 0.715157 28.1531C0.340907 27.8197 0.154981 27.3651 0.15738 26.7893C0.154981 26.3215 0.279731 25.9124 0.53163 25.5622C0.785928 25.2095 1.13739 24.9348 1.58601 24.7381C2.03703 24.5414 2.55402 24.443 3.13699 24.443C3.73195 24.443 4.24654 24.5426 4.68077 24.7417C5.11499 24.9408 5.44966 25.2215 5.68476 25.5838C5.76203 25.7008 5.82686 25.8244 5.87924 25.9544C6.06742 26.4215 5.63508 26.8469 5.13152 26.8469H4.77075Z" fill="black"/>
</svg>
